<?xml version="1.0" encoding="utf-8"?>
<svg xmlns="http://www.w3.org/2000/svg" xmlns:xlink="http://www.w3.org/1999/xlink" width="600" height="400" viewBox="0 0 2400 1600">
<defs>
  <clipPath id="clip080">
    <rect x="0" y="0" width="2400" height="1600"/>
  </clipPath>
</defs>
<path clip-path="url(#clip080)" d="M0 1600 L2400 1600 L2400 0 L0 0  Z" fill="#ffffff" fill-rule="evenodd" fill-opacity="1"/>
<defs>
  <clipPath id="clip081">
    <rect x="232" y="47" width="2121" height="1377"/>
  </clipPath>
</defs>
<path clip-path="url(#clip080)" d="M232.389 1423.18 L2352.76 1423.18 L2352.76 47.2441 L232.389 47.2441  Z" fill="#ffffff" fill-rule="evenodd" fill-opacity="1"/>
<polyline clip-path="url(#clip081)" style="stroke:#000000; stroke-linecap:round; stroke-linejoin:round; stroke-width:2; stroke-opacity:0.1; fill:none" points="292.4,1423.18 292.4,47.2441 "/>
<polyline clip-path="url(#clip081)" style="stroke:#000000; stroke-linecap:round; stroke-linejoin:round; stroke-width:2; stroke-opacity:0.1; fill:none" points="959.182,1423.18 959.182,47.2441 "/>
<polyline clip-path="url(#clip081)" style="stroke:#000000; stroke-linecap:round; stroke-linejoin:round; stroke-width:2; stroke-opacity:0.1; fill:none" points="1625.96,1423.18 1625.96,47.2441 "/>
<polyline clip-path="url(#clip081)" style="stroke:#000000; stroke-linecap:round; stroke-linejoin:round; stroke-width:2; stroke-opacity:0.1; fill:none" points="2292.75,1423.18 2292.75,47.2441 "/>
<polyline clip-path="url(#clip081)" style="stroke:#000000; stroke-linecap:round; stroke-linejoin:round; stroke-width:2; stroke-opacity:0.1; fill:none" points="232.389,1384.24 2352.76,1384.24 "/>
<polyline clip-path="url(#clip081)" style="stroke:#000000; stroke-linecap:round; stroke-linejoin:round; stroke-width:2; stroke-opacity:0.1; fill:none" points="232.389,1124.63 2352.76,1124.63 "/>
<polyline clip-path="url(#clip081)" style="stroke:#000000; stroke-linecap:round; stroke-linejoin:round; stroke-width:2; stroke-opacity:0.1; fill:none" points="232.389,865.017 2352.76,865.017 "/>
<polyline clip-path="url(#clip081)" style="stroke:#000000; stroke-linecap:round; stroke-linejoin:round; stroke-width:2; stroke-opacity:0.1; fill:none" points="232.389,605.407 2352.76,605.407 "/>
<polyline clip-path="url(#clip081)" style="stroke:#000000; stroke-linecap:round; stroke-linejoin:round; stroke-width:2; stroke-opacity:0.1; fill:none" points="232.389,345.796 2352.76,345.796 "/>
<polyline clip-path="url(#clip081)" style="stroke:#000000; stroke-linecap:round; stroke-linejoin:round; stroke-width:2; stroke-opacity:0.1; fill:none" points="232.389,86.1857 2352.76,86.1857 "/>
<polyline clip-path="url(#clip080)" style="stroke:#000000; stroke-linecap:round; stroke-linejoin:round; stroke-width:4; stroke-opacity:1; fill:none" points="232.389,1423.18 2352.76,1423.18 "/>
<polyline clip-path="url(#clip080)" style="stroke:#000000; stroke-linecap:round; stroke-linejoin:round; stroke-width:4; stroke-opacity:1; fill:none" points="292.4,1423.18 292.4,1404.28 "/>
<polyline clip-path="url(#clip080)" style="stroke:#000000; stroke-linecap:round; stroke-linejoin:round; stroke-width:4; stroke-opacity:1; fill:none" points="959.182,1423.18 959.182,1404.28 "/>
<polyline clip-path="url(#clip080)" style="stroke:#000000; stroke-linecap:round; stroke-linejoin:round; stroke-width:4; stroke-opacity:1; fill:none" points="1625.96,1423.18 1625.96,1404.28 "/>
<polyline clip-path="url(#clip080)" style="stroke:#000000; stroke-linecap:round; stroke-linejoin:round; stroke-width:4; stroke-opacity:1; fill:none" points="2292.75,1423.18 2292.75,1404.28 "/>
<path clip-path="url(#clip080)" d="M292.4 1454.1 Q288.789 1454.1 286.96 1457.66 Q285.154 1461.2 285.154 1468.33 Q285.154 1475.44 286.96 1479.01 Q288.789 1482.55 292.4 1482.55 Q296.034 1482.55 297.84 1479.01 Q299.668 1475.44 299.668 1468.33 Q299.668 1461.2 297.84 1457.66 Q296.034 1454.1 292.4 1454.1 M292.4 1450.39 Q298.21 1450.39 301.265 1455 Q304.344 1459.58 304.344 1468.33 Q304.344 1477.06 301.265 1481.67 Q298.21 1486.25 292.4 1486.25 Q286.59 1486.25 283.511 1481.67 Q280.455 1477.06 280.455 1468.33 Q280.455 1459.58 283.511 1455 Q286.59 1450.39 292.4 1450.39 Z" fill="#000000" fill-rule="nonzero" fill-opacity="1" /><path clip-path="url(#clip080)" d="M949.459 1451.02 L967.816 1451.02 L967.816 1454.96 L953.742 1454.96 L953.742 1463.43 Q954.76 1463.08 955.779 1462.92 Q956.797 1462.73 957.816 1462.73 Q963.603 1462.73 966.983 1465.9 Q970.362 1469.08 970.362 1474.49 Q970.362 1480.07 966.89 1483.17 Q963.418 1486.25 957.098 1486.25 Q954.922 1486.25 952.654 1485.88 Q950.409 1485.51 948.001 1484.77 L948.001 1480.07 Q950.084 1481.2 952.307 1481.76 Q954.529 1482.32 957.006 1482.32 Q961.01 1482.32 963.348 1480.21 Q965.686 1478.1 965.686 1474.49 Q965.686 1470.88 963.348 1468.77 Q961.01 1466.67 957.006 1466.67 Q955.131 1466.67 953.256 1467.08 Q951.404 1467.5 949.459 1468.38 L949.459 1451.02 Z" fill="#000000" fill-rule="nonzero" fill-opacity="1" /><path clip-path="url(#clip080)" d="M1600.65 1481.64 L1608.29 1481.64 L1608.29 1455.28 L1599.98 1456.95 L1599.98 1452.69 L1608.24 1451.02 L1612.92 1451.02 L1612.92 1481.64 L1620.56 1481.64 L1620.56 1485.58 L1600.65 1485.58 L1600.65 1481.64 Z" fill="#000000" fill-rule="nonzero" fill-opacity="1" /><path clip-path="url(#clip080)" d="M1640 1454.1 Q1636.39 1454.1 1634.56 1457.66 Q1632.76 1461.2 1632.76 1468.33 Q1632.76 1475.44 1634.56 1479.01 Q1636.39 1482.55 1640 1482.55 Q1643.64 1482.55 1645.44 1479.01 Q1647.27 1475.44 1647.27 1468.33 Q1647.27 1461.2 1645.44 1457.66 Q1643.64 1454.1 1640 1454.1 M1640 1450.39 Q1645.81 1450.39 1648.87 1455 Q1651.95 1459.58 1651.95 1468.33 Q1651.95 1477.06 1648.87 1481.67 Q1645.81 1486.25 1640 1486.25 Q1634.19 1486.25 1631.11 1481.67 Q1628.06 1477.06 1628.06 1468.33 Q1628.06 1459.58 1631.11 1455 Q1634.19 1450.39 1640 1450.39 Z" fill="#000000" fill-rule="nonzero" fill-opacity="1" /><path clip-path="url(#clip080)" d="M2267.93 1481.64 L2275.57 1481.64 L2275.57 1455.28 L2267.26 1456.95 L2267.26 1452.69 L2275.52 1451.02 L2280.2 1451.02 L2280.2 1481.64 L2287.84 1481.64 L2287.84 1485.58 L2267.93 1485.58 L2267.93 1481.64 Z" fill="#000000" fill-rule="nonzero" fill-opacity="1" /><path clip-path="url(#clip080)" d="M2297.33 1451.02 L2315.69 1451.02 L2315.69 1454.96 L2301.61 1454.96 L2301.61 1463.43 Q2302.63 1463.08 2303.65 1462.92 Q2304.67 1462.73 2305.69 1462.73 Q2311.47 1462.73 2314.85 1465.9 Q2318.23 1469.08 2318.23 1474.49 Q2318.23 1480.07 2314.76 1483.17 Q2311.29 1486.25 2304.97 1486.25 Q2302.79 1486.25 2300.52 1485.88 Q2298.28 1485.51 2295.87 1484.77 L2295.87 1480.07 Q2297.95 1481.2 2300.18 1481.76 Q2302.4 1482.32 2304.88 1482.32 Q2308.88 1482.32 2311.22 1480.21 Q2313.56 1478.1 2313.56 1474.49 Q2313.56 1470.88 2311.22 1468.77 Q2308.88 1466.67 2304.88 1466.67 Q2303 1466.67 2301.13 1467.08 Q2299.27 1467.5 2297.33 1468.38 L2297.33 1451.02 Z" fill="#000000" fill-rule="nonzero" fill-opacity="1" /><path clip-path="url(#clip080)" d="M1160.72 1532.4 L1166.58 1532.4 L1166.58 1568.04 L1160.72 1568.04 L1160.72 1532.4 M1160.72 1518.52 L1166.58 1518.52 L1166.58 1525.93 L1160.72 1525.93 L1160.72 1518.52 Z" fill="#000000" fill-rule="nonzero" fill-opacity="1" /><path clip-path="url(#clip080)" d="M1184.63 1522.27 L1184.63 1532.4 L1196.69 1532.4 L1196.69 1536.95 L1184.63 1536.95 L1184.63 1556.3 Q1184.63 1560.66 1185.8 1561.9 Q1187.01 1563.14 1190.67 1563.14 L1196.69 1563.14 L1196.69 1568.04 L1190.67 1568.04 Q1183.89 1568.04 1181.32 1565.53 Q1178.74 1562.98 1178.74 1556.3 L1178.74 1536.95 L1174.44 1536.95 L1174.44 1532.4 L1178.74 1532.4 L1178.74 1522.27 L1184.63 1522.27 Z" fill="#000000" fill-rule="nonzero" fill-opacity="1" /><path clip-path="url(#clip080)" d="M1234.88 1548.76 L1234.88 1551.62 L1207.96 1551.62 Q1208.34 1557.67 1211.58 1560.85 Q1214.86 1564 1220.69 1564 Q1224.06 1564 1227.21 1563.17 Q1230.4 1562.35 1233.51 1560.69 L1233.51 1566.23 Q1230.36 1567.57 1227.05 1568.27 Q1223.74 1568.97 1220.34 1568.97 Q1211.81 1568.97 1206.81 1564 Q1201.85 1559.04 1201.85 1550.57 Q1201.85 1541.82 1206.56 1536.69 Q1211.3 1531.54 1219.32 1531.54 Q1226.51 1531.54 1230.68 1536.18 Q1234.88 1540.8 1234.88 1548.76 M1229.03 1547.04 Q1228.96 1542.23 1226.32 1539.37 Q1223.71 1536.5 1219.38 1536.5 Q1214.48 1536.5 1211.52 1539.27 Q1208.59 1542.04 1208.15 1547.07 L1229.03 1547.04 Z" fill="#000000" fill-rule="nonzero" fill-opacity="1" /><path clip-path="url(#clip080)" d="M1265.15 1537.87 Q1264.17 1537.3 1262.99 1537.04 Q1261.84 1536.76 1260.44 1536.76 Q1255.48 1536.76 1252.8 1540 Q1250.16 1543.22 1250.16 1549.27 L1250.16 1568.04 L1244.27 1568.04 L1244.27 1532.4 L1250.16 1532.4 L1250.16 1537.93 Q1252.01 1534.69 1254.97 1533.13 Q1257.93 1531.54 1262.16 1531.54 Q1262.77 1531.54 1263.5 1531.63 Q1264.23 1531.7 1265.12 1531.85 L1265.15 1537.87 Z" fill="#000000" fill-rule="nonzero" fill-opacity="1" /><path clip-path="url(#clip080)" d="M1287.5 1550.12 Q1280.4 1550.12 1277.66 1551.75 Q1274.92 1553.37 1274.92 1557.29 Q1274.92 1560.4 1276.96 1562.25 Q1279.03 1564.07 1282.56 1564.07 Q1287.43 1564.07 1290.36 1560.63 Q1293.32 1557.16 1293.32 1551.43 L1293.32 1550.12 L1287.5 1550.12 M1299.18 1547.71 L1299.18 1568.04 L1293.32 1568.04 L1293.32 1562.63 Q1291.32 1565.88 1288.32 1567.44 Q1285.33 1568.97 1281 1568.97 Q1275.53 1568.97 1272.28 1565.91 Q1269.07 1562.82 1269.07 1557.67 Q1269.07 1551.65 1273.08 1548.6 Q1277.12 1545.54 1285.11 1545.54 L1293.32 1545.54 L1293.32 1544.97 Q1293.32 1540.93 1290.65 1538.73 Q1288.01 1536.5 1283.2 1536.5 Q1280.14 1536.5 1277.25 1537.23 Q1274.35 1537.97 1271.68 1539.43 L1271.68 1534.02 Q1274.89 1532.78 1277.92 1532.17 Q1280.94 1531.54 1283.8 1531.54 Q1291.54 1531.54 1295.36 1535.55 Q1299.18 1539.56 1299.18 1547.71 Z" fill="#000000" fill-rule="nonzero" fill-opacity="1" /><path clip-path="url(#clip080)" d="M1317.03 1522.27 L1317.03 1532.4 L1329.1 1532.4 L1329.1 1536.95 L1317.03 1536.95 L1317.03 1556.3 Q1317.03 1560.66 1318.21 1561.9 Q1319.42 1563.14 1323.08 1563.14 L1329.1 1563.14 L1329.1 1568.04 L1323.08 1568.04 Q1316.3 1568.04 1313.72 1565.53 Q1311.14 1562.98 1311.14 1556.3 L1311.14 1536.95 L1306.85 1536.95 L1306.85 1532.4 L1311.14 1532.4 L1311.14 1522.27 L1317.03 1522.27 Z" fill="#000000" fill-rule="nonzero" fill-opacity="1" /><path clip-path="url(#clip080)" d="M1336.8 1532.4 L1342.65 1532.4 L1342.65 1568.04 L1336.8 1568.04 L1336.8 1532.4 M1336.8 1518.52 L1342.65 1518.52 L1342.65 1525.93 L1336.8 1525.93 L1336.8 1518.52 Z" fill="#000000" fill-rule="nonzero" fill-opacity="1" /><path clip-path="url(#clip080)" d="M1368.72 1536.5 Q1364.01 1536.5 1361.27 1540.19 Q1358.54 1543.85 1358.54 1550.25 Q1358.54 1556.65 1361.24 1560.34 Q1363.98 1564 1368.72 1564 Q1373.4 1564 1376.14 1560.31 Q1378.88 1556.62 1378.88 1550.25 Q1378.88 1543.92 1376.14 1540.23 Q1373.4 1536.5 1368.72 1536.5 M1368.72 1531.54 Q1376.36 1531.54 1380.72 1536.5 Q1385.08 1541.47 1385.08 1550.25 Q1385.08 1559 1380.72 1564 Q1376.36 1568.97 1368.72 1568.97 Q1361.05 1568.97 1356.69 1564 Q1352.36 1559 1352.36 1550.25 Q1352.36 1541.47 1356.69 1536.5 Q1361.05 1531.54 1368.72 1531.54 Z" fill="#000000" fill-rule="nonzero" fill-opacity="1" /><path clip-path="url(#clip080)" d="M1424.42 1546.53 L1424.42 1568.04 L1418.57 1568.04 L1418.57 1546.72 Q1418.57 1541.66 1416.59 1539.14 Q1414.62 1536.63 1410.67 1536.63 Q1405.93 1536.63 1403.19 1539.65 Q1400.46 1542.68 1400.46 1547.9 L1400.46 1568.04 L1394.57 1568.04 L1394.57 1532.4 L1400.46 1532.4 L1400.46 1537.93 Q1402.56 1534.72 1405.39 1533.13 Q1408.25 1531.54 1411.98 1531.54 Q1418.12 1531.54 1421.27 1535.36 Q1424.42 1539.14 1424.42 1546.53 Z" fill="#000000" fill-rule="nonzero" fill-opacity="1" /><polyline clip-path="url(#clip080)" style="stroke:#000000; stroke-linecap:round; stroke-linejoin:round; stroke-width:4; stroke-opacity:1; fill:none" points="232.389,1423.18 232.389,47.2441 "/>
<polyline clip-path="url(#clip080)" style="stroke:#000000; stroke-linecap:round; stroke-linejoin:round; stroke-width:4; stroke-opacity:1; fill:none" points="232.389,1384.24 251.287,1384.24 "/>
<polyline clip-path="url(#clip080)" style="stroke:#000000; stroke-linecap:round; stroke-linejoin:round; stroke-width:4; stroke-opacity:1; fill:none" points="232.389,1124.63 251.287,1124.63 "/>
<polyline clip-path="url(#clip080)" style="stroke:#000000; stroke-linecap:round; stroke-linejoin:round; stroke-width:4; stroke-opacity:1; fill:none" points="232.389,865.017 251.287,865.017 "/>
<polyline clip-path="url(#clip080)" style="stroke:#000000; stroke-linecap:round; stroke-linejoin:round; stroke-width:4; stroke-opacity:1; fill:none" points="232.389,605.407 251.287,605.407 "/>
<polyline clip-path="url(#clip080)" style="stroke:#000000; stroke-linecap:round; stroke-linejoin:round; stroke-width:4; stroke-opacity:1; fill:none" points="232.389,345.796 251.287,345.796 "/>
<polyline clip-path="url(#clip080)" style="stroke:#000000; stroke-linecap:round; stroke-linejoin:round; stroke-width:4; stroke-opacity:1; fill:none" points="232.389,86.1857 251.287,86.1857 "/>
<path clip-path="url(#clip080)" d="M184.445 1370.04 Q180.834 1370.04 179.005 1373.6 Q177.2 1377.14 177.2 1384.27 Q177.2 1391.38 179.005 1394.94 Q180.834 1398.49 184.445 1398.49 Q188.079 1398.49 189.885 1394.94 Q191.713 1391.38 191.713 1384.27 Q191.713 1377.14 189.885 1373.6 Q188.079 1370.04 184.445 1370.04 M184.445 1366.33 Q190.255 1366.33 193.311 1370.94 Q196.389 1375.52 196.389 1384.27 Q196.389 1393 193.311 1397.61 Q190.255 1402.19 184.445 1402.19 Q178.635 1402.19 175.556 1397.61 Q172.501 1393 172.501 1384.27 Q172.501 1375.52 175.556 1370.94 Q178.635 1366.33 184.445 1366.33 Z" fill="#000000" fill-rule="nonzero" fill-opacity="1" /><path clip-path="url(#clip080)" d="M148.311 1137.97 L164.63 1137.97 L164.63 1141.91 L142.686 1141.91 L142.686 1137.97 Q145.348 1135.22 149.931 1130.59 Q154.538 1125.94 155.718 1124.59 Q157.964 1122.07 158.843 1120.33 Q159.746 1118.57 159.746 1116.88 Q159.746 1114.13 157.802 1112.39 Q155.88 1110.66 152.778 1110.66 Q150.579 1110.66 148.126 1111.42 Q145.695 1112.19 142.917 1113.74 L142.917 1109.01 Q145.741 1107.88 148.195 1107.3 Q150.649 1106.72 152.686 1106.72 Q158.056 1106.72 161.251 1109.41 Q164.445 1112.09 164.445 1116.58 Q164.445 1118.71 163.635 1120.63 Q162.848 1122.53 160.741 1125.13 Q160.163 1125.8 157.061 1129.01 Q153.959 1132.21 148.311 1137.97 Z" fill="#000000" fill-rule="nonzero" fill-opacity="1" /><path clip-path="url(#clip080)" d="M184.445 1110.43 Q180.834 1110.43 179.005 1113.99 Q177.2 1117.53 177.2 1124.66 Q177.2 1131.77 179.005 1135.33 Q180.834 1138.88 184.445 1138.88 Q188.079 1138.88 189.885 1135.33 Q191.713 1131.77 191.713 1124.66 Q191.713 1117.53 189.885 1113.99 Q188.079 1110.43 184.445 1110.43 M184.445 1106.72 Q190.255 1106.72 193.311 1111.33 Q196.389 1115.91 196.389 1124.66 Q196.389 1133.39 193.311 1138 Q190.255 1142.58 184.445 1142.58 Q178.635 1142.58 175.556 1138 Q172.501 1133.39 172.501 1124.66 Q172.501 1115.91 175.556 1111.33 Q178.635 1106.72 184.445 1106.72 Z" fill="#000000" fill-rule="nonzero" fill-opacity="1" /><path clip-path="url(#clip080)" d="M157.13 851.811 L145.325 870.26 L157.13 870.26 L157.13 851.811 M155.903 847.737 L161.783 847.737 L161.783 870.26 L166.714 870.26 L166.714 874.149 L161.783 874.149 L161.783 882.297 L157.13 882.297 L157.13 874.149 L141.529 874.149 L141.529 869.635 L155.903 847.737 Z" fill="#000000" fill-rule="nonzero" fill-opacity="1" /><path clip-path="url(#clip080)" d="M184.445 850.816 Q180.834 850.816 179.005 854.381 Q177.2 857.922 177.2 865.052 Q177.2 872.158 179.005 875.723 Q180.834 879.265 184.445 879.265 Q188.079 879.265 189.885 875.723 Q191.713 872.158 191.713 865.052 Q191.713 857.922 189.885 854.381 Q188.079 850.816 184.445 850.816 M184.445 847.112 Q190.255 847.112 193.311 851.719 Q196.389 856.302 196.389 865.052 Q196.389 873.779 193.311 878.385 Q190.255 882.969 184.445 882.969 Q178.635 882.969 175.556 878.385 Q172.501 873.779 172.501 865.052 Q172.501 856.302 175.556 851.719 Q178.635 847.112 184.445 847.112 Z" fill="#000000" fill-rule="nonzero" fill-opacity="1" /><path clip-path="url(#clip080)" d="M154.862 603.543 Q151.714 603.543 149.862 605.696 Q148.033 607.849 148.033 611.599 Q148.033 615.326 149.862 617.502 Q151.714 619.654 154.862 619.654 Q158.01 619.654 159.839 617.502 Q161.69 615.326 161.69 611.599 Q161.69 607.849 159.839 605.696 Q158.01 603.543 154.862 603.543 M164.144 588.891 L164.144 593.15 Q162.385 592.317 160.579 591.877 Q158.797 591.437 157.038 591.437 Q152.408 591.437 149.954 594.562 Q147.524 597.687 147.177 604.006 Q148.542 601.992 150.603 600.928 Q152.663 599.84 155.14 599.84 Q160.348 599.84 163.357 603.011 Q166.39 606.159 166.39 611.599 Q166.39 616.923 163.241 620.14 Q160.093 623.358 154.862 623.358 Q148.866 623.358 145.695 618.775 Q142.524 614.168 142.524 605.441 Q142.524 597.247 146.413 592.386 Q150.302 587.502 156.853 587.502 Q158.612 587.502 160.394 587.849 Q162.2 588.196 164.144 588.891 Z" fill="#000000" fill-rule="nonzero" fill-opacity="1" /><path clip-path="url(#clip080)" d="M184.445 591.205 Q180.834 591.205 179.005 594.77 Q177.2 598.312 177.2 605.441 Q177.2 612.548 179.005 616.113 Q180.834 619.654 184.445 619.654 Q188.079 619.654 189.885 616.113 Q191.713 612.548 191.713 605.441 Q191.713 598.312 189.885 594.77 Q188.079 591.205 184.445 591.205 M184.445 587.502 Q190.255 587.502 193.311 592.108 Q196.389 596.691 196.389 605.441 Q196.389 614.168 193.311 618.775 Q190.255 623.358 184.445 623.358 Q178.635 623.358 175.556 618.775 Q172.501 614.168 172.501 605.441 Q172.501 596.691 175.556 592.108 Q178.635 587.502 184.445 587.502 Z" fill="#000000" fill-rule="nonzero" fill-opacity="1" /><path clip-path="url(#clip080)" d="M154.283 346.664 Q150.95 346.664 149.028 348.447 Q147.13 350.229 147.13 353.354 Q147.13 356.479 149.028 358.261 Q150.95 360.044 154.283 360.044 Q157.616 360.044 159.538 358.261 Q161.459 356.456 161.459 353.354 Q161.459 350.229 159.538 348.447 Q157.64 346.664 154.283 346.664 M149.607 344.674 Q146.598 343.933 144.908 341.873 Q143.241 339.812 143.241 336.849 Q143.241 332.706 146.181 330.299 Q149.144 327.891 154.283 327.891 Q159.445 327.891 162.385 330.299 Q165.325 332.706 165.325 336.849 Q165.325 339.812 163.635 341.873 Q161.968 343.933 158.982 344.674 Q162.362 345.461 164.237 347.752 Q166.135 350.044 166.135 353.354 Q166.135 358.377 163.056 361.062 Q160.001 363.747 154.283 363.747 Q148.566 363.747 145.487 361.062 Q142.431 358.377 142.431 353.354 Q142.431 350.044 144.329 347.752 Q146.228 345.461 149.607 344.674 M147.894 337.289 Q147.894 339.974 149.561 341.479 Q151.251 342.984 154.283 342.984 Q157.292 342.984 158.982 341.479 Q160.695 339.974 160.695 337.289 Q160.695 334.604 158.982 333.099 Q157.292 331.595 154.283 331.595 Q151.251 331.595 149.561 333.099 Q147.894 334.604 147.894 337.289 Z" fill="#000000" fill-rule="nonzero" fill-opacity="1" /><path clip-path="url(#clip080)" d="M184.445 331.595 Q180.834 331.595 179.005 335.16 Q177.2 338.701 177.2 345.831 Q177.2 352.937 179.005 356.502 Q180.834 360.044 184.445 360.044 Q188.079 360.044 189.885 356.502 Q191.713 352.937 191.713 345.831 Q191.713 338.701 189.885 335.16 Q188.079 331.595 184.445 331.595 M184.445 327.891 Q190.255 327.891 193.311 332.498 Q196.389 337.081 196.389 345.831 Q196.389 354.558 193.311 359.164 Q190.255 363.747 184.445 363.747 Q178.635 363.747 175.556 359.164 Q172.501 354.558 172.501 345.831 Q172.501 337.081 175.556 332.498 Q178.635 327.891 184.445 327.891 Z" fill="#000000" fill-rule="nonzero" fill-opacity="1" /><path clip-path="url(#clip080)" d="M114.931 99.5305 L122.57 99.5305 L122.57 73.1649 L114.26 74.8316 L114.26 70.5723 L122.524 68.9057 L127.2 68.9057 L127.2 99.5305 L134.839 99.5305 L134.839 103.466 L114.931 103.466 L114.931 99.5305 Z" fill="#000000" fill-rule="nonzero" fill-opacity="1" /><path clip-path="url(#clip080)" d="M154.283 71.9844 Q150.672 71.9844 148.843 75.5492 Q147.038 79.0908 147.038 86.2204 Q147.038 93.3268 148.843 96.8916 Q150.672 100.433 154.283 100.433 Q157.917 100.433 159.723 96.8916 Q161.552 93.3268 161.552 86.2204 Q161.552 79.0908 159.723 75.5492 Q157.917 71.9844 154.283 71.9844 M154.283 68.2807 Q160.093 68.2807 163.149 72.8871 Q166.227 77.4704 166.227 86.2204 Q166.227 94.9472 163.149 99.5537 Q160.093 104.137 154.283 104.137 Q148.473 104.137 145.394 99.5537 Q142.339 94.9472 142.339 86.2204 Q142.339 77.4704 145.394 72.8871 Q148.473 68.2807 154.283 68.2807 Z" fill="#000000" fill-rule="nonzero" fill-opacity="1" /><path clip-path="url(#clip080)" d="M184.445 71.9844 Q180.834 71.9844 179.005 75.5492 Q177.2 79.0908 177.2 86.2204 Q177.2 93.3268 179.005 96.8916 Q180.834 100.433 184.445 100.433 Q188.079 100.433 189.885 96.8916 Q191.713 93.3268 191.713 86.2204 Q191.713 79.0908 189.885 75.5492 Q188.079 71.9844 184.445 71.9844 M184.445 68.2807 Q190.255 68.2807 193.311 72.8871 Q196.389 77.4704 196.389 86.2204 Q196.389 94.9472 193.311 99.5537 Q190.255 104.137 184.445 104.137 Q178.635 104.137 175.556 99.5537 Q172.501 94.9472 172.501 86.2204 Q172.501 77.4704 175.556 72.8871 Q178.635 68.2807 184.445 68.2807 Z" fill="#000000" fill-rule="nonzero" fill-opacity="1" /><path clip-path="url(#clip080)" d="M16.4842 846.357 L16.4842 837.7 L56.238 816.629 L16.4842 816.629 L16.4842 810.391 L64.0042 810.391 L64.0042 819.048 L24.2503 840.119 L64.0042 840.119 L64.0042 846.357 L16.4842 846.357 Z" fill="#000000" fill-rule="nonzero" fill-opacity="1" /><path clip-path="url(#clip080)" d="M41.7242 775.061 Q42.4244 772.992 44.7161 771.051 Q47.0077 769.078 51.0181 767.104 L64.0042 760.579 L64.0042 767.486 L51.8138 773.565 Q47.0395 775.921 45.48 778.149 Q43.9204 780.345 43.9204 784.164 L43.9204 791.167 L64.0042 791.167 L64.0042 797.596 L16.4842 797.596 L16.4842 783.082 Q16.4842 774.934 19.8898 770.924 Q23.2955 766.913 30.1704 766.913 Q34.6582 766.913 37.6183 769.014 Q40.5784 771.083 41.7242 775.061 M21.7677 791.167 L38.6368 791.167 L38.6368 783.082 Q38.6368 778.435 36.5043 776.08 Q34.34 773.693 30.1704 773.693 Q26.0009 773.693 23.9002 776.08 Q21.7677 778.435 21.7677 783.082 L21.7677 791.167 Z" fill="#000000" fill-rule="nonzero" fill-opacity="1" /><path clip-path="url(#clip080)" d="M16.4842 752.304 L16.4842 742.724 L48.8219 730.597 L16.4842 718.407 L16.4842 708.826 L64.0042 708.826 L64.0042 715.096 L22.277 715.096 L54.8694 727.35 L54.8694 733.812 L22.277 746.065 L64.0042 746.065 L64.0042 752.304 L16.4842 752.304 Z" fill="#000000" fill-rule="nonzero" fill-opacity="1" /><path clip-path="url(#clip080)" d="M18.0438 667.576 L24.314 667.576 Q22.5634 671.237 21.704 674.483 Q20.8447 677.73 20.8447 680.753 Q20.8447 686.005 22.8817 688.87 Q24.9187 691.702 28.6745 691.702 Q31.8255 691.702 33.4488 689.824 Q35.0402 687.915 36.0269 682.631 L36.8226 678.748 Q38.1912 671.555 41.6605 668.149 Q45.098 664.712 50.8908 664.712 Q57.7976 664.712 61.3624 669.359 Q64.9272 673.974 64.9272 682.918 Q64.9272 686.292 64.1633 690.111 Q63.3994 693.899 61.9035 697.973 L55.2831 697.973 Q57.4793 694.058 58.5933 690.302 Q59.7073 686.546 59.7073 682.918 Q59.7073 677.411 57.543 674.419 Q55.3786 671.428 51.3682 671.428 Q47.8671 671.428 45.8937 673.592 Q43.9204 675.724 42.9337 680.626 L42.1698 684.541 Q40.7375 691.734 37.682 694.949 Q34.6264 698.164 29.1837 698.164 Q22.8817 698.164 19.2532 693.739 Q15.6248 689.283 15.6248 681.485 Q15.6248 678.143 16.2295 674.674 Q16.8343 671.205 18.0438 667.576 Z" fill="#000000" fill-rule="nonzero" fill-opacity="1" /><path clip-path="url(#clip080)" d="M16.4842 654.686 L16.4842 624.64 L21.895 624.64 L21.895 648.256 L35.9632 648.256 L35.9632 625.626 L41.3741 625.626 L41.3741 648.256 L58.5933 648.256 L58.5933 624.067 L64.0042 624.067 L64.0042 654.686 L16.4842 654.686 Z" fill="#000000" fill-rule="nonzero" fill-opacity="1" /><polyline clip-path="url(#clip081)" style="stroke:#ff0000; stroke-linecap:round; stroke-linejoin:round; stroke-width:8; stroke-opacity:1; fill:none" points="292.4,86.1857 425.756,639.666 559.112,976.206 692.469,1110.42 825.825,1166.88 959.182,1205.73 1092.54,1233.35 1225.89,1256.61 1359.25,1266.97 1492.61,1272.56 1625.96,1273.29 1759.32,1272.9 1892.68,1271.53 2026.03,1269.92 2159.39,1268.73 2292.75,1267.76 "/>
<circle clip-path="url(#clip081)" cx="292.4" cy="86.1857" r="14.4" fill="#ff0000" fill-rule="evenodd" fill-opacity="1" stroke="none"/>
<circle clip-path="url(#clip081)" cx="425.756" cy="639.666" r="14.4" fill="#ff0000" fill-rule="evenodd" fill-opacity="1" stroke="none"/>
<circle clip-path="url(#clip081)" cx="559.112" cy="976.206" r="14.4" fill="#ff0000" fill-rule="evenodd" fill-opacity="1" stroke="none"/>
<circle clip-path="url(#clip081)" cx="692.469" cy="1110.42" r="14.4" fill="#ff0000" fill-rule="evenodd" fill-opacity="1" stroke="none"/>
<circle clip-path="url(#clip081)" cx="825.825" cy="1166.88" r="14.4" fill="#ff0000" fill-rule="evenodd" fill-opacity="1" stroke="none"/>
<circle clip-path="url(#clip081)" cx="959.182" cy="1205.73" r="14.4" fill="#ff0000" fill-rule="evenodd" fill-opacity="1" stroke="none"/>
<circle clip-path="url(#clip081)" cx="1092.54" cy="1233.35" r="14.4" fill="#ff0000" fill-rule="evenodd" fill-opacity="1" stroke="none"/>
<circle clip-path="url(#clip081)" cx="1225.89" cy="1256.61" r="14.4" fill="#ff0000" fill-rule="evenodd" fill-opacity="1" stroke="none"/>
<circle clip-path="url(#clip081)" cx="1359.25" cy="1266.97" r="14.4" fill="#ff0000" fill-rule="evenodd" fill-opacity="1" stroke="none"/>
<circle clip-path="url(#clip081)" cx="1492.61" cy="1272.56" r="14.4" fill="#ff0000" fill-rule="evenodd" fill-opacity="1" stroke="none"/>
<circle clip-path="url(#clip081)" cx="1625.96" cy="1273.29" r="14.4" fill="#ff0000" fill-rule="evenodd" fill-opacity="1" stroke="none"/>
<circle clip-path="url(#clip081)" cx="1759.32" cy="1272.9" r="14.4" fill="#ff0000" fill-rule="evenodd" fill-opacity="1" stroke="none"/>
<circle clip-path="url(#clip081)" cx="1892.68" cy="1271.53" r="14.4" fill="#ff0000" fill-rule="evenodd" fill-opacity="1" stroke="none"/>
<circle clip-path="url(#clip081)" cx="2026.03" cy="1269.92" r="14.4" fill="#ff0000" fill-rule="evenodd" fill-opacity="1" stroke="none"/>
<circle clip-path="url(#clip081)" cx="2159.39" cy="1268.73" r="14.4" fill="#ff0000" fill-rule="evenodd" fill-opacity="1" stroke="none"/>
<circle clip-path="url(#clip081)" cx="2292.75" cy="1267.76" r="14.4" fill="#ff0000" fill-rule="evenodd" fill-opacity="1" stroke="none"/>
<polyline clip-path="url(#clip081)" style="stroke:#0000ff; stroke-linecap:round; stroke-linejoin:round; stroke-width:8; stroke-opacity:1; fill:none" points="292.4,86.1857 425.756,1157.58 559.112,1237.05 692.469,1245.36 825.825,1247.49 959.182,1250.03 1092.54,1250.8 1225.89,1251.7 1359.25,1252.95 1492.61,1253.65 1625.96,1254.27 1759.32,1254.67 1892.68,1254.86 2026.03,1255.02 2159.39,1255.08 2292.75,1255 "/>
<line clip-path="url(#clip081)" x1="292.4" y1="86.1857" x2="276.4" y2="70.1857" style="stroke:#0000ff; stroke-width:8; stroke-opacity:1"/>
<line clip-path="url(#clip081)" x1="292.4" y1="86.1857" x2="276.4" y2="102.186" style="stroke:#0000ff; stroke-width:8; stroke-opacity:1"/>
<line clip-path="url(#clip081)" x1="292.4" y1="86.1857" x2="308.4" y2="102.186" style="stroke:#0000ff; stroke-width:8; stroke-opacity:1"/>
<line clip-path="url(#clip081)" x1="292.4" y1="86.1857" x2="308.4" y2="70.1857" style="stroke:#0000ff; stroke-width:8; stroke-opacity:1"/>
<line clip-path="url(#clip081)" x1="425.756" y1="1157.58" x2="409.756" y2="1141.58" style="stroke:#0000ff; stroke-width:8; stroke-opacity:1"/>
<line clip-path="url(#clip081)" x1="425.756" y1="1157.58" x2="409.756" y2="1173.58" style="stroke:#0000ff; stroke-width:8; stroke-opacity:1"/>
<line clip-path="url(#clip081)" x1="425.756" y1="1157.58" x2="441.756" y2="1173.58" style="stroke:#0000ff; stroke-width:8; stroke-opacity:1"/>
<line clip-path="url(#clip081)" x1="425.756" y1="1157.58" x2="441.756" y2="1141.58" style="stroke:#0000ff; stroke-width:8; stroke-opacity:1"/>
<line clip-path="url(#clip081)" x1="559.112" y1="1237.05" x2="543.112" y2="1221.05" style="stroke:#0000ff; stroke-width:8; stroke-opacity:1"/>
<line clip-path="url(#clip081)" x1="559.112" y1="1237.05" x2="543.112" y2="1253.05" style="stroke:#0000ff; stroke-width:8; stroke-opacity:1"/>
<line clip-path="url(#clip081)" x1="559.112" y1="1237.05" x2="575.112" y2="1253.05" style="stroke:#0000ff; stroke-width:8; stroke-opacity:1"/>
<line clip-path="url(#clip081)" x1="559.112" y1="1237.05" x2="575.112" y2="1221.05" style="stroke:#0000ff; stroke-width:8; stroke-opacity:1"/>
<line clip-path="url(#clip081)" x1="692.469" y1="1245.36" x2="676.469" y2="1229.36" style="stroke:#0000ff; stroke-width:8; stroke-opacity:1"/>
<line clip-path="url(#clip081)" x1="692.469" y1="1245.36" x2="676.469" y2="1261.36" style="stroke:#0000ff; stroke-width:8; stroke-opacity:1"/>
<line clip-path="url(#clip081)" x1="692.469" y1="1245.36" x2="708.469" y2="1261.36" style="stroke:#0000ff; stroke-width:8; stroke-opacity:1"/>
<line clip-path="url(#clip081)" x1="692.469" y1="1245.36" x2="708.469" y2="1229.36" style="stroke:#0000ff; stroke-width:8; stroke-opacity:1"/>
<line clip-path="url(#clip081)" x1="825.825" y1="1247.49" x2="809.825" y2="1231.49" style="stroke:#0000ff; stroke-width:8; stroke-opacity:1"/>
<line clip-path="url(#clip081)" x1="825.825" y1="1247.49" x2="809.825" y2="1263.49" style="stroke:#0000ff; stroke-width:8; stroke-opacity:1"/>
<line clip-path="url(#clip081)" x1="825.825" y1="1247.49" x2="841.825" y2="1263.49" style="stroke:#0000ff; stroke-width:8; stroke-opacity:1"/>
<line clip-path="url(#clip081)" x1="825.825" y1="1247.49" x2="841.825" y2="1231.49" style="stroke:#0000ff; stroke-width:8; stroke-opacity:1"/>
<line clip-path="url(#clip081)" x1="959.182" y1="1250.03" x2="943.182" y2="1234.03" style="stroke:#0000ff; stroke-width:8; stroke-opacity:1"/>
<line clip-path="url(#clip081)" x1="959.182" y1="1250.03" x2="943.182" y2="1266.03" style="stroke:#0000ff; stroke-width:8; stroke-opacity:1"/>
<line clip-path="url(#clip081)" x1="959.182" y1="1250.03" x2="975.182" y2="1266.03" style="stroke:#0000ff; stroke-width:8; stroke-opacity:1"/>
<line clip-path="url(#clip081)" x1="959.182" y1="1250.03" x2="975.182" y2="1234.03" style="stroke:#0000ff; stroke-width:8; stroke-opacity:1"/>
<line clip-path="url(#clip081)" x1="1092.54" y1="1250.8" x2="1076.54" y2="1234.8" style="stroke:#0000ff; stroke-width:8; stroke-opacity:1"/>
<line clip-path="url(#clip081)" x1="1092.54" y1="1250.8" x2="1076.54" y2="1266.8" style="stroke:#0000ff; stroke-width:8; stroke-opacity:1"/>
<line clip-path="url(#clip081)" x1="1092.54" y1="1250.8" x2="1108.54" y2="1266.8" style="stroke:#0000ff; stroke-width:8; stroke-opacity:1"/>
<line clip-path="url(#clip081)" x1="1092.54" y1="1250.8" x2="1108.54" y2="1234.8" style="stroke:#0000ff; stroke-width:8; stroke-opacity:1"/>
<line clip-path="url(#clip081)" x1="1225.89" y1="1251.7" x2="1209.89" y2="1235.7" style="stroke:#0000ff; stroke-width:8; stroke-opacity:1"/>
<line clip-path="url(#clip081)" x1="1225.89" y1="1251.7" x2="1209.89" y2="1267.7" style="stroke:#0000ff; stroke-width:8; stroke-opacity:1"/>
<line clip-path="url(#clip081)" x1="1225.89" y1="1251.7" x2="1241.89" y2="1267.7" style="stroke:#0000ff; stroke-width:8; stroke-opacity:1"/>
<line clip-path="url(#clip081)" x1="1225.89" y1="1251.7" x2="1241.89" y2="1235.7" style="stroke:#0000ff; stroke-width:8; stroke-opacity:1"/>
<line clip-path="url(#clip081)" x1="1359.25" y1="1252.95" x2="1343.25" y2="1236.95" style="stroke:#0000ff; stroke-width:8; stroke-opacity:1"/>
<line clip-path="url(#clip081)" x1="1359.25" y1="1252.95" x2="1343.25" y2="1268.95" style="stroke:#0000ff; stroke-width:8; stroke-opacity:1"/>
<line clip-path="url(#clip081)" x1="1359.25" y1="1252.95" x2="1375.25" y2="1268.95" style="stroke:#0000ff; stroke-width:8; stroke-opacity:1"/>
<line clip-path="url(#clip081)" x1="1359.25" y1="1252.95" x2="1375.25" y2="1236.95" style="stroke:#0000ff; stroke-width:8; stroke-opacity:1"/>
<line clip-path="url(#clip081)" x1="1492.61" y1="1253.65" x2="1476.61" y2="1237.65" style="stroke:#0000ff; stroke-width:8; stroke-opacity:1"/>
<line clip-path="url(#clip081)" x1="1492.61" y1="1253.65" x2="1476.61" y2="1269.65" style="stroke:#0000ff; stroke-width:8; stroke-opacity:1"/>
<line clip-path="url(#clip081)" x1="1492.61" y1="1253.65" x2="1508.61" y2="1269.65" style="stroke:#0000ff; stroke-width:8; stroke-opacity:1"/>
<line clip-path="url(#clip081)" x1="1492.61" y1="1253.65" x2="1508.61" y2="1237.65" style="stroke:#0000ff; stroke-width:8; stroke-opacity:1"/>
<line clip-path="url(#clip081)" x1="1625.96" y1="1254.27" x2="1609.96" y2="1238.27" style="stroke:#0000ff; stroke-width:8; stroke-opacity:1"/>
<line clip-path="url(#clip081)" x1="1625.96" y1="1254.27" x2="1609.96" y2="1270.27" style="stroke:#0000ff; stroke-width:8; stroke-opacity:1"/>
<line clip-path="url(#clip081)" x1="1625.96" y1="1254.27" x2="1641.96" y2="1270.27" style="stroke:#0000ff; stroke-width:8; stroke-opacity:1"/>
<line clip-path="url(#clip081)" x1="1625.96" y1="1254.27" x2="1641.96" y2="1238.27" style="stroke:#0000ff; stroke-width:8; stroke-opacity:1"/>
<line clip-path="url(#clip081)" x1="1759.32" y1="1254.67" x2="1743.32" y2="1238.67" style="stroke:#0000ff; stroke-width:8; stroke-opacity:1"/>
<line clip-path="url(#clip081)" x1="1759.32" y1="1254.67" x2="1743.32" y2="1270.67" style="stroke:#0000ff; stroke-width:8; stroke-opacity:1"/>
<line clip-path="url(#clip081)" x1="1759.32" y1="1254.67" x2="1775.32" y2="1270.67" style="stroke:#0000ff; stroke-width:8; stroke-opacity:1"/>
<line clip-path="url(#clip081)" x1="1759.32" y1="1254.67" x2="1775.32" y2="1238.67" style="stroke:#0000ff; stroke-width:8; stroke-opacity:1"/>
<line clip-path="url(#clip081)" x1="1892.68" y1="1254.86" x2="1876.68" y2="1238.86" style="stroke:#0000ff; stroke-width:8; stroke-opacity:1"/>
<line clip-path="url(#clip081)" x1="1892.68" y1="1254.86" x2="1876.68" y2="1270.86" style="stroke:#0000ff; stroke-width:8; stroke-opacity:1"/>
<line clip-path="url(#clip081)" x1="1892.68" y1="1254.86" x2="1908.68" y2="1270.86" style="stroke:#0000ff; stroke-width:8; stroke-opacity:1"/>
<line clip-path="url(#clip081)" x1="1892.68" y1="1254.86" x2="1908.68" y2="1238.86" style="stroke:#0000ff; stroke-width:8; stroke-opacity:1"/>
<line clip-path="url(#clip081)" x1="2026.03" y1="1255.02" x2="2010.03" y2="1239.02" style="stroke:#0000ff; stroke-width:8; stroke-opacity:1"/>
<line clip-path="url(#clip081)" x1="2026.03" y1="1255.02" x2="2010.03" y2="1271.02" style="stroke:#0000ff; stroke-width:8; stroke-opacity:1"/>
<line clip-path="url(#clip081)" x1="2026.03" y1="1255.02" x2="2042.03" y2="1271.02" style="stroke:#0000ff; stroke-width:8; stroke-opacity:1"/>
<line clip-path="url(#clip081)" x1="2026.03" y1="1255.02" x2="2042.03" y2="1239.02" style="stroke:#0000ff; stroke-width:8; stroke-opacity:1"/>
<line clip-path="url(#clip081)" x1="2159.39" y1="1255.08" x2="2143.39" y2="1239.08" style="stroke:#0000ff; stroke-width:8; stroke-opacity:1"/>
<line clip-path="url(#clip081)" x1="2159.39" y1="1255.08" x2="2143.39" y2="1271.08" style="stroke:#0000ff; stroke-width:8; stroke-opacity:1"/>
<line clip-path="url(#clip081)" x1="2159.39" y1="1255.08" x2="2175.39" y2="1271.08" style="stroke:#0000ff; stroke-width:8; stroke-opacity:1"/>
<line clip-path="url(#clip081)" x1="2159.39" y1="1255.08" x2="2175.39" y2="1239.08" style="stroke:#0000ff; stroke-width:8; stroke-opacity:1"/>
<line clip-path="url(#clip081)" x1="2292.75" y1="1255" x2="2276.75" y2="1239" style="stroke:#0000ff; stroke-width:8; stroke-opacity:1"/>
<line clip-path="url(#clip081)" x1="2292.75" y1="1255" x2="2276.75" y2="1271" style="stroke:#0000ff; stroke-width:8; stroke-opacity:1"/>
<line clip-path="url(#clip081)" x1="2292.75" y1="1255" x2="2308.75" y2="1271" style="stroke:#0000ff; stroke-width:8; stroke-opacity:1"/>
<line clip-path="url(#clip081)" x1="2292.75" y1="1255" x2="2308.75" y2="1239" style="stroke:#0000ff; stroke-width:8; stroke-opacity:1"/>
<path clip-path="url(#clip080)" d="M1457.38 248.629 L2282.08 248.629 L2282.08 93.1086 L1457.38 93.1086  Z" fill="#ffffff" fill-rule="evenodd" fill-opacity="1"/>
<polyline clip-path="url(#clip080)" style="stroke:#000000; stroke-linecap:round; stroke-linejoin:round; stroke-width:4; stroke-opacity:1; fill:none" points="1457.38,248.629 2282.08,248.629 2282.08,93.1086 1457.38,93.1086 1457.38,248.629 "/>
<polyline clip-path="url(#clip080)" style="stroke:#ff0000; stroke-linecap:round; stroke-linejoin:round; stroke-width:8; stroke-opacity:1; fill:none" points="1480.94,144.949 1622.3,144.949 "/>
<circle clip-path="url(#clip080)" cx="1551.62" cy="144.949" r="19.633" fill="#ff0000" fill-rule="evenodd" fill-opacity="1" stroke="none"/>
<path clip-path="url(#clip080)" d="M1645.86 127.669 L1652.15 127.669 L1667.48 156.581 L1667.48 127.669 L1672.02 127.669 L1672.02 162.229 L1665.72 162.229 L1650.4 133.317 L1650.4 162.229 L1645.86 162.229 L1645.86 127.669 Z" fill="#000000" fill-rule="nonzero" fill-opacity="1" /><path clip-path="url(#clip080)" d="M1691.18 139.289 Q1687.76 139.289 1685.77 141.974 Q1683.78 144.636 1683.78 149.289 Q1683.78 153.942 1685.74 156.627 Q1687.73 159.289 1691.18 159.289 Q1694.59 159.289 1696.58 156.604 Q1698.57 153.918 1698.57 149.289 Q1698.57 144.682 1696.58 141.997 Q1694.59 139.289 1691.18 139.289 M1691.18 135.678 Q1696.74 135.678 1699.91 139.289 Q1703.08 142.9 1703.08 149.289 Q1703.08 155.655 1699.91 159.289 Q1696.74 162.9 1691.18 162.9 Q1685.6 162.9 1682.43 159.289 Q1679.28 155.655 1679.28 149.289 Q1679.28 142.9 1682.43 139.289 Q1685.6 135.678 1691.18 135.678 Z" fill="#000000" fill-rule="nonzero" fill-opacity="1" /><path clip-path="url(#clip080)" d="M1731.69 146.581 L1731.69 162.229 L1727.43 162.229 L1727.43 146.719 Q1727.43 143.039 1726 141.21 Q1724.56 139.382 1721.69 139.382 Q1718.24 139.382 1716.25 141.581 Q1714.26 143.78 1714.26 147.576 L1714.26 162.229 L1709.98 162.229 L1709.98 136.303 L1714.26 136.303 L1714.26 140.331 Q1715.79 137.993 1717.85 136.835 Q1719.93 135.678 1722.64 135.678 Q1727.11 135.678 1729.4 138.456 Q1731.69 141.21 1731.69 146.581 Z" fill="#000000" fill-rule="nonzero" fill-opacity="1" /><path clip-path="url(#clip080)" d="M1738.03 147.344 L1750.51 147.344 L1750.51 151.141 L1738.03 151.141 L1738.03 147.344 Z" fill="#000000" fill-rule="nonzero" fill-opacity="1" /><path clip-path="url(#clip080)" d="M1761.41 158.34 L1761.41 172.09 L1757.13 172.09 L1757.13 136.303 L1761.41 136.303 L1761.41 140.238 Q1762.76 137.923 1764.79 136.812 Q1766.85 135.678 1769.7 135.678 Q1774.42 135.678 1777.36 139.428 Q1780.33 143.178 1780.33 149.289 Q1780.33 155.4 1777.36 159.15 Q1774.42 162.9 1769.7 162.9 Q1766.85 162.9 1764.79 161.789 Q1762.76 160.655 1761.41 158.34 M1775.9 149.289 Q1775.9 144.59 1773.96 141.928 Q1772.04 139.243 1768.66 139.243 Q1765.28 139.243 1763.33 141.928 Q1761.41 144.59 1761.41 149.289 Q1761.41 153.988 1763.33 156.673 Q1765.28 159.335 1768.66 159.335 Q1772.04 159.335 1773.96 156.673 Q1775.9 153.988 1775.9 149.289 Z" fill="#000000" fill-rule="nonzero" fill-opacity="1" /><path clip-path="url(#clip080)" d="M1802.41 140.284 Q1801.69 139.868 1800.83 139.682 Q1800 139.474 1798.98 139.474 Q1795.37 139.474 1793.43 141.835 Q1791.51 144.173 1791.51 148.571 L1791.51 162.229 L1787.22 162.229 L1787.22 136.303 L1791.51 136.303 L1791.51 140.331 Q1792.85 137.969 1795 136.835 Q1797.15 135.678 1800.23 135.678 Q1800.67 135.678 1801.21 135.747 Q1801.74 135.794 1802.39 135.909 L1802.41 140.284 Z" fill="#000000" fill-rule="nonzero" fill-opacity="1" /><path clip-path="url(#clip080)" d="M1828.01 148.201 L1828.01 150.284 L1808.43 150.284 Q1808.7 154.682 1811.07 156.997 Q1813.45 159.289 1817.69 159.289 Q1820.14 159.289 1822.43 158.687 Q1824.75 158.085 1827.02 156.881 L1827.02 160.909 Q1824.72 161.881 1822.32 162.391 Q1819.91 162.9 1817.43 162.9 Q1811.23 162.9 1807.59 159.289 Q1803.98 155.678 1803.98 149.52 Q1803.98 143.155 1807.41 139.428 Q1810.86 135.678 1816.69 135.678 Q1821.92 135.678 1824.95 139.057 Q1828.01 142.414 1828.01 148.201 M1823.75 146.951 Q1823.7 143.456 1821.78 141.372 Q1819.89 139.289 1816.74 139.289 Q1813.17 139.289 1811.02 141.303 Q1808.89 143.317 1808.57 146.974 L1823.75 146.951 Z" fill="#000000" fill-rule="nonzero" fill-opacity="1" /><path clip-path="url(#clip080)" d="M1853.66 137.298 L1853.66 141.28 Q1851.85 140.284 1850.02 139.798 Q1848.22 139.289 1846.37 139.289 Q1842.22 139.289 1839.93 141.928 Q1837.64 144.544 1837.64 149.289 Q1837.64 154.034 1839.93 156.673 Q1842.22 159.289 1846.37 159.289 Q1848.22 159.289 1850.02 158.803 Q1851.85 158.293 1853.66 157.298 L1853.66 161.233 Q1851.88 162.067 1849.95 162.483 Q1848.06 162.9 1845.9 162.9 Q1840.05 162.9 1836.6 159.219 Q1833.15 155.539 1833.15 149.289 Q1833.15 142.946 1836.62 139.312 Q1840.12 135.678 1846.18 135.678 Q1848.15 135.678 1850.02 136.095 Q1851.9 136.488 1853.66 137.298 Z" fill="#000000" fill-rule="nonzero" fill-opacity="1" /><path clip-path="url(#clip080)" d="M1871.11 139.289 Q1867.69 139.289 1865.7 141.974 Q1863.7 144.636 1863.7 149.289 Q1863.7 153.942 1865.67 156.627 Q1867.66 159.289 1871.11 159.289 Q1874.51 159.289 1876.51 156.604 Q1878.5 153.918 1878.5 149.289 Q1878.5 144.682 1876.51 141.997 Q1874.51 139.289 1871.11 139.289 M1871.11 135.678 Q1876.67 135.678 1879.84 139.289 Q1883.01 142.9 1883.01 149.289 Q1883.01 155.655 1879.84 159.289 Q1876.67 162.9 1871.11 162.9 Q1865.53 162.9 1862.36 159.289 Q1859.21 155.655 1859.21 149.289 Q1859.21 142.9 1862.36 139.289 Q1865.53 135.678 1871.11 135.678 Z" fill="#000000" fill-rule="nonzero" fill-opacity="1" /><path clip-path="url(#clip080)" d="M1911.62 146.581 L1911.62 162.229 L1907.36 162.229 L1907.36 146.719 Q1907.36 143.039 1905.93 141.21 Q1904.49 139.382 1901.62 139.382 Q1898.17 139.382 1896.18 141.581 Q1894.19 143.78 1894.19 147.576 L1894.19 162.229 L1889.91 162.229 L1889.91 136.303 L1894.19 136.303 L1894.19 140.331 Q1895.72 137.993 1897.78 136.835 Q1899.86 135.678 1902.57 135.678 Q1907.04 135.678 1909.33 138.456 Q1911.62 141.21 1911.62 146.581 Z" fill="#000000" fill-rule="nonzero" fill-opacity="1" /><path clip-path="url(#clip080)" d="M1937.18 140.238 L1937.18 126.21 L1941.44 126.21 L1941.44 162.229 L1937.18 162.229 L1937.18 158.34 Q1935.83 160.655 1933.77 161.789 Q1931.74 162.9 1928.87 162.9 Q1924.17 162.9 1921.2 159.15 Q1918.26 155.4 1918.26 149.289 Q1918.26 143.178 1921.2 139.428 Q1924.17 135.678 1928.87 135.678 Q1931.74 135.678 1933.77 136.812 Q1935.83 137.923 1937.18 140.238 M1922.66 149.289 Q1922.66 153.988 1924.58 156.673 Q1926.53 159.335 1929.91 159.335 Q1933.29 159.335 1935.23 156.673 Q1937.18 153.988 1937.18 149.289 Q1937.18 144.59 1935.23 141.928 Q1933.29 139.243 1929.91 139.243 Q1926.53 139.243 1924.58 141.928 Q1922.66 144.59 1922.66 149.289 Z" fill="#000000" fill-rule="nonzero" fill-opacity="1" /><path clip-path="url(#clip080)" d="M1950.21 136.303 L1954.47 136.303 L1954.47 162.229 L1950.21 162.229 L1950.21 136.303 M1950.21 126.21 L1954.47 126.21 L1954.47 131.604 L1950.21 131.604 L1950.21 126.21 Z" fill="#000000" fill-rule="nonzero" fill-opacity="1" /><path clip-path="url(#clip080)" d="M1967.59 128.942 L1967.59 136.303 L1976.37 136.303 L1976.37 139.613 L1967.59 139.613 L1967.59 153.687 Q1967.59 156.858 1968.45 157.761 Q1969.33 158.664 1971.99 158.664 L1976.37 158.664 L1976.37 162.229 L1971.99 162.229 Q1967.06 162.229 1965.19 160.4 Q1963.31 158.548 1963.31 153.687 L1963.31 139.613 L1960.19 139.613 L1960.19 136.303 L1963.31 136.303 L1963.31 128.942 L1967.59 128.942 Z" fill="#000000" fill-rule="nonzero" fill-opacity="1" /><path clip-path="url(#clip080)" d="M1981.97 136.303 L1986.23 136.303 L1986.23 162.229 L1981.97 162.229 L1981.97 136.303 M1981.97 126.21 L1986.23 126.21 L1986.23 131.604 L1981.97 131.604 L1981.97 126.21 Z" fill="#000000" fill-rule="nonzero" fill-opacity="1" /><path clip-path="url(#clip080)" d="M2005.19 139.289 Q2001.76 139.289 1999.77 141.974 Q1997.78 144.636 1997.78 149.289 Q1997.78 153.942 1999.75 156.627 Q2001.74 159.289 2005.19 159.289 Q2008.59 159.289 2010.58 156.604 Q2012.57 153.918 2012.57 149.289 Q2012.57 144.682 2010.58 141.997 Q2008.59 139.289 2005.19 139.289 M2005.19 135.678 Q2010.74 135.678 2013.91 139.289 Q2017.08 142.9 2017.08 149.289 Q2017.08 155.655 2013.91 159.289 Q2010.74 162.9 2005.19 162.9 Q1999.61 162.9 1996.44 159.289 Q1993.29 155.655 1993.29 149.289 Q1993.29 142.9 1996.44 139.289 Q1999.61 135.678 2005.19 135.678 Z" fill="#000000" fill-rule="nonzero" fill-opacity="1" /><path clip-path="url(#clip080)" d="M2045.69 146.581 L2045.69 162.229 L2041.44 162.229 L2041.44 146.719 Q2041.44 143.039 2040 141.21 Q2038.56 139.382 2035.69 139.382 Q2032.25 139.382 2030.25 141.581 Q2028.26 143.78 2028.26 147.576 L2028.26 162.229 L2023.98 162.229 L2023.98 136.303 L2028.26 136.303 L2028.26 140.331 Q2029.79 137.993 2031.85 136.835 Q2033.94 135.678 2036.64 135.678 Q2041.11 135.678 2043.4 138.456 Q2045.69 141.21 2045.69 146.581 Z" fill="#000000" fill-rule="nonzero" fill-opacity="1" /><path clip-path="url(#clip080)" d="M2076.37 148.201 L2076.37 150.284 L2056.78 150.284 Q2057.06 154.682 2059.42 156.997 Q2061.81 159.289 2066.04 159.289 Q2068.5 159.289 2070.79 158.687 Q2073.1 158.085 2075.37 156.881 L2075.37 160.909 Q2073.08 161.881 2070.67 162.391 Q2068.26 162.9 2065.79 162.9 Q2059.58 162.9 2055.95 159.289 Q2052.34 155.678 2052.34 149.52 Q2052.34 143.155 2055.76 139.428 Q2059.21 135.678 2065.05 135.678 Q2070.28 135.678 2073.31 139.057 Q2076.37 142.414 2076.37 148.201 M2072.11 146.951 Q2072.06 143.456 2070.14 141.372 Q2068.24 139.289 2065.09 139.289 Q2061.53 139.289 2059.37 141.303 Q2057.25 143.317 2056.92 146.974 L2072.11 146.951 Z" fill="#000000" fill-rule="nonzero" fill-opacity="1" /><path clip-path="url(#clip080)" d="M2100.42 140.238 L2100.42 126.21 L2104.68 126.21 L2104.68 162.229 L2100.42 162.229 L2100.42 158.34 Q2099.07 160.655 2097.01 161.789 Q2094.98 162.9 2092.11 162.9 Q2087.41 162.9 2084.44 159.15 Q2081.5 155.4 2081.5 149.289 Q2081.5 143.178 2084.44 139.428 Q2087.41 135.678 2092.11 135.678 Q2094.98 135.678 2097.01 136.812 Q2099.07 137.923 2100.42 140.238 M2085.9 149.289 Q2085.9 153.988 2087.82 156.673 Q2089.77 159.335 2093.15 159.335 Q2096.53 159.335 2098.47 156.673 Q2100.42 153.988 2100.42 149.289 Q2100.42 144.59 2098.47 141.928 Q2096.53 139.243 2093.15 139.243 Q2089.77 139.243 2087.82 141.928 Q2085.9 144.59 2085.9 149.289 Z" fill="#000000" fill-rule="nonzero" fill-opacity="1" /><path clip-path="url(#clip080)" d="M2114.54 156.349 L2119.42 156.349 L2119.42 160.33 L2115.62 167.738 L2112.64 167.738 L2114.54 160.33 L2114.54 156.349 Z" fill="#000000" fill-rule="nonzero" fill-opacity="1" /><path clip-path="url(#clip080)" d="M2154.19 130.747 Q2150.58 130.747 2148.75 134.312 Q2146.94 137.854 2146.94 144.983 Q2146.94 152.09 2148.75 155.655 Q2150.58 159.196 2154.19 159.196 Q2157.82 159.196 2159.63 155.655 Q2161.46 152.09 2161.46 144.983 Q2161.46 137.854 2159.63 134.312 Q2157.82 130.747 2154.19 130.747 M2154.19 127.044 Q2160 127.044 2163.05 131.65 Q2166.13 136.233 2166.13 144.983 Q2166.13 153.71 2163.05 158.317 Q2160 162.9 2154.19 162.9 Q2148.38 162.9 2145.3 158.317 Q2142.24 153.71 2142.24 144.983 Q2142.24 136.233 2145.3 131.65 Q2148.38 127.044 2154.19 127.044 Z" fill="#000000" fill-rule="nonzero" fill-opacity="1" /><path clip-path="url(#clip080)" d="M2188.82 136.303 L2193.08 136.303 L2193.08 162.229 L2188.82 162.229 L2188.82 136.303 M2188.82 126.21 L2193.08 126.21 L2193.08 131.604 L2188.82 131.604 L2188.82 126.21 Z" fill="#000000" fill-rule="nonzero" fill-opacity="1" /><path clip-path="url(#clip080)" d="M2223.54 146.581 L2223.54 162.229 L2219.28 162.229 L2219.28 146.719 Q2219.28 143.039 2217.85 141.21 Q2216.41 139.382 2213.54 139.382 Q2210.09 139.382 2208.1 141.581 Q2206.11 143.78 2206.11 147.576 L2206.11 162.229 L2201.83 162.229 L2201.83 136.303 L2206.11 136.303 L2206.11 140.331 Q2207.64 137.993 2209.7 136.835 Q2211.78 135.678 2214.49 135.678 Q2218.96 135.678 2221.25 138.456 Q2223.54 141.21 2223.54 146.581 Z" fill="#000000" fill-rule="nonzero" fill-opacity="1" /><path clip-path="url(#clip080)" d="M2232.04 136.303 L2236.3 136.303 L2236.3 162.229 L2232.04 162.229 L2232.04 136.303 M2232.04 126.21 L2236.3 126.21 L2236.3 131.604 L2232.04 131.604 L2232.04 126.21 Z" fill="#000000" fill-rule="nonzero" fill-opacity="1" /><path clip-path="url(#clip080)" d="M2249.42 128.942 L2249.42 136.303 L2258.19 136.303 L2258.19 139.613 L2249.42 139.613 L2249.42 153.687 Q2249.42 156.858 2250.28 157.761 Q2251.16 158.664 2253.82 158.664 L2258.19 158.664 L2258.19 162.229 L2253.82 162.229 Q2248.89 162.229 2247.01 160.4 Q2245.14 158.548 2245.14 153.687 L2245.14 139.613 L2242.01 139.613 L2242.01 136.303 L2245.14 136.303 L2245.14 128.942 L2249.42 128.942 Z" fill="#000000" fill-rule="nonzero" fill-opacity="1" /><polyline clip-path="url(#clip080)" style="stroke:#0000ff; stroke-linecap:round; stroke-linejoin:round; stroke-width:8; stroke-opacity:1; fill:none" points="1480.94,196.789 1622.3,196.789 "/>
<line clip-path="url(#clip080)" x1="1551.62" y1="196.789" x2="1529.81" y2="174.974" style="stroke:#0000ff; stroke-width:8; stroke-opacity:1"/>
<line clip-path="url(#clip080)" x1="1551.62" y1="196.789" x2="1529.81" y2="218.603" style="stroke:#0000ff; stroke-width:8; stroke-opacity:1"/>
<line clip-path="url(#clip080)" x1="1551.62" y1="196.789" x2="1573.43" y2="218.603" style="stroke:#0000ff; stroke-width:8; stroke-opacity:1"/>
<line clip-path="url(#clip080)" x1="1551.62" y1="196.789" x2="1573.43" y2="174.974" style="stroke:#0000ff; stroke-width:8; stroke-opacity:1"/>
<path clip-path="url(#clip080)" d="M1650.53 183.351 L1650.53 210.226 L1656.18 210.226 Q1663.34 210.226 1666.65 206.985 Q1669.98 203.745 1669.98 196.754 Q1669.98 189.809 1666.65 186.592 Q1663.34 183.351 1656.18 183.351 L1650.53 183.351 M1645.86 179.509 L1655.47 179.509 Q1665.51 179.509 1670.21 183.698 Q1674.91 187.865 1674.91 196.754 Q1674.91 205.689 1670.19 209.879 Q1665.47 214.069 1655.47 214.069 L1645.86 214.069 L1645.86 179.509 Z" fill="#000000" fill-rule="nonzero" fill-opacity="1" /><path clip-path="url(#clip080)" d="M1708.24 182.171 L1708.24 187.101 Q1705.88 184.902 1703.2 183.814 Q1700.53 182.726 1697.53 182.726 Q1691.6 182.726 1688.45 186.36 Q1685.3 189.972 1685.3 196.823 Q1685.3 203.652 1688.45 207.286 Q1691.6 210.897 1697.53 210.897 Q1700.53 210.897 1703.2 209.809 Q1705.88 208.721 1708.24 206.522 L1708.24 211.407 Q1705.79 213.073 1703.03 213.907 Q1700.3 214.74 1697.25 214.74 Q1689.4 214.74 1684.89 209.948 Q1680.37 205.133 1680.37 196.823 Q1680.37 188.49 1684.89 183.698 Q1689.4 178.884 1697.25 178.884 Q1700.35 178.884 1703.08 179.717 Q1705.84 180.527 1708.24 182.171 Z" fill="#000000" fill-rule="nonzero" fill-opacity="1" /><path clip-path="url(#clip080)" d="M1715.46 179.509 L1735.33 179.509 L1735.33 183.444 L1720.14 183.444 L1720.14 193.629 L1733.84 193.629 L1733.84 197.564 L1720.14 197.564 L1720.14 214.069 L1715.46 214.069 L1715.46 179.509 Z" fill="#000000" fill-rule="nonzero" fill-opacity="1" /><path clip-path="url(#clip080)" d="M1761.74 210.18 L1761.74 223.93 L1757.46 223.93 L1757.46 188.143 L1761.74 188.143 L1761.74 192.078 Q1763.08 189.763 1765.12 188.652 Q1767.18 187.518 1770.02 187.518 Q1774.75 187.518 1777.69 191.268 Q1780.65 195.018 1780.65 201.129 Q1780.65 207.24 1777.69 210.99 Q1774.75 214.74 1770.02 214.74 Q1767.18 214.74 1765.12 213.629 Q1763.08 212.495 1761.74 210.18 M1776.23 201.129 Q1776.23 196.43 1774.28 193.768 Q1772.36 191.083 1768.98 191.083 Q1765.6 191.083 1763.66 193.768 Q1761.74 196.43 1761.74 201.129 Q1761.74 205.828 1763.66 208.513 Q1765.6 211.175 1768.98 211.175 Q1772.36 211.175 1774.28 208.513 Q1776.23 205.828 1776.23 201.129 Z" fill="#000000" fill-rule="nonzero" fill-opacity="1" /><path clip-path="url(#clip080)" d="M1802.73 192.124 Q1802.02 191.708 1801.16 191.522 Q1800.33 191.314 1799.31 191.314 Q1795.7 191.314 1793.75 193.675 Q1791.83 196.013 1791.83 200.411 L1791.83 214.069 L1787.55 214.069 L1787.55 188.143 L1791.83 188.143 L1791.83 192.171 Q1793.17 189.809 1795.33 188.675 Q1797.48 187.518 1800.56 187.518 Q1801 187.518 1801.53 187.587 Q1802.06 187.634 1802.71 187.749 L1802.73 192.124 Z" fill="#000000" fill-rule="nonzero" fill-opacity="1" /><path clip-path="url(#clip080)" d="M1828.33 200.041 L1828.33 202.124 L1808.75 202.124 Q1809.03 206.522 1811.39 208.837 Q1813.77 211.129 1818.01 211.129 Q1820.46 211.129 1822.76 210.527 Q1825.07 209.925 1827.34 208.721 L1827.34 212.749 Q1825.05 213.721 1822.64 214.231 Q1820.23 214.74 1817.76 214.74 Q1811.55 214.74 1807.92 211.129 Q1804.31 207.518 1804.31 201.36 Q1804.31 194.995 1807.73 191.268 Q1811.18 187.518 1817.02 187.518 Q1822.25 187.518 1825.28 190.897 Q1828.33 194.254 1828.33 200.041 M1824.08 198.791 Q1824.03 195.296 1822.11 193.212 Q1820.21 191.129 1817.06 191.129 Q1813.5 191.129 1811.34 193.143 Q1809.21 195.157 1808.89 198.814 L1824.08 198.791 Z" fill="#000000" fill-rule="nonzero" fill-opacity="1" /><path clip-path="url(#clip080)" d="M1853.98 189.138 L1853.98 193.12 Q1852.18 192.124 1850.35 191.638 Q1848.54 191.129 1846.69 191.129 Q1842.55 191.129 1840.26 193.768 Q1837.96 196.384 1837.96 201.129 Q1837.96 205.874 1840.26 208.513 Q1842.55 211.129 1846.69 211.129 Q1848.54 211.129 1850.35 210.643 Q1852.18 210.133 1853.98 209.138 L1853.98 213.073 Q1852.2 213.907 1850.28 214.323 Q1848.38 214.74 1846.23 214.74 Q1840.37 214.74 1836.92 211.059 Q1833.47 207.379 1833.47 201.129 Q1833.47 194.786 1836.95 191.152 Q1840.44 187.518 1846.51 187.518 Q1848.47 187.518 1850.35 187.935 Q1852.22 188.328 1853.98 189.138 Z" fill="#000000" fill-rule="nonzero" fill-opacity="1" /><path clip-path="url(#clip080)" d="M1871.44 191.129 Q1868.01 191.129 1866.02 193.814 Q1864.03 196.476 1864.03 201.129 Q1864.03 205.782 1866 208.467 Q1867.99 211.129 1871.44 211.129 Q1874.84 211.129 1876.83 208.444 Q1878.82 205.758 1878.82 201.129 Q1878.82 196.522 1876.83 193.837 Q1874.84 191.129 1871.44 191.129 M1871.44 187.518 Q1876.99 187.518 1880.16 191.129 Q1883.33 194.74 1883.33 201.129 Q1883.33 207.495 1880.16 211.129 Q1876.99 214.74 1871.44 214.74 Q1865.86 214.74 1862.69 211.129 Q1859.54 207.495 1859.54 201.129 Q1859.54 194.74 1862.69 191.129 Q1865.86 187.518 1871.44 187.518 Z" fill="#000000" fill-rule="nonzero" fill-opacity="1" /><path clip-path="url(#clip080)" d="M1911.95 198.421 L1911.95 214.069 L1907.69 214.069 L1907.69 198.559 Q1907.69 194.879 1906.25 193.05 Q1904.82 191.222 1901.95 191.222 Q1898.5 191.222 1896.51 193.421 Q1894.51 195.62 1894.51 199.416 L1894.51 214.069 L1890.23 214.069 L1890.23 188.143 L1894.51 188.143 L1894.51 192.171 Q1896.04 189.833 1898.1 188.675 Q1900.19 187.518 1902.89 187.518 Q1907.36 187.518 1909.65 190.296 Q1911.95 193.05 1911.95 198.421 Z" fill="#000000" fill-rule="nonzero" fill-opacity="1" /><path clip-path="url(#clip080)" d="M1937.5 192.078 L1937.5 178.05 L1941.76 178.05 L1941.76 214.069 L1937.5 214.069 L1937.5 210.18 Q1936.16 212.495 1934.1 213.629 Q1932.06 214.74 1929.19 214.74 Q1924.49 214.74 1921.53 210.99 Q1918.59 207.24 1918.59 201.129 Q1918.59 195.018 1921.53 191.268 Q1924.49 187.518 1929.19 187.518 Q1932.06 187.518 1934.1 188.652 Q1936.16 189.763 1937.5 192.078 M1922.99 201.129 Q1922.99 205.828 1924.91 208.513 Q1926.85 211.175 1930.23 211.175 Q1933.61 211.175 1935.56 208.513 Q1937.5 205.828 1937.5 201.129 Q1937.5 196.43 1935.56 193.768 Q1933.61 191.083 1930.23 191.083 Q1926.85 191.083 1924.91 193.768 Q1922.99 196.43 1922.99 201.129 Z" fill="#000000" fill-rule="nonzero" fill-opacity="1" /><path clip-path="url(#clip080)" d="M1950.53 188.143 L1954.79 188.143 L1954.79 214.069 L1950.53 214.069 L1950.53 188.143 M1950.53 178.05 L1954.79 178.05 L1954.79 183.444 L1950.53 183.444 L1950.53 178.05 Z" fill="#000000" fill-rule="nonzero" fill-opacity="1" /><path clip-path="url(#clip080)" d="M1967.92 180.782 L1967.92 188.143 L1976.69 188.143 L1976.69 191.453 L1967.92 191.453 L1967.92 205.527 Q1967.92 208.698 1968.77 209.601 Q1969.65 210.504 1972.32 210.504 L1976.69 210.504 L1976.69 214.069 L1972.32 214.069 Q1967.38 214.069 1965.51 212.24 Q1963.63 210.388 1963.63 205.527 L1963.63 191.453 L1960.51 191.453 L1960.51 188.143 L1963.63 188.143 L1963.63 180.782 L1967.92 180.782 Z" fill="#000000" fill-rule="nonzero" fill-opacity="1" /><path clip-path="url(#clip080)" d="M1982.29 188.143 L1986.55 188.143 L1986.55 214.069 L1982.29 214.069 L1982.29 188.143 M1982.29 178.05 L1986.55 178.05 L1986.55 183.444 L1982.29 183.444 L1982.29 178.05 Z" fill="#000000" fill-rule="nonzero" fill-opacity="1" /><path clip-path="url(#clip080)" d="M2005.51 191.129 Q2002.08 191.129 2000.09 193.814 Q1998.1 196.476 1998.1 201.129 Q1998.1 205.782 2000.07 208.467 Q2002.06 211.129 2005.51 211.129 Q2008.91 211.129 2010.9 208.444 Q2012.89 205.758 2012.89 201.129 Q2012.89 196.522 2010.9 193.837 Q2008.91 191.129 2005.51 191.129 M2005.51 187.518 Q2011.07 187.518 2014.24 191.129 Q2017.41 194.74 2017.41 201.129 Q2017.41 207.495 2014.24 211.129 Q2011.07 214.74 2005.51 214.74 Q1999.93 214.74 1996.76 211.129 Q1993.61 207.495 1993.61 201.129 Q1993.61 194.74 1996.76 191.129 Q1999.93 187.518 2005.51 187.518 Z" fill="#000000" fill-rule="nonzero" fill-opacity="1" /><path clip-path="url(#clip080)" d="M2046.02 198.421 L2046.02 214.069 L2041.76 214.069 L2041.76 198.559 Q2041.76 194.879 2040.32 193.05 Q2038.89 191.222 2036.02 191.222 Q2032.57 191.222 2030.58 193.421 Q2028.59 195.62 2028.59 199.416 L2028.59 214.069 L2024.31 214.069 L2024.31 188.143 L2028.59 188.143 L2028.59 192.171 Q2030.12 189.833 2032.18 188.675 Q2034.26 187.518 2036.97 187.518 Q2041.44 187.518 2043.73 190.296 Q2046.02 193.05 2046.02 198.421 Z" fill="#000000" fill-rule="nonzero" fill-opacity="1" /><path clip-path="url(#clip080)" d="M2076.69 200.041 L2076.69 202.124 L2057.11 202.124 Q2057.38 206.522 2059.75 208.837 Q2062.13 211.129 2066.37 211.129 Q2068.82 211.129 2071.11 210.527 Q2073.43 209.925 2075.69 208.721 L2075.69 212.749 Q2073.4 213.721 2071 214.231 Q2068.59 214.74 2066.11 214.74 Q2059.91 214.74 2056.27 211.129 Q2052.66 207.518 2052.66 201.36 Q2052.66 194.995 2056.09 191.268 Q2059.54 187.518 2065.37 187.518 Q2070.6 187.518 2073.63 190.897 Q2076.69 194.254 2076.69 200.041 M2072.43 198.791 Q2072.38 195.296 2070.46 193.212 Q2068.56 191.129 2065.42 191.129 Q2061.85 191.129 2059.7 193.143 Q2057.57 195.157 2057.25 198.814 L2072.43 198.791 Z" fill="#000000" fill-rule="nonzero" fill-opacity="1" /><path clip-path="url(#clip080)" d="M2100.74 192.078 L2100.74 178.05 L2105 178.05 L2105 214.069 L2100.74 214.069 L2100.74 210.18 Q2099.4 212.495 2097.34 213.629 Q2095.3 214.74 2092.43 214.74 Q2087.73 214.74 2084.77 210.99 Q2081.83 207.24 2081.83 201.129 Q2081.83 195.018 2084.77 191.268 Q2087.73 187.518 2092.43 187.518 Q2095.3 187.518 2097.34 188.652 Q2099.4 189.763 2100.74 192.078 M2086.23 201.129 Q2086.23 205.828 2088.15 208.513 Q2090.09 211.175 2093.47 211.175 Q2096.85 211.175 2098.8 208.513 Q2100.74 205.828 2100.74 201.129 Q2100.74 196.43 2098.8 193.768 Q2096.85 191.083 2093.47 191.083 Q2090.09 191.083 2088.15 193.768 Q2086.23 196.43 2086.23 201.129 Z" fill="#000000" fill-rule="nonzero" fill-opacity="1" /><path clip-path="url(#clip080)" d="M2114.86 208.189 L2119.74 208.189 L2119.74 212.17 L2115.95 219.578 L2112.96 219.578 L2114.86 212.17 L2114.86 208.189 Z" fill="#000000" fill-rule="nonzero" fill-opacity="1" /><path clip-path="url(#clip080)" d="M2154.51 182.587 Q2150.9 182.587 2149.07 186.152 Q2147.27 189.694 2147.27 196.823 Q2147.27 203.93 2149.07 207.495 Q2150.9 211.036 2154.51 211.036 Q2158.15 211.036 2159.95 207.495 Q2161.78 203.93 2161.78 196.823 Q2161.78 189.694 2159.95 186.152 Q2158.15 182.587 2154.51 182.587 M2154.51 178.884 Q2160.32 178.884 2163.38 183.49 Q2166.46 188.073 2166.46 196.823 Q2166.46 205.55 2163.38 210.157 Q2160.32 214.74 2154.51 214.74 Q2148.7 214.74 2145.62 210.157 Q2142.57 205.55 2142.57 196.823 Q2142.57 188.073 2145.62 183.49 Q2148.7 178.884 2154.51 178.884 Z" fill="#000000" fill-rule="nonzero" fill-opacity="1" /><path clip-path="url(#clip080)" d="M2189.14 188.143 L2193.4 188.143 L2193.4 214.069 L2189.14 214.069 L2189.14 188.143 M2189.14 178.05 L2193.4 178.05 L2193.4 183.444 L2189.14 183.444 L2189.14 178.05 Z" fill="#000000" fill-rule="nonzero" fill-opacity="1" /><path clip-path="url(#clip080)" d="M2223.86 198.421 L2223.86 214.069 L2219.61 214.069 L2219.61 198.559 Q2219.61 194.879 2218.17 193.05 Q2216.74 191.222 2213.86 191.222 Q2210.42 191.222 2208.43 193.421 Q2206.43 195.62 2206.43 199.416 L2206.43 214.069 L2202.15 214.069 L2202.15 188.143 L2206.43 188.143 L2206.43 192.171 Q2207.96 189.833 2210.02 188.675 Q2212.11 187.518 2214.81 187.518 Q2219.28 187.518 2221.57 190.296 Q2223.86 193.05 2223.86 198.421 Z" fill="#000000" fill-rule="nonzero" fill-opacity="1" /><path clip-path="url(#clip080)" d="M2232.36 188.143 L2236.62 188.143 L2236.62 214.069 L2232.36 214.069 L2232.36 188.143 M2232.36 178.05 L2236.62 178.05 L2236.62 183.444 L2232.36 183.444 L2232.36 178.05 Z" fill="#000000" fill-rule="nonzero" fill-opacity="1" /><path clip-path="url(#clip080)" d="M2249.74 180.782 L2249.74 188.143 L2258.52 188.143 L2258.52 191.453 L2249.74 191.453 L2249.74 205.527 Q2249.74 208.698 2250.6 209.601 Q2251.48 210.504 2254.14 210.504 L2258.52 210.504 L2258.52 214.069 L2254.14 214.069 Q2249.21 214.069 2247.34 212.24 Q2245.46 210.388 2245.46 205.527 L2245.46 191.453 L2242.34 191.453 L2242.34 188.143 L2245.46 188.143 L2245.46 180.782 L2249.74 180.782 Z" fill="#000000" fill-rule="nonzero" fill-opacity="1" /></svg>
