<?xml version="1.0" encoding="utf-8"?>
<svg xmlns="http://www.w3.org/2000/svg" xmlns:xlink="http://www.w3.org/1999/xlink" width="600" height="400" viewBox="0 0 2400 1600">
<defs>
  <clipPath id="clip880">
    <rect x="0" y="0" width="2400" height="1600"/>
  </clipPath>
</defs>
<path clip-path="url(#clip880)" d="M0 1600 L2400 1600 L2400 0 L0 0  Z" fill="#ffffff" fill-rule="evenodd" fill-opacity="1"/>
<defs>
  <clipPath id="clip881">
    <rect x="232" y="47" width="2121" height="1377"/>
  </clipPath>
</defs>
<path clip-path="url(#clip880)" d="M232.389 1423.18 L2352.76 1423.18 L2352.76 47.2441 L232.389 47.2441  Z" fill="#ffffff" fill-rule="evenodd" fill-opacity="1"/>
<polyline clip-path="url(#clip881)" style="stroke:#000000; stroke-linecap:round; stroke-linejoin:round; stroke-width:2; stroke-opacity:0.1; fill:none" points="292.4,1423.18 292.4,47.2441 "/>
<polyline clip-path="url(#clip881)" style="stroke:#000000; stroke-linecap:round; stroke-linejoin:round; stroke-width:2; stroke-opacity:0.1; fill:none" points="959.182,1423.18 959.182,47.2441 "/>
<polyline clip-path="url(#clip881)" style="stroke:#000000; stroke-linecap:round; stroke-linejoin:round; stroke-width:2; stroke-opacity:0.1; fill:none" points="1625.96,1423.18 1625.96,47.2441 "/>
<polyline clip-path="url(#clip881)" style="stroke:#000000; stroke-linecap:round; stroke-linejoin:round; stroke-width:2; stroke-opacity:0.1; fill:none" points="2292.75,1423.18 2292.75,47.2441 "/>
<polyline clip-path="url(#clip881)" style="stroke:#000000; stroke-linecap:round; stroke-linejoin:round; stroke-width:2; stroke-opacity:0.1; fill:none" points="232.389,1384.24 2352.76,1384.24 "/>
<polyline clip-path="url(#clip881)" style="stroke:#000000; stroke-linecap:round; stroke-linejoin:round; stroke-width:2; stroke-opacity:0.1; fill:none" points="232.389,1124.63 2352.76,1124.63 "/>
<polyline clip-path="url(#clip881)" style="stroke:#000000; stroke-linecap:round; stroke-linejoin:round; stroke-width:2; stroke-opacity:0.1; fill:none" points="232.389,865.017 2352.76,865.017 "/>
<polyline clip-path="url(#clip881)" style="stroke:#000000; stroke-linecap:round; stroke-linejoin:round; stroke-width:2; stroke-opacity:0.1; fill:none" points="232.389,605.407 2352.76,605.407 "/>
<polyline clip-path="url(#clip881)" style="stroke:#000000; stroke-linecap:round; stroke-linejoin:round; stroke-width:2; stroke-opacity:0.1; fill:none" points="232.389,345.796 2352.76,345.796 "/>
<polyline clip-path="url(#clip881)" style="stroke:#000000; stroke-linecap:round; stroke-linejoin:round; stroke-width:2; stroke-opacity:0.1; fill:none" points="232.389,86.1857 2352.76,86.1857 "/>
<polyline clip-path="url(#clip880)" style="stroke:#000000; stroke-linecap:round; stroke-linejoin:round; stroke-width:4; stroke-opacity:1; fill:none" points="232.389,1423.18 2352.76,1423.18 "/>
<polyline clip-path="url(#clip880)" style="stroke:#000000; stroke-linecap:round; stroke-linejoin:round; stroke-width:4; stroke-opacity:1; fill:none" points="292.4,1423.18 292.4,1404.28 "/>
<polyline clip-path="url(#clip880)" style="stroke:#000000; stroke-linecap:round; stroke-linejoin:round; stroke-width:4; stroke-opacity:1; fill:none" points="959.182,1423.18 959.182,1404.28 "/>
<polyline clip-path="url(#clip880)" style="stroke:#000000; stroke-linecap:round; stroke-linejoin:round; stroke-width:4; stroke-opacity:1; fill:none" points="1625.96,1423.18 1625.96,1404.28 "/>
<polyline clip-path="url(#clip880)" style="stroke:#000000; stroke-linecap:round; stroke-linejoin:round; stroke-width:4; stroke-opacity:1; fill:none" points="2292.75,1423.18 2292.75,1404.28 "/>
<path clip-path="url(#clip880)" d="M292.4 1454.1 Q288.789 1454.1 286.96 1457.66 Q285.154 1461.2 285.154 1468.33 Q285.154 1475.44 286.96 1479.01 Q288.789 1482.55 292.4 1482.55 Q296.034 1482.55 297.84 1479.01 Q299.668 1475.44 299.668 1468.33 Q299.668 1461.2 297.84 1457.66 Q296.034 1454.1 292.4 1454.1 M292.4 1450.39 Q298.21 1450.39 301.265 1455 Q304.344 1459.58 304.344 1468.33 Q304.344 1477.06 301.265 1481.67 Q298.21 1486.25 292.4 1486.25 Q286.59 1486.25 283.511 1481.67 Q280.455 1477.06 280.455 1468.33 Q280.455 1459.58 283.511 1455 Q286.59 1450.39 292.4 1450.39 Z" fill="#000000" fill-rule="nonzero" fill-opacity="1" /><path clip-path="url(#clip880)" d="M949.459 1451.02 L967.816 1451.02 L967.816 1454.96 L953.742 1454.96 L953.742 1463.43 Q954.76 1463.08 955.779 1462.92 Q956.797 1462.73 957.816 1462.73 Q963.603 1462.73 966.983 1465.9 Q970.362 1469.08 970.362 1474.49 Q970.362 1480.07 966.89 1483.17 Q963.418 1486.25 957.098 1486.25 Q954.922 1486.25 952.654 1485.88 Q950.409 1485.51 948.001 1484.77 L948.001 1480.07 Q950.084 1481.2 952.307 1481.76 Q954.529 1482.32 957.006 1482.32 Q961.01 1482.32 963.348 1480.21 Q965.686 1478.1 965.686 1474.49 Q965.686 1470.88 963.348 1468.77 Q961.01 1466.67 957.006 1466.67 Q955.131 1466.67 953.256 1467.08 Q951.404 1467.5 949.459 1468.38 L949.459 1451.02 Z" fill="#000000" fill-rule="nonzero" fill-opacity="1" /><path clip-path="url(#clip880)" d="M1600.65 1481.64 L1608.29 1481.64 L1608.29 1455.28 L1599.98 1456.95 L1599.98 1452.69 L1608.24 1451.02 L1612.92 1451.02 L1612.92 1481.64 L1620.56 1481.64 L1620.56 1485.58 L1600.65 1485.58 L1600.65 1481.64 Z" fill="#000000" fill-rule="nonzero" fill-opacity="1" /><path clip-path="url(#clip880)" d="M1640 1454.1 Q1636.39 1454.1 1634.56 1457.66 Q1632.76 1461.2 1632.76 1468.33 Q1632.76 1475.44 1634.56 1479.01 Q1636.39 1482.55 1640 1482.55 Q1643.64 1482.55 1645.44 1479.01 Q1647.27 1475.44 1647.27 1468.33 Q1647.27 1461.2 1645.44 1457.66 Q1643.64 1454.1 1640 1454.1 M1640 1450.39 Q1645.81 1450.39 1648.87 1455 Q1651.95 1459.58 1651.95 1468.33 Q1651.95 1477.06 1648.87 1481.67 Q1645.81 1486.25 1640 1486.25 Q1634.19 1486.25 1631.11 1481.67 Q1628.06 1477.06 1628.06 1468.33 Q1628.06 1459.58 1631.11 1455 Q1634.19 1450.39 1640 1450.39 Z" fill="#000000" fill-rule="nonzero" fill-opacity="1" /><path clip-path="url(#clip880)" d="M2267.93 1481.64 L2275.57 1481.64 L2275.57 1455.28 L2267.26 1456.95 L2267.26 1452.69 L2275.52 1451.02 L2280.2 1451.02 L2280.2 1481.64 L2287.84 1481.64 L2287.84 1485.58 L2267.93 1485.58 L2267.93 1481.64 Z" fill="#000000" fill-rule="nonzero" fill-opacity="1" /><path clip-path="url(#clip880)" d="M2297.33 1451.02 L2315.69 1451.02 L2315.69 1454.96 L2301.61 1454.96 L2301.61 1463.43 Q2302.63 1463.08 2303.65 1462.92 Q2304.67 1462.73 2305.69 1462.73 Q2311.47 1462.73 2314.85 1465.9 Q2318.23 1469.08 2318.23 1474.49 Q2318.23 1480.07 2314.76 1483.17 Q2311.29 1486.25 2304.97 1486.25 Q2302.79 1486.25 2300.52 1485.88 Q2298.28 1485.51 2295.87 1484.77 L2295.87 1480.07 Q2297.95 1481.2 2300.18 1481.76 Q2302.4 1482.32 2304.88 1482.32 Q2308.88 1482.32 2311.22 1480.21 Q2313.56 1478.1 2313.56 1474.49 Q2313.56 1470.88 2311.22 1468.77 Q2308.88 1466.67 2304.88 1466.67 Q2303 1466.67 2301.13 1467.08 Q2299.27 1467.5 2297.33 1468.38 L2297.33 1451.02 Z" fill="#000000" fill-rule="nonzero" fill-opacity="1" /><path clip-path="url(#clip880)" d="M1160.72 1532.4 L1166.58 1532.4 L1166.58 1568.04 L1160.72 1568.04 L1160.72 1532.4 M1160.72 1518.52 L1166.58 1518.52 L1166.58 1525.93 L1160.72 1525.93 L1160.72 1518.52 Z" fill="#000000" fill-rule="nonzero" fill-opacity="1" /><path clip-path="url(#clip880)" d="M1184.63 1522.27 L1184.63 1532.4 L1196.69 1532.4 L1196.69 1536.95 L1184.63 1536.95 L1184.63 1556.3 Q1184.63 1560.66 1185.8 1561.9 Q1187.01 1563.14 1190.67 1563.14 L1196.69 1563.14 L1196.69 1568.04 L1190.67 1568.04 Q1183.89 1568.04 1181.32 1565.53 Q1178.74 1562.98 1178.74 1556.3 L1178.74 1536.95 L1174.44 1536.95 L1174.44 1532.4 L1178.74 1532.4 L1178.74 1522.27 L1184.63 1522.27 Z" fill="#000000" fill-rule="nonzero" fill-opacity="1" /><path clip-path="url(#clip880)" d="M1234.88 1548.76 L1234.88 1551.62 L1207.96 1551.62 Q1208.34 1557.67 1211.58 1560.85 Q1214.86 1564 1220.69 1564 Q1224.06 1564 1227.21 1563.17 Q1230.4 1562.35 1233.51 1560.69 L1233.51 1566.23 Q1230.36 1567.57 1227.05 1568.27 Q1223.74 1568.97 1220.34 1568.97 Q1211.81 1568.97 1206.81 1564 Q1201.85 1559.04 1201.85 1550.57 Q1201.85 1541.82 1206.56 1536.69 Q1211.3 1531.54 1219.32 1531.54 Q1226.51 1531.54 1230.68 1536.18 Q1234.88 1540.8 1234.88 1548.76 M1229.03 1547.04 Q1228.96 1542.23 1226.32 1539.37 Q1223.71 1536.5 1219.38 1536.5 Q1214.48 1536.5 1211.52 1539.27 Q1208.59 1542.04 1208.15 1547.07 L1229.03 1547.04 Z" fill="#000000" fill-rule="nonzero" fill-opacity="1" /><path clip-path="url(#clip880)" d="M1265.15 1537.87 Q1264.17 1537.3 1262.99 1537.04 Q1261.84 1536.76 1260.44 1536.76 Q1255.48 1536.76 1252.8 1540 Q1250.16 1543.22 1250.16 1549.27 L1250.16 1568.04 L1244.27 1568.04 L1244.27 1532.4 L1250.16 1532.4 L1250.16 1537.93 Q1252.01 1534.69 1254.97 1533.13 Q1257.93 1531.54 1262.16 1531.54 Q1262.77 1531.54 1263.5 1531.63 Q1264.23 1531.7 1265.12 1531.85 L1265.15 1537.87 Z" fill="#000000" fill-rule="nonzero" fill-opacity="1" /><path clip-path="url(#clip880)" d="M1287.5 1550.12 Q1280.4 1550.12 1277.66 1551.75 Q1274.92 1553.37 1274.92 1557.29 Q1274.92 1560.4 1276.96 1562.25 Q1279.03 1564.07 1282.56 1564.07 Q1287.43 1564.07 1290.36 1560.63 Q1293.32 1557.16 1293.32 1551.43 L1293.32 1550.12 L1287.5 1550.12 M1299.18 1547.71 L1299.18 1568.04 L1293.32 1568.04 L1293.32 1562.63 Q1291.32 1565.88 1288.32 1567.44 Q1285.33 1568.97 1281 1568.97 Q1275.53 1568.97 1272.28 1565.91 Q1269.07 1562.82 1269.07 1557.67 Q1269.07 1551.65 1273.08 1548.6 Q1277.12 1545.54 1285.11 1545.54 L1293.32 1545.54 L1293.32 1544.97 Q1293.32 1540.93 1290.65 1538.73 Q1288.01 1536.5 1283.2 1536.5 Q1280.14 1536.5 1277.25 1537.23 Q1274.35 1537.97 1271.68 1539.43 L1271.68 1534.02 Q1274.89 1532.78 1277.92 1532.17 Q1280.94 1531.54 1283.8 1531.54 Q1291.54 1531.54 1295.36 1535.55 Q1299.18 1539.56 1299.18 1547.71 Z" fill="#000000" fill-rule="nonzero" fill-opacity="1" /><path clip-path="url(#clip880)" d="M1317.03 1522.27 L1317.03 1532.4 L1329.1 1532.4 L1329.1 1536.95 L1317.03 1536.95 L1317.03 1556.3 Q1317.03 1560.66 1318.21 1561.9 Q1319.42 1563.14 1323.08 1563.14 L1329.1 1563.14 L1329.1 1568.04 L1323.08 1568.04 Q1316.3 1568.04 1313.72 1565.53 Q1311.14 1562.98 1311.14 1556.3 L1311.14 1536.95 L1306.85 1536.95 L1306.85 1532.4 L1311.14 1532.4 L1311.14 1522.27 L1317.03 1522.27 Z" fill="#000000" fill-rule="nonzero" fill-opacity="1" /><path clip-path="url(#clip880)" d="M1336.8 1532.4 L1342.65 1532.4 L1342.65 1568.04 L1336.8 1568.04 L1336.8 1532.4 M1336.8 1518.52 L1342.65 1518.52 L1342.65 1525.93 L1336.8 1525.93 L1336.8 1518.52 Z" fill="#000000" fill-rule="nonzero" fill-opacity="1" /><path clip-path="url(#clip880)" d="M1368.72 1536.5 Q1364.01 1536.5 1361.27 1540.19 Q1358.54 1543.85 1358.54 1550.25 Q1358.54 1556.65 1361.24 1560.34 Q1363.98 1564 1368.72 1564 Q1373.4 1564 1376.14 1560.31 Q1378.88 1556.62 1378.88 1550.25 Q1378.88 1543.92 1376.14 1540.23 Q1373.4 1536.5 1368.72 1536.5 M1368.72 1531.54 Q1376.36 1531.54 1380.72 1536.5 Q1385.08 1541.47 1385.08 1550.25 Q1385.08 1559 1380.72 1564 Q1376.36 1568.97 1368.72 1568.97 Q1361.05 1568.97 1356.69 1564 Q1352.36 1559 1352.36 1550.25 Q1352.36 1541.47 1356.69 1536.5 Q1361.05 1531.54 1368.72 1531.54 Z" fill="#000000" fill-rule="nonzero" fill-opacity="1" /><path clip-path="url(#clip880)" d="M1424.42 1546.53 L1424.42 1568.04 L1418.57 1568.04 L1418.57 1546.72 Q1418.57 1541.66 1416.59 1539.14 Q1414.62 1536.63 1410.67 1536.63 Q1405.93 1536.63 1403.19 1539.65 Q1400.46 1542.68 1400.46 1547.9 L1400.46 1568.04 L1394.57 1568.04 L1394.57 1532.4 L1400.46 1532.4 L1400.46 1537.93 Q1402.56 1534.72 1405.39 1533.13 Q1408.25 1531.54 1411.98 1531.54 Q1418.12 1531.54 1421.27 1535.36 Q1424.42 1539.14 1424.42 1546.53 Z" fill="#000000" fill-rule="nonzero" fill-opacity="1" /><polyline clip-path="url(#clip880)" style="stroke:#000000; stroke-linecap:round; stroke-linejoin:round; stroke-width:4; stroke-opacity:1; fill:none" points="232.389,1423.18 232.389,47.2441 "/>
<polyline clip-path="url(#clip880)" style="stroke:#000000; stroke-linecap:round; stroke-linejoin:round; stroke-width:4; stroke-opacity:1; fill:none" points="232.389,1384.24 251.287,1384.24 "/>
<polyline clip-path="url(#clip880)" style="stroke:#000000; stroke-linecap:round; stroke-linejoin:round; stroke-width:4; stroke-opacity:1; fill:none" points="232.389,1124.63 251.287,1124.63 "/>
<polyline clip-path="url(#clip880)" style="stroke:#000000; stroke-linecap:round; stroke-linejoin:round; stroke-width:4; stroke-opacity:1; fill:none" points="232.389,865.017 251.287,865.017 "/>
<polyline clip-path="url(#clip880)" style="stroke:#000000; stroke-linecap:round; stroke-linejoin:round; stroke-width:4; stroke-opacity:1; fill:none" points="232.389,605.407 251.287,605.407 "/>
<polyline clip-path="url(#clip880)" style="stroke:#000000; stroke-linecap:round; stroke-linejoin:round; stroke-width:4; stroke-opacity:1; fill:none" points="232.389,345.796 251.287,345.796 "/>
<polyline clip-path="url(#clip880)" style="stroke:#000000; stroke-linecap:round; stroke-linejoin:round; stroke-width:4; stroke-opacity:1; fill:none" points="232.389,86.1857 251.287,86.1857 "/>
<path clip-path="url(#clip880)" d="M184.445 1370.04 Q180.834 1370.04 179.005 1373.6 Q177.2 1377.14 177.2 1384.27 Q177.2 1391.38 179.005 1394.94 Q180.834 1398.49 184.445 1398.49 Q188.079 1398.49 189.885 1394.94 Q191.713 1391.38 191.713 1384.27 Q191.713 1377.14 189.885 1373.6 Q188.079 1370.04 184.445 1370.04 M184.445 1366.33 Q190.255 1366.33 193.311 1370.94 Q196.389 1375.52 196.389 1384.27 Q196.389 1393 193.311 1397.61 Q190.255 1402.19 184.445 1402.19 Q178.635 1402.19 175.556 1397.61 Q172.501 1393 172.501 1384.27 Q172.501 1375.52 175.556 1370.94 Q178.635 1366.33 184.445 1366.33 Z" fill="#000000" fill-rule="nonzero" fill-opacity="1" /><path clip-path="url(#clip880)" d="M148.311 1137.97 L164.63 1137.97 L164.63 1141.91 L142.686 1141.91 L142.686 1137.97 Q145.348 1135.22 149.931 1130.59 Q154.538 1125.94 155.718 1124.59 Q157.964 1122.07 158.843 1120.33 Q159.746 1118.57 159.746 1116.88 Q159.746 1114.13 157.802 1112.39 Q155.88 1110.66 152.778 1110.66 Q150.579 1110.66 148.126 1111.42 Q145.695 1112.19 142.917 1113.74 L142.917 1109.01 Q145.741 1107.88 148.195 1107.3 Q150.649 1106.72 152.686 1106.72 Q158.056 1106.72 161.251 1109.41 Q164.445 1112.09 164.445 1116.58 Q164.445 1118.71 163.635 1120.63 Q162.848 1122.53 160.741 1125.13 Q160.163 1125.8 157.061 1129.01 Q153.959 1132.21 148.311 1137.97 Z" fill="#000000" fill-rule="nonzero" fill-opacity="1" /><path clip-path="url(#clip880)" d="M184.445 1110.43 Q180.834 1110.43 179.005 1113.99 Q177.2 1117.53 177.2 1124.66 Q177.2 1131.77 179.005 1135.33 Q180.834 1138.88 184.445 1138.88 Q188.079 1138.88 189.885 1135.33 Q191.713 1131.77 191.713 1124.66 Q191.713 1117.53 189.885 1113.99 Q188.079 1110.43 184.445 1110.43 M184.445 1106.72 Q190.255 1106.72 193.311 1111.33 Q196.389 1115.91 196.389 1124.66 Q196.389 1133.39 193.311 1138 Q190.255 1142.58 184.445 1142.58 Q178.635 1142.58 175.556 1138 Q172.501 1133.39 172.501 1124.66 Q172.501 1115.91 175.556 1111.33 Q178.635 1106.72 184.445 1106.72 Z" fill="#000000" fill-rule="nonzero" fill-opacity="1" /><path clip-path="url(#clip880)" d="M157.13 851.811 L145.325 870.26 L157.13 870.26 L157.13 851.811 M155.903 847.737 L161.783 847.737 L161.783 870.26 L166.714 870.26 L166.714 874.149 L161.783 874.149 L161.783 882.297 L157.13 882.297 L157.13 874.149 L141.529 874.149 L141.529 869.635 L155.903 847.737 Z" fill="#000000" fill-rule="nonzero" fill-opacity="1" /><path clip-path="url(#clip880)" d="M184.445 850.816 Q180.834 850.816 179.005 854.381 Q177.2 857.922 177.2 865.052 Q177.2 872.158 179.005 875.723 Q180.834 879.265 184.445 879.265 Q188.079 879.265 189.885 875.723 Q191.713 872.158 191.713 865.052 Q191.713 857.922 189.885 854.381 Q188.079 850.816 184.445 850.816 M184.445 847.112 Q190.255 847.112 193.311 851.719 Q196.389 856.302 196.389 865.052 Q196.389 873.779 193.311 878.385 Q190.255 882.969 184.445 882.969 Q178.635 882.969 175.556 878.385 Q172.501 873.779 172.501 865.052 Q172.501 856.302 175.556 851.719 Q178.635 847.112 184.445 847.112 Z" fill="#000000" fill-rule="nonzero" fill-opacity="1" /><path clip-path="url(#clip880)" d="M154.862 603.543 Q151.714 603.543 149.862 605.696 Q148.033 607.849 148.033 611.599 Q148.033 615.326 149.862 617.502 Q151.714 619.654 154.862 619.654 Q158.01 619.654 159.839 617.502 Q161.69 615.326 161.69 611.599 Q161.69 607.849 159.839 605.696 Q158.01 603.543 154.862 603.543 M164.144 588.891 L164.144 593.15 Q162.385 592.317 160.579 591.877 Q158.797 591.437 157.038 591.437 Q152.408 591.437 149.954 594.562 Q147.524 597.687 147.177 604.006 Q148.542 601.992 150.603 600.928 Q152.663 599.84 155.14 599.84 Q160.348 599.84 163.357 603.011 Q166.39 606.159 166.39 611.599 Q166.39 616.923 163.241 620.14 Q160.093 623.358 154.862 623.358 Q148.866 623.358 145.695 618.775 Q142.524 614.168 142.524 605.441 Q142.524 597.247 146.413 592.386 Q150.302 587.502 156.853 587.502 Q158.612 587.502 160.394 587.849 Q162.2 588.196 164.144 588.891 Z" fill="#000000" fill-rule="nonzero" fill-opacity="1" /><path clip-path="url(#clip880)" d="M184.445 591.205 Q180.834 591.205 179.005 594.77 Q177.2 598.312 177.2 605.441 Q177.2 612.548 179.005 616.113 Q180.834 619.654 184.445 619.654 Q188.079 619.654 189.885 616.113 Q191.713 612.548 191.713 605.441 Q191.713 598.312 189.885 594.77 Q188.079 591.205 184.445 591.205 M184.445 587.502 Q190.255 587.502 193.311 592.108 Q196.389 596.691 196.389 605.441 Q196.389 614.168 193.311 618.775 Q190.255 623.358 184.445 623.358 Q178.635 623.358 175.556 618.775 Q172.501 614.168 172.501 605.441 Q172.501 596.691 175.556 592.108 Q178.635 587.502 184.445 587.502 Z" fill="#000000" fill-rule="nonzero" fill-opacity="1" /><path clip-path="url(#clip880)" d="M154.283 346.664 Q150.95 346.664 149.028 348.447 Q147.13 350.229 147.13 353.354 Q147.13 356.479 149.028 358.261 Q150.95 360.044 154.283 360.044 Q157.616 360.044 159.538 358.261 Q161.459 356.456 161.459 353.354 Q161.459 350.229 159.538 348.447 Q157.64 346.664 154.283 346.664 M149.607 344.674 Q146.598 343.933 144.908 341.873 Q143.241 339.812 143.241 336.849 Q143.241 332.706 146.181 330.299 Q149.144 327.891 154.283 327.891 Q159.445 327.891 162.385 330.299 Q165.325 332.706 165.325 336.849 Q165.325 339.812 163.635 341.873 Q161.968 343.933 158.982 344.674 Q162.362 345.461 164.237 347.752 Q166.135 350.044 166.135 353.354 Q166.135 358.377 163.056 361.062 Q160.001 363.747 154.283 363.747 Q148.566 363.747 145.487 361.062 Q142.431 358.377 142.431 353.354 Q142.431 350.044 144.329 347.752 Q146.228 345.461 149.607 344.674 M147.894 337.289 Q147.894 339.974 149.561 341.479 Q151.251 342.984 154.283 342.984 Q157.292 342.984 158.982 341.479 Q160.695 339.974 160.695 337.289 Q160.695 334.604 158.982 333.099 Q157.292 331.595 154.283 331.595 Q151.251 331.595 149.561 333.099 Q147.894 334.604 147.894 337.289 Z" fill="#000000" fill-rule="nonzero" fill-opacity="1" /><path clip-path="url(#clip880)" d="M184.445 331.595 Q180.834 331.595 179.005 335.16 Q177.2 338.701 177.2 345.831 Q177.2 352.937 179.005 356.502 Q180.834 360.044 184.445 360.044 Q188.079 360.044 189.885 356.502 Q191.713 352.937 191.713 345.831 Q191.713 338.701 189.885 335.16 Q188.079 331.595 184.445 331.595 M184.445 327.891 Q190.255 327.891 193.311 332.498 Q196.389 337.081 196.389 345.831 Q196.389 354.558 193.311 359.164 Q190.255 363.747 184.445 363.747 Q178.635 363.747 175.556 359.164 Q172.501 354.558 172.501 345.831 Q172.501 337.081 175.556 332.498 Q178.635 327.891 184.445 327.891 Z" fill="#000000" fill-rule="nonzero" fill-opacity="1" /><path clip-path="url(#clip880)" d="M114.931 99.5305 L122.57 99.5305 L122.57 73.1649 L114.26 74.8316 L114.26 70.5723 L122.524 68.9057 L127.2 68.9057 L127.2 99.5305 L134.839 99.5305 L134.839 103.466 L114.931 103.466 L114.931 99.5305 Z" fill="#000000" fill-rule="nonzero" fill-opacity="1" /><path clip-path="url(#clip880)" d="M154.283 71.9844 Q150.672 71.9844 148.843 75.5492 Q147.038 79.0908 147.038 86.2204 Q147.038 93.3268 148.843 96.8916 Q150.672 100.433 154.283 100.433 Q157.917 100.433 159.723 96.8916 Q161.552 93.3268 161.552 86.2204 Q161.552 79.0908 159.723 75.5492 Q157.917 71.9844 154.283 71.9844 M154.283 68.2807 Q160.093 68.2807 163.149 72.8871 Q166.227 77.4704 166.227 86.2204 Q166.227 94.9472 163.149 99.5537 Q160.093 104.137 154.283 104.137 Q148.473 104.137 145.394 99.5537 Q142.339 94.9472 142.339 86.2204 Q142.339 77.4704 145.394 72.8871 Q148.473 68.2807 154.283 68.2807 Z" fill="#000000" fill-rule="nonzero" fill-opacity="1" /><path clip-path="url(#clip880)" d="M184.445 71.9844 Q180.834 71.9844 179.005 75.5492 Q177.2 79.0908 177.2 86.2204 Q177.2 93.3268 179.005 96.8916 Q180.834 100.433 184.445 100.433 Q188.079 100.433 189.885 96.8916 Q191.713 93.3268 191.713 86.2204 Q191.713 79.0908 189.885 75.5492 Q188.079 71.9844 184.445 71.9844 M184.445 68.2807 Q190.255 68.2807 193.311 72.8871 Q196.389 77.4704 196.389 86.2204 Q196.389 94.9472 193.311 99.5537 Q190.255 104.137 184.445 104.137 Q178.635 104.137 175.556 99.5537 Q172.501 94.9472 172.501 86.2204 Q172.501 77.4704 175.556 72.8871 Q178.635 68.2807 184.445 68.2807 Z" fill="#000000" fill-rule="nonzero" fill-opacity="1" /><path clip-path="url(#clip880)" d="M16.4842 846.357 L16.4842 837.7 L56.238 816.629 L16.4842 816.629 L16.4842 810.391 L64.0042 810.391 L64.0042 819.048 L24.2503 840.119 L64.0042 840.119 L64.0042 846.357 L16.4842 846.357 Z" fill="#000000" fill-rule="nonzero" fill-opacity="1" /><path clip-path="url(#clip880)" d="M41.7242 775.061 Q42.4244 772.992 44.7161 771.051 Q47.0077 769.078 51.0181 767.104 L64.0042 760.579 L64.0042 767.486 L51.8138 773.565 Q47.0395 775.921 45.48 778.149 Q43.9204 780.345 43.9204 784.164 L43.9204 791.167 L64.0042 791.167 L64.0042 797.596 L16.4842 797.596 L16.4842 783.082 Q16.4842 774.934 19.8898 770.924 Q23.2955 766.913 30.1704 766.913 Q34.6582 766.913 37.6183 769.014 Q40.5784 771.083 41.7242 775.061 M21.7677 791.167 L38.6368 791.167 L38.6368 783.082 Q38.6368 778.435 36.5043 776.08 Q34.34 773.693 30.1704 773.693 Q26.0009 773.693 23.9002 776.08 Q21.7677 778.435 21.7677 783.082 L21.7677 791.167 Z" fill="#000000" fill-rule="nonzero" fill-opacity="1" /><path clip-path="url(#clip880)" d="M16.4842 752.304 L16.4842 742.724 L48.8219 730.597 L16.4842 718.407 L16.4842 708.826 L64.0042 708.826 L64.0042 715.096 L22.277 715.096 L54.8694 727.35 L54.8694 733.812 L22.277 746.065 L64.0042 746.065 L64.0042 752.304 L16.4842 752.304 Z" fill="#000000" fill-rule="nonzero" fill-opacity="1" /><path clip-path="url(#clip880)" d="M18.0438 667.576 L24.314 667.576 Q22.5634 671.237 21.704 674.483 Q20.8447 677.73 20.8447 680.753 Q20.8447 686.005 22.8817 688.87 Q24.9187 691.702 28.6745 691.702 Q31.8255 691.702 33.4488 689.824 Q35.0402 687.915 36.0269 682.631 L36.8226 678.748 Q38.1912 671.555 41.6605 668.149 Q45.098 664.712 50.8908 664.712 Q57.7976 664.712 61.3624 669.359 Q64.9272 673.974 64.9272 682.918 Q64.9272 686.292 64.1633 690.111 Q63.3994 693.899 61.9035 697.973 L55.2831 697.973 Q57.4793 694.058 58.5933 690.302 Q59.7073 686.546 59.7073 682.918 Q59.7073 677.411 57.543 674.419 Q55.3786 671.428 51.3682 671.428 Q47.8671 671.428 45.8937 673.592 Q43.9204 675.724 42.9337 680.626 L42.1698 684.541 Q40.7375 691.734 37.682 694.949 Q34.6264 698.164 29.1837 698.164 Q22.8817 698.164 19.2532 693.739 Q15.6248 689.283 15.6248 681.485 Q15.6248 678.143 16.2295 674.674 Q16.8343 671.205 18.0438 667.576 Z" fill="#000000" fill-rule="nonzero" fill-opacity="1" /><path clip-path="url(#clip880)" d="M16.4842 654.686 L16.4842 624.64 L21.895 624.64 L21.895 648.256 L35.9632 648.256 L35.9632 625.626 L41.3741 625.626 L41.3741 648.256 L58.5933 648.256 L58.5933 624.067 L64.0042 624.067 L64.0042 654.686 L16.4842 654.686 Z" fill="#000000" fill-rule="nonzero" fill-opacity="1" /><polyline clip-path="url(#clip881)" style="stroke:#000000; stroke-linecap:round; stroke-linejoin:round; stroke-width:8; stroke-opacity:1; fill:none" points="292.4,86.1857 425.756,639.666 559.112,976.206 692.469,1110.42 825.825,1166.88 959.182,1205.73 1092.54,1233.35 1225.89,1256.61 1359.25,1266.97 1492.61,1272.56 1625.96,1273.29 1759.32,1272.9 1892.68,1271.53 2026.03,1269.92 2159.39,1268.73 2292.75,1267.76 "/>
<circle clip-path="url(#clip881)" cx="292.4" cy="86.1857" r="14.4" fill="#000000" fill-rule="evenodd" fill-opacity="1" stroke="none"/>
<circle clip-path="url(#clip881)" cx="425.756" cy="639.666" r="14.4" fill="#000000" fill-rule="evenodd" fill-opacity="1" stroke="none"/>
<circle clip-path="url(#clip881)" cx="559.112" cy="976.206" r="14.4" fill="#000000" fill-rule="evenodd" fill-opacity="1" stroke="none"/>
<circle clip-path="url(#clip881)" cx="692.469" cy="1110.42" r="14.4" fill="#000000" fill-rule="evenodd" fill-opacity="1" stroke="none"/>
<circle clip-path="url(#clip881)" cx="825.825" cy="1166.88" r="14.4" fill="#000000" fill-rule="evenodd" fill-opacity="1" stroke="none"/>
<circle clip-path="url(#clip881)" cx="959.182" cy="1205.73" r="14.4" fill="#000000" fill-rule="evenodd" fill-opacity="1" stroke="none"/>
<circle clip-path="url(#clip881)" cx="1092.54" cy="1233.35" r="14.4" fill="#000000" fill-rule="evenodd" fill-opacity="1" stroke="none"/>
<circle clip-path="url(#clip881)" cx="1225.89" cy="1256.61" r="14.4" fill="#000000" fill-rule="evenodd" fill-opacity="1" stroke="none"/>
<circle clip-path="url(#clip881)" cx="1359.25" cy="1266.97" r="14.4" fill="#000000" fill-rule="evenodd" fill-opacity="1" stroke="none"/>
<circle clip-path="url(#clip881)" cx="1492.61" cy="1272.56" r="14.4" fill="#000000" fill-rule="evenodd" fill-opacity="1" stroke="none"/>
<circle clip-path="url(#clip881)" cx="1625.96" cy="1273.29" r="14.4" fill="#000000" fill-rule="evenodd" fill-opacity="1" stroke="none"/>
<circle clip-path="url(#clip881)" cx="1759.32" cy="1272.9" r="14.4" fill="#000000" fill-rule="evenodd" fill-opacity="1" stroke="none"/>
<circle clip-path="url(#clip881)" cx="1892.68" cy="1271.53" r="14.4" fill="#000000" fill-rule="evenodd" fill-opacity="1" stroke="none"/>
<circle clip-path="url(#clip881)" cx="2026.03" cy="1269.92" r="14.4" fill="#000000" fill-rule="evenodd" fill-opacity="1" stroke="none"/>
<circle clip-path="url(#clip881)" cx="2159.39" cy="1268.73" r="14.4" fill="#000000" fill-rule="evenodd" fill-opacity="1" stroke="none"/>
<circle clip-path="url(#clip881)" cx="2292.75" cy="1267.76" r="14.4" fill="#000000" fill-rule="evenodd" fill-opacity="1" stroke="none"/>
<polyline clip-path="url(#clip881)" style="stroke:#ff0000; stroke-linecap:round; stroke-linejoin:round; stroke-width:8; stroke-opacity:1; fill:none" points="292.4,86.1857 425.756,1157.58 559.112,1237.05 692.469,1245.36 825.825,1247.49 959.182,1250.03 1092.54,1250.8 1225.89,1251.7 1359.25,1252.95 1492.61,1253.65 1625.96,1254.27 1759.32,1254.67 1892.68,1254.86 2026.03,1255.02 2159.39,1255.08 2292.75,1255 "/>
<line clip-path="url(#clip881)" x1="292.4" y1="86.1857" x2="276.4" y2="70.1857" style="stroke:#ff0000; stroke-width:8; stroke-opacity:1"/>
<line clip-path="url(#clip881)" x1="292.4" y1="86.1857" x2="276.4" y2="102.186" style="stroke:#ff0000; stroke-width:8; stroke-opacity:1"/>
<line clip-path="url(#clip881)" x1="292.4" y1="86.1857" x2="308.4" y2="102.186" style="stroke:#ff0000; stroke-width:8; stroke-opacity:1"/>
<line clip-path="url(#clip881)" x1="292.4" y1="86.1857" x2="308.4" y2="70.1857" style="stroke:#ff0000; stroke-width:8; stroke-opacity:1"/>
<line clip-path="url(#clip881)" x1="425.756" y1="1157.58" x2="409.756" y2="1141.58" style="stroke:#ff0000; stroke-width:8; stroke-opacity:1"/>
<line clip-path="url(#clip881)" x1="425.756" y1="1157.58" x2="409.756" y2="1173.58" style="stroke:#ff0000; stroke-width:8; stroke-opacity:1"/>
<line clip-path="url(#clip881)" x1="425.756" y1="1157.58" x2="441.756" y2="1173.58" style="stroke:#ff0000; stroke-width:8; stroke-opacity:1"/>
<line clip-path="url(#clip881)" x1="425.756" y1="1157.58" x2="441.756" y2="1141.58" style="stroke:#ff0000; stroke-width:8; stroke-opacity:1"/>
<line clip-path="url(#clip881)" x1="559.112" y1="1237.05" x2="543.112" y2="1221.05" style="stroke:#ff0000; stroke-width:8; stroke-opacity:1"/>
<line clip-path="url(#clip881)" x1="559.112" y1="1237.05" x2="543.112" y2="1253.05" style="stroke:#ff0000; stroke-width:8; stroke-opacity:1"/>
<line clip-path="url(#clip881)" x1="559.112" y1="1237.05" x2="575.112" y2="1253.05" style="stroke:#ff0000; stroke-width:8; stroke-opacity:1"/>
<line clip-path="url(#clip881)" x1="559.112" y1="1237.05" x2="575.112" y2="1221.05" style="stroke:#ff0000; stroke-width:8; stroke-opacity:1"/>
<line clip-path="url(#clip881)" x1="692.469" y1="1245.36" x2="676.469" y2="1229.36" style="stroke:#ff0000; stroke-width:8; stroke-opacity:1"/>
<line clip-path="url(#clip881)" x1="692.469" y1="1245.36" x2="676.469" y2="1261.36" style="stroke:#ff0000; stroke-width:8; stroke-opacity:1"/>
<line clip-path="url(#clip881)" x1="692.469" y1="1245.36" x2="708.469" y2="1261.36" style="stroke:#ff0000; stroke-width:8; stroke-opacity:1"/>
<line clip-path="url(#clip881)" x1="692.469" y1="1245.36" x2="708.469" y2="1229.36" style="stroke:#ff0000; stroke-width:8; stroke-opacity:1"/>
<line clip-path="url(#clip881)" x1="825.825" y1="1247.49" x2="809.825" y2="1231.49" style="stroke:#ff0000; stroke-width:8; stroke-opacity:1"/>
<line clip-path="url(#clip881)" x1="825.825" y1="1247.49" x2="809.825" y2="1263.49" style="stroke:#ff0000; stroke-width:8; stroke-opacity:1"/>
<line clip-path="url(#clip881)" x1="825.825" y1="1247.49" x2="841.825" y2="1263.49" style="stroke:#ff0000; stroke-width:8; stroke-opacity:1"/>
<line clip-path="url(#clip881)" x1="825.825" y1="1247.49" x2="841.825" y2="1231.49" style="stroke:#ff0000; stroke-width:8; stroke-opacity:1"/>
<line clip-path="url(#clip881)" x1="959.182" y1="1250.03" x2="943.182" y2="1234.03" style="stroke:#ff0000; stroke-width:8; stroke-opacity:1"/>
<line clip-path="url(#clip881)" x1="959.182" y1="1250.03" x2="943.182" y2="1266.03" style="stroke:#ff0000; stroke-width:8; stroke-opacity:1"/>
<line clip-path="url(#clip881)" x1="959.182" y1="1250.03" x2="975.182" y2="1266.03" style="stroke:#ff0000; stroke-width:8; stroke-opacity:1"/>
<line clip-path="url(#clip881)" x1="959.182" y1="1250.03" x2="975.182" y2="1234.03" style="stroke:#ff0000; stroke-width:8; stroke-opacity:1"/>
<line clip-path="url(#clip881)" x1="1092.54" y1="1250.8" x2="1076.54" y2="1234.8" style="stroke:#ff0000; stroke-width:8; stroke-opacity:1"/>
<line clip-path="url(#clip881)" x1="1092.54" y1="1250.8" x2="1076.54" y2="1266.8" style="stroke:#ff0000; stroke-width:8; stroke-opacity:1"/>
<line clip-path="url(#clip881)" x1="1092.54" y1="1250.8" x2="1108.54" y2="1266.8" style="stroke:#ff0000; stroke-width:8; stroke-opacity:1"/>
<line clip-path="url(#clip881)" x1="1092.54" y1="1250.8" x2="1108.54" y2="1234.8" style="stroke:#ff0000; stroke-width:8; stroke-opacity:1"/>
<line clip-path="url(#clip881)" x1="1225.89" y1="1251.7" x2="1209.89" y2="1235.7" style="stroke:#ff0000; stroke-width:8; stroke-opacity:1"/>
<line clip-path="url(#clip881)" x1="1225.89" y1="1251.7" x2="1209.89" y2="1267.7" style="stroke:#ff0000; stroke-width:8; stroke-opacity:1"/>
<line clip-path="url(#clip881)" x1="1225.89" y1="1251.7" x2="1241.89" y2="1267.7" style="stroke:#ff0000; stroke-width:8; stroke-opacity:1"/>
<line clip-path="url(#clip881)" x1="1225.89" y1="1251.7" x2="1241.89" y2="1235.7" style="stroke:#ff0000; stroke-width:8; stroke-opacity:1"/>
<line clip-path="url(#clip881)" x1="1359.25" y1="1252.95" x2="1343.25" y2="1236.95" style="stroke:#ff0000; stroke-width:8; stroke-opacity:1"/>
<line clip-path="url(#clip881)" x1="1359.25" y1="1252.95" x2="1343.25" y2="1268.95" style="stroke:#ff0000; stroke-width:8; stroke-opacity:1"/>
<line clip-path="url(#clip881)" x1="1359.25" y1="1252.95" x2="1375.25" y2="1268.95" style="stroke:#ff0000; stroke-width:8; stroke-opacity:1"/>
<line clip-path="url(#clip881)" x1="1359.25" y1="1252.95" x2="1375.25" y2="1236.95" style="stroke:#ff0000; stroke-width:8; stroke-opacity:1"/>
<line clip-path="url(#clip881)" x1="1492.61" y1="1253.65" x2="1476.61" y2="1237.65" style="stroke:#ff0000; stroke-width:8; stroke-opacity:1"/>
<line clip-path="url(#clip881)" x1="1492.61" y1="1253.65" x2="1476.61" y2="1269.65" style="stroke:#ff0000; stroke-width:8; stroke-opacity:1"/>
<line clip-path="url(#clip881)" x1="1492.61" y1="1253.65" x2="1508.61" y2="1269.65" style="stroke:#ff0000; stroke-width:8; stroke-opacity:1"/>
<line clip-path="url(#clip881)" x1="1492.61" y1="1253.65" x2="1508.61" y2="1237.65" style="stroke:#ff0000; stroke-width:8; stroke-opacity:1"/>
<line clip-path="url(#clip881)" x1="1625.96" y1="1254.27" x2="1609.96" y2="1238.27" style="stroke:#ff0000; stroke-width:8; stroke-opacity:1"/>
<line clip-path="url(#clip881)" x1="1625.96" y1="1254.27" x2="1609.96" y2="1270.27" style="stroke:#ff0000; stroke-width:8; stroke-opacity:1"/>
<line clip-path="url(#clip881)" x1="1625.96" y1="1254.27" x2="1641.96" y2="1270.27" style="stroke:#ff0000; stroke-width:8; stroke-opacity:1"/>
<line clip-path="url(#clip881)" x1="1625.96" y1="1254.27" x2="1641.96" y2="1238.27" style="stroke:#ff0000; stroke-width:8; stroke-opacity:1"/>
<line clip-path="url(#clip881)" x1="1759.32" y1="1254.67" x2="1743.32" y2="1238.67" style="stroke:#ff0000; stroke-width:8; stroke-opacity:1"/>
<line clip-path="url(#clip881)" x1="1759.32" y1="1254.67" x2="1743.32" y2="1270.67" style="stroke:#ff0000; stroke-width:8; stroke-opacity:1"/>
<line clip-path="url(#clip881)" x1="1759.32" y1="1254.67" x2="1775.32" y2="1270.67" style="stroke:#ff0000; stroke-width:8; stroke-opacity:1"/>
<line clip-path="url(#clip881)" x1="1759.32" y1="1254.67" x2="1775.32" y2="1238.67" style="stroke:#ff0000; stroke-width:8; stroke-opacity:1"/>
<line clip-path="url(#clip881)" x1="1892.68" y1="1254.86" x2="1876.68" y2="1238.86" style="stroke:#ff0000; stroke-width:8; stroke-opacity:1"/>
<line clip-path="url(#clip881)" x1="1892.68" y1="1254.86" x2="1876.68" y2="1270.86" style="stroke:#ff0000; stroke-width:8; stroke-opacity:1"/>
<line clip-path="url(#clip881)" x1="1892.68" y1="1254.86" x2="1908.68" y2="1270.86" style="stroke:#ff0000; stroke-width:8; stroke-opacity:1"/>
<line clip-path="url(#clip881)" x1="1892.68" y1="1254.86" x2="1908.68" y2="1238.86" style="stroke:#ff0000; stroke-width:8; stroke-opacity:1"/>
<line clip-path="url(#clip881)" x1="2026.03" y1="1255.02" x2="2010.03" y2="1239.02" style="stroke:#ff0000; stroke-width:8; stroke-opacity:1"/>
<line clip-path="url(#clip881)" x1="2026.03" y1="1255.02" x2="2010.03" y2="1271.02" style="stroke:#ff0000; stroke-width:8; stroke-opacity:1"/>
<line clip-path="url(#clip881)" x1="2026.03" y1="1255.02" x2="2042.03" y2="1271.02" style="stroke:#ff0000; stroke-width:8; stroke-opacity:1"/>
<line clip-path="url(#clip881)" x1="2026.03" y1="1255.02" x2="2042.03" y2="1239.02" style="stroke:#ff0000; stroke-width:8; stroke-opacity:1"/>
<line clip-path="url(#clip881)" x1="2159.39" y1="1255.08" x2="2143.39" y2="1239.08" style="stroke:#ff0000; stroke-width:8; stroke-opacity:1"/>
<line clip-path="url(#clip881)" x1="2159.39" y1="1255.08" x2="2143.39" y2="1271.08" style="stroke:#ff0000; stroke-width:8; stroke-opacity:1"/>
<line clip-path="url(#clip881)" x1="2159.39" y1="1255.08" x2="2175.39" y2="1271.08" style="stroke:#ff0000; stroke-width:8; stroke-opacity:1"/>
<line clip-path="url(#clip881)" x1="2159.39" y1="1255.08" x2="2175.39" y2="1239.08" style="stroke:#ff0000; stroke-width:8; stroke-opacity:1"/>
<line clip-path="url(#clip881)" x1="2292.75" y1="1255" x2="2276.75" y2="1239" style="stroke:#ff0000; stroke-width:8; stroke-opacity:1"/>
<line clip-path="url(#clip881)" x1="2292.75" y1="1255" x2="2276.75" y2="1271" style="stroke:#ff0000; stroke-width:8; stroke-opacity:1"/>
<line clip-path="url(#clip881)" x1="2292.75" y1="1255" x2="2308.75" y2="1271" style="stroke:#ff0000; stroke-width:8; stroke-opacity:1"/>
<line clip-path="url(#clip881)" x1="2292.75" y1="1255" x2="2308.75" y2="1239" style="stroke:#ff0000; stroke-width:8; stroke-opacity:1"/>
<path clip-path="url(#clip880)" d="M1241.55 248.629 L2282.08 248.629 L2282.08 93.1086 L1241.55 93.1086  Z" fill="#ffffff" fill-rule="evenodd" fill-opacity="1"/>
<polyline clip-path="url(#clip880)" style="stroke:#000000; stroke-linecap:round; stroke-linejoin:round; stroke-width:4; stroke-opacity:1; fill:none" points="1241.55,248.629 2282.08,248.629 2282.08,93.1086 1241.55,93.1086 1241.55,248.629 "/>
<polyline clip-path="url(#clip880)" style="stroke:#000000; stroke-linecap:round; stroke-linejoin:round; stroke-width:8; stroke-opacity:1; fill:none" points="1265.11,144.949 1406.47,144.949 "/>
<circle clip-path="url(#clip880)" cx="1335.79" cy="144.949" r="19.633" fill="#000000" fill-rule="evenodd" fill-opacity="1" stroke="none"/>
<path clip-path="url(#clip880)" d="M1430.03 127.669 L1434.7 127.669 L1434.7 158.293 L1451.53 158.293 L1451.53 162.229 L1430.03 162.229 L1430.03 127.669 Z" fill="#000000" fill-rule="nonzero" fill-opacity="1" /><path clip-path="url(#clip880)" d="M1477.16 128.803 L1477.16 133.363 Q1474.49 132.09 1472.13 131.465 Q1469.77 130.84 1467.57 130.84 Q1463.75 130.84 1461.67 132.321 Q1459.61 133.803 1459.61 136.534 Q1459.61 138.826 1460.98 140.007 Q1462.36 141.164 1466.21 141.882 L1469.03 142.46 Q1474.26 143.456 1476.74 145.979 Q1479.24 148.479 1479.24 152.692 Q1479.24 157.715 1475.86 160.307 Q1472.5 162.9 1466 162.9 Q1463.54 162.9 1460.77 162.344 Q1458.01 161.789 1455.05 160.701 L1455.05 155.886 Q1457.9 157.483 1460.63 158.293 Q1463.36 159.104 1466 159.104 Q1470 159.104 1472.18 157.53 Q1474.35 155.956 1474.35 153.039 Q1474.35 150.493 1472.78 149.057 Q1471.23 147.622 1467.67 146.905 L1464.82 146.349 Q1459.59 145.307 1457.25 143.085 Q1454.91 140.863 1454.91 136.905 Q1454.91 132.321 1458.13 129.682 Q1461.37 127.044 1467.04 127.044 Q1469.47 127.044 1471.99 127.483 Q1474.52 127.923 1477.16 128.803 Z" fill="#000000" fill-rule="nonzero" fill-opacity="1" /><path clip-path="url(#clip880)" d="M1484.19 147.344 L1496.67 147.344 L1496.67 151.141 L1484.19 151.141 L1484.19 147.344 Z" fill="#000000" fill-rule="nonzero" fill-opacity="1" /><path clip-path="url(#clip880)" d="M1529.52 130.331 L1529.52 135.261 Q1527.16 133.062 1524.47 131.974 Q1521.81 130.886 1518.8 130.886 Q1512.87 130.886 1509.73 134.52 Q1506.58 138.132 1506.58 144.983 Q1506.58 151.812 1509.73 155.446 Q1512.87 159.057 1518.8 159.057 Q1521.81 159.057 1524.47 157.969 Q1527.16 156.881 1529.52 154.682 L1529.52 159.567 Q1527.06 161.233 1524.31 162.067 Q1521.58 162.9 1518.52 162.9 Q1510.67 162.9 1506.16 158.108 Q1501.65 153.293 1501.65 144.983 Q1501.65 136.65 1506.16 131.858 Q1510.67 127.044 1518.52 127.044 Q1521.62 127.044 1524.35 127.877 Q1527.11 128.687 1529.52 130.331 Z" fill="#000000" fill-rule="nonzero" fill-opacity="1" /><path clip-path="url(#clip880)" d="M1560.3 157.298 L1560.3 148.016 L1552.66 148.016 L1552.66 144.173 L1564.93 144.173 L1564.93 159.011 Q1562.22 160.932 1558.96 161.928 Q1555.7 162.9 1551.99 162.9 Q1543.89 162.9 1539.31 158.178 Q1534.75 153.432 1534.75 144.983 Q1534.75 136.511 1539.31 131.789 Q1543.89 127.044 1551.99 127.044 Q1555.37 127.044 1558.41 127.877 Q1561.46 128.71 1564.03 130.331 L1564.03 135.307 Q1561.44 133.108 1558.52 131.997 Q1555.6 130.886 1552.39 130.886 Q1546.04 130.886 1542.85 134.428 Q1539.68 137.969 1539.68 144.983 Q1539.68 151.974 1542.85 155.516 Q1546.04 159.057 1552.39 159.057 Q1554.86 159.057 1556.81 158.641 Q1558.75 158.201 1560.3 157.298 Z" fill="#000000" fill-rule="nonzero" fill-opacity="1" /><path clip-path="url(#clip880)" d="M1598.59 126.257 Q1595.49 131.581 1593.98 136.789 Q1592.48 141.997 1592.48 147.344 Q1592.48 152.692 1593.98 157.946 Q1595.51 163.178 1598.59 168.479 L1594.89 168.479 Q1591.41 163.039 1589.68 157.784 Q1587.97 152.53 1587.97 147.344 Q1587.97 142.182 1589.68 136.951 Q1591.39 131.72 1594.89 126.257 L1598.59 126.257 Z" fill="#000000" fill-rule="nonzero" fill-opacity="1" /><path clip-path="url(#clip880)" d="M1610.88 127.669 L1610.88 140.516 L1606.95 140.516 L1606.95 127.669 L1610.88 127.669 Z" fill="#000000" fill-rule="nonzero" fill-opacity="1" /><path clip-path="url(#clip880)" d="M1641.44 146.581 L1641.44 162.229 L1637.18 162.229 L1637.18 146.719 Q1637.18 143.039 1635.74 141.21 Q1634.31 139.382 1631.44 139.382 Q1627.99 139.382 1626 141.581 Q1624.01 143.78 1624.01 147.576 L1624.01 162.229 L1619.72 162.229 L1619.72 136.303 L1624.01 136.303 L1624.01 140.331 Q1625.53 137.993 1627.59 136.835 Q1629.68 135.678 1632.39 135.678 Q1636.85 135.678 1639.15 138.456 Q1641.44 141.21 1641.44 146.581 Z" fill="#000000" fill-rule="nonzero" fill-opacity="1" /><path clip-path="url(#clip880)" d="M1659.98 139.289 Q1656.55 139.289 1654.56 141.974 Q1652.57 144.636 1652.57 149.289 Q1652.57 153.942 1654.54 156.627 Q1656.53 159.289 1659.98 159.289 Q1663.38 159.289 1665.37 156.604 Q1667.36 153.918 1667.36 149.289 Q1667.36 144.682 1665.37 141.997 Q1663.38 139.289 1659.98 139.289 M1659.98 135.678 Q1665.53 135.678 1668.71 139.289 Q1671.88 142.9 1671.88 149.289 Q1671.88 155.655 1668.71 159.289 Q1665.53 162.9 1659.98 162.9 Q1654.4 162.9 1651.23 159.289 Q1648.08 155.655 1648.08 149.289 Q1648.08 142.9 1651.23 139.289 Q1654.4 135.678 1659.98 135.678 Z" fill="#000000" fill-rule="nonzero" fill-opacity="1" /><path clip-path="url(#clip880)" d="M1700.49 146.581 L1700.49 162.229 L1696.23 162.229 L1696.23 146.719 Q1696.23 143.039 1694.79 141.21 Q1693.36 139.382 1690.49 139.382 Q1687.04 139.382 1685.05 141.581 Q1683.06 143.78 1683.06 147.576 L1683.06 162.229 L1678.78 162.229 L1678.78 136.303 L1683.06 136.303 L1683.06 140.331 Q1684.59 137.993 1686.65 136.835 Q1688.73 135.678 1691.44 135.678 Q1695.9 135.678 1698.2 138.456 Q1700.49 141.21 1700.49 146.581 Z" fill="#000000" fill-rule="nonzero" fill-opacity="1" /><path clip-path="url(#clip880)" d="M1706.83 147.344 L1719.31 147.344 L1719.31 151.141 L1706.83 151.141 L1706.83 147.344 Z" fill="#000000" fill-rule="nonzero" fill-opacity="1" /><path clip-path="url(#clip880)" d="M1730.21 158.34 L1730.21 172.09 L1725.93 172.09 L1725.93 136.303 L1730.21 136.303 L1730.21 140.238 Q1731.55 137.923 1733.59 136.812 Q1735.65 135.678 1738.5 135.678 Q1743.22 135.678 1746.16 139.428 Q1749.12 143.178 1749.12 149.289 Q1749.12 155.4 1746.16 159.15 Q1743.22 162.9 1738.5 162.9 Q1735.65 162.9 1733.59 161.789 Q1731.55 160.655 1730.21 158.34 M1744.7 149.289 Q1744.7 144.59 1742.76 141.928 Q1740.83 139.243 1737.46 139.243 Q1734.08 139.243 1732.13 141.928 Q1730.21 144.59 1730.21 149.289 Q1730.21 153.988 1732.13 156.673 Q1734.08 159.335 1737.46 159.335 Q1740.83 159.335 1742.76 156.673 Q1744.7 153.988 1744.7 149.289 Z" fill="#000000" fill-rule="nonzero" fill-opacity="1" /><path clip-path="url(#clip880)" d="M1771.21 140.284 Q1770.49 139.868 1769.63 139.682 Q1768.8 139.474 1767.78 139.474 Q1764.17 139.474 1762.22 141.835 Q1760.3 144.173 1760.3 148.571 L1760.3 162.229 L1756.02 162.229 L1756.02 136.303 L1760.3 136.303 L1760.3 140.331 Q1761.65 137.969 1763.8 136.835 Q1765.95 135.678 1769.03 135.678 Q1769.47 135.678 1770 135.747 Q1770.53 135.794 1771.18 135.909 L1771.21 140.284 Z" fill="#000000" fill-rule="nonzero" fill-opacity="1" /><path clip-path="url(#clip880)" d="M1796.81 148.201 L1796.81 150.284 L1777.22 150.284 Q1777.5 154.682 1779.86 156.997 Q1782.25 159.289 1786.48 159.289 Q1788.94 159.289 1791.23 158.687 Q1793.54 158.085 1795.81 156.881 L1795.81 160.909 Q1793.52 161.881 1791.11 162.391 Q1788.71 162.9 1786.23 162.9 Q1780.02 162.9 1776.39 159.289 Q1772.78 155.678 1772.78 149.52 Q1772.78 143.155 1776.21 139.428 Q1779.65 135.678 1785.49 135.678 Q1790.72 135.678 1793.75 139.057 Q1796.81 142.414 1796.81 148.201 M1792.55 146.951 Q1792.5 143.456 1790.58 141.372 Q1788.68 139.289 1785.53 139.289 Q1781.97 139.289 1779.82 141.303 Q1777.69 143.317 1777.36 146.974 L1792.55 146.951 Z" fill="#000000" fill-rule="nonzero" fill-opacity="1" /><path clip-path="url(#clip880)" d="M1822.45 137.298 L1822.45 141.28 Q1820.65 140.284 1818.82 139.798 Q1817.02 139.289 1815.16 139.289 Q1811.02 139.289 1808.73 141.928 Q1806.44 144.544 1806.44 149.289 Q1806.44 154.034 1808.73 156.673 Q1811.02 159.289 1815.16 159.289 Q1817.02 159.289 1818.82 158.803 Q1820.65 158.293 1822.45 157.298 L1822.45 161.233 Q1820.67 162.067 1818.75 162.483 Q1816.85 162.9 1814.7 162.9 Q1808.84 162.9 1805.39 159.219 Q1801.95 155.539 1801.95 149.289 Q1801.95 142.946 1805.42 139.312 Q1808.91 135.678 1814.98 135.678 Q1816.95 135.678 1818.82 136.095 Q1820.7 136.488 1822.45 137.298 Z" fill="#000000" fill-rule="nonzero" fill-opacity="1" /><path clip-path="url(#clip880)" d="M1839.91 139.289 Q1836.48 139.289 1834.49 141.974 Q1832.5 144.636 1832.5 149.289 Q1832.5 153.942 1834.47 156.627 Q1836.46 159.289 1839.91 159.289 Q1843.31 159.289 1845.3 156.604 Q1847.29 153.918 1847.29 149.289 Q1847.29 144.682 1845.3 141.997 Q1843.31 139.289 1839.91 139.289 M1839.91 135.678 Q1845.46 135.678 1848.64 139.289 Q1851.81 142.9 1851.81 149.289 Q1851.81 155.655 1848.64 159.289 Q1845.46 162.9 1839.91 162.9 Q1834.33 162.9 1831.16 159.289 Q1828.01 155.655 1828.01 149.289 Q1828.01 142.9 1831.16 139.289 Q1834.33 135.678 1839.91 135.678 Z" fill="#000000" fill-rule="nonzero" fill-opacity="1" /><path clip-path="url(#clip880)" d="M1880.42 146.581 L1880.42 162.229 L1876.16 162.229 L1876.16 146.719 Q1876.16 143.039 1874.72 141.21 Q1873.29 139.382 1870.42 139.382 Q1866.97 139.382 1864.98 141.581 Q1862.99 143.78 1862.99 147.576 L1862.99 162.229 L1858.7 162.229 L1858.7 136.303 L1862.99 136.303 L1862.99 140.331 Q1864.51 137.993 1866.58 136.835 Q1868.66 135.678 1871.37 135.678 Q1875.83 135.678 1878.13 138.456 Q1880.42 141.21 1880.42 146.581 Z" fill="#000000" fill-rule="nonzero" fill-opacity="1" /><path clip-path="url(#clip880)" d="M1905.97 140.238 L1905.97 126.21 L1910.23 126.21 L1910.23 162.229 L1905.97 162.229 L1905.97 158.34 Q1904.63 160.655 1902.57 161.789 Q1900.53 162.9 1897.66 162.9 Q1892.96 162.9 1890 159.15 Q1887.06 155.4 1887.06 149.289 Q1887.06 143.178 1890 139.428 Q1892.96 135.678 1897.66 135.678 Q1900.53 135.678 1902.57 136.812 Q1904.63 137.923 1905.97 140.238 M1891.46 149.289 Q1891.46 153.988 1893.38 156.673 Q1895.32 159.335 1898.7 159.335 Q1902.08 159.335 1904.03 156.673 Q1905.97 153.988 1905.97 149.289 Q1905.97 144.59 1904.03 141.928 Q1902.08 139.243 1898.7 139.243 Q1895.32 139.243 1893.38 141.928 Q1891.46 144.59 1891.46 149.289 Z" fill="#000000" fill-rule="nonzero" fill-opacity="1" /><path clip-path="url(#clip880)" d="M1919.01 136.303 L1923.26 136.303 L1923.26 162.229 L1919.01 162.229 L1919.01 136.303 M1919.01 126.21 L1923.26 126.21 L1923.26 131.604 L1919.01 131.604 L1919.01 126.21 Z" fill="#000000" fill-rule="nonzero" fill-opacity="1" /><path clip-path="url(#clip880)" d="M1936.39 128.942 L1936.39 136.303 L1945.16 136.303 L1945.16 139.613 L1936.39 139.613 L1936.39 153.687 Q1936.39 156.858 1937.25 157.761 Q1938.13 158.664 1940.79 158.664 L1945.16 158.664 L1945.16 162.229 L1940.79 162.229 Q1935.86 162.229 1933.98 160.4 Q1932.11 158.548 1932.11 153.687 L1932.11 139.613 L1928.98 139.613 L1928.98 136.303 L1932.11 136.303 L1932.11 128.942 L1936.39 128.942 Z" fill="#000000" fill-rule="nonzero" fill-opacity="1" /><path clip-path="url(#clip880)" d="M1950.76 136.303 L1955.02 136.303 L1955.02 162.229 L1950.76 162.229 L1950.76 136.303 M1950.76 126.21 L1955.02 126.21 L1955.02 131.604 L1950.76 131.604 L1950.76 126.21 Z" fill="#000000" fill-rule="nonzero" fill-opacity="1" /><path clip-path="url(#clip880)" d="M1973.98 139.289 Q1970.56 139.289 1968.57 141.974 Q1966.57 144.636 1966.57 149.289 Q1966.57 153.942 1968.54 156.627 Q1970.53 159.289 1973.98 159.289 Q1977.38 159.289 1979.38 156.604 Q1981.37 153.918 1981.37 149.289 Q1981.37 144.682 1979.38 141.997 Q1977.38 139.289 1973.98 139.289 M1973.98 135.678 Q1979.54 135.678 1982.71 139.289 Q1985.88 142.9 1985.88 149.289 Q1985.88 155.655 1982.71 159.289 Q1979.54 162.9 1973.98 162.9 Q1968.4 162.9 1965.23 159.289 Q1962.08 155.655 1962.08 149.289 Q1962.08 142.9 1965.23 139.289 Q1968.4 135.678 1973.98 135.678 Z" fill="#000000" fill-rule="nonzero" fill-opacity="1" /><path clip-path="url(#clip880)" d="M2014.49 146.581 L2014.49 162.229 L2010.23 162.229 L2010.23 146.719 Q2010.23 143.039 2008.8 141.21 Q2007.36 139.382 2004.49 139.382 Q2001.04 139.382 1999.05 141.581 Q1997.06 143.78 1997.06 147.576 L1997.06 162.229 L1992.78 162.229 L1992.78 136.303 L1997.06 136.303 L1997.06 140.331 Q1998.59 137.993 2000.65 136.835 Q2002.73 135.678 2005.44 135.678 Q2009.91 135.678 2012.2 138.456 Q2014.49 141.21 2014.49 146.581 Z" fill="#000000" fill-rule="nonzero" fill-opacity="1" /><path clip-path="url(#clip880)" d="M2045.16 148.201 L2045.16 150.284 L2025.58 150.284 Q2025.86 154.682 2028.22 156.997 Q2030.6 159.289 2034.84 159.289 Q2037.29 159.289 2039.58 158.687 Q2041.9 158.085 2044.17 156.881 L2044.17 160.909 Q2041.88 161.881 2039.47 162.391 Q2037.06 162.9 2034.58 162.9 Q2028.38 162.9 2024.75 159.289 Q2021.13 155.678 2021.13 149.52 Q2021.13 143.155 2024.56 139.428 Q2028.01 135.678 2033.84 135.678 Q2039.07 135.678 2042.11 139.057 Q2045.16 142.414 2045.16 148.201 M2040.9 146.951 Q2040.86 143.456 2038.94 141.372 Q2037.04 139.289 2033.89 139.289 Q2030.32 139.289 2028.17 141.303 Q2026.04 143.317 2025.72 146.974 L2040.9 146.951 Z" fill="#000000" fill-rule="nonzero" fill-opacity="1" /><path clip-path="url(#clip880)" d="M2069.21 140.238 L2069.21 126.21 L2073.47 126.21 L2073.47 162.229 L2069.21 162.229 L2069.21 158.34 Q2067.87 160.655 2065.81 161.789 Q2063.77 162.9 2060.9 162.9 Q2056.2 162.9 2053.24 159.15 Q2050.3 155.4 2050.3 149.289 Q2050.3 143.178 2053.24 139.428 Q2056.2 135.678 2060.9 135.678 Q2063.77 135.678 2065.81 136.812 Q2067.87 137.923 2069.21 140.238 M2054.7 149.289 Q2054.7 153.988 2056.62 156.673 Q2058.56 159.335 2061.94 159.335 Q2065.32 159.335 2067.27 156.673 Q2069.21 153.988 2069.21 149.289 Q2069.21 144.59 2067.27 141.928 Q2065.32 139.243 2061.94 139.243 Q2058.56 139.243 2056.62 141.928 Q2054.7 144.59 2054.7 149.289 Z" fill="#000000" fill-rule="nonzero" fill-opacity="1" /><path clip-path="url(#clip880)" d="M2086.27 127.669 L2086.27 140.516 L2082.34 140.516 L2082.34 127.669 L2086.27 127.669 Z" fill="#000000" fill-rule="nonzero" fill-opacity="1" /><path clip-path="url(#clip880)" d="M2094.61 126.257 L2098.31 126.257 Q2101.78 131.72 2103.5 136.951 Q2105.23 142.182 2105.23 147.344 Q2105.23 152.53 2103.5 157.784 Q2101.78 163.039 2098.31 168.479 L2094.61 168.479 Q2097.68 163.178 2099.19 157.946 Q2100.72 152.692 2100.72 147.344 Q2100.72 141.997 2099.19 136.789 Q2097.68 131.581 2094.61 126.257 Z" fill="#000000" fill-rule="nonzero" fill-opacity="1" /><path clip-path="url(#clip880)" d="M2114.86 156.349 L2119.74 156.349 L2119.74 160.33 L2115.95 167.738 L2112.96 167.738 L2114.86 160.33 L2114.86 156.349 Z" fill="#000000" fill-rule="nonzero" fill-opacity="1" /><path clip-path="url(#clip880)" d="M2154.51 130.747 Q2150.9 130.747 2149.07 134.312 Q2147.27 137.854 2147.27 144.983 Q2147.27 152.09 2149.07 155.655 Q2150.9 159.196 2154.51 159.196 Q2158.15 159.196 2159.95 155.655 Q2161.78 152.09 2161.78 144.983 Q2161.78 137.854 2159.95 134.312 Q2158.15 130.747 2154.51 130.747 M2154.51 127.044 Q2160.32 127.044 2163.38 131.65 Q2166.46 136.233 2166.46 144.983 Q2166.46 153.71 2163.38 158.317 Q2160.32 162.9 2154.51 162.9 Q2148.7 162.9 2145.62 158.317 Q2142.57 153.71 2142.57 144.983 Q2142.57 136.233 2145.62 131.65 Q2148.7 127.044 2154.51 127.044 Z" fill="#000000" fill-rule="nonzero" fill-opacity="1" /><path clip-path="url(#clip880)" d="M2189.14 136.303 L2193.4 136.303 L2193.4 162.229 L2189.14 162.229 L2189.14 136.303 M2189.14 126.21 L2193.4 126.21 L2193.4 131.604 L2189.14 131.604 L2189.14 126.21 Z" fill="#000000" fill-rule="nonzero" fill-opacity="1" /><path clip-path="url(#clip880)" d="M2223.86 146.581 L2223.86 162.229 L2219.61 162.229 L2219.61 146.719 Q2219.61 143.039 2218.17 141.21 Q2216.74 139.382 2213.86 139.382 Q2210.42 139.382 2208.43 141.581 Q2206.43 143.78 2206.43 147.576 L2206.43 162.229 L2202.15 162.229 L2202.15 136.303 L2206.43 136.303 L2206.43 140.331 Q2207.96 137.993 2210.02 136.835 Q2212.11 135.678 2214.81 135.678 Q2219.28 135.678 2221.57 138.456 Q2223.86 141.21 2223.86 146.581 Z" fill="#000000" fill-rule="nonzero" fill-opacity="1" /><path clip-path="url(#clip880)" d="M2232.36 136.303 L2236.62 136.303 L2236.62 162.229 L2232.36 162.229 L2232.36 136.303 M2232.36 126.21 L2236.62 126.21 L2236.62 131.604 L2232.36 131.604 L2232.36 126.21 Z" fill="#000000" fill-rule="nonzero" fill-opacity="1" /><path clip-path="url(#clip880)" d="M2249.74 128.942 L2249.74 136.303 L2258.52 136.303 L2258.52 139.613 L2249.74 139.613 L2249.74 153.687 Q2249.74 156.858 2250.6 157.761 Q2251.48 158.664 2254.14 158.664 L2258.52 158.664 L2258.52 162.229 L2254.14 162.229 Q2249.21 162.229 2247.34 160.4 Q2245.46 158.548 2245.46 153.687 L2245.46 139.613 L2242.34 139.613 L2242.34 136.303 L2245.46 136.303 L2245.46 128.942 L2249.74 128.942 Z" fill="#000000" fill-rule="nonzero" fill-opacity="1" /><polyline clip-path="url(#clip880)" style="stroke:#ff0000; stroke-linecap:round; stroke-linejoin:round; stroke-width:8; stroke-opacity:1; fill:none" points="1265.11,196.789 1406.47,196.789 "/>
<line clip-path="url(#clip880)" x1="1335.79" y1="196.789" x2="1313.97" y2="174.974" style="stroke:#ff0000; stroke-width:8; stroke-opacity:1"/>
<line clip-path="url(#clip880)" x1="1335.79" y1="196.789" x2="1313.97" y2="218.603" style="stroke:#ff0000; stroke-width:8; stroke-opacity:1"/>
<line clip-path="url(#clip880)" x1="1335.79" y1="196.789" x2="1357.6" y2="218.603" style="stroke:#ff0000; stroke-width:8; stroke-opacity:1"/>
<line clip-path="url(#clip880)" x1="1335.79" y1="196.789" x2="1357.6" y2="174.974" style="stroke:#ff0000; stroke-width:8; stroke-opacity:1"/>
<path clip-path="url(#clip880)" d="M1430.03 179.509 L1434.75 179.509 L1442.02 208.721 L1449.26 179.509 L1454.52 179.509 L1461.79 208.721 L1469.03 179.509 L1473.78 179.509 L1465.1 214.069 L1459.22 214.069 L1451.92 184.069 L1444.56 214.069 L1438.68 214.069 L1430.03 179.509 Z" fill="#000000" fill-rule="nonzero" fill-opacity="1" /><path clip-path="url(#clip880)" d="M1479.98 179.509 L1484.66 179.509 L1484.66 210.133 L1501.48 210.133 L1501.48 214.069 L1479.98 214.069 L1479.98 179.509 Z" fill="#000000" fill-rule="nonzero" fill-opacity="1" /><path clip-path="url(#clip880)" d="M1527.11 180.643 L1527.11 185.203 Q1524.45 183.93 1522.09 183.305 Q1519.73 182.68 1517.53 182.68 Q1513.71 182.68 1511.62 184.161 Q1509.56 185.643 1509.56 188.374 Q1509.56 190.666 1510.93 191.847 Q1512.32 193.004 1516.16 193.722 L1518.98 194.3 Q1524.22 195.296 1526.69 197.819 Q1529.19 200.319 1529.19 204.532 Q1529.19 209.555 1525.81 212.147 Q1522.46 214.74 1515.95 214.74 Q1513.5 214.74 1510.72 214.184 Q1507.97 213.629 1505 212.541 L1505 207.726 Q1507.85 209.323 1510.58 210.133 Q1513.31 210.944 1515.95 210.944 Q1519.96 210.944 1522.13 209.37 Q1524.31 207.796 1524.31 204.879 Q1524.31 202.333 1522.73 200.897 Q1521.18 199.462 1517.62 198.745 L1514.77 198.189 Q1509.54 197.147 1507.2 194.925 Q1504.86 192.703 1504.86 188.745 Q1504.86 184.161 1508.08 181.522 Q1511.32 178.884 1516.99 178.884 Q1519.42 178.884 1521.95 179.323 Q1524.47 179.763 1527.11 180.643 Z" fill="#000000" fill-rule="nonzero" fill-opacity="1" /><path clip-path="url(#clip880)" d="M1534.15 199.184 L1546.62 199.184 L1546.62 202.981 L1534.15 202.981 L1534.15 199.184 Z" fill="#000000" fill-rule="nonzero" fill-opacity="1" /><path clip-path="url(#clip880)" d="M1579.47 182.171 L1579.47 187.101 Q1577.11 184.902 1574.42 183.814 Q1571.76 182.726 1568.75 182.726 Q1562.83 182.726 1559.68 186.36 Q1556.53 189.972 1556.53 196.823 Q1556.53 203.652 1559.68 207.286 Q1562.83 210.897 1568.75 210.897 Q1571.76 210.897 1574.42 209.809 Q1577.11 208.721 1579.47 206.522 L1579.47 211.407 Q1577.02 213.073 1574.26 213.907 Q1571.53 214.74 1568.47 214.74 Q1560.63 214.74 1556.11 209.948 Q1551.6 205.133 1551.6 196.823 Q1551.6 188.49 1556.11 183.698 Q1560.63 178.884 1568.47 178.884 Q1571.58 178.884 1574.31 179.717 Q1577.06 180.527 1579.47 182.171 Z" fill="#000000" fill-rule="nonzero" fill-opacity="1" /><path clip-path="url(#clip880)" d="M1610.26 209.138 L1610.26 199.856 L1602.62 199.856 L1602.62 196.013 L1614.89 196.013 L1614.89 210.851 Q1612.18 212.772 1608.91 213.768 Q1605.65 214.74 1601.95 214.74 Q1593.85 214.74 1589.26 210.018 Q1584.7 205.272 1584.7 196.823 Q1584.7 188.351 1589.26 183.629 Q1593.85 178.884 1601.95 178.884 Q1605.33 178.884 1608.36 179.717 Q1611.41 180.55 1613.98 182.171 L1613.98 187.147 Q1611.39 184.948 1608.47 183.837 Q1605.56 182.726 1602.34 182.726 Q1596 182.726 1592.8 186.268 Q1589.63 189.809 1589.63 196.823 Q1589.63 203.814 1592.8 207.356 Q1596 210.897 1602.34 210.897 Q1604.82 210.897 1606.76 210.481 Q1608.71 210.041 1610.26 209.138 Z" fill="#000000" fill-rule="nonzero" fill-opacity="1" /><path clip-path="url(#clip880)" d="M1635.84 188.143 L1640.09 188.143 L1645.42 208.374 L1650.72 188.143 L1655.74 188.143 L1661.07 208.374 L1666.37 188.143 L1670.63 188.143 L1663.84 214.069 L1658.82 214.069 L1653.24 192.819 L1647.64 214.069 L1642.62 214.069 L1635.84 188.143 Z" fill="#000000" fill-rule="nonzero" fill-opacity="1" /><path clip-path="url(#clip880)" d="M1677.09 188.143 L1681.34 188.143 L1681.34 214.069 L1677.09 214.069 L1677.09 188.143 M1677.09 178.05 L1681.34 178.05 L1681.34 183.444 L1677.09 183.444 L1677.09 178.05 Z" fill="#000000" fill-rule="nonzero" fill-opacity="1" /><path clip-path="url(#clip880)" d="M1694.47 180.782 L1694.47 188.143 L1703.24 188.143 L1703.24 191.453 L1694.47 191.453 L1694.47 205.527 Q1694.47 208.698 1695.33 209.601 Q1696.21 210.504 1698.87 210.504 L1703.24 210.504 L1703.24 214.069 L1698.87 214.069 Q1693.94 214.069 1692.06 212.24 Q1690.19 210.388 1690.19 205.527 L1690.19 191.453 L1687.06 191.453 L1687.06 188.143 L1690.19 188.143 L1690.19 180.782 L1694.47 180.782 Z" fill="#000000" fill-rule="nonzero" fill-opacity="1" /><path clip-path="url(#clip880)" d="M1730.4 198.421 L1730.4 214.069 L1726.14 214.069 L1726.14 198.559 Q1726.14 194.879 1724.7 193.05 Q1723.27 191.222 1720.4 191.222 Q1716.95 191.222 1714.96 193.421 Q1712.96 195.62 1712.96 199.416 L1712.96 214.069 L1708.68 214.069 L1708.68 178.05 L1712.96 178.05 L1712.96 192.171 Q1714.49 189.833 1716.55 188.675 Q1718.64 187.518 1721.34 187.518 Q1725.81 187.518 1728.1 190.296 Q1730.4 193.05 1730.4 198.421 Z" fill="#000000" fill-rule="nonzero" fill-opacity="1" /><path clip-path="url(#clip880)" d="M1758.82 183.351 L1758.82 210.226 L1764.47 210.226 Q1771.62 210.226 1774.93 206.985 Q1778.27 203.745 1778.27 196.754 Q1778.27 189.809 1774.93 186.592 Q1771.62 183.351 1764.47 183.351 L1758.82 183.351 M1754.15 179.509 L1763.75 179.509 Q1773.8 179.509 1778.5 183.698 Q1783.2 187.865 1783.2 196.754 Q1783.2 205.689 1778.47 209.879 Q1773.75 214.069 1763.75 214.069 L1754.15 214.069 L1754.15 179.509 Z" fill="#000000" fill-rule="nonzero" fill-opacity="1" /><path clip-path="url(#clip880)" d="M1816.53 182.171 L1816.53 187.101 Q1814.17 184.902 1811.48 183.814 Q1808.82 182.726 1805.81 182.726 Q1799.89 182.726 1796.74 186.36 Q1793.59 189.972 1793.59 196.823 Q1793.59 203.652 1796.74 207.286 Q1799.89 210.897 1805.81 210.897 Q1808.82 210.897 1811.48 209.809 Q1814.17 208.721 1816.53 206.522 L1816.53 211.407 Q1814.08 213.073 1811.32 213.907 Q1808.59 214.74 1805.53 214.74 Q1797.69 214.74 1793.17 209.948 Q1788.66 205.133 1788.66 196.823 Q1788.66 188.49 1793.17 183.698 Q1797.69 178.884 1805.53 178.884 Q1808.64 178.884 1811.37 179.717 Q1814.12 180.527 1816.53 182.171 Z" fill="#000000" fill-rule="nonzero" fill-opacity="1" /><path clip-path="url(#clip880)" d="M1823.75 179.509 L1843.61 179.509 L1843.61 183.444 L1828.43 183.444 L1828.43 193.629 L1842.13 193.629 L1842.13 197.564 L1828.43 197.564 L1828.43 214.069 L1823.75 214.069 L1823.75 179.509 Z" fill="#000000" fill-rule="nonzero" fill-opacity="1" /><path clip-path="url(#clip880)" d="M1863.43 188.143 L1867.69 188.143 L1873.01 208.374 L1878.31 188.143 L1883.33 188.143 L1888.66 208.374 L1893.96 188.143 L1898.22 188.143 L1891.44 214.069 L1886.41 214.069 L1880.83 192.819 L1875.23 214.069 L1870.21 214.069 L1863.43 188.143 Z" fill="#000000" fill-rule="nonzero" fill-opacity="1" /><path clip-path="url(#clip880)" d="M1926.85 200.041 L1926.85 202.124 L1907.27 202.124 Q1907.55 206.522 1909.91 208.837 Q1912.29 211.129 1916.53 211.129 Q1918.98 211.129 1921.27 210.527 Q1923.59 209.925 1925.86 208.721 L1925.86 212.749 Q1923.57 213.721 1921.16 214.231 Q1918.75 214.74 1916.27 214.74 Q1910.07 214.74 1906.44 211.129 Q1902.82 207.518 1902.82 201.36 Q1902.82 194.995 1906.25 191.268 Q1909.7 187.518 1915.53 187.518 Q1920.76 187.518 1923.8 190.897 Q1926.85 194.254 1926.85 200.041 M1922.59 198.791 Q1922.55 195.296 1920.63 193.212 Q1918.73 191.129 1915.58 191.129 Q1912.01 191.129 1909.86 193.143 Q1907.73 195.157 1907.41 198.814 L1922.59 198.791 Z" fill="#000000" fill-rule="nonzero" fill-opacity="1" /><path clip-path="url(#clip880)" d="M1933.84 188.143 L1938.1 188.143 L1938.1 214.069 L1933.84 214.069 L1933.84 188.143 M1933.84 178.05 L1938.1 178.05 L1938.1 183.444 L1933.84 183.444 L1933.84 178.05 Z" fill="#000000" fill-rule="nonzero" fill-opacity="1" /><path clip-path="url(#clip880)" d="M1964.07 200.805 Q1964.07 196.175 1962.15 193.629 Q1960.26 191.083 1956.81 191.083 Q1953.38 191.083 1951.46 193.629 Q1949.56 196.175 1949.56 200.805 Q1949.56 205.411 1951.46 207.958 Q1953.38 210.504 1956.81 210.504 Q1960.26 210.504 1962.15 207.958 Q1964.07 205.411 1964.07 200.805 M1968.33 210.851 Q1968.33 217.471 1965.39 220.689 Q1962.45 223.93 1956.39 223.93 Q1954.14 223.93 1952.15 223.582 Q1950.16 223.258 1948.29 222.564 L1948.29 218.42 Q1950.16 219.439 1951.99 219.925 Q1953.82 220.411 1955.72 220.411 Q1959.91 220.411 1961.99 218.212 Q1964.07 216.036 1964.07 211.615 L1964.07 209.508 Q1962.76 211.8 1960.69 212.934 Q1958.63 214.069 1955.76 214.069 Q1951 214.069 1948.08 210.434 Q1945.16 206.8 1945.16 200.805 Q1945.16 194.786 1948.08 191.152 Q1951 187.518 1955.76 187.518 Q1958.63 187.518 1960.69 188.652 Q1962.76 189.786 1964.07 192.078 L1964.07 188.143 L1968.33 188.143 L1968.33 210.851 Z" fill="#000000" fill-rule="nonzero" fill-opacity="1" /><path clip-path="url(#clip880)" d="M1998.66 198.421 L1998.66 214.069 L1994.4 214.069 L1994.4 198.559 Q1994.4 194.879 1992.96 193.05 Q1991.53 191.222 1988.66 191.222 Q1985.21 191.222 1983.22 193.421 Q1981.23 195.62 1981.23 199.416 L1981.23 214.069 L1976.94 214.069 L1976.94 178.05 L1981.23 178.05 L1981.23 192.171 Q1982.75 189.833 1984.82 188.675 Q1986.9 187.518 1989.61 187.518 Q1994.07 187.518 1996.37 190.296 Q1998.66 193.05 1998.66 198.421 Z" fill="#000000" fill-rule="nonzero" fill-opacity="1" /><path clip-path="url(#clip880)" d="M2011.37 180.782 L2011.37 188.143 L2020.14 188.143 L2020.14 191.453 L2011.37 191.453 L2011.37 205.527 Q2011.37 208.698 2012.22 209.601 Q2013.1 210.504 2015.76 210.504 L2020.14 210.504 L2020.14 214.069 L2015.76 214.069 Q2010.83 214.069 2008.96 212.24 Q2007.08 210.388 2007.08 205.527 L2007.08 191.453 L2003.96 191.453 L2003.96 188.143 L2007.08 188.143 L2007.08 180.782 L2011.37 180.782 Z" fill="#000000" fill-rule="nonzero" fill-opacity="1" /><path clip-path="url(#clip880)" d="M2025.74 188.143 L2030 188.143 L2030 214.069 L2025.74 214.069 L2025.74 188.143 M2025.74 178.05 L2030 178.05 L2030 183.444 L2025.74 183.444 L2025.74 178.05 Z" fill="#000000" fill-rule="nonzero" fill-opacity="1" /><path clip-path="url(#clip880)" d="M2060.46 198.421 L2060.46 214.069 L2056.2 214.069 L2056.2 198.559 Q2056.2 194.879 2054.77 193.05 Q2053.33 191.222 2050.46 191.222 Q2047.01 191.222 2045.02 193.421 Q2043.03 195.62 2043.03 199.416 L2043.03 214.069 L2038.75 214.069 L2038.75 188.143 L2043.03 188.143 L2043.03 192.171 Q2044.56 189.833 2046.62 188.675 Q2048.7 187.518 2051.41 187.518 Q2055.88 187.518 2058.17 190.296 Q2060.46 193.05 2060.46 198.421 Z" fill="#000000" fill-rule="nonzero" fill-opacity="1" /><path clip-path="url(#clip880)" d="M2086.02 200.805 Q2086.02 196.175 2084.1 193.629 Q2082.2 191.083 2078.75 191.083 Q2075.32 191.083 2073.4 193.629 Q2071.5 196.175 2071.5 200.805 Q2071.5 205.411 2073.4 207.958 Q2075.32 210.504 2078.75 210.504 Q2082.2 210.504 2084.1 207.958 Q2086.02 205.411 2086.02 200.805 M2090.28 210.851 Q2090.28 217.471 2087.34 220.689 Q2084.4 223.93 2078.33 223.93 Q2076.09 223.93 2074.1 223.582 Q2072.11 223.258 2070.23 222.564 L2070.23 218.42 Q2072.11 219.439 2073.94 219.925 Q2075.76 220.411 2077.66 220.411 Q2081.85 220.411 2083.93 218.212 Q2086.02 216.036 2086.02 211.615 L2086.02 209.508 Q2084.7 211.8 2082.64 212.934 Q2080.58 214.069 2077.71 214.069 Q2072.94 214.069 2070.02 210.434 Q2067.11 206.8 2067.11 200.805 Q2067.11 194.786 2070.02 191.152 Q2072.94 187.518 2077.71 187.518 Q2080.58 187.518 2082.64 188.652 Q2084.7 189.786 2086.02 192.078 L2086.02 188.143 L2090.28 188.143 L2090.28 210.851 Z" fill="#000000" fill-rule="nonzero" fill-opacity="1" /><path clip-path="url(#clip880)" d="M2100.14 208.189 L2105.02 208.189 L2105.02 212.17 L2101.23 219.578 L2098.24 219.578 L2100.14 212.17 L2100.14 208.189 Z" fill="#000000" fill-rule="nonzero" fill-opacity="1" /><path clip-path="url(#clip880)" d="M2139.79 182.587 Q2136.18 182.587 2134.35 186.152 Q2132.55 189.694 2132.55 196.823 Q2132.55 203.93 2134.35 207.495 Q2136.18 211.036 2139.79 211.036 Q2143.43 211.036 2145.23 207.495 Q2147.06 203.93 2147.06 196.823 Q2147.06 189.694 2145.23 186.152 Q2143.43 182.587 2139.79 182.587 M2139.79 178.884 Q2145.6 178.884 2148.66 183.49 Q2151.74 188.073 2151.74 196.823 Q2151.74 205.55 2148.66 210.157 Q2145.6 214.74 2139.79 214.74 Q2133.98 214.74 2130.9 210.157 Q2127.85 205.55 2127.85 196.823 Q2127.85 188.073 2130.9 183.49 Q2133.98 178.884 2139.79 178.884 Z" fill="#000000" fill-rule="nonzero" fill-opacity="1" /><path clip-path="url(#clip880)" d="M2174.42 188.143 L2178.68 188.143 L2178.68 214.069 L2174.42 214.069 L2174.42 188.143 M2174.42 178.05 L2178.68 178.05 L2178.68 183.444 L2174.42 183.444 L2174.42 178.05 Z" fill="#000000" fill-rule="nonzero" fill-opacity="1" /><path clip-path="url(#clip880)" d="M2209.14 198.421 L2209.14 214.069 L2204.88 214.069 L2204.88 198.559 Q2204.88 194.879 2203.45 193.05 Q2202.01 191.222 2199.14 191.222 Q2195.69 191.222 2193.7 193.421 Q2191.71 195.62 2191.71 199.416 L2191.71 214.069 L2187.43 214.069 L2187.43 188.143 L2191.71 188.143 L2191.71 192.171 Q2193.24 189.833 2195.3 188.675 Q2197.38 187.518 2200.09 187.518 Q2204.56 187.518 2206.85 190.296 Q2209.14 193.05 2209.14 198.421 Z" fill="#000000" fill-rule="nonzero" fill-opacity="1" /><path clip-path="url(#clip880)" d="M2217.64 188.143 L2221.9 188.143 L2221.9 214.069 L2217.64 214.069 L2217.64 188.143 M2217.64 178.05 L2221.9 178.05 L2221.9 183.444 L2217.64 183.444 L2217.64 178.05 Z" fill="#000000" fill-rule="nonzero" fill-opacity="1" /><path clip-path="url(#clip880)" d="M2235.02 180.782 L2235.02 188.143 L2243.8 188.143 L2243.8 191.453 L2235.02 191.453 L2235.02 205.527 Q2235.02 208.698 2235.88 209.601 Q2236.76 210.504 2239.42 210.504 L2243.8 210.504 L2243.8 214.069 L2239.42 214.069 Q2234.49 214.069 2232.61 212.24 Q2230.74 210.388 2230.74 205.527 L2230.74 191.453 L2227.61 191.453 L2227.61 188.143 L2230.74 188.143 L2230.74 180.782 L2235.02 180.782 Z" fill="#000000" fill-rule="nonzero" fill-opacity="1" /></svg>
