<?xml version="1.0" encoding="utf-8"?>
<svg xmlns="http://www.w3.org/2000/svg" xmlns:xlink="http://www.w3.org/1999/xlink" width="600" height="400" viewBox="0 0 2400 1600">
<defs>
  <clipPath id="clip850">
    <rect x="0" y="0" width="2400" height="1600"/>
  </clipPath>
</defs>
<path clip-path="url(#clip850)" d="M0 1600 L2400 1600 L2400 0 L0 0  Z" fill="#ffffff" fill-rule="evenodd" fill-opacity="1"/>
<defs>
  <clipPath id="clip851">
    <rect x="175" y="47" width="2178" height="1377"/>
  </clipPath>
</defs>
<path clip-path="url(#clip850)" d="M175.445 1423.18 L2352.76 1423.18 L2352.76 47.2441 L175.445 47.2441  Z" fill="#ffffff" fill-rule="evenodd" fill-opacity="1"/>
<polyline clip-path="url(#clip851)" style="stroke:#000000; stroke-linecap:round; stroke-linejoin:round; stroke-width:2; stroke-opacity:0.1; fill:none" points="463.5,1423.18 463.5,47.2441 "/>
<polyline clip-path="url(#clip851)" style="stroke:#000000; stroke-linecap:round; stroke-linejoin:round; stroke-width:2; stroke-opacity:0.1; fill:none" points="867.844,1423.18 867.844,47.2441 "/>
<polyline clip-path="url(#clip851)" style="stroke:#000000; stroke-linecap:round; stroke-linejoin:round; stroke-width:2; stroke-opacity:0.1; fill:none" points="1272.19,1423.18 1272.19,47.2441 "/>
<polyline clip-path="url(#clip851)" style="stroke:#000000; stroke-linecap:round; stroke-linejoin:round; stroke-width:2; stroke-opacity:0.1; fill:none" points="1676.53,1423.18 1676.53,47.2441 "/>
<polyline clip-path="url(#clip851)" style="stroke:#000000; stroke-linecap:round; stroke-linejoin:round; stroke-width:2; stroke-opacity:0.1; fill:none" points="2080.88,1423.18 2080.88,47.2441 "/>
<polyline clip-path="url(#clip851)" style="stroke:#000000; stroke-linecap:round; stroke-linejoin:round; stroke-width:2; stroke-opacity:0.1; fill:none" points="175.445,1353.94 2352.76,1353.94 "/>
<polyline clip-path="url(#clip851)" style="stroke:#000000; stroke-linecap:round; stroke-linejoin:round; stroke-width:2; stroke-opacity:0.1; fill:none" points="175.445,1073.14 2352.76,1073.14 "/>
<polyline clip-path="url(#clip851)" style="stroke:#000000; stroke-linecap:round; stroke-linejoin:round; stroke-width:2; stroke-opacity:0.1; fill:none" points="175.445,792.342 2352.76,792.342 "/>
<polyline clip-path="url(#clip851)" style="stroke:#000000; stroke-linecap:round; stroke-linejoin:round; stroke-width:2; stroke-opacity:0.1; fill:none" points="175.445,511.542 2352.76,511.542 "/>
<polyline clip-path="url(#clip851)" style="stroke:#000000; stroke-linecap:round; stroke-linejoin:round; stroke-width:2; stroke-opacity:0.1; fill:none" points="175.445,230.743 2352.76,230.743 "/>
<polyline clip-path="url(#clip850)" style="stroke:#000000; stroke-linecap:round; stroke-linejoin:round; stroke-width:4; stroke-opacity:1; fill:none" points="175.445,1423.18 2352.76,1423.18 "/>
<polyline clip-path="url(#clip850)" style="stroke:#000000; stroke-linecap:round; stroke-linejoin:round; stroke-width:4; stroke-opacity:1; fill:none" points="463.5,1423.18 463.5,1404.28 "/>
<polyline clip-path="url(#clip850)" style="stroke:#000000; stroke-linecap:round; stroke-linejoin:round; stroke-width:4; stroke-opacity:1; fill:none" points="867.844,1423.18 867.844,1404.28 "/>
<polyline clip-path="url(#clip850)" style="stroke:#000000; stroke-linecap:round; stroke-linejoin:round; stroke-width:4; stroke-opacity:1; fill:none" points="1272.19,1423.18 1272.19,1404.28 "/>
<polyline clip-path="url(#clip850)" style="stroke:#000000; stroke-linecap:round; stroke-linejoin:round; stroke-width:4; stroke-opacity:1; fill:none" points="1676.53,1423.18 1676.53,1404.28 "/>
<polyline clip-path="url(#clip850)" style="stroke:#000000; stroke-linecap:round; stroke-linejoin:round; stroke-width:4; stroke-opacity:1; fill:none" points="2080.88,1423.18 2080.88,1404.28 "/>
<path clip-path="url(#clip850)" d="M402.482 1468.75 L432.157 1468.75 L432.157 1472.69 L402.482 1472.69 L402.482 1468.75 Z" fill="#000000" fill-rule="nonzero" fill-opacity="1" /><path clip-path="url(#clip850)" d="M443.06 1481.64 L450.699 1481.64 L450.699 1455.28 L442.389 1456.95 L442.389 1452.69 L450.653 1451.02 L455.329 1451.02 L455.329 1481.64 L462.967 1481.64 L462.967 1485.58 L443.06 1485.58 L443.06 1481.64 Z" fill="#000000" fill-rule="nonzero" fill-opacity="1" /><path clip-path="url(#clip850)" d="M482.412 1454.1 Q478.801 1454.1 476.972 1457.66 Q475.166 1461.2 475.166 1468.33 Q475.166 1475.44 476.972 1479.01 Q478.801 1482.55 482.412 1482.55 Q486.046 1482.55 487.851 1479.01 Q489.68 1475.44 489.68 1468.33 Q489.68 1461.2 487.851 1457.66 Q486.046 1454.1 482.412 1454.1 M482.412 1450.39 Q488.222 1450.39 491.277 1455 Q494.356 1459.58 494.356 1468.33 Q494.356 1477.06 491.277 1481.67 Q488.222 1486.25 482.412 1486.25 Q476.602 1486.25 473.523 1481.67 Q470.467 1477.06 470.467 1468.33 Q470.467 1459.58 473.523 1455 Q476.602 1450.39 482.412 1450.39 Z" fill="#000000" fill-rule="nonzero" fill-opacity="1" /><path clip-path="url(#clip850)" d="M512.574 1454.1 Q508.962 1454.1 507.134 1457.66 Q505.328 1461.2 505.328 1468.33 Q505.328 1475.44 507.134 1479.01 Q508.962 1482.55 512.574 1482.55 Q516.208 1482.55 518.013 1479.01 Q519.842 1475.44 519.842 1468.33 Q519.842 1461.2 518.013 1457.66 Q516.208 1454.1 512.574 1454.1 M512.574 1450.39 Q518.384 1450.39 521.439 1455 Q524.518 1459.58 524.518 1468.33 Q524.518 1477.06 521.439 1481.67 Q518.384 1486.25 512.574 1486.25 Q506.763 1486.25 503.685 1481.67 Q500.629 1477.06 500.629 1468.33 Q500.629 1459.58 503.685 1455 Q506.763 1450.39 512.574 1450.39 Z" fill="#000000" fill-rule="nonzero" fill-opacity="1" /><path clip-path="url(#clip850)" d="M821.906 1468.75 L851.582 1468.75 L851.582 1472.69 L821.906 1472.69 L821.906 1468.75 Z" fill="#000000" fill-rule="nonzero" fill-opacity="1" /><path clip-path="url(#clip850)" d="M861.721 1451.02 L880.077 1451.02 L880.077 1454.96 L866.003 1454.96 L866.003 1463.43 Q867.022 1463.08 868.04 1462.92 Q869.059 1462.73 870.077 1462.73 Q875.864 1462.73 879.244 1465.9 Q882.624 1469.08 882.624 1474.49 Q882.624 1480.07 879.151 1483.17 Q875.679 1486.25 869.36 1486.25 Q867.184 1486.25 864.915 1485.88 Q862.67 1485.51 860.263 1484.77 L860.263 1480.07 Q862.346 1481.2 864.568 1481.76 Q866.79 1482.32 869.267 1482.32 Q873.272 1482.32 875.61 1480.21 Q877.948 1478.1 877.948 1474.49 Q877.948 1470.88 875.61 1468.77 Q873.272 1466.67 869.267 1466.67 Q867.392 1466.67 865.517 1467.08 Q863.665 1467.5 861.721 1468.38 L861.721 1451.02 Z" fill="#000000" fill-rule="nonzero" fill-opacity="1" /><path clip-path="url(#clip850)" d="M901.836 1454.1 Q898.225 1454.1 896.397 1457.66 Q894.591 1461.2 894.591 1468.33 Q894.591 1475.44 896.397 1479.01 Q898.225 1482.55 901.836 1482.55 Q905.471 1482.55 907.276 1479.01 Q909.105 1475.44 909.105 1468.33 Q909.105 1461.2 907.276 1457.66 Q905.471 1454.1 901.836 1454.1 M901.836 1450.39 Q907.647 1450.39 910.702 1455 Q913.781 1459.58 913.781 1468.33 Q913.781 1477.06 910.702 1481.67 Q907.647 1486.25 901.836 1486.25 Q896.026 1486.25 892.948 1481.67 Q889.892 1477.06 889.892 1468.33 Q889.892 1459.58 892.948 1455 Q896.026 1450.39 901.836 1450.39 Z" fill="#000000" fill-rule="nonzero" fill-opacity="1" /><path clip-path="url(#clip850)" d="M1272.19 1454.1 Q1268.58 1454.1 1266.75 1457.66 Q1264.94 1461.2 1264.94 1468.33 Q1264.94 1475.44 1266.75 1479.01 Q1268.58 1482.55 1272.19 1482.55 Q1275.82 1482.55 1277.63 1479.01 Q1279.46 1475.44 1279.46 1468.33 Q1279.46 1461.2 1277.63 1457.66 Q1275.82 1454.1 1272.19 1454.1 M1272.19 1450.39 Q1278 1450.39 1281.05 1455 Q1284.13 1459.58 1284.13 1468.33 Q1284.13 1477.06 1281.05 1481.67 Q1278 1486.25 1272.19 1486.25 Q1266.38 1486.25 1263.3 1481.67 Q1260.24 1477.06 1260.24 1468.33 Q1260.24 1459.58 1263.3 1455 Q1266.38 1450.39 1272.19 1450.39 Z" fill="#000000" fill-rule="nonzero" fill-opacity="1" /><path clip-path="url(#clip850)" d="M1651.23 1451.02 L1669.59 1451.02 L1669.59 1454.96 L1655.51 1454.96 L1655.51 1463.43 Q1656.53 1463.08 1657.55 1462.92 Q1658.57 1462.73 1659.59 1462.73 Q1665.37 1462.73 1668.75 1465.9 Q1672.13 1469.08 1672.13 1474.49 Q1672.13 1480.07 1668.66 1483.17 Q1665.19 1486.25 1658.87 1486.25 Q1656.69 1486.25 1654.42 1485.88 Q1652.18 1485.51 1649.77 1484.77 L1649.77 1480.07 Q1651.86 1481.2 1654.08 1481.76 Q1656.3 1482.32 1658.78 1482.32 Q1662.78 1482.32 1665.12 1480.21 Q1667.46 1478.1 1667.46 1474.49 Q1667.46 1470.88 1665.12 1468.77 Q1662.78 1466.67 1658.78 1466.67 Q1656.9 1466.67 1655.03 1467.08 Q1653.17 1467.5 1651.23 1468.38 L1651.23 1451.02 Z" fill="#000000" fill-rule="nonzero" fill-opacity="1" /><path clip-path="url(#clip850)" d="M1691.35 1454.1 Q1687.73 1454.1 1685.91 1457.66 Q1684.1 1461.2 1684.1 1468.33 Q1684.1 1475.44 1685.91 1479.01 Q1687.73 1482.55 1691.35 1482.55 Q1694.98 1482.55 1696.79 1479.01 Q1698.61 1475.44 1698.61 1468.33 Q1698.61 1461.2 1696.79 1457.66 Q1694.98 1454.1 1691.35 1454.1 M1691.35 1450.39 Q1697.16 1450.39 1700.21 1455 Q1703.29 1459.58 1703.29 1468.33 Q1703.29 1477.06 1700.21 1481.67 Q1697.16 1486.25 1691.35 1486.25 Q1685.54 1486.25 1682.46 1481.67 Q1679.4 1477.06 1679.4 1468.33 Q1679.4 1459.58 1682.46 1455 Q1685.54 1450.39 1691.35 1450.39 Z" fill="#000000" fill-rule="nonzero" fill-opacity="1" /><path clip-path="url(#clip850)" d="M2040.48 1481.64 L2048.12 1481.64 L2048.12 1455.28 L2039.81 1456.95 L2039.81 1452.69 L2048.07 1451.02 L2052.75 1451.02 L2052.75 1481.64 L2060.39 1481.64 L2060.39 1485.58 L2040.48 1485.58 L2040.48 1481.64 Z" fill="#000000" fill-rule="nonzero" fill-opacity="1" /><path clip-path="url(#clip850)" d="M2079.83 1454.1 Q2076.22 1454.1 2074.39 1457.66 Q2072.59 1461.2 2072.59 1468.33 Q2072.59 1475.44 2074.39 1479.01 Q2076.22 1482.55 2079.83 1482.55 Q2083.47 1482.55 2085.27 1479.01 Q2087.1 1475.44 2087.1 1468.33 Q2087.1 1461.2 2085.27 1457.66 Q2083.47 1454.1 2079.83 1454.1 M2079.83 1450.39 Q2085.64 1450.39 2088.7 1455 Q2091.78 1459.58 2091.78 1468.33 Q2091.78 1477.06 2088.7 1481.67 Q2085.64 1486.25 2079.83 1486.25 Q2074.02 1486.25 2070.94 1481.67 Q2067.89 1477.06 2067.89 1468.33 Q2067.89 1459.58 2070.94 1455 Q2074.02 1450.39 2079.83 1450.39 Z" fill="#000000" fill-rule="nonzero" fill-opacity="1" /><path clip-path="url(#clip850)" d="M2110 1454.1 Q2106.38 1454.1 2104.56 1457.66 Q2102.75 1461.2 2102.75 1468.33 Q2102.75 1475.44 2104.56 1479.01 Q2106.38 1482.55 2110 1482.55 Q2113.63 1482.55 2115.44 1479.01 Q2117.26 1475.44 2117.26 1468.33 Q2117.26 1461.2 2115.44 1457.66 Q2113.63 1454.1 2110 1454.1 M2110 1450.39 Q2115.81 1450.39 2118.86 1455 Q2121.94 1459.58 2121.94 1468.33 Q2121.94 1477.06 2118.86 1481.67 Q2115.81 1486.25 2110 1486.25 Q2104.19 1486.25 2101.11 1481.67 Q2098.05 1477.06 2098.05 1468.33 Q2098.05 1459.58 2101.11 1455 Q2104.19 1450.39 2110 1450.39 Z" fill="#000000" fill-rule="nonzero" fill-opacity="1" /><path clip-path="url(#clip850)" d="M1181.79 1528.8 Q1181.79 1530.61 1180.66 1531.64 Q1179.53 1532.64 1178.24 1532.64 Q1177.02 1532.64 1176.38 1531.93 Q1175.73 1531.22 1175.73 1530.32 Q1175.73 1529.09 1176.63 1528.03 Q1177.53 1526.97 1178.89 1526.74 Q1177.57 1525.91 1175.6 1525.91 Q1174.31 1525.91 1173.19 1526.58 Q1172.09 1527.26 1171.42 1528.13 Q1170.77 1529 1170.19 1530.25 Q1169.64 1531.48 1169.42 1532.22 Q1169.23 1532.93 1169.06 1533.7 L1166.81 1542.72 Q1165.72 1547 1165.72 1548.51 Q1165.72 1550.38 1166.62 1551.64 Q1167.52 1552.86 1169.32 1552.86 Q1170.03 1552.86 1170.84 1552.67 Q1171.64 1552.44 1172.67 1551.86 Q1173.73 1551.25 1174.67 1550.35 Q1175.63 1549.42 1176.57 1547.84 Q1177.5 1546.26 1178.11 1544.23 Q1178.31 1543.52 1178.95 1543.52 Q1179.76 1543.52 1179.76 1544.17 Q1179.76 1544.71 1179.31 1545.87 Q1178.89 1547 1177.95 1548.48 Q1177.05 1549.93 1175.86 1551.25 Q1174.67 1552.54 1172.9 1553.44 Q1171.13 1554.34 1169.19 1554.34 Q1166.42 1554.34 1164.59 1552.86 Q1162.75 1551.38 1162.08 1549.32 Q1161.91 1549.61 1161.69 1550 Q1161.46 1550.38 1160.79 1551.25 Q1160.14 1552.09 1159.4 1552.73 Q1158.66 1553.34 1157.5 1553.83 Q1156.38 1554.34 1155.15 1554.34 Q1153.61 1554.34 1152.22 1553.89 Q1150.87 1553.44 1149.9 1552.41 Q1148.94 1551.38 1148.94 1549.96 Q1148.94 1548.38 1150 1547.29 Q1151.09 1546.16 1152.58 1546.16 Q1153.51 1546.16 1154.25 1546.71 Q1155.02 1547.26 1155.02 1548.45 Q1155.02 1549.77 1154.12 1550.77 Q1153.22 1551.77 1151.93 1552.02 Q1153.25 1552.86 1155.22 1552.86 Q1157.34 1552.86 1159.02 1550.99 Q1160.69 1549.13 1161.5 1546 Q1163.49 1538.5 1164.27 1535.15 Q1165.04 1531.77 1165.04 1530.32 Q1165.04 1528.96 1164.68 1528.03 Q1164.33 1527.1 1163.72 1526.68 Q1163.14 1526.23 1162.59 1526.07 Q1162.08 1525.91 1161.5 1525.91 Q1160.53 1525.91 1159.43 1526.29 Q1158.37 1526.68 1157.08 1527.58 Q1155.83 1528.45 1154.64 1530.25 Q1153.44 1532.06 1152.64 1534.54 Q1152.48 1535.28 1151.77 1535.28 Q1151 1535.24 1151 1534.6 Q1151 1534.05 1151.42 1532.93 Q1151.87 1531.77 1152.77 1530.32 Q1153.7 1528.87 1154.89 1527.58 Q1156.12 1526.26 1157.89 1525.36 Q1159.69 1524.46 1161.62 1524.46 Q1162.49 1524.46 1163.33 1524.65 Q1164.2 1524.81 1165.23 1525.29 Q1166.29 1525.78 1167.23 1526.84 Q1168.16 1527.9 1168.74 1529.45 Q1169.13 1528.71 1169.64 1528 Q1170.19 1527.29 1171.03 1526.42 Q1171.9 1525.52 1173.09 1525 Q1174.31 1524.46 1175.67 1524.46 Q1176.99 1524.46 1178.28 1524.81 Q1179.56 1525.13 1180.66 1526.19 Q1181.79 1527.23 1181.79 1528.8 Z" fill="#000000" fill-rule="nonzero" fill-opacity="1" /><path clip-path="url(#clip850)" d="M1227.22 1504.14 Q1222.96 1511.46 1220.89 1518.62 Q1218.82 1525.78 1218.82 1533.14 Q1218.82 1540.49 1220.89 1547.71 Q1222.99 1554.91 1227.22 1562.2 L1222.13 1562.2 Q1217.35 1554.72 1214.97 1547.49 Q1212.61 1540.27 1212.61 1533.14 Q1212.61 1526.04 1214.97 1518.85 Q1217.32 1511.65 1222.13 1504.14 L1227.22 1504.14 Z" fill="#000000" fill-rule="nonzero" fill-opacity="1" /><path clip-path="url(#clip850)" d="M1266.34 1524.8 Q1268.53 1520.85 1271.59 1518.97 Q1274.64 1517.09 1278.78 1517.09 Q1284.35 1517.09 1287.38 1521.01 Q1290.4 1524.89 1290.4 1532.09 L1290.4 1553.6 L1284.51 1553.6 L1284.51 1532.28 Q1284.51 1527.15 1282.7 1524.67 Q1280.88 1522.19 1277.16 1522.19 Q1272.61 1522.19 1269.97 1525.21 Q1267.32 1528.23 1267.32 1533.45 L1267.32 1553.6 L1261.44 1553.6 L1261.44 1532.28 Q1261.44 1527.12 1259.62 1524.67 Q1257.81 1522.19 1254.02 1522.19 Q1249.53 1522.19 1246.89 1525.24 Q1244.25 1528.27 1244.25 1533.45 L1244.25 1553.6 L1238.36 1553.6 L1238.36 1517.95 L1244.25 1517.95 L1244.25 1523.49 Q1246.25 1520.21 1249.05 1518.65 Q1251.86 1517.09 1255.71 1517.09 Q1259.59 1517.09 1262.3 1519.07 Q1265.03 1521.04 1266.34 1524.8 Z" fill="#000000" fill-rule="nonzero" fill-opacity="1" /><path clip-path="url(#clip850)" d="M1329.84 1524.8 Q1332.03 1520.85 1335.09 1518.97 Q1338.14 1517.09 1342.28 1517.09 Q1347.85 1517.09 1350.87 1521.01 Q1353.9 1524.89 1353.9 1532.09 L1353.9 1553.6 L1348.01 1553.6 L1348.01 1532.28 Q1348.01 1527.15 1346.2 1524.67 Q1344.38 1522.19 1340.66 1522.19 Q1336.11 1522.19 1333.46 1525.21 Q1330.82 1528.23 1330.82 1533.45 L1330.82 1553.6 L1324.93 1553.6 L1324.93 1532.28 Q1324.93 1527.12 1323.12 1524.67 Q1321.31 1522.19 1317.52 1522.19 Q1313.03 1522.19 1310.39 1525.24 Q1307.75 1528.27 1307.75 1533.45 L1307.75 1553.6 L1301.86 1553.6 L1301.86 1517.95 L1307.75 1517.95 L1307.75 1523.49 Q1309.75 1520.21 1312.55 1518.65 Q1315.35 1517.09 1319.2 1517.09 Q1323.09 1517.09 1325.79 1519.07 Q1328.53 1521.04 1329.84 1524.8 Z" fill="#000000" fill-rule="nonzero" fill-opacity="1" /><path clip-path="url(#clip850)" d="M1364.66 1504.14 L1369.75 1504.14 Q1374.52 1511.65 1376.88 1518.85 Q1379.27 1526.04 1379.27 1533.14 Q1379.27 1540.27 1376.88 1547.49 Q1374.52 1554.72 1369.75 1562.2 L1364.66 1562.2 Q1368.89 1554.91 1370.96 1547.71 Q1373.06 1540.49 1373.06 1533.14 Q1373.06 1525.78 1370.96 1518.62 Q1368.89 1511.46 1364.66 1504.14 Z" fill="#000000" fill-rule="nonzero" fill-opacity="1" /><polyline clip-path="url(#clip850)" style="stroke:#000000; stroke-linecap:round; stroke-linejoin:round; stroke-width:4; stroke-opacity:1; fill:none" points="175.445,1423.18 175.445,47.2441 "/>
<polyline clip-path="url(#clip850)" style="stroke:#000000; stroke-linecap:round; stroke-linejoin:round; stroke-width:4; stroke-opacity:1; fill:none" points="175.445,1353.94 194.343,1353.94 "/>
<polyline clip-path="url(#clip850)" style="stroke:#000000; stroke-linecap:round; stroke-linejoin:round; stroke-width:4; stroke-opacity:1; fill:none" points="175.445,1073.14 194.343,1073.14 "/>
<polyline clip-path="url(#clip850)" style="stroke:#000000; stroke-linecap:round; stroke-linejoin:round; stroke-width:4; stroke-opacity:1; fill:none" points="175.445,792.342 194.343,792.342 "/>
<polyline clip-path="url(#clip850)" style="stroke:#000000; stroke-linecap:round; stroke-linejoin:round; stroke-width:4; stroke-opacity:1; fill:none" points="175.445,511.542 194.343,511.542 "/>
<polyline clip-path="url(#clip850)" style="stroke:#000000; stroke-linecap:round; stroke-linejoin:round; stroke-width:4; stroke-opacity:1; fill:none" points="175.445,230.743 194.343,230.743 "/>
<path clip-path="url(#clip850)" d="M127.501 1339.74 Q123.89 1339.74 122.061 1343.3 Q120.255 1346.85 120.255 1353.98 Q120.255 1361.08 122.061 1364.65 Q123.89 1368.19 127.501 1368.19 Q131.135 1368.19 132.941 1364.65 Q134.769 1361.08 134.769 1353.98 Q134.769 1346.85 132.941 1343.3 Q131.135 1339.74 127.501 1339.74 M127.501 1336.04 Q133.311 1336.04 136.367 1340.64 Q139.445 1345.23 139.445 1353.98 Q139.445 1362.7 136.367 1367.31 Q133.311 1371.89 127.501 1371.89 Q121.691 1371.89 118.612 1367.31 Q115.556 1362.7 115.556 1353.98 Q115.556 1345.23 118.612 1340.64 Q121.691 1336.04 127.501 1336.04 Z" fill="#000000" fill-rule="nonzero" fill-opacity="1" /><path clip-path="url(#clip850)" d="M119.538 1086.49 L127.177 1086.49 L127.177 1060.12 L118.867 1061.79 L118.867 1057.53 L127.13 1055.86 L131.806 1055.86 L131.806 1086.49 L139.445 1086.49 L139.445 1090.42 L119.538 1090.42 L119.538 1086.49 Z" fill="#000000" fill-rule="nonzero" fill-opacity="1" /><path clip-path="url(#clip850)" d="M123.126 805.687 L139.445 805.687 L139.445 809.622 L117.501 809.622 L117.501 805.687 Q120.163 802.932 124.746 798.303 Q129.353 793.65 130.533 792.307 Q132.779 789.784 133.658 788.048 Q134.561 786.289 134.561 784.599 Q134.561 781.844 132.617 780.108 Q130.695 778.372 127.593 778.372 Q125.394 778.372 122.941 779.136 Q120.51 779.9 117.732 781.451 L117.732 776.729 Q120.556 775.594 123.01 775.016 Q125.464 774.437 127.501 774.437 Q132.871 774.437 136.066 777.122 Q139.26 779.807 139.26 784.298 Q139.26 786.428 138.45 788.349 Q137.663 790.247 135.556 792.84 Q134.978 793.511 131.876 796.729 Q128.774 799.923 123.126 805.687 Z" fill="#000000" fill-rule="nonzero" fill-opacity="1" /><path clip-path="url(#clip850)" d="M132.316 510.188 Q135.672 510.906 137.547 513.174 Q139.445 515.443 139.445 518.776 Q139.445 523.892 135.927 526.693 Q132.408 529.494 125.927 529.494 Q123.751 529.494 121.436 529.054 Q119.144 528.637 116.691 527.781 L116.691 523.267 Q118.635 524.401 120.95 524.98 Q123.265 525.559 125.788 525.559 Q130.186 525.559 132.478 523.822 Q134.792 522.086 134.792 518.776 Q134.792 515.721 132.64 514.008 Q130.51 512.272 126.691 512.272 L122.663 512.272 L122.663 508.429 L126.876 508.429 Q130.325 508.429 132.154 507.063 Q133.982 505.674 133.982 503.082 Q133.982 500.42 132.084 499.008 Q130.209 497.573 126.691 497.573 Q124.769 497.573 122.57 497.989 Q120.371 498.406 117.732 499.286 L117.732 495.119 Q120.394 494.378 122.709 494.008 Q125.047 493.637 127.107 493.637 Q132.431 493.637 135.533 496.068 Q138.635 498.475 138.635 502.596 Q138.635 505.466 136.992 507.457 Q135.348 509.424 132.316 510.188 Z" fill="#000000" fill-rule="nonzero" fill-opacity="1" /><path clip-path="url(#clip850)" d="M129.862 217.537 L118.056 235.986 L129.862 235.986 L129.862 217.537 M128.635 213.463 L134.515 213.463 L134.515 235.986 L139.445 235.986 L139.445 239.875 L134.515 239.875 L134.515 248.023 L129.862 248.023 L129.862 239.875 L114.26 239.875 L114.26 235.361 L128.635 213.463 Z" fill="#000000" fill-rule="nonzero" fill-opacity="1" /><path clip-path="url(#clip850)" d="M35.1993 927.138 Q31.2526 924.942 29.3747 921.886 Q27.4968 918.831 27.4968 914.693 Q27.4968 909.123 31.4117 906.099 Q35.2948 903.076 42.4881 903.076 L64.0042 903.076 L64.0042 908.964 L42.679 908.964 Q37.5546 908.964 35.072 910.778 Q32.5894 912.592 32.5894 916.316 Q32.5894 920.868 35.6131 923.51 Q38.6368 926.151 43.8567 926.151 L64.0042 926.151 L64.0042 932.04 L42.679 932.04 Q37.5228 932.04 35.072 933.854 Q32.5894 935.668 32.5894 939.456 Q32.5894 943.943 35.6449 946.585 Q38.6686 949.227 43.8567 949.227 L64.0042 949.227 L64.0042 955.115 L28.3562 955.115 L28.3562 949.227 L33.8944 949.227 Q30.616 947.222 29.0564 944.421 Q27.4968 941.62 27.4968 937.769 Q27.4968 933.886 29.4702 931.18 Q31.4436 928.443 35.1993 927.138 Z" fill="#000000" fill-rule="nonzero" fill-opacity="1" /><path clip-path="url(#clip850)" d="M28.3562 891.395 L28.3562 885.538 L64.0042 885.538 L64.0042 891.395 L28.3562 891.395 M14.479 891.395 L14.479 885.538 L21.895 885.538 L21.895 891.395 L14.479 891.395 Z" fill="#000000" fill-rule="nonzero" fill-opacity="1" /><path clip-path="url(#clip850)" d="M33.7671 849.827 L14.479 849.827 L14.479 843.97 L64.0042 843.97 L64.0042 849.827 L58.657 849.827 Q61.8398 851.673 63.3994 854.505 Q64.9272 857.306 64.9272 861.253 Q64.9272 867.714 59.771 871.788 Q54.6147 875.83 46.212 875.83 Q37.8093 875.83 32.6531 871.788 Q27.4968 867.714 27.4968 861.253 Q27.4968 857.306 29.0564 854.505 Q30.5842 851.673 33.7671 849.827 M46.212 869.783 Q52.6732 869.783 56.3653 867.141 Q60.0256 864.468 60.0256 859.821 Q60.0256 855.174 56.3653 852.5 Q52.6732 849.827 46.212 849.827 Q39.7508 849.827 36.0905 852.5 Q32.3984 855.174 32.3984 859.821 Q32.3984 864.468 36.0905 867.141 Q39.7508 869.783 46.212 869.783 Z" fill="#000000" fill-rule="nonzero" fill-opacity="1" /><path clip-path="url(#clip850)" d="M33.7671 808.449 L14.479 808.449 L14.479 802.593 L64.0042 802.593 L64.0042 808.449 L58.657 808.449 Q61.8398 810.295 63.3994 813.128 Q64.9272 815.929 64.9272 819.876 Q64.9272 826.337 59.771 830.411 Q54.6147 834.453 46.212 834.453 Q37.8093 834.453 32.6531 830.411 Q27.4968 826.337 27.4968 819.876 Q27.4968 815.929 29.0564 813.128 Q30.5842 810.295 33.7671 808.449 M46.212 828.406 Q52.6732 828.406 56.3653 825.764 Q60.0256 823.091 60.0256 818.444 Q60.0256 813.797 56.3653 811.123 Q52.6732 808.449 46.212 808.449 Q39.7508 808.449 36.0905 811.123 Q32.3984 813.797 32.3984 818.444 Q32.3984 823.091 36.0905 825.764 Q39.7508 828.406 46.212 828.406 Z" fill="#000000" fill-rule="nonzero" fill-opacity="1" /><path clip-path="url(#clip850)" d="M14.479 790.53 L14.479 784.674 L64.0042 784.674 L64.0042 790.53 L14.479 790.53 Z" fill="#000000" fill-rule="nonzero" fill-opacity="1" /><path clip-path="url(#clip850)" d="M44.7161 741.928 L47.5806 741.928 L47.5806 768.855 Q53.6281 768.473 56.8109 765.226 Q59.9619 761.948 59.9619 756.123 Q59.9619 752.749 59.1344 749.598 Q58.3069 746.416 56.6518 743.296 L62.1899 743.296 Q63.5267 746.447 64.227 749.758 Q64.9272 753.068 64.9272 756.473 Q64.9272 765.003 59.9619 770.001 Q54.9967 774.966 46.5303 774.966 Q37.7774 774.966 32.6531 770.255 Q27.4968 765.513 27.4968 757.492 Q27.4968 750.299 32.1438 746.129 Q36.7589 741.928 44.7161 741.928 M42.9973 747.784 Q38.1912 747.848 35.3266 750.49 Q32.4621 753.1 32.4621 757.428 Q32.4621 762.33 35.2312 765.29 Q38.0002 768.218 43.0292 768.664 L42.9973 747.784 Z" fill="#000000" fill-rule="nonzero" fill-opacity="1" /><path clip-path="url(#clip850)" d="M58.657 705.93 L77.5631 705.93 L77.5631 711.818 L28.3562 711.818 L28.3562 705.93 L33.7671 705.93 Q30.5842 704.084 29.0564 701.283 Q27.4968 698.45 27.4968 694.535 Q27.4968 688.042 32.6531 684 Q37.8093 679.926 46.212 679.926 Q54.6147 679.926 59.771 684 Q64.9272 688.042 64.9272 694.535 Q64.9272 698.45 63.3994 701.283 Q61.8398 704.084 58.657 705.93 M46.212 686.005 Q39.7508 686.005 36.0905 688.679 Q32.3984 691.32 32.3984 695.967 Q32.3984 700.614 36.0905 703.288 Q39.7508 705.93 46.212 705.93 Q52.6732 705.93 56.3653 703.288 Q60.0256 700.614 60.0256 695.967 Q60.0256 691.32 56.3653 688.679 Q52.6732 686.005 46.212 686.005 Z" fill="#000000" fill-rule="nonzero" fill-opacity="1" /><path clip-path="url(#clip850)" d="M33.8307 649.561 Q33.2578 650.548 33.0032 651.726 Q32.7167 652.872 32.7167 654.272 Q32.7167 659.237 35.9632 661.911 Q39.1779 664.553 45.2253 664.553 L64.0042 664.553 L64.0042 670.441 L28.3562 670.441 L28.3562 664.553 L33.8944 664.553 Q30.6479 662.707 29.0883 659.747 Q27.4968 656.786 27.4968 652.553 Q27.4968 651.949 27.5923 651.216 Q27.656 650.484 27.8151 649.593 L33.8307 649.561 Z" fill="#000000" fill-rule="nonzero" fill-opacity="1" /><path clip-path="url(#clip850)" d="M32.4621 631.037 Q32.4621 635.748 36.1542 638.485 Q39.8145 641.222 46.212 641.222 Q52.6095 641.222 56.3017 638.517 Q59.9619 635.78 59.9619 631.037 Q59.9619 626.358 56.2698 623.621 Q52.5777 620.884 46.212 620.884 Q39.8781 620.884 36.186 623.621 Q32.4621 626.358 32.4621 631.037 M27.4968 631.037 Q27.4968 623.398 32.4621 619.038 Q37.4273 614.677 46.212 614.677 Q54.9649 614.677 59.9619 619.038 Q64.9272 623.398 64.9272 631.037 Q64.9272 638.708 59.9619 643.068 Q54.9649 647.397 46.212 647.397 Q37.4273 647.397 32.4621 643.068 Q27.4968 638.708 27.4968 631.037 Z" fill="#000000" fill-rule="nonzero" fill-opacity="1" /><path clip-path="url(#clip850)" d="M14.479 586.923 L19.3487 586.923 L19.3487 592.525 Q19.3487 595.676 20.6219 596.917 Q21.895 598.126 25.2052 598.126 L28.3562 598.126 L28.3562 588.482 L32.9077 588.482 L32.9077 598.126 L64.0042 598.126 L64.0042 604.015 L32.9077 604.015 L32.9077 609.617 L28.3562 609.617 L28.3562 604.015 L25.8736 604.015 Q19.9216 604.015 17.2162 601.246 Q14.479 598.477 14.479 592.461 L14.479 586.923 Z" fill="#000000" fill-rule="nonzero" fill-opacity="1" /><path clip-path="url(#clip850)" d="M28.3562 582.021 L28.3562 576.165 L64.0042 576.165 L64.0042 582.021 L28.3562 582.021 M14.479 582.021 L14.479 576.165 L21.895 576.165 L21.895 582.021 L14.479 582.021 Z" fill="#000000" fill-rule="nonzero" fill-opacity="1" /><path clip-path="url(#clip850)" d="M14.479 563.911 L14.479 558.054 L64.0042 558.054 L64.0042 563.911 L14.479 563.911 Z" fill="#000000" fill-rule="nonzero" fill-opacity="1" /><path clip-path="url(#clip850)" d="M44.7161 515.309 L47.5806 515.309 L47.5806 542.236 Q53.6281 541.854 56.8109 538.607 Q59.9619 535.329 59.9619 529.504 Q59.9619 526.13 59.1344 522.979 Q58.3069 519.796 56.6518 516.677 L62.1899 516.677 Q63.5267 519.828 64.227 523.138 Q64.9272 526.449 64.9272 529.854 Q64.9272 538.384 59.9619 543.381 Q54.9967 548.347 46.5303 548.347 Q37.7774 548.347 32.6531 543.636 Q27.4968 538.894 27.4968 530.873 Q27.4968 523.68 32.1438 519.51 Q36.7589 515.309 44.7161 515.309 M42.9973 521.165 Q38.1912 521.229 35.3266 523.871 Q32.4621 526.48 32.4621 530.809 Q32.4621 535.711 35.2312 538.671 Q38.0002 541.599 43.0292 542.045 L42.9973 521.165 Z" fill="#000000" fill-rule="nonzero" fill-opacity="1" /><polyline clip-path="url(#clip851)" style="stroke:#009af9; stroke-linecap:round; stroke-linejoin:round; stroke-width:4; stroke-opacity:1; fill:none" points="237.067,1379.75 253.241,1375.76 269.415,1359.4 285.588,1359.06 301.762,1351.38 317.936,1355.89 334.11,1348.34 350.283,1350.28 366.457,1340.55 382.631,1344.49 398.805,1332.32 414.978,1340.46 431.152,1325.08 447.326,1336.25 463.5,1319.59 479.674,1331.62 495.847,1314.37 512.021,1329.5 528.195,1304.72 544.369,1339.18 560.542,1129.72 576.716,1006.63 592.89,803.059 609.064,726.131 625.237,760.324 641.411,734.845 657.585,748.994 673.759,738.892 689.932,742.573 706.106,735.729 722.28,744.494 738.454,729.579 754.627,741.859 770.801,730.722 786.975,737.467 803.149,731.882 819.322,732.791 835.496,726.314 851.67,738.619 867.844,694.959 884.017,221.358 900.191,151.814 916.365,170.44 932.539,163.426 948.712,174.189 964.886,158.049 981.06,174.975 997.234,152.352 1013.41,167.492 1029.58,157.667 1045.75,165.064 1061.93,157.907 1078.1,173.649 1094.28,162.505 1110.45,158.2 1126.62,160.477 1142.8,167.483 1158.97,156.668 1175.14,168.441 1191.32,161.901 1207.49,86.1857 1223.67,538.589 1239.84,817.319 1256.01,723.266 1272.19,743.781 1288.36,737.326 1304.53,788.915 1320.71,745.257 1336.88,694.87 1353.06,690.556 1369.23,796.008 1385.4,1238.99 1401.58,1307.98 1417.75,1275.25 1433.92,1289.71 1450.1,1272.86 1466.27,1298.24 1482.45,1272.02 1498.62,1299.21 1514.79,1276.92 1530.97,1302.25 1547.14,1263.87 1563.31,1314.41 1579.49,1258.42 1595.66,1337.28 1611.84,1086.92 1628.01,686.861 1644.18,749.784 1660.36,718.441 1676.53,740.273 1692.71,727.431 1708.88,742.732 1725.05,724.834 1741.23,742.882 1757.4,732.029 1773.57,743.26 1789.75,733.274 1805.92,745.24 1822.1,739.204 1838.27,742.428 1854.44,747.239 1870.62,741.06 1886.79,753.177 1902.96,741.421 1919.14,760.377 1935.31,735.87 1951.49,802.93 1967.66,1015.58 1983.83,1131.7 2000.01,1347.16 2016.18,1307.85 2032.35,1337.5 2048.53,1318.44 2064.7,1339.36 2080.88,1324.94 2097.05,1344 2113.22,1331.03 2129.4,1349.37 2145.57,1337.67 2161.74,1353.23 2177.92,1344.37 2194.09,1360.05 2210.27,1360.93 2226.44,1375.51 2242.61,1369.94 2258.79,1369.22 2274.96,1365.08 2291.13,1384.24 "/>
<polyline clip-path="url(#clip851)" style="stroke:#e26f46; stroke-linecap:round; stroke-linejoin:round; stroke-width:4; stroke-opacity:1; fill:none" points="237.067,1353.94 253.241,1353.94 269.415,1353.94 285.588,1353.94 301.762,1353.94 317.936,1353.94 334.11,1353.94 350.283,1353.94 366.457,1353.94 382.631,1353.94 398.805,1353.94 414.978,1353.94 431.152,1353.94 447.326,1353.94 463.5,1353.94 479.674,1353.94 495.847,1353.94 512.021,1353.94 528.195,1353.94 544.369,1353.94 560.542,1213.54 576.716,1073.14 592.89,792.342 609.064,792.342 625.237,792.342 641.411,792.342 657.585,792.342 673.759,792.342 689.932,792.342 706.106,792.342 722.28,792.342 738.454,792.342 754.627,792.342 770.801,792.342 786.975,792.342 803.149,792.342 819.322,792.342 835.496,792.342 851.67,792.342 867.844,792.342 884.017,230.743 900.191,230.743 916.365,230.743 932.539,230.743 948.712,230.743 964.886,230.743 981.06,230.743 997.234,230.743 1013.41,230.743 1029.58,230.743 1045.75,230.743 1061.93,230.743 1078.1,230.743 1094.28,230.743 1110.45,230.743 1126.62,230.743 1142.8,230.743 1158.97,230.743 1175.14,230.743 1191.32,230.743 1207.49,230.743 1223.67,511.542 1239.84,792.342 1256.01,792.342 1272.19,792.342 1288.36,792.342 1304.53,792.342 1320.71,792.342 1336.88,792.342 1353.06,792.342 1369.23,792.342 1385.4,1353.94 1401.58,1353.94 1417.75,1353.94 1433.92,1353.94 1450.1,1353.94 1466.27,1353.94 1482.45,1353.94 1498.62,1353.94 1514.79,1353.94 1530.97,1353.94 1547.14,1353.94 1563.31,1353.94 1579.49,1353.94 1595.66,1353.94 1611.84,1073.14 1628.01,792.342 1644.18,792.342 1660.36,792.342 1676.53,792.342 1692.71,792.342 1708.88,792.342 1725.05,792.342 1741.23,792.342 1757.4,792.342 1773.57,792.342 1789.75,792.342 1805.92,792.342 1822.1,792.342 1838.27,792.342 1854.44,792.342 1870.62,792.342 1886.79,792.342 1902.96,792.342 1919.14,792.342 1935.31,792.342 1951.49,792.342 1967.66,1073.14 1983.83,1213.54 2000.01,1353.94 2016.18,1353.94 2032.35,1353.94 2048.53,1353.94 2064.7,1353.94 2080.88,1353.94 2097.05,1353.94 2113.22,1353.94 2129.4,1353.94 2145.57,1353.94 2161.74,1353.94 2177.92,1353.94 2194.09,1353.94 2210.27,1353.94 2226.44,1353.94 2242.61,1353.94 2258.79,1353.94 2274.96,1353.94 2291.13,1353.94 "/>
<path clip-path="url(#clip850)" d="M1615.74 248.629 L2280.18 248.629 L2280.18 93.1086 L1615.74 93.1086  Z" fill="#ffffff" fill-rule="evenodd" fill-opacity="1"/>
<polyline clip-path="url(#clip850)" style="stroke:#000000; stroke-linecap:round; stroke-linejoin:round; stroke-width:4; stroke-opacity:1; fill:none" points="1615.74,248.629 2280.18,248.629 2280.18,93.1086 1615.74,93.1086 1615.74,248.629 "/>
<polyline clip-path="url(#clip850)" style="stroke:#009af9; stroke-linecap:round; stroke-linejoin:round; stroke-width:4; stroke-opacity:1; fill:none" points="1639.93,144.949 1785.08,144.949 "/>
<path clip-path="url(#clip850)" d="M1809.28 127.669 L1816.24 127.669 L1825.06 151.187 L1833.93 127.669 L1840.9 127.669 L1840.9 162.229 L1836.34 162.229 L1836.34 131.882 L1827.42 155.585 L1822.72 155.585 L1813.81 131.882 L1813.81 162.229 L1809.28 162.229 L1809.28 127.669 Z" fill="#000000" fill-rule="nonzero" fill-opacity="1" /><path clip-path="url(#clip850)" d="M1860.04 139.289 Q1856.61 139.289 1854.62 141.974 Q1852.63 144.636 1852.63 149.289 Q1852.63 153.942 1854.6 156.627 Q1856.59 159.289 1860.04 159.289 Q1863.44 159.289 1865.43 156.604 Q1867.42 153.918 1867.42 149.289 Q1867.42 144.682 1865.43 141.997 Q1863.44 139.289 1860.04 139.289 M1860.04 135.678 Q1865.6 135.678 1868.77 139.289 Q1871.94 142.9 1871.94 149.289 Q1871.94 155.655 1868.77 159.289 Q1865.6 162.9 1860.04 162.9 Q1854.46 162.9 1851.29 159.289 Q1848.14 155.655 1848.14 149.289 Q1848.14 142.9 1851.29 139.289 Q1854.46 135.678 1860.04 135.678 Z" fill="#000000" fill-rule="nonzero" fill-opacity="1" /><path clip-path="url(#clip850)" d="M1896.06 140.238 L1896.06 126.21 L1900.32 126.21 L1900.32 162.229 L1896.06 162.229 L1896.06 158.34 Q1894.72 160.655 1892.66 161.789 Q1890.62 162.9 1887.75 162.9 Q1883.05 162.9 1880.09 159.15 Q1877.15 155.4 1877.15 149.289 Q1877.15 143.178 1880.09 139.428 Q1883.05 135.678 1887.75 135.678 Q1890.62 135.678 1892.66 136.812 Q1894.72 137.923 1896.06 140.238 M1881.54 149.289 Q1881.54 153.988 1883.47 156.673 Q1885.41 159.335 1888.79 159.335 Q1892.17 159.335 1894.11 156.673 Q1896.06 153.988 1896.06 149.289 Q1896.06 144.59 1894.11 141.928 Q1892.17 139.243 1888.79 139.243 Q1885.41 139.243 1883.47 141.928 Q1881.54 144.59 1881.54 149.289 Z" fill="#000000" fill-rule="nonzero" fill-opacity="1" /><path clip-path="url(#clip850)" d="M1909.09 136.303 L1913.35 136.303 L1913.35 162.229 L1909.09 162.229 L1909.09 136.303 M1909.09 126.21 L1913.35 126.21 L1913.35 131.604 L1909.09 131.604 L1909.09 126.21 Z" fill="#000000" fill-rule="nonzero" fill-opacity="1" /><path clip-path="url(#clip850)" d="M1935.39 126.21 L1935.39 129.752 L1931.31 129.752 Q1929.02 129.752 1928.12 130.678 Q1927.24 131.604 1927.24 134.011 L1927.24 136.303 L1934.25 136.303 L1934.25 139.613 L1927.24 139.613 L1927.24 162.229 L1922.96 162.229 L1922.96 139.613 L1918.88 139.613 L1918.88 136.303 L1922.96 136.303 L1922.96 134.497 Q1922.96 130.169 1924.97 128.201 Q1926.98 126.21 1931.36 126.21 L1935.39 126.21 Z" fill="#000000" fill-rule="nonzero" fill-opacity="1" /><path clip-path="url(#clip850)" d="M1938.95 136.303 L1943.21 136.303 L1943.21 162.229 L1938.95 162.229 L1938.95 136.303 M1938.95 126.21 L1943.21 126.21 L1943.21 131.604 L1938.95 131.604 L1938.95 126.21 Z" fill="#000000" fill-rule="nonzero" fill-opacity="1" /><path clip-path="url(#clip850)" d="M1974.3 148.201 L1974.3 150.284 L1954.72 150.284 Q1954.99 154.682 1957.35 156.997 Q1959.74 159.289 1963.97 159.289 Q1966.43 159.289 1968.72 158.687 Q1971.03 158.085 1973.3 156.881 L1973.3 160.909 Q1971.01 161.881 1968.6 162.391 Q1966.2 162.9 1963.72 162.9 Q1957.52 162.9 1953.88 159.289 Q1950.27 155.678 1950.27 149.52 Q1950.27 143.155 1953.7 139.428 Q1957.15 135.678 1962.98 135.678 Q1968.21 135.678 1971.24 139.057 Q1974.3 142.414 1974.3 148.201 M1970.04 146.951 Q1969.99 143.456 1968.07 141.372 Q1966.17 139.289 1963.03 139.289 Q1959.46 139.289 1957.31 141.303 Q1955.18 143.317 1954.85 146.974 L1970.04 146.951 Z" fill="#000000" fill-rule="nonzero" fill-opacity="1" /><path clip-path="url(#clip850)" d="M1998.35 140.238 L1998.35 126.21 L2002.61 126.21 L2002.61 162.229 L1998.35 162.229 L1998.35 158.34 Q1997.01 160.655 1994.95 161.789 Q1992.91 162.9 1990.04 162.9 Q1985.34 162.9 1982.38 159.15 Q1979.44 155.4 1979.44 149.289 Q1979.44 143.178 1982.38 139.428 Q1985.34 135.678 1990.04 135.678 Q1992.91 135.678 1994.95 136.812 Q1997.01 137.923 1998.35 140.238 M1983.84 149.289 Q1983.84 153.988 1985.76 156.673 Q1987.7 159.335 1991.08 159.335 Q1994.46 159.335 1996.4 156.673 Q1998.35 153.988 1998.35 149.289 Q1998.35 144.59 1996.4 141.928 Q1994.46 139.243 1991.08 139.243 Q1987.7 139.243 1985.76 141.928 Q1983.84 144.59 1983.84 149.289 Z" fill="#000000" fill-rule="nonzero" fill-opacity="1" /><path clip-path="url(#clip850)" d="M2041.47 140.284 Q2040.76 139.868 2039.9 139.682 Q2039.07 139.474 2038.05 139.474 Q2034.44 139.474 2032.49 141.835 Q2030.57 144.173 2030.57 148.571 L2030.57 162.229 L2026.29 162.229 L2026.29 136.303 L2030.57 136.303 L2030.57 140.331 Q2031.91 137.969 2034.07 136.835 Q2036.22 135.678 2039.3 135.678 Q2039.74 135.678 2040.27 135.747 Q2040.8 135.794 2041.45 135.909 L2041.47 140.284 Z" fill="#000000" fill-rule="nonzero" fill-opacity="1" /><path clip-path="url(#clip850)" d="M2057.72 149.196 Q2052.56 149.196 2050.57 150.377 Q2048.58 151.557 2048.58 154.405 Q2048.58 156.673 2050.06 158.016 Q2051.57 159.335 2054.14 159.335 Q2057.68 159.335 2059.81 156.835 Q2061.96 154.312 2061.96 150.145 L2061.96 149.196 L2057.72 149.196 M2066.22 147.437 L2066.22 162.229 L2061.96 162.229 L2061.96 158.293 Q2060.5 160.655 2058.33 161.789 Q2056.15 162.9 2053 162.9 Q2049.02 162.9 2046.66 160.678 Q2044.32 158.432 2044.32 154.682 Q2044.32 150.307 2047.24 148.085 Q2050.18 145.863 2055.99 145.863 L2061.96 145.863 L2061.96 145.446 Q2061.96 142.507 2060.02 140.909 Q2058.09 139.289 2054.6 139.289 Q2052.38 139.289 2050.27 139.821 Q2048.16 140.354 2046.22 141.419 L2046.22 137.483 Q2048.56 136.581 2050.76 136.141 Q2052.96 135.678 2055.04 135.678 Q2060.66 135.678 2063.44 138.594 Q2066.22 141.511 2066.22 147.437 Z" fill="#000000" fill-rule="nonzero" fill-opacity="1" /><path clip-path="url(#clip850)" d="M2095.18 141.28 Q2096.77 138.409 2099 137.044 Q2101.22 135.678 2104.23 135.678 Q2108.28 135.678 2110.48 138.525 Q2112.68 141.349 2112.68 146.581 L2112.68 162.229 L2108.39 162.229 L2108.39 146.719 Q2108.39 142.993 2107.08 141.187 Q2105.76 139.382 2103.05 139.382 Q2099.74 139.382 2097.82 141.581 Q2095.89 143.78 2095.89 147.576 L2095.89 162.229 L2091.61 162.229 L2091.61 146.719 Q2091.61 142.969 2090.29 141.187 Q2088.97 139.382 2086.22 139.382 Q2082.96 139.382 2081.03 141.604 Q2079.11 143.803 2079.11 147.576 L2079.11 162.229 L2074.83 162.229 L2074.83 136.303 L2079.11 136.303 L2079.11 140.331 Q2080.57 137.946 2082.61 136.812 Q2084.64 135.678 2087.45 135.678 Q2090.27 135.678 2092.24 137.113 Q2094.23 138.548 2095.18 141.28 Z" fill="#000000" fill-rule="nonzero" fill-opacity="1" /><path clip-path="url(#clip850)" d="M2125.29 158.34 L2125.29 172.09 L2121.01 172.09 L2121.01 136.303 L2125.29 136.303 L2125.29 140.238 Q2126.64 137.923 2128.67 136.812 Q2130.73 135.678 2133.58 135.678 Q2138.3 135.678 2141.24 139.428 Q2144.2 143.178 2144.2 149.289 Q2144.2 155.4 2141.24 159.15 Q2138.3 162.9 2133.58 162.9 Q2130.73 162.9 2128.67 161.789 Q2126.64 160.655 2125.29 158.34 M2139.78 149.289 Q2139.78 144.59 2137.84 141.928 Q2135.92 139.243 2132.54 139.243 Q2129.16 139.243 2127.21 141.928 Q2125.29 144.59 2125.29 149.289 Q2125.29 153.988 2127.21 156.673 Q2129.16 159.335 2132.54 159.335 Q2135.92 159.335 2137.84 156.673 Q2139.78 153.988 2139.78 149.289 Z" fill="#000000" fill-rule="nonzero" fill-opacity="1" /><path clip-path="url(#clip850)" d="M2171.2 131.511 L2171.2 158.386 L2176.84 158.386 Q2184 158.386 2187.31 155.145 Q2190.64 151.905 2190.64 144.914 Q2190.64 137.969 2187.31 134.752 Q2184 131.511 2176.84 131.511 L2171.2 131.511 M2166.52 127.669 L2176.13 127.669 Q2186.17 127.669 2190.87 131.858 Q2195.57 136.025 2195.57 144.914 Q2195.57 153.849 2190.85 158.039 Q2186.13 162.229 2176.13 162.229 L2166.52 162.229 L2166.52 127.669 Z" fill="#000000" fill-rule="nonzero" fill-opacity="1" /><path clip-path="url(#clip850)" d="M2228.9 130.331 L2228.9 135.261 Q2226.54 133.062 2223.86 131.974 Q2221.2 130.886 2218.19 130.886 Q2212.26 130.886 2209.11 134.52 Q2205.96 138.132 2205.96 144.983 Q2205.96 151.812 2209.11 155.446 Q2212.26 159.057 2218.19 159.057 Q2221.2 159.057 2223.86 157.969 Q2226.54 156.881 2228.9 154.682 L2228.9 159.567 Q2226.45 161.233 2223.7 162.067 Q2220.96 162.9 2217.91 162.9 Q2210.06 162.9 2205.55 158.108 Q2201.03 153.293 2201.03 144.983 Q2201.03 136.65 2205.55 131.858 Q2210.06 127.044 2217.91 127.044 Q2221.01 127.044 2223.74 127.877 Q2226.5 128.687 2228.9 130.331 Z" fill="#000000" fill-rule="nonzero" fill-opacity="1" /><path clip-path="url(#clip850)" d="M2236.13 127.669 L2255.99 127.669 L2255.99 131.604 L2240.8 131.604 L2240.8 141.789 L2254.51 141.789 L2254.51 145.724 L2240.8 145.724 L2240.8 162.229 L2236.13 162.229 L2236.13 127.669 Z" fill="#000000" fill-rule="nonzero" fill-opacity="1" /><polyline clip-path="url(#clip850)" style="stroke:#e26f46; stroke-linecap:round; stroke-linejoin:round; stroke-width:4; stroke-opacity:1; fill:none" points="1639.93,196.789 1785.08,196.789 "/>
<path clip-path="url(#clip850)" d="M1809.28 179.509 L1813.95 179.509 L1813.95 214.069 L1809.28 214.069 L1809.28 179.509 Z" fill="#000000" fill-rule="nonzero" fill-opacity="1" /><path clip-path="url(#clip850)" d="M1840.13 192.078 L1840.13 178.05 L1844.39 178.05 L1844.39 214.069 L1840.13 214.069 L1840.13 210.18 Q1838.79 212.495 1836.73 213.629 Q1834.69 214.74 1831.82 214.74 Q1827.12 214.74 1824.16 210.99 Q1821.22 207.24 1821.22 201.129 Q1821.22 195.018 1824.16 191.268 Q1827.12 187.518 1831.82 187.518 Q1834.69 187.518 1836.73 188.652 Q1838.79 189.763 1840.13 192.078 M1825.62 201.129 Q1825.62 205.828 1827.54 208.513 Q1829.48 211.175 1832.86 211.175 Q1836.24 211.175 1838.19 208.513 Q1840.13 205.828 1840.13 201.129 Q1840.13 196.43 1838.19 193.768 Q1836.24 191.083 1832.86 191.083 Q1829.48 191.083 1827.54 193.768 Q1825.62 196.43 1825.62 201.129 Z" fill="#000000" fill-rule="nonzero" fill-opacity="1" /><path clip-path="url(#clip850)" d="M1875.34 200.041 L1875.34 202.124 L1855.76 202.124 Q1856.03 206.522 1858.4 208.837 Q1860.78 211.129 1865.02 211.129 Q1867.47 211.129 1869.76 210.527 Q1872.08 209.925 1874.35 208.721 L1874.35 212.749 Q1872.05 213.721 1869.65 214.231 Q1867.24 214.74 1864.76 214.74 Q1858.56 214.74 1854.92 211.129 Q1851.31 207.518 1851.31 201.36 Q1851.31 194.995 1854.74 191.268 Q1858.19 187.518 1864.02 187.518 Q1869.25 187.518 1872.28 190.897 Q1875.34 194.254 1875.34 200.041 M1871.08 198.791 Q1871.03 195.296 1869.11 193.212 Q1867.22 191.129 1864.07 191.129 Q1860.5 191.129 1858.35 193.143 Q1856.22 195.157 1855.9 198.814 L1871.08 198.791 Z" fill="#000000" fill-rule="nonzero" fill-opacity="1" /><path clip-path="url(#clip850)" d="M1894.11 201.036 Q1888.95 201.036 1886.96 202.217 Q1884.97 203.397 1884.97 206.245 Q1884.97 208.513 1886.45 209.856 Q1887.96 211.175 1890.53 211.175 Q1894.07 211.175 1896.2 208.675 Q1898.35 206.152 1898.35 201.985 L1898.35 201.036 L1894.11 201.036 M1902.61 199.277 L1902.61 214.069 L1898.35 214.069 L1898.35 210.133 Q1896.89 212.495 1894.72 213.629 Q1892.54 214.74 1889.39 214.74 Q1885.41 214.74 1883.05 212.518 Q1880.71 210.272 1880.71 206.522 Q1880.71 202.147 1883.63 199.925 Q1886.57 197.703 1892.38 197.703 L1898.35 197.703 L1898.35 197.286 Q1898.35 194.347 1896.41 192.749 Q1894.48 191.129 1890.99 191.129 Q1888.77 191.129 1886.66 191.661 Q1884.55 192.194 1882.61 193.259 L1882.61 189.323 Q1884.95 188.421 1887.15 187.981 Q1889.34 187.518 1891.43 187.518 Q1897.05 187.518 1899.83 190.434 Q1902.61 193.351 1902.61 199.277 Z" fill="#000000" fill-rule="nonzero" fill-opacity="1" /><path clip-path="url(#clip850)" d="M1911.38 178.05 L1915.64 178.05 L1915.64 214.069 L1911.38 214.069 L1911.38 178.05 Z" fill="#000000" fill-rule="nonzero" fill-opacity="1" /></svg>
