<?xml version="1.0" encoding="utf-8"?>
<svg xmlns="http://www.w3.org/2000/svg" xmlns:xlink="http://www.w3.org/1999/xlink" width="600" height="400" viewBox="0 0 2400 1600">
<defs>
  <clipPath id="clip110">
    <rect x="0" y="0" width="2400" height="1600"/>
  </clipPath>
</defs>
<path clip-path="url(#clip110)" d="M0 1600 L2400 1600 L2400 0 L0 0  Z" fill="#ffffff" fill-rule="evenodd" fill-opacity="1"/>
<defs>
  <clipPath id="clip111">
    <rect x="232" y="47" width="2121" height="1377"/>
  </clipPath>
</defs>
<path clip-path="url(#clip110)" d="M232.389 1423.18 L2352.76 1423.18 L2352.76 47.2441 L232.389 47.2441  Z" fill="#ffffff" fill-rule="evenodd" fill-opacity="1"/>
<polyline clip-path="url(#clip111)" style="stroke:#000000; stroke-linecap:round; stroke-linejoin:round; stroke-width:2; stroke-opacity:0.1; fill:none" points="292.4,1423.18 292.4,47.2441 "/>
<polyline clip-path="url(#clip111)" style="stroke:#000000; stroke-linecap:round; stroke-linejoin:round; stroke-width:2; stroke-opacity:0.1; fill:none" points="959.182,1423.18 959.182,47.2441 "/>
<polyline clip-path="url(#clip111)" style="stroke:#000000; stroke-linecap:round; stroke-linejoin:round; stroke-width:2; stroke-opacity:0.1; fill:none" points="1625.96,1423.18 1625.96,47.2441 "/>
<polyline clip-path="url(#clip111)" style="stroke:#000000; stroke-linecap:round; stroke-linejoin:round; stroke-width:2; stroke-opacity:0.1; fill:none" points="2292.75,1423.18 2292.75,47.2441 "/>
<polyline clip-path="url(#clip111)" style="stroke:#000000; stroke-linecap:round; stroke-linejoin:round; stroke-width:2; stroke-opacity:0.1; fill:none" points="232.389,1384.24 2352.76,1384.24 "/>
<polyline clip-path="url(#clip111)" style="stroke:#000000; stroke-linecap:round; stroke-linejoin:round; stroke-width:2; stroke-opacity:0.1; fill:none" points="232.389,1124.63 2352.76,1124.63 "/>
<polyline clip-path="url(#clip111)" style="stroke:#000000; stroke-linecap:round; stroke-linejoin:round; stroke-width:2; stroke-opacity:0.1; fill:none" points="232.389,865.017 2352.76,865.017 "/>
<polyline clip-path="url(#clip111)" style="stroke:#000000; stroke-linecap:round; stroke-linejoin:round; stroke-width:2; stroke-opacity:0.1; fill:none" points="232.389,605.407 2352.76,605.407 "/>
<polyline clip-path="url(#clip111)" style="stroke:#000000; stroke-linecap:round; stroke-linejoin:round; stroke-width:2; stroke-opacity:0.1; fill:none" points="232.389,345.796 2352.76,345.796 "/>
<polyline clip-path="url(#clip111)" style="stroke:#000000; stroke-linecap:round; stroke-linejoin:round; stroke-width:2; stroke-opacity:0.1; fill:none" points="232.389,86.1857 2352.76,86.1857 "/>
<polyline clip-path="url(#clip110)" style="stroke:#000000; stroke-linecap:round; stroke-linejoin:round; stroke-width:4; stroke-opacity:1; fill:none" points="232.389,1423.18 2352.76,1423.18 "/>
<polyline clip-path="url(#clip110)" style="stroke:#000000; stroke-linecap:round; stroke-linejoin:round; stroke-width:4; stroke-opacity:1; fill:none" points="292.4,1423.18 292.4,1404.28 "/>
<polyline clip-path="url(#clip110)" style="stroke:#000000; stroke-linecap:round; stroke-linejoin:round; stroke-width:4; stroke-opacity:1; fill:none" points="959.182,1423.18 959.182,1404.28 "/>
<polyline clip-path="url(#clip110)" style="stroke:#000000; stroke-linecap:round; stroke-linejoin:round; stroke-width:4; stroke-opacity:1; fill:none" points="1625.96,1423.18 1625.96,1404.28 "/>
<polyline clip-path="url(#clip110)" style="stroke:#000000; stroke-linecap:round; stroke-linejoin:round; stroke-width:4; stroke-opacity:1; fill:none" points="2292.75,1423.18 2292.75,1404.28 "/>
<path clip-path="url(#clip110)" d="M292.4 1454.1 Q288.789 1454.1 286.96 1457.66 Q285.154 1461.2 285.154 1468.33 Q285.154 1475.44 286.96 1479.01 Q288.789 1482.55 292.4 1482.55 Q296.034 1482.55 297.84 1479.01 Q299.668 1475.44 299.668 1468.33 Q299.668 1461.2 297.84 1457.66 Q296.034 1454.1 292.4 1454.1 M292.4 1450.39 Q298.21 1450.39 301.265 1455 Q304.344 1459.58 304.344 1468.33 Q304.344 1477.06 301.265 1481.67 Q298.21 1486.25 292.4 1486.25 Q286.59 1486.25 283.511 1481.67 Q280.455 1477.06 280.455 1468.33 Q280.455 1459.58 283.511 1455 Q286.59 1450.39 292.4 1450.39 Z" fill="#000000" fill-rule="nonzero" fill-opacity="1" /><path clip-path="url(#clip110)" d="M949.459 1451.02 L967.816 1451.02 L967.816 1454.96 L953.742 1454.96 L953.742 1463.43 Q954.76 1463.08 955.779 1462.92 Q956.797 1462.73 957.816 1462.73 Q963.603 1462.73 966.983 1465.9 Q970.362 1469.08 970.362 1474.49 Q970.362 1480.07 966.89 1483.17 Q963.418 1486.25 957.098 1486.25 Q954.922 1486.25 952.654 1485.88 Q950.409 1485.51 948.001 1484.77 L948.001 1480.07 Q950.084 1481.2 952.307 1481.76 Q954.529 1482.32 957.006 1482.32 Q961.01 1482.32 963.348 1480.21 Q965.686 1478.1 965.686 1474.49 Q965.686 1470.88 963.348 1468.77 Q961.01 1466.67 957.006 1466.67 Q955.131 1466.67 953.256 1467.08 Q951.404 1467.5 949.459 1468.38 L949.459 1451.02 Z" fill="#000000" fill-rule="nonzero" fill-opacity="1" /><path clip-path="url(#clip110)" d="M1600.65 1481.64 L1608.29 1481.64 L1608.29 1455.28 L1599.98 1456.95 L1599.98 1452.69 L1608.24 1451.02 L1612.92 1451.02 L1612.92 1481.64 L1620.56 1481.64 L1620.56 1485.58 L1600.65 1485.58 L1600.65 1481.64 Z" fill="#000000" fill-rule="nonzero" fill-opacity="1" /><path clip-path="url(#clip110)" d="M1640 1454.1 Q1636.39 1454.1 1634.56 1457.66 Q1632.76 1461.2 1632.76 1468.33 Q1632.76 1475.44 1634.56 1479.01 Q1636.39 1482.55 1640 1482.55 Q1643.64 1482.55 1645.44 1479.01 Q1647.27 1475.44 1647.27 1468.33 Q1647.27 1461.2 1645.44 1457.66 Q1643.64 1454.1 1640 1454.1 M1640 1450.39 Q1645.81 1450.39 1648.87 1455 Q1651.95 1459.58 1651.95 1468.33 Q1651.95 1477.06 1648.87 1481.67 Q1645.81 1486.25 1640 1486.25 Q1634.19 1486.25 1631.11 1481.67 Q1628.06 1477.06 1628.06 1468.33 Q1628.06 1459.58 1631.11 1455 Q1634.19 1450.39 1640 1450.39 Z" fill="#000000" fill-rule="nonzero" fill-opacity="1" /><path clip-path="url(#clip110)" d="M2267.93 1481.64 L2275.57 1481.64 L2275.57 1455.28 L2267.26 1456.95 L2267.26 1452.69 L2275.52 1451.02 L2280.2 1451.02 L2280.2 1481.64 L2287.84 1481.64 L2287.84 1485.58 L2267.93 1485.58 L2267.93 1481.64 Z" fill="#000000" fill-rule="nonzero" fill-opacity="1" /><path clip-path="url(#clip110)" d="M2297.33 1451.02 L2315.69 1451.02 L2315.69 1454.96 L2301.61 1454.96 L2301.61 1463.43 Q2302.63 1463.08 2303.65 1462.92 Q2304.67 1462.73 2305.69 1462.73 Q2311.47 1462.73 2314.85 1465.9 Q2318.23 1469.08 2318.23 1474.49 Q2318.23 1480.07 2314.76 1483.17 Q2311.29 1486.25 2304.97 1486.25 Q2302.79 1486.25 2300.52 1485.88 Q2298.28 1485.51 2295.87 1484.77 L2295.87 1480.07 Q2297.95 1481.2 2300.18 1481.76 Q2302.4 1482.32 2304.88 1482.32 Q2308.88 1482.32 2311.22 1480.21 Q2313.56 1478.1 2313.56 1474.49 Q2313.56 1470.88 2311.22 1468.77 Q2308.88 1466.67 2304.88 1466.67 Q2303 1466.67 2301.13 1467.08 Q2299.27 1467.5 2297.33 1468.38 L2297.33 1451.02 Z" fill="#000000" fill-rule="nonzero" fill-opacity="1" /><path clip-path="url(#clip110)" d="M1160.72 1532.4 L1166.58 1532.4 L1166.58 1568.04 L1160.72 1568.04 L1160.72 1532.4 M1160.72 1518.52 L1166.58 1518.52 L1166.58 1525.93 L1160.72 1525.93 L1160.72 1518.52 Z" fill="#000000" fill-rule="nonzero" fill-opacity="1" /><path clip-path="url(#clip110)" d="M1184.63 1522.27 L1184.63 1532.4 L1196.69 1532.4 L1196.69 1536.95 L1184.63 1536.95 L1184.63 1556.3 Q1184.63 1560.66 1185.8 1561.9 Q1187.01 1563.14 1190.67 1563.14 L1196.69 1563.14 L1196.69 1568.04 L1190.67 1568.04 Q1183.89 1568.04 1181.32 1565.53 Q1178.74 1562.98 1178.74 1556.3 L1178.74 1536.95 L1174.44 1536.95 L1174.44 1532.4 L1178.74 1532.4 L1178.74 1522.27 L1184.63 1522.27 Z" fill="#000000" fill-rule="nonzero" fill-opacity="1" /><path clip-path="url(#clip110)" d="M1234.88 1548.76 L1234.88 1551.62 L1207.96 1551.62 Q1208.34 1557.67 1211.58 1560.85 Q1214.86 1564 1220.69 1564 Q1224.06 1564 1227.21 1563.17 Q1230.4 1562.35 1233.51 1560.69 L1233.51 1566.23 Q1230.36 1567.57 1227.05 1568.27 Q1223.74 1568.97 1220.34 1568.97 Q1211.81 1568.97 1206.81 1564 Q1201.85 1559.04 1201.85 1550.57 Q1201.85 1541.82 1206.56 1536.69 Q1211.3 1531.54 1219.32 1531.54 Q1226.51 1531.54 1230.68 1536.18 Q1234.88 1540.8 1234.88 1548.76 M1229.03 1547.04 Q1228.96 1542.23 1226.32 1539.37 Q1223.71 1536.5 1219.38 1536.5 Q1214.48 1536.5 1211.52 1539.27 Q1208.59 1542.04 1208.15 1547.07 L1229.03 1547.04 Z" fill="#000000" fill-rule="nonzero" fill-opacity="1" /><path clip-path="url(#clip110)" d="M1265.15 1537.87 Q1264.17 1537.3 1262.99 1537.04 Q1261.84 1536.76 1260.44 1536.76 Q1255.48 1536.76 1252.8 1540 Q1250.16 1543.22 1250.16 1549.27 L1250.16 1568.04 L1244.27 1568.04 L1244.27 1532.4 L1250.16 1532.4 L1250.16 1537.93 Q1252.01 1534.69 1254.97 1533.13 Q1257.93 1531.54 1262.16 1531.54 Q1262.77 1531.54 1263.5 1531.63 Q1264.23 1531.7 1265.12 1531.85 L1265.15 1537.87 Z" fill="#000000" fill-rule="nonzero" fill-opacity="1" /><path clip-path="url(#clip110)" d="M1287.5 1550.12 Q1280.4 1550.12 1277.66 1551.75 Q1274.92 1553.37 1274.92 1557.29 Q1274.92 1560.4 1276.96 1562.25 Q1279.03 1564.07 1282.56 1564.07 Q1287.43 1564.07 1290.36 1560.63 Q1293.32 1557.16 1293.32 1551.43 L1293.32 1550.12 L1287.5 1550.12 M1299.18 1547.71 L1299.18 1568.04 L1293.32 1568.04 L1293.32 1562.63 Q1291.32 1565.88 1288.32 1567.44 Q1285.33 1568.97 1281 1568.97 Q1275.53 1568.97 1272.28 1565.91 Q1269.07 1562.82 1269.07 1557.67 Q1269.07 1551.65 1273.08 1548.6 Q1277.12 1545.54 1285.11 1545.54 L1293.32 1545.54 L1293.32 1544.97 Q1293.32 1540.93 1290.65 1538.73 Q1288.01 1536.5 1283.2 1536.5 Q1280.14 1536.5 1277.25 1537.23 Q1274.35 1537.97 1271.68 1539.43 L1271.68 1534.02 Q1274.89 1532.78 1277.92 1532.17 Q1280.94 1531.54 1283.8 1531.54 Q1291.54 1531.54 1295.36 1535.55 Q1299.18 1539.56 1299.18 1547.71 Z" fill="#000000" fill-rule="nonzero" fill-opacity="1" /><path clip-path="url(#clip110)" d="M1317.03 1522.27 L1317.03 1532.4 L1329.1 1532.4 L1329.1 1536.95 L1317.03 1536.95 L1317.03 1556.3 Q1317.03 1560.66 1318.21 1561.9 Q1319.42 1563.14 1323.08 1563.14 L1329.1 1563.14 L1329.1 1568.04 L1323.08 1568.04 Q1316.3 1568.04 1313.72 1565.53 Q1311.14 1562.98 1311.14 1556.3 L1311.14 1536.95 L1306.85 1536.95 L1306.85 1532.4 L1311.14 1532.4 L1311.14 1522.27 L1317.03 1522.27 Z" fill="#000000" fill-rule="nonzero" fill-opacity="1" /><path clip-path="url(#clip110)" d="M1336.8 1532.4 L1342.65 1532.4 L1342.65 1568.04 L1336.8 1568.04 L1336.8 1532.4 M1336.8 1518.52 L1342.65 1518.52 L1342.65 1525.93 L1336.8 1525.93 L1336.8 1518.52 Z" fill="#000000" fill-rule="nonzero" fill-opacity="1" /><path clip-path="url(#clip110)" d="M1368.72 1536.5 Q1364.01 1536.5 1361.27 1540.19 Q1358.54 1543.85 1358.54 1550.25 Q1358.54 1556.65 1361.24 1560.34 Q1363.98 1564 1368.72 1564 Q1373.4 1564 1376.14 1560.31 Q1378.88 1556.62 1378.88 1550.25 Q1378.88 1543.92 1376.14 1540.23 Q1373.4 1536.5 1368.72 1536.5 M1368.72 1531.54 Q1376.36 1531.54 1380.72 1536.5 Q1385.08 1541.47 1385.08 1550.25 Q1385.08 1559 1380.72 1564 Q1376.36 1568.97 1368.72 1568.97 Q1361.05 1568.97 1356.69 1564 Q1352.36 1559 1352.36 1550.25 Q1352.36 1541.47 1356.69 1536.5 Q1361.05 1531.54 1368.72 1531.54 Z" fill="#000000" fill-rule="nonzero" fill-opacity="1" /><path clip-path="url(#clip110)" d="M1424.42 1546.53 L1424.42 1568.04 L1418.57 1568.04 L1418.57 1546.72 Q1418.57 1541.66 1416.59 1539.14 Q1414.62 1536.63 1410.67 1536.63 Q1405.93 1536.63 1403.19 1539.65 Q1400.46 1542.68 1400.46 1547.9 L1400.46 1568.04 L1394.57 1568.04 L1394.57 1532.4 L1400.46 1532.4 L1400.46 1537.93 Q1402.56 1534.72 1405.39 1533.13 Q1408.25 1531.54 1411.98 1531.54 Q1418.12 1531.54 1421.27 1535.36 Q1424.42 1539.14 1424.42 1546.53 Z" fill="#000000" fill-rule="nonzero" fill-opacity="1" /><polyline clip-path="url(#clip110)" style="stroke:#000000; stroke-linecap:round; stroke-linejoin:round; stroke-width:4; stroke-opacity:1; fill:none" points="232.389,1423.18 232.389,47.2441 "/>
<polyline clip-path="url(#clip110)" style="stroke:#000000; stroke-linecap:round; stroke-linejoin:round; stroke-width:4; stroke-opacity:1; fill:none" points="232.389,1384.24 251.287,1384.24 "/>
<polyline clip-path="url(#clip110)" style="stroke:#000000; stroke-linecap:round; stroke-linejoin:round; stroke-width:4; stroke-opacity:1; fill:none" points="232.389,1124.63 251.287,1124.63 "/>
<polyline clip-path="url(#clip110)" style="stroke:#000000; stroke-linecap:round; stroke-linejoin:round; stroke-width:4; stroke-opacity:1; fill:none" points="232.389,865.017 251.287,865.017 "/>
<polyline clip-path="url(#clip110)" style="stroke:#000000; stroke-linecap:round; stroke-linejoin:round; stroke-width:4; stroke-opacity:1; fill:none" points="232.389,605.407 251.287,605.407 "/>
<polyline clip-path="url(#clip110)" style="stroke:#000000; stroke-linecap:round; stroke-linejoin:round; stroke-width:4; stroke-opacity:1; fill:none" points="232.389,345.796 251.287,345.796 "/>
<polyline clip-path="url(#clip110)" style="stroke:#000000; stroke-linecap:round; stroke-linejoin:round; stroke-width:4; stroke-opacity:1; fill:none" points="232.389,86.1857 251.287,86.1857 "/>
<path clip-path="url(#clip110)" d="M184.445 1370.04 Q180.834 1370.04 179.005 1373.6 Q177.2 1377.14 177.2 1384.27 Q177.2 1391.38 179.005 1394.94 Q180.834 1398.49 184.445 1398.49 Q188.079 1398.49 189.885 1394.94 Q191.713 1391.38 191.713 1384.27 Q191.713 1377.14 189.885 1373.6 Q188.079 1370.04 184.445 1370.04 M184.445 1366.33 Q190.255 1366.33 193.311 1370.94 Q196.389 1375.52 196.389 1384.27 Q196.389 1393 193.311 1397.61 Q190.255 1402.19 184.445 1402.19 Q178.635 1402.19 175.556 1397.61 Q172.501 1393 172.501 1384.27 Q172.501 1375.52 175.556 1370.94 Q178.635 1366.33 184.445 1366.33 Z" fill="#000000" fill-rule="nonzero" fill-opacity="1" /><path clip-path="url(#clip110)" d="M148.311 1137.97 L164.63 1137.97 L164.63 1141.91 L142.686 1141.91 L142.686 1137.97 Q145.348 1135.22 149.931 1130.59 Q154.538 1125.94 155.718 1124.59 Q157.964 1122.07 158.843 1120.33 Q159.746 1118.57 159.746 1116.88 Q159.746 1114.13 157.802 1112.39 Q155.88 1110.66 152.778 1110.66 Q150.579 1110.66 148.126 1111.42 Q145.695 1112.19 142.917 1113.74 L142.917 1109.01 Q145.741 1107.88 148.195 1107.3 Q150.649 1106.72 152.686 1106.72 Q158.056 1106.72 161.251 1109.41 Q164.445 1112.09 164.445 1116.58 Q164.445 1118.71 163.635 1120.63 Q162.848 1122.53 160.741 1125.13 Q160.163 1125.8 157.061 1129.01 Q153.959 1132.21 148.311 1137.97 Z" fill="#000000" fill-rule="nonzero" fill-opacity="1" /><path clip-path="url(#clip110)" d="M184.445 1110.43 Q180.834 1110.43 179.005 1113.99 Q177.2 1117.53 177.2 1124.66 Q177.2 1131.77 179.005 1135.33 Q180.834 1138.88 184.445 1138.88 Q188.079 1138.88 189.885 1135.33 Q191.713 1131.77 191.713 1124.66 Q191.713 1117.53 189.885 1113.99 Q188.079 1110.43 184.445 1110.43 M184.445 1106.72 Q190.255 1106.72 193.311 1111.33 Q196.389 1115.91 196.389 1124.66 Q196.389 1133.39 193.311 1138 Q190.255 1142.58 184.445 1142.58 Q178.635 1142.58 175.556 1138 Q172.501 1133.39 172.501 1124.66 Q172.501 1115.91 175.556 1111.33 Q178.635 1106.72 184.445 1106.72 Z" fill="#000000" fill-rule="nonzero" fill-opacity="1" /><path clip-path="url(#clip110)" d="M157.13 851.811 L145.325 870.26 L157.13 870.26 L157.13 851.811 M155.903 847.737 L161.783 847.737 L161.783 870.26 L166.714 870.26 L166.714 874.149 L161.783 874.149 L161.783 882.297 L157.13 882.297 L157.13 874.149 L141.529 874.149 L141.529 869.635 L155.903 847.737 Z" fill="#000000" fill-rule="nonzero" fill-opacity="1" /><path clip-path="url(#clip110)" d="M184.445 850.816 Q180.834 850.816 179.005 854.381 Q177.2 857.922 177.2 865.052 Q177.2 872.158 179.005 875.723 Q180.834 879.265 184.445 879.265 Q188.079 879.265 189.885 875.723 Q191.713 872.158 191.713 865.052 Q191.713 857.922 189.885 854.381 Q188.079 850.816 184.445 850.816 M184.445 847.112 Q190.255 847.112 193.311 851.719 Q196.389 856.302 196.389 865.052 Q196.389 873.779 193.311 878.385 Q190.255 882.969 184.445 882.969 Q178.635 882.969 175.556 878.385 Q172.501 873.779 172.501 865.052 Q172.501 856.302 175.556 851.719 Q178.635 847.112 184.445 847.112 Z" fill="#000000" fill-rule="nonzero" fill-opacity="1" /><path clip-path="url(#clip110)" d="M154.862 603.543 Q151.714 603.543 149.862 605.696 Q148.033 607.849 148.033 611.599 Q148.033 615.326 149.862 617.502 Q151.714 619.654 154.862 619.654 Q158.01 619.654 159.839 617.502 Q161.69 615.326 161.69 611.599 Q161.69 607.849 159.839 605.696 Q158.01 603.543 154.862 603.543 M164.144 588.891 L164.144 593.15 Q162.385 592.317 160.579 591.877 Q158.797 591.437 157.038 591.437 Q152.408 591.437 149.954 594.562 Q147.524 597.687 147.177 604.006 Q148.542 601.992 150.603 600.928 Q152.663 599.84 155.14 599.84 Q160.348 599.84 163.357 603.011 Q166.39 606.159 166.39 611.599 Q166.39 616.923 163.241 620.14 Q160.093 623.358 154.862 623.358 Q148.866 623.358 145.695 618.775 Q142.524 614.168 142.524 605.441 Q142.524 597.247 146.413 592.386 Q150.302 587.502 156.853 587.502 Q158.612 587.502 160.394 587.849 Q162.2 588.196 164.144 588.891 Z" fill="#000000" fill-rule="nonzero" fill-opacity="1" /><path clip-path="url(#clip110)" d="M184.445 591.205 Q180.834 591.205 179.005 594.77 Q177.2 598.312 177.2 605.441 Q177.2 612.548 179.005 616.113 Q180.834 619.654 184.445 619.654 Q188.079 619.654 189.885 616.113 Q191.713 612.548 191.713 605.441 Q191.713 598.312 189.885 594.77 Q188.079 591.205 184.445 591.205 M184.445 587.502 Q190.255 587.502 193.311 592.108 Q196.389 596.691 196.389 605.441 Q196.389 614.168 193.311 618.775 Q190.255 623.358 184.445 623.358 Q178.635 623.358 175.556 618.775 Q172.501 614.168 172.501 605.441 Q172.501 596.691 175.556 592.108 Q178.635 587.502 184.445 587.502 Z" fill="#000000" fill-rule="nonzero" fill-opacity="1" /><path clip-path="url(#clip110)" d="M154.283 346.664 Q150.95 346.664 149.028 348.447 Q147.13 350.229 147.13 353.354 Q147.13 356.479 149.028 358.261 Q150.95 360.044 154.283 360.044 Q157.616 360.044 159.538 358.261 Q161.459 356.456 161.459 353.354 Q161.459 350.229 159.538 348.447 Q157.64 346.664 154.283 346.664 M149.607 344.674 Q146.598 343.933 144.908 341.873 Q143.241 339.812 143.241 336.849 Q143.241 332.706 146.181 330.299 Q149.144 327.891 154.283 327.891 Q159.445 327.891 162.385 330.299 Q165.325 332.706 165.325 336.849 Q165.325 339.812 163.635 341.873 Q161.968 343.933 158.982 344.674 Q162.362 345.461 164.237 347.752 Q166.135 350.044 166.135 353.354 Q166.135 358.377 163.056 361.062 Q160.001 363.747 154.283 363.747 Q148.566 363.747 145.487 361.062 Q142.431 358.377 142.431 353.354 Q142.431 350.044 144.329 347.752 Q146.228 345.461 149.607 344.674 M147.894 337.289 Q147.894 339.974 149.561 341.479 Q151.251 342.984 154.283 342.984 Q157.292 342.984 158.982 341.479 Q160.695 339.974 160.695 337.289 Q160.695 334.604 158.982 333.099 Q157.292 331.595 154.283 331.595 Q151.251 331.595 149.561 333.099 Q147.894 334.604 147.894 337.289 Z" fill="#000000" fill-rule="nonzero" fill-opacity="1" /><path clip-path="url(#clip110)" d="M184.445 331.595 Q180.834 331.595 179.005 335.16 Q177.2 338.701 177.2 345.831 Q177.2 352.937 179.005 356.502 Q180.834 360.044 184.445 360.044 Q188.079 360.044 189.885 356.502 Q191.713 352.937 191.713 345.831 Q191.713 338.701 189.885 335.16 Q188.079 331.595 184.445 331.595 M184.445 327.891 Q190.255 327.891 193.311 332.498 Q196.389 337.081 196.389 345.831 Q196.389 354.558 193.311 359.164 Q190.255 363.747 184.445 363.747 Q178.635 363.747 175.556 359.164 Q172.501 354.558 172.501 345.831 Q172.501 337.081 175.556 332.498 Q178.635 327.891 184.445 327.891 Z" fill="#000000" fill-rule="nonzero" fill-opacity="1" /><path clip-path="url(#clip110)" d="M114.931 99.5305 L122.57 99.5305 L122.57 73.1649 L114.26 74.8316 L114.26 70.5723 L122.524 68.9057 L127.2 68.9057 L127.2 99.5305 L134.839 99.5305 L134.839 103.466 L114.931 103.466 L114.931 99.5305 Z" fill="#000000" fill-rule="nonzero" fill-opacity="1" /><path clip-path="url(#clip110)" d="M154.283 71.9844 Q150.672 71.9844 148.843 75.5492 Q147.038 79.0908 147.038 86.2204 Q147.038 93.3268 148.843 96.8916 Q150.672 100.433 154.283 100.433 Q157.917 100.433 159.723 96.8916 Q161.552 93.3268 161.552 86.2204 Q161.552 79.0908 159.723 75.5492 Q157.917 71.9844 154.283 71.9844 M154.283 68.2807 Q160.093 68.2807 163.149 72.8871 Q166.227 77.4704 166.227 86.2204 Q166.227 94.9472 163.149 99.5537 Q160.093 104.137 154.283 104.137 Q148.473 104.137 145.394 99.5537 Q142.339 94.9472 142.339 86.2204 Q142.339 77.4704 145.394 72.8871 Q148.473 68.2807 154.283 68.2807 Z" fill="#000000" fill-rule="nonzero" fill-opacity="1" /><path clip-path="url(#clip110)" d="M184.445 71.9844 Q180.834 71.9844 179.005 75.5492 Q177.2 79.0908 177.2 86.2204 Q177.2 93.3268 179.005 96.8916 Q180.834 100.433 184.445 100.433 Q188.079 100.433 189.885 96.8916 Q191.713 93.3268 191.713 86.2204 Q191.713 79.0908 189.885 75.5492 Q188.079 71.9844 184.445 71.9844 M184.445 68.2807 Q190.255 68.2807 193.311 72.8871 Q196.389 77.4704 196.389 86.2204 Q196.389 94.9472 193.311 99.5537 Q190.255 104.137 184.445 104.137 Q178.635 104.137 175.556 99.5537 Q172.501 94.9472 172.501 86.2204 Q172.501 77.4704 175.556 72.8871 Q178.635 68.2807 184.445 68.2807 Z" fill="#000000" fill-rule="nonzero" fill-opacity="1" /><path clip-path="url(#clip110)" d="M16.4842 846.357 L16.4842 837.7 L56.238 816.629 L16.4842 816.629 L16.4842 810.391 L64.0042 810.391 L64.0042 819.048 L24.2503 840.119 L64.0042 840.119 L64.0042 846.357 L16.4842 846.357 Z" fill="#000000" fill-rule="nonzero" fill-opacity="1" /><path clip-path="url(#clip110)" d="M41.7242 775.061 Q42.4244 772.992 44.7161 771.051 Q47.0077 769.078 51.0181 767.104 L64.0042 760.579 L64.0042 767.486 L51.8138 773.565 Q47.0395 775.921 45.48 778.149 Q43.9204 780.345 43.9204 784.164 L43.9204 791.167 L64.0042 791.167 L64.0042 797.596 L16.4842 797.596 L16.4842 783.082 Q16.4842 774.934 19.8898 770.924 Q23.2955 766.913 30.1704 766.913 Q34.6582 766.913 37.6183 769.014 Q40.5784 771.083 41.7242 775.061 M21.7677 791.167 L38.6368 791.167 L38.6368 783.082 Q38.6368 778.435 36.5043 776.08 Q34.34 773.693 30.1704 773.693 Q26.0009 773.693 23.9002 776.08 Q21.7677 778.435 21.7677 783.082 L21.7677 791.167 Z" fill="#000000" fill-rule="nonzero" fill-opacity="1" /><path clip-path="url(#clip110)" d="M16.4842 752.304 L16.4842 742.724 L48.8219 730.597 L16.4842 718.407 L16.4842 708.826 L64.0042 708.826 L64.0042 715.096 L22.277 715.096 L54.8694 727.35 L54.8694 733.812 L22.277 746.065 L64.0042 746.065 L64.0042 752.304 L16.4842 752.304 Z" fill="#000000" fill-rule="nonzero" fill-opacity="1" /><path clip-path="url(#clip110)" d="M18.0438 667.576 L24.314 667.576 Q22.5634 671.237 21.704 674.483 Q20.8447 677.73 20.8447 680.753 Q20.8447 686.005 22.8817 688.87 Q24.9187 691.702 28.6745 691.702 Q31.8255 691.702 33.4488 689.824 Q35.0402 687.915 36.0269 682.631 L36.8226 678.748 Q38.1912 671.555 41.6605 668.149 Q45.098 664.712 50.8908 664.712 Q57.7976 664.712 61.3624 669.359 Q64.9272 673.974 64.9272 682.918 Q64.9272 686.292 64.1633 690.111 Q63.3994 693.899 61.9035 697.973 L55.2831 697.973 Q57.4793 694.058 58.5933 690.302 Q59.7073 686.546 59.7073 682.918 Q59.7073 677.411 57.543 674.419 Q55.3786 671.428 51.3682 671.428 Q47.8671 671.428 45.8937 673.592 Q43.9204 675.724 42.9337 680.626 L42.1698 684.541 Q40.7375 691.734 37.682 694.949 Q34.6264 698.164 29.1837 698.164 Q22.8817 698.164 19.2532 693.739 Q15.6248 689.283 15.6248 681.485 Q15.6248 678.143 16.2295 674.674 Q16.8343 671.205 18.0438 667.576 Z" fill="#000000" fill-rule="nonzero" fill-opacity="1" /><path clip-path="url(#clip110)" d="M16.4842 654.686 L16.4842 624.64 L21.895 624.64 L21.895 648.256 L35.9632 648.256 L35.9632 625.626 L41.3741 625.626 L41.3741 648.256 L58.5933 648.256 L58.5933 624.067 L64.0042 624.067 L64.0042 654.686 L16.4842 654.686 Z" fill="#000000" fill-rule="nonzero" fill-opacity="1" /><polyline clip-path="url(#clip111)" style="stroke:#ff0000; stroke-linecap:round; stroke-linejoin:round; stroke-width:8; stroke-opacity:1; fill:none" points="292.4,86.1857 425.756,639.666 559.112,976.206 692.469,1110.42 825.825,1166.88 959.182,1205.73 1092.54,1233.35 1225.89,1256.61 1359.25,1266.97 1492.61,1272.56 1625.96,1273.29 1759.32,1272.9 1892.68,1271.53 2026.03,1269.92 2159.39,1268.73 2292.75,1267.76 "/>
<circle clip-path="url(#clip111)" cx="292.4" cy="86.1857" r="14.4" fill="#ff0000" fill-rule="evenodd" fill-opacity="1" stroke="none"/>
<circle clip-path="url(#clip111)" cx="425.756" cy="639.666" r="14.4" fill="#ff0000" fill-rule="evenodd" fill-opacity="1" stroke="none"/>
<circle clip-path="url(#clip111)" cx="559.112" cy="976.206" r="14.4" fill="#ff0000" fill-rule="evenodd" fill-opacity="1" stroke="none"/>
<circle clip-path="url(#clip111)" cx="692.469" cy="1110.42" r="14.4" fill="#ff0000" fill-rule="evenodd" fill-opacity="1" stroke="none"/>
<circle clip-path="url(#clip111)" cx="825.825" cy="1166.88" r="14.4" fill="#ff0000" fill-rule="evenodd" fill-opacity="1" stroke="none"/>
<circle clip-path="url(#clip111)" cx="959.182" cy="1205.73" r="14.4" fill="#ff0000" fill-rule="evenodd" fill-opacity="1" stroke="none"/>
<circle clip-path="url(#clip111)" cx="1092.54" cy="1233.35" r="14.4" fill="#ff0000" fill-rule="evenodd" fill-opacity="1" stroke="none"/>
<circle clip-path="url(#clip111)" cx="1225.89" cy="1256.61" r="14.4" fill="#ff0000" fill-rule="evenodd" fill-opacity="1" stroke="none"/>
<circle clip-path="url(#clip111)" cx="1359.25" cy="1266.97" r="14.4" fill="#ff0000" fill-rule="evenodd" fill-opacity="1" stroke="none"/>
<circle clip-path="url(#clip111)" cx="1492.61" cy="1272.56" r="14.4" fill="#ff0000" fill-rule="evenodd" fill-opacity="1" stroke="none"/>
<circle clip-path="url(#clip111)" cx="1625.96" cy="1273.29" r="14.4" fill="#ff0000" fill-rule="evenodd" fill-opacity="1" stroke="none"/>
<circle clip-path="url(#clip111)" cx="1759.32" cy="1272.9" r="14.4" fill="#ff0000" fill-rule="evenodd" fill-opacity="1" stroke="none"/>
<circle clip-path="url(#clip111)" cx="1892.68" cy="1271.53" r="14.4" fill="#ff0000" fill-rule="evenodd" fill-opacity="1" stroke="none"/>
<circle clip-path="url(#clip111)" cx="2026.03" cy="1269.92" r="14.4" fill="#ff0000" fill-rule="evenodd" fill-opacity="1" stroke="none"/>
<circle clip-path="url(#clip111)" cx="2159.39" cy="1268.73" r="14.4" fill="#ff0000" fill-rule="evenodd" fill-opacity="1" stroke="none"/>
<circle clip-path="url(#clip111)" cx="2292.75" cy="1267.76" r="14.4" fill="#ff0000" fill-rule="evenodd" fill-opacity="1" stroke="none"/>
<polyline clip-path="url(#clip111)" style="stroke:#0000ff; stroke-linecap:round; stroke-linejoin:round; stroke-width:8; stroke-opacity:1; fill:none" points="292.4,86.1857 425.756,1157.58 559.112,1237.05 692.469,1245.36 825.825,1247.49 959.182,1250.03 1092.54,1250.8 1225.89,1251.7 1359.25,1252.95 1492.61,1253.65 1625.96,1254.27 1759.32,1254.67 1892.68,1254.86 2026.03,1255.02 2159.39,1255.08 2292.75,1255 "/>
<line clip-path="url(#clip111)" x1="292.4" y1="86.1857" x2="276.4" y2="70.1857" style="stroke:#0000ff; stroke-width:8; stroke-opacity:1"/>
<line clip-path="url(#clip111)" x1="292.4" y1="86.1857" x2="276.4" y2="102.186" style="stroke:#0000ff; stroke-width:8; stroke-opacity:1"/>
<line clip-path="url(#clip111)" x1="292.4" y1="86.1857" x2="308.4" y2="102.186" style="stroke:#0000ff; stroke-width:8; stroke-opacity:1"/>
<line clip-path="url(#clip111)" x1="292.4" y1="86.1857" x2="308.4" y2="70.1857" style="stroke:#0000ff; stroke-width:8; stroke-opacity:1"/>
<line clip-path="url(#clip111)" x1="425.756" y1="1157.58" x2="409.756" y2="1141.58" style="stroke:#0000ff; stroke-width:8; stroke-opacity:1"/>
<line clip-path="url(#clip111)" x1="425.756" y1="1157.58" x2="409.756" y2="1173.58" style="stroke:#0000ff; stroke-width:8; stroke-opacity:1"/>
<line clip-path="url(#clip111)" x1="425.756" y1="1157.58" x2="441.756" y2="1173.58" style="stroke:#0000ff; stroke-width:8; stroke-opacity:1"/>
<line clip-path="url(#clip111)" x1="425.756" y1="1157.58" x2="441.756" y2="1141.58" style="stroke:#0000ff; stroke-width:8; stroke-opacity:1"/>
<line clip-path="url(#clip111)" x1="559.112" y1="1237.05" x2="543.112" y2="1221.05" style="stroke:#0000ff; stroke-width:8; stroke-opacity:1"/>
<line clip-path="url(#clip111)" x1="559.112" y1="1237.05" x2="543.112" y2="1253.05" style="stroke:#0000ff; stroke-width:8; stroke-opacity:1"/>
<line clip-path="url(#clip111)" x1="559.112" y1="1237.05" x2="575.112" y2="1253.05" style="stroke:#0000ff; stroke-width:8; stroke-opacity:1"/>
<line clip-path="url(#clip111)" x1="559.112" y1="1237.05" x2="575.112" y2="1221.05" style="stroke:#0000ff; stroke-width:8; stroke-opacity:1"/>
<line clip-path="url(#clip111)" x1="692.469" y1="1245.36" x2="676.469" y2="1229.36" style="stroke:#0000ff; stroke-width:8; stroke-opacity:1"/>
<line clip-path="url(#clip111)" x1="692.469" y1="1245.36" x2="676.469" y2="1261.36" style="stroke:#0000ff; stroke-width:8; stroke-opacity:1"/>
<line clip-path="url(#clip111)" x1="692.469" y1="1245.36" x2="708.469" y2="1261.36" style="stroke:#0000ff; stroke-width:8; stroke-opacity:1"/>
<line clip-path="url(#clip111)" x1="692.469" y1="1245.36" x2="708.469" y2="1229.36" style="stroke:#0000ff; stroke-width:8; stroke-opacity:1"/>
<line clip-path="url(#clip111)" x1="825.825" y1="1247.49" x2="809.825" y2="1231.49" style="stroke:#0000ff; stroke-width:8; stroke-opacity:1"/>
<line clip-path="url(#clip111)" x1="825.825" y1="1247.49" x2="809.825" y2="1263.49" style="stroke:#0000ff; stroke-width:8; stroke-opacity:1"/>
<line clip-path="url(#clip111)" x1="825.825" y1="1247.49" x2="841.825" y2="1263.49" style="stroke:#0000ff; stroke-width:8; stroke-opacity:1"/>
<line clip-path="url(#clip111)" x1="825.825" y1="1247.49" x2="841.825" y2="1231.49" style="stroke:#0000ff; stroke-width:8; stroke-opacity:1"/>
<line clip-path="url(#clip111)" x1="959.182" y1="1250.03" x2="943.182" y2="1234.03" style="stroke:#0000ff; stroke-width:8; stroke-opacity:1"/>
<line clip-path="url(#clip111)" x1="959.182" y1="1250.03" x2="943.182" y2="1266.03" style="stroke:#0000ff; stroke-width:8; stroke-opacity:1"/>
<line clip-path="url(#clip111)" x1="959.182" y1="1250.03" x2="975.182" y2="1266.03" style="stroke:#0000ff; stroke-width:8; stroke-opacity:1"/>
<line clip-path="url(#clip111)" x1="959.182" y1="1250.03" x2="975.182" y2="1234.03" style="stroke:#0000ff; stroke-width:8; stroke-opacity:1"/>
<line clip-path="url(#clip111)" x1="1092.54" y1="1250.8" x2="1076.54" y2="1234.8" style="stroke:#0000ff; stroke-width:8; stroke-opacity:1"/>
<line clip-path="url(#clip111)" x1="1092.54" y1="1250.8" x2="1076.54" y2="1266.8" style="stroke:#0000ff; stroke-width:8; stroke-opacity:1"/>
<line clip-path="url(#clip111)" x1="1092.54" y1="1250.8" x2="1108.54" y2="1266.8" style="stroke:#0000ff; stroke-width:8; stroke-opacity:1"/>
<line clip-path="url(#clip111)" x1="1092.54" y1="1250.8" x2="1108.54" y2="1234.8" style="stroke:#0000ff; stroke-width:8; stroke-opacity:1"/>
<line clip-path="url(#clip111)" x1="1225.89" y1="1251.7" x2="1209.89" y2="1235.7" style="stroke:#0000ff; stroke-width:8; stroke-opacity:1"/>
<line clip-path="url(#clip111)" x1="1225.89" y1="1251.7" x2="1209.89" y2="1267.7" style="stroke:#0000ff; stroke-width:8; stroke-opacity:1"/>
<line clip-path="url(#clip111)" x1="1225.89" y1="1251.7" x2="1241.89" y2="1267.7" style="stroke:#0000ff; stroke-width:8; stroke-opacity:1"/>
<line clip-path="url(#clip111)" x1="1225.89" y1="1251.7" x2="1241.89" y2="1235.7" style="stroke:#0000ff; stroke-width:8; stroke-opacity:1"/>
<line clip-path="url(#clip111)" x1="1359.25" y1="1252.95" x2="1343.25" y2="1236.95" style="stroke:#0000ff; stroke-width:8; stroke-opacity:1"/>
<line clip-path="url(#clip111)" x1="1359.25" y1="1252.95" x2="1343.25" y2="1268.95" style="stroke:#0000ff; stroke-width:8; stroke-opacity:1"/>
<line clip-path="url(#clip111)" x1="1359.25" y1="1252.95" x2="1375.25" y2="1268.95" style="stroke:#0000ff; stroke-width:8; stroke-opacity:1"/>
<line clip-path="url(#clip111)" x1="1359.25" y1="1252.95" x2="1375.25" y2="1236.95" style="stroke:#0000ff; stroke-width:8; stroke-opacity:1"/>
<line clip-path="url(#clip111)" x1="1492.61" y1="1253.65" x2="1476.61" y2="1237.65" style="stroke:#0000ff; stroke-width:8; stroke-opacity:1"/>
<line clip-path="url(#clip111)" x1="1492.61" y1="1253.65" x2="1476.61" y2="1269.65" style="stroke:#0000ff; stroke-width:8; stroke-opacity:1"/>
<line clip-path="url(#clip111)" x1="1492.61" y1="1253.65" x2="1508.61" y2="1269.65" style="stroke:#0000ff; stroke-width:8; stroke-opacity:1"/>
<line clip-path="url(#clip111)" x1="1492.61" y1="1253.65" x2="1508.61" y2="1237.65" style="stroke:#0000ff; stroke-width:8; stroke-opacity:1"/>
<line clip-path="url(#clip111)" x1="1625.96" y1="1254.27" x2="1609.96" y2="1238.27" style="stroke:#0000ff; stroke-width:8; stroke-opacity:1"/>
<line clip-path="url(#clip111)" x1="1625.96" y1="1254.27" x2="1609.96" y2="1270.27" style="stroke:#0000ff; stroke-width:8; stroke-opacity:1"/>
<line clip-path="url(#clip111)" x1="1625.96" y1="1254.27" x2="1641.96" y2="1270.27" style="stroke:#0000ff; stroke-width:8; stroke-opacity:1"/>
<line clip-path="url(#clip111)" x1="1625.96" y1="1254.27" x2="1641.96" y2="1238.27" style="stroke:#0000ff; stroke-width:8; stroke-opacity:1"/>
<line clip-path="url(#clip111)" x1="1759.32" y1="1254.67" x2="1743.32" y2="1238.67" style="stroke:#0000ff; stroke-width:8; stroke-opacity:1"/>
<line clip-path="url(#clip111)" x1="1759.32" y1="1254.67" x2="1743.32" y2="1270.67" style="stroke:#0000ff; stroke-width:8; stroke-opacity:1"/>
<line clip-path="url(#clip111)" x1="1759.32" y1="1254.67" x2="1775.32" y2="1270.67" style="stroke:#0000ff; stroke-width:8; stroke-opacity:1"/>
<line clip-path="url(#clip111)" x1="1759.32" y1="1254.67" x2="1775.32" y2="1238.67" style="stroke:#0000ff; stroke-width:8; stroke-opacity:1"/>
<line clip-path="url(#clip111)" x1="1892.68" y1="1254.86" x2="1876.68" y2="1238.86" style="stroke:#0000ff; stroke-width:8; stroke-opacity:1"/>
<line clip-path="url(#clip111)" x1="1892.68" y1="1254.86" x2="1876.68" y2="1270.86" style="stroke:#0000ff; stroke-width:8; stroke-opacity:1"/>
<line clip-path="url(#clip111)" x1="1892.68" y1="1254.86" x2="1908.68" y2="1270.86" style="stroke:#0000ff; stroke-width:8; stroke-opacity:1"/>
<line clip-path="url(#clip111)" x1="1892.68" y1="1254.86" x2="1908.68" y2="1238.86" style="stroke:#0000ff; stroke-width:8; stroke-opacity:1"/>
<line clip-path="url(#clip111)" x1="2026.03" y1="1255.02" x2="2010.03" y2="1239.02" style="stroke:#0000ff; stroke-width:8; stroke-opacity:1"/>
<line clip-path="url(#clip111)" x1="2026.03" y1="1255.02" x2="2010.03" y2="1271.02" style="stroke:#0000ff; stroke-width:8; stroke-opacity:1"/>
<line clip-path="url(#clip111)" x1="2026.03" y1="1255.02" x2="2042.03" y2="1271.02" style="stroke:#0000ff; stroke-width:8; stroke-opacity:1"/>
<line clip-path="url(#clip111)" x1="2026.03" y1="1255.02" x2="2042.03" y2="1239.02" style="stroke:#0000ff; stroke-width:8; stroke-opacity:1"/>
<line clip-path="url(#clip111)" x1="2159.39" y1="1255.08" x2="2143.39" y2="1239.08" style="stroke:#0000ff; stroke-width:8; stroke-opacity:1"/>
<line clip-path="url(#clip111)" x1="2159.39" y1="1255.08" x2="2143.39" y2="1271.08" style="stroke:#0000ff; stroke-width:8; stroke-opacity:1"/>
<line clip-path="url(#clip111)" x1="2159.39" y1="1255.08" x2="2175.39" y2="1271.08" style="stroke:#0000ff; stroke-width:8; stroke-opacity:1"/>
<line clip-path="url(#clip111)" x1="2159.39" y1="1255.08" x2="2175.39" y2="1239.08" style="stroke:#0000ff; stroke-width:8; stroke-opacity:1"/>
<line clip-path="url(#clip111)" x1="2292.75" y1="1255" x2="2276.75" y2="1239" style="stroke:#0000ff; stroke-width:8; stroke-opacity:1"/>
<line clip-path="url(#clip111)" x1="2292.75" y1="1255" x2="2276.75" y2="1271" style="stroke:#0000ff; stroke-width:8; stroke-opacity:1"/>
<line clip-path="url(#clip111)" x1="2292.75" y1="1255" x2="2308.75" y2="1271" style="stroke:#0000ff; stroke-width:8; stroke-opacity:1"/>
<line clip-path="url(#clip111)" x1="2292.75" y1="1255" x2="2308.75" y2="1239" style="stroke:#0000ff; stroke-width:8; stroke-opacity:1"/>
<polyline clip-path="url(#clip111)" style="stroke:#008000; stroke-linecap:round; stroke-linejoin:round; stroke-width:8; stroke-opacity:1; fill:none" points="292.4,1152.61 425.756,1242.68 559.112,1257.57 692.469,1272.77 825.825,1278.5 959.182,1280.62 1092.54,1281.46 1225.89,1279.89 1359.25,1276.33 1492.61,1272.6 1625.96,1271.18 1759.32,1268.9 1892.68,1266.88 2026.03,1266.2 2159.39,1265.94 2292.75,1266.09 "/>
<line clip-path="url(#clip111)" x1="292.4" y1="1152.61" x2="292.4" y2="1136.61" style="stroke:#008000; stroke-width:8; stroke-opacity:1"/>
<line clip-path="url(#clip111)" x1="292.4" y1="1152.61" x2="276.4" y2="1152.61" style="stroke:#008000; stroke-width:8; stroke-opacity:1"/>
<line clip-path="url(#clip111)" x1="292.4" y1="1152.61" x2="292.4" y2="1168.61" style="stroke:#008000; stroke-width:8; stroke-opacity:1"/>
<line clip-path="url(#clip111)" x1="292.4" y1="1152.61" x2="308.4" y2="1152.61" style="stroke:#008000; stroke-width:8; stroke-opacity:1"/>
<line clip-path="url(#clip111)" x1="425.756" y1="1242.68" x2="425.756" y2="1226.68" style="stroke:#008000; stroke-width:8; stroke-opacity:1"/>
<line clip-path="url(#clip111)" x1="425.756" y1="1242.68" x2="409.756" y2="1242.68" style="stroke:#008000; stroke-width:8; stroke-opacity:1"/>
<line clip-path="url(#clip111)" x1="425.756" y1="1242.68" x2="425.756" y2="1258.68" style="stroke:#008000; stroke-width:8; stroke-opacity:1"/>
<line clip-path="url(#clip111)" x1="425.756" y1="1242.68" x2="441.756" y2="1242.68" style="stroke:#008000; stroke-width:8; stroke-opacity:1"/>
<line clip-path="url(#clip111)" x1="559.112" y1="1257.57" x2="559.112" y2="1241.57" style="stroke:#008000; stroke-width:8; stroke-opacity:1"/>
<line clip-path="url(#clip111)" x1="559.112" y1="1257.57" x2="543.112" y2="1257.57" style="stroke:#008000; stroke-width:8; stroke-opacity:1"/>
<line clip-path="url(#clip111)" x1="559.112" y1="1257.57" x2="559.112" y2="1273.57" style="stroke:#008000; stroke-width:8; stroke-opacity:1"/>
<line clip-path="url(#clip111)" x1="559.112" y1="1257.57" x2="575.112" y2="1257.57" style="stroke:#008000; stroke-width:8; stroke-opacity:1"/>
<line clip-path="url(#clip111)" x1="692.469" y1="1272.77" x2="692.469" y2="1256.77" style="stroke:#008000; stroke-width:8; stroke-opacity:1"/>
<line clip-path="url(#clip111)" x1="692.469" y1="1272.77" x2="676.469" y2="1272.77" style="stroke:#008000; stroke-width:8; stroke-opacity:1"/>
<line clip-path="url(#clip111)" x1="692.469" y1="1272.77" x2="692.469" y2="1288.77" style="stroke:#008000; stroke-width:8; stroke-opacity:1"/>
<line clip-path="url(#clip111)" x1="692.469" y1="1272.77" x2="708.469" y2="1272.77" style="stroke:#008000; stroke-width:8; stroke-opacity:1"/>
<line clip-path="url(#clip111)" x1="825.825" y1="1278.5" x2="825.825" y2="1262.5" style="stroke:#008000; stroke-width:8; stroke-opacity:1"/>
<line clip-path="url(#clip111)" x1="825.825" y1="1278.5" x2="809.825" y2="1278.5" style="stroke:#008000; stroke-width:8; stroke-opacity:1"/>
<line clip-path="url(#clip111)" x1="825.825" y1="1278.5" x2="825.825" y2="1294.5" style="stroke:#008000; stroke-width:8; stroke-opacity:1"/>
<line clip-path="url(#clip111)" x1="825.825" y1="1278.5" x2="841.825" y2="1278.5" style="stroke:#008000; stroke-width:8; stroke-opacity:1"/>
<line clip-path="url(#clip111)" x1="959.182" y1="1280.62" x2="959.182" y2="1264.62" style="stroke:#008000; stroke-width:8; stroke-opacity:1"/>
<line clip-path="url(#clip111)" x1="959.182" y1="1280.62" x2="943.182" y2="1280.62" style="stroke:#008000; stroke-width:8; stroke-opacity:1"/>
<line clip-path="url(#clip111)" x1="959.182" y1="1280.62" x2="959.182" y2="1296.62" style="stroke:#008000; stroke-width:8; stroke-opacity:1"/>
<line clip-path="url(#clip111)" x1="959.182" y1="1280.62" x2="975.182" y2="1280.62" style="stroke:#008000; stroke-width:8; stroke-opacity:1"/>
<line clip-path="url(#clip111)" x1="1092.54" y1="1281.46" x2="1092.54" y2="1265.46" style="stroke:#008000; stroke-width:8; stroke-opacity:1"/>
<line clip-path="url(#clip111)" x1="1092.54" y1="1281.46" x2="1076.54" y2="1281.46" style="stroke:#008000; stroke-width:8; stroke-opacity:1"/>
<line clip-path="url(#clip111)" x1="1092.54" y1="1281.46" x2="1092.54" y2="1297.46" style="stroke:#008000; stroke-width:8; stroke-opacity:1"/>
<line clip-path="url(#clip111)" x1="1092.54" y1="1281.46" x2="1108.54" y2="1281.46" style="stroke:#008000; stroke-width:8; stroke-opacity:1"/>
<line clip-path="url(#clip111)" x1="1225.89" y1="1279.89" x2="1225.89" y2="1263.89" style="stroke:#008000; stroke-width:8; stroke-opacity:1"/>
<line clip-path="url(#clip111)" x1="1225.89" y1="1279.89" x2="1209.89" y2="1279.89" style="stroke:#008000; stroke-width:8; stroke-opacity:1"/>
<line clip-path="url(#clip111)" x1="1225.89" y1="1279.89" x2="1225.89" y2="1295.89" style="stroke:#008000; stroke-width:8; stroke-opacity:1"/>
<line clip-path="url(#clip111)" x1="1225.89" y1="1279.89" x2="1241.89" y2="1279.89" style="stroke:#008000; stroke-width:8; stroke-opacity:1"/>
<line clip-path="url(#clip111)" x1="1359.25" y1="1276.33" x2="1359.25" y2="1260.33" style="stroke:#008000; stroke-width:8; stroke-opacity:1"/>
<line clip-path="url(#clip111)" x1="1359.25" y1="1276.33" x2="1343.25" y2="1276.33" style="stroke:#008000; stroke-width:8; stroke-opacity:1"/>
<line clip-path="url(#clip111)" x1="1359.25" y1="1276.33" x2="1359.25" y2="1292.33" style="stroke:#008000; stroke-width:8; stroke-opacity:1"/>
<line clip-path="url(#clip111)" x1="1359.25" y1="1276.33" x2="1375.25" y2="1276.33" style="stroke:#008000; stroke-width:8; stroke-opacity:1"/>
<line clip-path="url(#clip111)" x1="1492.61" y1="1272.6" x2="1492.61" y2="1256.6" style="stroke:#008000; stroke-width:8; stroke-opacity:1"/>
<line clip-path="url(#clip111)" x1="1492.61" y1="1272.6" x2="1476.61" y2="1272.6" style="stroke:#008000; stroke-width:8; stroke-opacity:1"/>
<line clip-path="url(#clip111)" x1="1492.61" y1="1272.6" x2="1492.61" y2="1288.6" style="stroke:#008000; stroke-width:8; stroke-opacity:1"/>
<line clip-path="url(#clip111)" x1="1492.61" y1="1272.6" x2="1508.61" y2="1272.6" style="stroke:#008000; stroke-width:8; stroke-opacity:1"/>
<line clip-path="url(#clip111)" x1="1625.96" y1="1271.18" x2="1625.96" y2="1255.18" style="stroke:#008000; stroke-width:8; stroke-opacity:1"/>
<line clip-path="url(#clip111)" x1="1625.96" y1="1271.18" x2="1609.96" y2="1271.18" style="stroke:#008000; stroke-width:8; stroke-opacity:1"/>
<line clip-path="url(#clip111)" x1="1625.96" y1="1271.18" x2="1625.96" y2="1287.18" style="stroke:#008000; stroke-width:8; stroke-opacity:1"/>
<line clip-path="url(#clip111)" x1="1625.96" y1="1271.18" x2="1641.96" y2="1271.18" style="stroke:#008000; stroke-width:8; stroke-opacity:1"/>
<line clip-path="url(#clip111)" x1="1759.32" y1="1268.9" x2="1759.32" y2="1252.9" style="stroke:#008000; stroke-width:8; stroke-opacity:1"/>
<line clip-path="url(#clip111)" x1="1759.32" y1="1268.9" x2="1743.32" y2="1268.9" style="stroke:#008000; stroke-width:8; stroke-opacity:1"/>
<line clip-path="url(#clip111)" x1="1759.32" y1="1268.9" x2="1759.32" y2="1284.9" style="stroke:#008000; stroke-width:8; stroke-opacity:1"/>
<line clip-path="url(#clip111)" x1="1759.32" y1="1268.9" x2="1775.32" y2="1268.9" style="stroke:#008000; stroke-width:8; stroke-opacity:1"/>
<line clip-path="url(#clip111)" x1="1892.68" y1="1266.88" x2="1892.68" y2="1250.88" style="stroke:#008000; stroke-width:8; stroke-opacity:1"/>
<line clip-path="url(#clip111)" x1="1892.68" y1="1266.88" x2="1876.68" y2="1266.88" style="stroke:#008000; stroke-width:8; stroke-opacity:1"/>
<line clip-path="url(#clip111)" x1="1892.68" y1="1266.88" x2="1892.68" y2="1282.88" style="stroke:#008000; stroke-width:8; stroke-opacity:1"/>
<line clip-path="url(#clip111)" x1="1892.68" y1="1266.88" x2="1908.68" y2="1266.88" style="stroke:#008000; stroke-width:8; stroke-opacity:1"/>
<line clip-path="url(#clip111)" x1="2026.03" y1="1266.2" x2="2026.03" y2="1250.2" style="stroke:#008000; stroke-width:8; stroke-opacity:1"/>
<line clip-path="url(#clip111)" x1="2026.03" y1="1266.2" x2="2010.03" y2="1266.2" style="stroke:#008000; stroke-width:8; stroke-opacity:1"/>
<line clip-path="url(#clip111)" x1="2026.03" y1="1266.2" x2="2026.03" y2="1282.2" style="stroke:#008000; stroke-width:8; stroke-opacity:1"/>
<line clip-path="url(#clip111)" x1="2026.03" y1="1266.2" x2="2042.03" y2="1266.2" style="stroke:#008000; stroke-width:8; stroke-opacity:1"/>
<line clip-path="url(#clip111)" x1="2159.39" y1="1265.94" x2="2159.39" y2="1249.94" style="stroke:#008000; stroke-width:8; stroke-opacity:1"/>
<line clip-path="url(#clip111)" x1="2159.39" y1="1265.94" x2="2143.39" y2="1265.94" style="stroke:#008000; stroke-width:8; stroke-opacity:1"/>
<line clip-path="url(#clip111)" x1="2159.39" y1="1265.94" x2="2159.39" y2="1281.94" style="stroke:#008000; stroke-width:8; stroke-opacity:1"/>
<line clip-path="url(#clip111)" x1="2159.39" y1="1265.94" x2="2175.39" y2="1265.94" style="stroke:#008000; stroke-width:8; stroke-opacity:1"/>
<line clip-path="url(#clip111)" x1="2292.75" y1="1266.09" x2="2292.75" y2="1250.09" style="stroke:#008000; stroke-width:8; stroke-opacity:1"/>
<line clip-path="url(#clip111)" x1="2292.75" y1="1266.09" x2="2276.75" y2="1266.09" style="stroke:#008000; stroke-width:8; stroke-opacity:1"/>
<line clip-path="url(#clip111)" x1="2292.75" y1="1266.09" x2="2292.75" y2="1282.09" style="stroke:#008000; stroke-width:8; stroke-opacity:1"/>
<line clip-path="url(#clip111)" x1="2292.75" y1="1266.09" x2="2308.75" y2="1266.09" style="stroke:#008000; stroke-width:8; stroke-opacity:1"/>
<path clip-path="url(#clip110)" d="M1291.62 300.469 L2282.08 300.469 L2282.08 93.1086 L1291.62 93.1086  Z" fill="#ffffff" fill-rule="evenodd" fill-opacity="1"/>
<polyline clip-path="url(#clip110)" style="stroke:#000000; stroke-linecap:round; stroke-linejoin:round; stroke-width:4; stroke-opacity:1; fill:none" points="1291.62,300.469 2282.08,300.469 2282.08,93.1086 1291.62,93.1086 1291.62,300.469 "/>
<polyline clip-path="url(#clip110)" style="stroke:#ff0000; stroke-linecap:round; stroke-linejoin:round; stroke-width:8; stroke-opacity:1; fill:none" points="1315.18,144.949 1456.54,144.949 "/>
<circle clip-path="url(#clip110)" cx="1385.86" cy="144.949" r="19.633" fill="#ff0000" fill-rule="evenodd" fill-opacity="1" stroke="none"/>
<path clip-path="url(#clip110)" d="M1480.1 127.669 L1486.39 127.669 L1501.72 156.581 L1501.72 127.669 L1506.25 127.669 L1506.25 162.229 L1499.96 162.229 L1484.63 133.317 L1484.63 162.229 L1480.1 162.229 L1480.1 127.669 Z" fill="#000000" fill-rule="nonzero" fill-opacity="1" /><path clip-path="url(#clip110)" d="M1525.42 139.289 Q1521.99 139.289 1520 141.974 Q1518.01 144.636 1518.01 149.289 Q1518.01 153.942 1519.98 156.627 Q1521.97 159.289 1525.42 159.289 Q1528.82 159.289 1530.81 156.604 Q1532.8 153.918 1532.8 149.289 Q1532.8 144.682 1530.81 141.997 Q1528.82 139.289 1525.42 139.289 M1525.42 135.678 Q1530.97 135.678 1534.15 139.289 Q1537.32 142.9 1537.32 149.289 Q1537.32 155.655 1534.15 159.289 Q1530.97 162.9 1525.42 162.9 Q1519.84 162.9 1516.67 159.289 Q1513.52 155.655 1513.52 149.289 Q1513.52 142.9 1516.67 139.289 Q1519.84 135.678 1525.42 135.678 Z" fill="#000000" fill-rule="nonzero" fill-opacity="1" /><path clip-path="url(#clip110)" d="M1565.93 146.581 L1565.93 162.229 L1561.67 162.229 L1561.67 146.719 Q1561.67 143.039 1560.23 141.21 Q1558.8 139.382 1555.93 139.382 Q1552.48 139.382 1550.49 141.581 Q1548.5 143.78 1548.5 147.576 L1548.5 162.229 L1544.22 162.229 L1544.22 136.303 L1548.5 136.303 L1548.5 140.331 Q1550.03 137.993 1552.09 136.835 Q1554.17 135.678 1556.88 135.678 Q1561.35 135.678 1563.64 138.456 Q1565.93 141.21 1565.93 146.581 Z" fill="#000000" fill-rule="nonzero" fill-opacity="1" /><path clip-path="url(#clip110)" d="M1572.27 147.344 L1584.75 147.344 L1584.75 151.141 L1572.27 151.141 L1572.27 147.344 Z" fill="#000000" fill-rule="nonzero" fill-opacity="1" /><path clip-path="url(#clip110)" d="M1595.65 158.34 L1595.65 172.09 L1591.37 172.09 L1591.37 136.303 L1595.65 136.303 L1595.65 140.238 Q1596.99 137.923 1599.03 136.812 Q1601.09 135.678 1603.94 135.678 Q1608.66 135.678 1611.6 139.428 Q1614.56 143.178 1614.56 149.289 Q1614.56 155.4 1611.6 159.15 Q1608.66 162.9 1603.94 162.9 Q1601.09 162.9 1599.03 161.789 Q1596.99 160.655 1595.65 158.34 M1610.14 149.289 Q1610.14 144.59 1608.2 141.928 Q1606.28 139.243 1602.9 139.243 Q1599.52 139.243 1597.57 141.928 Q1595.65 144.59 1595.65 149.289 Q1595.65 153.988 1597.57 156.673 Q1599.52 159.335 1602.9 159.335 Q1606.28 159.335 1608.2 156.673 Q1610.14 153.988 1610.14 149.289 Z" fill="#000000" fill-rule="nonzero" fill-opacity="1" /><path clip-path="url(#clip110)" d="M1636.65 140.284 Q1635.93 139.868 1635.07 139.682 Q1634.24 139.474 1633.22 139.474 Q1629.61 139.474 1627.66 141.835 Q1625.74 144.173 1625.74 148.571 L1625.74 162.229 L1621.46 162.229 L1621.46 136.303 L1625.74 136.303 L1625.74 140.331 Q1627.09 137.969 1629.24 136.835 Q1631.39 135.678 1634.47 135.678 Q1634.91 135.678 1635.44 135.747 Q1635.97 135.794 1636.62 135.909 L1636.65 140.284 Z" fill="#000000" fill-rule="nonzero" fill-opacity="1" /><path clip-path="url(#clip110)" d="M1662.25 148.201 L1662.25 150.284 L1642.66 150.284 Q1642.94 154.682 1645.3 156.997 Q1647.69 159.289 1651.92 159.289 Q1654.38 159.289 1656.67 158.687 Q1658.98 158.085 1661.25 156.881 L1661.25 160.909 Q1658.96 161.881 1656.55 162.391 Q1654.15 162.9 1651.67 162.9 Q1645.47 162.9 1641.83 159.289 Q1638.22 155.678 1638.22 149.52 Q1638.22 143.155 1641.65 139.428 Q1645.09 135.678 1650.93 135.678 Q1656.16 135.678 1659.19 139.057 Q1662.25 142.414 1662.25 148.201 M1657.99 146.951 Q1657.94 143.456 1656.02 141.372 Q1654.12 139.289 1650.97 139.289 Q1647.41 139.289 1645.26 141.303 Q1643.13 143.317 1642.8 146.974 L1657.99 146.951 Z" fill="#000000" fill-rule="nonzero" fill-opacity="1" /><path clip-path="url(#clip110)" d="M1687.9 137.298 L1687.9 141.28 Q1686.09 140.284 1684.26 139.798 Q1682.46 139.289 1680.6 139.289 Q1676.46 139.289 1674.17 141.928 Q1671.88 144.544 1671.88 149.289 Q1671.88 154.034 1674.17 156.673 Q1676.46 159.289 1680.6 159.289 Q1682.46 159.289 1684.26 158.803 Q1686.09 158.293 1687.9 157.298 L1687.9 161.233 Q1686.11 162.067 1684.19 162.483 Q1682.29 162.9 1680.14 162.9 Q1674.28 162.9 1670.84 159.219 Q1667.39 155.539 1667.39 149.289 Q1667.39 142.946 1670.86 139.312 Q1674.35 135.678 1680.42 135.678 Q1682.39 135.678 1684.26 136.095 Q1686.14 136.488 1687.9 137.298 Z" fill="#000000" fill-rule="nonzero" fill-opacity="1" /><path clip-path="url(#clip110)" d="M1705.35 139.289 Q1701.92 139.289 1699.93 141.974 Q1697.94 144.636 1697.94 149.289 Q1697.94 153.942 1699.91 156.627 Q1701.9 159.289 1705.35 159.289 Q1708.75 159.289 1710.74 156.604 Q1712.73 153.918 1712.73 149.289 Q1712.73 144.682 1710.74 141.997 Q1708.75 139.289 1705.35 139.289 M1705.35 135.678 Q1710.9 135.678 1714.08 139.289 Q1717.25 142.9 1717.25 149.289 Q1717.25 155.655 1714.08 159.289 Q1710.9 162.9 1705.35 162.9 Q1699.77 162.9 1696.6 159.289 Q1693.45 155.655 1693.45 149.289 Q1693.45 142.9 1696.6 139.289 Q1699.77 135.678 1705.35 135.678 Z" fill="#000000" fill-rule="nonzero" fill-opacity="1" /><path clip-path="url(#clip110)" d="M1745.86 146.581 L1745.86 162.229 L1741.6 162.229 L1741.6 146.719 Q1741.6 143.039 1740.16 141.21 Q1738.73 139.382 1735.86 139.382 Q1732.41 139.382 1730.42 141.581 Q1728.43 143.78 1728.43 147.576 L1728.43 162.229 L1724.15 162.229 L1724.15 136.303 L1728.43 136.303 L1728.43 140.331 Q1729.96 137.993 1732.02 136.835 Q1734.1 135.678 1736.81 135.678 Q1741.27 135.678 1743.57 138.456 Q1745.86 141.21 1745.86 146.581 Z" fill="#000000" fill-rule="nonzero" fill-opacity="1" /><path clip-path="url(#clip110)" d="M1771.41 140.238 L1771.41 126.21 L1775.67 126.21 L1775.67 162.229 L1771.41 162.229 L1771.41 158.34 Q1770.07 160.655 1768.01 161.789 Q1765.97 162.9 1763.1 162.9 Q1758.4 162.9 1755.44 159.15 Q1752.5 155.4 1752.5 149.289 Q1752.5 143.178 1755.44 139.428 Q1758.4 135.678 1763.1 135.678 Q1765.97 135.678 1768.01 136.812 Q1770.07 137.923 1771.41 140.238 M1756.9 149.289 Q1756.9 153.988 1758.82 156.673 Q1760.77 159.335 1764.15 159.335 Q1767.52 159.335 1769.47 156.673 Q1771.41 153.988 1771.41 149.289 Q1771.41 144.59 1769.47 141.928 Q1767.52 139.243 1764.15 139.243 Q1760.77 139.243 1758.82 141.928 Q1756.9 144.59 1756.9 149.289 Z" fill="#000000" fill-rule="nonzero" fill-opacity="1" /><path clip-path="url(#clip110)" d="M1784.45 136.303 L1788.71 136.303 L1788.71 162.229 L1784.45 162.229 L1784.45 136.303 M1784.45 126.21 L1788.71 126.21 L1788.71 131.604 L1784.45 131.604 L1784.45 126.21 Z" fill="#000000" fill-rule="nonzero" fill-opacity="1" /><path clip-path="url(#clip110)" d="M1801.83 128.942 L1801.83 136.303 L1810.6 136.303 L1810.6 139.613 L1801.83 139.613 L1801.83 153.687 Q1801.83 156.858 1802.69 157.761 Q1803.57 158.664 1806.23 158.664 L1810.6 158.664 L1810.6 162.229 L1806.23 162.229 Q1801.3 162.229 1799.42 160.4 Q1797.55 158.548 1797.55 153.687 L1797.55 139.613 L1794.42 139.613 L1794.42 136.303 L1797.55 136.303 L1797.55 128.942 L1801.83 128.942 Z" fill="#000000" fill-rule="nonzero" fill-opacity="1" /><path clip-path="url(#clip110)" d="M1816.2 136.303 L1820.46 136.303 L1820.46 162.229 L1816.2 162.229 L1816.2 136.303 M1816.2 126.21 L1820.46 126.21 L1820.46 131.604 L1816.2 131.604 L1816.2 126.21 Z" fill="#000000" fill-rule="nonzero" fill-opacity="1" /><path clip-path="url(#clip110)" d="M1839.42 139.289 Q1836 139.289 1834.01 141.974 Q1832.02 144.636 1832.02 149.289 Q1832.02 153.942 1833.98 156.627 Q1835.97 159.289 1839.42 159.289 Q1842.83 159.289 1844.82 156.604 Q1846.81 153.918 1846.81 149.289 Q1846.81 144.682 1844.82 141.997 Q1842.83 139.289 1839.42 139.289 M1839.42 135.678 Q1844.98 135.678 1848.15 139.289 Q1851.32 142.9 1851.32 149.289 Q1851.32 155.655 1848.15 159.289 Q1844.98 162.9 1839.42 162.9 Q1833.84 162.9 1830.67 159.289 Q1827.52 155.655 1827.52 149.289 Q1827.52 142.9 1830.67 139.289 Q1833.84 135.678 1839.42 135.678 Z" fill="#000000" fill-rule="nonzero" fill-opacity="1" /><path clip-path="url(#clip110)" d="M1879.93 146.581 L1879.93 162.229 L1875.67 162.229 L1875.67 146.719 Q1875.67 143.039 1874.24 141.21 Q1872.8 139.382 1869.93 139.382 Q1866.48 139.382 1864.49 141.581 Q1862.5 143.78 1862.5 147.576 L1862.5 162.229 L1858.22 162.229 L1858.22 136.303 L1862.5 136.303 L1862.5 140.331 Q1864.03 137.993 1866.09 136.835 Q1868.17 135.678 1870.88 135.678 Q1875.35 135.678 1877.64 138.456 Q1879.93 141.21 1879.93 146.581 Z" fill="#000000" fill-rule="nonzero" fill-opacity="1" /><path clip-path="url(#clip110)" d="M1910.6 148.201 L1910.6 150.284 L1891.02 150.284 Q1891.3 154.682 1893.66 156.997 Q1896.04 159.289 1900.28 159.289 Q1902.73 159.289 1905.02 158.687 Q1907.34 158.085 1909.61 156.881 L1909.61 160.909 Q1907.32 161.881 1904.91 162.391 Q1902.5 162.9 1900.02 162.9 Q1893.82 162.9 1890.19 159.289 Q1886.57 155.678 1886.57 149.52 Q1886.57 143.155 1890 139.428 Q1893.45 135.678 1899.28 135.678 Q1904.51 135.678 1907.55 139.057 Q1910.6 142.414 1910.6 148.201 M1906.34 146.951 Q1906.3 143.456 1904.38 141.372 Q1902.48 139.289 1899.33 139.289 Q1895.76 139.289 1893.61 141.303 Q1891.48 143.317 1891.16 146.974 L1906.34 146.951 Z" fill="#000000" fill-rule="nonzero" fill-opacity="1" /><path clip-path="url(#clip110)" d="M1934.65 140.238 L1934.65 126.21 L1938.91 126.21 L1938.91 162.229 L1934.65 162.229 L1934.65 158.34 Q1933.31 160.655 1931.25 161.789 Q1929.21 162.9 1926.34 162.9 Q1921.64 162.9 1918.68 159.15 Q1915.74 155.4 1915.74 149.289 Q1915.74 143.178 1918.68 139.428 Q1921.64 135.678 1926.34 135.678 Q1929.21 135.678 1931.25 136.812 Q1933.31 137.923 1934.65 140.238 M1920.14 149.289 Q1920.14 153.988 1922.06 156.673 Q1924.01 159.335 1927.38 159.335 Q1930.76 159.335 1932.71 156.673 Q1934.65 153.988 1934.65 149.289 Q1934.65 144.59 1932.71 141.928 Q1930.76 139.243 1927.38 139.243 Q1924.01 139.243 1922.06 141.928 Q1920.14 144.59 1920.14 149.289 Z" fill="#000000" fill-rule="nonzero" fill-opacity="1" /><path clip-path="url(#clip110)" d="M1948.77 156.349 L1953.66 156.349 L1953.66 160.33 L1949.86 167.738 L1946.88 167.738 L1948.77 160.33 L1948.77 156.349 Z" fill="#000000" fill-rule="nonzero" fill-opacity="1" /><path clip-path="url(#clip110)" d="M1988.43 130.747 Q1984.82 130.747 1982.99 134.312 Q1981.18 137.854 1981.18 144.983 Q1981.18 152.09 1982.99 155.655 Q1984.82 159.196 1988.43 159.196 Q1992.06 159.196 1993.87 155.655 Q1995.69 152.09 1995.69 144.983 Q1995.69 137.854 1993.87 134.312 Q1992.06 130.747 1988.43 130.747 M1988.43 127.044 Q1994.24 127.044 1997.29 131.65 Q2000.37 136.233 2000.37 144.983 Q2000.37 153.71 1997.29 158.317 Q1994.24 162.9 1988.43 162.9 Q1982.62 162.9 1979.54 158.317 Q1976.48 153.71 1976.48 144.983 Q1976.48 136.233 1979.54 131.65 Q1982.62 127.044 1988.43 127.044 Z" fill="#000000" fill-rule="nonzero" fill-opacity="1" /><path clip-path="url(#clip110)" d="M2023.06 136.303 L2027.31 136.303 L2027.31 162.229 L2023.06 162.229 L2023.06 136.303 M2023.06 126.21 L2027.31 126.21 L2027.31 131.604 L2023.06 131.604 L2023.06 126.21 Z" fill="#000000" fill-rule="nonzero" fill-opacity="1" /><path clip-path="url(#clip110)" d="M2057.78 146.581 L2057.78 162.229 L2053.52 162.229 L2053.52 146.719 Q2053.52 143.039 2052.08 141.21 Q2050.65 139.382 2047.78 139.382 Q2044.33 139.382 2042.34 141.581 Q2040.35 143.78 2040.35 147.576 L2040.35 162.229 L2036.06 162.229 L2036.06 136.303 L2040.35 136.303 L2040.35 140.331 Q2041.88 137.993 2043.94 136.835 Q2046.02 135.678 2048.73 135.678 Q2053.19 135.678 2055.49 138.456 Q2057.78 141.21 2057.78 146.581 Z" fill="#000000" fill-rule="nonzero" fill-opacity="1" /><path clip-path="url(#clip110)" d="M2066.27 136.303 L2070.53 136.303 L2070.53 162.229 L2066.27 162.229 L2066.27 136.303 M2066.27 126.21 L2070.53 126.21 L2070.53 131.604 L2066.27 131.604 L2066.27 126.21 Z" fill="#000000" fill-rule="nonzero" fill-opacity="1" /><path clip-path="url(#clip110)" d="M2083.66 128.942 L2083.66 136.303 L2092.43 136.303 L2092.43 139.613 L2083.66 139.613 L2083.66 153.687 Q2083.66 156.858 2084.51 157.761 Q2085.39 158.664 2088.06 158.664 L2092.43 158.664 L2092.43 162.229 L2088.06 162.229 Q2083.12 162.229 2081.25 160.4 Q2079.37 158.548 2079.37 153.687 L2079.37 139.613 L2076.25 139.613 L2076.25 136.303 L2079.37 136.303 L2079.37 128.942 L2083.66 128.942 Z" fill="#000000" fill-rule="nonzero" fill-opacity="1" /><polyline clip-path="url(#clip110)" style="stroke:#0000ff; stroke-linecap:round; stroke-linejoin:round; stroke-width:8; stroke-opacity:1; fill:none" points="1315.18,196.789 1456.54,196.789 "/>
<line clip-path="url(#clip110)" x1="1385.86" y1="196.789" x2="1364.04" y2="174.974" style="stroke:#0000ff; stroke-width:8; stroke-opacity:1"/>
<line clip-path="url(#clip110)" x1="1385.86" y1="196.789" x2="1364.04" y2="218.603" style="stroke:#0000ff; stroke-width:8; stroke-opacity:1"/>
<line clip-path="url(#clip110)" x1="1385.86" y1="196.789" x2="1407.67" y2="218.603" style="stroke:#0000ff; stroke-width:8; stroke-opacity:1"/>
<line clip-path="url(#clip110)" x1="1385.86" y1="196.789" x2="1407.67" y2="174.974" style="stroke:#0000ff; stroke-width:8; stroke-opacity:1"/>
<path clip-path="url(#clip110)" d="M1484.77 183.351 L1484.77 210.226 L1490.42 210.226 Q1497.57 210.226 1500.88 206.985 Q1504.22 203.745 1504.22 196.754 Q1504.22 189.809 1500.88 186.592 Q1497.57 183.351 1490.42 183.351 L1484.77 183.351 M1480.1 179.509 L1489.7 179.509 Q1499.75 179.509 1504.45 183.698 Q1509.15 187.865 1509.15 196.754 Q1509.15 205.689 1504.42 209.879 Q1499.7 214.069 1489.7 214.069 L1480.1 214.069 L1480.1 179.509 Z" fill="#000000" fill-rule="nonzero" fill-opacity="1" /><path clip-path="url(#clip110)" d="M1542.48 182.171 L1542.48 187.101 Q1540.12 184.902 1537.43 183.814 Q1534.77 182.726 1531.76 182.726 Q1525.84 182.726 1522.69 186.36 Q1519.54 189.972 1519.54 196.823 Q1519.54 203.652 1522.69 207.286 Q1525.84 210.897 1531.76 210.897 Q1534.77 210.897 1537.43 209.809 Q1540.12 208.721 1542.48 206.522 L1542.48 211.407 Q1540.03 213.073 1537.27 213.907 Q1534.54 214.74 1531.48 214.74 Q1523.64 214.74 1519.12 209.948 Q1514.61 205.133 1514.61 196.823 Q1514.61 188.49 1519.12 183.698 Q1523.64 178.884 1531.48 178.884 Q1534.59 178.884 1537.32 179.717 Q1540.07 180.527 1542.48 182.171 Z" fill="#000000" fill-rule="nonzero" fill-opacity="1" /><path clip-path="url(#clip110)" d="M1549.7 179.509 L1569.56 179.509 L1569.56 183.444 L1554.38 183.444 L1554.38 193.629 L1568.08 193.629 L1568.08 197.564 L1554.38 197.564 L1554.38 214.069 L1549.7 214.069 L1549.7 179.509 Z" fill="#000000" fill-rule="nonzero" fill-opacity="1" /><path clip-path="url(#clip110)" d="M1595.97 210.18 L1595.97 223.93 L1591.69 223.93 L1591.69 188.143 L1595.97 188.143 L1595.97 192.078 Q1597.32 189.763 1599.35 188.652 Q1601.41 187.518 1604.26 187.518 Q1608.98 187.518 1611.92 191.268 Q1614.89 195.018 1614.89 201.129 Q1614.89 207.24 1611.92 210.99 Q1608.98 214.74 1604.26 214.74 Q1601.41 214.74 1599.35 213.629 Q1597.32 212.495 1595.97 210.18 M1610.47 201.129 Q1610.47 196.43 1608.52 193.768 Q1606.6 191.083 1603.22 191.083 Q1599.84 191.083 1597.9 193.768 Q1595.97 196.43 1595.97 201.129 Q1595.97 205.828 1597.9 208.513 Q1599.84 211.175 1603.22 211.175 Q1606.6 211.175 1608.52 208.513 Q1610.47 205.828 1610.47 201.129 Z" fill="#000000" fill-rule="nonzero" fill-opacity="1" /><path clip-path="url(#clip110)" d="M1636.97 192.124 Q1636.25 191.708 1635.4 191.522 Q1634.56 191.314 1633.54 191.314 Q1629.93 191.314 1627.99 193.675 Q1626.07 196.013 1626.07 200.411 L1626.07 214.069 L1621.78 214.069 L1621.78 188.143 L1626.07 188.143 L1626.07 192.171 Q1627.41 189.809 1629.56 188.675 Q1631.72 187.518 1634.79 187.518 Q1635.23 187.518 1635.77 187.587 Q1636.3 187.634 1636.95 187.749 L1636.97 192.124 Z" fill="#000000" fill-rule="nonzero" fill-opacity="1" /><path clip-path="url(#clip110)" d="M1662.57 200.041 L1662.57 202.124 L1642.99 202.124 Q1643.27 206.522 1645.63 208.837 Q1648.01 211.129 1652.25 211.129 Q1654.7 211.129 1656.99 210.527 Q1659.31 209.925 1661.58 208.721 L1661.58 212.749 Q1659.28 213.721 1656.88 214.231 Q1654.47 214.74 1651.99 214.74 Q1645.79 214.74 1642.15 211.129 Q1638.54 207.518 1638.54 201.36 Q1638.54 194.995 1641.97 191.268 Q1645.42 187.518 1651.25 187.518 Q1656.48 187.518 1659.52 190.897 Q1662.57 194.254 1662.57 200.041 M1658.31 198.791 Q1658.27 195.296 1656.34 193.212 Q1654.45 191.129 1651.3 191.129 Q1647.73 191.129 1645.58 193.143 Q1643.45 195.157 1643.13 198.814 L1658.31 198.791 Z" fill="#000000" fill-rule="nonzero" fill-opacity="1" /><path clip-path="url(#clip110)" d="M1688.22 189.138 L1688.22 193.12 Q1686.41 192.124 1684.59 191.638 Q1682.78 191.129 1680.93 191.129 Q1676.78 191.129 1674.49 193.768 Q1672.2 196.384 1672.2 201.129 Q1672.2 205.874 1674.49 208.513 Q1676.78 211.129 1680.93 211.129 Q1682.78 211.129 1684.59 210.643 Q1686.41 210.133 1688.22 209.138 L1688.22 213.073 Q1686.44 213.907 1684.52 214.323 Q1682.62 214.74 1680.46 214.74 Q1674.61 214.74 1671.16 211.059 Q1667.71 207.379 1667.71 201.129 Q1667.71 194.786 1671.18 191.152 Q1674.68 187.518 1680.74 187.518 Q1682.71 187.518 1684.59 187.935 Q1686.46 188.328 1688.22 189.138 Z" fill="#000000" fill-rule="nonzero" fill-opacity="1" /><path clip-path="url(#clip110)" d="M1705.67 191.129 Q1702.25 191.129 1700.26 193.814 Q1698.27 196.476 1698.27 201.129 Q1698.27 205.782 1700.23 208.467 Q1702.22 211.129 1705.67 211.129 Q1709.08 211.129 1711.07 208.444 Q1713.06 205.758 1713.06 201.129 Q1713.06 196.522 1711.07 193.837 Q1709.08 191.129 1705.67 191.129 M1705.67 187.518 Q1711.23 187.518 1714.4 191.129 Q1717.57 194.74 1717.57 201.129 Q1717.57 207.495 1714.4 211.129 Q1711.23 214.74 1705.67 214.74 Q1700.09 214.74 1696.92 211.129 Q1693.78 207.495 1693.78 201.129 Q1693.78 194.74 1696.92 191.129 Q1700.09 187.518 1705.67 187.518 Z" fill="#000000" fill-rule="nonzero" fill-opacity="1" /><path clip-path="url(#clip110)" d="M1746.18 198.421 L1746.18 214.069 L1741.92 214.069 L1741.92 198.559 Q1741.92 194.879 1740.49 193.05 Q1739.05 191.222 1736.18 191.222 Q1732.73 191.222 1730.74 193.421 Q1728.75 195.62 1728.75 199.416 L1728.75 214.069 L1724.47 214.069 L1724.47 188.143 L1728.75 188.143 L1728.75 192.171 Q1730.28 189.833 1732.34 188.675 Q1734.42 187.518 1737.13 187.518 Q1741.6 187.518 1743.89 190.296 Q1746.18 193.05 1746.18 198.421 Z" fill="#000000" fill-rule="nonzero" fill-opacity="1" /><path clip-path="url(#clip110)" d="M1771.74 192.078 L1771.74 178.05 L1776 178.05 L1776 214.069 L1771.74 214.069 L1771.74 210.18 Q1770.4 212.495 1768.33 213.629 Q1766.3 214.74 1763.43 214.74 Q1758.73 214.74 1755.77 210.99 Q1752.83 207.24 1752.83 201.129 Q1752.83 195.018 1755.77 191.268 Q1758.73 187.518 1763.43 187.518 Q1766.3 187.518 1768.33 188.652 Q1770.4 189.763 1771.74 192.078 M1757.22 201.129 Q1757.22 205.828 1759.15 208.513 Q1761.09 211.175 1764.47 211.175 Q1767.85 211.175 1769.79 208.513 Q1771.74 205.828 1771.74 201.129 Q1771.74 196.43 1769.79 193.768 Q1767.85 191.083 1764.47 191.083 Q1761.09 191.083 1759.15 193.768 Q1757.22 196.43 1757.22 201.129 Z" fill="#000000" fill-rule="nonzero" fill-opacity="1" /><path clip-path="url(#clip110)" d="M1784.77 188.143 L1789.03 188.143 L1789.03 214.069 L1784.77 214.069 L1784.77 188.143 M1784.77 178.05 L1789.03 178.05 L1789.03 183.444 L1784.77 183.444 L1784.77 178.05 Z" fill="#000000" fill-rule="nonzero" fill-opacity="1" /><path clip-path="url(#clip110)" d="M1802.15 180.782 L1802.15 188.143 L1810.93 188.143 L1810.93 191.453 L1802.15 191.453 L1802.15 205.527 Q1802.15 208.698 1803.01 209.601 Q1803.89 210.504 1806.55 210.504 L1810.93 210.504 L1810.93 214.069 L1806.55 214.069 Q1801.62 214.069 1799.75 212.24 Q1797.87 210.388 1797.87 205.527 L1797.87 191.453 L1794.75 191.453 L1794.75 188.143 L1797.87 188.143 L1797.87 180.782 L1802.15 180.782 Z" fill="#000000" fill-rule="nonzero" fill-opacity="1" /><path clip-path="url(#clip110)" d="M1816.53 188.143 L1820.79 188.143 L1820.79 214.069 L1816.53 214.069 L1816.53 188.143 M1816.53 178.05 L1820.79 178.05 L1820.79 183.444 L1816.53 183.444 L1816.53 178.05 Z" fill="#000000" fill-rule="nonzero" fill-opacity="1" /><path clip-path="url(#clip110)" d="M1839.75 191.129 Q1836.32 191.129 1834.33 193.814 Q1832.34 196.476 1832.34 201.129 Q1832.34 205.782 1834.31 208.467 Q1836.3 211.129 1839.75 211.129 Q1843.15 211.129 1845.14 208.444 Q1847.13 205.758 1847.13 201.129 Q1847.13 196.522 1845.14 193.837 Q1843.15 191.129 1839.75 191.129 M1839.75 187.518 Q1845.3 187.518 1848.47 191.129 Q1851.64 194.74 1851.64 201.129 Q1851.64 207.495 1848.47 211.129 Q1845.3 214.74 1839.75 214.74 Q1834.17 214.74 1831 211.129 Q1827.85 207.495 1827.85 201.129 Q1827.85 194.74 1831 191.129 Q1834.17 187.518 1839.75 187.518 Z" fill="#000000" fill-rule="nonzero" fill-opacity="1" /><path clip-path="url(#clip110)" d="M1880.26 198.421 L1880.26 214.069 L1876 214.069 L1876 198.559 Q1876 194.879 1874.56 193.05 Q1873.13 191.222 1870.26 191.222 Q1866.81 191.222 1864.82 193.421 Q1862.83 195.62 1862.83 199.416 L1862.83 214.069 L1858.54 214.069 L1858.54 188.143 L1862.83 188.143 L1862.83 192.171 Q1864.35 189.833 1866.41 188.675 Q1868.5 187.518 1871.2 187.518 Q1875.67 187.518 1877.96 190.296 Q1880.26 193.05 1880.26 198.421 Z" fill="#000000" fill-rule="nonzero" fill-opacity="1" /><path clip-path="url(#clip110)" d="M1910.93 200.041 L1910.93 202.124 L1891.34 202.124 Q1891.62 206.522 1893.98 208.837 Q1896.37 211.129 1900.6 211.129 Q1903.06 211.129 1905.35 210.527 Q1907.66 209.925 1909.93 208.721 L1909.93 212.749 Q1907.64 213.721 1905.23 214.231 Q1902.82 214.74 1900.35 214.74 Q1894.14 214.74 1890.51 211.129 Q1886.9 207.518 1886.9 201.36 Q1886.9 194.995 1890.32 191.268 Q1893.77 187.518 1899.61 187.518 Q1904.84 187.518 1907.87 190.897 Q1910.93 194.254 1910.93 200.041 M1906.67 198.791 Q1906.62 195.296 1904.7 193.212 Q1902.8 191.129 1899.65 191.129 Q1896.09 191.129 1893.94 193.143 Q1891.81 195.157 1891.48 198.814 L1906.67 198.791 Z" fill="#000000" fill-rule="nonzero" fill-opacity="1" /><path clip-path="url(#clip110)" d="M1934.98 192.078 L1934.98 178.05 L1939.24 178.05 L1939.24 214.069 L1934.98 214.069 L1934.98 210.18 Q1933.63 212.495 1931.57 213.629 Q1929.54 214.74 1926.67 214.74 Q1921.97 214.74 1919.01 210.99 Q1916.07 207.24 1916.07 201.129 Q1916.07 195.018 1919.01 191.268 Q1921.97 187.518 1926.67 187.518 Q1929.54 187.518 1931.57 188.652 Q1933.63 189.763 1934.98 192.078 M1920.46 201.129 Q1920.46 205.828 1922.38 208.513 Q1924.33 211.175 1927.71 211.175 Q1931.09 211.175 1933.03 208.513 Q1934.98 205.828 1934.98 201.129 Q1934.98 196.43 1933.03 193.768 Q1931.09 191.083 1927.71 191.083 Q1924.33 191.083 1922.38 193.768 Q1920.46 196.43 1920.46 201.129 Z" fill="#000000" fill-rule="nonzero" fill-opacity="1" /><path clip-path="url(#clip110)" d="M1949.1 208.189 L1953.98 208.189 L1953.98 212.17 L1950.19 219.578 L1947.2 219.578 L1949.1 212.17 L1949.1 208.189 Z" fill="#000000" fill-rule="nonzero" fill-opacity="1" /><path clip-path="url(#clip110)" d="M1988.75 182.587 Q1985.14 182.587 1983.31 186.152 Q1981.5 189.694 1981.5 196.823 Q1981.5 203.93 1983.31 207.495 Q1985.14 211.036 1988.75 211.036 Q1992.38 211.036 1994.19 207.495 Q1996.02 203.93 1996.02 196.823 Q1996.02 189.694 1994.19 186.152 Q1992.38 182.587 1988.75 182.587 M1988.75 178.884 Q1994.56 178.884 1997.62 183.49 Q2000.69 188.073 2000.69 196.823 Q2000.69 205.55 1997.62 210.157 Q1994.56 214.74 1988.75 214.74 Q1982.94 214.74 1979.86 210.157 Q1976.81 205.55 1976.81 196.823 Q1976.81 188.073 1979.86 183.49 Q1982.94 178.884 1988.75 178.884 Z" fill="#000000" fill-rule="nonzero" fill-opacity="1" /><path clip-path="url(#clip110)" d="M2023.38 188.143 L2027.64 188.143 L2027.64 214.069 L2023.38 214.069 L2023.38 188.143 M2023.38 178.05 L2027.64 178.05 L2027.64 183.444 L2023.38 183.444 L2023.38 178.05 Z" fill="#000000" fill-rule="nonzero" fill-opacity="1" /><path clip-path="url(#clip110)" d="M2058.1 198.421 L2058.1 214.069 L2053.84 214.069 L2053.84 198.559 Q2053.84 194.879 2052.41 193.05 Q2050.97 191.222 2048.1 191.222 Q2044.65 191.222 2042.66 193.421 Q2040.67 195.62 2040.67 199.416 L2040.67 214.069 L2036.39 214.069 L2036.39 188.143 L2040.67 188.143 L2040.67 192.171 Q2042.2 189.833 2044.26 188.675 Q2046.34 187.518 2049.05 187.518 Q2053.52 187.518 2055.81 190.296 Q2058.1 193.05 2058.1 198.421 Z" fill="#000000" fill-rule="nonzero" fill-opacity="1" /><path clip-path="url(#clip110)" d="M2066.6 188.143 L2070.86 188.143 L2070.86 214.069 L2066.6 214.069 L2066.6 188.143 M2066.6 178.05 L2070.86 178.05 L2070.86 183.444 L2066.6 183.444 L2066.6 178.05 Z" fill="#000000" fill-rule="nonzero" fill-opacity="1" /><path clip-path="url(#clip110)" d="M2083.98 180.782 L2083.98 188.143 L2092.75 188.143 L2092.75 191.453 L2083.98 191.453 L2083.98 205.527 Q2083.98 208.698 2084.84 209.601 Q2085.72 210.504 2088.38 210.504 L2092.75 210.504 L2092.75 214.069 L2088.38 214.069 Q2083.45 214.069 2081.57 212.24 Q2079.7 210.388 2079.7 205.527 L2079.7 191.453 L2076.57 191.453 L2076.57 188.143 L2079.7 188.143 L2079.7 180.782 L2083.98 180.782 Z" fill="#000000" fill-rule="nonzero" fill-opacity="1" /><polyline clip-path="url(#clip110)" style="stroke:#008000; stroke-linecap:round; stroke-linejoin:round; stroke-width:8; stroke-opacity:1; fill:none" points="1315.18,248.629 1456.54,248.629 "/>
<line clip-path="url(#clip110)" x1="1385.86" y1="248.629" x2="1385.86" y2="226.814" style="stroke:#008000; stroke-width:8; stroke-opacity:1"/>
<line clip-path="url(#clip110)" x1="1385.86" y1="248.629" x2="1364.04" y2="248.629" style="stroke:#008000; stroke-width:8; stroke-opacity:1"/>
<line clip-path="url(#clip110)" x1="1385.86" y1="248.629" x2="1385.86" y2="270.443" style="stroke:#008000; stroke-width:8; stroke-opacity:1"/>
<line clip-path="url(#clip110)" x1="1385.86" y1="248.629" x2="1407.67" y2="248.629" style="stroke:#008000; stroke-width:8; stroke-opacity:1"/>
<path clip-path="url(#clip110)" d="M1480.1 231.349 L1486.39 231.349 L1501.72 260.261 L1501.72 231.349 L1506.25 231.349 L1506.25 265.909 L1499.96 265.909 L1484.63 236.997 L1484.63 265.909 L1480.1 265.909 L1480.1 231.349 Z" fill="#000000" fill-rule="nonzero" fill-opacity="1" /><path clip-path="url(#clip110)" d="M1525.42 242.969 Q1521.99 242.969 1520 245.654 Q1518.01 248.316 1518.01 252.969 Q1518.01 257.622 1519.98 260.307 Q1521.97 262.969 1525.42 262.969 Q1528.82 262.969 1530.81 260.284 Q1532.8 257.598 1532.8 252.969 Q1532.8 248.362 1530.81 245.677 Q1528.82 242.969 1525.42 242.969 M1525.42 239.358 Q1530.97 239.358 1534.15 242.969 Q1537.32 246.58 1537.32 252.969 Q1537.32 259.335 1534.15 262.969 Q1530.97 266.58 1525.42 266.58 Q1519.84 266.58 1516.67 262.969 Q1513.52 259.335 1513.52 252.969 Q1513.52 246.58 1516.67 242.969 Q1519.84 239.358 1525.42 239.358 Z" fill="#000000" fill-rule="nonzero" fill-opacity="1" /><path clip-path="url(#clip110)" d="M1565.93 250.261 L1565.93 265.909 L1561.67 265.909 L1561.67 250.399 Q1561.67 246.719 1560.23 244.89 Q1558.8 243.062 1555.93 243.062 Q1552.48 243.062 1550.49 245.261 Q1548.5 247.46 1548.5 251.256 L1548.5 265.909 L1544.22 265.909 L1544.22 239.983 L1548.5 239.983 L1548.5 244.011 Q1550.03 241.673 1552.09 240.515 Q1554.17 239.358 1556.88 239.358 Q1561.35 239.358 1563.64 242.136 Q1565.93 244.89 1565.93 250.261 Z" fill="#000000" fill-rule="nonzero" fill-opacity="1" /><path clip-path="url(#clip110)" d="M1572.27 251.024 L1584.75 251.024 L1584.75 254.821 L1572.27 254.821 L1572.27 251.024 Z" fill="#000000" fill-rule="nonzero" fill-opacity="1" /><path clip-path="url(#clip110)" d="M1595.65 262.02 L1595.65 275.77 L1591.37 275.77 L1591.37 239.983 L1595.65 239.983 L1595.65 243.918 Q1596.99 241.603 1599.03 240.492 Q1601.09 239.358 1603.94 239.358 Q1608.66 239.358 1611.6 243.108 Q1614.56 246.858 1614.56 252.969 Q1614.56 259.08 1611.6 262.83 Q1608.66 266.58 1603.94 266.58 Q1601.09 266.58 1599.03 265.469 Q1596.99 264.335 1595.65 262.02 M1610.14 252.969 Q1610.14 248.27 1608.2 245.608 Q1606.28 242.923 1602.9 242.923 Q1599.52 242.923 1597.57 245.608 Q1595.65 248.27 1595.65 252.969 Q1595.65 257.668 1597.57 260.353 Q1599.52 263.015 1602.9 263.015 Q1606.28 263.015 1608.2 260.353 Q1610.14 257.668 1610.14 252.969 Z" fill="#000000" fill-rule="nonzero" fill-opacity="1" /><path clip-path="url(#clip110)" d="M1636.65 243.964 Q1635.93 243.548 1635.07 243.362 Q1634.24 243.154 1633.22 243.154 Q1629.61 243.154 1627.66 245.515 Q1625.74 247.853 1625.74 252.251 L1625.74 265.909 L1621.46 265.909 L1621.46 239.983 L1625.74 239.983 L1625.74 244.011 Q1627.09 241.649 1629.24 240.515 Q1631.39 239.358 1634.47 239.358 Q1634.91 239.358 1635.44 239.427 Q1635.97 239.474 1636.62 239.589 L1636.65 243.964 Z" fill="#000000" fill-rule="nonzero" fill-opacity="1" /><path clip-path="url(#clip110)" d="M1662.25 251.881 L1662.25 253.964 L1642.66 253.964 Q1642.94 258.362 1645.3 260.677 Q1647.69 262.969 1651.92 262.969 Q1654.38 262.969 1656.67 262.367 Q1658.98 261.765 1661.25 260.561 L1661.25 264.589 Q1658.96 265.561 1656.55 266.071 Q1654.15 266.58 1651.67 266.58 Q1645.47 266.58 1641.83 262.969 Q1638.22 259.358 1638.22 253.2 Q1638.22 246.835 1641.65 243.108 Q1645.09 239.358 1650.93 239.358 Q1656.16 239.358 1659.19 242.737 Q1662.25 246.094 1662.25 251.881 M1657.99 250.631 Q1657.94 247.136 1656.02 245.052 Q1654.12 242.969 1650.97 242.969 Q1647.41 242.969 1645.26 244.983 Q1643.13 246.997 1642.8 250.654 L1657.99 250.631 Z" fill="#000000" fill-rule="nonzero" fill-opacity="1" /><path clip-path="url(#clip110)" d="M1687.9 240.978 L1687.9 244.96 Q1686.09 243.964 1684.26 243.478 Q1682.46 242.969 1680.6 242.969 Q1676.46 242.969 1674.17 245.608 Q1671.88 248.224 1671.88 252.969 Q1671.88 257.714 1674.17 260.353 Q1676.46 262.969 1680.6 262.969 Q1682.46 262.969 1684.26 262.483 Q1686.09 261.973 1687.9 260.978 L1687.9 264.913 Q1686.11 265.747 1684.19 266.163 Q1682.29 266.58 1680.14 266.58 Q1674.28 266.58 1670.84 262.899 Q1667.39 259.219 1667.39 252.969 Q1667.39 246.626 1670.86 242.992 Q1674.35 239.358 1680.42 239.358 Q1682.39 239.358 1684.26 239.775 Q1686.14 240.168 1687.9 240.978 Z" fill="#000000" fill-rule="nonzero" fill-opacity="1" /><path clip-path="url(#clip110)" d="M1705.35 242.969 Q1701.92 242.969 1699.93 245.654 Q1697.94 248.316 1697.94 252.969 Q1697.94 257.622 1699.91 260.307 Q1701.9 262.969 1705.35 262.969 Q1708.75 262.969 1710.74 260.284 Q1712.73 257.598 1712.73 252.969 Q1712.73 248.362 1710.74 245.677 Q1708.75 242.969 1705.35 242.969 M1705.35 239.358 Q1710.9 239.358 1714.08 242.969 Q1717.25 246.58 1717.25 252.969 Q1717.25 259.335 1714.08 262.969 Q1710.9 266.58 1705.35 266.58 Q1699.77 266.58 1696.6 262.969 Q1693.45 259.335 1693.45 252.969 Q1693.45 246.58 1696.6 242.969 Q1699.77 239.358 1705.35 239.358 Z" fill="#000000" fill-rule="nonzero" fill-opacity="1" /><path clip-path="url(#clip110)" d="M1745.86 250.261 L1745.86 265.909 L1741.6 265.909 L1741.6 250.399 Q1741.6 246.719 1740.16 244.89 Q1738.73 243.062 1735.86 243.062 Q1732.41 243.062 1730.42 245.261 Q1728.43 247.46 1728.43 251.256 L1728.43 265.909 L1724.15 265.909 L1724.15 239.983 L1728.43 239.983 L1728.43 244.011 Q1729.96 241.673 1732.02 240.515 Q1734.1 239.358 1736.81 239.358 Q1741.27 239.358 1743.57 242.136 Q1745.86 244.89 1745.86 250.261 Z" fill="#000000" fill-rule="nonzero" fill-opacity="1" /><path clip-path="url(#clip110)" d="M1771.41 243.918 L1771.41 229.89 L1775.67 229.89 L1775.67 265.909 L1771.41 265.909 L1771.41 262.02 Q1770.07 264.335 1768.01 265.469 Q1765.97 266.58 1763.1 266.58 Q1758.4 266.58 1755.44 262.83 Q1752.5 259.08 1752.5 252.969 Q1752.5 246.858 1755.44 243.108 Q1758.4 239.358 1763.1 239.358 Q1765.97 239.358 1768.01 240.492 Q1770.07 241.603 1771.41 243.918 M1756.9 252.969 Q1756.9 257.668 1758.82 260.353 Q1760.77 263.015 1764.15 263.015 Q1767.52 263.015 1769.47 260.353 Q1771.41 257.668 1771.41 252.969 Q1771.41 248.27 1769.47 245.608 Q1767.52 242.923 1764.15 242.923 Q1760.77 242.923 1758.82 245.608 Q1756.9 248.27 1756.9 252.969 Z" fill="#000000" fill-rule="nonzero" fill-opacity="1" /><path clip-path="url(#clip110)" d="M1784.45 239.983 L1788.71 239.983 L1788.71 265.909 L1784.45 265.909 L1784.45 239.983 M1784.45 229.89 L1788.71 229.89 L1788.71 235.284 L1784.45 235.284 L1784.45 229.89 Z" fill="#000000" fill-rule="nonzero" fill-opacity="1" /><path clip-path="url(#clip110)" d="M1801.83 232.622 L1801.83 239.983 L1810.6 239.983 L1810.6 243.293 L1801.83 243.293 L1801.83 257.367 Q1801.83 260.538 1802.69 261.441 Q1803.57 262.344 1806.23 262.344 L1810.6 262.344 L1810.6 265.909 L1806.23 265.909 Q1801.3 265.909 1799.42 264.08 Q1797.55 262.228 1797.55 257.367 L1797.55 243.293 L1794.42 243.293 L1794.42 239.983 L1797.55 239.983 L1797.55 232.622 L1801.83 232.622 Z" fill="#000000" fill-rule="nonzero" fill-opacity="1" /><path clip-path="url(#clip110)" d="M1816.2 239.983 L1820.46 239.983 L1820.46 265.909 L1816.2 265.909 L1816.2 239.983 M1816.2 229.89 L1820.46 229.89 L1820.46 235.284 L1816.2 235.284 L1816.2 229.89 Z" fill="#000000" fill-rule="nonzero" fill-opacity="1" /><path clip-path="url(#clip110)" d="M1839.42 242.969 Q1836 242.969 1834.01 245.654 Q1832.02 248.316 1832.02 252.969 Q1832.02 257.622 1833.98 260.307 Q1835.97 262.969 1839.42 262.969 Q1842.83 262.969 1844.82 260.284 Q1846.81 257.598 1846.81 252.969 Q1846.81 248.362 1844.82 245.677 Q1842.83 242.969 1839.42 242.969 M1839.42 239.358 Q1844.98 239.358 1848.15 242.969 Q1851.32 246.58 1851.32 252.969 Q1851.32 259.335 1848.15 262.969 Q1844.98 266.58 1839.42 266.58 Q1833.84 266.58 1830.67 262.969 Q1827.52 259.335 1827.52 252.969 Q1827.52 246.58 1830.67 242.969 Q1833.84 239.358 1839.42 239.358 Z" fill="#000000" fill-rule="nonzero" fill-opacity="1" /><path clip-path="url(#clip110)" d="M1879.93 250.261 L1879.93 265.909 L1875.67 265.909 L1875.67 250.399 Q1875.67 246.719 1874.24 244.89 Q1872.8 243.062 1869.93 243.062 Q1866.48 243.062 1864.49 245.261 Q1862.5 247.46 1862.5 251.256 L1862.5 265.909 L1858.22 265.909 L1858.22 239.983 L1862.5 239.983 L1862.5 244.011 Q1864.03 241.673 1866.09 240.515 Q1868.17 239.358 1870.88 239.358 Q1875.35 239.358 1877.64 242.136 Q1879.93 244.89 1879.93 250.261 Z" fill="#000000" fill-rule="nonzero" fill-opacity="1" /><path clip-path="url(#clip110)" d="M1910.6 251.881 L1910.6 253.964 L1891.02 253.964 Q1891.3 258.362 1893.66 260.677 Q1896.04 262.969 1900.28 262.969 Q1902.73 262.969 1905.02 262.367 Q1907.34 261.765 1909.61 260.561 L1909.61 264.589 Q1907.32 265.561 1904.91 266.071 Q1902.5 266.58 1900.02 266.58 Q1893.82 266.58 1890.19 262.969 Q1886.57 259.358 1886.57 253.2 Q1886.57 246.835 1890 243.108 Q1893.45 239.358 1899.28 239.358 Q1904.51 239.358 1907.55 242.737 Q1910.6 246.094 1910.6 251.881 M1906.34 250.631 Q1906.3 247.136 1904.38 245.052 Q1902.48 242.969 1899.33 242.969 Q1895.76 242.969 1893.61 244.983 Q1891.48 246.997 1891.16 250.654 L1906.34 250.631 Z" fill="#000000" fill-rule="nonzero" fill-opacity="1" /><path clip-path="url(#clip110)" d="M1934.65 243.918 L1934.65 229.89 L1938.91 229.89 L1938.91 265.909 L1934.65 265.909 L1934.65 262.02 Q1933.31 264.335 1931.25 265.469 Q1929.21 266.58 1926.34 266.58 Q1921.64 266.58 1918.68 262.83 Q1915.74 259.08 1915.74 252.969 Q1915.74 246.858 1918.68 243.108 Q1921.64 239.358 1926.34 239.358 Q1929.21 239.358 1931.25 240.492 Q1933.31 241.603 1934.65 243.918 M1920.14 252.969 Q1920.14 257.668 1922.06 260.353 Q1924.01 263.015 1927.38 263.015 Q1930.76 263.015 1932.71 260.353 Q1934.65 257.668 1934.65 252.969 Q1934.65 248.27 1932.71 245.608 Q1930.76 242.923 1927.38 242.923 Q1924.01 242.923 1922.06 245.608 Q1920.14 248.27 1920.14 252.969 Z" fill="#000000" fill-rule="nonzero" fill-opacity="1" /><path clip-path="url(#clip110)" d="M1948.77 260.029 L1953.66 260.029 L1953.66 264.01 L1949.86 271.418 L1946.88 271.418 L1948.77 264.01 L1948.77 260.029 Z" fill="#000000" fill-rule="nonzero" fill-opacity="1" /><path clip-path="url(#clip110)" d="M1994.88 252.645 Q1994.88 248.015 1992.96 245.469 Q1991.07 242.923 1987.62 242.923 Q1984.19 242.923 1982.27 245.469 Q1980.37 248.015 1980.37 252.645 Q1980.37 257.251 1982.27 259.798 Q1984.19 262.344 1987.62 262.344 Q1991.07 262.344 1992.96 259.798 Q1994.88 257.251 1994.88 252.645 M1999.14 262.691 Q1999.14 269.311 1996.2 272.529 Q1993.26 275.77 1987.2 275.77 Q1984.95 275.77 1982.96 275.422 Q1980.97 275.098 1979.1 274.404 L1979.1 270.26 Q1980.97 271.279 1982.8 271.765 Q1984.63 272.251 1986.53 272.251 Q1990.72 272.251 1992.8 270.052 Q1994.88 267.876 1994.88 263.455 L1994.88 261.348 Q1993.57 263.64 1991.5 264.774 Q1989.44 265.909 1986.57 265.909 Q1981.81 265.909 1978.89 262.274 Q1975.97 258.64 1975.97 252.645 Q1975.97 246.626 1978.89 242.992 Q1981.81 239.358 1986.57 239.358 Q1989.44 239.358 1991.5 240.492 Q1993.57 241.626 1994.88 243.918 L1994.88 239.983 L1999.14 239.983 L1999.14 262.691 Z" fill="#000000" fill-rule="nonzero" fill-opacity="1" /><path clip-path="url(#clip110)" d="M2022.94 243.964 Q2022.22 243.548 2021.37 243.362 Q2020.53 243.154 2019.51 243.154 Q2015.9 243.154 2013.96 245.515 Q2012.04 247.853 2012.04 252.251 L2012.04 265.909 L2007.75 265.909 L2007.75 239.983 L2012.04 239.983 L2012.04 244.011 Q2013.38 241.649 2015.53 240.515 Q2017.69 239.358 2020.76 239.358 Q2021.2 239.358 2021.74 239.427 Q2022.27 239.474 2022.92 239.589 L2022.94 243.964 Z" fill="#000000" fill-rule="nonzero" fill-opacity="1" /><path clip-path="url(#clip110)" d="M2027.41 239.983 L2031.67 239.983 L2031.67 265.909 L2027.41 265.909 L2027.41 239.983 M2027.41 229.89 L2031.67 229.89 L2031.67 235.284 L2027.41 235.284 L2027.41 229.89 Z" fill="#000000" fill-rule="nonzero" fill-opacity="1" /><path clip-path="url(#clip110)" d="M2057.64 243.918 L2057.64 229.89 L2061.9 229.89 L2061.9 265.909 L2057.64 265.909 L2057.64 262.02 Q2056.3 264.335 2054.24 265.469 Q2052.2 266.58 2049.33 266.58 Q2044.63 266.58 2041.67 262.83 Q2038.73 259.08 2038.73 252.969 Q2038.73 246.858 2041.67 243.108 Q2044.63 239.358 2049.33 239.358 Q2052.2 239.358 2054.24 240.492 Q2056.3 241.603 2057.64 243.918 M2043.13 252.969 Q2043.13 257.668 2045.05 260.353 Q2046.99 263.015 2050.37 263.015 Q2053.75 263.015 2055.69 260.353 Q2057.64 257.668 2057.64 252.969 Q2057.64 248.27 2055.69 245.608 Q2053.75 242.923 2050.37 242.923 Q2046.99 242.923 2045.05 245.608 Q2043.13 248.27 2043.13 252.969 Z" fill="#000000" fill-rule="nonzero" fill-opacity="1" /><path clip-path="url(#clip110)" d="M2087.73 243.918 L2087.73 229.89 L2091.99 229.89 L2091.99 265.909 L2087.73 265.909 L2087.73 262.02 Q2086.39 264.335 2084.33 265.469 Q2082.29 266.58 2079.42 266.58 Q2074.72 266.58 2071.76 262.83 Q2068.82 259.08 2068.82 252.969 Q2068.82 246.858 2071.76 243.108 Q2074.72 239.358 2079.42 239.358 Q2082.29 239.358 2084.33 240.492 Q2086.39 241.603 2087.73 243.918 M2073.22 252.969 Q2073.22 257.668 2075.14 260.353 Q2077.08 263.015 2080.46 263.015 Q2083.84 263.015 2085.79 260.353 Q2087.73 257.668 2087.73 252.969 Q2087.73 248.27 2085.79 245.608 Q2083.84 242.923 2080.46 242.923 Q2077.08 242.923 2075.14 245.608 Q2073.22 248.27 2073.22 252.969 Z" fill="#000000" fill-rule="nonzero" fill-opacity="1" /><path clip-path="url(#clip110)" d="M2100.76 239.983 L2105.02 239.983 L2105.02 265.909 L2100.76 265.909 L2100.76 239.983 M2100.76 229.89 L2105.02 229.89 L2105.02 235.284 L2100.76 235.284 L2100.76 229.89 Z" fill="#000000" fill-rule="nonzero" fill-opacity="1" /><path clip-path="url(#clip110)" d="M2135.49 250.261 L2135.49 265.909 L2131.23 265.909 L2131.23 250.399 Q2131.23 246.719 2129.79 244.89 Q2128.36 243.062 2125.49 243.062 Q2122.04 243.062 2120.05 245.261 Q2118.06 247.46 2118.06 251.256 L2118.06 265.909 L2113.77 265.909 L2113.77 239.983 L2118.06 239.983 L2118.06 244.011 Q2119.58 241.673 2121.64 240.515 Q2123.73 239.358 2126.43 239.358 Q2130.9 239.358 2133.19 242.136 Q2135.49 244.89 2135.49 250.261 Z" fill="#000000" fill-rule="nonzero" fill-opacity="1" /><path clip-path="url(#clip110)" d="M2161.04 252.645 Q2161.04 248.015 2159.12 245.469 Q2157.22 242.923 2153.77 242.923 Q2150.35 242.923 2148.43 245.469 Q2146.53 248.015 2146.53 252.645 Q2146.53 257.251 2148.43 259.798 Q2150.35 262.344 2153.77 262.344 Q2157.22 262.344 2159.12 259.798 Q2161.04 257.251 2161.04 252.645 M2165.3 262.691 Q2165.3 269.311 2162.36 272.529 Q2159.42 275.77 2153.36 275.77 Q2151.11 275.77 2149.12 275.422 Q2147.13 275.098 2145.25 274.404 L2145.25 270.26 Q2147.13 271.279 2148.96 271.765 Q2150.79 272.251 2152.68 272.251 Q2156.87 272.251 2158.96 270.052 Q2161.04 267.876 2161.04 263.455 L2161.04 261.348 Q2159.72 263.64 2157.66 264.774 Q2155.6 265.909 2152.73 265.909 Q2147.96 265.909 2145.05 262.274 Q2142.13 258.64 2142.13 252.645 Q2142.13 246.626 2145.05 242.992 Q2147.96 239.358 2152.73 239.358 Q2155.6 239.358 2157.66 240.492 Q2159.72 241.626 2161.04 243.918 L2161.04 239.983 L2165.3 239.983 L2165.3 262.691 Z" fill="#000000" fill-rule="nonzero" fill-opacity="1" /><path clip-path="url(#clip110)" d="M2189.14 239.983 L2193.4 239.983 L2193.4 265.909 L2189.14 265.909 L2189.14 239.983 M2189.14 229.89 L2193.4 229.89 L2193.4 235.284 L2189.14 235.284 L2189.14 229.89 Z" fill="#000000" fill-rule="nonzero" fill-opacity="1" /><path clip-path="url(#clip110)" d="M2223.86 250.261 L2223.86 265.909 L2219.61 265.909 L2219.61 250.399 Q2219.61 246.719 2218.17 244.89 Q2216.74 243.062 2213.86 243.062 Q2210.42 243.062 2208.43 245.261 Q2206.43 247.46 2206.43 251.256 L2206.43 265.909 L2202.15 265.909 L2202.15 239.983 L2206.43 239.983 L2206.43 244.011 Q2207.96 241.673 2210.02 240.515 Q2212.11 239.358 2214.81 239.358 Q2219.28 239.358 2221.57 242.136 Q2223.86 244.89 2223.86 250.261 Z" fill="#000000" fill-rule="nonzero" fill-opacity="1" /><path clip-path="url(#clip110)" d="M2232.36 239.983 L2236.62 239.983 L2236.62 265.909 L2232.36 265.909 L2232.36 239.983 M2232.36 229.89 L2236.62 229.89 L2236.62 235.284 L2232.36 235.284 L2232.36 229.89 Z" fill="#000000" fill-rule="nonzero" fill-opacity="1" /><path clip-path="url(#clip110)" d="M2249.74 232.622 L2249.74 239.983 L2258.52 239.983 L2258.52 243.293 L2249.74 243.293 L2249.74 257.367 Q2249.74 260.538 2250.6 261.441 Q2251.48 262.344 2254.14 262.344 L2258.52 262.344 L2258.52 265.909 L2254.14 265.909 Q2249.21 265.909 2247.34 264.08 Q2245.46 262.228 2245.46 257.367 L2245.46 243.293 L2242.34 243.293 L2242.34 239.983 L2245.46 239.983 L2245.46 232.622 L2249.74 232.622 Z" fill="#000000" fill-rule="nonzero" fill-opacity="1" /></svg>
