<?xml version="1.0" encoding="utf-8"?>
<svg xmlns="http://www.w3.org/2000/svg" xmlns:xlink="http://www.w3.org/1999/xlink" width="600" height="400" viewBox="0 0 2400 1600">
<defs>
  <clipPath id="clip230">
    <rect x="0" y="0" width="2400" height="1600"/>
  </clipPath>
</defs>
<path clip-path="url(#clip230)" d="M0 1600 L2400 1600 L2400 0 L0 0  Z" fill="#ffffff" fill-rule="evenodd" fill-opacity="1"/>
<defs>
  <clipPath id="clip231">
    <rect x="210" y="47" width="2143" height="1377"/>
  </clipPath>
</defs>
<path clip-path="url(#clip230)" d="M210.746 1423.18 L2352.76 1423.18 L2352.76 47.2441 L210.746 47.2441  Z" fill="#ffffff" fill-rule="evenodd" fill-opacity="1"/>
<polyline clip-path="url(#clip231)" style="stroke:#000000; stroke-linecap:round; stroke-linejoin:round; stroke-width:2; stroke-opacity:0.1; fill:none" points="494.13,1423.18 494.13,47.2441 "/>
<polyline clip-path="url(#clip231)" style="stroke:#000000; stroke-linecap:round; stroke-linejoin:round; stroke-width:2; stroke-opacity:0.1; fill:none" points="891.918,1423.18 891.918,47.2441 "/>
<polyline clip-path="url(#clip231)" style="stroke:#000000; stroke-linecap:round; stroke-linejoin:round; stroke-width:2; stroke-opacity:0.1; fill:none" points="1289.71,1423.18 1289.71,47.2441 "/>
<polyline clip-path="url(#clip231)" style="stroke:#000000; stroke-linecap:round; stroke-linejoin:round; stroke-width:2; stroke-opacity:0.1; fill:none" points="1687.49,1423.18 1687.49,47.2441 "/>
<polyline clip-path="url(#clip231)" style="stroke:#000000; stroke-linecap:round; stroke-linejoin:round; stroke-width:2; stroke-opacity:0.1; fill:none" points="2085.28,1423.18 2085.28,47.2441 "/>
<polyline clip-path="url(#clip231)" style="stroke:#000000; stroke-linecap:round; stroke-linejoin:round; stroke-width:2; stroke-opacity:0.1; fill:none" points="210.746,1381.17 2352.76,1381.17 "/>
<polyline clip-path="url(#clip231)" style="stroke:#000000; stroke-linecap:round; stroke-linejoin:round; stroke-width:2; stroke-opacity:0.1; fill:none" points="210.746,1146.35 2352.76,1146.35 "/>
<polyline clip-path="url(#clip231)" style="stroke:#000000; stroke-linecap:round; stroke-linejoin:round; stroke-width:2; stroke-opacity:0.1; fill:none" points="210.746,911.531 2352.76,911.531 "/>
<polyline clip-path="url(#clip231)" style="stroke:#000000; stroke-linecap:round; stroke-linejoin:round; stroke-width:2; stroke-opacity:0.1; fill:none" points="210.746,676.712 2352.76,676.712 "/>
<polyline clip-path="url(#clip231)" style="stroke:#000000; stroke-linecap:round; stroke-linejoin:round; stroke-width:2; stroke-opacity:0.1; fill:none" points="210.746,441.892 2352.76,441.892 "/>
<polyline clip-path="url(#clip231)" style="stroke:#000000; stroke-linecap:round; stroke-linejoin:round; stroke-width:2; stroke-opacity:0.1; fill:none" points="210.746,207.072 2352.76,207.072 "/>
<polyline clip-path="url(#clip230)" style="stroke:#000000; stroke-linecap:round; stroke-linejoin:round; stroke-width:4; stroke-opacity:1; fill:none" points="210.746,1423.18 2352.76,1423.18 "/>
<polyline clip-path="url(#clip230)" style="stroke:#000000; stroke-linecap:round; stroke-linejoin:round; stroke-width:4; stroke-opacity:1; fill:none" points="494.13,1423.18 494.13,1404.28 "/>
<polyline clip-path="url(#clip230)" style="stroke:#000000; stroke-linecap:round; stroke-linejoin:round; stroke-width:4; stroke-opacity:1; fill:none" points="891.918,1423.18 891.918,1404.28 "/>
<polyline clip-path="url(#clip230)" style="stroke:#000000; stroke-linecap:round; stroke-linejoin:round; stroke-width:4; stroke-opacity:1; fill:none" points="1289.71,1423.18 1289.71,1404.28 "/>
<polyline clip-path="url(#clip230)" style="stroke:#000000; stroke-linecap:round; stroke-linejoin:round; stroke-width:4; stroke-opacity:1; fill:none" points="1687.49,1423.18 1687.49,1404.28 "/>
<polyline clip-path="url(#clip230)" style="stroke:#000000; stroke-linecap:round; stroke-linejoin:round; stroke-width:4; stroke-opacity:1; fill:none" points="2085.28,1423.18 2085.28,1404.28 "/>
<path clip-path="url(#clip230)" d="M433.112 1468.75 L462.788 1468.75 L462.788 1472.69 L433.112 1472.69 L433.112 1468.75 Z" fill="#000000" fill-rule="nonzero" fill-opacity="1" /><path clip-path="url(#clip230)" d="M473.691 1481.64 L481.329 1481.64 L481.329 1455.28 L473.019 1456.95 L473.019 1452.69 L481.283 1451.02 L485.959 1451.02 L485.959 1481.64 L493.598 1481.64 L493.598 1485.58 L473.691 1485.58 L473.691 1481.64 Z" fill="#000000" fill-rule="nonzero" fill-opacity="1" /><path clip-path="url(#clip230)" d="M513.042 1454.1 Q509.431 1454.1 507.602 1457.66 Q505.797 1461.2 505.797 1468.33 Q505.797 1475.44 507.602 1479.01 Q509.431 1482.55 513.042 1482.55 Q516.676 1482.55 518.482 1479.01 Q520.311 1475.44 520.311 1468.33 Q520.311 1461.2 518.482 1457.66 Q516.676 1454.1 513.042 1454.1 M513.042 1450.39 Q518.852 1450.39 521.908 1455 Q524.987 1459.58 524.987 1468.33 Q524.987 1477.06 521.908 1481.67 Q518.852 1486.25 513.042 1486.25 Q507.232 1486.25 504.153 1481.67 Q501.098 1477.06 501.098 1468.33 Q501.098 1459.58 504.153 1455 Q507.232 1450.39 513.042 1450.39 Z" fill="#000000" fill-rule="nonzero" fill-opacity="1" /><path clip-path="url(#clip230)" d="M543.204 1454.1 Q539.593 1454.1 537.764 1457.66 Q535.959 1461.2 535.959 1468.33 Q535.959 1475.44 537.764 1479.01 Q539.593 1482.55 543.204 1482.55 Q546.838 1482.55 548.644 1479.01 Q550.473 1475.44 550.473 1468.33 Q550.473 1461.2 548.644 1457.66 Q546.838 1454.1 543.204 1454.1 M543.204 1450.39 Q549.014 1450.39 552.07 1455 Q555.148 1459.58 555.148 1468.33 Q555.148 1477.06 552.07 1481.67 Q549.014 1486.25 543.204 1486.25 Q537.394 1486.25 534.315 1481.67 Q531.26 1477.06 531.26 1468.33 Q531.26 1459.58 534.315 1455 Q537.394 1450.39 543.204 1450.39 Z" fill="#000000" fill-rule="nonzero" fill-opacity="1" /><path clip-path="url(#clip230)" d="M845.981 1468.75 L875.657 1468.75 L875.657 1472.69 L845.981 1472.69 L845.981 1468.75 Z" fill="#000000" fill-rule="nonzero" fill-opacity="1" /><path clip-path="url(#clip230)" d="M885.796 1451.02 L904.152 1451.02 L904.152 1454.96 L890.078 1454.96 L890.078 1463.43 Q891.097 1463.08 892.115 1462.92 Q893.134 1462.73 894.152 1462.73 Q899.939 1462.73 903.319 1465.9 Q906.698 1469.08 906.698 1474.49 Q906.698 1480.07 903.226 1483.17 Q899.754 1486.25 893.435 1486.25 Q891.259 1486.25 888.99 1485.88 Q886.745 1485.51 884.337 1484.77 L884.337 1480.07 Q886.421 1481.2 888.643 1481.76 Q890.865 1482.32 893.342 1482.32 Q897.347 1482.32 899.685 1480.21 Q902.023 1478.1 902.023 1474.49 Q902.023 1470.88 899.685 1468.77 Q897.347 1466.67 893.342 1466.67 Q891.467 1466.67 889.592 1467.08 Q887.74 1467.5 885.796 1468.38 L885.796 1451.02 Z" fill="#000000" fill-rule="nonzero" fill-opacity="1" /><path clip-path="url(#clip230)" d="M925.911 1454.1 Q922.3 1454.1 920.472 1457.66 Q918.666 1461.2 918.666 1468.33 Q918.666 1475.44 920.472 1479.01 Q922.3 1482.55 925.911 1482.55 Q929.546 1482.55 931.351 1479.01 Q933.18 1475.44 933.18 1468.33 Q933.18 1461.2 931.351 1457.66 Q929.546 1454.1 925.911 1454.1 M925.911 1450.39 Q931.722 1450.39 934.777 1455 Q937.856 1459.58 937.856 1468.33 Q937.856 1477.06 934.777 1481.67 Q931.722 1486.25 925.911 1486.25 Q920.101 1486.25 917.023 1481.67 Q913.967 1477.06 913.967 1468.33 Q913.967 1459.58 917.023 1455 Q920.101 1450.39 925.911 1450.39 Z" fill="#000000" fill-rule="nonzero" fill-opacity="1" /><path clip-path="url(#clip230)" d="M1289.71 1454.1 Q1286.1 1454.1 1284.27 1457.66 Q1282.46 1461.2 1282.46 1468.33 Q1282.46 1475.44 1284.27 1479.01 Q1286.1 1482.55 1289.71 1482.55 Q1293.34 1482.55 1295.15 1479.01 Q1296.98 1475.44 1296.98 1468.33 Q1296.98 1461.2 1295.15 1457.66 Q1293.34 1454.1 1289.71 1454.1 M1289.71 1450.39 Q1295.52 1450.39 1298.57 1455 Q1301.65 1459.58 1301.65 1468.33 Q1301.65 1477.06 1298.57 1481.67 Q1295.52 1486.25 1289.71 1486.25 Q1283.9 1486.25 1280.82 1481.67 Q1277.76 1477.06 1277.76 1468.33 Q1277.76 1459.58 1280.82 1455 Q1283.9 1450.39 1289.71 1450.39 Z" fill="#000000" fill-rule="nonzero" fill-opacity="1" /><path clip-path="url(#clip230)" d="M1662.19 1451.02 L1680.55 1451.02 L1680.55 1454.96 L1666.48 1454.96 L1666.48 1463.43 Q1667.5 1463.08 1668.51 1462.92 Q1669.53 1462.73 1670.55 1462.73 Q1676.34 1462.73 1679.72 1465.9 Q1683.1 1469.08 1683.1 1474.49 Q1683.1 1480.07 1679.62 1483.17 Q1676.15 1486.25 1669.83 1486.25 Q1667.66 1486.25 1665.39 1485.88 Q1663.14 1485.51 1660.74 1484.77 L1660.74 1480.07 Q1662.82 1481.2 1665.04 1481.76 Q1667.26 1482.32 1669.74 1482.32 Q1673.74 1482.32 1676.08 1480.21 Q1678.42 1478.1 1678.42 1474.49 Q1678.42 1470.88 1676.08 1468.77 Q1673.74 1466.67 1669.74 1466.67 Q1667.87 1466.67 1665.99 1467.08 Q1664.14 1467.5 1662.19 1468.38 L1662.19 1451.02 Z" fill="#000000" fill-rule="nonzero" fill-opacity="1" /><path clip-path="url(#clip230)" d="M1702.31 1454.1 Q1698.7 1454.1 1696.87 1457.66 Q1695.06 1461.2 1695.06 1468.33 Q1695.06 1475.44 1696.87 1479.01 Q1698.7 1482.55 1702.31 1482.55 Q1705.94 1482.55 1707.75 1479.01 Q1709.58 1475.44 1709.58 1468.33 Q1709.58 1461.2 1707.75 1457.66 Q1705.94 1454.1 1702.31 1454.1 M1702.31 1450.39 Q1708.12 1450.39 1711.18 1455 Q1714.25 1459.58 1714.25 1468.33 Q1714.25 1477.06 1711.18 1481.67 Q1708.12 1486.25 1702.31 1486.25 Q1696.5 1486.25 1693.42 1481.67 Q1690.37 1477.06 1690.37 1468.33 Q1690.37 1459.58 1693.42 1455 Q1696.5 1450.39 1702.31 1450.39 Z" fill="#000000" fill-rule="nonzero" fill-opacity="1" /><path clip-path="url(#clip230)" d="M2044.89 1481.64 L2052.53 1481.64 L2052.53 1455.28 L2044.22 1456.95 L2044.22 1452.69 L2052.48 1451.02 L2057.16 1451.02 L2057.16 1481.64 L2064.8 1481.64 L2064.8 1485.58 L2044.89 1485.58 L2044.89 1481.64 Z" fill="#000000" fill-rule="nonzero" fill-opacity="1" /><path clip-path="url(#clip230)" d="M2084.24 1454.1 Q2080.63 1454.1 2078.8 1457.66 Q2077 1461.2 2077 1468.33 Q2077 1475.44 2078.8 1479.01 Q2080.63 1482.55 2084.24 1482.55 Q2087.88 1482.55 2089.68 1479.01 Q2091.51 1475.44 2091.51 1468.33 Q2091.51 1461.2 2089.68 1457.66 Q2087.88 1454.1 2084.24 1454.1 M2084.24 1450.39 Q2090.05 1450.39 2093.11 1455 Q2096.19 1459.58 2096.19 1468.33 Q2096.19 1477.06 2093.11 1481.67 Q2090.05 1486.25 2084.24 1486.25 Q2078.43 1486.25 2075.35 1481.67 Q2072.3 1477.06 2072.3 1468.33 Q2072.3 1459.58 2075.35 1455 Q2078.43 1450.39 2084.24 1450.39 Z" fill="#000000" fill-rule="nonzero" fill-opacity="1" /><path clip-path="url(#clip230)" d="M2114.4 1454.1 Q2110.79 1454.1 2108.96 1457.66 Q2107.16 1461.2 2107.16 1468.33 Q2107.16 1475.44 2108.96 1479.01 Q2110.79 1482.55 2114.4 1482.55 Q2118.04 1482.55 2119.84 1479.01 Q2121.67 1475.44 2121.67 1468.33 Q2121.67 1461.2 2119.84 1457.66 Q2118.04 1454.1 2114.4 1454.1 M2114.4 1450.39 Q2120.21 1450.39 2123.27 1455 Q2126.35 1459.58 2126.35 1468.33 Q2126.35 1477.06 2123.27 1481.67 Q2120.21 1486.25 2114.4 1486.25 Q2108.59 1486.25 2105.51 1481.67 Q2102.46 1477.06 2102.46 1468.33 Q2102.46 1459.58 2105.51 1455 Q2108.59 1450.39 2114.4 1450.39 Z" fill="#000000" fill-rule="nonzero" fill-opacity="1" /><path clip-path="url(#clip230)" d="M1199.44 1528.8 Q1199.44 1530.61 1198.31 1531.64 Q1197.18 1532.64 1195.89 1532.64 Q1194.67 1532.64 1194.03 1531.93 Q1193.38 1531.22 1193.38 1530.32 Q1193.38 1529.09 1194.28 1528.03 Q1195.18 1526.97 1196.54 1526.74 Q1195.22 1525.91 1193.25 1525.91 Q1191.96 1525.91 1190.84 1526.58 Q1189.74 1527.26 1189.07 1528.13 Q1188.42 1529 1187.84 1530.25 Q1187.29 1531.48 1187.07 1532.22 Q1186.88 1532.93 1186.71 1533.7 L1184.46 1542.72 Q1183.37 1547 1183.37 1548.51 Q1183.37 1550.38 1184.27 1551.64 Q1185.17 1552.86 1186.97 1552.86 Q1187.68 1552.86 1188.49 1552.67 Q1189.29 1552.44 1190.32 1551.86 Q1191.38 1551.25 1192.32 1550.35 Q1193.28 1549.42 1194.22 1547.84 Q1195.15 1546.26 1195.76 1544.23 Q1195.96 1543.52 1196.6 1543.52 Q1197.41 1543.52 1197.41 1544.17 Q1197.41 1544.71 1196.96 1545.87 Q1196.54 1547 1195.6 1548.48 Q1194.7 1549.93 1193.51 1551.25 Q1192.32 1552.54 1190.55 1553.44 Q1188.78 1554.34 1186.84 1554.34 Q1184.07 1554.34 1182.24 1552.86 Q1180.4 1551.38 1179.73 1549.32 Q1179.57 1549.61 1179.34 1550 Q1179.11 1550.38 1178.44 1551.25 Q1177.79 1552.09 1177.05 1552.73 Q1176.31 1553.34 1175.15 1553.83 Q1174.03 1554.34 1172.8 1554.34 Q1171.26 1554.34 1169.87 1553.89 Q1168.52 1553.44 1167.55 1552.41 Q1166.59 1551.38 1166.59 1549.96 Q1166.59 1548.38 1167.65 1547.29 Q1168.74 1546.16 1170.23 1546.16 Q1171.16 1546.16 1171.9 1546.71 Q1172.67 1547.26 1172.67 1548.45 Q1172.67 1549.77 1171.77 1550.77 Q1170.87 1551.77 1169.58 1552.02 Q1170.9 1552.86 1172.87 1552.86 Q1174.99 1552.86 1176.67 1550.99 Q1178.34 1549.13 1179.15 1546 Q1181.14 1538.5 1181.92 1535.15 Q1182.69 1531.77 1182.69 1530.32 Q1182.69 1528.96 1182.33 1528.03 Q1181.98 1527.1 1181.37 1526.68 Q1180.79 1526.23 1180.24 1526.07 Q1179.73 1525.91 1179.15 1525.91 Q1178.18 1525.91 1177.09 1526.29 Q1176.02 1526.68 1174.73 1527.58 Q1173.48 1528.45 1172.29 1530.25 Q1171.09 1532.06 1170.29 1534.54 Q1170.13 1535.28 1169.42 1535.28 Q1168.65 1535.24 1168.65 1534.6 Q1168.65 1534.05 1169.07 1532.93 Q1169.52 1531.77 1170.42 1530.32 Q1171.35 1528.87 1172.54 1527.58 Q1173.77 1526.26 1175.54 1525.36 Q1177.34 1524.46 1179.28 1524.46 Q1180.14 1524.46 1180.98 1524.65 Q1181.85 1524.81 1182.88 1525.29 Q1183.95 1525.78 1184.88 1526.84 Q1185.81 1527.9 1186.39 1529.45 Q1186.78 1528.71 1187.29 1528 Q1187.84 1527.29 1188.68 1526.42 Q1189.55 1525.52 1190.74 1525 Q1191.96 1524.46 1193.32 1524.46 Q1194.64 1524.46 1195.93 1524.81 Q1197.21 1525.13 1198.31 1526.19 Q1199.44 1527.23 1199.44 1528.8 Z" fill="#000000" fill-rule="nonzero" fill-opacity="1" /><path clip-path="url(#clip230)" d="M1244.87 1504.14 Q1240.61 1511.46 1238.54 1518.62 Q1236.47 1525.78 1236.47 1533.14 Q1236.47 1540.49 1238.54 1547.71 Q1240.64 1554.91 1244.87 1562.2 L1239.78 1562.2 Q1235 1554.72 1232.62 1547.49 Q1230.26 1540.27 1230.26 1533.14 Q1230.26 1526.04 1232.62 1518.85 Q1234.97 1511.65 1239.78 1504.14 L1244.87 1504.14 Z" fill="#000000" fill-rule="nonzero" fill-opacity="1" /><path clip-path="url(#clip230)" d="M1283.99 1524.8 Q1286.18 1520.85 1289.24 1518.97 Q1292.3 1517.09 1296.43 1517.09 Q1302 1517.09 1305.03 1521.01 Q1308.05 1524.89 1308.05 1532.09 L1308.05 1553.6 L1302.16 1553.6 L1302.16 1532.28 Q1302.16 1527.15 1300.35 1524.67 Q1298.53 1522.19 1294.81 1522.19 Q1290.26 1522.19 1287.62 1525.21 Q1284.97 1528.23 1284.97 1533.45 L1284.97 1553.6 L1279.09 1553.6 L1279.09 1532.28 Q1279.09 1527.12 1277.27 1524.67 Q1275.46 1522.19 1271.67 1522.19 Q1267.18 1522.19 1264.54 1525.24 Q1261.9 1528.27 1261.9 1533.45 L1261.9 1553.6 L1256.01 1553.6 L1256.01 1517.95 L1261.9 1517.95 L1261.9 1523.49 Q1263.9 1520.21 1266.71 1518.65 Q1269.51 1517.09 1273.36 1517.09 Q1277.24 1517.09 1279.95 1519.07 Q1282.68 1521.04 1283.99 1524.8 Z" fill="#000000" fill-rule="nonzero" fill-opacity="1" /><path clip-path="url(#clip230)" d="M1347.49 1524.8 Q1349.68 1520.85 1352.74 1518.97 Q1355.79 1517.09 1359.93 1517.09 Q1365.5 1517.09 1368.52 1521.01 Q1371.55 1524.89 1371.55 1532.09 L1371.55 1553.6 L1365.66 1553.6 L1365.66 1532.28 Q1365.66 1527.15 1363.85 1524.67 Q1362.03 1522.19 1358.31 1522.19 Q1353.76 1522.19 1351.11 1525.21 Q1348.47 1528.23 1348.47 1533.45 L1348.47 1553.6 L1342.58 1553.6 L1342.58 1532.28 Q1342.58 1527.12 1340.77 1524.67 Q1338.96 1522.19 1335.17 1522.19 Q1330.68 1522.19 1328.04 1525.24 Q1325.4 1528.27 1325.4 1533.45 L1325.4 1553.6 L1319.51 1553.6 L1319.51 1517.95 L1325.4 1517.95 L1325.4 1523.49 Q1327.4 1520.21 1330.2 1518.65 Q1333 1517.09 1336.86 1517.09 Q1340.74 1517.09 1343.44 1519.07 Q1346.18 1521.04 1347.49 1524.8 Z" fill="#000000" fill-rule="nonzero" fill-opacity="1" /><path clip-path="url(#clip230)" d="M1382.31 1504.14 L1387.4 1504.14 Q1392.17 1511.65 1394.53 1518.85 Q1396.92 1526.04 1396.92 1533.14 Q1396.92 1540.27 1394.53 1547.49 Q1392.17 1554.72 1387.4 1562.2 L1382.31 1562.2 Q1386.54 1554.91 1388.61 1547.71 Q1390.71 1540.49 1390.71 1533.14 Q1390.71 1525.78 1388.61 1518.62 Q1386.54 1511.46 1382.31 1504.14 Z" fill="#000000" fill-rule="nonzero" fill-opacity="1" /><polyline clip-path="url(#clip230)" style="stroke:#000000; stroke-linecap:round; stroke-linejoin:round; stroke-width:4; stroke-opacity:1; fill:none" points="210.746,1423.18 210.746,47.2441 "/>
<polyline clip-path="url(#clip230)" style="stroke:#000000; stroke-linecap:round; stroke-linejoin:round; stroke-width:4; stroke-opacity:1; fill:none" points="210.746,1381.17 229.644,1381.17 "/>
<polyline clip-path="url(#clip230)" style="stroke:#000000; stroke-linecap:round; stroke-linejoin:round; stroke-width:4; stroke-opacity:1; fill:none" points="210.746,1146.35 229.644,1146.35 "/>
<polyline clip-path="url(#clip230)" style="stroke:#000000; stroke-linecap:round; stroke-linejoin:round; stroke-width:4; stroke-opacity:1; fill:none" points="210.746,911.531 229.644,911.531 "/>
<polyline clip-path="url(#clip230)" style="stroke:#000000; stroke-linecap:round; stroke-linejoin:round; stroke-width:4; stroke-opacity:1; fill:none" points="210.746,676.712 229.644,676.712 "/>
<polyline clip-path="url(#clip230)" style="stroke:#000000; stroke-linecap:round; stroke-linejoin:round; stroke-width:4; stroke-opacity:1; fill:none" points="210.746,441.892 229.644,441.892 "/>
<polyline clip-path="url(#clip230)" style="stroke:#000000; stroke-linecap:round; stroke-linejoin:round; stroke-width:4; stroke-opacity:1; fill:none" points="210.746,207.072 229.644,207.072 "/>
<path clip-path="url(#clip230)" d="M114.26 1381.62 L143.936 1381.62 L143.936 1385.56 L114.26 1385.56 L114.26 1381.62 Z" fill="#000000" fill-rule="nonzero" fill-opacity="1" /><path clip-path="url(#clip230)" d="M154.839 1394.52 L162.477 1394.52 L162.477 1368.15 L154.167 1369.82 L154.167 1365.56 L162.431 1363.89 L167.107 1363.89 L167.107 1394.52 L174.746 1394.52 L174.746 1398.45 L154.839 1398.45 L154.839 1394.52 Z" fill="#000000" fill-rule="nonzero" fill-opacity="1" /><path clip-path="url(#clip230)" d="M162.802 1132.15 Q159.19 1132.15 157.362 1135.71 Q155.556 1139.26 155.556 1146.39 Q155.556 1153.49 157.362 1157.06 Q159.19 1160.6 162.802 1160.6 Q166.436 1160.6 168.241 1157.06 Q170.07 1153.49 170.07 1146.39 Q170.07 1139.26 168.241 1135.71 Q166.436 1132.15 162.802 1132.15 M162.802 1128.45 Q168.612 1128.45 171.667 1133.05 Q174.746 1137.64 174.746 1146.39 Q174.746 1155.11 171.667 1159.72 Q168.612 1164.3 162.802 1164.3 Q156.991 1164.3 153.913 1159.72 Q150.857 1155.11 150.857 1146.39 Q150.857 1137.64 153.913 1133.05 Q156.991 1128.45 162.802 1128.45 Z" fill="#000000" fill-rule="nonzero" fill-opacity="1" /><path clip-path="url(#clip230)" d="M154.839 924.876 L162.477 924.876 L162.477 898.511 L154.167 900.177 L154.167 895.918 L162.431 894.251 L167.107 894.251 L167.107 924.876 L174.746 924.876 L174.746 928.811 L154.839 928.811 L154.839 924.876 Z" fill="#000000" fill-rule="nonzero" fill-opacity="1" /><path clip-path="url(#clip230)" d="M158.427 690.056 L174.746 690.056 L174.746 693.992 L152.802 693.992 L152.802 690.056 Q155.464 687.302 160.047 682.672 Q164.653 678.019 165.834 676.677 Q168.079 674.154 168.959 672.418 Q169.862 670.658 169.862 668.969 Q169.862 666.214 167.917 664.478 Q165.996 662.742 162.894 662.742 Q160.695 662.742 158.241 663.506 Q155.811 664.27 153.033 665.82 L153.033 661.098 Q155.857 659.964 158.311 659.385 Q160.765 658.807 162.802 658.807 Q168.172 658.807 171.366 661.492 Q174.561 664.177 174.561 668.668 Q174.561 670.797 173.751 672.719 Q172.964 674.617 170.857 677.209 Q170.278 677.881 167.177 681.098 Q164.075 684.293 158.427 690.056 Z" fill="#000000" fill-rule="nonzero" fill-opacity="1" /><path clip-path="url(#clip230)" d="M167.616 440.538 Q170.973 441.255 172.848 443.524 Q174.746 445.792 174.746 449.126 Q174.746 454.241 171.227 457.042 Q167.709 459.843 161.227 459.843 Q159.052 459.843 156.737 459.403 Q154.445 458.987 151.991 458.13 L151.991 453.616 Q153.936 454.751 156.251 455.329 Q158.565 455.908 161.089 455.908 Q165.487 455.908 167.778 454.172 Q170.093 452.436 170.093 449.126 Q170.093 446.07 167.94 444.357 Q165.811 442.621 161.991 442.621 L157.964 442.621 L157.964 438.778 L162.177 438.778 Q165.626 438.778 167.454 437.413 Q169.283 436.024 169.283 433.431 Q169.283 430.769 167.385 429.357 Q165.51 427.922 161.991 427.922 Q160.07 427.922 157.871 428.339 Q155.672 428.755 153.033 429.635 L153.033 425.468 Q155.695 424.728 158.01 424.357 Q160.348 423.987 162.408 423.987 Q167.732 423.987 170.834 426.417 Q173.936 428.825 173.936 432.945 Q173.936 435.816 172.292 437.806 Q170.649 439.774 167.616 440.538 Z" fill="#000000" fill-rule="nonzero" fill-opacity="1" /><path clip-path="url(#clip230)" d="M165.163 193.866 L153.357 212.315 L165.163 212.315 L165.163 193.866 M163.936 189.792 L169.815 189.792 L169.815 212.315 L174.746 212.315 L174.746 216.204 L169.815 216.204 L169.815 224.352 L165.163 224.352 L165.163 216.204 L149.561 216.204 L149.561 211.69 L163.936 189.792 Z" fill="#000000" fill-rule="nonzero" fill-opacity="1" /><path clip-path="url(#clip230)" d="M35.1993 927.138 Q31.2526 924.942 29.3747 921.886 Q27.4968 918.831 27.4968 914.693 Q27.4968 909.123 31.4117 906.099 Q35.2948 903.076 42.4881 903.076 L64.0042 903.076 L64.0042 908.964 L42.679 908.964 Q37.5546 908.964 35.072 910.778 Q32.5894 912.592 32.5894 916.316 Q32.5894 920.868 35.6131 923.51 Q38.6368 926.151 43.8567 926.151 L64.0042 926.151 L64.0042 932.04 L42.679 932.04 Q37.5228 932.04 35.072 933.854 Q32.5894 935.668 32.5894 939.456 Q32.5894 943.943 35.6449 946.585 Q38.6686 949.227 43.8567 949.227 L64.0042 949.227 L64.0042 955.115 L28.3562 955.115 L28.3562 949.227 L33.8944 949.227 Q30.616 947.222 29.0564 944.421 Q27.4968 941.62 27.4968 937.769 Q27.4968 933.886 29.4702 931.18 Q31.4436 928.443 35.1993 927.138 Z" fill="#000000" fill-rule="nonzero" fill-opacity="1" /><path clip-path="url(#clip230)" d="M28.3562 891.395 L28.3562 885.538 L64.0042 885.538 L64.0042 891.395 L28.3562 891.395 M14.479 891.395 L14.479 885.538 L21.895 885.538 L21.895 891.395 L14.479 891.395 Z" fill="#000000" fill-rule="nonzero" fill-opacity="1" /><path clip-path="url(#clip230)" d="M33.7671 849.827 L14.479 849.827 L14.479 843.97 L64.0042 843.97 L64.0042 849.827 L58.657 849.827 Q61.8398 851.673 63.3994 854.505 Q64.9272 857.306 64.9272 861.253 Q64.9272 867.714 59.771 871.788 Q54.6147 875.83 46.212 875.83 Q37.8093 875.83 32.6531 871.788 Q27.4968 867.714 27.4968 861.253 Q27.4968 857.306 29.0564 854.505 Q30.5842 851.673 33.7671 849.827 M46.212 869.783 Q52.6732 869.783 56.3653 867.141 Q60.0256 864.468 60.0256 859.821 Q60.0256 855.174 56.3653 852.5 Q52.6732 849.827 46.212 849.827 Q39.7508 849.827 36.0905 852.5 Q32.3984 855.174 32.3984 859.821 Q32.3984 864.468 36.0905 867.141 Q39.7508 869.783 46.212 869.783 Z" fill="#000000" fill-rule="nonzero" fill-opacity="1" /><path clip-path="url(#clip230)" d="M33.7671 808.449 L14.479 808.449 L14.479 802.593 L64.0042 802.593 L64.0042 808.449 L58.657 808.449 Q61.8398 810.295 63.3994 813.128 Q64.9272 815.929 64.9272 819.876 Q64.9272 826.337 59.771 830.411 Q54.6147 834.453 46.212 834.453 Q37.8093 834.453 32.6531 830.411 Q27.4968 826.337 27.4968 819.876 Q27.4968 815.929 29.0564 813.128 Q30.5842 810.295 33.7671 808.449 M46.212 828.406 Q52.6732 828.406 56.3653 825.764 Q60.0256 823.091 60.0256 818.444 Q60.0256 813.797 56.3653 811.123 Q52.6732 808.449 46.212 808.449 Q39.7508 808.449 36.0905 811.123 Q32.3984 813.797 32.3984 818.444 Q32.3984 823.091 36.0905 825.764 Q39.7508 828.406 46.212 828.406 Z" fill="#000000" fill-rule="nonzero" fill-opacity="1" /><path clip-path="url(#clip230)" d="M14.479 790.53 L14.479 784.674 L64.0042 784.674 L64.0042 790.53 L14.479 790.53 Z" fill="#000000" fill-rule="nonzero" fill-opacity="1" /><path clip-path="url(#clip230)" d="M44.7161 741.928 L47.5806 741.928 L47.5806 768.855 Q53.6281 768.473 56.8109 765.226 Q59.9619 761.948 59.9619 756.123 Q59.9619 752.749 59.1344 749.598 Q58.3069 746.416 56.6518 743.296 L62.1899 743.296 Q63.5267 746.447 64.227 749.758 Q64.9272 753.068 64.9272 756.473 Q64.9272 765.003 59.9619 770.001 Q54.9967 774.966 46.5303 774.966 Q37.7774 774.966 32.6531 770.255 Q27.4968 765.513 27.4968 757.492 Q27.4968 750.299 32.1438 746.129 Q36.7589 741.928 44.7161 741.928 M42.9973 747.784 Q38.1912 747.848 35.3266 750.49 Q32.4621 753.1 32.4621 757.428 Q32.4621 762.33 35.2312 765.29 Q38.0002 768.218 43.0292 768.664 L42.9973 747.784 Z" fill="#000000" fill-rule="nonzero" fill-opacity="1" /><path clip-path="url(#clip230)" d="M58.657 705.93 L77.5631 705.93 L77.5631 711.818 L28.3562 711.818 L28.3562 705.93 L33.7671 705.93 Q30.5842 704.084 29.0564 701.283 Q27.4968 698.45 27.4968 694.535 Q27.4968 688.042 32.6531 684 Q37.8093 679.926 46.212 679.926 Q54.6147 679.926 59.771 684 Q64.9272 688.042 64.9272 694.535 Q64.9272 698.45 63.3994 701.283 Q61.8398 704.084 58.657 705.93 M46.212 686.005 Q39.7508 686.005 36.0905 688.679 Q32.3984 691.32 32.3984 695.967 Q32.3984 700.614 36.0905 703.288 Q39.7508 705.93 46.212 705.93 Q52.6732 705.93 56.3653 703.288 Q60.0256 700.614 60.0256 695.967 Q60.0256 691.32 56.3653 688.679 Q52.6732 686.005 46.212 686.005 Z" fill="#000000" fill-rule="nonzero" fill-opacity="1" /><path clip-path="url(#clip230)" d="M33.8307 649.561 Q33.2578 650.548 33.0032 651.726 Q32.7167 652.872 32.7167 654.272 Q32.7167 659.237 35.9632 661.911 Q39.1779 664.553 45.2253 664.553 L64.0042 664.553 L64.0042 670.441 L28.3562 670.441 L28.3562 664.553 L33.8944 664.553 Q30.6479 662.707 29.0883 659.747 Q27.4968 656.786 27.4968 652.553 Q27.4968 651.949 27.5923 651.216 Q27.656 650.484 27.8151 649.593 L33.8307 649.561 Z" fill="#000000" fill-rule="nonzero" fill-opacity="1" /><path clip-path="url(#clip230)" d="M32.4621 631.037 Q32.4621 635.748 36.1542 638.485 Q39.8145 641.222 46.212 641.222 Q52.6095 641.222 56.3017 638.517 Q59.9619 635.78 59.9619 631.037 Q59.9619 626.358 56.2698 623.621 Q52.5777 620.884 46.212 620.884 Q39.8781 620.884 36.186 623.621 Q32.4621 626.358 32.4621 631.037 M27.4968 631.037 Q27.4968 623.398 32.4621 619.038 Q37.4273 614.677 46.212 614.677 Q54.9649 614.677 59.9619 619.038 Q64.9272 623.398 64.9272 631.037 Q64.9272 638.708 59.9619 643.068 Q54.9649 647.397 46.212 647.397 Q37.4273 647.397 32.4621 643.068 Q27.4968 638.708 27.4968 631.037 Z" fill="#000000" fill-rule="nonzero" fill-opacity="1" /><path clip-path="url(#clip230)" d="M14.479 586.923 L19.3487 586.923 L19.3487 592.525 Q19.3487 595.676 20.6219 596.917 Q21.895 598.126 25.2052 598.126 L28.3562 598.126 L28.3562 588.482 L32.9077 588.482 L32.9077 598.126 L64.0042 598.126 L64.0042 604.015 L32.9077 604.015 L32.9077 609.617 L28.3562 609.617 L28.3562 604.015 L25.8736 604.015 Q19.9216 604.015 17.2162 601.246 Q14.479 598.477 14.479 592.461 L14.479 586.923 Z" fill="#000000" fill-rule="nonzero" fill-opacity="1" /><path clip-path="url(#clip230)" d="M28.3562 582.021 L28.3562 576.165 L64.0042 576.165 L64.0042 582.021 L28.3562 582.021 M14.479 582.021 L14.479 576.165 L21.895 576.165 L21.895 582.021 L14.479 582.021 Z" fill="#000000" fill-rule="nonzero" fill-opacity="1" /><path clip-path="url(#clip230)" d="M14.479 563.911 L14.479 558.054 L64.0042 558.054 L64.0042 563.911 L14.479 563.911 Z" fill="#000000" fill-rule="nonzero" fill-opacity="1" /><path clip-path="url(#clip230)" d="M44.7161 515.309 L47.5806 515.309 L47.5806 542.236 Q53.6281 541.854 56.8109 538.607 Q59.9619 535.329 59.9619 529.504 Q59.9619 526.13 59.1344 522.979 Q58.3069 519.796 56.6518 516.677 L62.1899 516.677 Q63.5267 519.828 64.227 523.138 Q64.9272 526.449 64.9272 529.854 Q64.9272 538.384 59.9619 543.381 Q54.9967 548.347 46.5303 548.347 Q37.7774 548.347 32.6531 543.636 Q27.4968 538.894 27.4968 530.873 Q27.4968 523.68 32.1438 519.51 Q36.7589 515.309 44.7161 515.309 M42.9973 521.165 Q38.1912 521.229 35.3266 523.871 Q32.4621 526.48 32.4621 530.809 Q32.4621 535.711 35.2312 538.671 Q38.0002 541.599 43.0292 542.045 L42.9973 521.165 Z" fill="#000000" fill-rule="nonzero" fill-opacity="1" /><polyline clip-path="url(#clip231)" style="stroke:#009af9; stroke-linecap:round; stroke-linejoin:round; stroke-width:4; stroke-opacity:1; fill:none" points="271.369,1163.39 287.28,1163.7 303.192,1154.78 319.103,1155.95 335.015,1147.58 350.927,1148.82 366.838,1141.27 382.75,1142.81 398.661,1134.93 414.573,1138.4 430.484,1128.28 446.396,1135.09 462.307,1122.21 478.219,1131.56 494.13,1117.63 510.042,1127.68 525.953,1113.26 541.865,1125.91 557.776,1105.19 573.688,1134.01 589.599,958.849 605.511,855.915 621.422,685.674 637.334,621.343 653.246,649.936 669.157,628.629 685.069,640.462 700.98,632.014 716.892,635.092 732.803,629.368 748.715,636.698 764.626,624.226 780.538,634.495 796.449,625.181 812.361,630.822 828.272,626.152 844.184,626.912 860.095,621.495 876.007,631.786 891.918,595.275 907.83,199.224 923.742,141.068 939.653,156.644 955.565,150.778 971.476,159.779 987.388,146.282 1003.3,160.436 1019.21,141.517 1035.12,154.179 1051.03,145.962 1066.95,152.148 1082.86,146.163 1098.77,159.328 1114.68,150.008 1130.59,146.408 1146.5,148.312 1162.41,154.171 1178.33,145.126 1194.24,154.972 1210.15,149.503 1226.06,86.1857 1241.97,464.51 1257.88,697.598 1273.8,618.946 1289.71,636.102 1305.62,630.704 1321.53,673.845 1337.44,637.336 1353.35,595.201 1369.26,591.592 1385.18,679.777 1401.09,1050.22 1417,1107.91 1432.91,1080.54 1448.82,1092.64 1464.73,1078.55 1480.65,1099.77 1496.56,1077.84 1512.47,1100.58 1528.38,1081.94 1544.29,1103.12 1560.2,1071.03 1576.11,1113.3 1592.03,1066.47 1607.94,1132.42 1623.85,923.056 1639.76,588.502 1655.67,641.122 1671.58,614.911 1687.49,633.168 1703.41,622.429 1719.32,635.225 1735.23,620.258 1751.14,635.351 1767.05,626.274 1782.96,635.667 1798.88,627.316 1814.79,637.322 1830.7,632.274 1846.61,634.971 1862.52,638.994 1878.43,633.827 1894.34,643.96 1910.26,634.128 1926.17,649.98 1942.08,629.487 1957.99,685.566 1973.9,863.395 1989.81,960.504 2005.73,1140.68 2021.64,1107.81 2037.55,1132.6 2053.46,1116.66 2069.37,1134.16 2085.28,1122.1 2101.19,1138.02 2117.11,1127.13 2133.02,1142.46 2148.93,1133 2164.84,1146.85 2180.75,1140.01 2196.66,1151.45 2212.58,1147.8 2228.49,1156.96 2244.4,1155.91 2260.31,1163.92 2276.22,1164.23 2292.13,1172.58 "/>
<polyline clip-path="url(#clip231)" style="stroke:#e26f46; stroke-linecap:round; stroke-linejoin:round; stroke-width:4; stroke-opacity:1; fill:none" points="271.369,1375.04 287.28,1375.36 303.192,1366.44 319.103,1367.61 335.015,1359.24 350.927,1360.48 366.838,1352.92 382.75,1354.46 398.661,1346.58 414.573,1350.05 430.484,1339.93 446.396,1346.74 462.307,1333.87 478.219,1343.21 494.13,1329.28 510.042,1339.34 525.953,1324.91 541.865,1337.57 557.776,1316.84 573.688,1345.66 589.599,1170.5 605.511,1067.57 621.422,897.329 637.334,832.998 653.246,861.591 669.157,840.284 685.069,852.117 700.98,843.669 716.892,846.747 732.803,841.023 748.715,848.354 764.626,835.881 780.538,846.15 796.449,836.837 812.361,842.477 828.272,837.807 844.184,838.567 860.095,833.15 876.007,843.441 891.918,806.93 907.83,410.879 923.742,352.723 939.653,368.299 955.565,362.433 971.476,371.434 987.388,357.937 1003.3,372.092 1019.21,353.172 1035.12,365.834 1051.03,357.617 1066.95,363.803 1082.86,357.818 1098.77,370.983 1114.68,361.663 1130.59,358.063 1146.5,359.967 1162.41,365.826 1178.33,356.782 1194.24,366.627 1210.15,361.158 1226.06,297.841 1241.97,676.165 1257.88,909.253 1273.8,830.601 1289.71,847.757 1305.62,842.359 1321.53,885.501 1337.44,848.991 1353.35,806.856 1369.26,803.247 1385.18,891.432 1401.09,1261.87 1417,1319.57 1432.91,1292.2 1448.82,1304.29 1464.73,1290.2 1480.65,1311.42 1496.56,1289.5 1512.47,1312.24 1528.38,1293.6 1544.29,1314.78 1560.2,1282.68 1576.11,1324.95 1592.03,1278.13 1607.94,1344.08 1623.85,1134.71 1639.76,800.158 1655.67,852.777 1671.58,826.566 1687.49,844.823 1703.41,834.084 1719.32,846.88 1735.23,831.913 1751.14,847.006 1767.05,837.929 1782.96,847.322 1798.88,838.971 1814.79,848.978 1830.7,843.93 1846.61,846.626 1862.52,850.649 1878.43,845.482 1894.34,855.615 1910.26,845.784 1926.17,861.635 1942.08,841.142 1957.99,897.221 1973.9,1075.05 1989.81,1172.16 2005.73,1352.33 2021.64,1319.47 2037.55,1344.26 2053.46,1328.31 2069.37,1345.81 2085.28,1333.76 2101.19,1349.67 2117.11,1338.78 2133.02,1354.12 2148.93,1344.65 2164.84,1358.51 2180.75,1351.67 2196.66,1363.11 2212.58,1359.46 2228.49,1368.61 2244.4,1367.57 2260.31,1375.58 2276.22,1375.88 2292.13,1384.24 "/>
<polyline clip-path="url(#clip231)" style="stroke:#3da44d; stroke-linecap:round; stroke-linejoin:round; stroke-width:4; stroke-opacity:1; fill:none" points="271.369,1146.35 287.28,1146.35 303.192,1146.35 319.103,1146.35 335.015,1146.35 350.927,1146.35 366.838,1146.35 382.75,1146.35 398.661,1146.35 414.573,1146.35 430.484,1146.35 446.396,1146.35 462.307,1146.35 478.219,1146.35 494.13,1146.35 510.042,1146.35 525.953,1146.35 541.865,1146.35 557.776,1146.35 573.688,1146.35 589.599,1028.94 605.511,911.531 621.422,676.712 637.334,676.712 653.246,676.712 669.157,676.712 685.069,676.712 700.98,676.712 716.892,676.712 732.803,676.712 748.715,676.712 764.626,676.712 780.538,676.712 796.449,676.712 812.361,676.712 828.272,676.712 844.184,676.712 860.095,676.712 876.007,676.712 891.918,676.712 907.83,207.072 923.742,207.072 939.653,207.072 955.565,207.072 971.476,207.072 987.388,207.072 1003.3,207.072 1019.21,207.072 1035.12,207.072 1051.03,207.072 1066.95,207.072 1082.86,207.072 1098.77,207.072 1114.68,207.072 1130.59,207.072 1146.5,207.072 1162.41,207.072 1178.33,207.072 1194.24,207.072 1210.15,207.072 1226.06,207.072 1241.97,441.892 1257.88,676.712 1273.8,676.712 1289.71,676.712 1305.62,676.712 1321.53,676.712 1337.44,676.712 1353.35,676.712 1369.26,676.712 1385.18,676.712 1401.09,1146.35 1417,1146.35 1432.91,1146.35 1448.82,1146.35 1464.73,1146.35 1480.65,1146.35 1496.56,1146.35 1512.47,1146.35 1528.38,1146.35 1544.29,1146.35 1560.2,1146.35 1576.11,1146.35 1592.03,1146.35 1607.94,1146.35 1623.85,911.531 1639.76,676.712 1655.67,676.712 1671.58,676.712 1687.49,676.712 1703.41,676.712 1719.32,676.712 1735.23,676.712 1751.14,676.712 1767.05,676.712 1782.96,676.712 1798.88,676.712 1814.79,676.712 1830.7,676.712 1846.61,676.712 1862.52,676.712 1878.43,676.712 1894.34,676.712 1910.26,676.712 1926.17,676.712 1942.08,676.712 1957.99,676.712 1973.9,911.531 1989.81,1028.94 2005.73,1146.35 2021.64,1146.35 2037.55,1146.35 2053.46,1146.35 2069.37,1146.35 2085.28,1146.35 2101.19,1146.35 2117.11,1146.35 2133.02,1146.35 2148.93,1146.35 2164.84,1146.35 2180.75,1146.35 2196.66,1146.35 2212.58,1146.35 2228.49,1146.35 2244.4,1146.35 2260.31,1146.35 2276.22,1146.35 2292.13,1146.35 "/>
<path clip-path="url(#clip230)" d="M1620.44 300.469 L2281.36 300.469 L2281.36 93.1086 L1620.44 93.1086  Z" fill="#ffffff" fill-rule="evenodd" fill-opacity="1"/>
<polyline clip-path="url(#clip230)" style="stroke:#000000; stroke-linecap:round; stroke-linejoin:round; stroke-width:4; stroke-opacity:1; fill:none" points="1620.44,300.469 2281.36,300.469 2281.36,93.1086 1620.44,93.1086 1620.44,300.469 "/>
<polyline clip-path="url(#clip230)" style="stroke:#009af9; stroke-linecap:round; stroke-linejoin:round; stroke-width:4; stroke-opacity:1; fill:none" points="1644.24,144.949 1787.04,144.949 "/>
<path clip-path="url(#clip230)" d="M1810.84 127.669 L1817.81 127.669 L1826.63 151.187 L1835.5 127.669 L1842.47 127.669 L1842.47 162.229 L1837.9 162.229 L1837.9 131.882 L1828.99 155.585 L1824.29 155.585 L1815.38 131.882 L1815.38 162.229 L1810.84 162.229 L1810.84 127.669 Z" fill="#000000" fill-rule="nonzero" fill-opacity="1" /><path clip-path="url(#clip230)" d="M1861.61 139.289 Q1858.18 139.289 1856.19 141.974 Q1854.2 144.636 1854.2 149.289 Q1854.2 153.942 1856.17 156.627 Q1858.16 159.289 1861.61 159.289 Q1865.01 159.289 1867 156.604 Q1868.99 153.918 1868.99 149.289 Q1868.99 144.682 1867 141.997 Q1865.01 139.289 1861.61 139.289 M1861.61 135.678 Q1867.16 135.678 1870.34 139.289 Q1873.51 142.9 1873.51 149.289 Q1873.51 155.655 1870.34 159.289 Q1867.16 162.9 1861.61 162.9 Q1856.03 162.9 1852.86 159.289 Q1849.71 155.655 1849.71 149.289 Q1849.71 142.9 1852.86 139.289 Q1856.03 135.678 1861.61 135.678 Z" fill="#000000" fill-rule="nonzero" fill-opacity="1" /><path clip-path="url(#clip230)" d="M1897.63 140.238 L1897.63 126.21 L1901.89 126.21 L1901.89 162.229 L1897.63 162.229 L1897.63 158.34 Q1896.28 160.655 1894.22 161.789 Q1892.19 162.9 1889.32 162.9 Q1884.62 162.9 1881.65 159.15 Q1878.71 155.4 1878.71 149.289 Q1878.71 143.178 1881.65 139.428 Q1884.62 135.678 1889.32 135.678 Q1892.19 135.678 1894.22 136.812 Q1896.28 137.923 1897.63 140.238 M1883.11 149.289 Q1883.11 153.988 1885.03 156.673 Q1886.98 159.335 1890.36 159.335 Q1893.74 159.335 1895.68 156.673 Q1897.63 153.988 1897.63 149.289 Q1897.63 144.59 1895.68 141.928 Q1893.74 139.243 1890.36 139.243 Q1886.98 139.243 1885.03 141.928 Q1883.11 144.59 1883.11 149.289 Z" fill="#000000" fill-rule="nonzero" fill-opacity="1" /><path clip-path="url(#clip230)" d="M1910.66 136.303 L1914.92 136.303 L1914.92 162.229 L1910.66 162.229 L1910.66 136.303 M1910.66 126.21 L1914.92 126.21 L1914.92 131.604 L1910.66 131.604 L1910.66 126.21 Z" fill="#000000" fill-rule="nonzero" fill-opacity="1" /><path clip-path="url(#clip230)" d="M1936.96 126.21 L1936.96 129.752 L1932.88 129.752 Q1930.59 129.752 1929.69 130.678 Q1928.81 131.604 1928.81 134.011 L1928.81 136.303 L1935.82 136.303 L1935.82 139.613 L1928.81 139.613 L1928.81 162.229 L1924.52 162.229 L1924.52 139.613 L1920.45 139.613 L1920.45 136.303 L1924.52 136.303 L1924.52 134.497 Q1924.52 130.169 1926.54 128.201 Q1928.55 126.21 1932.93 126.21 L1936.96 126.21 Z" fill="#000000" fill-rule="nonzero" fill-opacity="1" /><path clip-path="url(#clip230)" d="M1940.52 136.303 L1944.78 136.303 L1944.78 162.229 L1940.52 162.229 L1940.52 136.303 M1940.52 126.21 L1944.78 126.21 L1944.78 131.604 L1940.52 131.604 L1940.52 126.21 Z" fill="#000000" fill-rule="nonzero" fill-opacity="1" /><path clip-path="url(#clip230)" d="M1975.87 148.201 L1975.87 150.284 L1956.28 150.284 Q1956.56 154.682 1958.92 156.997 Q1961.31 159.289 1965.54 159.289 Q1968 159.289 1970.29 158.687 Q1972.6 158.085 1974.87 156.881 L1974.87 160.909 Q1972.58 161.881 1970.17 162.391 Q1967.77 162.9 1965.29 162.9 Q1959.08 162.9 1955.45 159.289 Q1951.84 155.678 1951.84 149.52 Q1951.84 143.155 1955.27 139.428 Q1958.71 135.678 1964.55 135.678 Q1969.78 135.678 1972.81 139.057 Q1975.87 142.414 1975.87 148.201 M1971.61 146.951 Q1971.56 143.456 1969.64 141.372 Q1967.74 139.289 1964.59 139.289 Q1961.03 139.289 1958.88 141.303 Q1956.75 143.317 1956.42 146.974 L1971.61 146.951 Z" fill="#000000" fill-rule="nonzero" fill-opacity="1" /><path clip-path="url(#clip230)" d="M1999.92 140.238 L1999.92 126.21 L2004.18 126.21 L2004.18 162.229 L1999.92 162.229 L1999.92 158.34 Q1998.58 160.655 1996.52 161.789 Q1994.48 162.9 1991.61 162.9 Q1986.91 162.9 1983.95 159.15 Q1981.01 155.4 1981.01 149.289 Q1981.01 143.178 1983.95 139.428 Q1986.91 135.678 1991.61 135.678 Q1994.48 135.678 1996.52 136.812 Q1998.58 137.923 1999.92 140.238 M1985.4 149.289 Q1985.4 153.988 1987.33 156.673 Q1989.27 159.335 1992.65 159.335 Q1996.03 159.335 1997.97 156.673 Q1999.92 153.988 1999.92 149.289 Q1999.92 144.59 1997.97 141.928 Q1996.03 139.243 1992.65 139.243 Q1989.27 139.243 1987.33 141.928 Q1985.4 144.59 1985.4 149.289 Z" fill="#000000" fill-rule="nonzero" fill-opacity="1" /><path clip-path="url(#clip230)" d="M2043.04 140.284 Q2042.33 139.868 2041.47 139.682 Q2040.64 139.474 2039.62 139.474 Q2036.01 139.474 2034.06 141.835 Q2032.14 144.173 2032.14 148.571 L2032.14 162.229 L2027.86 162.229 L2027.86 136.303 L2032.14 136.303 L2032.14 140.331 Q2033.48 137.969 2035.64 136.835 Q2037.79 135.678 2040.87 135.678 Q2041.31 135.678 2041.84 135.747 Q2042.37 135.794 2043.02 135.909 L2043.04 140.284 Z" fill="#000000" fill-rule="nonzero" fill-opacity="1" /><path clip-path="url(#clip230)" d="M2059.29 149.196 Q2054.13 149.196 2052.14 150.377 Q2050.15 151.557 2050.15 154.405 Q2050.15 156.673 2051.63 158.016 Q2053.14 159.335 2055.7 159.335 Q2059.25 159.335 2061.38 156.835 Q2063.53 154.312 2063.53 150.145 L2063.53 149.196 L2059.29 149.196 M2067.79 147.437 L2067.79 162.229 L2063.53 162.229 L2063.53 158.293 Q2062.07 160.655 2059.89 161.789 Q2057.72 162.9 2054.57 162.9 Q2050.59 162.9 2048.23 160.678 Q2045.89 158.432 2045.89 154.682 Q2045.89 150.307 2048.81 148.085 Q2051.75 145.863 2057.56 145.863 L2063.53 145.863 L2063.53 145.446 Q2063.53 142.507 2061.58 140.909 Q2059.66 139.289 2056.17 139.289 Q2053.95 139.289 2051.84 139.821 Q2049.73 140.354 2047.79 141.419 L2047.79 137.483 Q2050.13 136.581 2052.33 136.141 Q2054.52 135.678 2056.61 135.678 Q2062.23 135.678 2065.01 138.594 Q2067.79 141.511 2067.79 147.437 Z" fill="#000000" fill-rule="nonzero" fill-opacity="1" /><path clip-path="url(#clip230)" d="M2096.75 141.28 Q2098.34 138.409 2100.57 137.044 Q2102.79 135.678 2105.8 135.678 Q2109.85 135.678 2112.05 138.525 Q2114.25 141.349 2114.25 146.581 L2114.25 162.229 L2109.96 162.229 L2109.96 146.719 Q2109.96 142.993 2108.64 141.187 Q2107.32 139.382 2104.62 139.382 Q2101.31 139.382 2099.39 141.581 Q2097.46 143.78 2097.46 147.576 L2097.46 162.229 L2093.18 162.229 L2093.18 146.719 Q2093.18 142.969 2091.86 141.187 Q2090.54 139.382 2087.79 139.382 Q2084.52 139.382 2082.6 141.604 Q2080.68 143.803 2080.68 147.576 L2080.68 162.229 L2076.4 162.229 L2076.4 136.303 L2080.68 136.303 L2080.68 140.331 Q2082.14 137.946 2084.18 136.812 Q2086.21 135.678 2089.01 135.678 Q2091.84 135.678 2093.81 137.113 Q2095.8 138.548 2096.75 141.28 Z" fill="#000000" fill-rule="nonzero" fill-opacity="1" /><path clip-path="url(#clip230)" d="M2126.86 158.34 L2126.86 172.09 L2122.58 172.09 L2122.58 136.303 L2126.86 136.303 L2126.86 140.238 Q2128.2 137.923 2130.24 136.812 Q2132.3 135.678 2135.15 135.678 Q2139.87 135.678 2142.81 139.428 Q2145.77 143.178 2145.77 149.289 Q2145.77 155.4 2142.81 159.15 Q2139.87 162.9 2135.15 162.9 Q2132.3 162.9 2130.24 161.789 Q2128.2 160.655 2126.86 158.34 M2141.35 149.289 Q2141.35 144.59 2139.41 141.928 Q2137.49 139.243 2134.11 139.243 Q2130.73 139.243 2128.78 141.928 Q2126.86 144.59 2126.86 149.289 Q2126.86 153.988 2128.78 156.673 Q2130.73 159.335 2134.11 159.335 Q2137.49 159.335 2139.41 156.673 Q2141.35 153.988 2141.35 149.289 Z" fill="#000000" fill-rule="nonzero" fill-opacity="1" /><path clip-path="url(#clip230)" d="M2172.76 131.511 L2172.76 158.386 L2178.41 158.386 Q2185.57 158.386 2188.88 155.145 Q2192.21 151.905 2192.21 144.914 Q2192.21 137.969 2188.88 134.752 Q2185.57 131.511 2178.41 131.511 L2172.76 131.511 M2168.09 127.669 L2177.69 127.669 Q2187.74 127.669 2192.44 131.858 Q2197.14 136.025 2197.14 144.914 Q2197.14 153.849 2192.42 158.039 Q2187.69 162.229 2177.69 162.229 L2168.09 162.229 L2168.09 127.669 Z" fill="#000000" fill-rule="nonzero" fill-opacity="1" /><path clip-path="url(#clip230)" d="M2230.47 130.331 L2230.47 135.261 Q2228.11 133.062 2225.43 131.974 Q2222.76 130.886 2219.75 130.886 Q2213.83 130.886 2210.68 134.52 Q2207.53 138.132 2207.53 144.983 Q2207.53 151.812 2210.68 155.446 Q2213.83 159.057 2219.75 159.057 Q2222.76 159.057 2225.43 157.969 Q2228.11 156.881 2230.47 154.682 L2230.47 159.567 Q2228.02 161.233 2225.26 162.067 Q2222.53 162.9 2219.48 162.9 Q2211.63 162.9 2207.12 158.108 Q2202.6 153.293 2202.6 144.983 Q2202.6 136.65 2207.12 131.858 Q2211.63 127.044 2219.48 127.044 Q2222.58 127.044 2225.31 127.877 Q2228.06 128.687 2230.47 130.331 Z" fill="#000000" fill-rule="nonzero" fill-opacity="1" /><path clip-path="url(#clip230)" d="M2237.69 127.669 L2257.56 127.669 L2257.56 131.604 L2242.37 131.604 L2242.37 141.789 L2256.07 141.789 L2256.07 145.724 L2242.37 145.724 L2242.37 162.229 L2237.69 162.229 L2237.69 127.669 Z" fill="#000000" fill-rule="nonzero" fill-opacity="1" /><polyline clip-path="url(#clip230)" style="stroke:#e26f46; stroke-linecap:round; stroke-linejoin:round; stroke-width:4; stroke-opacity:1; fill:none" points="1644.24,196.789 1787.04,196.789 "/>
<path clip-path="url(#clip230)" d="M1815.52 197.564 L1815.52 210.226 L1823.02 210.226 Q1826.79 210.226 1828.6 208.675 Q1830.43 207.101 1830.43 203.883 Q1830.43 200.643 1828.6 199.115 Q1826.79 197.564 1823.02 197.564 L1815.52 197.564 M1815.52 183.351 L1815.52 193.768 L1822.44 193.768 Q1825.87 193.768 1827.53 192.495 Q1829.22 191.198 1829.22 188.559 Q1829.22 185.944 1827.53 184.647 Q1825.87 183.351 1822.44 183.351 L1815.52 183.351 M1810.84 179.509 L1822.79 179.509 Q1828.14 179.509 1831.03 181.731 Q1833.92 183.953 1833.92 188.05 Q1833.92 191.222 1832.44 193.097 Q1830.96 194.971 1828.09 195.434 Q1831.54 196.175 1833.44 198.536 Q1835.36 200.874 1835.36 204.393 Q1835.36 209.022 1832.21 211.545 Q1829.06 214.069 1823.25 214.069 L1810.84 214.069 L1810.84 179.509 Z" fill="#000000" fill-rule="nonzero" fill-opacity="1" /><path clip-path="url(#clip230)" d="M1854.97 201.036 Q1849.8 201.036 1847.81 202.217 Q1845.82 203.397 1845.82 206.245 Q1845.82 208.513 1847.3 209.856 Q1848.81 211.175 1851.38 211.175 Q1854.92 211.175 1857.05 208.675 Q1859.2 206.152 1859.2 201.985 L1859.2 201.036 L1854.97 201.036 M1863.46 199.277 L1863.46 214.069 L1859.2 214.069 L1859.2 210.133 Q1857.74 212.495 1855.57 213.629 Q1853.39 214.74 1850.24 214.74 Q1846.26 214.74 1843.9 212.518 Q1841.56 210.272 1841.56 206.522 Q1841.56 202.147 1844.48 199.925 Q1847.42 197.703 1853.23 197.703 L1859.2 197.703 L1859.2 197.286 Q1859.2 194.347 1857.26 192.749 Q1855.34 191.129 1851.84 191.129 Q1849.62 191.129 1847.51 191.661 Q1845.4 192.194 1843.46 193.259 L1843.46 189.323 Q1845.8 188.421 1848 187.981 Q1850.2 187.518 1852.28 187.518 Q1857.9 187.518 1860.68 190.434 Q1863.46 193.351 1863.46 199.277 Z" fill="#000000" fill-rule="nonzero" fill-opacity="1" /><path clip-path="url(#clip230)" d="M1888.76 188.907 L1888.76 192.934 Q1886.96 192.009 1885.01 191.546 Q1883.07 191.083 1880.98 191.083 Q1877.81 191.083 1876.21 192.055 Q1874.64 193.027 1874.64 194.971 Q1874.64 196.453 1875.78 197.309 Q1876.91 198.143 1880.34 198.907 L1881.79 199.231 Q1886.33 200.203 1888.23 201.985 Q1890.15 203.745 1890.15 206.916 Q1890.15 210.527 1887.28 212.633 Q1884.43 214.74 1879.43 214.74 Q1877.35 214.74 1875.08 214.323 Q1872.84 213.93 1870.34 213.12 L1870.34 208.721 Q1872.7 209.948 1874.99 210.573 Q1877.28 211.175 1879.53 211.175 Q1882.53 211.175 1884.15 210.157 Q1885.78 209.115 1885.78 207.24 Q1885.78 205.504 1884.59 204.578 Q1883.44 203.652 1879.48 202.796 L1878 202.448 Q1874.04 201.615 1872.28 199.902 Q1870.52 198.166 1870.52 195.157 Q1870.52 191.499 1873.11 189.509 Q1875.71 187.518 1880.47 187.518 Q1882.84 187.518 1884.92 187.865 Q1887 188.212 1888.76 188.907 Z" fill="#000000" fill-rule="nonzero" fill-opacity="1" /><path clip-path="url(#clip230)" d="M1896.93 188.143 L1901.19 188.143 L1901.19 214.069 L1896.93 214.069 L1896.93 188.143 M1896.93 178.05 L1901.19 178.05 L1901.19 183.444 L1896.93 183.444 L1896.93 178.05 Z" fill="#000000" fill-rule="nonzero" fill-opacity="1" /><path clip-path="url(#clip230)" d="M1928.76 189.138 L1928.76 193.12 Q1926.96 192.124 1925.13 191.638 Q1923.32 191.129 1921.47 191.129 Q1917.33 191.129 1915.03 193.768 Q1912.74 196.384 1912.74 201.129 Q1912.74 205.874 1915.03 208.513 Q1917.33 211.129 1921.47 211.129 Q1923.32 211.129 1925.13 210.643 Q1926.96 210.133 1928.76 209.138 L1928.76 213.073 Q1926.98 213.907 1925.06 214.323 Q1923.16 214.74 1921.01 214.74 Q1915.15 214.74 1911.7 211.059 Q1908.25 207.379 1908.25 201.129 Q1908.25 194.786 1911.72 191.152 Q1915.22 187.518 1921.28 187.518 Q1923.25 187.518 1925.13 187.935 Q1927 188.328 1928.76 189.138 Z" fill="#000000" fill-rule="nonzero" fill-opacity="1" /><path clip-path="url(#clip230)" d="M1966.26 192.124 Q1965.54 191.708 1964.69 191.522 Q1963.85 191.314 1962.83 191.314 Q1959.22 191.314 1957.28 193.675 Q1955.36 196.013 1955.36 200.411 L1955.36 214.069 L1951.08 214.069 L1951.08 188.143 L1955.36 188.143 L1955.36 192.171 Q1956.7 189.809 1958.85 188.675 Q1961.01 187.518 1964.08 187.518 Q1964.52 187.518 1965.06 187.587 Q1965.59 187.634 1966.24 187.749 L1966.26 192.124 Z" fill="#000000" fill-rule="nonzero" fill-opacity="1" /><path clip-path="url(#clip230)" d="M1982.51 201.036 Q1977.35 201.036 1975.36 202.217 Q1973.37 203.397 1973.37 206.245 Q1973.37 208.513 1974.85 209.856 Q1976.35 211.175 1978.92 211.175 Q1982.46 211.175 1984.59 208.675 Q1986.75 206.152 1986.75 201.985 L1986.75 201.036 L1982.51 201.036 M1991.01 199.277 L1991.01 214.069 L1986.75 214.069 L1986.75 210.133 Q1985.29 212.495 1983.11 213.629 Q1980.94 214.74 1977.79 214.74 Q1973.81 214.74 1971.45 212.518 Q1969.11 210.272 1969.11 206.522 Q1969.11 202.147 1972.02 199.925 Q1974.96 197.703 1980.77 197.703 L1986.75 197.703 L1986.75 197.286 Q1986.75 194.347 1984.8 192.749 Q1982.88 191.129 1979.39 191.129 Q1977.16 191.129 1975.06 191.661 Q1972.95 192.194 1971.01 193.259 L1971.01 189.323 Q1973.34 188.421 1975.54 187.981 Q1977.74 187.518 1979.83 187.518 Q1985.45 187.518 1988.23 190.434 Q1991.01 193.351 1991.01 199.277 Z" fill="#000000" fill-rule="nonzero" fill-opacity="1" /><path clip-path="url(#clip230)" d="M2019.96 193.12 Q2021.56 190.249 2023.78 188.884 Q2026.01 187.518 2029.02 187.518 Q2033.07 187.518 2035.26 190.365 Q2037.46 193.189 2037.46 198.421 L2037.46 214.069 L2033.18 214.069 L2033.18 198.559 Q2033.18 194.833 2031.86 193.027 Q2030.54 191.222 2027.83 191.222 Q2024.52 191.222 2022.6 193.421 Q2020.68 195.62 2020.68 199.416 L2020.68 214.069 L2016.4 214.069 L2016.4 198.559 Q2016.4 194.809 2015.08 193.027 Q2013.76 191.222 2011.01 191.222 Q2007.74 191.222 2005.82 193.444 Q2003.9 195.643 2003.9 199.416 L2003.9 214.069 L1999.62 214.069 L1999.62 188.143 L2003.9 188.143 L2003.9 192.171 Q2005.36 189.786 2007.39 188.652 Q2009.43 187.518 2012.23 187.518 Q2015.06 187.518 2017.02 188.953 Q2019.02 190.388 2019.96 193.12 Z" fill="#000000" fill-rule="nonzero" fill-opacity="1" /><path clip-path="url(#clip230)" d="M2050.08 210.18 L2050.08 223.93 L2045.8 223.93 L2045.8 188.143 L2050.08 188.143 L2050.08 192.078 Q2051.42 189.763 2053.46 188.652 Q2055.52 187.518 2058.37 187.518 Q2063.09 187.518 2066.03 191.268 Q2068.99 195.018 2068.99 201.129 Q2068.99 207.24 2066.03 210.99 Q2063.09 214.74 2058.37 214.74 Q2055.52 214.74 2053.46 213.629 Q2051.42 212.495 2050.08 210.18 M2064.57 201.129 Q2064.57 196.43 2062.63 193.768 Q2060.7 191.083 2057.33 191.083 Q2053.95 191.083 2052 193.768 Q2050.08 196.43 2050.08 201.129 Q2050.08 205.828 2052 208.513 Q2053.95 211.175 2057.33 211.175 Q2060.7 211.175 2062.63 208.513 Q2064.57 205.828 2064.57 201.129 Z" fill="#000000" fill-rule="nonzero" fill-opacity="1" /><path clip-path="url(#clip230)" d="M2095.98 183.351 L2095.98 210.226 L2101.63 210.226 Q2108.78 210.226 2112.09 206.985 Q2115.43 203.745 2115.43 196.754 Q2115.43 189.809 2112.09 186.592 Q2108.78 183.351 2101.63 183.351 L2095.98 183.351 M2091.31 179.509 L2100.91 179.509 Q2110.96 179.509 2115.66 183.698 Q2120.36 187.865 2120.36 196.754 Q2120.36 205.689 2115.63 209.879 Q2110.91 214.069 2100.91 214.069 L2091.31 214.069 L2091.31 179.509 Z" fill="#000000" fill-rule="nonzero" fill-opacity="1" /><path clip-path="url(#clip230)" d="M2153.69 182.171 L2153.69 187.101 Q2151.33 184.902 2148.64 183.814 Q2145.98 182.726 2142.97 182.726 Q2137.05 182.726 2133.9 186.36 Q2130.75 189.972 2130.75 196.823 Q2130.75 203.652 2133.9 207.286 Q2137.05 210.897 2142.97 210.897 Q2145.98 210.897 2148.64 209.809 Q2151.33 208.721 2153.69 206.522 L2153.69 211.407 Q2151.24 213.073 2148.48 213.907 Q2145.75 214.74 2142.69 214.74 Q2134.85 214.74 2130.33 209.948 Q2125.82 205.133 2125.82 196.823 Q2125.82 188.49 2130.33 183.698 Q2134.85 178.884 2142.69 178.884 Q2145.8 178.884 2148.53 179.717 Q2151.28 180.527 2153.69 182.171 Z" fill="#000000" fill-rule="nonzero" fill-opacity="1" /><path clip-path="url(#clip230)" d="M2160.91 179.509 L2180.77 179.509 L2180.77 183.444 L2165.59 183.444 L2165.59 193.629 L2179.29 193.629 L2179.29 197.564 L2165.59 197.564 L2165.59 214.069 L2160.91 214.069 L2160.91 179.509 Z" fill="#000000" fill-rule="nonzero" fill-opacity="1" /><polyline clip-path="url(#clip230)" style="stroke:#3da44d; stroke-linecap:round; stroke-linejoin:round; stroke-width:4; stroke-opacity:1; fill:none" points="1644.24,248.629 1787.04,248.629 "/>
<path clip-path="url(#clip230)" d="M1810.84 231.349 L1815.52 231.349 L1815.52 265.909 L1810.84 265.909 L1810.84 231.349 Z" fill="#000000" fill-rule="nonzero" fill-opacity="1" /><path clip-path="url(#clip230)" d="M1841.7 243.918 L1841.7 229.89 L1845.96 229.89 L1845.96 265.909 L1841.7 265.909 L1841.7 262.02 Q1840.36 264.335 1838.3 265.469 Q1836.26 266.58 1833.39 266.58 Q1828.69 266.58 1825.73 262.83 Q1822.79 259.08 1822.79 252.969 Q1822.79 246.858 1825.73 243.108 Q1828.69 239.358 1833.39 239.358 Q1836.26 239.358 1838.3 240.492 Q1840.36 241.603 1841.7 243.918 M1827.19 252.969 Q1827.19 257.668 1829.11 260.353 Q1831.05 263.015 1834.43 263.015 Q1837.81 263.015 1839.76 260.353 Q1841.7 257.668 1841.7 252.969 Q1841.7 248.27 1839.76 245.608 Q1837.81 242.923 1834.43 242.923 Q1831.05 242.923 1829.11 245.608 Q1827.19 248.27 1827.19 252.969 Z" fill="#000000" fill-rule="nonzero" fill-opacity="1" /><path clip-path="url(#clip230)" d="M1876.91 251.881 L1876.91 253.964 L1857.33 253.964 Q1857.6 258.362 1859.97 260.677 Q1862.35 262.969 1866.59 262.969 Q1869.04 262.969 1871.33 262.367 Q1873.65 261.765 1875.91 260.561 L1875.91 264.589 Q1873.62 265.561 1871.21 266.071 Q1868.81 266.58 1866.33 266.58 Q1860.13 266.58 1856.49 262.969 Q1852.88 259.358 1852.88 253.2 Q1852.88 246.835 1856.31 243.108 Q1859.76 239.358 1865.59 239.358 Q1870.82 239.358 1873.85 242.737 Q1876.91 246.094 1876.91 251.881 M1872.65 250.631 Q1872.6 247.136 1870.68 245.052 Q1868.78 242.969 1865.64 242.969 Q1862.07 242.969 1859.92 244.983 Q1857.79 246.997 1857.47 250.654 L1872.65 250.631 Z" fill="#000000" fill-rule="nonzero" fill-opacity="1" /><path clip-path="url(#clip230)" d="M1895.68 252.876 Q1890.52 252.876 1888.53 254.057 Q1886.54 255.237 1886.54 258.085 Q1886.54 260.353 1888.02 261.696 Q1889.53 263.015 1892.09 263.015 Q1895.64 263.015 1897.77 260.515 Q1899.92 257.992 1899.92 253.825 L1899.92 252.876 L1895.68 252.876 M1904.18 251.117 L1904.18 265.909 L1899.92 265.909 L1899.92 261.973 Q1898.46 264.335 1896.28 265.469 Q1894.11 266.58 1890.96 266.58 Q1886.98 266.58 1884.62 264.358 Q1882.28 262.112 1882.28 258.362 Q1882.28 253.987 1885.2 251.765 Q1888.14 249.543 1893.95 249.543 L1899.92 249.543 L1899.92 249.126 Q1899.92 246.187 1897.97 244.589 Q1896.05 242.969 1892.56 242.969 Q1890.34 242.969 1888.23 243.501 Q1886.12 244.034 1884.18 245.099 L1884.18 241.163 Q1886.52 240.261 1888.71 239.821 Q1890.91 239.358 1893 239.358 Q1898.62 239.358 1901.4 242.274 Q1904.18 245.191 1904.18 251.117 Z" fill="#000000" fill-rule="nonzero" fill-opacity="1" /><path clip-path="url(#clip230)" d="M1912.95 229.89 L1917.21 229.89 L1917.21 265.909 L1912.95 265.909 L1912.95 229.89 Z" fill="#000000" fill-rule="nonzero" fill-opacity="1" /></svg>
