<?xml version="1.0" encoding="utf-8"?>
<svg xmlns="http://www.w3.org/2000/svg" xmlns:xlink="http://www.w3.org/1999/xlink" width="600" height="400" viewBox="0 0 2400 1600">
<defs>
  <clipPath id="clip470">
    <rect x="0" y="0" width="2400" height="1600"/>
  </clipPath>
</defs>
<path clip-path="url(#clip470)" d="M0 1600 L2400 1600 L2400 0 L0 0  Z" fill="#ffffff" fill-rule="evenodd" fill-opacity="1"/>
<defs>
  <clipPath id="clip471">
    <rect x="210" y="47" width="2143" height="1377"/>
  </clipPath>
</defs>
<path clip-path="url(#clip470)" d="M210.746 1423.18 L2352.76 1423.18 L2352.76 47.2441 L210.746 47.2441  Z" fill="#ffffff" fill-rule="evenodd" fill-opacity="1"/>
<polyline clip-path="url(#clip471)" style="stroke:#000000; stroke-linecap:round; stroke-linejoin:round; stroke-width:2; stroke-opacity:0.1; fill:none" points="494.13,1423.18 494.13,47.2441 "/>
<polyline clip-path="url(#clip471)" style="stroke:#000000; stroke-linecap:round; stroke-linejoin:round; stroke-width:2; stroke-opacity:0.1; fill:none" points="891.918,1423.18 891.918,47.2441 "/>
<polyline clip-path="url(#clip471)" style="stroke:#000000; stroke-linecap:round; stroke-linejoin:round; stroke-width:2; stroke-opacity:0.1; fill:none" points="1289.71,1423.18 1289.71,47.2441 "/>
<polyline clip-path="url(#clip471)" style="stroke:#000000; stroke-linecap:round; stroke-linejoin:round; stroke-width:2; stroke-opacity:0.1; fill:none" points="1687.49,1423.18 1687.49,47.2441 "/>
<polyline clip-path="url(#clip471)" style="stroke:#000000; stroke-linecap:round; stroke-linejoin:round; stroke-width:2; stroke-opacity:0.1; fill:none" points="2085.28,1423.18 2085.28,47.2441 "/>
<polyline clip-path="url(#clip471)" style="stroke:#000000; stroke-linecap:round; stroke-linejoin:round; stroke-width:2; stroke-opacity:0.1; fill:none" points="210.746,1381.17 2352.76,1381.17 "/>
<polyline clip-path="url(#clip471)" style="stroke:#000000; stroke-linecap:round; stroke-linejoin:round; stroke-width:2; stroke-opacity:0.1; fill:none" points="210.746,1146.35 2352.76,1146.35 "/>
<polyline clip-path="url(#clip471)" style="stroke:#000000; stroke-linecap:round; stroke-linejoin:round; stroke-width:2; stroke-opacity:0.1; fill:none" points="210.746,911.531 2352.76,911.531 "/>
<polyline clip-path="url(#clip471)" style="stroke:#000000; stroke-linecap:round; stroke-linejoin:round; stroke-width:2; stroke-opacity:0.1; fill:none" points="210.746,676.712 2352.76,676.712 "/>
<polyline clip-path="url(#clip471)" style="stroke:#000000; stroke-linecap:round; stroke-linejoin:round; stroke-width:2; stroke-opacity:0.1; fill:none" points="210.746,441.892 2352.76,441.892 "/>
<polyline clip-path="url(#clip471)" style="stroke:#000000; stroke-linecap:round; stroke-linejoin:round; stroke-width:2; stroke-opacity:0.1; fill:none" points="210.746,207.072 2352.76,207.072 "/>
<polyline clip-path="url(#clip470)" style="stroke:#000000; stroke-linecap:round; stroke-linejoin:round; stroke-width:4; stroke-opacity:1; fill:none" points="210.746,1423.18 2352.76,1423.18 "/>
<polyline clip-path="url(#clip470)" style="stroke:#000000; stroke-linecap:round; stroke-linejoin:round; stroke-width:4; stroke-opacity:1; fill:none" points="494.13,1423.18 494.13,1404.28 "/>
<polyline clip-path="url(#clip470)" style="stroke:#000000; stroke-linecap:round; stroke-linejoin:round; stroke-width:4; stroke-opacity:1; fill:none" points="891.918,1423.18 891.918,1404.28 "/>
<polyline clip-path="url(#clip470)" style="stroke:#000000; stroke-linecap:round; stroke-linejoin:round; stroke-width:4; stroke-opacity:1; fill:none" points="1289.71,1423.18 1289.71,1404.28 "/>
<polyline clip-path="url(#clip470)" style="stroke:#000000; stroke-linecap:round; stroke-linejoin:round; stroke-width:4; stroke-opacity:1; fill:none" points="1687.49,1423.18 1687.49,1404.28 "/>
<polyline clip-path="url(#clip470)" style="stroke:#000000; stroke-linecap:round; stroke-linejoin:round; stroke-width:4; stroke-opacity:1; fill:none" points="2085.28,1423.18 2085.28,1404.28 "/>
<path clip-path="url(#clip470)" d="M433.112 1468.75 L462.788 1468.75 L462.788 1472.69 L433.112 1472.69 L433.112 1468.75 Z" fill="#000000" fill-rule="nonzero" fill-opacity="1" /><path clip-path="url(#clip470)" d="M473.691 1481.64 L481.329 1481.64 L481.329 1455.28 L473.019 1456.95 L473.019 1452.69 L481.283 1451.02 L485.959 1451.02 L485.959 1481.64 L493.598 1481.64 L493.598 1485.58 L473.691 1485.58 L473.691 1481.64 Z" fill="#000000" fill-rule="nonzero" fill-opacity="1" /><path clip-path="url(#clip470)" d="M513.042 1454.1 Q509.431 1454.1 507.602 1457.66 Q505.797 1461.2 505.797 1468.33 Q505.797 1475.44 507.602 1479.01 Q509.431 1482.55 513.042 1482.55 Q516.676 1482.55 518.482 1479.01 Q520.311 1475.44 520.311 1468.33 Q520.311 1461.2 518.482 1457.66 Q516.676 1454.1 513.042 1454.1 M513.042 1450.39 Q518.852 1450.39 521.908 1455 Q524.987 1459.58 524.987 1468.33 Q524.987 1477.06 521.908 1481.67 Q518.852 1486.25 513.042 1486.25 Q507.232 1486.25 504.153 1481.67 Q501.098 1477.06 501.098 1468.33 Q501.098 1459.58 504.153 1455 Q507.232 1450.39 513.042 1450.39 Z" fill="#000000" fill-rule="nonzero" fill-opacity="1" /><path clip-path="url(#clip470)" d="M543.204 1454.1 Q539.593 1454.1 537.764 1457.66 Q535.959 1461.2 535.959 1468.33 Q535.959 1475.44 537.764 1479.01 Q539.593 1482.55 543.204 1482.55 Q546.838 1482.55 548.644 1479.01 Q550.473 1475.44 550.473 1468.33 Q550.473 1461.2 548.644 1457.66 Q546.838 1454.1 543.204 1454.1 M543.204 1450.39 Q549.014 1450.39 552.07 1455 Q555.148 1459.58 555.148 1468.33 Q555.148 1477.06 552.07 1481.67 Q549.014 1486.25 543.204 1486.25 Q537.394 1486.25 534.315 1481.67 Q531.26 1477.06 531.26 1468.33 Q531.26 1459.58 534.315 1455 Q537.394 1450.39 543.204 1450.39 Z" fill="#000000" fill-rule="nonzero" fill-opacity="1" /><path clip-path="url(#clip470)" d="M845.981 1468.75 L875.657 1468.75 L875.657 1472.69 L845.981 1472.69 L845.981 1468.75 Z" fill="#000000" fill-rule="nonzero" fill-opacity="1" /><path clip-path="url(#clip470)" d="M885.796 1451.02 L904.152 1451.02 L904.152 1454.96 L890.078 1454.96 L890.078 1463.43 Q891.097 1463.08 892.115 1462.92 Q893.134 1462.73 894.152 1462.73 Q899.939 1462.73 903.319 1465.9 Q906.698 1469.08 906.698 1474.49 Q906.698 1480.07 903.226 1483.17 Q899.754 1486.25 893.435 1486.25 Q891.259 1486.25 888.99 1485.88 Q886.745 1485.51 884.337 1484.77 L884.337 1480.07 Q886.421 1481.2 888.643 1481.76 Q890.865 1482.32 893.342 1482.32 Q897.347 1482.32 899.685 1480.21 Q902.023 1478.1 902.023 1474.49 Q902.023 1470.88 899.685 1468.77 Q897.347 1466.67 893.342 1466.67 Q891.467 1466.67 889.592 1467.08 Q887.74 1467.5 885.796 1468.38 L885.796 1451.02 Z" fill="#000000" fill-rule="nonzero" fill-opacity="1" /><path clip-path="url(#clip470)" d="M925.911 1454.1 Q922.3 1454.1 920.472 1457.66 Q918.666 1461.2 918.666 1468.33 Q918.666 1475.44 920.472 1479.01 Q922.3 1482.55 925.911 1482.55 Q929.546 1482.55 931.351 1479.01 Q933.18 1475.44 933.18 1468.33 Q933.18 1461.2 931.351 1457.66 Q929.546 1454.1 925.911 1454.1 M925.911 1450.39 Q931.722 1450.39 934.777 1455 Q937.856 1459.58 937.856 1468.33 Q937.856 1477.06 934.777 1481.67 Q931.722 1486.25 925.911 1486.25 Q920.101 1486.25 917.023 1481.67 Q913.967 1477.06 913.967 1468.33 Q913.967 1459.58 917.023 1455 Q920.101 1450.39 925.911 1450.39 Z" fill="#000000" fill-rule="nonzero" fill-opacity="1" /><path clip-path="url(#clip470)" d="M1289.71 1454.1 Q1286.1 1454.1 1284.27 1457.66 Q1282.46 1461.2 1282.46 1468.33 Q1282.46 1475.44 1284.27 1479.01 Q1286.1 1482.55 1289.71 1482.55 Q1293.34 1482.55 1295.15 1479.01 Q1296.98 1475.44 1296.98 1468.33 Q1296.98 1461.2 1295.15 1457.66 Q1293.34 1454.1 1289.71 1454.1 M1289.71 1450.39 Q1295.52 1450.39 1298.57 1455 Q1301.65 1459.58 1301.65 1468.33 Q1301.65 1477.06 1298.57 1481.67 Q1295.52 1486.25 1289.71 1486.25 Q1283.9 1486.25 1280.82 1481.67 Q1277.76 1477.06 1277.76 1468.33 Q1277.76 1459.58 1280.82 1455 Q1283.9 1450.39 1289.71 1450.39 Z" fill="#000000" fill-rule="nonzero" fill-opacity="1" /><path clip-path="url(#clip470)" d="M1662.19 1451.02 L1680.55 1451.02 L1680.55 1454.96 L1666.48 1454.96 L1666.48 1463.43 Q1667.5 1463.08 1668.51 1462.92 Q1669.53 1462.73 1670.55 1462.73 Q1676.34 1462.73 1679.72 1465.9 Q1683.1 1469.08 1683.1 1474.49 Q1683.1 1480.07 1679.62 1483.17 Q1676.15 1486.25 1669.83 1486.25 Q1667.66 1486.25 1665.39 1485.88 Q1663.14 1485.51 1660.74 1484.77 L1660.74 1480.07 Q1662.82 1481.2 1665.04 1481.76 Q1667.26 1482.32 1669.74 1482.32 Q1673.74 1482.32 1676.08 1480.21 Q1678.42 1478.1 1678.42 1474.49 Q1678.42 1470.88 1676.08 1468.77 Q1673.74 1466.67 1669.74 1466.67 Q1667.87 1466.67 1665.99 1467.08 Q1664.14 1467.5 1662.19 1468.38 L1662.19 1451.02 Z" fill="#000000" fill-rule="nonzero" fill-opacity="1" /><path clip-path="url(#clip470)" d="M1702.31 1454.1 Q1698.7 1454.1 1696.87 1457.66 Q1695.06 1461.2 1695.06 1468.33 Q1695.06 1475.44 1696.87 1479.01 Q1698.7 1482.55 1702.31 1482.55 Q1705.94 1482.55 1707.75 1479.01 Q1709.58 1475.44 1709.58 1468.33 Q1709.58 1461.2 1707.75 1457.66 Q1705.94 1454.1 1702.31 1454.1 M1702.31 1450.39 Q1708.12 1450.39 1711.18 1455 Q1714.25 1459.58 1714.25 1468.33 Q1714.25 1477.06 1711.18 1481.67 Q1708.12 1486.25 1702.31 1486.25 Q1696.5 1486.25 1693.42 1481.67 Q1690.37 1477.06 1690.37 1468.33 Q1690.37 1459.58 1693.42 1455 Q1696.5 1450.39 1702.31 1450.39 Z" fill="#000000" fill-rule="nonzero" fill-opacity="1" /><path clip-path="url(#clip470)" d="M2044.89 1481.64 L2052.53 1481.64 L2052.53 1455.28 L2044.22 1456.95 L2044.22 1452.69 L2052.48 1451.02 L2057.16 1451.02 L2057.16 1481.64 L2064.8 1481.64 L2064.8 1485.58 L2044.89 1485.58 L2044.89 1481.64 Z" fill="#000000" fill-rule="nonzero" fill-opacity="1" /><path clip-path="url(#clip470)" d="M2084.24 1454.1 Q2080.63 1454.1 2078.8 1457.66 Q2077 1461.2 2077 1468.33 Q2077 1475.44 2078.8 1479.01 Q2080.63 1482.55 2084.24 1482.55 Q2087.88 1482.55 2089.68 1479.01 Q2091.51 1475.44 2091.51 1468.33 Q2091.51 1461.2 2089.68 1457.66 Q2087.88 1454.1 2084.24 1454.1 M2084.24 1450.39 Q2090.05 1450.39 2093.11 1455 Q2096.19 1459.58 2096.19 1468.33 Q2096.19 1477.06 2093.11 1481.67 Q2090.05 1486.25 2084.24 1486.25 Q2078.43 1486.25 2075.35 1481.67 Q2072.3 1477.06 2072.3 1468.33 Q2072.3 1459.58 2075.35 1455 Q2078.43 1450.39 2084.24 1450.39 Z" fill="#000000" fill-rule="nonzero" fill-opacity="1" /><path clip-path="url(#clip470)" d="M2114.4 1454.1 Q2110.79 1454.1 2108.96 1457.66 Q2107.16 1461.2 2107.16 1468.33 Q2107.16 1475.44 2108.96 1479.01 Q2110.79 1482.55 2114.4 1482.55 Q2118.04 1482.55 2119.84 1479.01 Q2121.67 1475.44 2121.67 1468.33 Q2121.67 1461.2 2119.84 1457.66 Q2118.04 1454.1 2114.4 1454.1 M2114.4 1450.39 Q2120.21 1450.39 2123.27 1455 Q2126.35 1459.58 2126.35 1468.33 Q2126.35 1477.06 2123.27 1481.67 Q2120.21 1486.25 2114.4 1486.25 Q2108.59 1486.25 2105.51 1481.67 Q2102.46 1477.06 2102.46 1468.33 Q2102.46 1459.58 2105.51 1455 Q2108.59 1450.39 2114.4 1450.39 Z" fill="#000000" fill-rule="nonzero" fill-opacity="1" /><path clip-path="url(#clip470)" d="M1199.44 1528.8 Q1199.44 1530.61 1198.31 1531.64 Q1197.18 1532.64 1195.89 1532.64 Q1194.67 1532.64 1194.03 1531.93 Q1193.38 1531.22 1193.38 1530.32 Q1193.38 1529.09 1194.28 1528.03 Q1195.18 1526.97 1196.54 1526.74 Q1195.22 1525.91 1193.25 1525.91 Q1191.96 1525.91 1190.84 1526.58 Q1189.74 1527.26 1189.07 1528.13 Q1188.42 1529 1187.84 1530.25 Q1187.29 1531.48 1187.07 1532.22 Q1186.88 1532.93 1186.71 1533.7 L1184.46 1542.72 Q1183.37 1547 1183.37 1548.51 Q1183.37 1550.38 1184.27 1551.64 Q1185.17 1552.86 1186.97 1552.86 Q1187.68 1552.86 1188.49 1552.67 Q1189.29 1552.44 1190.32 1551.86 Q1191.38 1551.25 1192.32 1550.35 Q1193.28 1549.42 1194.22 1547.84 Q1195.15 1546.26 1195.76 1544.23 Q1195.96 1543.52 1196.6 1543.52 Q1197.41 1543.52 1197.41 1544.17 Q1197.41 1544.71 1196.96 1545.87 Q1196.54 1547 1195.6 1548.48 Q1194.7 1549.93 1193.51 1551.25 Q1192.32 1552.54 1190.55 1553.44 Q1188.78 1554.34 1186.84 1554.34 Q1184.07 1554.34 1182.24 1552.86 Q1180.4 1551.38 1179.73 1549.32 Q1179.57 1549.61 1179.34 1550 Q1179.11 1550.38 1178.44 1551.25 Q1177.79 1552.09 1177.05 1552.73 Q1176.31 1553.34 1175.15 1553.83 Q1174.03 1554.34 1172.8 1554.34 Q1171.26 1554.34 1169.87 1553.89 Q1168.52 1553.44 1167.55 1552.41 Q1166.59 1551.38 1166.59 1549.96 Q1166.59 1548.38 1167.65 1547.29 Q1168.74 1546.16 1170.23 1546.16 Q1171.16 1546.16 1171.9 1546.71 Q1172.67 1547.26 1172.67 1548.45 Q1172.67 1549.77 1171.77 1550.77 Q1170.87 1551.77 1169.58 1552.02 Q1170.9 1552.86 1172.87 1552.86 Q1174.99 1552.86 1176.67 1550.99 Q1178.34 1549.13 1179.15 1546 Q1181.14 1538.5 1181.92 1535.15 Q1182.69 1531.77 1182.69 1530.32 Q1182.69 1528.96 1182.33 1528.03 Q1181.98 1527.1 1181.37 1526.68 Q1180.79 1526.23 1180.24 1526.07 Q1179.73 1525.91 1179.15 1525.91 Q1178.18 1525.91 1177.09 1526.29 Q1176.02 1526.68 1174.73 1527.58 Q1173.48 1528.45 1172.29 1530.25 Q1171.09 1532.06 1170.29 1534.54 Q1170.13 1535.28 1169.42 1535.28 Q1168.65 1535.24 1168.65 1534.6 Q1168.65 1534.05 1169.07 1532.93 Q1169.52 1531.77 1170.42 1530.32 Q1171.35 1528.87 1172.54 1527.58 Q1173.77 1526.26 1175.54 1525.36 Q1177.34 1524.46 1179.28 1524.46 Q1180.14 1524.46 1180.98 1524.65 Q1181.85 1524.81 1182.88 1525.29 Q1183.95 1525.78 1184.88 1526.84 Q1185.81 1527.9 1186.39 1529.45 Q1186.78 1528.71 1187.29 1528 Q1187.84 1527.29 1188.68 1526.42 Q1189.55 1525.52 1190.74 1525 Q1191.96 1524.46 1193.32 1524.46 Q1194.64 1524.46 1195.93 1524.81 Q1197.21 1525.13 1198.31 1526.19 Q1199.44 1527.23 1199.44 1528.8 Z" fill="#000000" fill-rule="nonzero" fill-opacity="1" /><path clip-path="url(#clip470)" d="M1244.87 1504.14 Q1240.61 1511.46 1238.54 1518.62 Q1236.47 1525.78 1236.47 1533.14 Q1236.47 1540.49 1238.54 1547.71 Q1240.64 1554.91 1244.87 1562.2 L1239.78 1562.2 Q1235 1554.72 1232.62 1547.49 Q1230.26 1540.27 1230.26 1533.14 Q1230.26 1526.04 1232.62 1518.85 Q1234.97 1511.65 1239.78 1504.14 L1244.87 1504.14 Z" fill="#000000" fill-rule="nonzero" fill-opacity="1" /><path clip-path="url(#clip470)" d="M1283.99 1524.8 Q1286.18 1520.85 1289.24 1518.97 Q1292.3 1517.09 1296.43 1517.09 Q1302 1517.09 1305.03 1521.01 Q1308.05 1524.89 1308.05 1532.09 L1308.05 1553.6 L1302.16 1553.6 L1302.16 1532.28 Q1302.16 1527.15 1300.35 1524.67 Q1298.53 1522.19 1294.81 1522.19 Q1290.26 1522.19 1287.62 1525.21 Q1284.97 1528.23 1284.97 1533.45 L1284.97 1553.6 L1279.09 1553.6 L1279.09 1532.28 Q1279.09 1527.12 1277.27 1524.67 Q1275.46 1522.19 1271.67 1522.19 Q1267.18 1522.19 1264.54 1525.24 Q1261.9 1528.27 1261.9 1533.45 L1261.9 1553.6 L1256.01 1553.6 L1256.01 1517.95 L1261.9 1517.95 L1261.9 1523.49 Q1263.9 1520.21 1266.71 1518.65 Q1269.51 1517.09 1273.36 1517.09 Q1277.24 1517.09 1279.95 1519.07 Q1282.68 1521.04 1283.99 1524.8 Z" fill="#000000" fill-rule="nonzero" fill-opacity="1" /><path clip-path="url(#clip470)" d="M1347.49 1524.8 Q1349.68 1520.85 1352.74 1518.97 Q1355.79 1517.09 1359.93 1517.09 Q1365.5 1517.09 1368.52 1521.01 Q1371.55 1524.89 1371.55 1532.09 L1371.55 1553.6 L1365.66 1553.6 L1365.66 1532.28 Q1365.66 1527.15 1363.85 1524.67 Q1362.03 1522.19 1358.31 1522.19 Q1353.76 1522.19 1351.11 1525.21 Q1348.47 1528.23 1348.47 1533.45 L1348.47 1553.6 L1342.58 1553.6 L1342.58 1532.28 Q1342.58 1527.12 1340.77 1524.67 Q1338.96 1522.19 1335.17 1522.19 Q1330.68 1522.19 1328.04 1525.24 Q1325.4 1528.27 1325.4 1533.45 L1325.4 1553.6 L1319.51 1553.6 L1319.51 1517.95 L1325.4 1517.95 L1325.4 1523.49 Q1327.4 1520.21 1330.2 1518.65 Q1333 1517.09 1336.86 1517.09 Q1340.74 1517.09 1343.44 1519.07 Q1346.18 1521.04 1347.49 1524.8 Z" fill="#000000" fill-rule="nonzero" fill-opacity="1" /><path clip-path="url(#clip470)" d="M1382.31 1504.14 L1387.4 1504.14 Q1392.17 1511.65 1394.53 1518.85 Q1396.92 1526.04 1396.92 1533.14 Q1396.92 1540.27 1394.53 1547.49 Q1392.17 1554.72 1387.4 1562.2 L1382.31 1562.2 Q1386.54 1554.91 1388.61 1547.71 Q1390.71 1540.49 1390.71 1533.14 Q1390.71 1525.78 1388.61 1518.62 Q1386.54 1511.46 1382.31 1504.14 Z" fill="#000000" fill-rule="nonzero" fill-opacity="1" /><polyline clip-path="url(#clip470)" style="stroke:#000000; stroke-linecap:round; stroke-linejoin:round; stroke-width:4; stroke-opacity:1; fill:none" points="210.746,1423.18 210.746,47.2441 "/>
<polyline clip-path="url(#clip470)" style="stroke:#000000; stroke-linecap:round; stroke-linejoin:round; stroke-width:4; stroke-opacity:1; fill:none" points="210.746,1381.17 229.644,1381.17 "/>
<polyline clip-path="url(#clip470)" style="stroke:#000000; stroke-linecap:round; stroke-linejoin:round; stroke-width:4; stroke-opacity:1; fill:none" points="210.746,1146.35 229.644,1146.35 "/>
<polyline clip-path="url(#clip470)" style="stroke:#000000; stroke-linecap:round; stroke-linejoin:round; stroke-width:4; stroke-opacity:1; fill:none" points="210.746,911.531 229.644,911.531 "/>
<polyline clip-path="url(#clip470)" style="stroke:#000000; stroke-linecap:round; stroke-linejoin:round; stroke-width:4; stroke-opacity:1; fill:none" points="210.746,676.712 229.644,676.712 "/>
<polyline clip-path="url(#clip470)" style="stroke:#000000; stroke-linecap:round; stroke-linejoin:round; stroke-width:4; stroke-opacity:1; fill:none" points="210.746,441.892 229.644,441.892 "/>
<polyline clip-path="url(#clip470)" style="stroke:#000000; stroke-linecap:round; stroke-linejoin:round; stroke-width:4; stroke-opacity:1; fill:none" points="210.746,207.072 229.644,207.072 "/>
<path clip-path="url(#clip470)" d="M114.26 1381.62 L143.936 1381.62 L143.936 1385.56 L114.26 1385.56 L114.26 1381.62 Z" fill="#000000" fill-rule="nonzero" fill-opacity="1" /><path clip-path="url(#clip470)" d="M154.839 1394.52 L162.477 1394.52 L162.477 1368.15 L154.167 1369.82 L154.167 1365.56 L162.431 1363.89 L167.107 1363.89 L167.107 1394.52 L174.746 1394.52 L174.746 1398.45 L154.839 1398.45 L154.839 1394.52 Z" fill="#000000" fill-rule="nonzero" fill-opacity="1" /><path clip-path="url(#clip470)" d="M162.802 1132.15 Q159.19 1132.15 157.362 1135.71 Q155.556 1139.26 155.556 1146.39 Q155.556 1153.49 157.362 1157.06 Q159.19 1160.6 162.802 1160.6 Q166.436 1160.6 168.241 1157.06 Q170.07 1153.49 170.07 1146.39 Q170.07 1139.26 168.241 1135.71 Q166.436 1132.15 162.802 1132.15 M162.802 1128.45 Q168.612 1128.45 171.667 1133.05 Q174.746 1137.64 174.746 1146.39 Q174.746 1155.11 171.667 1159.72 Q168.612 1164.3 162.802 1164.3 Q156.991 1164.3 153.913 1159.72 Q150.857 1155.11 150.857 1146.39 Q150.857 1137.64 153.913 1133.05 Q156.991 1128.45 162.802 1128.45 Z" fill="#000000" fill-rule="nonzero" fill-opacity="1" /><path clip-path="url(#clip470)" d="M154.839 924.876 L162.477 924.876 L162.477 898.511 L154.167 900.177 L154.167 895.918 L162.431 894.251 L167.107 894.251 L167.107 924.876 L174.746 924.876 L174.746 928.811 L154.839 928.811 L154.839 924.876 Z" fill="#000000" fill-rule="nonzero" fill-opacity="1" /><path clip-path="url(#clip470)" d="M158.427 690.056 L174.746 690.056 L174.746 693.992 L152.802 693.992 L152.802 690.056 Q155.464 687.302 160.047 682.672 Q164.653 678.019 165.834 676.677 Q168.079 674.154 168.959 672.418 Q169.862 670.658 169.862 668.969 Q169.862 666.214 167.917 664.478 Q165.996 662.742 162.894 662.742 Q160.695 662.742 158.241 663.506 Q155.811 664.27 153.033 665.82 L153.033 661.098 Q155.857 659.964 158.311 659.385 Q160.765 658.807 162.802 658.807 Q168.172 658.807 171.366 661.492 Q174.561 664.177 174.561 668.668 Q174.561 670.797 173.751 672.719 Q172.964 674.617 170.857 677.209 Q170.278 677.881 167.177 681.098 Q164.075 684.293 158.427 690.056 Z" fill="#000000" fill-rule="nonzero" fill-opacity="1" /><path clip-path="url(#clip470)" d="M167.616 440.538 Q170.973 441.255 172.848 443.524 Q174.746 445.792 174.746 449.126 Q174.746 454.241 171.227 457.042 Q167.709 459.843 161.227 459.843 Q159.052 459.843 156.737 459.403 Q154.445 458.987 151.991 458.13 L151.991 453.616 Q153.936 454.751 156.251 455.329 Q158.565 455.908 161.089 455.908 Q165.487 455.908 167.778 454.172 Q170.093 452.436 170.093 449.126 Q170.093 446.07 167.94 444.357 Q165.811 442.621 161.991 442.621 L157.964 442.621 L157.964 438.778 L162.177 438.778 Q165.626 438.778 167.454 437.413 Q169.283 436.024 169.283 433.431 Q169.283 430.769 167.385 429.357 Q165.51 427.922 161.991 427.922 Q160.07 427.922 157.871 428.339 Q155.672 428.755 153.033 429.635 L153.033 425.468 Q155.695 424.728 158.01 424.357 Q160.348 423.987 162.408 423.987 Q167.732 423.987 170.834 426.417 Q173.936 428.825 173.936 432.945 Q173.936 435.816 172.292 437.806 Q170.649 439.774 167.616 440.538 Z" fill="#000000" fill-rule="nonzero" fill-opacity="1" /><path clip-path="url(#clip470)" d="M165.163 193.866 L153.357 212.315 L165.163 212.315 L165.163 193.866 M163.936 189.792 L169.815 189.792 L169.815 212.315 L174.746 212.315 L174.746 216.204 L169.815 216.204 L169.815 224.352 L165.163 224.352 L165.163 216.204 L149.561 216.204 L149.561 211.69 L163.936 189.792 Z" fill="#000000" fill-rule="nonzero" fill-opacity="1" /><path clip-path="url(#clip470)" d="M35.1993 927.138 Q31.2526 924.942 29.3747 921.886 Q27.4968 918.831 27.4968 914.693 Q27.4968 909.123 31.4117 906.099 Q35.2948 903.076 42.4881 903.076 L64.0042 903.076 L64.0042 908.964 L42.679 908.964 Q37.5546 908.964 35.072 910.778 Q32.5894 912.592 32.5894 916.316 Q32.5894 920.868 35.6131 923.51 Q38.6368 926.151 43.8567 926.151 L64.0042 926.151 L64.0042 932.04 L42.679 932.04 Q37.5228 932.04 35.072 933.854 Q32.5894 935.668 32.5894 939.456 Q32.5894 943.943 35.6449 946.585 Q38.6686 949.227 43.8567 949.227 L64.0042 949.227 L64.0042 955.115 L28.3562 955.115 L28.3562 949.227 L33.8944 949.227 Q30.616 947.222 29.0564 944.421 Q27.4968 941.62 27.4968 937.769 Q27.4968 933.886 29.4702 931.18 Q31.4436 928.443 35.1993 927.138 Z" fill="#000000" fill-rule="nonzero" fill-opacity="1" /><path clip-path="url(#clip470)" d="M28.3562 891.395 L28.3562 885.538 L64.0042 885.538 L64.0042 891.395 L28.3562 891.395 M14.479 891.395 L14.479 885.538 L21.895 885.538 L21.895 891.395 L14.479 891.395 Z" fill="#000000" fill-rule="nonzero" fill-opacity="1" /><path clip-path="url(#clip470)" d="M33.7671 849.827 L14.479 849.827 L14.479 843.97 L64.0042 843.97 L64.0042 849.827 L58.657 849.827 Q61.8398 851.673 63.3994 854.505 Q64.9272 857.306 64.9272 861.253 Q64.9272 867.714 59.771 871.788 Q54.6147 875.83 46.212 875.83 Q37.8093 875.83 32.6531 871.788 Q27.4968 867.714 27.4968 861.253 Q27.4968 857.306 29.0564 854.505 Q30.5842 851.673 33.7671 849.827 M46.212 869.783 Q52.6732 869.783 56.3653 867.141 Q60.0256 864.468 60.0256 859.821 Q60.0256 855.174 56.3653 852.5 Q52.6732 849.827 46.212 849.827 Q39.7508 849.827 36.0905 852.5 Q32.3984 855.174 32.3984 859.821 Q32.3984 864.468 36.0905 867.141 Q39.7508 869.783 46.212 869.783 Z" fill="#000000" fill-rule="nonzero" fill-opacity="1" /><path clip-path="url(#clip470)" d="M33.7671 808.449 L14.479 808.449 L14.479 802.593 L64.0042 802.593 L64.0042 808.449 L58.657 808.449 Q61.8398 810.295 63.3994 813.128 Q64.9272 815.929 64.9272 819.876 Q64.9272 826.337 59.771 830.411 Q54.6147 834.453 46.212 834.453 Q37.8093 834.453 32.6531 830.411 Q27.4968 826.337 27.4968 819.876 Q27.4968 815.929 29.0564 813.128 Q30.5842 810.295 33.7671 808.449 M46.212 828.406 Q52.6732 828.406 56.3653 825.764 Q60.0256 823.091 60.0256 818.444 Q60.0256 813.797 56.3653 811.123 Q52.6732 808.449 46.212 808.449 Q39.7508 808.449 36.0905 811.123 Q32.3984 813.797 32.3984 818.444 Q32.3984 823.091 36.0905 825.764 Q39.7508 828.406 46.212 828.406 Z" fill="#000000" fill-rule="nonzero" fill-opacity="1" /><path clip-path="url(#clip470)" d="M14.479 790.53 L14.479 784.674 L64.0042 784.674 L64.0042 790.53 L14.479 790.53 Z" fill="#000000" fill-rule="nonzero" fill-opacity="1" /><path clip-path="url(#clip470)" d="M44.7161 741.928 L47.5806 741.928 L47.5806 768.855 Q53.6281 768.473 56.8109 765.226 Q59.9619 761.948 59.9619 756.123 Q59.9619 752.749 59.1344 749.598 Q58.3069 746.416 56.6518 743.296 L62.1899 743.296 Q63.5267 746.447 64.227 749.758 Q64.9272 753.068 64.9272 756.473 Q64.9272 765.003 59.9619 770.001 Q54.9967 774.966 46.5303 774.966 Q37.7774 774.966 32.6531 770.255 Q27.4968 765.513 27.4968 757.492 Q27.4968 750.299 32.1438 746.129 Q36.7589 741.928 44.7161 741.928 M42.9973 747.784 Q38.1912 747.848 35.3266 750.49 Q32.4621 753.1 32.4621 757.428 Q32.4621 762.33 35.2312 765.29 Q38.0002 768.218 43.0292 768.664 L42.9973 747.784 Z" fill="#000000" fill-rule="nonzero" fill-opacity="1" /><path clip-path="url(#clip470)" d="M58.657 705.93 L77.5631 705.93 L77.5631 711.818 L28.3562 711.818 L28.3562 705.93 L33.7671 705.93 Q30.5842 704.084 29.0564 701.283 Q27.4968 698.45 27.4968 694.535 Q27.4968 688.042 32.6531 684 Q37.8093 679.926 46.212 679.926 Q54.6147 679.926 59.771 684 Q64.9272 688.042 64.9272 694.535 Q64.9272 698.45 63.3994 701.283 Q61.8398 704.084 58.657 705.93 M46.212 686.005 Q39.7508 686.005 36.0905 688.679 Q32.3984 691.32 32.3984 695.967 Q32.3984 700.614 36.0905 703.288 Q39.7508 705.93 46.212 705.93 Q52.6732 705.93 56.3653 703.288 Q60.0256 700.614 60.0256 695.967 Q60.0256 691.32 56.3653 688.679 Q52.6732 686.005 46.212 686.005 Z" fill="#000000" fill-rule="nonzero" fill-opacity="1" /><path clip-path="url(#clip470)" d="M33.8307 649.561 Q33.2578 650.548 33.0032 651.726 Q32.7167 652.872 32.7167 654.272 Q32.7167 659.237 35.9632 661.911 Q39.1779 664.553 45.2253 664.553 L64.0042 664.553 L64.0042 670.441 L28.3562 670.441 L28.3562 664.553 L33.8944 664.553 Q30.6479 662.707 29.0883 659.747 Q27.4968 656.786 27.4968 652.553 Q27.4968 651.949 27.5923 651.216 Q27.656 650.484 27.8151 649.593 L33.8307 649.561 Z" fill="#000000" fill-rule="nonzero" fill-opacity="1" /><path clip-path="url(#clip470)" d="M32.4621 631.037 Q32.4621 635.748 36.1542 638.485 Q39.8145 641.222 46.212 641.222 Q52.6095 641.222 56.3017 638.517 Q59.9619 635.78 59.9619 631.037 Q59.9619 626.358 56.2698 623.621 Q52.5777 620.884 46.212 620.884 Q39.8781 620.884 36.186 623.621 Q32.4621 626.358 32.4621 631.037 M27.4968 631.037 Q27.4968 623.398 32.4621 619.038 Q37.4273 614.677 46.212 614.677 Q54.9649 614.677 59.9619 619.038 Q64.9272 623.398 64.9272 631.037 Q64.9272 638.708 59.9619 643.068 Q54.9649 647.397 46.212 647.397 Q37.4273 647.397 32.4621 643.068 Q27.4968 638.708 27.4968 631.037 Z" fill="#000000" fill-rule="nonzero" fill-opacity="1" /><path clip-path="url(#clip470)" d="M14.479 586.923 L19.3487 586.923 L19.3487 592.525 Q19.3487 595.676 20.6219 596.917 Q21.895 598.126 25.2052 598.126 L28.3562 598.126 L28.3562 588.482 L32.9077 588.482 L32.9077 598.126 L64.0042 598.126 L64.0042 604.015 L32.9077 604.015 L32.9077 609.617 L28.3562 609.617 L28.3562 604.015 L25.8736 604.015 Q19.9216 604.015 17.2162 601.246 Q14.479 598.477 14.479 592.461 L14.479 586.923 Z" fill="#000000" fill-rule="nonzero" fill-opacity="1" /><path clip-path="url(#clip470)" d="M28.3562 582.021 L28.3562 576.165 L64.0042 576.165 L64.0042 582.021 L28.3562 582.021 M14.479 582.021 L14.479 576.165 L21.895 576.165 L21.895 582.021 L14.479 582.021 Z" fill="#000000" fill-rule="nonzero" fill-opacity="1" /><path clip-path="url(#clip470)" d="M14.479 563.911 L14.479 558.054 L64.0042 558.054 L64.0042 563.911 L14.479 563.911 Z" fill="#000000" fill-rule="nonzero" fill-opacity="1" /><path clip-path="url(#clip470)" d="M44.7161 515.309 L47.5806 515.309 L47.5806 542.236 Q53.6281 541.854 56.8109 538.607 Q59.9619 535.329 59.9619 529.504 Q59.9619 526.13 59.1344 522.979 Q58.3069 519.796 56.6518 516.677 L62.1899 516.677 Q63.5267 519.828 64.227 523.138 Q64.9272 526.449 64.9272 529.854 Q64.9272 538.384 59.9619 543.381 Q54.9967 548.347 46.5303 548.347 Q37.7774 548.347 32.6531 543.636 Q27.4968 538.894 27.4968 530.873 Q27.4968 523.68 32.1438 519.51 Q36.7589 515.309 44.7161 515.309 M42.9973 521.165 Q38.1912 521.229 35.3266 523.871 Q32.4621 526.48 32.4621 530.809 Q32.4621 535.711 35.2312 538.671 Q38.0002 541.599 43.0292 542.045 L42.9973 521.165 Z" fill="#000000" fill-rule="nonzero" fill-opacity="1" /><polyline clip-path="url(#clip471)" style="stroke:#009af9; stroke-linecap:round; stroke-linejoin:round; stroke-width:4; stroke-opacity:1; fill:none" points="271.369,1163.39 287.28,1163.7 303.192,1154.78 319.103,1155.95 335.015,1147.58 350.927,1148.82 366.838,1141.27 382.75,1142.81 398.661,1134.93 414.573,1138.4 430.484,1128.28 446.396,1135.09 462.307,1122.21 478.219,1131.56 494.13,1117.63 510.042,1127.68 525.953,1113.26 541.865,1125.91 557.776,1105.19 573.688,1134.01 589.599,958.849 605.511,855.915 621.422,685.674 637.334,621.343 653.246,649.936 669.157,628.629 685.069,640.462 700.98,632.014 716.892,635.092 732.803,629.368 748.715,636.698 764.626,624.226 780.538,634.495 796.449,625.181 812.361,630.822 828.272,626.152 844.184,626.912 860.095,621.495 876.007,631.786 891.918,595.275 907.83,199.224 923.742,141.068 939.653,156.644 955.565,150.778 971.476,159.779 987.388,146.282 1003.3,160.436 1019.21,141.517 1035.12,154.179 1051.03,145.962 1066.95,152.148 1082.86,146.163 1098.77,159.328 1114.68,150.008 1130.59,146.408 1146.5,148.312 1162.41,154.171 1178.33,145.126 1194.24,154.972 1210.15,149.503 1226.06,86.1857 1241.97,464.51 1257.88,697.598 1273.8,618.946 1289.71,636.102 1305.62,630.704 1321.53,673.845 1337.44,637.336 1353.35,595.201 1369.26,591.592 1385.18,679.777 1401.09,1050.22 1417,1107.91 1432.91,1080.54 1448.82,1092.64 1464.73,1078.55 1480.65,1099.77 1496.56,1077.84 1512.47,1100.58 1528.38,1081.94 1544.29,1103.12 1560.2,1071.03 1576.11,1113.3 1592.03,1066.47 1607.94,1132.42 1623.85,923.056 1639.76,588.502 1655.67,641.122 1671.58,614.911 1687.49,633.168 1703.41,622.429 1719.32,635.225 1735.23,620.258 1751.14,635.351 1767.05,626.274 1782.96,635.667 1798.88,627.316 1814.79,637.322 1830.7,632.274 1846.61,634.971 1862.52,638.994 1878.43,633.827 1894.34,643.96 1910.26,634.128 1926.17,649.98 1942.08,629.487 1957.99,685.566 1973.9,863.395 1989.81,960.504 2005.73,1140.68 2021.64,1107.81 2037.55,1132.6 2053.46,1116.66 2069.37,1134.16 2085.28,1122.1 2101.19,1138.02 2117.11,1127.13 2133.02,1142.46 2148.93,1133 2164.84,1146.85 2180.75,1140.01 2196.66,1151.45 2212.58,1147.8 2228.49,1156.96 2244.4,1155.91 2260.31,1163.92 2276.22,1164.23 2292.13,1172.58 "/>
<polyline clip-path="url(#clip471)" style="stroke:#e26f46; stroke-linecap:round; stroke-linejoin:round; stroke-width:4; stroke-opacity:1; fill:none" points="271.369,1375.04 287.28,1375.36 303.192,1366.44 319.103,1367.61 335.015,1359.24 350.927,1360.48 366.838,1352.92 382.75,1354.46 398.661,1346.58 414.573,1350.05 430.484,1339.93 446.396,1346.74 462.307,1333.87 478.219,1343.21 494.13,1329.28 510.042,1339.34 525.953,1324.91 541.865,1337.57 557.776,1316.84 573.688,1345.66 589.599,1170.5 605.511,1067.57 621.422,897.329 637.334,832.998 653.246,861.591 669.157,840.284 685.069,852.117 700.98,843.669 716.892,846.747 732.803,841.023 748.715,848.354 764.626,835.881 780.538,846.15 796.449,836.837 812.361,842.477 828.272,837.807 844.184,838.567 860.095,833.15 876.007,843.441 891.918,806.93 907.83,410.879 923.742,352.723 939.653,368.299 955.565,362.433 971.476,371.434 987.388,357.937 1003.3,372.092 1019.21,353.172 1035.12,365.834 1051.03,357.617 1066.95,363.803 1082.86,357.818 1098.77,370.983 1114.68,361.663 1130.59,358.063 1146.5,359.967 1162.41,365.826 1178.33,356.782 1194.24,366.627 1210.15,361.158 1226.06,297.841 1241.97,676.165 1257.88,909.253 1273.8,830.601 1289.71,847.757 1305.62,842.359 1321.53,885.501 1337.44,848.991 1353.35,806.856 1369.26,803.247 1385.18,891.432 1401.09,1261.87 1417,1319.57 1432.91,1292.2 1448.82,1304.29 1464.73,1290.2 1480.65,1311.42 1496.56,1289.5 1512.47,1312.24 1528.38,1293.6 1544.29,1314.78 1560.2,1282.68 1576.11,1324.95 1592.03,1278.13 1607.94,1344.08 1623.85,1134.71 1639.76,800.158 1655.67,852.777 1671.58,826.566 1687.49,844.823 1703.41,834.084 1719.32,846.88 1735.23,831.913 1751.14,847.006 1767.05,837.929 1782.96,847.322 1798.88,838.971 1814.79,848.978 1830.7,843.93 1846.61,846.626 1862.52,850.649 1878.43,845.482 1894.34,855.615 1910.26,845.784 1926.17,861.635 1942.08,841.142 1957.99,897.221 1973.9,1075.05 1989.81,1172.16 2005.73,1352.33 2021.64,1319.47 2037.55,1344.26 2053.46,1328.31 2069.37,1345.81 2085.28,1333.76 2101.19,1349.67 2117.11,1338.78 2133.02,1354.12 2148.93,1344.65 2164.84,1358.51 2180.75,1351.67 2196.66,1363.11 2212.58,1359.46 2228.49,1368.61 2244.4,1367.57 2260.31,1375.58 2276.22,1375.88 2292.13,1384.24 "/>
<polyline clip-path="url(#clip471)" style="stroke:#3da44d; stroke-linecap:round; stroke-linejoin:round; stroke-width:4; stroke-opacity:1; fill:none" points="271.369,1146.35 287.28,1146.35 303.192,1146.35 319.103,1146.35 335.015,1146.35 350.927,1146.35 366.838,1146.35 382.75,1146.35 398.661,1146.35 414.573,1146.35 430.484,1146.35 446.396,1146.35 462.307,1146.35 478.219,1146.35 494.13,1146.35 510.042,1146.35 525.953,1146.35 541.865,1146.35 557.776,1146.35 573.688,1146.35 589.599,1028.94 605.511,911.531 621.422,676.712 637.334,676.712 653.246,676.712 669.157,676.712 685.069,676.712 700.98,676.712 716.892,676.712 732.803,676.712 748.715,676.712 764.626,676.712 780.538,676.712 796.449,676.712 812.361,676.712 828.272,676.712 844.184,676.712 860.095,676.712 876.007,676.712 891.918,676.712 907.83,207.072 923.742,207.072 939.653,207.072 955.565,207.072 971.476,207.072 987.388,207.072 1003.3,207.072 1019.21,207.072 1035.12,207.072 1051.03,207.072 1066.95,207.072 1082.86,207.072 1098.77,207.072 1114.68,207.072 1130.59,207.072 1146.5,207.072 1162.41,207.072 1178.33,207.072 1194.24,207.072 1210.15,207.072 1226.06,207.072 1241.97,441.892 1257.88,676.712 1273.8,676.712 1289.71,676.712 1305.62,676.712 1321.53,676.712 1337.44,676.712 1353.35,676.712 1369.26,676.712 1385.18,676.712 1401.09,1146.35 1417,1146.35 1432.91,1146.35 1448.82,1146.35 1464.73,1146.35 1480.65,1146.35 1496.56,1146.35 1512.47,1146.35 1528.38,1146.35 1544.29,1146.35 1560.2,1146.35 1576.11,1146.35 1592.03,1146.35 1607.94,1146.35 1623.85,911.531 1639.76,676.712 1655.67,676.712 1671.58,676.712 1687.49,676.712 1703.41,676.712 1719.32,676.712 1735.23,676.712 1751.14,676.712 1767.05,676.712 1782.96,676.712 1798.88,676.712 1814.79,676.712 1830.7,676.712 1846.61,676.712 1862.52,676.712 1878.43,676.712 1894.34,676.712 1910.26,676.712 1926.17,676.712 1942.08,676.712 1957.99,676.712 1973.9,911.531 1989.81,1028.94 2005.73,1146.35 2021.64,1146.35 2037.55,1146.35 2053.46,1146.35 2069.37,1146.35 2085.28,1146.35 2101.19,1146.35 2117.11,1146.35 2133.02,1146.35 2148.93,1146.35 2164.84,1146.35 2180.75,1146.35 2196.66,1146.35 2212.58,1146.35 2228.49,1146.35 2244.4,1146.35 2260.31,1146.35 2276.22,1146.35 2292.13,1146.35 "/>
<polyline clip-path="url(#clip471)" style="stroke:#c271d2; stroke-linecap:round; stroke-linejoin:round; stroke-width:4; stroke-opacity:1; fill:none" points="271.369,1096.66 287.28,1122.56 303.192,1125.87 319.103,1135.28 335.015,1141.97 350.927,1155.83 366.838,1166.44 382.75,1183.69 398.661,1183.61 414.573,1176.46 430.484,1150.33 446.396,1149.42 462.307,1133.42 478.219,1139.99 494.13,1129.14 510.042,1135.3 525.953,1138.49 541.865,1162.74 557.776,1137 573.688,1164.26 589.599,991.826 605.511,888.07 621.422,722.405 637.334,656.705 653.246,689.502 669.157,667.21 685.069,682.656 700.98,673.718 716.892,679.372 732.803,673.653 748.715,682.755 764.626,670.16 780.538,682.378 796.449,672.18 812.361,680.536 828.272,674.575 844.184,678.424 860.095,671.639 876.007,684.767 891.918,647.076 907.83,253.275 923.742,193.341 939.653,211.269 955.565,204.528 971.476,214.727 987.388,200.759 1003.3,216.872 1019.21,196.827 1035.12,212.799 1051.03,202.207 1066.95,209.824 1082.86,204.062 1098.77,218.822 1114.68,207.014 1130.59,204.74 1146.5,204.522 1162.41,211.958 1178.33,201.152 1194.24,212.404 1210.15,204.969 1226.06,143.123 1241.97,520.206 1257.88,755.059 1273.8,674.218 1289.71,693.726 1305.62,686.514 1321.53,731.245 1337.44,693.734 1353.35,653.073 1369.26,647.318 1385.18,738.407 1401.09,1106.79 1417,1166.03 1432.91,1137.29 1448.82,1151.11 1464.73,1135.47 1480.65,1159.53 1496.56,1135.05 1512.47,1158.01 1528.38,1137.7 1544.29,1161.26 1560.2,1125.24 1576.11,1168.63 1592.03,1119.73 1607.94,1186.02 1623.85,974.651 1639.76,641.714 1655.67,691.668 1671.58,667.367 1687.49,682.687 1703.41,673.579 1719.32,683.36 1735.23,669.733 1751.14,681.335 1767.05,674.013 1782.96,679.695 1798.88,673.195 1814.79,679.293 1830.7,676.271 1846.61,675.037 1862.52,680.528 1878.43,671.586 1894.34,682.424 1910.26,669.097 1926.17,685.13 1942.08,661.343 1957.99,716.911 1973.9,891.265 1989.81,989.495 2005.73,1167.39 2021.64,1142.71 2037.55,1153.44 2053.46,1125.61 2069.37,1140.52 2085.28,1130.43 2101.19,1141.73 2117.11,1138.69 2133.02,1154.14 2148.93,1163.28 2164.84,1187.66 2180.75,1183.63 2196.66,1173.98 2212.58,1155.67 2228.49,1145.07 2244.4,1131.27 2260.31,1123.86 2276.22,1121.35 2292.13,1099.9 "/>
<polyline clip-path="url(#clip471)" style="stroke:#000000; stroke-linecap:round; stroke-linejoin:round; stroke-width:4; stroke-opacity:1; fill:none" points="271.369,1147.3 287.28,1145.46 303.192,1145.75 319.103,1146.36 335.015,1145.93 350.927,1146.42 366.838,1145.68 382.75,1147.14 398.661,1146.34 414.573,1147.63 430.484,1145.91 446.396,1147.67 462.307,1145.54 478.219,1147.13 494.13,1144.93 510.042,1148.02 525.953,1144.44 541.865,1149.36 557.776,1141.5 573.688,1159.63 589.599,993.779 605.511,891.153 621.422,719.528 637.334,665.786 653.246,681.704 669.157,673.055 685.069,678.942 700.98,675.298 716.892,677.91 732.803,675.947 748.715,677.086 764.626,676.339 780.538,676.682 796.449,676.761 812.361,677.23 828.272,676.245 844.184,676.276 860.095,677.1 876.007,677.624 891.918,655.403 907.83,239.037 923.742,205.387 939.653,207.761 955.565,206.517 971.476,207.823 987.388,206.756 1003.3,207.816 1019.21,206.966 1035.12,206.404 1051.03,207.58 1066.95,206.702 1082.86,208.354 1098.77,206.695 1114.68,208.952 1130.59,204.63 1146.5,209.152 1162.41,203.77 1178.33,212.371 1194.24,199.619 1210.15,217.59 1226.06,160.335 1241.97,520.258 1257.88,703.582 1273.8,687.993 1289.71,713.887 1305.62,687.716 1321.53,684.766 1337.44,681.328 1353.35,676.205 1369.26,669.686 1385.18,702.46 1401.09,1138.18 1417,1146.03 1432.91,1145.34 1448.82,1145.89 1464.73,1146.46 1480.65,1146.28 1496.56,1145.81 1512.47,1147.68 1528.38,1145.59 1544.29,1148.11 1560.2,1143.25 1576.11,1151.17 1592.03,1135.76 1607.94,1176.6 1623.85,971.525 1639.76,649.23 1655.67,686.473 1671.58,671.71 1687.49,680.649 1703.41,674.098 1719.32,679.025 1735.23,675.141 1751.14,676.899 1767.05,676.906 1782.96,676.616 1798.88,677.034 1814.79,675.966 1830.7,677.434 1846.61,675.701 1862.52,678.108 1878.43,675.029 1894.34,678.855 1910.26,673.589 1926.17,680.889 1942.08,666.919 1957.99,718.446 1973.9,891.966 1989.81,992.987 2005.73,1160.38 2021.64,1140.83 2037.55,1149.97 2053.46,1143.81 2069.37,1148.59 2085.28,1144.26 2101.19,1147.98 2117.11,1145.12 2133.02,1147.82 2148.93,1145.68 2164.84,1148.13 2180.75,1145.94 2196.66,1147.2 2212.58,1145.44 2228.49,1146.66 2244.4,1145.32 2260.31,1146.27 2276.22,1144.63 2292.13,1148.1 "/>
<path clip-path="url(#clip470)" d="M1473.73 404.149 L2281.36 404.149 L2281.36 93.1086 L1473.73 93.1086  Z" fill="#ffffff" fill-rule="evenodd" fill-opacity="1"/>
<polyline clip-path="url(#clip470)" style="stroke:#000000; stroke-linecap:round; stroke-linejoin:round; stroke-width:4; stroke-opacity:1; fill:none" points="1473.73,404.149 2281.36,404.149 2281.36,93.1086 1473.73,93.1086 1473.73,404.149 "/>
<polyline clip-path="url(#clip470)" style="stroke:#009af9; stroke-linecap:round; stroke-linejoin:round; stroke-width:4; stroke-opacity:1; fill:none" points="1497.53,144.949 1640.33,144.949 "/>
<path clip-path="url(#clip470)" d="M1664.13 127.669 L1671.1 127.669 L1679.92 151.187 L1688.79 127.669 L1695.75 127.669 L1695.75 162.229 L1691.19 162.229 L1691.19 131.882 L1682.28 155.585 L1677.58 155.585 L1668.67 131.882 L1668.67 162.229 L1664.13 162.229 L1664.13 127.669 Z" fill="#000000" fill-rule="nonzero" fill-opacity="1" /><path clip-path="url(#clip470)" d="M1714.9 139.289 Q1711.47 139.289 1709.48 141.974 Q1707.49 144.636 1707.49 149.289 Q1707.49 153.942 1709.46 156.627 Q1711.45 159.289 1714.9 159.289 Q1718.3 159.289 1720.29 156.604 Q1722.28 153.918 1722.28 149.289 Q1722.28 144.682 1720.29 141.997 Q1718.3 139.289 1714.9 139.289 M1714.9 135.678 Q1720.45 135.678 1723.62 139.289 Q1726.79 142.9 1726.79 149.289 Q1726.79 155.655 1723.62 159.289 Q1720.45 162.9 1714.9 162.9 Q1709.32 162.9 1706.15 159.289 Q1703 155.655 1703 149.289 Q1703 142.9 1706.15 139.289 Q1709.32 135.678 1714.9 135.678 Z" fill="#000000" fill-rule="nonzero" fill-opacity="1" /><path clip-path="url(#clip470)" d="M1750.91 140.238 L1750.91 126.21 L1755.17 126.21 L1755.17 162.229 L1750.91 162.229 L1750.91 158.34 Q1749.57 160.655 1747.51 161.789 Q1745.47 162.9 1742.6 162.9 Q1737.91 162.9 1734.94 159.15 Q1732 155.4 1732 149.289 Q1732 143.178 1734.94 139.428 Q1737.91 135.678 1742.6 135.678 Q1745.47 135.678 1747.51 136.812 Q1749.57 137.923 1750.91 140.238 M1736.4 149.289 Q1736.4 153.988 1738.32 156.673 Q1740.27 159.335 1743.65 159.335 Q1747.03 159.335 1748.97 156.673 Q1750.91 153.988 1750.91 149.289 Q1750.91 144.59 1748.97 141.928 Q1747.03 139.243 1743.65 139.243 Q1740.27 139.243 1738.32 141.928 Q1736.4 144.59 1736.4 149.289 Z" fill="#000000" fill-rule="nonzero" fill-opacity="1" /><path clip-path="url(#clip470)" d="M1763.95 136.303 L1768.21 136.303 L1768.21 162.229 L1763.95 162.229 L1763.95 136.303 M1763.95 126.21 L1768.21 126.21 L1768.21 131.604 L1763.95 131.604 L1763.95 126.21 Z" fill="#000000" fill-rule="nonzero" fill-opacity="1" /><path clip-path="url(#clip470)" d="M1790.24 126.21 L1790.24 129.752 L1786.17 129.752 Q1783.88 129.752 1782.97 130.678 Q1782.1 131.604 1782.1 134.011 L1782.1 136.303 L1789.11 136.303 L1789.11 139.613 L1782.1 139.613 L1782.1 162.229 L1777.81 162.229 L1777.81 139.613 L1773.74 139.613 L1773.74 136.303 L1777.81 136.303 L1777.81 134.497 Q1777.81 130.169 1779.83 128.201 Q1781.84 126.21 1786.22 126.21 L1790.24 126.21 Z" fill="#000000" fill-rule="nonzero" fill-opacity="1" /><path clip-path="url(#clip470)" d="M1793.81 136.303 L1798.07 136.303 L1798.07 162.229 L1793.81 162.229 L1793.81 136.303 M1793.81 126.21 L1798.07 126.21 L1798.07 131.604 L1793.81 131.604 L1793.81 126.21 Z" fill="#000000" fill-rule="nonzero" fill-opacity="1" /><path clip-path="url(#clip470)" d="M1829.15 148.201 L1829.15 150.284 L1809.57 150.284 Q1809.85 154.682 1812.21 156.997 Q1814.59 159.289 1818.83 159.289 Q1821.28 159.289 1823.58 158.687 Q1825.89 158.085 1828.16 156.881 L1828.16 160.909 Q1825.87 161.881 1823.46 162.391 Q1821.05 162.9 1818.58 162.9 Q1812.37 162.9 1808.74 159.289 Q1805.13 155.678 1805.13 149.52 Q1805.13 143.155 1808.55 139.428 Q1812 135.678 1817.84 135.678 Q1823.07 135.678 1826.1 139.057 Q1829.15 142.414 1829.15 148.201 M1824.9 146.951 Q1824.85 143.456 1822.93 141.372 Q1821.03 139.289 1817.88 139.289 Q1814.32 139.289 1812.16 141.303 Q1810.03 143.317 1809.71 146.974 L1824.9 146.951 Z" fill="#000000" fill-rule="nonzero" fill-opacity="1" /><path clip-path="url(#clip470)" d="M1853.21 140.238 L1853.21 126.21 L1857.47 126.21 L1857.47 162.229 L1853.21 162.229 L1853.21 158.34 Q1851.86 160.655 1849.8 161.789 Q1847.77 162.9 1844.9 162.9 Q1840.2 162.9 1837.23 159.15 Q1834.29 155.4 1834.29 149.289 Q1834.29 143.178 1837.23 139.428 Q1840.2 135.678 1844.9 135.678 Q1847.77 135.678 1849.8 136.812 Q1851.86 137.923 1853.21 140.238 M1838.69 149.289 Q1838.69 153.988 1840.61 156.673 Q1842.56 159.335 1845.94 159.335 Q1849.32 159.335 1851.26 156.673 Q1853.21 153.988 1853.21 149.289 Q1853.21 144.59 1851.26 141.928 Q1849.32 139.243 1845.94 139.243 Q1842.56 139.243 1840.61 141.928 Q1838.69 144.59 1838.69 149.289 Z" fill="#000000" fill-rule="nonzero" fill-opacity="1" /><path clip-path="url(#clip470)" d="M1896.33 140.284 Q1895.61 139.868 1894.76 139.682 Q1893.92 139.474 1892.9 139.474 Q1889.29 139.474 1887.35 141.835 Q1885.43 144.173 1885.43 148.571 L1885.43 162.229 L1881.15 162.229 L1881.15 136.303 L1885.43 136.303 L1885.43 140.331 Q1886.77 137.969 1888.92 136.835 Q1891.08 135.678 1894.15 135.678 Q1894.59 135.678 1895.13 135.747 Q1895.66 135.794 1896.31 135.909 L1896.33 140.284 Z" fill="#000000" fill-rule="nonzero" fill-opacity="1" /><path clip-path="url(#clip470)" d="M1912.58 149.196 Q1907.42 149.196 1905.43 150.377 Q1903.44 151.557 1903.44 154.405 Q1903.44 156.673 1904.92 158.016 Q1906.42 159.335 1908.99 159.335 Q1912.53 159.335 1914.66 156.835 Q1916.82 154.312 1916.82 150.145 L1916.82 149.196 L1912.58 149.196 M1921.08 147.437 L1921.08 162.229 L1916.82 162.229 L1916.82 158.293 Q1915.36 160.655 1913.18 161.789 Q1911.01 162.9 1907.86 162.9 Q1903.88 162.9 1901.52 160.678 Q1899.18 158.432 1899.18 154.682 Q1899.18 150.307 1902.09 148.085 Q1905.03 145.863 1910.84 145.863 L1916.82 145.863 L1916.82 145.446 Q1916.82 142.507 1914.87 140.909 Q1912.95 139.289 1909.46 139.289 Q1907.23 139.289 1905.13 139.821 Q1903.02 140.354 1901.08 141.419 L1901.08 137.483 Q1903.41 136.581 1905.61 136.141 Q1907.81 135.678 1909.9 135.678 Q1915.52 135.678 1918.3 138.594 Q1921.08 141.511 1921.08 147.437 Z" fill="#000000" fill-rule="nonzero" fill-opacity="1" /><path clip-path="url(#clip470)" d="M1950.03 141.28 Q1951.63 138.409 1953.85 137.044 Q1956.08 135.678 1959.08 135.678 Q1963.14 135.678 1965.33 138.525 Q1967.53 141.349 1967.53 146.581 L1967.53 162.229 L1963.25 162.229 L1963.25 146.719 Q1963.25 142.993 1961.93 141.187 Q1960.61 139.382 1957.9 139.382 Q1954.59 139.382 1952.67 141.581 Q1950.75 143.78 1950.75 147.576 L1950.75 162.229 L1946.47 162.229 L1946.47 146.719 Q1946.47 142.969 1945.15 141.187 Q1943.83 139.382 1941.08 139.382 Q1937.81 139.382 1935.89 141.604 Q1933.97 143.803 1933.97 147.576 L1933.97 162.229 L1929.69 162.229 L1929.69 136.303 L1933.97 136.303 L1933.97 140.331 Q1935.43 137.946 1937.46 136.812 Q1939.5 135.678 1942.3 135.678 Q1945.13 135.678 1947.09 137.113 Q1949.08 138.548 1950.03 141.28 Z" fill="#000000" fill-rule="nonzero" fill-opacity="1" /><path clip-path="url(#clip470)" d="M1980.15 158.34 L1980.15 172.09 L1975.87 172.09 L1975.87 136.303 L1980.15 136.303 L1980.15 140.238 Q1981.49 137.923 1983.53 136.812 Q1985.59 135.678 1988.44 135.678 Q1993.16 135.678 1996.1 139.428 Q1999.06 143.178 1999.06 149.289 Q1999.06 155.4 1996.1 159.15 Q1993.16 162.9 1988.44 162.9 Q1985.59 162.9 1983.53 161.789 Q1981.49 160.655 1980.15 158.34 M1994.64 149.289 Q1994.64 144.59 1992.7 141.928 Q1990.77 139.243 1987.39 139.243 Q1984.02 139.243 1982.07 141.928 Q1980.15 144.59 1980.15 149.289 Q1980.15 153.988 1982.07 156.673 Q1984.02 159.335 1987.39 159.335 Q1990.77 159.335 1992.7 156.673 Q1994.64 153.988 1994.64 149.289 Z" fill="#000000" fill-rule="nonzero" fill-opacity="1" /><path clip-path="url(#clip470)" d="M2026.05 131.511 L2026.05 158.386 L2031.7 158.386 Q2038.85 158.386 2042.16 155.145 Q2045.5 151.905 2045.5 144.914 Q2045.5 137.969 2042.16 134.752 Q2038.85 131.511 2031.7 131.511 L2026.05 131.511 M2021.38 127.669 L2030.98 127.669 Q2041.03 127.669 2045.73 131.858 Q2050.43 136.025 2050.43 144.914 Q2050.43 153.849 2045.7 158.039 Q2040.98 162.229 2030.98 162.229 L2021.38 162.229 L2021.38 127.669 Z" fill="#000000" fill-rule="nonzero" fill-opacity="1" /><path clip-path="url(#clip470)" d="M2083.76 130.331 L2083.76 135.261 Q2081.4 133.062 2078.71 131.974 Q2076.05 130.886 2073.04 130.886 Q2067.12 130.886 2063.97 134.52 Q2060.82 138.132 2060.82 144.983 Q2060.82 151.812 2063.97 155.446 Q2067.12 159.057 2073.04 159.057 Q2076.05 159.057 2078.71 157.969 Q2081.4 156.881 2083.76 154.682 L2083.76 159.567 Q2081.31 161.233 2078.55 162.067 Q2075.82 162.9 2072.76 162.9 Q2064.92 162.9 2060.4 158.108 Q2055.89 153.293 2055.89 144.983 Q2055.89 136.65 2060.4 131.858 Q2064.92 127.044 2072.76 127.044 Q2075.87 127.044 2078.6 127.877 Q2081.35 128.687 2083.76 130.331 Z" fill="#000000" fill-rule="nonzero" fill-opacity="1" /><path clip-path="url(#clip470)" d="M2090.98 127.669 L2110.84 127.669 L2110.84 131.604 L2095.66 131.604 L2095.66 141.789 L2109.36 141.789 L2109.36 145.724 L2095.66 145.724 L2095.66 162.229 L2090.98 162.229 L2090.98 127.669 Z" fill="#000000" fill-rule="nonzero" fill-opacity="1" /><polyline clip-path="url(#clip470)" style="stroke:#e26f46; stroke-linecap:round; stroke-linejoin:round; stroke-width:4; stroke-opacity:1; fill:none" points="1497.53,196.789 1640.33,196.789 "/>
<path clip-path="url(#clip470)" d="M1668.81 197.564 L1668.81 210.226 L1676.31 210.226 Q1680.08 210.226 1681.89 208.675 Q1683.72 207.101 1683.72 203.883 Q1683.72 200.643 1681.89 199.115 Q1680.08 197.564 1676.31 197.564 L1668.81 197.564 M1668.81 183.351 L1668.81 193.768 L1675.73 193.768 Q1679.16 193.768 1680.82 192.495 Q1682.51 191.198 1682.51 188.559 Q1682.51 185.944 1680.82 184.647 Q1679.16 183.351 1675.73 183.351 L1668.81 183.351 M1664.13 179.509 L1676.08 179.509 Q1681.42 179.509 1684.32 181.731 Q1687.21 183.953 1687.21 188.05 Q1687.21 191.222 1685.73 193.097 Q1684.25 194.971 1681.38 195.434 Q1684.83 196.175 1686.73 198.536 Q1688.65 200.874 1688.65 204.393 Q1688.65 209.022 1685.5 211.545 Q1682.35 214.069 1676.54 214.069 L1664.13 214.069 L1664.13 179.509 Z" fill="#000000" fill-rule="nonzero" fill-opacity="1" /><path clip-path="url(#clip470)" d="M1708.25 201.036 Q1703.09 201.036 1701.1 202.217 Q1699.11 203.397 1699.11 206.245 Q1699.11 208.513 1700.59 209.856 Q1702.1 211.175 1704.66 211.175 Q1708.21 211.175 1710.34 208.675 Q1712.49 206.152 1712.49 201.985 L1712.49 201.036 L1708.25 201.036 M1716.75 199.277 L1716.75 214.069 L1712.49 214.069 L1712.49 210.133 Q1711.03 212.495 1708.85 213.629 Q1706.68 214.74 1703.53 214.74 Q1699.55 214.74 1697.19 212.518 Q1694.85 210.272 1694.85 206.522 Q1694.85 202.147 1697.77 199.925 Q1700.71 197.703 1706.52 197.703 L1712.49 197.703 L1712.49 197.286 Q1712.49 194.347 1710.54 192.749 Q1708.62 191.129 1705.13 191.129 Q1702.91 191.129 1700.8 191.661 Q1698.69 192.194 1696.75 193.259 L1696.75 189.323 Q1699.09 188.421 1701.29 187.981 Q1703.48 187.518 1705.57 187.518 Q1711.19 187.518 1713.97 190.434 Q1716.75 193.351 1716.75 199.277 Z" fill="#000000" fill-rule="nonzero" fill-opacity="1" /><path clip-path="url(#clip470)" d="M1742.05 188.907 L1742.05 192.934 Q1740.24 192.009 1738.3 191.546 Q1736.35 191.083 1734.27 191.083 Q1731.1 191.083 1729.5 192.055 Q1727.93 193.027 1727.93 194.971 Q1727.93 196.453 1729.06 197.309 Q1730.2 198.143 1733.62 198.907 L1735.08 199.231 Q1739.62 200.203 1741.52 201.985 Q1743.44 203.745 1743.44 206.916 Q1743.44 210.527 1740.57 212.633 Q1737.72 214.74 1732.72 214.74 Q1730.64 214.74 1728.37 214.323 Q1726.12 213.93 1723.62 213.12 L1723.62 208.721 Q1725.98 209.948 1728.28 210.573 Q1730.57 211.175 1732.81 211.175 Q1735.82 211.175 1737.44 210.157 Q1739.06 209.115 1739.06 207.24 Q1739.06 205.504 1737.88 204.578 Q1736.72 203.652 1732.77 202.796 L1731.29 202.448 Q1727.33 201.615 1725.57 199.902 Q1723.81 198.166 1723.81 195.157 Q1723.81 191.499 1726.4 189.509 Q1728.99 187.518 1733.76 187.518 Q1736.12 187.518 1738.21 187.865 Q1740.29 188.212 1742.05 188.907 Z" fill="#000000" fill-rule="nonzero" fill-opacity="1" /><path clip-path="url(#clip470)" d="M1750.22 188.143 L1754.48 188.143 L1754.48 214.069 L1750.22 214.069 L1750.22 188.143 M1750.22 178.05 L1754.48 178.05 L1754.48 183.444 L1750.22 183.444 L1750.22 178.05 Z" fill="#000000" fill-rule="nonzero" fill-opacity="1" /><path clip-path="url(#clip470)" d="M1782.05 189.138 L1782.05 193.12 Q1780.24 192.124 1778.41 191.638 Q1776.61 191.129 1774.76 191.129 Q1770.61 191.129 1768.32 193.768 Q1766.03 196.384 1766.03 201.129 Q1766.03 205.874 1768.32 208.513 Q1770.61 211.129 1774.76 211.129 Q1776.61 211.129 1778.41 210.643 Q1780.24 210.133 1782.05 209.138 L1782.05 213.073 Q1780.27 213.907 1778.35 214.323 Q1776.45 214.74 1774.29 214.74 Q1768.44 214.74 1764.99 211.059 Q1761.54 207.379 1761.54 201.129 Q1761.54 194.786 1765.01 191.152 Q1768.51 187.518 1774.57 187.518 Q1776.54 187.518 1778.41 187.935 Q1780.29 188.328 1782.05 189.138 Z" fill="#000000" fill-rule="nonzero" fill-opacity="1" /><path clip-path="url(#clip470)" d="M1819.55 192.124 Q1818.83 191.708 1817.97 191.522 Q1817.14 191.314 1816.12 191.314 Q1812.51 191.314 1810.57 193.675 Q1808.65 196.013 1808.65 200.411 L1808.65 214.069 L1804.36 214.069 L1804.36 188.143 L1808.65 188.143 L1808.65 192.171 Q1809.99 189.809 1812.14 188.675 Q1814.29 187.518 1817.37 187.518 Q1817.81 187.518 1818.34 187.587 Q1818.88 187.634 1819.53 187.749 L1819.55 192.124 Z" fill="#000000" fill-rule="nonzero" fill-opacity="1" /><path clip-path="url(#clip470)" d="M1835.8 201.036 Q1830.64 201.036 1828.65 202.217 Q1826.65 203.397 1826.65 206.245 Q1826.65 208.513 1828.14 209.856 Q1829.64 211.175 1832.21 211.175 Q1835.75 211.175 1837.88 208.675 Q1840.03 206.152 1840.03 201.985 L1840.03 201.036 L1835.8 201.036 M1844.29 199.277 L1844.29 214.069 L1840.03 214.069 L1840.03 210.133 Q1838.58 212.495 1836.4 213.629 Q1834.22 214.74 1831.08 214.74 Q1827.09 214.74 1824.73 212.518 Q1822.4 210.272 1822.4 206.522 Q1822.4 202.147 1825.31 199.925 Q1828.25 197.703 1834.06 197.703 L1840.03 197.703 L1840.03 197.286 Q1840.03 194.347 1838.09 192.749 Q1836.17 191.129 1832.67 191.129 Q1830.45 191.129 1828.34 191.661 Q1826.24 192.194 1824.29 193.259 L1824.29 189.323 Q1826.63 188.421 1828.83 187.981 Q1831.03 187.518 1833.11 187.518 Q1838.74 187.518 1841.52 190.434 Q1844.29 193.351 1844.29 199.277 Z" fill="#000000" fill-rule="nonzero" fill-opacity="1" /><path clip-path="url(#clip470)" d="M1873.25 193.12 Q1874.85 190.249 1877.07 188.884 Q1879.29 187.518 1882.3 187.518 Q1886.35 187.518 1888.55 190.365 Q1890.75 193.189 1890.75 198.421 L1890.75 214.069 L1886.47 214.069 L1886.47 198.559 Q1886.47 194.833 1885.15 193.027 Q1883.83 191.222 1881.12 191.222 Q1877.81 191.222 1875.89 193.421 Q1873.97 195.62 1873.97 199.416 L1873.97 214.069 L1869.69 214.069 L1869.69 198.559 Q1869.69 194.809 1868.37 193.027 Q1867.05 191.222 1864.29 191.222 Q1861.03 191.222 1859.11 193.444 Q1857.19 195.643 1857.19 199.416 L1857.19 214.069 L1852.9 214.069 L1852.9 188.143 L1857.19 188.143 L1857.19 192.171 Q1858.65 189.786 1860.68 188.652 Q1862.72 187.518 1865.52 187.518 Q1868.34 187.518 1870.31 188.953 Q1872.3 190.388 1873.25 193.12 Z" fill="#000000" fill-rule="nonzero" fill-opacity="1" /><path clip-path="url(#clip470)" d="M1903.37 210.18 L1903.37 223.93 L1899.09 223.93 L1899.09 188.143 L1903.37 188.143 L1903.37 192.078 Q1904.71 189.763 1906.75 188.652 Q1908.81 187.518 1911.65 187.518 Q1916.38 187.518 1919.32 191.268 Q1922.28 195.018 1922.28 201.129 Q1922.28 207.24 1919.32 210.99 Q1916.38 214.74 1911.65 214.74 Q1908.81 214.74 1906.75 213.629 Q1904.71 212.495 1903.37 210.18 M1917.86 201.129 Q1917.86 196.43 1915.91 193.768 Q1913.99 191.083 1910.61 191.083 Q1907.23 191.083 1905.29 193.768 Q1903.37 196.43 1903.37 201.129 Q1903.37 205.828 1905.29 208.513 Q1907.23 211.175 1910.61 211.175 Q1913.99 211.175 1915.91 208.513 Q1917.86 205.828 1917.86 201.129 Z" fill="#000000" fill-rule="nonzero" fill-opacity="1" /><path clip-path="url(#clip470)" d="M1949.27 183.351 L1949.27 210.226 L1954.92 210.226 Q1962.07 210.226 1965.38 206.985 Q1968.71 203.745 1968.71 196.754 Q1968.71 189.809 1965.38 186.592 Q1962.07 183.351 1954.92 183.351 L1949.27 183.351 M1944.59 179.509 L1954.2 179.509 Q1964.25 179.509 1968.95 183.698 Q1973.64 187.865 1973.64 196.754 Q1973.64 205.689 1968.92 209.879 Q1964.2 214.069 1954.2 214.069 L1944.59 214.069 L1944.59 179.509 Z" fill="#000000" fill-rule="nonzero" fill-opacity="1" /><path clip-path="url(#clip470)" d="M2006.98 182.171 L2006.98 187.101 Q2004.62 184.902 2001.93 183.814 Q1999.27 182.726 1996.26 182.726 Q1990.33 182.726 1987.19 186.36 Q1984.04 189.972 1984.04 196.823 Q1984.04 203.652 1987.19 207.286 Q1990.33 210.897 1996.26 210.897 Q1999.27 210.897 2001.93 209.809 Q2004.62 208.721 2006.98 206.522 L2006.98 211.407 Q2004.52 213.073 2001.77 213.907 Q1999.04 214.74 1995.98 214.74 Q1988.14 214.74 1983.62 209.948 Q1979.11 205.133 1979.11 196.823 Q1979.11 188.49 1983.62 183.698 Q1988.14 178.884 1995.98 178.884 Q1999.08 178.884 2001.82 179.717 Q2004.57 180.527 2006.98 182.171 Z" fill="#000000" fill-rule="nonzero" fill-opacity="1" /><path clip-path="url(#clip470)" d="M2014.2 179.509 L2034.06 179.509 L2034.06 183.444 L2018.88 183.444 L2018.88 193.629 L2032.58 193.629 L2032.58 197.564 L2018.88 197.564 L2018.88 214.069 L2014.2 214.069 L2014.2 179.509 Z" fill="#000000" fill-rule="nonzero" fill-opacity="1" /><polyline clip-path="url(#clip470)" style="stroke:#3da44d; stroke-linecap:round; stroke-linejoin:round; stroke-width:4; stroke-opacity:1; fill:none" points="1497.53,248.629 1640.33,248.629 "/>
<path clip-path="url(#clip470)" d="M1664.13 231.349 L1668.81 231.349 L1668.81 265.909 L1664.13 265.909 L1664.13 231.349 Z" fill="#000000" fill-rule="nonzero" fill-opacity="1" /><path clip-path="url(#clip470)" d="M1694.99 243.918 L1694.99 229.89 L1699.25 229.89 L1699.25 265.909 L1694.99 265.909 L1694.99 262.02 Q1693.65 264.335 1691.59 265.469 Q1689.55 266.58 1686.68 266.58 Q1681.98 266.58 1679.02 262.83 Q1676.08 259.08 1676.08 252.969 Q1676.08 246.858 1679.02 243.108 Q1681.98 239.358 1686.68 239.358 Q1689.55 239.358 1691.59 240.492 Q1693.65 241.603 1694.99 243.918 M1680.48 252.969 Q1680.48 257.668 1682.4 260.353 Q1684.34 263.015 1687.72 263.015 Q1691.1 263.015 1693.04 260.353 Q1694.99 257.668 1694.99 252.969 Q1694.99 248.27 1693.04 245.608 Q1691.1 242.923 1687.72 242.923 Q1684.34 242.923 1682.4 245.608 Q1680.48 248.27 1680.48 252.969 Z" fill="#000000" fill-rule="nonzero" fill-opacity="1" /><path clip-path="url(#clip470)" d="M1730.2 251.881 L1730.2 253.964 L1710.61 253.964 Q1710.89 258.362 1713.25 260.677 Q1715.64 262.969 1719.87 262.969 Q1722.33 262.969 1724.62 262.367 Q1726.93 261.765 1729.2 260.561 L1729.2 264.589 Q1726.91 265.561 1724.5 266.071 Q1722.1 266.58 1719.62 266.58 Q1713.41 266.58 1709.78 262.969 Q1706.17 259.358 1706.17 253.2 Q1706.17 246.835 1709.6 243.108 Q1713.04 239.358 1718.88 239.358 Q1724.11 239.358 1727.14 242.737 Q1730.2 246.094 1730.2 251.881 M1725.94 250.631 Q1725.89 247.136 1723.97 245.052 Q1722.07 242.969 1718.92 242.969 Q1715.36 242.969 1713.21 244.983 Q1711.08 246.997 1710.75 250.654 L1725.94 250.631 Z" fill="#000000" fill-rule="nonzero" fill-opacity="1" /><path clip-path="url(#clip470)" d="M1748.97 252.876 Q1743.81 252.876 1741.82 254.057 Q1739.83 255.237 1739.83 258.085 Q1739.83 260.353 1741.31 261.696 Q1742.81 263.015 1745.38 263.015 Q1748.92 263.015 1751.05 260.515 Q1753.21 257.992 1753.21 253.825 L1753.21 252.876 L1748.97 252.876 M1757.47 251.117 L1757.47 265.909 L1753.21 265.909 L1753.21 261.973 Q1751.75 264.335 1749.57 265.469 Q1747.4 266.58 1744.25 266.58 Q1740.27 266.58 1737.91 264.358 Q1735.57 262.112 1735.57 258.362 Q1735.57 253.987 1738.48 251.765 Q1741.42 249.543 1747.23 249.543 L1753.21 249.543 L1753.21 249.126 Q1753.21 246.187 1751.26 244.589 Q1749.34 242.969 1745.85 242.969 Q1743.62 242.969 1741.52 243.501 Q1739.41 244.034 1737.47 245.099 L1737.47 241.163 Q1739.8 240.261 1742 239.821 Q1744.2 239.358 1746.29 239.358 Q1751.91 239.358 1754.69 242.274 Q1757.47 245.191 1757.47 251.117 Z" fill="#000000" fill-rule="nonzero" fill-opacity="1" /><path clip-path="url(#clip470)" d="M1766.24 229.89 L1770.5 229.89 L1770.5 265.909 L1766.24 265.909 L1766.24 229.89 Z" fill="#000000" fill-rule="nonzero" fill-opacity="1" /><polyline clip-path="url(#clip470)" style="stroke:#c271d2; stroke-linecap:round; stroke-linejoin:round; stroke-width:4; stroke-opacity:1; fill:none" points="1497.53,300.469 1640.33,300.469 "/>
<path clip-path="url(#clip470)" d="M1664.13 283.189 L1668.81 283.189 L1668.81 313.813 L1685.64 313.813 L1685.64 317.749 L1664.13 317.749 L1664.13 283.189 Z" fill="#000000" fill-rule="nonzero" fill-opacity="1" /><path clip-path="url(#clip470)" d="M1711.26 284.323 L1711.26 288.883 Q1708.6 287.61 1706.24 286.985 Q1703.88 286.36 1701.68 286.36 Q1697.86 286.36 1695.78 287.841 Q1693.72 289.323 1693.72 292.054 Q1693.72 294.346 1695.08 295.527 Q1696.47 296.684 1700.31 297.402 L1703.14 297.98 Q1708.37 298.976 1710.85 301.499 Q1713.35 303.999 1713.35 308.212 Q1713.35 313.235 1709.97 315.827 Q1706.61 318.42 1700.1 318.42 Q1697.65 318.42 1694.87 317.864 Q1692.12 317.309 1689.16 316.221 L1689.16 311.406 Q1692 313.003 1694.73 313.813 Q1697.47 314.624 1700.1 314.624 Q1704.11 314.624 1706.29 313.05 Q1708.46 311.476 1708.46 308.559 Q1708.46 306.013 1706.89 304.577 Q1705.34 303.142 1701.77 302.425 L1698.92 301.869 Q1693.69 300.827 1691.35 298.605 Q1689.02 296.383 1689.02 292.425 Q1689.02 287.841 1692.23 285.202 Q1695.48 282.564 1701.15 282.564 Q1703.58 282.564 1706.1 283.003 Q1708.62 283.443 1711.26 284.323 Z" fill="#000000" fill-rule="nonzero" fill-opacity="1" /><path clip-path="url(#clip470)" d="M1718.3 302.864 L1730.78 302.864 L1730.78 306.661 L1718.3 306.661 L1718.3 302.864 Z" fill="#000000" fill-rule="nonzero" fill-opacity="1" /><path clip-path="url(#clip470)" d="M1763.62 285.851 L1763.62 290.781 Q1761.26 288.582 1758.58 287.494 Q1755.91 286.406 1752.91 286.406 Q1746.98 286.406 1743.83 290.04 Q1740.68 293.652 1740.68 300.503 Q1740.68 307.332 1743.83 310.966 Q1746.98 314.577 1752.91 314.577 Q1755.91 314.577 1758.58 313.489 Q1761.26 312.401 1763.62 310.202 L1763.62 315.087 Q1761.17 316.753 1758.41 317.587 Q1755.68 318.42 1752.63 318.42 Q1744.78 318.42 1740.27 313.628 Q1735.75 308.813 1735.75 300.503 Q1735.75 292.17 1740.27 287.378 Q1744.78 282.564 1752.63 282.564 Q1755.73 282.564 1758.46 283.397 Q1761.22 284.207 1763.62 285.851 Z" fill="#000000" fill-rule="nonzero" fill-opacity="1" /><path clip-path="url(#clip470)" d="M1794.41 312.818 L1794.41 303.536 L1786.77 303.536 L1786.77 299.693 L1799.04 299.693 L1799.04 314.531 Q1796.33 316.452 1793.07 317.448 Q1789.8 318.42 1786.1 318.42 Q1778 318.42 1773.41 313.698 Q1768.85 308.952 1768.85 300.503 Q1768.85 292.031 1773.41 287.309 Q1778 282.564 1786.1 282.564 Q1789.48 282.564 1792.51 283.397 Q1795.57 284.23 1798.14 285.851 L1798.14 290.827 Q1795.54 288.628 1792.63 287.517 Q1789.71 286.406 1786.49 286.406 Q1780.15 286.406 1776.96 289.948 Q1773.78 293.489 1773.78 300.503 Q1773.78 307.494 1776.96 311.036 Q1780.15 314.577 1786.49 314.577 Q1788.97 314.577 1790.91 314.161 Q1792.86 313.721 1794.41 312.818 Z" fill="#000000" fill-rule="nonzero" fill-opacity="1" /><polyline clip-path="url(#clip470)" style="stroke:#000000; stroke-linecap:round; stroke-linejoin:round; stroke-width:4; stroke-opacity:1; fill:none" points="1497.53,352.309 1640.33,352.309 "/>
<path clip-path="url(#clip470)" d="M1664.13 335.029 L1668.81 335.029 L1668.81 369.589 L1664.13 369.589 L1664.13 335.029 Z" fill="#000000" fill-rule="nonzero" fill-opacity="1" /><path clip-path="url(#clip470)" d="M1682.14 336.302 L1682.14 343.663 L1690.91 343.663 L1690.91 346.973 L1682.14 346.973 L1682.14 361.047 Q1682.14 364.218 1683 365.121 Q1683.88 366.024 1686.54 366.024 L1690.91 366.024 L1690.91 369.589 L1686.54 369.589 Q1681.61 369.589 1679.73 367.76 Q1677.86 365.908 1677.86 361.047 L1677.86 346.973 L1674.73 346.973 L1674.73 343.663 L1677.86 343.663 L1677.86 336.302 L1682.14 336.302 Z" fill="#000000" fill-rule="nonzero" fill-opacity="1" /><path clip-path="url(#clip470)" d="M1718.69 355.561 L1718.69 357.644 L1699.11 357.644 Q1699.39 362.042 1701.75 364.357 Q1704.13 366.649 1708.37 366.649 Q1710.82 366.649 1713.11 366.047 Q1715.43 365.445 1717.7 364.241 L1717.7 368.269 Q1715.41 369.241 1713 369.751 Q1710.59 370.26 1708.11 370.26 Q1701.91 370.26 1698.28 366.649 Q1694.66 363.038 1694.66 356.88 Q1694.66 350.515 1698.09 346.788 Q1701.54 343.038 1707.37 343.038 Q1712.6 343.038 1715.64 346.417 Q1718.69 349.774 1718.69 355.561 M1714.43 354.311 Q1714.39 350.816 1712.47 348.732 Q1710.57 346.649 1707.42 346.649 Q1703.85 346.649 1701.7 348.663 Q1699.57 350.677 1699.25 354.334 L1714.43 354.311 Z" fill="#000000" fill-rule="nonzero" fill-opacity="1" /><path clip-path="url(#clip470)" d="M1740.71 347.644 Q1739.99 347.228 1739.13 347.042 Q1738.3 346.834 1737.28 346.834 Q1733.67 346.834 1731.72 349.195 Q1729.8 351.533 1729.8 355.931 L1729.8 369.589 L1725.52 369.589 L1725.52 343.663 L1729.8 343.663 L1729.8 347.691 Q1731.15 345.329 1733.3 344.195 Q1735.45 343.038 1738.53 343.038 Q1738.97 343.038 1739.5 343.107 Q1740.04 343.154 1740.68 343.269 L1740.71 347.644 Z" fill="#000000" fill-rule="nonzero" fill-opacity="1" /><path clip-path="url(#clip470)" d="M1756.96 356.556 Q1751.79 356.556 1749.8 357.737 Q1747.81 358.917 1747.81 361.765 Q1747.81 364.033 1749.29 365.376 Q1750.8 366.695 1753.37 366.695 Q1756.91 366.695 1759.04 364.195 Q1761.19 361.672 1761.19 357.505 L1761.19 356.556 L1756.96 356.556 M1765.45 354.797 L1765.45 369.589 L1761.19 369.589 L1761.19 365.653 Q1759.73 368.015 1757.56 369.149 Q1755.38 370.26 1752.23 370.26 Q1748.25 370.26 1745.89 368.038 Q1743.55 365.792 1743.55 362.042 Q1743.55 357.667 1746.47 355.445 Q1749.41 353.223 1755.22 353.223 L1761.19 353.223 L1761.19 352.806 Q1761.19 349.867 1759.25 348.269 Q1757.33 346.649 1753.83 346.649 Q1751.61 346.649 1749.5 347.181 Q1747.4 347.714 1745.45 348.779 L1745.45 344.843 Q1747.79 343.941 1749.99 343.501 Q1752.19 343.038 1754.27 343.038 Q1759.9 343.038 1762.67 345.954 Q1765.45 348.871 1765.45 354.797 Z" fill="#000000" fill-rule="nonzero" fill-opacity="1" /><path clip-path="url(#clip470)" d="M1778.44 336.302 L1778.44 343.663 L1787.21 343.663 L1787.21 346.973 L1778.44 346.973 L1778.44 361.047 Q1778.44 364.218 1779.29 365.121 Q1780.17 366.024 1782.84 366.024 L1787.21 366.024 L1787.21 369.589 L1782.84 369.589 Q1777.91 369.589 1776.03 367.76 Q1774.16 365.908 1774.16 361.047 L1774.16 346.973 L1771.03 346.973 L1771.03 343.663 L1774.16 343.663 L1774.16 336.302 L1778.44 336.302 Z" fill="#000000" fill-rule="nonzero" fill-opacity="1" /><path clip-path="url(#clip470)" d="M1792.81 343.663 L1797.07 343.663 L1797.07 369.589 L1792.81 369.589 L1792.81 343.663 M1792.81 333.57 L1797.07 333.57 L1797.07 338.964 L1792.81 338.964 L1792.81 333.57 Z" fill="#000000" fill-rule="nonzero" fill-opacity="1" /><path clip-path="url(#clip470)" d="M1802.93 343.663 L1807.44 343.663 L1815.54 365.422 L1823.65 343.663 L1828.16 343.663 L1818.44 369.589 L1812.65 369.589 L1802.93 343.663 Z" fill="#000000" fill-rule="nonzero" fill-opacity="1" /><path clip-path="url(#clip470)" d="M1856.22 355.561 L1856.22 357.644 L1836.63 357.644 Q1836.91 362.042 1839.27 364.357 Q1841.65 366.649 1845.89 366.649 Q1848.34 366.649 1850.64 366.047 Q1852.95 365.445 1855.22 364.241 L1855.22 368.269 Q1852.93 369.241 1850.52 369.751 Q1848.11 370.26 1845.64 370.26 Q1839.43 370.26 1835.8 366.649 Q1832.19 363.038 1832.19 356.88 Q1832.19 350.515 1835.61 346.788 Q1839.06 343.038 1844.9 343.038 Q1850.13 343.038 1853.16 346.417 Q1856.22 349.774 1856.22 355.561 M1851.96 354.311 Q1851.91 350.816 1849.99 348.732 Q1848.09 346.649 1844.94 346.649 Q1841.38 346.649 1839.22 348.663 Q1837.09 350.677 1836.77 354.334 L1851.96 354.311 Z" fill="#000000" fill-rule="nonzero" fill-opacity="1" /><path clip-path="url(#clip470)" d="M1900.45 355.561 L1900.45 357.644 L1880.87 357.644 Q1881.15 362.042 1883.51 364.357 Q1885.89 366.649 1890.13 366.649 Q1892.58 366.649 1894.87 366.047 Q1897.19 365.445 1899.46 364.241 L1899.46 368.269 Q1897.16 369.241 1894.76 369.751 Q1892.35 370.26 1889.87 370.26 Q1883.67 370.26 1880.03 366.649 Q1876.42 363.038 1876.42 356.88 Q1876.42 350.515 1879.85 346.788 Q1883.3 343.038 1889.13 343.038 Q1894.36 343.038 1897.4 346.417 Q1900.45 349.774 1900.45 355.561 M1896.19 354.311 Q1896.15 350.816 1894.22 348.732 Q1892.33 346.649 1889.18 346.649 Q1885.61 346.649 1883.46 348.663 Q1881.33 350.677 1881.01 354.334 L1896.19 354.311 Z" fill="#000000" fill-rule="nonzero" fill-opacity="1" /><path clip-path="url(#clip470)" d="M1924.5 347.598 L1924.5 333.57 L1928.76 333.57 L1928.76 369.589 L1924.5 369.589 L1924.5 365.7 Q1923.16 368.015 1921.1 369.149 Q1919.06 370.26 1916.19 370.26 Q1911.49 370.26 1908.53 366.51 Q1905.59 362.76 1905.59 356.649 Q1905.59 350.538 1908.53 346.788 Q1911.49 343.038 1916.19 343.038 Q1919.06 343.038 1921.1 344.172 Q1923.16 345.283 1924.5 347.598 M1909.99 356.649 Q1909.99 361.348 1911.91 364.033 Q1913.85 366.695 1917.23 366.695 Q1920.61 366.695 1922.56 364.033 Q1924.5 361.348 1924.5 356.649 Q1924.5 351.95 1922.56 349.288 Q1920.61 346.603 1917.23 346.603 Q1913.85 346.603 1911.91 349.288 Q1909.99 351.95 1909.99 356.649 Z" fill="#000000" fill-rule="nonzero" fill-opacity="1" /><path clip-path="url(#clip470)" d="M1954.59 356.325 Q1954.59 351.695 1952.67 349.149 Q1950.77 346.603 1947.33 346.603 Q1943.9 346.603 1941.98 349.149 Q1940.08 351.695 1940.08 356.325 Q1940.08 360.931 1941.98 363.478 Q1943.9 366.024 1947.33 366.024 Q1950.77 366.024 1952.67 363.478 Q1954.59 360.931 1954.59 356.325 M1958.85 366.371 Q1958.85 372.991 1955.91 376.209 Q1952.97 379.45 1946.91 379.45 Q1944.66 379.45 1942.67 379.102 Q1940.68 378.778 1938.81 378.084 L1938.81 373.94 Q1940.68 374.959 1942.51 375.445 Q1944.34 375.931 1946.24 375.931 Q1950.43 375.931 1952.51 373.732 Q1954.59 371.556 1954.59 367.135 L1954.59 365.028 Q1953.27 367.32 1951.21 368.454 Q1949.15 369.589 1946.28 369.589 Q1941.52 369.589 1938.6 365.954 Q1935.68 362.32 1935.68 356.325 Q1935.68 350.306 1938.6 346.672 Q1941.52 343.038 1946.28 343.038 Q1949.15 343.038 1951.21 344.172 Q1953.27 345.306 1954.59 347.598 L1954.59 343.663 L1958.85 343.663 L1958.85 366.371 Z" fill="#000000" fill-rule="nonzero" fill-opacity="1" /><path clip-path="url(#clip470)" d="M1989.8 355.561 L1989.8 357.644 L1970.22 357.644 Q1970.5 362.042 1972.86 364.357 Q1975.24 366.649 1979.48 366.649 Q1981.93 366.649 1984.22 366.047 Q1986.54 365.445 1988.81 364.241 L1988.81 368.269 Q1986.52 369.241 1984.11 369.751 Q1981.7 370.26 1979.22 370.26 Q1973.02 370.26 1969.39 366.649 Q1965.77 363.038 1965.77 356.88 Q1965.77 350.515 1969.2 346.788 Q1972.65 343.038 1978.48 343.038 Q1983.71 343.038 1986.75 346.417 Q1989.8 349.774 1989.8 355.561 M1985.54 354.311 Q1985.5 350.816 1983.58 348.732 Q1981.68 346.649 1978.53 346.649 Q1974.96 346.649 1972.81 348.663 Q1970.68 350.677 1970.36 354.334 L1985.54 354.311 Z" fill="#000000" fill-rule="nonzero" fill-opacity="1" /><path clip-path="url(#clip470)" d="M1994.64 354.704 L2007.12 354.704 L2007.12 358.501 L1994.64 358.501 L1994.64 354.704 Z" fill="#000000" fill-rule="nonzero" fill-opacity="1" /><path clip-path="url(#clip470)" d="M2018.02 365.7 L2018.02 379.45 L2013.74 379.45 L2013.74 343.663 L2018.02 343.663 L2018.02 347.598 Q2019.36 345.283 2021.4 344.172 Q2023.46 343.038 2026.31 343.038 Q2031.03 343.038 2033.97 346.788 Q2036.93 350.538 2036.93 356.649 Q2036.93 362.76 2033.97 366.51 Q2031.03 370.26 2026.31 370.26 Q2023.46 370.26 2021.4 369.149 Q2019.36 368.015 2018.02 365.7 M2032.51 356.649 Q2032.51 351.95 2030.57 349.288 Q2028.64 346.603 2025.27 346.603 Q2021.89 346.603 2019.94 349.288 Q2018.02 351.95 2018.02 356.649 Q2018.02 361.348 2019.94 364.033 Q2021.89 366.695 2025.27 366.695 Q2028.64 366.695 2030.57 364.033 Q2032.51 361.348 2032.51 356.649 Z" fill="#000000" fill-rule="nonzero" fill-opacity="1" /><path clip-path="url(#clip470)" d="M2059.01 347.644 Q2058.3 347.228 2057.44 347.042 Q2056.61 346.834 2055.59 346.834 Q2051.98 346.834 2050.03 349.195 Q2048.11 351.533 2048.11 355.931 L2048.11 369.589 L2043.83 369.589 L2043.83 343.663 L2048.11 343.663 L2048.11 347.691 Q2049.45 345.329 2051.61 344.195 Q2053.76 343.038 2056.84 343.038 Q2057.28 343.038 2057.81 343.107 Q2058.34 343.154 2058.99 343.269 L2059.01 347.644 Z" fill="#000000" fill-rule="nonzero" fill-opacity="1" /><path clip-path="url(#clip470)" d="M2084.62 355.561 L2084.62 357.644 L2065.03 357.644 Q2065.31 362.042 2067.67 364.357 Q2070.06 366.649 2074.29 366.649 Q2076.75 366.649 2079.04 366.047 Q2081.35 365.445 2083.62 364.241 L2083.62 368.269 Q2081.33 369.241 2078.92 369.751 Q2076.51 370.26 2074.04 370.26 Q2067.83 370.26 2064.2 366.649 Q2060.59 363.038 2060.59 356.88 Q2060.59 350.515 2064.01 346.788 Q2067.46 343.038 2073.3 343.038 Q2078.53 343.038 2081.56 346.417 Q2084.62 349.774 2084.62 355.561 M2080.36 354.311 Q2080.31 350.816 2078.39 348.732 Q2076.49 346.649 2073.34 346.649 Q2069.78 346.649 2067.63 348.663 Q2065.5 350.677 2065.17 354.334 L2080.36 354.311 Z" fill="#000000" fill-rule="nonzero" fill-opacity="1" /><path clip-path="url(#clip470)" d="M2108.13 344.427 L2108.13 348.454 Q2106.33 347.529 2104.38 347.066 Q2102.44 346.603 2100.36 346.603 Q2097.19 346.603 2095.59 347.575 Q2094.01 348.547 2094.01 350.491 Q2094.01 351.973 2095.15 352.829 Q2096.28 353.663 2099.71 354.427 L2101.17 354.751 Q2105.7 355.723 2107.6 357.505 Q2109.52 359.265 2109.52 362.436 Q2109.52 366.047 2106.65 368.153 Q2103.81 370.26 2098.81 370.26 Q2096.72 370.26 2094.45 369.843 Q2092.21 369.45 2089.71 368.64 L2089.71 364.241 Q2092.07 365.468 2094.36 366.093 Q2096.65 366.695 2098.9 366.695 Q2101.91 366.695 2103.53 365.677 Q2105.15 364.635 2105.15 362.76 Q2105.15 361.024 2103.97 360.098 Q2102.81 359.172 2098.85 358.316 L2097.37 357.968 Q2093.41 357.135 2091.65 355.422 Q2089.89 353.686 2089.89 350.677 Q2089.89 347.019 2092.49 345.029 Q2095.08 343.038 2099.85 343.038 Q2102.21 343.038 2104.29 343.385 Q2106.38 343.732 2108.13 344.427 Z" fill="#000000" fill-rule="nonzero" fill-opacity="1" /><path clip-path="url(#clip470)" d="M2138.48 355.561 L2138.48 357.644 L2118.9 357.644 Q2119.18 362.042 2121.54 364.357 Q2123.92 366.649 2128.16 366.649 Q2130.61 366.649 2132.9 366.047 Q2135.22 365.445 2137.49 364.241 L2137.49 368.269 Q2135.2 369.241 2132.79 369.751 Q2130.38 370.26 2127.9 370.26 Q2121.7 370.26 2118.07 366.649 Q2114.45 363.038 2114.45 356.88 Q2114.45 350.515 2117.88 346.788 Q2121.33 343.038 2127.16 343.038 Q2132.39 343.038 2135.43 346.417 Q2138.48 349.774 2138.48 355.561 M2134.22 354.311 Q2134.18 350.816 2132.26 348.732 Q2130.36 346.649 2127.21 346.649 Q2123.64 346.649 2121.49 348.663 Q2119.36 350.677 2119.04 354.334 L2134.22 354.311 Z" fill="#000000" fill-rule="nonzero" fill-opacity="1" /><path clip-path="url(#clip470)" d="M2160.5 347.644 Q2159.78 347.228 2158.92 347.042 Q2158.09 346.834 2157.07 346.834 Q2153.46 346.834 2151.51 349.195 Q2149.59 351.533 2149.59 355.931 L2149.59 369.589 L2145.31 369.589 L2145.31 343.663 L2149.59 343.663 L2149.59 347.691 Q2150.94 345.329 2153.09 344.195 Q2155.24 343.038 2158.32 343.038 Q2158.76 343.038 2159.29 343.107 Q2159.82 343.154 2160.47 343.269 L2160.5 347.644 Z" fill="#000000" fill-rule="nonzero" fill-opacity="1" /><path clip-path="url(#clip470)" d="M2161.91 343.663 L2166.42 343.663 L2174.52 365.422 L2182.63 343.663 L2187.14 343.663 L2177.42 369.589 L2171.63 369.589 L2161.91 343.663 Z" fill="#000000" fill-rule="nonzero" fill-opacity="1" /><path clip-path="url(#clip470)" d="M2193.02 343.663 L2197.28 343.663 L2197.28 369.589 L2193.02 369.589 L2193.02 343.663 M2193.02 333.57 L2197.28 333.57 L2197.28 338.964 L2193.02 338.964 L2193.02 333.57 Z" fill="#000000" fill-rule="nonzero" fill-opacity="1" /><path clip-path="url(#clip470)" d="M2227.74 353.941 L2227.74 369.589 L2223.48 369.589 L2223.48 354.079 Q2223.48 350.399 2222.05 348.57 Q2220.61 346.742 2217.74 346.742 Q2214.29 346.742 2212.3 348.941 Q2210.31 351.14 2210.31 354.936 L2210.31 369.589 L2206.03 369.589 L2206.03 343.663 L2210.31 343.663 L2210.31 347.691 Q2211.84 345.353 2213.9 344.195 Q2215.98 343.038 2218.69 343.038 Q2223.16 343.038 2225.45 345.816 Q2227.74 348.57 2227.74 353.941 Z" fill="#000000" fill-rule="nonzero" fill-opacity="1" /><path clip-path="url(#clip470)" d="M2253.3 356.325 Q2253.3 351.695 2251.37 349.149 Q2249.48 346.603 2246.03 346.603 Q2242.6 346.603 2240.68 349.149 Q2238.78 351.695 2238.78 356.325 Q2238.78 360.931 2240.68 363.478 Q2242.6 366.024 2246.03 366.024 Q2249.48 366.024 2251.37 363.478 Q2253.3 360.931 2253.3 356.325 M2257.56 366.371 Q2257.56 372.991 2254.62 376.209 Q2251.68 379.45 2245.61 379.45 Q2243.37 379.45 2241.37 379.102 Q2239.38 378.778 2237.51 378.084 L2237.51 373.94 Q2239.38 374.959 2241.21 375.445 Q2243.04 375.931 2244.94 375.931 Q2249.13 375.931 2251.21 373.732 Q2253.3 371.556 2253.3 367.135 L2253.3 365.028 Q2251.98 367.32 2249.92 368.454 Q2247.86 369.589 2244.99 369.589 Q2240.22 369.589 2237.3 365.954 Q2234.38 362.32 2234.38 356.325 Q2234.38 350.306 2237.3 346.672 Q2240.22 343.038 2244.99 343.038 Q2247.86 343.038 2249.92 344.172 Q2251.98 345.306 2253.3 347.598 L2253.3 343.663 L2257.56 343.663 L2257.56 366.371 Z" fill="#000000" fill-rule="nonzero" fill-opacity="1" /></svg>
