<?xml version="1.0" encoding="utf-8"?>
<svg xmlns="http://www.w3.org/2000/svg" xmlns:xlink="http://www.w3.org/1999/xlink" width="600" height="400" viewBox="0 0 2400 1600">
<defs>
  <clipPath id="clip540">
    <rect x="0" y="0" width="2400" height="1600"/>
  </clipPath>
</defs>
<path clip-path="url(#clip540)" d="M0 1600 L2400 1600 L2400 0 L0 0  Z" fill="#ffffff" fill-rule="evenodd" fill-opacity="1"/>
<defs>
  <clipPath id="clip541">
    <rect x="232" y="47" width="2121" height="1377"/>
  </clipPath>
</defs>
<path clip-path="url(#clip540)" d="M232.389 1423.18 L2352.76 1423.18 L2352.76 47.2441 L232.389 47.2441  Z" fill="#ffffff" fill-rule="evenodd" fill-opacity="1"/>
<polyline clip-path="url(#clip541)" style="stroke:#000000; stroke-linecap:round; stroke-linejoin:round; stroke-width:2; stroke-opacity:0.1; fill:none" points="292.4,1423.18 292.4,47.2441 "/>
<polyline clip-path="url(#clip541)" style="stroke:#000000; stroke-linecap:round; stroke-linejoin:round; stroke-width:2; stroke-opacity:0.1; fill:none" points="692.469,1423.18 692.469,47.2441 "/>
<polyline clip-path="url(#clip541)" style="stroke:#000000; stroke-linecap:round; stroke-linejoin:round; stroke-width:2; stroke-opacity:0.1; fill:none" points="1092.54,1423.18 1092.54,47.2441 "/>
<polyline clip-path="url(#clip541)" style="stroke:#000000; stroke-linecap:round; stroke-linejoin:round; stroke-width:2; stroke-opacity:0.1; fill:none" points="1492.61,1423.18 1492.61,47.2441 "/>
<polyline clip-path="url(#clip541)" style="stroke:#000000; stroke-linecap:round; stroke-linejoin:round; stroke-width:2; stroke-opacity:0.1; fill:none" points="1892.68,1423.18 1892.68,47.2441 "/>
<polyline clip-path="url(#clip541)" style="stroke:#000000; stroke-linecap:round; stroke-linejoin:round; stroke-width:2; stroke-opacity:0.1; fill:none" points="232.389,1384.24 2352.76,1384.24 "/>
<polyline clip-path="url(#clip541)" style="stroke:#000000; stroke-linecap:round; stroke-linejoin:round; stroke-width:2; stroke-opacity:0.1; fill:none" points="232.389,1059.73 2352.76,1059.73 "/>
<polyline clip-path="url(#clip541)" style="stroke:#000000; stroke-linecap:round; stroke-linejoin:round; stroke-width:2; stroke-opacity:0.1; fill:none" points="232.389,735.212 2352.76,735.212 "/>
<polyline clip-path="url(#clip541)" style="stroke:#000000; stroke-linecap:round; stroke-linejoin:round; stroke-width:2; stroke-opacity:0.1; fill:none" points="232.389,410.699 2352.76,410.699 "/>
<polyline clip-path="url(#clip541)" style="stroke:#000000; stroke-linecap:round; stroke-linejoin:round; stroke-width:2; stroke-opacity:0.1; fill:none" points="232.389,86.1857 2352.76,86.1857 "/>
<polyline clip-path="url(#clip540)" style="stroke:#000000; stroke-linecap:round; stroke-linejoin:round; stroke-width:4; stroke-opacity:1; fill:none" points="232.389,1423.18 2352.76,1423.18 "/>
<polyline clip-path="url(#clip540)" style="stroke:#000000; stroke-linecap:round; stroke-linejoin:round; stroke-width:4; stroke-opacity:1; fill:none" points="292.4,1423.18 292.4,1404.28 "/>
<polyline clip-path="url(#clip540)" style="stroke:#000000; stroke-linecap:round; stroke-linejoin:round; stroke-width:4; stroke-opacity:1; fill:none" points="692.469,1423.18 692.469,1404.28 "/>
<polyline clip-path="url(#clip540)" style="stroke:#000000; stroke-linecap:round; stroke-linejoin:round; stroke-width:4; stroke-opacity:1; fill:none" points="1092.54,1423.18 1092.54,1404.28 "/>
<polyline clip-path="url(#clip540)" style="stroke:#000000; stroke-linecap:round; stroke-linejoin:round; stroke-width:4; stroke-opacity:1; fill:none" points="1492.61,1423.18 1492.61,1404.28 "/>
<polyline clip-path="url(#clip540)" style="stroke:#000000; stroke-linecap:round; stroke-linejoin:round; stroke-width:4; stroke-opacity:1; fill:none" points="1892.68,1423.18 1892.68,1404.28 "/>
<path clip-path="url(#clip540)" d="M292.4 1454.1 Q288.789 1454.1 286.96 1457.66 Q285.154 1461.2 285.154 1468.33 Q285.154 1475.44 286.96 1479.01 Q288.789 1482.55 292.4 1482.55 Q296.034 1482.55 297.84 1479.01 Q299.668 1475.44 299.668 1468.33 Q299.668 1461.2 297.84 1457.66 Q296.034 1454.1 292.4 1454.1 M292.4 1450.39 Q298.21 1450.39 301.265 1455 Q304.344 1459.58 304.344 1468.33 Q304.344 1477.06 301.265 1481.67 Q298.21 1486.25 292.4 1486.25 Q286.59 1486.25 283.511 1481.67 Q280.455 1477.06 280.455 1468.33 Q280.455 1459.58 283.511 1455 Q286.59 1450.39 292.4 1450.39 Z" fill="#000000" fill-rule="nonzero" fill-opacity="1" /><path clip-path="url(#clip540)" d="M680.64 1455.09 L668.835 1473.54 L680.64 1473.54 L680.64 1455.09 M679.413 1451.02 L685.293 1451.02 L685.293 1473.54 L690.224 1473.54 L690.224 1477.43 L685.293 1477.43 L685.293 1485.58 L680.64 1485.58 L680.64 1477.43 L665.038 1477.43 L665.038 1472.92 L679.413 1451.02 Z" fill="#000000" fill-rule="nonzero" fill-opacity="1" /><path clip-path="url(#clip540)" d="M707.955 1454.1 Q704.344 1454.1 702.515 1457.66 Q700.71 1461.2 700.71 1468.33 Q700.71 1475.44 702.515 1479.01 Q704.344 1482.55 707.955 1482.55 Q711.589 1482.55 713.395 1479.01 Q715.223 1475.44 715.223 1468.33 Q715.223 1461.2 713.395 1457.66 Q711.589 1454.1 707.955 1454.1 M707.955 1450.39 Q713.765 1450.39 716.821 1455 Q719.899 1459.58 719.899 1468.33 Q719.899 1477.06 716.821 1481.67 Q713.765 1486.25 707.955 1486.25 Q702.145 1486.25 699.066 1481.67 Q696.011 1477.06 696.011 1468.33 Q696.011 1459.58 699.066 1455 Q702.145 1450.39 707.955 1450.39 Z" fill="#000000" fill-rule="nonzero" fill-opacity="1" /><path clip-path="url(#clip540)" d="M1077.41 1469.17 Q1074.08 1469.17 1072.16 1470.95 Q1070.26 1472.73 1070.26 1475.86 Q1070.26 1478.98 1072.16 1480.77 Q1074.08 1482.55 1077.41 1482.55 Q1080.74 1482.55 1082.67 1480.77 Q1084.59 1478.96 1084.59 1475.86 Q1084.59 1472.73 1082.67 1470.95 Q1080.77 1469.17 1077.41 1469.17 M1072.73 1467.18 Q1069.73 1466.44 1068.04 1464.38 Q1066.37 1462.32 1066.37 1459.35 Q1066.37 1455.21 1069.31 1452.8 Q1072.27 1450.39 1077.41 1450.39 Q1082.57 1450.39 1085.51 1452.8 Q1088.45 1455.21 1088.45 1459.35 Q1088.45 1462.32 1086.76 1464.38 Q1085.1 1466.44 1082.11 1467.18 Q1085.49 1467.96 1087.36 1470.26 Q1089.26 1472.55 1089.26 1475.86 Q1089.26 1480.88 1086.18 1483.57 Q1083.13 1486.25 1077.41 1486.25 Q1071.69 1486.25 1068.61 1483.57 Q1065.56 1480.88 1065.56 1475.86 Q1065.56 1472.55 1067.46 1470.26 Q1069.36 1467.96 1072.73 1467.18 M1071.02 1459.79 Q1071.02 1462.48 1072.69 1463.98 Q1074.38 1465.49 1077.41 1465.49 Q1080.42 1465.49 1082.11 1463.98 Q1083.82 1462.48 1083.82 1459.79 Q1083.82 1457.11 1082.11 1455.6 Q1080.42 1454.1 1077.41 1454.1 Q1074.38 1454.1 1072.69 1455.6 Q1071.02 1457.11 1071.02 1459.79 Z" fill="#000000" fill-rule="nonzero" fill-opacity="1" /><path clip-path="url(#clip540)" d="M1107.57 1454.1 Q1103.96 1454.1 1102.13 1457.66 Q1100.33 1461.2 1100.33 1468.33 Q1100.33 1475.44 1102.13 1479.01 Q1103.96 1482.55 1107.57 1482.55 Q1111.21 1482.55 1113.01 1479.01 Q1114.84 1475.44 1114.84 1468.33 Q1114.84 1461.2 1113.01 1457.66 Q1111.21 1454.1 1107.57 1454.1 M1107.57 1450.39 Q1113.38 1450.39 1116.44 1455 Q1119.52 1459.58 1119.52 1468.33 Q1119.52 1477.06 1116.44 1481.67 Q1113.38 1486.25 1107.57 1486.25 Q1101.76 1486.25 1098.68 1481.67 Q1095.63 1477.06 1095.63 1468.33 Q1095.63 1459.58 1098.68 1455 Q1101.76 1450.39 1107.57 1450.39 Z" fill="#000000" fill-rule="nonzero" fill-opacity="1" /><path clip-path="url(#clip540)" d="M1452.21 1481.64 L1459.85 1481.64 L1459.85 1455.28 L1451.54 1456.95 L1451.54 1452.69 L1459.81 1451.02 L1464.48 1451.02 L1464.48 1481.64 L1472.12 1481.64 L1472.12 1485.58 L1452.21 1485.58 L1452.21 1481.64 Z" fill="#000000" fill-rule="nonzero" fill-opacity="1" /><path clip-path="url(#clip540)" d="M1485.59 1481.64 L1501.91 1481.64 L1501.91 1485.58 L1479.97 1485.58 L1479.97 1481.64 Q1482.63 1478.89 1487.21 1474.26 Q1491.82 1469.61 1493 1468.27 Q1495.25 1465.74 1496.13 1464.01 Q1497.03 1462.25 1497.03 1460.56 Q1497.03 1457.8 1495.08 1456.07 Q1493.16 1454.33 1490.06 1454.33 Q1487.86 1454.33 1485.41 1455.09 Q1482.98 1455.86 1480.2 1457.41 L1480.2 1452.69 Q1483.02 1451.55 1485.48 1450.97 Q1487.93 1450.39 1489.97 1450.39 Q1495.34 1450.39 1498.53 1453.08 Q1501.73 1455.77 1501.73 1460.26 Q1501.73 1462.39 1500.92 1464.31 Q1500.13 1466.2 1498.02 1468.8 Q1497.45 1469.47 1494.34 1472.69 Q1491.24 1475.88 1485.59 1481.64 Z" fill="#000000" fill-rule="nonzero" fill-opacity="1" /><path clip-path="url(#clip540)" d="M1521.73 1454.1 Q1518.12 1454.1 1516.29 1457.66 Q1514.48 1461.2 1514.48 1468.33 Q1514.48 1475.44 1516.29 1479.01 Q1518.12 1482.55 1521.73 1482.55 Q1525.36 1482.55 1527.17 1479.01 Q1529 1475.44 1529 1468.33 Q1529 1461.2 1527.17 1457.66 Q1525.36 1454.1 1521.73 1454.1 M1521.73 1450.39 Q1527.54 1450.39 1530.59 1455 Q1533.67 1459.58 1533.67 1468.33 Q1533.67 1477.06 1530.59 1481.67 Q1527.54 1486.25 1521.73 1486.25 Q1515.92 1486.25 1512.84 1481.67 Q1509.78 1477.06 1509.78 1468.33 Q1509.78 1459.58 1512.84 1455 Q1515.92 1450.39 1521.73 1450.39 Z" fill="#000000" fill-rule="nonzero" fill-opacity="1" /><path clip-path="url(#clip540)" d="M1852.28 1481.64 L1859.92 1481.64 L1859.92 1455.28 L1851.61 1456.95 L1851.61 1452.69 L1859.88 1451.02 L1864.55 1451.02 L1864.55 1481.64 L1872.19 1481.64 L1872.19 1485.58 L1852.28 1485.58 L1852.28 1481.64 Z" fill="#000000" fill-rule="nonzero" fill-opacity="1" /><path clip-path="url(#clip540)" d="M1892.21 1466.44 Q1889.07 1466.44 1887.21 1468.59 Q1885.38 1470.74 1885.38 1474.49 Q1885.38 1478.22 1887.21 1480.39 Q1889.07 1482.55 1892.21 1482.55 Q1895.36 1482.55 1897.19 1480.39 Q1899.04 1478.22 1899.04 1474.49 Q1899.04 1470.74 1897.19 1468.59 Q1895.36 1466.44 1892.21 1466.44 M1901.5 1451.78 L1901.5 1456.04 Q1899.74 1455.21 1897.93 1454.77 Q1896.15 1454.33 1894.39 1454.33 Q1889.76 1454.33 1887.31 1457.45 Q1884.88 1460.58 1884.53 1466.9 Q1885.89 1464.89 1887.95 1463.82 Q1890.01 1462.73 1892.49 1462.73 Q1897.7 1462.73 1900.71 1465.9 Q1903.74 1469.05 1903.74 1474.49 Q1903.74 1479.82 1900.59 1483.03 Q1897.44 1486.25 1892.21 1486.25 Q1886.22 1486.25 1883.05 1481.67 Q1879.88 1477.06 1879.88 1468.33 Q1879.88 1460.14 1883.76 1455.28 Q1887.65 1450.39 1894.2 1450.39 Q1895.96 1450.39 1897.75 1450.74 Q1899.55 1451.09 1901.5 1451.78 Z" fill="#000000" fill-rule="nonzero" fill-opacity="1" /><path clip-path="url(#clip540)" d="M1921.8 1454.1 Q1918.19 1454.1 1916.36 1457.66 Q1914.55 1461.2 1914.55 1468.33 Q1914.55 1475.44 1916.36 1479.01 Q1918.19 1482.55 1921.8 1482.55 Q1925.43 1482.55 1927.24 1479.01 Q1929.07 1475.44 1929.07 1468.33 Q1929.07 1461.2 1927.24 1457.66 Q1925.43 1454.1 1921.8 1454.1 M1921.8 1450.39 Q1927.61 1450.39 1930.66 1455 Q1933.74 1459.58 1933.74 1468.33 Q1933.74 1477.06 1930.66 1481.67 Q1927.61 1486.25 1921.8 1486.25 Q1915.99 1486.25 1912.91 1481.67 Q1909.85 1477.06 1909.85 1468.33 Q1909.85 1459.58 1912.91 1455 Q1915.99 1450.39 1921.8 1450.39 Z" fill="#000000" fill-rule="nonzero" fill-opacity="1" /><path clip-path="url(#clip540)" d="M1209.13 1522.27 L1209.13 1532.4 L1221.2 1532.4 L1221.2 1536.95 L1209.13 1536.95 L1209.13 1556.3 Q1209.13 1560.66 1210.31 1561.9 Q1211.52 1563.14 1215.18 1563.14 L1221.2 1563.14 L1221.2 1568.04 L1215.18 1568.04 Q1208.4 1568.04 1205.82 1565.53 Q1203.25 1562.98 1203.25 1556.3 L1203.25 1536.95 L1198.95 1536.95 L1198.95 1532.4 L1203.25 1532.4 L1203.25 1522.27 L1209.13 1522.27 Z" fill="#000000" fill-rule="nonzero" fill-opacity="1" /><path clip-path="url(#clip540)" d="M1249.08 1518.52 L1262.57 1518.52 L1262.57 1523.07 L1254.94 1523.07 L1254.94 1572.09 L1262.57 1572.09 L1262.57 1576.64 L1249.08 1576.64 L1249.08 1518.52 Z" fill="#000000" fill-rule="nonzero" fill-opacity="1" /><path clip-path="url(#clip540)" d="M1302.81 1539.24 Q1305 1535.29 1308.06 1533.41 Q1311.11 1531.54 1315.25 1531.54 Q1320.82 1531.54 1323.84 1535.45 Q1326.87 1539.33 1326.87 1546.53 L1326.87 1568.04 L1320.98 1568.04 L1320.98 1546.72 Q1320.98 1541.59 1319.17 1539.11 Q1317.35 1536.63 1313.63 1536.63 Q1309.08 1536.63 1306.43 1539.65 Q1303.79 1542.68 1303.79 1547.9 L1303.79 1568.04 L1297.9 1568.04 L1297.9 1546.72 Q1297.9 1541.56 1296.09 1539.11 Q1294.28 1536.63 1290.49 1536.63 Q1286 1536.63 1283.36 1539.68 Q1280.72 1542.71 1280.72 1547.9 L1280.72 1568.04 L1274.83 1568.04 L1274.83 1532.4 L1280.72 1532.4 L1280.72 1537.93 Q1282.72 1534.66 1285.52 1533.1 Q1288.32 1531.54 1292.17 1531.54 Q1296.06 1531.54 1298.76 1533.51 Q1301.5 1535.48 1302.81 1539.24 Z" fill="#000000" fill-rule="nonzero" fill-opacity="1" /><path clip-path="url(#clip540)" d="M1361.27 1533.45 L1361.27 1538.98 Q1358.79 1537.71 1356.12 1537.07 Q1353.44 1536.44 1350.58 1536.44 Q1346.22 1536.44 1344.02 1537.77 Q1341.86 1539.11 1341.86 1541.79 Q1341.86 1543.82 1343.42 1545 Q1344.98 1546.15 1349.69 1547.2 L1351.69 1547.64 Q1357.93 1548.98 1360.54 1551.43 Q1363.18 1553.85 1363.18 1558.21 Q1363.18 1563.17 1359.24 1566.07 Q1355.32 1568.97 1348.45 1568.97 Q1345.58 1568.97 1342.46 1568.39 Q1339.38 1567.85 1335.94 1566.74 L1335.94 1560.69 Q1339.19 1562.38 1342.34 1563.24 Q1345.49 1564.07 1348.57 1564.07 Q1352.71 1564.07 1354.94 1562.66 Q1357.17 1561.23 1357.17 1558.65 Q1357.17 1556.27 1355.55 1554.99 Q1353.95 1553.72 1348.51 1552.54 L1346.47 1552.07 Q1341.03 1550.92 1338.61 1548.56 Q1336.19 1546.18 1336.19 1542.04 Q1336.19 1537.01 1339.76 1534.27 Q1343.32 1531.54 1349.88 1531.54 Q1353.13 1531.54 1355.99 1532.01 Q1358.86 1532.49 1361.27 1533.45 Z" fill="#000000" fill-rule="nonzero" fill-opacity="1" /><path clip-path="url(#clip540)" d="M1386.2 1518.52 L1386.2 1576.64 L1372.7 1576.64 L1372.7 1572.09 L1380.31 1572.09 L1380.31 1523.07 L1372.7 1523.07 L1372.7 1518.52 L1386.2 1518.52 Z" fill="#000000" fill-rule="nonzero" fill-opacity="1" /><polyline clip-path="url(#clip540)" style="stroke:#000000; stroke-linecap:round; stroke-linejoin:round; stroke-width:4; stroke-opacity:1; fill:none" points="232.389,1423.18 232.389,47.2441 "/>
<polyline clip-path="url(#clip540)" style="stroke:#000000; stroke-linecap:round; stroke-linejoin:round; stroke-width:4; stroke-opacity:1; fill:none" points="232.389,1384.24 251.287,1384.24 "/>
<polyline clip-path="url(#clip540)" style="stroke:#000000; stroke-linecap:round; stroke-linejoin:round; stroke-width:4; stroke-opacity:1; fill:none" points="232.389,1059.73 251.287,1059.73 "/>
<polyline clip-path="url(#clip540)" style="stroke:#000000; stroke-linecap:round; stroke-linejoin:round; stroke-width:4; stroke-opacity:1; fill:none" points="232.389,735.212 251.287,735.212 "/>
<polyline clip-path="url(#clip540)" style="stroke:#000000; stroke-linecap:round; stroke-linejoin:round; stroke-width:4; stroke-opacity:1; fill:none" points="232.389,410.699 251.287,410.699 "/>
<polyline clip-path="url(#clip540)" style="stroke:#000000; stroke-linecap:round; stroke-linejoin:round; stroke-width:4; stroke-opacity:1; fill:none" points="232.389,86.1857 251.287,86.1857 "/>
<path clip-path="url(#clip540)" d="M184.445 1370.04 Q180.834 1370.04 179.005 1373.6 Q177.2 1377.14 177.2 1384.27 Q177.2 1391.38 179.005 1394.94 Q180.834 1398.49 184.445 1398.49 Q188.079 1398.49 189.885 1394.94 Q191.713 1391.38 191.713 1384.27 Q191.713 1377.14 189.885 1373.6 Q188.079 1370.04 184.445 1370.04 M184.445 1366.33 Q190.255 1366.33 193.311 1370.94 Q196.389 1375.52 196.389 1384.27 Q196.389 1393 193.311 1397.61 Q190.255 1402.19 184.445 1402.19 Q178.635 1402.19 175.556 1397.61 Q172.501 1393 172.501 1384.27 Q172.501 1375.52 175.556 1370.94 Q178.635 1366.33 184.445 1366.33 Z" fill="#000000" fill-rule="nonzero" fill-opacity="1" /><path clip-path="url(#clip540)" d="M149.306 1073.07 L165.626 1073.07 L165.626 1077.01 L143.681 1077.01 L143.681 1073.07 Q146.343 1070.32 150.927 1065.69 Q155.533 1061.03 156.714 1059.69 Q158.959 1057.17 159.839 1055.43 Q160.741 1053.67 160.741 1051.98 Q160.741 1049.23 158.797 1047.49 Q156.876 1045.76 153.774 1045.76 Q151.575 1045.76 149.121 1046.52 Q146.691 1047.28 143.913 1048.83 L143.913 1044.11 Q146.737 1042.98 149.191 1042.4 Q151.644 1041.82 153.681 1041.82 Q159.052 1041.82 162.246 1044.51 Q165.44 1047.19 165.44 1051.68 Q165.44 1053.81 164.63 1055.73 Q163.843 1057.63 161.737 1060.22 Q161.158 1060.89 158.056 1064.11 Q154.954 1067.31 149.306 1073.07 Z" fill="#000000" fill-rule="nonzero" fill-opacity="1" /><path clip-path="url(#clip540)" d="M175.487 1042.45 L193.843 1042.45 L193.843 1046.38 L179.769 1046.38 L179.769 1054.85 Q180.788 1054.51 181.806 1054.34 Q182.825 1054.16 183.843 1054.16 Q189.63 1054.16 193.01 1057.33 Q196.389 1060.5 196.389 1065.92 Q196.389 1071.5 192.917 1074.6 Q189.445 1077.68 183.126 1077.68 Q180.95 1077.68 178.681 1077.31 Q176.436 1076.94 174.028 1076.19 L174.028 1071.5 Q176.112 1072.63 178.334 1073.19 Q180.556 1073.74 183.033 1073.74 Q187.038 1073.74 189.375 1071.63 Q191.713 1069.53 191.713 1065.92 Q191.713 1062.31 189.375 1060.2 Q187.038 1058.09 183.033 1058.09 Q181.158 1058.09 179.283 1058.51 Q177.431 1058.93 175.487 1059.81 L175.487 1042.45 Z" fill="#000000" fill-rule="nonzero" fill-opacity="1" /><path clip-path="url(#clip540)" d="M144.329 717.932 L162.686 717.932 L162.686 721.867 L148.612 721.867 L148.612 730.339 Q149.63 729.992 150.649 729.83 Q151.667 729.645 152.686 729.645 Q158.473 729.645 161.852 732.816 Q165.232 735.987 165.232 741.404 Q165.232 746.983 161.76 750.085 Q158.288 753.163 151.968 753.163 Q149.792 753.163 147.524 752.793 Q145.279 752.423 142.871 751.682 L142.871 746.983 Q144.954 748.117 147.177 748.673 Q149.399 749.228 151.876 749.228 Q155.88 749.228 158.218 747.122 Q160.556 745.015 160.556 741.404 Q160.556 737.793 158.218 735.687 Q155.88 733.58 151.876 733.58 Q150.001 733.58 148.126 733.997 Q146.274 734.413 144.329 735.293 L144.329 717.932 Z" fill="#000000" fill-rule="nonzero" fill-opacity="1" /><path clip-path="url(#clip540)" d="M184.445 721.011 Q180.834 721.011 179.005 724.575 Q177.2 728.117 177.2 735.247 Q177.2 742.353 179.005 745.918 Q180.834 749.46 184.445 749.46 Q188.079 749.46 189.885 745.918 Q191.713 742.353 191.713 735.247 Q191.713 728.117 189.885 724.575 Q188.079 721.011 184.445 721.011 M184.445 717.307 Q190.255 717.307 193.311 721.913 Q196.389 726.497 196.389 735.247 Q196.389 743.973 193.311 748.58 Q190.255 753.163 184.445 753.163 Q178.635 753.163 175.556 748.58 Q172.501 743.973 172.501 735.247 Q172.501 726.497 175.556 721.913 Q178.635 717.307 184.445 717.307 Z" fill="#000000" fill-rule="nonzero" fill-opacity="1" /><path clip-path="url(#clip540)" d="M144.098 393.419 L166.32 393.419 L166.32 395.41 L153.774 427.979 L148.89 427.979 L160.695 397.354 L144.098 397.354 L144.098 393.419 Z" fill="#000000" fill-rule="nonzero" fill-opacity="1" /><path clip-path="url(#clip540)" d="M175.487 393.419 L193.843 393.419 L193.843 397.354 L179.769 397.354 L179.769 405.826 Q180.788 405.479 181.806 405.317 Q182.825 405.132 183.843 405.132 Q189.63 405.132 193.01 408.303 Q196.389 411.474 196.389 416.891 Q196.389 422.47 192.917 425.571 Q189.445 428.65 183.126 428.65 Q180.95 428.65 178.681 428.28 Q176.436 427.909 174.028 427.169 L174.028 422.47 Q176.112 423.604 178.334 424.159 Q180.556 424.715 183.033 424.715 Q187.038 424.715 189.375 422.608 Q191.713 420.502 191.713 416.891 Q191.713 413.28 189.375 411.173 Q187.038 409.067 183.033 409.067 Q181.158 409.067 179.283 409.484 Q177.431 409.9 175.487 410.78 L175.487 393.419 Z" fill="#000000" fill-rule="nonzero" fill-opacity="1" /><path clip-path="url(#clip540)" d="M114.931 99.5305 L122.57 99.5305 L122.57 73.1649 L114.26 74.8316 L114.26 70.5723 L122.524 68.9057 L127.2 68.9057 L127.2 99.5305 L134.839 99.5305 L134.839 103.466 L114.931 103.466 L114.931 99.5305 Z" fill="#000000" fill-rule="nonzero" fill-opacity="1" /><path clip-path="url(#clip540)" d="M154.283 71.9844 Q150.672 71.9844 148.843 75.5492 Q147.038 79.0908 147.038 86.2204 Q147.038 93.3268 148.843 96.8916 Q150.672 100.433 154.283 100.433 Q157.917 100.433 159.723 96.8916 Q161.552 93.3268 161.552 86.2204 Q161.552 79.0908 159.723 75.5492 Q157.917 71.9844 154.283 71.9844 M154.283 68.2807 Q160.093 68.2807 163.149 72.8871 Q166.227 77.4704 166.227 86.2204 Q166.227 94.9472 163.149 99.5537 Q160.093 104.137 154.283 104.137 Q148.473 104.137 145.394 99.5537 Q142.339 94.9472 142.339 86.2204 Q142.339 77.4704 145.394 72.8871 Q148.473 68.2807 154.283 68.2807 Z" fill="#000000" fill-rule="nonzero" fill-opacity="1" /><path clip-path="url(#clip540)" d="M184.445 71.9844 Q180.834 71.9844 179.005 75.5492 Q177.2 79.0908 177.2 86.2204 Q177.2 93.3268 179.005 96.8916 Q180.834 100.433 184.445 100.433 Q188.079 100.433 189.885 96.8916 Q191.713 93.3268 191.713 86.2204 Q191.713 79.0908 189.885 75.5492 Q188.079 71.9844 184.445 71.9844 M184.445 68.2807 Q190.255 68.2807 193.311 72.8871 Q196.389 77.4704 196.389 86.2204 Q196.389 94.9472 193.311 99.5537 Q190.255 104.137 184.445 104.137 Q178.635 104.137 175.556 99.5537 Q172.501 94.9472 172.501 86.2204 Q172.501 77.4704 175.556 72.8871 Q178.635 68.2807 184.445 68.2807 Z" fill="#000000" fill-rule="nonzero" fill-opacity="1" /><path clip-path="url(#clip540)" d="M67.3143 733.525 Q73.68 736.008 75.6216 738.363 Q77.5631 740.718 77.5631 744.665 L77.5631 749.344 L72.6615 749.344 L72.6615 745.906 Q72.6615 743.487 71.5157 742.151 Q70.3699 740.814 66.1048 739.191 L63.4312 738.14 L28.3562 752.559 L28.3562 746.352 L56.238 735.212 L28.3562 724.072 L28.3562 717.865 L67.3143 733.525 Z" fill="#000000" fill-rule="nonzero" fill-opacity="1" /><polyline clip-path="url(#clip541)" style="stroke:#000000; stroke-linecap:round; stroke-linejoin:round; stroke-width:8; stroke-opacity:1; fill:none" points="292.4,86.1857 301.401,162.481 310.403,232.842 319.404,297.767 328.406,357.715 337.408,413.101 346.409,464.308 355.411,511.686 364.412,555.553 373.414,596.202 382.415,633.899 391.417,668.889 400.418,701.396 409.42,731.623 418.422,759.758 427.423,785.971 436.425,810.419 445.426,833.246 454.428,854.582 463.429,874.547 472.431,893.25 481.432,910.793 490.434,927.266 499.436,942.755 508.437,957.336 517.439,971.08 526.44,984.051 535.442,996.309 544.443,1007.91 553.445,1018.9 562.446,1029.32 571.448,1039.22 580.45,1048.64 589.451,1057.61 598.453,1066.17 607.454,1074.33 616.456,1082.14 625.457,1089.61 634.459,1096.76 643.46,1103.63 652.462,1110.23 661.464,1116.57 670.465,1122.67 679.467,1128.55 688.468,1134.22 697.47,1139.69 706.471,1144.98 715.473,1150.09 724.474,1155.04 733.476,1159.84 742.478,1164.49 751.479,1169 760.481,1173.38 769.482,1177.63 778.484,1181.77 787.485,1185.79 796.487,1189.71 805.488,1193.52 814.49,1197.24 823.492,1200.86 832.493,1204.4 841.495,1207.84 850.496,1211.21 859.498,1214.5 868.499,1217.71 877.501,1220.85 886.502,1223.91 895.504,1226.91 904.506,1229.85 913.507,1232.72 922.509,1235.53 931.51,1238.28 940.512,1240.97 949.513,1243.61 958.515,1246.19 967.516,1248.72 976.518,1251.2 985.52,1253.63 994.521,1256.01 1003.52,1258.35 1012.52,1260.64 1021.53,1262.88 1030.53,1265.08 1039.53,1267.24 1048.53,1269.36 1057.53,1271.44 1066.53,1273.48 1075.54,1275.47 1084.54,1277.44 1093.54,1279.36 1102.54,1281.25 1111.54,1283.1 1120.54,1284.92 1129.54,1286.71 1138.55,1288.46 1147.55,1290.18 1156.55,1291.87 1165.55,1293.52 1174.55,1295.15 1183.55,1296.75 1192.56,1298.32 1201.56,1299.85 1210.56,1301.37 1219.56,1302.85 1228.56,1304.31 1237.56,1305.74 1246.56,1307.14 1255.57,1308.52 1264.57,1309.88 1273.57,1311.2 1282.57,1312.51 1291.57,1313.79 1300.57,1315.05 1309.58,1316.29 1318.58,1317.5 1327.58,1318.7 1336.58,1319.87 1345.58,1321.02 1354.58,1322.15 1363.58,1323.25 1372.59,1324.34 1381.59,1325.41 1390.59,1326.46 1399.59,1327.49 1408.59,1328.51 1417.59,1329.5 1426.6,1330.48 1435.6,1331.44 1444.6,1332.38 1453.6,1333.31 1462.6,1334.22 1471.6,1335.11 1480.61,1335.99 1489.61,1336.85 1498.61,1337.69 1507.61,1338.52 1516.61,1339.34 1525.61,1340.14 1534.61,1340.93 1543.62,1341.7 1552.62,1342.46 1561.62,1343.2 1570.62,1343.94 1579.62,1344.66 1588.62,1345.36 1597.63,1346.06 1606.63,1346.74 1615.63,1347.41 1624.63,1348.06 1633.63,1348.71 1642.63,1349.34 1651.63,1349.97 1660.64,1350.58 1669.64,1351.18 1678.64,1351.77 1687.64,1352.35 1696.64,1352.92 1705.64,1353.47 1714.65,1354.02 1723.65,1354.56 1732.65,1355.09 1741.65,1355.61 1750.65,1356.12 1759.65,1356.62 1768.65,1357.12 1777.66,1357.6 1786.66,1358.08 1795.66,1358.54 1804.66,1359 1813.66,1359.45 1822.66,1359.89 1831.67,1360.33 1840.67,1360.75 1849.67,1361.17 1858.67,1361.58 1867.67,1361.99 1876.67,1362.39 1885.68,1362.78 1894.68,1363.16 1903.68,1363.53 1912.68,1363.9 1921.68,1364.27 1930.68,1364.62 1939.68,1364.97 1948.69,1365.32 1957.69,1365.65 1966.69,1365.99 1975.69,1366.31 1984.69,1366.63 1993.69,1366.94 2002.7,1367.25 2011.7,1367.56 2020.7,1367.85 2029.7,1368.15 2038.7,1368.43 2047.7,1368.72 2056.7,1368.99 2065.71,1369.26 2074.71,1369.53 2083.71,1369.79 2092.71,1370.05 "/>
<circle clip-path="url(#clip541)" cx="342.408" cy="442.042" r="14.4" fill="#e26f46" fill-rule="evenodd" fill-opacity="1" stroke="none"/>
<circle clip-path="url(#clip541)" cx="442.426" cy="825.809" r="14.4" fill="#e26f46" fill-rule="evenodd" fill-opacity="1" stroke="none"/>
<circle clip-path="url(#clip541)" cx="542.443" cy="1005.38" r="14.4" fill="#e26f46" fill-rule="evenodd" fill-opacity="1" stroke="none"/>
<circle clip-path="url(#clip541)" cx="642.46" cy="1102.88" r="14.4" fill="#e26f46" fill-rule="evenodd" fill-opacity="1" stroke="none"/>
<circle clip-path="url(#clip541)" cx="742.478" cy="1164.49" r="14.4" fill="#e26f46" fill-rule="evenodd" fill-opacity="1" stroke="none"/>
<circle clip-path="url(#clip541)" cx="842.495" cy="1208.22" r="14.4" fill="#e26f46" fill-rule="evenodd" fill-opacity="1" stroke="none"/>
<circle clip-path="url(#clip541)" cx="942.512" cy="1241.56" r="14.4" fill="#e26f46" fill-rule="evenodd" fill-opacity="1" stroke="none"/>
<circle clip-path="url(#clip541)" cx="1042.53" cy="1267.95" r="14.4" fill="#e26f46" fill-rule="evenodd" fill-opacity="1" stroke="none"/>
<circle clip-path="url(#clip541)" cx="1142.55" cy="1289.23" r="14.4" fill="#e26f46" fill-rule="evenodd" fill-opacity="1" stroke="none"/>
<circle clip-path="url(#clip541)" cx="1242.56" cy="1306.52" r="14.4" fill="#e26f46" fill-rule="evenodd" fill-opacity="1" stroke="none"/>
<circle clip-path="url(#clip541)" cx="1342.58" cy="1320.63" r="14.4" fill="#e26f46" fill-rule="evenodd" fill-opacity="1" stroke="none"/>
<circle clip-path="url(#clip541)" cx="1442.6" cy="1332.17" r="14.4" fill="#e26f46" fill-rule="evenodd" fill-opacity="1" stroke="none"/>
<circle clip-path="url(#clip541)" cx="1542.62" cy="1341.62" r="14.4" fill="#e26f46" fill-rule="evenodd" fill-opacity="1" stroke="none"/>
<circle clip-path="url(#clip541)" cx="1642.63" cy="1349.34" r="14.4" fill="#e26f46" fill-rule="evenodd" fill-opacity="1" stroke="none"/>
<circle clip-path="url(#clip541)" cx="1742.65" cy="1355.67" r="14.4" fill="#e26f46" fill-rule="evenodd" fill-opacity="1" stroke="none"/>
<circle clip-path="url(#clip541)" cx="1842.67" cy="1360.85" r="14.4" fill="#e26f46" fill-rule="evenodd" fill-opacity="1" stroke="none"/>
<circle clip-path="url(#clip541)" cx="1942.69" cy="1365.09" r="14.4" fill="#e26f46" fill-rule="evenodd" fill-opacity="1" stroke="none"/>
<circle clip-path="url(#clip541)" cx="2042.7" cy="1368.56" r="14.4" fill="#e26f46" fill-rule="evenodd" fill-opacity="1" stroke="none"/>
<path clip-path="url(#clip540)" d="M1348.7 196.789 L2282.08 196.789 L2282.08 93.1086 L1348.7 93.1086  Z" fill="#ffffff" fill-rule="evenodd" fill-opacity="1"/>
<polyline clip-path="url(#clip540)" style="stroke:#000000; stroke-linecap:round; stroke-linejoin:round; stroke-width:4; stroke-opacity:1; fill:none" points="1348.7,196.789 2282.08,196.789 2282.08,93.1086 1348.7,93.1086 1348.7,196.789 "/>
<circle clip-path="url(#clip540)" cx="1442.94" cy="144.949" r="20.48" fill="#e26f46" fill-rule="evenodd" fill-opacity="1" stroke="none"/>
<path clip-path="url(#clip540)" d="M1537.18 127.669 L1543.47 127.669 L1558.8 156.581 L1558.8 127.669 L1563.34 127.669 L1563.34 162.229 L1557.04 162.229 L1541.72 133.317 L1541.72 162.229 L1537.18 162.229 L1537.18 127.669 Z" fill="#000000" fill-rule="nonzero" fill-opacity="1" /><path clip-path="url(#clip540)" d="M1582.5 139.289 Q1579.08 139.289 1577.09 141.974 Q1575.1 144.636 1575.1 149.289 Q1575.1 153.942 1577.06 156.627 Q1579.05 159.289 1582.5 159.289 Q1585.91 159.289 1587.9 156.604 Q1589.89 153.918 1589.89 149.289 Q1589.89 144.682 1587.9 141.997 Q1585.91 139.289 1582.5 139.289 M1582.5 135.678 Q1588.06 135.678 1591.23 139.289 Q1594.4 142.9 1594.4 149.289 Q1594.4 155.655 1591.23 159.289 Q1588.06 162.9 1582.5 162.9 Q1576.92 162.9 1573.75 159.289 Q1570.6 155.655 1570.6 149.289 Q1570.6 142.9 1573.75 139.289 Q1576.92 135.678 1582.5 135.678 Z" fill="#000000" fill-rule="nonzero" fill-opacity="1" /><path clip-path="url(#clip540)" d="M1601.46 136.303 L1605.72 136.303 L1605.72 162.229 L1601.46 162.229 L1601.46 136.303 M1601.46 126.21 L1605.72 126.21 L1605.72 131.604 L1601.46 131.604 L1601.46 126.21 Z" fill="#000000" fill-rule="nonzero" fill-opacity="1" /><path clip-path="url(#clip540)" d="M1631.16 137.067 L1631.16 141.094 Q1629.35 140.169 1627.41 139.706 Q1625.47 139.243 1623.38 139.243 Q1620.21 139.243 1618.61 140.215 Q1617.04 141.187 1617.04 143.131 Q1617.04 144.613 1618.17 145.469 Q1619.31 146.303 1622.73 147.067 L1624.19 147.391 Q1628.73 148.363 1630.63 150.145 Q1632.55 151.905 1632.55 155.076 Q1632.55 158.687 1629.68 160.793 Q1626.83 162.9 1621.83 162.9 Q1619.75 162.9 1617.48 162.483 Q1615.23 162.09 1612.73 161.28 L1612.73 156.881 Q1615.09 158.108 1617.39 158.733 Q1619.68 159.335 1621.92 159.335 Q1624.93 159.335 1626.55 158.317 Q1628.17 157.275 1628.17 155.4 Q1628.17 153.664 1626.99 152.738 Q1625.84 151.812 1621.88 150.956 L1620.4 150.608 Q1616.44 149.775 1614.68 148.062 Q1612.92 146.326 1612.92 143.317 Q1612.92 139.659 1615.51 137.669 Q1618.1 135.678 1622.87 135.678 Q1625.23 135.678 1627.32 136.025 Q1629.4 136.372 1631.16 137.067 Z" fill="#000000" fill-rule="nonzero" fill-opacity="1" /><path clip-path="url(#clip540)" d="M1661.51 148.201 L1661.51 150.284 L1641.92 150.284 Q1642.2 154.682 1644.56 156.997 Q1646.95 159.289 1651.18 159.289 Q1653.64 159.289 1655.93 158.687 Q1658.24 158.085 1660.51 156.881 L1660.51 160.909 Q1658.22 161.881 1655.81 162.391 Q1653.4 162.9 1650.93 162.9 Q1644.72 162.9 1641.09 159.289 Q1637.48 155.678 1637.48 149.52 Q1637.48 143.155 1640.9 139.428 Q1644.35 135.678 1650.19 135.678 Q1655.42 135.678 1658.45 139.057 Q1661.51 142.414 1661.51 148.201 M1657.25 146.951 Q1657.2 143.456 1655.28 141.372 Q1653.38 139.289 1650.23 139.289 Q1646.67 139.289 1644.52 141.303 Q1642.39 143.317 1642.06 146.974 L1657.25 146.951 Z" fill="#000000" fill-rule="nonzero" fill-opacity="1" /><path clip-path="url(#clip540)" d="M1668.5 126.21 L1672.76 126.21 L1672.76 162.229 L1668.5 162.229 L1668.5 126.21 Z" fill="#000000" fill-rule="nonzero" fill-opacity="1" /><path clip-path="url(#clip540)" d="M1703.84 148.201 L1703.84 150.284 L1684.26 150.284 Q1684.54 154.682 1686.9 156.997 Q1689.28 159.289 1693.52 159.289 Q1695.97 159.289 1698.27 158.687 Q1700.58 158.085 1702.85 156.881 L1702.85 160.909 Q1700.56 161.881 1698.15 162.391 Q1695.74 162.9 1693.27 162.9 Q1687.06 162.9 1683.43 159.289 Q1679.82 155.678 1679.82 149.52 Q1679.82 143.155 1683.24 139.428 Q1686.69 135.678 1692.53 135.678 Q1697.76 135.678 1700.79 139.057 Q1703.84 142.414 1703.84 148.201 M1699.59 146.951 Q1699.54 143.456 1697.62 141.372 Q1695.72 139.289 1692.57 139.289 Q1689.01 139.289 1686.85 141.303 Q1684.72 143.317 1684.4 146.974 L1699.59 146.951 Z" fill="#000000" fill-rule="nonzero" fill-opacity="1" /><path clip-path="url(#clip540)" d="M1727.36 137.067 L1727.36 141.094 Q1725.56 140.169 1723.61 139.706 Q1721.67 139.243 1719.59 139.243 Q1716.41 139.243 1714.82 140.215 Q1713.24 141.187 1713.24 143.131 Q1713.24 144.613 1714.38 145.469 Q1715.51 146.303 1718.94 147.067 L1720.4 147.391 Q1724.93 148.363 1726.83 150.145 Q1728.75 151.905 1728.75 155.076 Q1728.75 158.687 1725.88 160.793 Q1723.03 162.9 1718.03 162.9 Q1715.95 162.9 1713.68 162.483 Q1711.44 162.09 1708.94 161.28 L1708.94 156.881 Q1711.3 158.108 1713.59 158.733 Q1715.88 159.335 1718.13 159.335 Q1721.14 159.335 1722.76 158.317 Q1724.38 157.275 1724.38 155.4 Q1724.38 153.664 1723.2 152.738 Q1722.04 151.812 1718.08 150.956 L1716.6 150.608 Q1712.64 149.775 1710.88 148.062 Q1709.12 146.326 1709.12 143.317 Q1709.12 139.659 1711.71 137.669 Q1714.31 135.678 1719.08 135.678 Q1721.44 135.678 1723.52 136.025 Q1725.6 136.372 1727.36 137.067 Z" fill="#000000" fill-rule="nonzero" fill-opacity="1" /><path clip-path="url(#clip540)" d="M1752.06 137.067 L1752.06 141.094 Q1750.26 140.169 1748.31 139.706 Q1746.37 139.243 1744.28 139.243 Q1741.11 139.243 1739.52 140.215 Q1737.94 141.187 1737.94 143.131 Q1737.94 144.613 1739.08 145.469 Q1740.21 146.303 1743.64 147.067 L1745.09 147.391 Q1749.63 148.363 1751.53 150.145 Q1753.45 151.905 1753.45 155.076 Q1753.45 158.687 1750.58 160.793 Q1747.73 162.9 1742.73 162.9 Q1740.65 162.9 1738.38 162.483 Q1736.14 162.09 1733.64 161.28 L1733.64 156.881 Q1736 158.108 1738.29 158.733 Q1740.58 159.335 1742.83 159.335 Q1745.83 159.335 1747.46 158.317 Q1749.08 157.275 1749.08 155.4 Q1749.08 153.664 1747.9 152.738 Q1746.74 151.812 1742.78 150.956 L1741.3 150.608 Q1737.34 149.775 1735.58 148.062 Q1733.82 146.326 1733.82 143.317 Q1733.82 139.659 1736.41 137.669 Q1739.01 135.678 1743.77 135.678 Q1746.14 135.678 1748.22 136.025 Q1750.3 136.372 1752.06 137.067 Z" fill="#000000" fill-rule="nonzero" fill-opacity="1" /><path clip-path="url(#clip540)" d="M1792.36 140.238 L1792.36 126.21 L1796.62 126.21 L1796.62 162.229 L1792.36 162.229 L1792.36 158.34 Q1791.02 160.655 1788.96 161.789 Q1786.92 162.9 1784.05 162.9 Q1779.35 162.9 1776.39 159.15 Q1773.45 155.4 1773.45 149.289 Q1773.45 143.178 1776.39 139.428 Q1779.35 135.678 1784.05 135.678 Q1786.92 135.678 1788.96 136.812 Q1791.02 137.923 1792.36 140.238 M1777.85 149.289 Q1777.85 153.988 1779.77 156.673 Q1781.71 159.335 1785.09 159.335 Q1788.47 159.335 1790.42 156.673 Q1792.36 153.988 1792.36 149.289 Q1792.36 144.59 1790.42 141.928 Q1788.47 139.243 1785.09 139.243 Q1781.71 139.243 1779.77 141.928 Q1777.85 144.59 1777.85 149.289 Z" fill="#000000" fill-rule="nonzero" fill-opacity="1" /><path clip-path="url(#clip540)" d="M1817.18 149.196 Q1812.02 149.196 1810.02 150.377 Q1808.03 151.557 1808.03 154.405 Q1808.03 156.673 1809.52 158.016 Q1811.02 159.335 1813.59 159.335 Q1817.13 159.335 1819.26 156.835 Q1821.41 154.312 1821.41 150.145 L1821.41 149.196 L1817.18 149.196 M1825.67 147.437 L1825.67 162.229 L1821.41 162.229 L1821.41 158.293 Q1819.95 160.655 1817.78 161.789 Q1815.6 162.9 1812.45 162.9 Q1808.47 162.9 1806.11 160.678 Q1803.77 158.432 1803.77 154.682 Q1803.77 150.307 1806.69 148.085 Q1809.63 145.863 1815.44 145.863 L1821.41 145.863 L1821.41 145.446 Q1821.41 142.507 1819.47 140.909 Q1817.55 139.289 1814.05 139.289 Q1811.83 139.289 1809.72 139.821 Q1807.62 140.354 1805.67 141.419 L1805.67 137.483 Q1808.01 136.581 1810.21 136.141 Q1812.41 135.678 1814.49 135.678 Q1820.12 135.678 1822.89 138.594 Q1825.67 141.511 1825.67 147.437 Z" fill="#000000" fill-rule="nonzero" fill-opacity="1" /><path clip-path="url(#clip540)" d="M1838.66 128.942 L1838.66 136.303 L1847.43 136.303 L1847.43 139.613 L1838.66 139.613 L1838.66 153.687 Q1838.66 156.858 1839.52 157.761 Q1840.39 158.664 1843.06 158.664 L1847.43 158.664 L1847.43 162.229 L1843.06 162.229 Q1838.13 162.229 1836.25 160.4 Q1834.38 158.548 1834.38 153.687 L1834.38 139.613 L1831.25 139.613 L1831.25 136.303 L1834.38 136.303 L1834.38 128.942 L1838.66 128.942 Z" fill="#000000" fill-rule="nonzero" fill-opacity="1" /><path clip-path="url(#clip540)" d="M1864.82 149.196 Q1859.65 149.196 1857.66 150.377 Q1855.67 151.557 1855.67 154.405 Q1855.67 156.673 1857.15 158.016 Q1858.66 159.335 1861.23 159.335 Q1864.77 159.335 1866.9 156.835 Q1869.05 154.312 1869.05 150.145 L1869.05 149.196 L1864.82 149.196 M1873.31 147.437 L1873.31 162.229 L1869.05 162.229 L1869.05 158.293 Q1867.59 160.655 1865.42 161.789 Q1863.24 162.9 1860.09 162.9 Q1856.11 162.9 1853.75 160.678 Q1851.41 158.432 1851.41 154.682 Q1851.41 150.307 1854.33 148.085 Q1857.27 145.863 1863.08 145.863 L1869.05 145.863 L1869.05 145.446 Q1869.05 142.507 1867.11 140.909 Q1865.19 139.289 1861.69 139.289 Q1859.47 139.289 1857.36 139.821 Q1855.26 140.354 1853.31 141.419 L1853.31 137.483 Q1855.65 136.581 1857.85 136.141 Q1860.05 135.678 1862.13 135.678 Q1867.76 135.678 1870.53 138.594 Q1873.31 141.511 1873.31 147.437 Z" fill="#000000" fill-rule="nonzero" fill-opacity="1" /><path clip-path="url(#clip540)" d="M1883.17 156.349 L1888.06 156.349 L1888.06 160.33 L1884.26 167.738 L1881.27 167.738 L1883.17 160.33 L1883.17 156.349 Z" fill="#000000" fill-rule="nonzero" fill-opacity="1" /><path clip-path="url(#clip540)" d="M1912.41 127.669 L1919.38 127.669 L1928.2 151.187 L1937.06 127.669 L1944.03 127.669 L1944.03 162.229 L1939.47 162.229 L1939.47 131.882 L1930.56 155.585 L1925.86 155.585 L1916.95 131.882 L1916.95 162.229 L1912.41 162.229 L1912.41 127.669 Z" fill="#000000" fill-rule="nonzero" fill-opacity="1" /><path clip-path="url(#clip540)" d="M1953.68 140.701 L1983.36 140.701 L1983.36 144.59 L1953.68 144.59 L1953.68 140.701 M1953.68 150.145 L1983.36 150.145 L1983.36 154.081 L1953.68 154.081 L1953.68 150.145 Z" fill="#000000" fill-rule="nonzero" fill-opacity="1" /><path clip-path="url(#clip540)" d="M1994.26 158.293 L2001.9 158.293 L2001.9 131.928 L1993.59 133.595 L1993.59 129.335 L2001.85 127.669 L2006.53 127.669 L2006.53 158.293 L2014.17 158.293 L2014.17 162.229 L1994.26 162.229 L1994.26 158.293 Z" fill="#000000" fill-rule="nonzero" fill-opacity="1" /><path clip-path="url(#clip540)" d="M2033.61 145.817 Q2030.28 145.817 2028.36 147.599 Q2026.46 149.381 2026.46 152.506 Q2026.46 155.631 2028.36 157.414 Q2030.28 159.196 2033.61 159.196 Q2036.94 159.196 2038.87 157.414 Q2040.79 155.608 2040.79 152.506 Q2040.79 149.381 2038.87 147.599 Q2036.97 145.817 2033.61 145.817 M2028.94 143.826 Q2025.93 143.085 2024.24 141.025 Q2022.57 138.965 2022.57 136.002 Q2022.57 131.858 2025.51 129.451 Q2028.47 127.044 2033.61 127.044 Q2038.77 127.044 2041.71 129.451 Q2044.65 131.858 2044.65 136.002 Q2044.65 138.965 2042.96 141.025 Q2041.3 143.085 2038.31 143.826 Q2041.69 144.613 2043.56 146.905 Q2045.46 149.196 2045.46 152.506 Q2045.46 157.53 2042.38 160.215 Q2039.33 162.9 2033.61 162.9 Q2027.89 162.9 2024.81 160.215 Q2021.76 157.53 2021.76 152.506 Q2021.76 149.196 2023.66 146.905 Q2025.56 144.613 2028.94 143.826 M2027.22 136.442 Q2027.22 139.127 2028.89 140.632 Q2030.58 142.136 2033.61 142.136 Q2036.62 142.136 2038.31 140.632 Q2040.02 139.127 2040.02 136.442 Q2040.02 133.757 2038.31 132.252 Q2036.62 130.747 2033.61 130.747 Q2030.58 130.747 2028.89 132.252 Q2027.22 133.757 2027.22 136.442 Z" fill="#000000" fill-rule="nonzero" fill-opacity="1" /><path clip-path="url(#clip540)" d="M2084.77 137.067 L2084.77 141.094 Q2082.96 140.169 2081.02 139.706 Q2079.07 139.243 2076.99 139.243 Q2073.82 139.243 2072.22 140.215 Q2070.65 141.187 2070.65 143.131 Q2070.65 144.613 2071.78 145.469 Q2072.92 146.303 2076.34 147.067 L2077.8 147.391 Q2082.34 148.363 2084.24 150.145 Q2086.16 151.905 2086.16 155.076 Q2086.16 158.687 2083.29 160.793 Q2080.44 162.9 2075.44 162.9 Q2073.36 162.9 2071.09 162.483 Q2068.84 162.09 2066.34 161.28 L2066.34 156.881 Q2068.7 158.108 2071 158.733 Q2073.29 159.335 2075.53 159.335 Q2078.54 159.335 2080.16 158.317 Q2081.78 157.275 2081.78 155.4 Q2081.78 153.664 2080.6 152.738 Q2079.44 151.812 2075.49 150.956 L2074 150.608 Q2070.05 149.775 2068.29 148.062 Q2066.53 146.326 2066.53 143.317 Q2066.53 139.659 2069.12 137.669 Q2071.71 135.678 2076.48 135.678 Q2078.84 135.678 2080.93 136.025 Q2083.01 136.372 2084.77 137.067 Z" fill="#000000" fill-rule="nonzero" fill-opacity="1" /><path clip-path="url(#clip540)" d="M2104.72 149.196 Q2099.56 149.196 2097.57 150.377 Q2095.58 151.557 2095.58 154.405 Q2095.58 156.673 2097.06 158.016 Q2098.56 159.335 2101.13 159.335 Q2104.68 159.335 2106.81 156.835 Q2108.96 154.312 2108.96 150.145 L2108.96 149.196 L2104.72 149.196 M2113.22 147.437 L2113.22 162.229 L2108.96 162.229 L2108.96 158.293 Q2107.5 160.655 2105.32 161.789 Q2103.15 162.9 2100 162.9 Q2096.02 162.9 2093.66 160.678 Q2091.32 158.432 2091.32 154.682 Q2091.32 150.307 2094.24 148.085 Q2097.18 145.863 2102.99 145.863 L2108.96 145.863 L2108.96 145.446 Q2108.96 142.507 2107.01 140.909 Q2105.09 139.289 2101.6 139.289 Q2099.37 139.289 2097.27 139.821 Q2095.16 140.354 2093.22 141.419 L2093.22 137.483 Q2095.56 136.581 2097.75 136.141 Q2099.95 135.678 2102.04 135.678 Q2107.66 135.678 2110.44 138.594 Q2113.22 141.511 2113.22 147.437 Z" fill="#000000" fill-rule="nonzero" fill-opacity="1" /><path clip-path="url(#clip540)" d="M2142.18 141.28 Q2143.77 138.409 2145.99 137.044 Q2148.22 135.678 2151.23 135.678 Q2155.28 135.678 2157.48 138.525 Q2159.68 141.349 2159.68 146.581 L2159.68 162.229 L2155.39 162.229 L2155.39 146.719 Q2155.39 142.993 2154.07 141.187 Q2152.75 139.382 2150.05 139.382 Q2146.74 139.382 2144.81 141.581 Q2142.89 143.78 2142.89 147.576 L2142.89 162.229 L2138.61 162.229 L2138.61 146.719 Q2138.61 142.969 2137.29 141.187 Q2135.97 139.382 2133.22 139.382 Q2129.95 139.382 2128.03 141.604 Q2126.11 143.803 2126.11 147.576 L2126.11 162.229 L2121.83 162.229 L2121.83 136.303 L2126.11 136.303 L2126.11 140.331 Q2127.57 137.946 2129.61 136.812 Q2131.64 135.678 2134.44 135.678 Q2137.27 135.678 2139.24 137.113 Q2141.23 138.548 2142.18 141.28 Z" fill="#000000" fill-rule="nonzero" fill-opacity="1" /><path clip-path="url(#clip540)" d="M2172.29 158.34 L2172.29 172.09 L2168.01 172.09 L2168.01 136.303 L2172.29 136.303 L2172.29 140.238 Q2173.63 137.923 2175.67 136.812 Q2177.73 135.678 2180.58 135.678 Q2185.3 135.678 2188.24 139.428 Q2191.2 143.178 2191.2 149.289 Q2191.2 155.4 2188.24 159.15 Q2185.3 162.9 2180.58 162.9 Q2177.73 162.9 2175.67 161.789 Q2173.63 160.655 2172.29 158.34 M2186.78 149.289 Q2186.78 144.59 2184.84 141.928 Q2182.92 139.243 2179.54 139.243 Q2176.16 139.243 2174.21 141.928 Q2172.29 144.59 2172.29 149.289 Q2172.29 153.988 2174.21 156.673 Q2176.16 159.335 2179.54 159.335 Q2182.92 159.335 2184.84 156.673 Q2186.78 153.988 2186.78 149.289 Z" fill="#000000" fill-rule="nonzero" fill-opacity="1" /><path clip-path="url(#clip540)" d="M2198.26 126.21 L2202.52 126.21 L2202.52 162.229 L2198.26 162.229 L2198.26 126.21 Z" fill="#000000" fill-rule="nonzero" fill-opacity="1" /><path clip-path="url(#clip540)" d="M2233.61 148.201 L2233.61 150.284 L2214.03 150.284 Q2214.3 154.682 2216.67 156.997 Q2219.05 159.289 2223.29 159.289 Q2225.74 159.289 2228.03 158.687 Q2230.35 158.085 2232.61 156.881 L2232.61 160.909 Q2230.32 161.881 2227.92 162.391 Q2225.51 162.9 2223.03 162.9 Q2216.83 162.9 2213.19 159.289 Q2209.58 155.678 2209.58 149.52 Q2209.58 143.155 2213.01 139.428 Q2216.46 135.678 2222.29 135.678 Q2227.52 135.678 2230.55 139.057 Q2233.61 142.414 2233.61 148.201 M2229.35 146.951 Q2229.3 143.456 2227.38 141.372 Q2225.49 139.289 2222.34 139.289 Q2218.77 139.289 2216.62 141.303 Q2214.49 143.317 2214.17 146.974 L2229.35 146.951 Z" fill="#000000" fill-rule="nonzero" fill-opacity="1" /><path clip-path="url(#clip540)" d="M2257.13 137.067 L2257.13 141.094 Q2255.32 140.169 2253.38 139.706 Q2251.43 139.243 2249.35 139.243 Q2246.18 139.243 2244.58 140.215 Q2243.01 141.187 2243.01 143.131 Q2243.01 144.613 2244.14 145.469 Q2245.28 146.303 2248.7 147.067 L2250.16 147.391 Q2254.7 148.363 2256.6 150.145 Q2258.52 151.905 2258.52 155.076 Q2258.52 158.687 2255.65 160.793 Q2252.8 162.9 2247.8 162.9 Q2245.72 162.9 2243.45 162.483 Q2241.2 162.09 2238.7 161.28 L2238.7 156.881 Q2241.06 158.108 2243.36 158.733 Q2245.65 159.335 2247.89 159.335 Q2250.9 159.335 2252.52 158.317 Q2254.14 157.275 2254.14 155.4 Q2254.14 153.664 2252.96 152.738 Q2251.8 151.812 2247.85 150.956 L2246.36 150.608 Q2242.41 149.775 2240.65 148.062 Q2238.89 146.326 2238.89 143.317 Q2238.89 139.659 2241.48 137.669 Q2244.07 135.678 2248.84 135.678 Q2251.2 135.678 2253.29 136.025 Q2255.37 136.372 2257.13 137.067 Z" fill="#000000" fill-rule="nonzero" fill-opacity="1" /></svg>
