<?xml version="1.0" encoding="utf-8"?>
<svg xmlns="http://www.w3.org/2000/svg" xmlns:xlink="http://www.w3.org/1999/xlink" width="600" height="400" viewBox="0 0 2400 1600">
<defs>
  <clipPath id="clip780">
    <rect x="0" y="0" width="2400" height="1600"/>
  </clipPath>
</defs>
<path clip-path="url(#clip780)" d="M0 1600 L2400 1600 L2400 0 L0 0  Z" fill="#ffffff" fill-rule="evenodd" fill-opacity="1"/>
<defs>
  <clipPath id="clip781">
    <rect x="170" y="47" width="2183" height="1377"/>
  </clipPath>
</defs>
<path clip-path="url(#clip780)" d="M170.857 1423.18 L2352.76 1423.18 L2352.76 47.2441 L170.857 47.2441  Z" fill="#ffffff" fill-rule="evenodd" fill-opacity="1"/>
<polyline clip-path="url(#clip781)" style="stroke:#000000; stroke-linecap:round; stroke-linejoin:round; stroke-width:2; stroke-opacity:0.1; fill:none" points="404.142,1423.18 404.142,47.2441 "/>
<polyline clip-path="url(#clip781)" style="stroke:#000000; stroke-linecap:round; stroke-linejoin:round; stroke-width:2; stroke-opacity:0.1; fill:none" points="832.974,1423.18 832.974,47.2441 "/>
<polyline clip-path="url(#clip781)" style="stroke:#000000; stroke-linecap:round; stroke-linejoin:round; stroke-width:2; stroke-opacity:0.1; fill:none" points="1261.81,1423.18 1261.81,47.2441 "/>
<polyline clip-path="url(#clip781)" style="stroke:#000000; stroke-linecap:round; stroke-linejoin:round; stroke-width:2; stroke-opacity:0.1; fill:none" points="1690.64,1423.18 1690.64,47.2441 "/>
<polyline clip-path="url(#clip781)" style="stroke:#000000; stroke-linecap:round; stroke-linejoin:round; stroke-width:2; stroke-opacity:0.1; fill:none" points="2119.47,1423.18 2119.47,47.2441 "/>
<polyline clip-path="url(#clip781)" style="stroke:#000000; stroke-linecap:round; stroke-linejoin:round; stroke-width:2; stroke-opacity:0.1; fill:none" points="170.857,1423.18 2352.76,1423.18 "/>
<polyline clip-path="url(#clip781)" style="stroke:#000000; stroke-linecap:round; stroke-linejoin:round; stroke-width:2; stroke-opacity:0.1; fill:none" points="170.857,964.535 2352.76,964.535 "/>
<polyline clip-path="url(#clip781)" style="stroke:#000000; stroke-linecap:round; stroke-linejoin:round; stroke-width:2; stroke-opacity:0.1; fill:none" points="170.857,505.889 2352.76,505.889 "/>
<polyline clip-path="url(#clip781)" style="stroke:#000000; stroke-linecap:round; stroke-linejoin:round; stroke-width:2; stroke-opacity:0.1; fill:none" points="170.857,47.2441 2352.76,47.2441 "/>
<polyline clip-path="url(#clip780)" style="stroke:#000000; stroke-linecap:round; stroke-linejoin:round; stroke-width:4; stroke-opacity:1; fill:none" points="170.857,1423.18 2352.76,1423.18 "/>
<polyline clip-path="url(#clip780)" style="stroke:#000000; stroke-linecap:round; stroke-linejoin:round; stroke-width:4; stroke-opacity:1; fill:none" points="404.142,1423.18 404.142,1404.28 "/>
<polyline clip-path="url(#clip780)" style="stroke:#000000; stroke-linecap:round; stroke-linejoin:round; stroke-width:4; stroke-opacity:1; fill:none" points="832.974,1423.18 832.974,1404.28 "/>
<polyline clip-path="url(#clip780)" style="stroke:#000000; stroke-linecap:round; stroke-linejoin:round; stroke-width:4; stroke-opacity:1; fill:none" points="1261.81,1423.18 1261.81,1404.28 "/>
<polyline clip-path="url(#clip780)" style="stroke:#000000; stroke-linecap:round; stroke-linejoin:round; stroke-width:4; stroke-opacity:1; fill:none" points="1690.64,1423.18 1690.64,1404.28 "/>
<polyline clip-path="url(#clip780)" style="stroke:#000000; stroke-linecap:round; stroke-linejoin:round; stroke-width:4; stroke-opacity:1; fill:none" points="2119.47,1423.18 2119.47,1404.28 "/>
<path clip-path="url(#clip780)" d="M356.214 1481.64 L363.853 1481.64 L363.853 1455.28 L355.543 1456.95 L355.543 1452.69 L363.807 1451.02 L368.483 1451.02 L368.483 1481.64 L376.121 1481.64 L376.121 1485.58 L356.214 1485.58 L356.214 1481.64 Z" fill="#000000" fill-rule="nonzero" fill-opacity="1" /><path clip-path="url(#clip780)" d="M385.612 1451.02 L403.969 1451.02 L403.969 1454.96 L389.895 1454.96 L389.895 1463.43 Q390.913 1463.08 391.932 1462.92 Q392.95 1462.73 393.969 1462.73 Q399.756 1462.73 403.135 1465.9 Q406.515 1469.08 406.515 1474.49 Q406.515 1480.07 403.043 1483.17 Q399.57 1486.25 393.251 1486.25 Q391.075 1486.25 388.807 1485.88 Q386.561 1485.51 384.154 1484.77 L384.154 1480.07 Q386.237 1481.2 388.459 1481.76 Q390.682 1482.32 393.158 1482.32 Q397.163 1482.32 399.501 1480.21 Q401.839 1478.1 401.839 1474.49 Q401.839 1470.88 399.501 1468.77 Q397.163 1466.67 393.158 1466.67 Q391.283 1466.67 389.408 1467.08 Q387.557 1467.5 385.612 1468.38 L385.612 1451.02 Z" fill="#000000" fill-rule="nonzero" fill-opacity="1" /><path clip-path="url(#clip780)" d="M415.728 1479.7 L420.612 1479.7 L420.612 1485.58 L415.728 1485.58 L415.728 1479.7 Z" fill="#000000" fill-rule="nonzero" fill-opacity="1" /><path clip-path="url(#clip780)" d="M440.797 1454.1 Q437.186 1454.1 435.357 1457.66 Q433.552 1461.2 433.552 1468.33 Q433.552 1475.44 435.357 1479.01 Q437.186 1482.55 440.797 1482.55 Q444.431 1482.55 446.237 1479.01 Q448.066 1475.44 448.066 1468.33 Q448.066 1461.2 446.237 1457.66 Q444.431 1454.1 440.797 1454.1 M440.797 1450.39 Q446.607 1450.39 449.663 1455 Q452.741 1459.58 452.741 1468.33 Q452.741 1477.06 449.663 1481.67 Q446.607 1486.25 440.797 1486.25 Q434.987 1486.25 431.908 1481.67 Q428.853 1477.06 428.853 1468.33 Q428.853 1459.58 431.908 1455 Q434.987 1450.39 440.797 1450.39 Z" fill="#000000" fill-rule="nonzero" fill-opacity="1" /><path clip-path="url(#clip780)" d="M785.544 1481.64 L793.183 1481.64 L793.183 1455.28 L784.873 1456.95 L784.873 1452.69 L793.137 1451.02 L797.813 1451.02 L797.813 1481.64 L805.451 1481.64 L805.451 1485.58 L785.544 1485.58 L785.544 1481.64 Z" fill="#000000" fill-rule="nonzero" fill-opacity="1" /><path clip-path="url(#clip780)" d="M813.715 1451.02 L835.937 1451.02 L835.937 1453.01 L823.391 1485.58 L818.507 1485.58 L830.312 1454.96 L813.715 1454.96 L813.715 1451.02 Z" fill="#000000" fill-rule="nonzero" fill-opacity="1" /><path clip-path="url(#clip780)" d="M845.058 1479.7 L849.942 1479.7 L849.942 1485.58 L845.058 1485.58 L845.058 1479.7 Z" fill="#000000" fill-rule="nonzero" fill-opacity="1" /><path clip-path="url(#clip780)" d="M860.173 1451.02 L878.53 1451.02 L878.53 1454.96 L864.456 1454.96 L864.456 1463.43 Q865.474 1463.08 866.493 1462.92 Q867.511 1462.73 868.53 1462.73 Q874.317 1462.73 877.696 1465.9 Q881.076 1469.08 881.076 1474.49 Q881.076 1480.07 877.604 1483.17 Q874.132 1486.25 867.812 1486.25 Q865.636 1486.25 863.368 1485.88 Q861.122 1485.51 858.715 1484.77 L858.715 1480.07 Q860.798 1481.2 863.021 1481.76 Q865.243 1482.32 867.72 1482.32 Q871.724 1482.32 874.062 1480.21 Q876.4 1478.1 876.4 1474.49 Q876.4 1470.88 874.062 1468.77 Q871.724 1466.67 867.72 1466.67 Q865.845 1466.67 863.97 1467.08 Q862.118 1467.5 860.173 1468.38 L860.173 1451.02 Z" fill="#000000" fill-rule="nonzero" fill-opacity="1" /><path clip-path="url(#clip780)" d="M1217.96 1481.64 L1234.28 1481.64 L1234.28 1485.58 L1212.34 1485.58 L1212.34 1481.64 Q1215 1478.89 1219.58 1474.26 Q1224.19 1469.61 1225.37 1468.27 Q1227.62 1465.74 1228.5 1464.01 Q1229.4 1462.25 1229.4 1460.56 Q1229.4 1457.8 1227.45 1456.07 Q1225.53 1454.33 1222.43 1454.33 Q1220.23 1454.33 1217.78 1455.09 Q1215.35 1455.86 1212.57 1457.41 L1212.57 1452.69 Q1215.39 1451.55 1217.85 1450.97 Q1220.3 1450.39 1222.34 1450.39 Q1227.71 1450.39 1230.9 1453.08 Q1234.1 1455.77 1234.1 1460.26 Q1234.1 1462.39 1233.29 1464.31 Q1232.5 1466.2 1230.39 1468.8 Q1229.82 1469.47 1226.71 1472.69 Q1223.61 1475.88 1217.96 1481.64 Z" fill="#000000" fill-rule="nonzero" fill-opacity="1" /><path clip-path="url(#clip780)" d="M1254.1 1454.1 Q1250.49 1454.1 1248.66 1457.66 Q1246.85 1461.2 1246.85 1468.33 Q1246.85 1475.44 1248.66 1479.01 Q1250.49 1482.55 1254.1 1482.55 Q1257.73 1482.55 1259.54 1479.01 Q1261.37 1475.44 1261.37 1468.33 Q1261.37 1461.2 1259.54 1457.66 Q1257.73 1454.1 1254.1 1454.1 M1254.1 1450.39 Q1259.91 1450.39 1262.96 1455 Q1266.04 1459.58 1266.04 1468.33 Q1266.04 1477.06 1262.96 1481.67 Q1259.91 1486.25 1254.1 1486.25 Q1248.29 1486.25 1245.21 1481.67 Q1242.15 1477.06 1242.15 1468.33 Q1242.15 1459.58 1245.21 1455 Q1248.29 1450.39 1254.1 1450.39 Z" fill="#000000" fill-rule="nonzero" fill-opacity="1" /><path clip-path="url(#clip780)" d="M1274.26 1479.7 L1279.14 1479.7 L1279.14 1485.58 L1274.26 1485.58 L1274.26 1479.7 Z" fill="#000000" fill-rule="nonzero" fill-opacity="1" /><path clip-path="url(#clip780)" d="M1299.33 1454.1 Q1295.72 1454.1 1293.89 1457.66 Q1292.08 1461.2 1292.08 1468.33 Q1292.08 1475.44 1293.89 1479.01 Q1295.72 1482.55 1299.33 1482.55 Q1302.96 1482.55 1304.77 1479.01 Q1306.6 1475.44 1306.6 1468.33 Q1306.6 1461.2 1304.77 1457.66 Q1302.96 1454.1 1299.33 1454.1 M1299.33 1450.39 Q1305.14 1450.39 1308.2 1455 Q1311.27 1459.58 1311.27 1468.33 Q1311.27 1477.06 1308.2 1481.67 Q1305.14 1486.25 1299.33 1486.25 Q1293.52 1486.25 1290.44 1481.67 Q1287.39 1477.06 1287.39 1468.33 Q1287.39 1459.58 1290.44 1455 Q1293.52 1450.39 1299.33 1450.39 Z" fill="#000000" fill-rule="nonzero" fill-opacity="1" /><path clip-path="url(#clip780)" d="M1647.29 1481.64 L1663.61 1481.64 L1663.61 1485.58 L1641.67 1485.58 L1641.67 1481.64 Q1644.33 1478.89 1648.91 1474.26 Q1653.52 1469.61 1654.7 1468.27 Q1656.95 1465.74 1657.83 1464.01 Q1658.73 1462.25 1658.73 1460.56 Q1658.73 1457.8 1656.78 1456.07 Q1654.86 1454.33 1651.76 1454.33 Q1649.56 1454.33 1647.11 1455.09 Q1644.68 1455.86 1641.9 1457.41 L1641.9 1452.69 Q1644.72 1451.55 1647.18 1450.97 Q1649.63 1450.39 1651.67 1450.39 Q1657.04 1450.39 1660.23 1453.08 Q1663.43 1455.77 1663.43 1460.26 Q1663.43 1462.39 1662.62 1464.31 Q1661.83 1466.2 1659.72 1468.8 Q1659.15 1469.47 1656.04 1472.69 Q1652.94 1475.88 1647.29 1481.64 Z" fill="#000000" fill-rule="nonzero" fill-opacity="1" /><path clip-path="url(#clip780)" d="M1677.46 1481.64 L1693.78 1481.64 L1693.78 1485.58 L1671.83 1485.58 L1671.83 1481.64 Q1674.49 1478.89 1679.08 1474.26 Q1683.68 1469.61 1684.86 1468.27 Q1687.11 1465.74 1687.99 1464.01 Q1688.89 1462.25 1688.89 1460.56 Q1688.89 1457.8 1686.95 1456.07 Q1685.03 1454.33 1681.92 1454.33 Q1679.72 1454.33 1677.27 1455.09 Q1674.84 1455.86 1672.06 1457.41 L1672.06 1452.69 Q1674.89 1451.55 1677.34 1450.97 Q1679.79 1450.39 1681.83 1450.39 Q1687.2 1450.39 1690.4 1453.08 Q1693.59 1455.77 1693.59 1460.26 Q1693.59 1462.39 1692.78 1464.31 Q1691.99 1466.2 1689.89 1468.8 Q1689.31 1469.47 1686.21 1472.69 Q1683.1 1475.88 1677.46 1481.64 Z" fill="#000000" fill-rule="nonzero" fill-opacity="1" /><path clip-path="url(#clip780)" d="M1703.59 1479.7 L1708.47 1479.7 L1708.47 1485.58 L1703.59 1485.58 L1703.59 1479.7 Z" fill="#000000" fill-rule="nonzero" fill-opacity="1" /><path clip-path="url(#clip780)" d="M1718.71 1451.02 L1737.06 1451.02 L1737.06 1454.96 L1722.99 1454.96 L1722.99 1463.43 Q1724.01 1463.08 1725.03 1462.92 Q1726.04 1462.73 1727.06 1462.73 Q1732.85 1462.73 1736.23 1465.9 Q1739.61 1469.08 1739.61 1474.49 Q1739.61 1480.07 1736.14 1483.17 Q1732.66 1486.25 1726.34 1486.25 Q1724.17 1486.25 1721.9 1485.88 Q1719.65 1485.51 1717.25 1484.77 L1717.25 1480.07 Q1719.33 1481.2 1721.55 1481.76 Q1723.78 1482.32 1726.25 1482.32 Q1730.26 1482.32 1732.59 1480.21 Q1734.93 1478.1 1734.93 1474.49 Q1734.93 1470.88 1732.59 1468.77 Q1730.26 1466.67 1726.25 1466.67 Q1724.38 1466.67 1722.5 1467.08 Q1720.65 1467.5 1718.71 1468.38 L1718.71 1451.02 Z" fill="#000000" fill-rule="nonzero" fill-opacity="1" /><path clip-path="url(#clip780)" d="M2075.63 1481.64 L2091.95 1481.64 L2091.95 1485.58 L2070 1485.58 L2070 1481.64 Q2072.67 1478.89 2077.25 1474.26 Q2081.86 1469.61 2083.04 1468.27 Q2085.28 1465.74 2086.16 1464.01 Q2087.06 1462.25 2087.06 1460.56 Q2087.06 1457.8 2085.12 1456.07 Q2083.2 1454.33 2080.1 1454.33 Q2077.9 1454.33 2075.44 1455.09 Q2073.01 1455.86 2070.24 1457.41 L2070.24 1452.69 Q2073.06 1451.55 2075.51 1450.97 Q2077.97 1450.39 2080 1450.39 Q2085.37 1450.39 2088.57 1453.08 Q2091.76 1455.77 2091.76 1460.26 Q2091.76 1462.39 2090.95 1464.31 Q2090.17 1466.2 2088.06 1468.8 Q2087.48 1469.47 2084.38 1472.69 Q2081.28 1475.88 2075.63 1481.64 Z" fill="#000000" fill-rule="nonzero" fill-opacity="1" /><path clip-path="url(#clip780)" d="M2101.81 1451.02 L2120.17 1451.02 L2120.17 1454.96 L2106.09 1454.96 L2106.09 1463.43 Q2107.11 1463.08 2108.13 1462.92 Q2109.15 1462.73 2110.17 1462.73 Q2115.95 1462.73 2119.33 1465.9 Q2122.71 1469.08 2122.71 1474.49 Q2122.71 1480.07 2119.24 1483.17 Q2115.77 1486.25 2109.45 1486.25 Q2107.27 1486.25 2105 1485.88 Q2102.76 1485.51 2100.35 1484.77 L2100.35 1480.07 Q2102.43 1481.2 2104.66 1481.76 Q2106.88 1482.32 2109.36 1482.32 Q2113.36 1482.32 2115.7 1480.21 Q2118.04 1478.1 2118.04 1474.49 Q2118.04 1470.88 2115.7 1468.77 Q2113.36 1466.67 2109.36 1466.67 Q2107.48 1466.67 2105.61 1467.08 Q2103.75 1467.5 2101.81 1468.38 L2101.81 1451.02 Z" fill="#000000" fill-rule="nonzero" fill-opacity="1" /><path clip-path="url(#clip780)" d="M2131.92 1479.7 L2136.81 1479.7 L2136.81 1485.58 L2131.92 1485.58 L2131.92 1479.7 Z" fill="#000000" fill-rule="nonzero" fill-opacity="1" /><path clip-path="url(#clip780)" d="M2156.99 1454.1 Q2153.38 1454.1 2151.55 1457.66 Q2149.75 1461.2 2149.75 1468.33 Q2149.75 1475.44 2151.55 1479.01 Q2153.38 1482.55 2156.99 1482.55 Q2160.63 1482.55 2162.43 1479.01 Q2164.26 1475.44 2164.26 1468.33 Q2164.26 1461.2 2162.43 1457.66 Q2160.63 1454.1 2156.99 1454.1 M2156.99 1450.39 Q2162.8 1450.39 2165.86 1455 Q2168.94 1459.58 2168.94 1468.33 Q2168.94 1477.06 2165.86 1481.67 Q2162.8 1486.25 2156.99 1486.25 Q2151.18 1486.25 2148.11 1481.67 Q2145.05 1477.06 2145.05 1468.33 Q2145.05 1459.58 2148.11 1455 Q2151.18 1450.39 2156.99 1450.39 Z" fill="#000000" fill-rule="nonzero" fill-opacity="1" /><path clip-path="url(#clip780)" d="M697.757 1545.76 Q699.826 1546.46 701.768 1548.76 Q703.741 1551.05 705.714 1555.06 L712.239 1568.04 L705.333 1568.04 L699.253 1555.85 Q696.898 1551.08 694.67 1549.52 Q692.474 1547.96 688.654 1547.96 L681.652 1547.96 L681.652 1568.04 L675.223 1568.04 L675.223 1520.52 L689.737 1520.52 Q697.885 1520.52 701.895 1523.93 Q705.905 1527.34 705.905 1534.21 Q705.905 1538.7 703.805 1541.66 Q701.736 1544.62 697.757 1545.76 M681.652 1525.81 L681.652 1542.68 L689.737 1542.68 Q694.383 1542.68 696.739 1540.54 Q699.126 1538.38 699.126 1534.21 Q699.126 1530.04 696.739 1527.94 Q694.383 1525.81 689.737 1525.81 L681.652 1525.81 Z" fill="#000000" fill-rule="nonzero" fill-opacity="1" /><path clip-path="url(#clip780)" d="M745.85 1550.25 Q745.85 1543.79 743.177 1540.13 Q740.535 1536.44 735.888 1536.44 Q731.241 1536.44 728.567 1540.13 Q725.926 1543.79 725.926 1550.25 Q725.926 1556.71 728.567 1560.4 Q731.241 1564.07 735.888 1564.07 Q740.535 1564.07 743.177 1560.4 Q745.85 1556.71 745.85 1550.25 M725.926 1537.81 Q727.772 1534.62 730.573 1533.1 Q733.405 1531.54 737.32 1531.54 Q743.813 1531.54 747.855 1536.69 Q751.929 1541.85 751.929 1550.25 Q751.929 1558.65 747.855 1563.81 Q743.813 1568.97 737.32 1568.97 Q733.405 1568.97 730.573 1567.44 Q727.772 1565.88 725.926 1562.7 L725.926 1568.04 L720.037 1568.04 L720.037 1518.52 L725.926 1518.52 L725.926 1537.81 Z" fill="#000000" fill-rule="nonzero" fill-opacity="1" /><path clip-path="url(#clip780)" d="M812.849 1548.76 L812.849 1551.62 L785.922 1551.62 Q786.304 1557.67 789.551 1560.85 Q792.829 1564 798.654 1564 Q802.028 1564 805.179 1563.17 Q808.361 1562.35 811.481 1560.69 L811.481 1566.23 Q808.33 1567.57 805.019 1568.27 Q801.709 1568.97 798.304 1568.97 Q789.774 1568.97 784.777 1564 Q779.811 1559.04 779.811 1550.57 Q779.811 1541.82 784.522 1536.69 Q789.264 1531.54 797.285 1531.54 Q804.478 1531.54 808.648 1536.18 Q812.849 1540.8 812.849 1548.76 M806.993 1547.04 Q806.929 1542.23 804.287 1539.37 Q801.677 1536.5 797.349 1536.5 Q792.447 1536.5 789.487 1539.27 Q786.559 1542.04 786.113 1547.07 L806.993 1547.04 Z" fill="#000000" fill-rule="nonzero" fill-opacity="1" /><path clip-path="url(#clip780)" d="M845.187 1533.45 L845.187 1538.98 Q842.704 1537.71 840.031 1537.07 Q837.357 1536.44 834.493 1536.44 Q830.132 1536.44 827.936 1537.77 Q825.772 1539.11 825.772 1541.79 Q825.772 1543.82 827.331 1545 Q828.891 1546.15 833.601 1547.2 L835.607 1547.64 Q841.845 1548.98 844.455 1551.43 Q847.097 1553.85 847.097 1558.21 Q847.097 1563.17 843.15 1566.07 Q839.235 1568.97 832.36 1568.97 Q829.496 1568.97 826.376 1568.39 Q823.289 1567.85 819.852 1566.74 L819.852 1560.69 Q823.098 1562.38 826.249 1563.24 Q829.4 1564.07 832.487 1564.07 Q836.625 1564.07 838.853 1562.66 Q841.081 1561.23 841.081 1558.65 Q841.081 1556.27 839.458 1554.99 Q837.867 1553.72 832.424 1552.54 L830.387 1552.07 Q824.944 1550.92 822.525 1548.56 Q820.106 1546.18 820.106 1542.04 Q820.106 1537.01 823.671 1534.27 Q827.236 1531.54 833.792 1531.54 Q837.039 1531.54 839.904 1532.01 Q842.768 1532.49 845.187 1533.45 Z" fill="#000000" fill-rule="nonzero" fill-opacity="1" /><path clip-path="url(#clip780)" d="M862.215 1522.27 L862.215 1532.4 L874.278 1532.4 L874.278 1536.95 L862.215 1536.95 L862.215 1556.3 Q862.215 1560.66 863.393 1561.9 Q864.602 1563.14 868.263 1563.14 L874.278 1563.14 L874.278 1568.04 L868.263 1568.04 Q861.483 1568.04 858.905 1565.53 Q856.327 1562.98 856.327 1556.3 L856.327 1536.95 L852.03 1536.95 L852.03 1532.4 L856.327 1532.4 L856.327 1522.27 L862.215 1522.27 Z" fill="#000000" fill-rule="nonzero" fill-opacity="1" /><path clip-path="url(#clip780)" d="M881.981 1532.4 L887.837 1532.4 L887.837 1568.04 L881.981 1568.04 L881.981 1532.4 M881.981 1518.52 L887.837 1518.52 L887.837 1525.93 L881.981 1525.93 L881.981 1518.52 Z" fill="#000000" fill-rule="nonzero" fill-opacity="1" /><path clip-path="url(#clip780)" d="M927.846 1539.24 Q930.042 1535.29 933.097 1533.41 Q936.153 1531.54 940.291 1531.54 Q945.861 1531.54 948.884 1535.45 Q951.908 1539.33 951.908 1546.53 L951.908 1568.04 L946.02 1568.04 L946.02 1546.72 Q946.02 1541.59 944.206 1539.11 Q942.391 1536.63 938.667 1536.63 Q934.116 1536.63 931.474 1539.65 Q928.832 1542.68 928.832 1547.9 L928.832 1568.04 L922.944 1568.04 L922.944 1546.72 Q922.944 1541.56 921.13 1539.11 Q919.316 1536.63 915.528 1536.63 Q911.04 1536.63 908.399 1539.68 Q905.757 1542.71 905.757 1547.9 L905.757 1568.04 L899.868 1568.04 L899.868 1532.4 L905.757 1532.4 L905.757 1537.93 Q907.762 1534.66 910.563 1533.1 Q913.364 1531.54 917.215 1531.54 Q921.098 1531.54 923.804 1533.51 Q926.541 1535.48 927.846 1539.24 Z" fill="#000000" fill-rule="nonzero" fill-opacity="1" /><path clip-path="url(#clip780)" d="M979.79 1550.12 Q972.692 1550.12 969.955 1551.75 Q967.218 1553.37 967.218 1557.29 Q967.218 1560.4 969.255 1562.25 Q971.324 1564.07 974.857 1564.07 Q979.726 1564.07 982.655 1560.63 Q985.615 1557.16 985.615 1551.43 L985.615 1550.12 L979.79 1550.12 M991.471 1547.71 L991.471 1568.04 L985.615 1568.04 L985.615 1562.63 Q983.609 1565.88 980.617 1567.44 Q977.626 1568.97 973.297 1568.97 Q967.822 1568.97 964.576 1565.91 Q961.361 1562.82 961.361 1557.67 Q961.361 1551.65 965.372 1548.6 Q969.414 1545.54 977.403 1545.54 L985.615 1545.54 L985.615 1544.97 Q985.615 1540.93 982.941 1538.73 Q980.299 1536.5 975.493 1536.5 Q972.438 1536.5 969.541 1537.23 Q966.645 1537.97 963.971 1539.43 L963.971 1534.02 Q967.186 1532.78 970.21 1532.17 Q973.233 1531.54 976.098 1531.54 Q983.832 1531.54 987.652 1535.55 Q991.471 1539.56 991.471 1547.71 Z" fill="#000000" fill-rule="nonzero" fill-opacity="1" /><path clip-path="url(#clip780)" d="M1009.33 1522.27 L1009.33 1532.4 L1021.39 1532.4 L1021.39 1536.95 L1009.33 1536.95 L1009.33 1556.3 Q1009.33 1560.66 1010.5 1561.9 Q1011.71 1563.14 1015.37 1563.14 L1021.39 1563.14 L1021.39 1568.04 L1015.37 1568.04 Q1008.59 1568.04 1006.02 1565.53 Q1003.44 1562.98 1003.44 1556.3 L1003.44 1536.95 L999.142 1536.95 L999.142 1532.4 L1003.44 1532.4 L1003.44 1522.27 L1009.33 1522.27 Z" fill="#000000" fill-rule="nonzero" fill-opacity="1" /><path clip-path="url(#clip780)" d="M1059.58 1548.76 L1059.58 1551.62 L1032.66 1551.62 Q1033.04 1557.67 1036.29 1560.85 Q1039.56 1564 1045.39 1564 Q1048.76 1564 1051.91 1563.17 Q1055.1 1562.35 1058.22 1560.69 L1058.22 1566.23 Q1055.06 1567.57 1051.75 1568.27 Q1048.44 1568.97 1045.04 1568.97 Q1036.51 1568.97 1031.51 1564 Q1026.55 1559.04 1026.55 1550.57 Q1026.55 1541.82 1031.26 1536.69 Q1036 1531.54 1044.02 1531.54 Q1051.21 1531.54 1055.38 1536.18 Q1059.58 1540.8 1059.58 1548.76 M1053.73 1547.04 Q1053.66 1542.23 1051.02 1539.37 Q1048.41 1536.5 1044.08 1536.5 Q1039.18 1536.5 1036.22 1539.27 Q1033.29 1542.04 1032.85 1547.07 L1053.73 1547.04 Z" fill="#000000" fill-rule="nonzero" fill-opacity="1" /><path clip-path="url(#clip780)" d="M1085.72 1532.4 L1091.92 1532.4 L1103.06 1562.31 L1114.2 1532.4 L1120.41 1532.4 L1107.04 1568.04 L1099.08 1568.04 L1085.72 1532.4 Z" fill="#000000" fill-rule="nonzero" fill-opacity="1" /><path clip-path="url(#clip780)" d="M1128.49 1532.4 L1134.35 1532.4 L1134.35 1568.04 L1128.49 1568.04 L1128.49 1532.4 M1128.49 1518.52 L1134.35 1518.52 L1134.35 1525.93 L1128.49 1525.93 L1128.49 1518.52 Z" fill="#000000" fill-rule="nonzero" fill-opacity="1" /><path clip-path="url(#clip780)" d="M1162.8 1550.12 Q1155.71 1550.12 1152.97 1551.75 Q1150.23 1553.37 1150.23 1557.29 Q1150.23 1560.4 1152.27 1562.25 Q1154.34 1564.07 1157.87 1564.07 Q1162.74 1564.07 1165.67 1560.63 Q1168.63 1557.16 1168.63 1551.43 L1168.63 1550.12 L1162.8 1550.12 M1174.49 1547.71 L1174.49 1568.04 L1168.63 1568.04 L1168.63 1562.63 Q1166.62 1565.88 1163.63 1567.44 Q1160.64 1568.97 1156.31 1568.97 Q1150.84 1568.97 1147.59 1565.91 Q1144.38 1562.82 1144.38 1557.67 Q1144.38 1551.65 1148.39 1548.6 Q1152.43 1545.54 1160.42 1545.54 L1168.63 1545.54 L1168.63 1544.97 Q1168.63 1540.93 1165.96 1538.73 Q1163.31 1536.5 1158.51 1536.5 Q1155.45 1536.5 1152.56 1537.23 Q1149.66 1537.97 1146.99 1539.43 L1146.99 1534.02 Q1150.2 1532.78 1153.22 1532.17 Q1156.25 1531.54 1159.11 1531.54 Q1166.85 1531.54 1170.67 1535.55 Q1174.49 1539.56 1174.49 1547.71 Z" fill="#000000" fill-rule="nonzero" fill-opacity="1" /><path clip-path="url(#clip780)" d="M1230.73 1537.81 L1230.73 1518.52 L1236.58 1518.52 L1236.58 1568.04 L1230.73 1568.04 L1230.73 1562.7 Q1228.88 1565.88 1226.05 1567.44 Q1223.25 1568.97 1219.3 1568.97 Q1212.84 1568.97 1208.76 1563.81 Q1204.72 1558.65 1204.72 1550.25 Q1204.72 1541.85 1208.76 1536.69 Q1212.84 1531.54 1219.3 1531.54 Q1223.25 1531.54 1226.05 1533.1 Q1228.88 1534.62 1230.73 1537.81 M1210.77 1550.25 Q1210.77 1556.71 1213.41 1560.4 Q1216.08 1564.07 1220.73 1564.07 Q1225.38 1564.07 1228.05 1560.4 Q1230.73 1556.71 1230.73 1550.25 Q1230.73 1543.79 1228.05 1540.13 Q1225.38 1536.44 1220.73 1536.44 Q1216.08 1536.44 1213.41 1540.13 Q1210.77 1543.79 1210.77 1550.25 Z" fill="#000000" fill-rule="nonzero" fill-opacity="1" /><path clip-path="url(#clip780)" d="M1248.65 1532.4 L1254.5 1532.4 L1254.5 1568.04 L1248.65 1568.04 L1248.65 1532.4 M1248.65 1518.52 L1254.5 1518.52 L1254.5 1525.93 L1248.65 1525.93 L1248.65 1518.52 Z" fill="#000000" fill-rule="nonzero" fill-opacity="1" /><path clip-path="url(#clip780)" d="M1292.41 1533.76 L1292.41 1539.24 Q1289.93 1537.87 1287.41 1537.2 Q1284.93 1536.5 1282.38 1536.5 Q1276.69 1536.5 1273.54 1540.13 Q1270.38 1543.73 1270.38 1550.25 Q1270.38 1556.78 1273.54 1560.4 Q1276.69 1564 1282.38 1564 Q1284.93 1564 1287.41 1563.33 Q1289.93 1562.63 1292.41 1561.26 L1292.41 1566.68 Q1289.96 1567.82 1287.32 1568.39 Q1284.71 1568.97 1281.75 1568.97 Q1273.69 1568.97 1268.95 1563.91 Q1264.21 1558.85 1264.21 1550.25 Q1264.21 1541.53 1268.98 1536.53 Q1273.79 1531.54 1282.13 1531.54 Q1284.83 1531.54 1287.41 1532.11 Q1289.99 1532.65 1292.41 1533.76 Z" fill="#000000" fill-rule="nonzero" fill-opacity="1" /><path clip-path="url(#clip780)" d="M1308.39 1522.27 L1308.39 1532.4 L1320.45 1532.4 L1320.45 1536.95 L1308.39 1536.95 L1308.39 1556.3 Q1308.39 1560.66 1309.57 1561.9 Q1310.77 1563.14 1314.44 1563.14 L1320.45 1563.14 L1320.45 1568.04 L1314.44 1568.04 Q1307.66 1568.04 1305.08 1565.53 Q1302.5 1562.98 1302.5 1556.3 L1302.5 1536.95 L1298.2 1536.95 L1298.2 1532.4 L1302.5 1532.4 L1302.5 1522.27 L1308.39 1522.27 Z" fill="#000000" fill-rule="nonzero" fill-opacity="1" /><path clip-path="url(#clip780)" d="M1328.15 1532.4 L1334.01 1532.4 L1334.01 1568.04 L1328.15 1568.04 L1328.15 1532.4 M1328.15 1518.52 L1334.01 1518.52 L1334.01 1525.93 L1328.15 1525.93 L1328.15 1518.52 Z" fill="#000000" fill-rule="nonzero" fill-opacity="1" /><path clip-path="url(#clip780)" d="M1360.08 1536.5 Q1355.37 1536.5 1352.63 1540.19 Q1349.89 1543.85 1349.89 1550.25 Q1349.89 1556.65 1352.6 1560.34 Q1355.33 1564 1360.08 1564 Q1364.76 1564 1367.49 1560.31 Q1370.23 1556.62 1370.23 1550.25 Q1370.23 1543.92 1367.49 1540.23 Q1364.76 1536.5 1360.08 1536.5 M1360.08 1531.54 Q1367.72 1531.54 1372.08 1536.5 Q1376.44 1541.47 1376.44 1550.25 Q1376.44 1559 1372.08 1564 Q1367.72 1568.97 1360.08 1568.97 Q1352.41 1568.97 1348.05 1564 Q1343.72 1559 1343.72 1550.25 Q1343.72 1541.47 1348.05 1536.5 Q1352.41 1531.54 1360.08 1531.54 Z" fill="#000000" fill-rule="nonzero" fill-opacity="1" /><path clip-path="url(#clip780)" d="M1415.78 1546.53 L1415.78 1568.04 L1409.92 1568.04 L1409.92 1546.72 Q1409.92 1541.66 1407.95 1539.14 Q1405.97 1536.63 1402.03 1536.63 Q1397.28 1536.63 1394.55 1539.65 Q1391.81 1542.68 1391.81 1547.9 L1391.81 1568.04 L1385.92 1568.04 L1385.92 1532.4 L1391.81 1532.4 L1391.81 1537.93 Q1393.91 1534.72 1396.74 1533.13 Q1399.61 1531.54 1403.33 1531.54 Q1409.48 1531.54 1412.63 1535.36 Q1415.78 1539.14 1415.78 1546.53 Z" fill="#000000" fill-rule="nonzero" fill-opacity="1" /><path clip-path="url(#clip780)" d="M1443.66 1550.12 Q1436.56 1550.12 1433.82 1551.75 Q1431.09 1553.37 1431.09 1557.29 Q1431.09 1560.4 1433.12 1562.25 Q1435.19 1564.07 1438.73 1564.07 Q1443.6 1564.07 1446.52 1560.63 Q1449.48 1557.16 1449.48 1551.43 L1449.48 1550.12 L1443.66 1550.12 M1455.34 1547.71 L1455.34 1568.04 L1449.48 1568.04 L1449.48 1562.63 Q1447.48 1565.88 1444.49 1567.44 Q1441.49 1568.97 1437.17 1568.97 Q1431.69 1568.97 1428.44 1565.91 Q1425.23 1562.82 1425.23 1557.67 Q1425.23 1551.65 1429.24 1548.6 Q1433.28 1545.54 1441.27 1545.54 L1449.48 1545.54 L1449.48 1544.97 Q1449.48 1540.93 1446.81 1538.73 Q1444.17 1536.5 1439.36 1536.5 Q1436.31 1536.5 1433.41 1537.23 Q1430.51 1537.97 1427.84 1539.43 L1427.84 1534.02 Q1431.05 1532.78 1434.08 1532.17 Q1437.1 1531.54 1439.97 1531.54 Q1447.7 1531.54 1451.52 1535.55 Q1455.34 1539.56 1455.34 1547.71 Z" fill="#000000" fill-rule="nonzero" fill-opacity="1" /><path clip-path="url(#clip780)" d="M1488.06 1537.87 Q1487.07 1537.3 1485.9 1537.04 Q1484.75 1536.76 1483.35 1536.76 Q1478.38 1536.76 1475.71 1540 Q1473.07 1543.22 1473.07 1549.27 L1473.07 1568.04 L1467.18 1568.04 L1467.18 1532.4 L1473.07 1532.4 L1473.07 1537.93 Q1474.91 1534.69 1477.87 1533.13 Q1480.83 1531.54 1485.07 1531.54 Q1485.67 1531.54 1486.4 1531.63 Q1487.14 1531.7 1488.03 1531.85 L1488.06 1537.87 Z" fill="#000000" fill-rule="nonzero" fill-opacity="1" /><path clip-path="url(#clip780)" d="M1509.03 1571.35 Q1506.55 1577.72 1504.2 1579.66 Q1501.84 1581.6 1497.89 1581.6 L1493.22 1581.6 L1493.22 1576.7 L1496.65 1576.7 Q1499.07 1576.7 1500.41 1575.56 Q1501.75 1574.41 1503.37 1570.14 L1504.42 1567.47 L1490 1532.4 L1496.21 1532.4 L1507.35 1560.28 L1518.49 1532.4 L1524.69 1532.4 L1509.03 1571.35 Z" fill="#000000" fill-rule="nonzero" fill-opacity="1" /><path clip-path="url(#clip780)" d="M1581.25 1539.24 Q1583.45 1535.29 1586.51 1533.41 Q1589.56 1531.54 1593.7 1531.54 Q1599.27 1531.54 1602.29 1535.45 Q1605.32 1539.33 1605.32 1546.53 L1605.32 1568.04 L1599.43 1568.04 L1599.43 1546.72 Q1599.43 1541.59 1597.61 1539.11 Q1595.8 1536.63 1592.08 1536.63 Q1587.52 1536.63 1584.88 1539.65 Q1582.24 1542.68 1582.24 1547.9 L1582.24 1568.04 L1576.35 1568.04 L1576.35 1546.72 Q1576.35 1541.56 1574.54 1539.11 Q1572.72 1536.63 1568.94 1536.63 Q1564.45 1536.63 1561.81 1539.68 Q1559.16 1542.71 1559.16 1547.9 L1559.16 1568.04 L1553.28 1568.04 L1553.28 1532.4 L1559.16 1532.4 L1559.16 1537.93 Q1561.17 1534.66 1563.97 1533.1 Q1566.77 1531.54 1570.62 1531.54 Q1574.51 1531.54 1577.21 1533.51 Q1579.95 1535.48 1581.25 1539.24 Z" fill="#000000" fill-rule="nonzero" fill-opacity="1" /><path clip-path="url(#clip780)" d="M1633.2 1550.12 Q1626.1 1550.12 1623.36 1551.75 Q1620.63 1553.37 1620.63 1557.29 Q1620.63 1560.4 1622.66 1562.25 Q1624.73 1564.07 1628.26 1564.07 Q1633.13 1564.07 1636.06 1560.63 Q1639.02 1557.16 1639.02 1551.43 L1639.02 1550.12 L1633.2 1550.12 M1644.88 1547.71 L1644.88 1568.04 L1639.02 1568.04 L1639.02 1562.63 Q1637.02 1565.88 1634.03 1567.44 Q1631.03 1568.97 1626.7 1568.97 Q1621.23 1568.97 1617.98 1565.91 Q1614.77 1562.82 1614.77 1557.67 Q1614.77 1551.65 1618.78 1548.6 Q1622.82 1545.54 1630.81 1545.54 L1639.02 1545.54 L1639.02 1544.97 Q1639.02 1540.93 1636.35 1538.73 Q1633.71 1536.5 1628.9 1536.5 Q1625.85 1536.5 1622.95 1537.23 Q1620.05 1537.97 1617.38 1539.43 L1617.38 1534.02 Q1620.59 1532.78 1623.62 1532.17 Q1626.64 1531.54 1629.51 1531.54 Q1637.24 1531.54 1641.06 1535.55 Q1644.88 1539.56 1644.88 1547.71 Z" fill="#000000" fill-rule="nonzero" fill-opacity="1" /><path clip-path="url(#clip780)" d="M1662.73 1522.27 L1662.73 1532.4 L1674.8 1532.4 L1674.8 1536.95 L1662.73 1536.95 L1662.73 1556.3 Q1662.73 1560.66 1663.91 1561.9 Q1665.12 1563.14 1668.78 1563.14 L1674.8 1563.14 L1674.8 1568.04 L1668.78 1568.04 Q1662 1568.04 1659.42 1565.53 Q1656.85 1562.98 1656.85 1556.3 L1656.85 1536.95 L1652.55 1536.95 L1652.55 1532.4 L1656.85 1532.4 L1656.85 1522.27 L1662.73 1522.27 Z" fill="#000000" fill-rule="nonzero" fill-opacity="1" /><path clip-path="url(#clip780)" d="M1708.15 1533.76 L1708.15 1539.24 Q1705.67 1537.87 1703.16 1537.2 Q1700.67 1536.5 1698.13 1536.5 Q1692.43 1536.5 1689.28 1540.13 Q1686.13 1543.73 1686.13 1550.25 Q1686.13 1556.78 1689.28 1560.4 Q1692.43 1564 1698.13 1564 Q1700.67 1564 1703.16 1563.33 Q1705.67 1562.63 1708.15 1561.26 L1708.15 1566.68 Q1705.7 1567.82 1703.06 1568.39 Q1700.45 1568.97 1697.49 1568.97 Q1689.44 1568.97 1684.7 1563.91 Q1679.95 1558.85 1679.95 1550.25 Q1679.95 1541.53 1684.73 1536.53 Q1689.53 1531.54 1697.87 1531.54 Q1700.58 1531.54 1703.16 1532.11 Q1705.74 1532.65 1708.15 1533.76 Z" fill="#000000" fill-rule="nonzero" fill-opacity="1" /><path clip-path="url(#clip780)" d="M1747.97 1546.53 L1747.97 1568.04 L1742.12 1568.04 L1742.12 1546.72 Q1742.12 1541.66 1740.14 1539.14 Q1738.17 1536.63 1734.22 1536.63 Q1729.48 1536.63 1726.74 1539.65 Q1724 1542.68 1724 1547.9 L1724 1568.04 L1718.12 1568.04 L1718.12 1518.52 L1724 1518.52 L1724 1537.93 Q1726.11 1534.72 1728.94 1533.13 Q1731.8 1531.54 1735.53 1531.54 Q1741.67 1531.54 1744.82 1535.36 Q1747.97 1539.14 1747.97 1546.53 Z" fill="#000000" fill-rule="nonzero" fill-opacity="1" /><path clip-path="url(#clip780)" d="M1759.65 1532.4 L1765.51 1532.4 L1765.51 1568.04 L1759.65 1568.04 L1759.65 1532.4 M1759.65 1518.52 L1765.51 1518.52 L1765.51 1525.93 L1759.65 1525.93 L1759.65 1518.52 Z" fill="#000000" fill-rule="nonzero" fill-opacity="1" /><path clip-path="url(#clip780)" d="M1807.4 1546.53 L1807.4 1568.04 L1801.54 1568.04 L1801.54 1546.72 Q1801.54 1541.66 1799.57 1539.14 Q1797.59 1536.63 1793.65 1536.63 Q1788.9 1536.63 1786.17 1539.65 Q1783.43 1542.68 1783.43 1547.9 L1783.43 1568.04 L1777.54 1568.04 L1777.54 1532.4 L1783.43 1532.4 L1783.43 1537.93 Q1785.53 1534.72 1788.36 1533.13 Q1791.23 1531.54 1794.95 1531.54 Q1801.09 1531.54 1804.24 1535.36 Q1807.4 1539.14 1807.4 1546.53 Z" fill="#000000" fill-rule="nonzero" fill-opacity="1" /><path clip-path="url(#clip780)" d="M1842.53 1549.81 Q1842.53 1543.44 1839.89 1539.94 Q1837.28 1536.44 1832.54 1536.44 Q1827.83 1536.44 1825.19 1539.94 Q1822.58 1543.44 1822.58 1549.81 Q1822.58 1556.14 1825.19 1559.64 Q1827.83 1563.14 1832.54 1563.14 Q1837.28 1563.14 1839.89 1559.64 Q1842.53 1556.14 1842.53 1549.81 M1848.39 1563.62 Q1848.39 1572.72 1844.35 1577.15 Q1840.31 1581.6 1831.97 1581.6 Q1828.88 1581.6 1826.14 1581.13 Q1823.41 1580.68 1820.83 1579.72 L1820.83 1574.03 Q1823.41 1575.43 1825.92 1576.1 Q1828.43 1576.76 1831.04 1576.76 Q1836.81 1576.76 1839.67 1573.74 Q1842.53 1570.75 1842.53 1564.67 L1842.53 1561.77 Q1840.72 1564.92 1837.89 1566.48 Q1835.05 1568.04 1831.11 1568.04 Q1824.55 1568.04 1820.54 1563.05 Q1816.53 1558.05 1816.53 1549.81 Q1816.53 1541.53 1820.54 1536.53 Q1824.55 1531.54 1831.11 1531.54 Q1835.05 1531.54 1837.89 1533.1 Q1840.72 1534.66 1842.53 1537.81 L1842.53 1532.4 L1848.39 1532.4 L1848.39 1563.62 Z" fill="#000000" fill-rule="nonzero" fill-opacity="1" /><polyline clip-path="url(#clip780)" style="stroke:#000000; stroke-linecap:round; stroke-linejoin:round; stroke-width:4; stroke-opacity:1; fill:none" points="170.857,1423.18 170.857,47.2441 "/>
<polyline clip-path="url(#clip780)" style="stroke:#000000; stroke-linecap:round; stroke-linejoin:round; stroke-width:4; stroke-opacity:1; fill:none" points="170.857,1423.18 189.755,1423.18 "/>
<polyline clip-path="url(#clip780)" style="stroke:#000000; stroke-linecap:round; stroke-linejoin:round; stroke-width:4; stroke-opacity:1; fill:none" points="170.857,964.535 189.755,964.535 "/>
<polyline clip-path="url(#clip780)" style="stroke:#000000; stroke-linecap:round; stroke-linejoin:round; stroke-width:4; stroke-opacity:1; fill:none" points="170.857,505.889 189.755,505.889 "/>
<polyline clip-path="url(#clip780)" style="stroke:#000000; stroke-linecap:round; stroke-linejoin:round; stroke-width:4; stroke-opacity:1; fill:none" points="170.857,47.2441 189.755,47.2441 "/>
<path clip-path="url(#clip780)" d="M122.913 1408.98 Q119.302 1408.98 117.473 1412.54 Q115.668 1416.08 115.668 1423.21 Q115.668 1430.32 117.473 1433.89 Q119.302 1437.43 122.913 1437.43 Q126.547 1437.43 128.353 1433.89 Q130.182 1430.32 130.182 1423.21 Q130.182 1416.08 128.353 1412.54 Q126.547 1408.98 122.913 1408.98 M122.913 1405.27 Q128.723 1405.27 131.779 1409.88 Q134.857 1414.46 134.857 1423.21 Q134.857 1431.94 131.779 1436.55 Q128.723 1441.13 122.913 1441.13 Q117.103 1441.13 114.024 1436.55 Q110.969 1431.94 110.969 1423.21 Q110.969 1414.46 114.024 1409.88 Q117.103 1405.27 122.913 1405.27 Z" fill="#000000" fill-rule="nonzero" fill-opacity="1" /><path clip-path="url(#clip780)" d="M53.3995 977.879 L61.0384 977.879 L61.0384 951.514 L52.7282 953.18 L52.7282 948.921 L60.9921 947.255 L65.668 947.255 L65.668 977.879 L73.3068 977.879 L73.3068 981.815 L53.3995 981.815 L53.3995 977.879 Z" fill="#000000" fill-rule="nonzero" fill-opacity="1" /><path clip-path="url(#clip780)" d="M92.7512 950.333 Q89.1401 950.333 87.3114 953.898 Q85.5058 957.44 85.5058 964.569 Q85.5058 971.676 87.3114 975.241 Q89.1401 978.782 92.7512 978.782 Q96.3854 978.782 98.1909 975.241 Q100.02 971.676 100.02 964.569 Q100.02 957.44 98.1909 953.898 Q96.3854 950.333 92.7512 950.333 M92.7512 946.63 Q98.5613 946.63 101.617 951.236 Q104.696 955.819 104.696 964.569 Q104.696 973.296 101.617 977.903 Q98.5613 982.486 92.7512 982.486 Q86.941 982.486 83.8623 977.903 Q80.8068 973.296 80.8068 964.569 Q80.8068 955.819 83.8623 951.236 Q86.941 946.63 92.7512 946.63 Z" fill="#000000" fill-rule="nonzero" fill-opacity="1" /><path clip-path="url(#clip780)" d="M122.913 950.333 Q119.302 950.333 117.473 953.898 Q115.668 957.44 115.668 964.569 Q115.668 971.676 117.473 975.241 Q119.302 978.782 122.913 978.782 Q126.547 978.782 128.353 975.241 Q130.182 971.676 130.182 964.569 Q130.182 957.44 128.353 953.898 Q126.547 950.333 122.913 950.333 M122.913 946.63 Q128.723 946.63 131.779 951.236 Q134.857 955.819 134.857 964.569 Q134.857 973.296 131.779 977.903 Q128.723 982.486 122.913 982.486 Q117.103 982.486 114.024 977.903 Q110.969 973.296 110.969 964.569 Q110.969 955.819 114.024 951.236 Q117.103 946.63 122.913 946.63 Z" fill="#000000" fill-rule="nonzero" fill-opacity="1" /><path clip-path="url(#clip780)" d="M56.6171 519.234 L72.9365 519.234 L72.9365 523.169 L50.9921 523.169 L50.9921 519.234 Q53.6541 516.48 58.2375 511.85 Q62.8439 507.197 64.0245 505.855 Q66.2698 503.331 67.1494 501.595 Q68.0522 499.836 68.0522 498.146 Q68.0522 495.392 66.1078 493.656 Q64.1865 491.92 61.0847 491.92 Q58.8856 491.92 56.4319 492.683 Q54.0014 493.447 51.2236 494.998 L51.2236 490.276 Q54.0477 489.142 56.5014 488.563 Q58.955 487.984 60.9921 487.984 Q66.3624 487.984 69.5568 490.67 Q72.7513 493.355 72.7513 497.845 Q72.7513 499.975 71.9411 501.896 Q71.1541 503.794 69.0476 506.387 Q68.4689 507.058 65.367 510.276 Q62.2652 513.47 56.6171 519.234 Z" fill="#000000" fill-rule="nonzero" fill-opacity="1" /><path clip-path="url(#clip780)" d="M92.7512 491.688 Q89.1401 491.688 87.3114 495.253 Q85.5058 498.794 85.5058 505.924 Q85.5058 513.031 87.3114 516.595 Q89.1401 520.137 92.7512 520.137 Q96.3854 520.137 98.1909 516.595 Q100.02 513.031 100.02 505.924 Q100.02 498.794 98.1909 495.253 Q96.3854 491.688 92.7512 491.688 M92.7512 487.984 Q98.5613 487.984 101.617 492.591 Q104.696 497.174 104.696 505.924 Q104.696 514.651 101.617 519.257 Q98.5613 523.841 92.7512 523.841 Q86.941 523.841 83.8623 519.257 Q80.8068 514.651 80.8068 505.924 Q80.8068 497.174 83.8623 492.591 Q86.941 487.984 92.7512 487.984 Z" fill="#000000" fill-rule="nonzero" fill-opacity="1" /><path clip-path="url(#clip780)" d="M122.913 491.688 Q119.302 491.688 117.473 495.253 Q115.668 498.794 115.668 505.924 Q115.668 513.031 117.473 516.595 Q119.302 520.137 122.913 520.137 Q126.547 520.137 128.353 516.595 Q130.182 513.031 130.182 505.924 Q130.182 498.794 128.353 495.253 Q126.547 491.688 122.913 491.688 M122.913 487.984 Q128.723 487.984 131.779 492.591 Q134.857 497.174 134.857 505.924 Q134.857 514.651 131.779 519.257 Q128.723 523.841 122.913 523.841 Q117.103 523.841 114.024 519.257 Q110.969 514.651 110.969 505.924 Q110.969 497.174 114.024 492.591 Q117.103 487.984 122.913 487.984 Z" fill="#000000" fill-rule="nonzero" fill-opacity="1" /><path clip-path="url(#clip780)" d="M66.7559 45.8899 Q70.1124 46.6075 71.9874 48.876 Q73.8855 51.1445 73.8855 54.4779 Q73.8855 59.5936 70.367 62.3945 Q66.8485 65.1954 60.3671 65.1954 Q58.1912 65.1954 55.8764 64.7556 Q53.5847 64.3389 51.131 63.4824 L51.131 58.9686 Q53.0754 60.1028 55.3903 60.6815 Q57.7051 61.2602 60.2282 61.2602 Q64.6263 61.2602 66.918 59.5241 Q69.2328 57.788 69.2328 54.4779 Q69.2328 51.4223 67.08 49.7094 Q64.9504 47.9733 61.131 47.9733 L57.1032 47.9733 L57.1032 44.1307 L61.3161 44.1307 Q64.7652 44.1307 66.5939 42.765 Q68.4226 41.3761 68.4226 38.7835 Q68.4226 36.1215 66.5245 34.7094 Q64.6495 33.2743 61.131 33.2743 Q59.2097 33.2743 57.0106 33.6909 Q54.8115 34.1076 52.1727 34.9872 L52.1727 30.8206 Q54.8347 30.0798 57.1495 29.7095 Q59.4875 29.3391 61.5476 29.3391 Q66.8717 29.3391 69.9735 31.7696 Q73.0753 34.177 73.0753 38.2974 Q73.0753 41.1677 71.4318 43.1585 Q69.7883 45.1261 66.7559 45.8899 Z" fill="#000000" fill-rule="nonzero" fill-opacity="1" /><path clip-path="url(#clip780)" d="M92.7512 33.0428 Q89.1401 33.0428 87.3114 36.6076 Q85.5058 40.1492 85.5058 47.2788 Q85.5058 54.3853 87.3114 57.9501 Q89.1401 61.4917 92.7512 61.4917 Q96.3854 61.4917 98.1909 57.9501 Q100.02 54.3853 100.02 47.2788 Q100.02 40.1492 98.1909 36.6076 Q96.3854 33.0428 92.7512 33.0428 M92.7512 29.3391 Q98.5613 29.3391 101.617 33.9456 Q104.696 38.5289 104.696 47.2788 Q104.696 56.0056 101.617 60.6121 Q98.5613 65.1954 92.7512 65.1954 Q86.941 65.1954 83.8623 60.6121 Q80.8068 56.0056 80.8068 47.2788 Q80.8068 38.5289 83.8623 33.9456 Q86.941 29.3391 92.7512 29.3391 Z" fill="#000000" fill-rule="nonzero" fill-opacity="1" /><path clip-path="url(#clip780)" d="M122.913 33.0428 Q119.302 33.0428 117.473 36.6076 Q115.668 40.1492 115.668 47.2788 Q115.668 54.3853 117.473 57.9501 Q119.302 61.4917 122.913 61.4917 Q126.547 61.4917 128.353 57.9501 Q130.182 54.3853 130.182 47.2788 Q130.182 40.1492 128.353 36.6076 Q126.547 33.0428 122.913 33.0428 M122.913 29.3391 Q128.723 29.3391 131.779 33.9456 Q134.857 38.5289 134.857 47.2788 Q134.857 56.0056 131.779 60.6121 Q128.723 65.1954 122.913 65.1954 Q117.103 65.1954 114.024 60.6121 Q110.969 56.0056 110.969 47.2788 Q110.969 38.5289 114.024 33.9456 Q117.103 29.3391 122.913 29.3391 Z" fill="#000000" fill-rule="nonzero" fill-opacity="1" /><path clip-path="url(#clip781)" d="M232.609 1423.18 L232.609 1423.18 L318.376 1423.18 L318.376 1423.18 L232.609 1423.18 L232.609 1423.18  Z" fill="#009af9" fill-rule="evenodd" fill-opacity="1"/>
<polyline clip-path="url(#clip781)" style="stroke:#000000; stroke-linecap:round; stroke-linejoin:round; stroke-width:8; stroke-opacity:1; fill:none" points="232.609,1423.18 232.609,1423.18 318.376,1423.18 232.609,1423.18 "/>
<path clip-path="url(#clip781)" d="M318.376 1418.59 L318.376 1423.18 L404.142 1423.18 L404.142 1418.59 L318.376 1418.59 L318.376 1418.59  Z" fill="#009af9" fill-rule="evenodd" fill-opacity="1"/>
<polyline clip-path="url(#clip781)" style="stroke:#000000; stroke-linecap:round; stroke-linejoin:round; stroke-width:8; stroke-opacity:1; fill:none" points="318.376,1418.59 318.376,1423.18 404.142,1423.18 404.142,1418.59 318.376,1418.59 "/>
<path clip-path="url(#clip781)" d="M404.142 1395.66 L404.142 1423.18 L489.909 1423.18 L489.909 1395.66 L404.142 1395.66 L404.142 1395.66  Z" fill="#009af9" fill-rule="evenodd" fill-opacity="1"/>
<polyline clip-path="url(#clip781)" style="stroke:#000000; stroke-linecap:round; stroke-linejoin:round; stroke-width:8; stroke-opacity:1; fill:none" points="404.142,1395.66 404.142,1423.18 489.909,1423.18 489.909,1395.66 404.142,1395.66 "/>
<path clip-path="url(#clip781)" d="M489.909 1395.66 L489.909 1423.18 L575.675 1423.18 L575.675 1395.66 L489.909 1395.66 L489.909 1395.66  Z" fill="#009af9" fill-rule="evenodd" fill-opacity="1"/>
<polyline clip-path="url(#clip781)" style="stroke:#000000; stroke-linecap:round; stroke-linejoin:round; stroke-width:8; stroke-opacity:1; fill:none" points="489.909,1395.66 489.909,1423.18 575.675,1423.18 575.675,1395.66 489.909,1395.66 "/>
<path clip-path="url(#clip781)" d="M575.675 1372.73 L575.675 1423.18 L661.442 1423.18 L661.442 1372.73 L575.675 1372.73 L575.675 1372.73  Z" fill="#009af9" fill-rule="evenodd" fill-opacity="1"/>
<polyline clip-path="url(#clip781)" style="stroke:#000000; stroke-linecap:round; stroke-linejoin:round; stroke-width:8; stroke-opacity:1; fill:none" points="575.675,1372.73 575.675,1423.18 661.442,1423.18 661.442,1372.73 575.675,1372.73 "/>
<path clip-path="url(#clip781)" d="M661.442 1317.69 L661.442 1423.18 L747.208 1423.18 L747.208 1317.69 L661.442 1317.69 L661.442 1317.69  Z" fill="#009af9" fill-rule="evenodd" fill-opacity="1"/>
<polyline clip-path="url(#clip781)" style="stroke:#000000; stroke-linecap:round; stroke-linejoin:round; stroke-width:8; stroke-opacity:1; fill:none" points="661.442,1317.69 661.442,1423.18 747.208,1423.18 747.208,1317.69 661.442,1317.69 "/>
<path clip-path="url(#clip781)" d="M747.208 1225.96 L747.208 1423.18 L832.974 1423.18 L832.974 1225.96 L747.208 1225.96 L747.208 1225.96  Z" fill="#009af9" fill-rule="evenodd" fill-opacity="1"/>
<polyline clip-path="url(#clip781)" style="stroke:#000000; stroke-linecap:round; stroke-linejoin:round; stroke-width:8; stroke-opacity:1; fill:none" points="747.208,1225.96 747.208,1423.18 832.974,1423.18 832.974,1225.96 747.208,1225.96 "/>
<path clip-path="url(#clip781)" d="M832.974 1079.2 L832.974 1423.18 L918.741 1423.18 L918.741 1079.2 L832.974 1079.2 L832.974 1079.2  Z" fill="#009af9" fill-rule="evenodd" fill-opacity="1"/>
<polyline clip-path="url(#clip781)" style="stroke:#000000; stroke-linecap:round; stroke-linejoin:round; stroke-width:8; stroke-opacity:1; fill:none" points="832.974,1079.2 832.974,1423.18 918.741,1423.18 918.741,1079.2 832.974,1079.2 "/>
<path clip-path="url(#clip781)" d="M918.741 886.565 L918.741 1423.18 L1004.51 1423.18 L1004.51 886.565 L918.741 886.565 L918.741 886.565  Z" fill="#009af9" fill-rule="evenodd" fill-opacity="1"/>
<polyline clip-path="url(#clip781)" style="stroke:#000000; stroke-linecap:round; stroke-linejoin:round; stroke-width:8; stroke-opacity:1; fill:none" points="918.741,886.565 918.741,1423.18 1004.51,1423.18 1004.51,886.565 918.741,886.565 "/>
<path clip-path="url(#clip781)" d="M1004.51 680.175 L1004.51 1423.18 L1090.27 1423.18 L1090.27 680.175 L1004.51 680.175 L1004.51 680.175  Z" fill="#009af9" fill-rule="evenodd" fill-opacity="1"/>
<polyline clip-path="url(#clip781)" style="stroke:#000000; stroke-linecap:round; stroke-linejoin:round; stroke-width:8; stroke-opacity:1; fill:none" points="1004.51,680.175 1004.51,1423.18 1090.27,1423.18 1090.27,680.175 1004.51,680.175 "/>
<path clip-path="url(#clip781)" d="M1090.27 473.784 L1090.27 1423.18 L1176.04 1423.18 L1176.04 473.784 L1090.27 473.784 L1090.27 473.784  Z" fill="#009af9" fill-rule="evenodd" fill-opacity="1"/>
<polyline clip-path="url(#clip781)" style="stroke:#000000; stroke-linecap:round; stroke-linejoin:round; stroke-width:8; stroke-opacity:1; fill:none" points="1090.27,473.784 1090.27,1423.18 1176.04,1423.18 1176.04,473.784 1090.27,473.784 "/>
<path clip-path="url(#clip781)" d="M1176.04 138.973 L1176.04 1423.18 L1261.81 1423.18 L1261.81 138.973 L1176.04 138.973 L1176.04 138.973  Z" fill="#009af9" fill-rule="evenodd" fill-opacity="1"/>
<polyline clip-path="url(#clip781)" style="stroke:#000000; stroke-linecap:round; stroke-linejoin:round; stroke-width:8; stroke-opacity:1; fill:none" points="1176.04,138.973 1176.04,1423.18 1261.81,1423.18 1261.81,138.973 1176.04,138.973 "/>
<path clip-path="url(#clip781)" d="M1261.81 258.221 L1261.81 1423.18 L1347.57 1423.18 L1347.57 258.221 L1261.81 258.221 L1261.81 258.221  Z" fill="#009af9" fill-rule="evenodd" fill-opacity="1"/>
<polyline clip-path="url(#clip781)" style="stroke:#000000; stroke-linecap:round; stroke-linejoin:round; stroke-width:8; stroke-opacity:1; fill:none" points="1261.81,258.221 1261.81,1423.18 1347.57,1423.18 1347.57,258.221 1261.81,258.221 "/>
<path clip-path="url(#clip781)" d="M1347.57 290.326 L1347.57 1423.18 L1433.34 1423.18 L1433.34 290.326 L1347.57 290.326 L1347.57 290.326  Z" fill="#009af9" fill-rule="evenodd" fill-opacity="1"/>
<polyline clip-path="url(#clip781)" style="stroke:#000000; stroke-linecap:round; stroke-linejoin:round; stroke-width:8; stroke-opacity:1; fill:none" points="1347.57,290.326 1347.57,1423.18 1433.34,1423.18 1433.34,290.326 1347.57,290.326 "/>
<path clip-path="url(#clip781)" d="M1433.34 446.265 L1433.34 1423.18 L1519.11 1423.18 L1519.11 446.265 L1433.34 446.265 L1433.34 446.265  Z" fill="#009af9" fill-rule="evenodd" fill-opacity="1"/>
<polyline clip-path="url(#clip781)" style="stroke:#000000; stroke-linecap:round; stroke-linejoin:round; stroke-width:8; stroke-opacity:1; fill:none" points="1433.34,446.265 1433.34,1423.18 1519.11,1423.18 1519.11,446.265 1433.34,446.265 "/>
<path clip-path="url(#clip781)" d="M1519.11 753.558 L1519.11 1423.18 L1604.87 1423.18 L1604.87 753.558 L1519.11 753.558 L1519.11 753.558  Z" fill="#009af9" fill-rule="evenodd" fill-opacity="1"/>
<polyline clip-path="url(#clip781)" style="stroke:#000000; stroke-linecap:round; stroke-linejoin:round; stroke-width:8; stroke-opacity:1; fill:none" points="1519.11,753.558 1519.11,1423.18 1604.87,1423.18 1604.87,753.558 1519.11,753.558 "/>
<path clip-path="url(#clip781)" d="M1604.87 955.362 L1604.87 1423.18 L1690.64 1423.18 L1690.64 955.362 L1604.87 955.362 L1604.87 955.362  Z" fill="#009af9" fill-rule="evenodd" fill-opacity="1"/>
<polyline clip-path="url(#clip781)" style="stroke:#000000; stroke-linecap:round; stroke-linejoin:round; stroke-width:8; stroke-opacity:1; fill:none" points="1604.87,955.362 1604.87,1423.18 1690.64,1423.18 1690.64,955.362 1604.87,955.362 "/>
<path clip-path="url(#clip781)" d="M1690.64 1184.68 L1690.64 1423.18 L1776.41 1423.18 L1776.41 1184.68 L1690.64 1184.68 L1690.64 1184.68  Z" fill="#009af9" fill-rule="evenodd" fill-opacity="1"/>
<polyline clip-path="url(#clip781)" style="stroke:#000000; stroke-linecap:round; stroke-linejoin:round; stroke-width:8; stroke-opacity:1; fill:none" points="1690.64,1184.68 1690.64,1423.18 1776.41,1423.18 1776.41,1184.68 1690.64,1184.68 "/>
<path clip-path="url(#clip781)" d="M1776.41 1285.59 L1776.41 1423.18 L1862.17 1423.18 L1862.17 1285.59 L1776.41 1285.59 L1776.41 1285.59  Z" fill="#009af9" fill-rule="evenodd" fill-opacity="1"/>
<polyline clip-path="url(#clip781)" style="stroke:#000000; stroke-linecap:round; stroke-linejoin:round; stroke-width:8; stroke-opacity:1; fill:none" points="1776.41,1285.59 1776.41,1423.18 1862.17,1423.18 1862.17,1285.59 1776.41,1285.59 "/>
<path clip-path="url(#clip781)" d="M1862.17 1358.97 L1862.17 1423.18 L1947.94 1423.18 L1947.94 1358.97 L1862.17 1358.97 L1862.17 1358.97  Z" fill="#009af9" fill-rule="evenodd" fill-opacity="1"/>
<polyline clip-path="url(#clip781)" style="stroke:#000000; stroke-linecap:round; stroke-linejoin:round; stroke-width:8; stroke-opacity:1; fill:none" points="1862.17,1358.97 1862.17,1423.18 1947.94,1423.18 1947.94,1358.97 1862.17,1358.97 "/>
<path clip-path="url(#clip781)" d="M1947.94 1386.49 L1947.94 1423.18 L2033.7 1423.18 L2033.7 1386.49 L1947.94 1386.49 L1947.94 1386.49  Z" fill="#009af9" fill-rule="evenodd" fill-opacity="1"/>
<polyline clip-path="url(#clip781)" style="stroke:#000000; stroke-linecap:round; stroke-linejoin:round; stroke-width:8; stroke-opacity:1; fill:none" points="1947.94,1386.49 1947.94,1423.18 2033.7,1423.18 2033.7,1386.49 1947.94,1386.49 "/>
<path clip-path="url(#clip781)" d="M2033.7 1409.42 L2033.7 1423.18 L2119.47 1423.18 L2119.47 1409.42 L2033.7 1409.42 L2033.7 1409.42  Z" fill="#009af9" fill-rule="evenodd" fill-opacity="1"/>
<polyline clip-path="url(#clip781)" style="stroke:#000000; stroke-linecap:round; stroke-linejoin:round; stroke-width:8; stroke-opacity:1; fill:none" points="2033.7,1409.42 2033.7,1423.18 2119.47,1423.18 2119.47,1409.42 2033.7,1409.42 "/>
<path clip-path="url(#clip781)" d="M2119.47 1423.18 L2119.47 1423.18 L2205.24 1423.18 L2205.24 1423.18 L2119.47 1423.18 L2119.47 1423.18  Z" fill="#009af9" fill-rule="evenodd" fill-opacity="1"/>
<polyline clip-path="url(#clip781)" style="stroke:#000000; stroke-linecap:round; stroke-linejoin:round; stroke-width:8; stroke-opacity:1; fill:none" points="2119.47,1423.18 2119.47,1423.18 2205.24,1423.18 2119.47,1423.18 "/>
<path clip-path="url(#clip781)" d="M2205.24 1423.18 L2205.24 1423.18 L2291 1423.18 L2291 1423.18 L2205.24 1423.18 L2205.24 1423.18  Z" fill="#009af9" fill-rule="evenodd" fill-opacity="1"/>
<polyline clip-path="url(#clip781)" style="stroke:#000000; stroke-linecap:round; stroke-linejoin:round; stroke-width:8; stroke-opacity:1; fill:none" points="2205.24,1423.18 2205.24,1423.18 2291,1423.18 2205.24,1423.18 "/>
<circle clip-path="url(#clip781)" style="fill:#009af9; stroke:none; fill-opacity:0" cx="275.492" cy="1423.18" r="2"/>
<circle clip-path="url(#clip781)" style="fill:#009af9; stroke:none; fill-opacity:0" cx="361.259" cy="1418.59" r="2"/>
<circle clip-path="url(#clip781)" style="fill:#009af9; stroke:none; fill-opacity:0" cx="447.025" cy="1395.66" r="2"/>
<circle clip-path="url(#clip781)" style="fill:#009af9; stroke:none; fill-opacity:0" cx="532.792" cy="1395.66" r="2"/>
<circle clip-path="url(#clip781)" style="fill:#009af9; stroke:none; fill-opacity:0" cx="618.558" cy="1372.73" r="2"/>
<circle clip-path="url(#clip781)" style="fill:#009af9; stroke:none; fill-opacity:0" cx="704.325" cy="1317.69" r="2"/>
<circle clip-path="url(#clip781)" style="fill:#009af9; stroke:none; fill-opacity:0" cx="790.091" cy="1225.96" r="2"/>
<circle clip-path="url(#clip781)" style="fill:#009af9; stroke:none; fill-opacity:0" cx="875.858" cy="1079.2" r="2"/>
<circle clip-path="url(#clip781)" style="fill:#009af9; stroke:none; fill-opacity:0" cx="961.624" cy="886.565" r="2"/>
<circle clip-path="url(#clip781)" style="fill:#009af9; stroke:none; fill-opacity:0" cx="1047.39" cy="680.175" r="2"/>
<circle clip-path="url(#clip781)" style="fill:#009af9; stroke:none; fill-opacity:0" cx="1133.16" cy="473.784" r="2"/>
<circle clip-path="url(#clip781)" style="fill:#009af9; stroke:none; fill-opacity:0" cx="1218.92" cy="138.973" r="2"/>
<circle clip-path="url(#clip781)" style="fill:#009af9; stroke:none; fill-opacity:0" cx="1304.69" cy="258.221" r="2"/>
<circle clip-path="url(#clip781)" style="fill:#009af9; stroke:none; fill-opacity:0" cx="1390.46" cy="290.326" r="2"/>
<circle clip-path="url(#clip781)" style="fill:#009af9; stroke:none; fill-opacity:0" cx="1476.22" cy="446.265" r="2"/>
<circle clip-path="url(#clip781)" style="fill:#009af9; stroke:none; fill-opacity:0" cx="1561.99" cy="753.558" r="2"/>
<circle clip-path="url(#clip781)" style="fill:#009af9; stroke:none; fill-opacity:0" cx="1647.76" cy="955.362" r="2"/>
<circle clip-path="url(#clip781)" style="fill:#009af9; stroke:none; fill-opacity:0" cx="1733.52" cy="1184.68" r="2"/>
<circle clip-path="url(#clip781)" style="fill:#009af9; stroke:none; fill-opacity:0" cx="1819.29" cy="1285.59" r="2"/>
<circle clip-path="url(#clip781)" style="fill:#009af9; stroke:none; fill-opacity:0" cx="1905.06" cy="1358.97" r="2"/>
<circle clip-path="url(#clip781)" style="fill:#009af9; stroke:none; fill-opacity:0" cx="1990.82" cy="1386.49" r="2"/>
<circle clip-path="url(#clip781)" style="fill:#009af9; stroke:none; fill-opacity:0" cx="2076.59" cy="1409.42" r="2"/>
<circle clip-path="url(#clip781)" style="fill:#009af9; stroke:none; fill-opacity:0" cx="2162.35" cy="1423.18" r="2"/>
<circle clip-path="url(#clip781)" style="fill:#009af9; stroke:none; fill-opacity:0" cx="2248.12" cy="1423.18" r="2"/>
<polyline clip-path="url(#clip781)" style="stroke:#e26f46; stroke-linecap:round; stroke-linejoin:round; stroke-width:8; stroke-opacity:1; fill:none" points="1261.81,1423.18 1261.81,47.2441 "/>
<path clip-path="url(#clip780)" d="M1560.22 196.789 L2280.03 196.789 L2280.03 93.1086 L1560.22 93.1086  Z" fill="#ffffff" fill-rule="evenodd" fill-opacity="1"/>
<polyline clip-path="url(#clip780)" style="stroke:#000000; stroke-linecap:round; stroke-linejoin:round; stroke-width:4; stroke-opacity:1; fill:none" points="1560.22,196.789 2280.03,196.789 2280.03,93.1086 1560.22,93.1086 1560.22,196.789 "/>
<path clip-path="url(#clip780)" d="M1584.46 165.685 L1729.92 165.685 L1729.92 124.213 L1584.46 124.213 L1584.46 165.685  Z" fill="#009af9" fill-rule="evenodd" fill-opacity="1"/>
<polyline clip-path="url(#clip780)" style="stroke:#000000; stroke-linecap:round; stroke-linejoin:round; stroke-width:8; stroke-opacity:1; fill:none" points="1584.46,165.685 1729.92,165.685 1729.92,124.213 1584.46,124.213 1584.46,165.685 "/>
<path clip-path="url(#clip780)" d="M1754.16 127.669 L1761.13 127.669 L1769.95 151.187 L1778.82 127.669 L1785.79 127.669 L1785.79 162.229 L1781.22 162.229 L1781.22 131.882 L1772.31 155.585 L1767.61 155.585 L1758.7 131.882 L1758.7 162.229 L1754.16 162.229 L1754.16 127.669 Z" fill="#000000" fill-rule="nonzero" fill-opacity="1" /><path clip-path="url(#clip780)" d="M1817.06 148.201 L1817.06 150.284 L1797.47 150.284 Q1797.75 154.682 1800.11 156.997 Q1802.5 159.289 1806.73 159.289 Q1809.19 159.289 1811.48 158.687 Q1813.79 158.085 1816.06 156.881 L1816.06 160.909 Q1813.77 161.881 1811.36 162.391 Q1808.96 162.9 1806.48 162.9 Q1800.28 162.9 1796.64 159.289 Q1793.03 155.678 1793.03 149.52 Q1793.03 143.155 1796.46 139.428 Q1799.91 135.678 1805.74 135.678 Q1810.97 135.678 1814 139.057 Q1817.06 142.414 1817.06 148.201 M1812.8 146.951 Q1812.75 143.456 1810.83 141.372 Q1808.93 139.289 1805.79 139.289 Q1802.22 139.289 1800.07 141.303 Q1797.94 143.317 1797.61 146.974 L1812.8 146.951 Z" fill="#000000" fill-rule="nonzero" fill-opacity="1" /><path clip-path="url(#clip780)" d="M1835.83 149.196 Q1830.67 149.196 1828.68 150.377 Q1826.69 151.557 1826.69 154.405 Q1826.69 156.673 1828.17 158.016 Q1829.67 159.335 1832.24 159.335 Q1835.78 159.335 1837.91 156.835 Q1840.07 154.312 1840.07 150.145 L1840.07 149.196 L1835.83 149.196 M1844.33 147.437 L1844.33 162.229 L1840.07 162.229 L1840.07 158.293 Q1838.61 160.655 1836.43 161.789 Q1834.26 162.9 1831.11 162.9 Q1827.13 162.9 1824.77 160.678 Q1822.43 158.432 1822.43 154.682 Q1822.43 150.307 1825.35 148.085 Q1828.28 145.863 1834.1 145.863 L1840.07 145.863 L1840.07 145.446 Q1840.07 142.507 1838.12 140.909 Q1836.2 139.289 1832.71 139.289 Q1830.48 139.289 1828.38 139.821 Q1826.27 140.354 1824.33 141.419 L1824.33 137.483 Q1826.66 136.581 1828.86 136.141 Q1831.06 135.678 1833.15 135.678 Q1838.77 135.678 1841.55 138.594 Q1844.33 141.511 1844.33 147.437 Z" fill="#000000" fill-rule="nonzero" fill-opacity="1" /><path clip-path="url(#clip780)" d="M1874.65 146.581 L1874.65 162.229 L1870.39 162.229 L1870.39 146.719 Q1870.39 143.039 1868.96 141.21 Q1867.52 139.382 1864.65 139.382 Q1861.2 139.382 1859.21 141.581 Q1857.22 143.78 1857.22 147.576 L1857.22 162.229 L1852.94 162.229 L1852.94 136.303 L1857.22 136.303 L1857.22 140.331 Q1858.75 137.993 1860.81 136.835 Q1862.89 135.678 1865.6 135.678 Q1870.07 135.678 1872.36 138.456 Q1874.65 141.21 1874.65 146.581 Z" fill="#000000" fill-rule="nonzero" fill-opacity="1" /><path clip-path="url(#clip780)" d="M1883.7 140.701 L1913.38 140.701 L1913.38 144.59 L1883.7 144.59 L1883.7 140.701 M1883.7 150.145 L1913.38 150.145 L1913.38 154.081 L1883.7 154.081 L1883.7 150.145 Z" fill="#000000" fill-rule="nonzero" fill-opacity="1" /><path clip-path="url(#clip780)" d="M1924.28 158.293 L1931.92 158.293 L1931.92 131.928 L1923.61 133.595 L1923.61 129.335 L1931.87 127.669 L1936.55 127.669 L1936.55 158.293 L1944.19 158.293 L1944.19 162.229 L1924.28 162.229 L1924.28 158.293 Z" fill="#000000" fill-rule="nonzero" fill-opacity="1" /><path clip-path="url(#clip780)" d="M1953.77 161.511 L1953.77 157.252 Q1955.53 158.085 1957.34 158.525 Q1959.14 158.965 1960.88 158.965 Q1965.51 158.965 1967.94 155.863 Q1970.39 152.738 1970.74 146.395 Q1969.4 148.386 1967.34 149.451 Q1965.27 150.516 1962.77 150.516 Q1957.59 150.516 1954.56 147.391 Q1951.55 144.243 1951.55 138.803 Q1951.55 133.479 1954.7 130.261 Q1957.84 127.044 1963.08 127.044 Q1969.07 127.044 1972.22 131.65 Q1975.39 136.233 1975.39 144.983 Q1975.39 153.155 1971.5 158.039 Q1967.64 162.9 1961.09 162.9 Q1959.33 162.9 1957.52 162.553 Q1955.71 162.205 1953.77 161.511 M1963.08 146.858 Q1966.22 146.858 1968.05 144.706 Q1969.9 142.553 1969.9 138.803 Q1969.9 135.076 1968.05 132.923 Q1966.22 130.747 1963.08 130.747 Q1959.93 130.747 1958.08 132.923 Q1956.25 135.076 1956.25 138.803 Q1956.25 142.553 1958.08 144.706 Q1959.93 146.858 1963.08 146.858 Z" fill="#000000" fill-rule="nonzero" fill-opacity="1" /><path clip-path="url(#clip780)" d="M1983.79 156.349 L1988.68 156.349 L1988.68 162.229 L1983.79 162.229 L1983.79 156.349 Z" fill="#000000" fill-rule="nonzero" fill-opacity="1" /><path clip-path="url(#clip780)" d="M2008.86 145.817 Q2005.53 145.817 2003.61 147.599 Q2001.71 149.381 2001.71 152.506 Q2001.71 155.631 2003.61 157.414 Q2005.53 159.196 2008.86 159.196 Q2012.2 159.196 2014.12 157.414 Q2016.04 155.608 2016.04 152.506 Q2016.04 149.381 2014.12 147.599 Q2012.22 145.817 2008.86 145.817 M2004.19 143.826 Q2001.18 143.085 1999.49 141.025 Q1997.82 138.965 1997.82 136.002 Q1997.82 131.858 2000.76 129.451 Q2003.72 127.044 2008.86 127.044 Q2014.02 127.044 2016.96 129.451 Q2019.9 131.858 2019.9 136.002 Q2019.9 138.965 2018.21 141.025 Q2016.55 143.085 2013.56 143.826 Q2016.94 144.613 2018.82 146.905 Q2020.71 149.196 2020.71 152.506 Q2020.71 157.53 2017.64 160.215 Q2014.58 162.9 2008.86 162.9 Q2003.15 162.9 2000.07 160.215 Q1997.01 157.53 1997.01 152.506 Q1997.01 149.196 1998.91 146.905 Q2000.81 144.613 2004.19 143.826 M2002.47 136.442 Q2002.47 139.127 2004.14 140.632 Q2005.83 142.136 2008.86 142.136 Q2011.87 142.136 2013.56 140.632 Q2015.27 139.127 2015.27 136.442 Q2015.27 133.757 2013.56 132.252 Q2011.87 130.747 2008.86 130.747 Q2005.83 130.747 2004.14 132.252 Q2002.47 133.757 2002.47 136.442 Z" fill="#000000" fill-rule="nonzero" fill-opacity="1" /><path clip-path="url(#clip780)" d="M2027.84 127.669 L2050.07 127.669 L2050.07 129.659 L2037.52 162.229 L2032.64 162.229 L2044.44 131.604 L2027.84 131.604 L2027.84 127.669 Z" fill="#000000" fill-rule="nonzero" fill-opacity="1" /><path clip-path="url(#clip780)" d="M2059.67 156.349 L2064.56 156.349 L2064.56 160.33 L2060.76 167.738 L2057.77 167.738 L2059.67 160.33 L2059.67 156.349 Z" fill="#000000" fill-rule="nonzero" fill-opacity="1" /><path clip-path="url(#clip780)" d="M2098.77 139.682 Q2095.25 139.682 2093.35 142.229 Q2091.36 144.891 2091.36 149.289 Q2091.36 153.942 2093.33 156.627 Q2095.32 159.289 2098.77 159.289 Q2102.17 159.289 2104.16 156.604 Q2106.15 153.918 2106.15 149.289 Q2106.15 145.053 2104.16 142.229 Q2102.33 139.682 2098.77 139.682 M2098.77 136.303 L2112.91 136.303 L2112.91 140.562 L2108.14 140.562 Q2110.67 144.173 2110.67 149.289 Q2110.67 155.655 2107.5 159.266 Q2104.33 162.9 2098.77 162.9 Q2093.19 162.9 2090.04 159.266 Q2086.87 155.655 2086.87 149.289 Q2086.87 142.877 2090.04 139.289 Q2092.66 136.303 2098.77 136.303 Z" fill="#000000" fill-rule="nonzero" fill-opacity="1" /><path clip-path="url(#clip780)" d="M2119.33 140.701 L2149 140.701 L2149 144.59 L2119.33 144.59 L2119.33 140.701 M2119.33 150.145 L2149 150.145 L2149 154.081 L2119.33 154.081 L2119.33 150.145 Z" fill="#000000" fill-rule="nonzero" fill-opacity="1" /><path clip-path="url(#clip780)" d="M2159.9 158.293 L2167.54 158.293 L2167.54 131.928 L2159.23 133.595 L2159.23 129.335 L2167.5 127.669 L2172.17 127.669 L2172.17 158.293 L2179.81 158.293 L2179.81 162.229 L2159.9 162.229 L2159.9 158.293 Z" fill="#000000" fill-rule="nonzero" fill-opacity="1" /><path clip-path="url(#clip780)" d="M2189.26 156.349 L2194.14 156.349 L2194.14 162.229 L2189.26 162.229 L2189.26 156.349 Z" fill="#000000" fill-rule="nonzero" fill-opacity="1" /><path clip-path="url(#clip780)" d="M2204.37 127.669 L2222.73 127.669 L2222.73 131.604 L2208.65 131.604 L2208.65 140.076 Q2209.67 139.729 2210.69 139.567 Q2211.71 139.382 2212.73 139.382 Q2218.51 139.382 2221.89 142.553 Q2225.27 145.724 2225.27 151.141 Q2225.27 156.719 2221.8 159.821 Q2218.33 162.9 2212.01 162.9 Q2209.83 162.9 2207.57 162.53 Q2205.32 162.159 2202.91 161.418 L2202.91 156.719 Q2205 157.854 2207.22 158.409 Q2209.44 158.965 2211.92 158.965 Q2215.92 158.965 2218.26 156.858 Q2220.6 154.752 2220.6 151.141 Q2220.6 147.53 2218.26 145.423 Q2215.92 143.317 2211.92 143.317 Q2210.04 143.317 2208.17 143.733 Q2206.32 144.15 2204.37 145.03 L2204.37 127.669 Z" fill="#000000" fill-rule="nonzero" fill-opacity="1" /><path clip-path="url(#clip780)" d="M2248.65 143.594 Q2252.01 144.312 2253.88 146.581 Q2255.78 148.849 2255.78 152.182 Q2255.78 157.298 2252.26 160.099 Q2248.75 162.9 2242.26 162.9 Q2240.09 162.9 2237.77 162.46 Q2235.48 162.043 2233.03 161.187 L2233.03 156.673 Q2234.97 157.807 2237.29 158.386 Q2239.6 158.965 2242.13 158.965 Q2246.52 158.965 2248.82 157.229 Q2251.13 155.493 2251.13 152.182 Q2251.13 149.127 2248.98 147.414 Q2246.85 145.678 2243.03 145.678 L2239 145.678 L2239 141.835 L2243.21 141.835 Q2246.66 141.835 2248.49 140.469 Q2250.32 139.081 2250.32 136.488 Q2250.32 133.826 2248.42 132.414 Q2246.55 130.979 2243.03 130.979 Q2241.11 130.979 2238.91 131.395 Q2236.71 131.812 2234.07 132.692 L2234.07 128.525 Q2236.73 127.784 2239.05 127.414 Q2241.38 127.044 2243.44 127.044 Q2248.77 127.044 2251.87 129.474 Q2254.97 131.882 2254.97 136.002 Q2254.97 138.872 2253.33 140.863 Q2251.69 142.831 2248.65 143.594 Z" fill="#000000" fill-rule="nonzero" fill-opacity="1" /><path clip-path="url(#clip780)" d="M1789.53 480.308 L1789.53 488.936 Q1785.4 485.088 1780.7 483.184 Q1776.04 481.28 1770.77 481.28 Q1760.4 481.28 1754.89 487.64 Q1749.38 493.959 1749.38 505.95 Q1749.38 517.9 1754.89 524.26 Q1760.4 530.58 1770.77 530.58 Q1776.04 530.58 1780.7 528.676 Q1785.4 526.772 1789.53 522.923 L1789.53 531.471 Q1785.23 534.387 1780.41 535.846 Q1775.63 537.304 1770.29 537.304 Q1756.55 537.304 1748.65 528.919 Q1740.75 520.493 1740.75 505.95 Q1740.75 491.367 1748.65 482.981 Q1756.55 474.556 1770.29 474.556 Q1775.71 474.556 1780.49 476.014 Q1785.31 477.432 1789.53 480.308 Z" fill="#ff0000" fill-rule="nonzero" fill-opacity="1" /><path clip-path="url(#clip780)" d="M1830.85 507.773 Q1833.48 508.664 1835.95 511.581 Q1838.46 514.498 1840.97 519.602 L1849.28 536.129 L1840.49 536.129 L1832.75 520.614 Q1829.75 514.538 1826.92 512.553 Q1824.12 510.568 1819.26 510.568 L1810.35 510.568 L1810.35 536.129 L1802.17 536.129 L1802.17 475.649 L1820.64 475.649 Q1831.01 475.649 1836.11 479.984 Q1841.22 484.318 1841.22 493.068 Q1841.22 498.78 1838.54 502.547 Q1835.91 506.315 1830.85 507.773 M1810.35 482.374 L1810.35 503.844 L1820.64 503.844 Q1826.55 503.844 1829.55 501.13 Q1832.59 498.375 1832.59 493.068 Q1832.59 487.762 1829.55 485.088 Q1826.55 482.374 1820.64 482.374 L1810.35 482.374 Z" fill="#ff0000" fill-rule="nonzero" fill-opacity="1" /><path clip-path="url(#clip780)" d="M1867.99 507.246 L1867.99 529.405 L1881.12 529.405 Q1887.72 529.405 1890.88 526.691 Q1894.08 523.936 1894.08 518.305 Q1894.08 512.634 1890.88 509.961 Q1887.72 507.246 1881.12 507.246 L1867.99 507.246 M1867.99 482.374 L1867.99 500.603 L1880.11 500.603 Q1886.1 500.603 1889.02 498.375 Q1891.98 496.106 1891.98 491.488 Q1891.98 486.911 1889.02 484.642 Q1886.1 482.374 1880.11 482.374 L1867.99 482.374 M1859.81 475.649 L1880.71 475.649 Q1890.07 475.649 1895.13 479.538 Q1900.2 483.427 1900.2 490.597 Q1900.2 496.147 1897.61 499.428 Q1895.01 502.709 1889.99 503.52 Q1896.03 504.816 1899.35 508.948 Q1902.71 513.039 1902.71 519.197 Q1902.71 527.298 1897.2 531.714 Q1891.69 536.129 1881.52 536.129 L1859.81 536.129 L1859.81 475.649 Z" fill="#ff0000" fill-rule="nonzero" fill-opacity="1" /><path clip-path="url(#clip780)" d="M1943.75 498.456 L1995.68 498.456 L1995.68 505.261 L1943.75 505.261 L1943.75 498.456 M1943.75 514.984 L1995.68 514.984 L1995.68 521.87 L1943.75 521.87 L1943.75 514.984 Z" fill="#ff0000" fill-rule="nonzero" fill-opacity="1" /><path clip-path="url(#clip780)" d="M2046.76 529.243 L2075.32 529.243 L2075.32 536.129 L2036.92 536.129 L2036.92 529.243 Q2041.57 524.422 2049.6 516.32 Q2057.66 508.178 2059.72 505.829 Q2063.65 501.413 2065.19 498.375 Q2066.77 495.296 2066.77 492.339 Q2066.77 487.518 2063.37 484.48 Q2060.01 481.442 2054.58 481.442 Q2050.73 481.442 2046.44 482.779 Q2042.18 484.116 2037.32 486.83 L2037.32 478.566 Q2042.26 476.581 2046.56 475.568 Q2050.85 474.556 2054.42 474.556 Q2063.81 474.556 2069.4 479.255 Q2074.99 483.954 2074.99 491.812 Q2074.99 495.539 2073.58 498.902 Q2072.2 502.223 2068.51 506.76 Q2067.5 507.935 2062.07 513.566 Q2056.64 519.156 2046.76 529.243 Z" fill="#ff0000" fill-rule="nonzero" fill-opacity="1" /><path clip-path="url(#clip780)" d="M2092.49 525.84 L2101.04 525.84 L2101.04 536.129 L2092.49 536.129 L2092.49 525.84 Z" fill="#ff0000" fill-rule="nonzero" fill-opacity="1" /><path clip-path="url(#clip780)" d="M2120.28 529.243 L2133.65 529.243 L2133.65 483.103 L2119.11 486.02 L2119.11 478.566 L2133.57 475.649 L2141.75 475.649 L2141.75 529.243 L2155.12 529.243 L2155.12 536.129 L2120.28 536.129 L2120.28 529.243 Z" fill="#ff0000" fill-rule="nonzero" fill-opacity="1" /></svg>
