<?xml version="1.0" encoding="utf-8"?>
<svg xmlns="http://www.w3.org/2000/svg" xmlns:xlink="http://www.w3.org/1999/xlink" width="600" height="400" viewBox="0 0 2400 1600">
<defs>
  <clipPath id="clip750">
    <rect x="0" y="0" width="2400" height="1600"/>
  </clipPath>
</defs>
<path clip-path="url(#clip750)" d="M0 1600 L2400 1600 L2400 0 L0 0  Z" fill="#ffffff" fill-rule="evenodd" fill-opacity="1"/>
<defs>
  <clipPath id="clip751">
    <rect x="170" y="47" width="2183" height="1377"/>
  </clipPath>
</defs>
<path clip-path="url(#clip750)" d="M170.857 1423.18 L2352.76 1423.18 L2352.76 47.2441 L170.857 47.2441  Z" fill="#ffffff" fill-rule="evenodd" fill-opacity="1"/>
<polyline clip-path="url(#clip751)" style="stroke:#000000; stroke-linecap:round; stroke-linejoin:round; stroke-width:2; stroke-opacity:0.1; fill:none" points="541.368,1423.18 541.368,47.2441 "/>
<polyline clip-path="url(#clip751)" style="stroke:#000000; stroke-linecap:round; stroke-linejoin:round; stroke-width:2; stroke-opacity:0.1; fill:none" points="1055.97,1423.18 1055.97,47.2441 "/>
<polyline clip-path="url(#clip751)" style="stroke:#000000; stroke-linecap:round; stroke-linejoin:round; stroke-width:2; stroke-opacity:0.1; fill:none" points="1570.57,1423.18 1570.57,47.2441 "/>
<polyline clip-path="url(#clip751)" style="stroke:#000000; stroke-linecap:round; stroke-linejoin:round; stroke-width:2; stroke-opacity:0.1; fill:none" points="2085.16,1423.18 2085.16,47.2441 "/>
<polyline clip-path="url(#clip751)" style="stroke:#000000; stroke-linecap:round; stroke-linejoin:round; stroke-width:2; stroke-opacity:0.1; fill:none" points="170.857,1423.18 2352.76,1423.18 "/>
<polyline clip-path="url(#clip751)" style="stroke:#000000; stroke-linecap:round; stroke-linejoin:round; stroke-width:2; stroke-opacity:0.1; fill:none" points="170.857,964.535 2352.76,964.535 "/>
<polyline clip-path="url(#clip751)" style="stroke:#000000; stroke-linecap:round; stroke-linejoin:round; stroke-width:2; stroke-opacity:0.1; fill:none" points="170.857,505.889 2352.76,505.889 "/>
<polyline clip-path="url(#clip751)" style="stroke:#000000; stroke-linecap:round; stroke-linejoin:round; stroke-width:2; stroke-opacity:0.1; fill:none" points="170.857,47.2441 2352.76,47.2441 "/>
<polyline clip-path="url(#clip750)" style="stroke:#000000; stroke-linecap:round; stroke-linejoin:round; stroke-width:4; stroke-opacity:1; fill:none" points="170.857,1423.18 2352.76,1423.18 "/>
<polyline clip-path="url(#clip750)" style="stroke:#000000; stroke-linecap:round; stroke-linejoin:round; stroke-width:4; stroke-opacity:1; fill:none" points="541.368,1423.18 541.368,1404.28 "/>
<polyline clip-path="url(#clip750)" style="stroke:#000000; stroke-linecap:round; stroke-linejoin:round; stroke-width:4; stroke-opacity:1; fill:none" points="1055.97,1423.18 1055.97,1404.28 "/>
<polyline clip-path="url(#clip750)" style="stroke:#000000; stroke-linecap:round; stroke-linejoin:round; stroke-width:4; stroke-opacity:1; fill:none" points="1570.57,1423.18 1570.57,1404.28 "/>
<polyline clip-path="url(#clip750)" style="stroke:#000000; stroke-linecap:round; stroke-linejoin:round; stroke-width:4; stroke-opacity:1; fill:none" points="2085.16,1423.18 2085.16,1404.28 "/>
<path clip-path="url(#clip750)" d="M515.223 1451.02 L537.445 1451.02 L537.445 1453.01 L524.899 1485.58 L520.014 1485.58 L531.82 1454.96 L515.223 1454.96 L515.223 1451.02 Z" fill="#000000" fill-rule="nonzero" fill-opacity="1" /><path clip-path="url(#clip750)" d="M546.612 1451.02 L564.968 1451.02 L564.968 1454.96 L550.894 1454.96 L550.894 1463.43 Q551.912 1463.08 552.931 1462.92 Q553.949 1462.73 554.968 1462.73 Q560.755 1462.73 564.135 1465.9 Q567.514 1469.08 567.514 1474.49 Q567.514 1480.07 564.042 1483.17 Q560.57 1486.25 554.25 1486.25 Q552.074 1486.25 549.806 1485.88 Q547.561 1485.51 545.153 1484.77 L545.153 1480.07 Q547.237 1481.2 549.459 1481.76 Q551.681 1482.32 554.158 1482.32 Q558.162 1482.32 560.5 1480.21 Q562.838 1478.1 562.838 1474.49 Q562.838 1470.88 560.5 1468.77 Q558.162 1466.67 554.158 1466.67 Q552.283 1466.67 550.408 1467.08 Q548.556 1467.5 546.612 1468.38 L546.612 1451.02 Z" fill="#000000" fill-rule="nonzero" fill-opacity="1" /><path clip-path="url(#clip750)" d="M1015.57 1481.64 L1023.21 1481.64 L1023.21 1455.28 L1014.9 1456.95 L1014.9 1452.69 L1023.17 1451.02 L1027.84 1451.02 L1027.84 1481.64 L1035.48 1481.64 L1035.48 1485.58 L1015.57 1485.58 L1015.57 1481.64 Z" fill="#000000" fill-rule="nonzero" fill-opacity="1" /><path clip-path="url(#clip750)" d="M1054.93 1454.1 Q1051.31 1454.1 1049.49 1457.66 Q1047.68 1461.2 1047.68 1468.33 Q1047.68 1475.44 1049.49 1479.01 Q1051.31 1482.55 1054.93 1482.55 Q1058.56 1482.55 1060.37 1479.01 Q1062.19 1475.44 1062.19 1468.33 Q1062.19 1461.2 1060.37 1457.66 Q1058.56 1454.1 1054.93 1454.1 M1054.93 1450.39 Q1060.74 1450.39 1063.79 1455 Q1066.87 1459.58 1066.87 1468.33 Q1066.87 1477.06 1063.79 1481.67 Q1060.74 1486.25 1054.93 1486.25 Q1049.12 1486.25 1046.04 1481.67 Q1042.98 1477.06 1042.98 1468.33 Q1042.98 1459.58 1046.04 1455 Q1049.12 1450.39 1054.93 1450.39 Z" fill="#000000" fill-rule="nonzero" fill-opacity="1" /><path clip-path="url(#clip750)" d="M1085.09 1454.1 Q1081.48 1454.1 1079.65 1457.66 Q1077.84 1461.2 1077.84 1468.33 Q1077.84 1475.44 1079.65 1479.01 Q1081.48 1482.55 1085.09 1482.55 Q1088.72 1482.55 1090.53 1479.01 Q1092.36 1475.44 1092.36 1468.33 Q1092.36 1461.2 1090.53 1457.66 Q1088.72 1454.1 1085.09 1454.1 M1085.09 1450.39 Q1090.9 1450.39 1093.95 1455 Q1097.03 1459.58 1097.03 1468.33 Q1097.03 1477.06 1093.95 1481.67 Q1090.9 1486.25 1085.09 1486.25 Q1079.28 1486.25 1076.2 1481.67 Q1073.14 1477.06 1073.14 1468.33 Q1073.14 1459.58 1076.2 1455 Q1079.28 1450.39 1085.09 1450.39 Z" fill="#000000" fill-rule="nonzero" fill-opacity="1" /><path clip-path="url(#clip750)" d="M1530.67 1481.64 L1538.31 1481.64 L1538.31 1455.28 L1530 1456.95 L1530 1452.69 L1538.26 1451.02 L1542.94 1451.02 L1542.94 1481.64 L1550.58 1481.64 L1550.58 1485.58 L1530.67 1485.58 L1530.67 1481.64 Z" fill="#000000" fill-rule="nonzero" fill-opacity="1" /><path clip-path="url(#clip750)" d="M1564.05 1481.64 L1580.37 1481.64 L1580.37 1485.58 L1558.42 1485.58 L1558.42 1481.64 Q1561.09 1478.89 1565.67 1474.26 Q1570.28 1469.61 1571.46 1468.27 Q1573.7 1465.74 1574.58 1464.01 Q1575.48 1462.25 1575.48 1460.56 Q1575.48 1457.8 1573.54 1456.07 Q1571.62 1454.33 1568.52 1454.33 Q1566.32 1454.33 1563.86 1455.09 Q1561.43 1455.86 1558.66 1457.41 L1558.66 1452.69 Q1561.48 1451.55 1563.93 1450.97 Q1566.39 1450.39 1568.42 1450.39 Q1573.8 1450.39 1576.99 1453.08 Q1580.18 1455.77 1580.18 1460.26 Q1580.18 1462.39 1579.37 1464.31 Q1578.59 1466.2 1576.48 1468.8 Q1575.9 1469.47 1572.8 1472.69 Q1569.7 1475.88 1564.05 1481.64 Z" fill="#000000" fill-rule="nonzero" fill-opacity="1" /><path clip-path="url(#clip750)" d="M1590.23 1451.02 L1608.59 1451.02 L1608.59 1454.96 L1594.51 1454.96 L1594.51 1463.43 Q1595.53 1463.08 1596.55 1462.92 Q1597.57 1462.73 1598.59 1462.73 Q1604.37 1462.73 1607.75 1465.9 Q1611.13 1469.08 1611.13 1474.49 Q1611.13 1480.07 1607.66 1483.17 Q1604.19 1486.25 1597.87 1486.25 Q1595.69 1486.25 1593.42 1485.88 Q1591.18 1485.51 1588.77 1484.77 L1588.77 1480.07 Q1590.86 1481.2 1593.08 1481.76 Q1595.3 1482.32 1597.78 1482.32 Q1601.78 1482.32 1604.12 1480.21 Q1606.46 1478.1 1606.46 1474.49 Q1606.46 1470.88 1604.12 1468.77 Q1601.78 1466.67 1597.78 1466.67 Q1595.9 1466.67 1594.03 1467.08 Q1592.17 1467.5 1590.23 1468.38 L1590.23 1451.02 Z" fill="#000000" fill-rule="nonzero" fill-opacity="1" /><path clip-path="url(#clip750)" d="M2044.77 1481.64 L2052.41 1481.64 L2052.41 1455.28 L2044.1 1456.95 L2044.1 1452.69 L2052.36 1451.02 L2057.04 1451.02 L2057.04 1481.64 L2064.68 1481.64 L2064.68 1485.58 L2044.77 1485.58 L2044.77 1481.64 Z" fill="#000000" fill-rule="nonzero" fill-opacity="1" /><path clip-path="url(#clip750)" d="M2074.17 1451.02 L2092.53 1451.02 L2092.53 1454.96 L2078.45 1454.96 L2078.45 1463.43 Q2079.47 1463.08 2080.49 1462.92 Q2081.51 1462.73 2082.53 1462.73 Q2088.31 1462.73 2091.69 1465.9 Q2095.07 1469.08 2095.07 1474.49 Q2095.07 1480.07 2091.6 1483.17 Q2088.13 1486.25 2081.81 1486.25 Q2079.63 1486.25 2077.36 1485.88 Q2075.12 1485.51 2072.71 1484.77 L2072.71 1480.07 Q2074.79 1481.2 2077.02 1481.76 Q2079.24 1482.32 2081.72 1482.32 Q2085.72 1482.32 2088.06 1480.21 Q2090.4 1478.1 2090.4 1474.49 Q2090.4 1470.88 2088.06 1468.77 Q2085.72 1466.67 2081.72 1466.67 Q2079.84 1466.67 2077.97 1467.08 Q2076.11 1467.5 2074.17 1468.38 L2074.17 1451.02 Z" fill="#000000" fill-rule="nonzero" fill-opacity="1" /><path clip-path="url(#clip750)" d="M2114.28 1454.1 Q2110.67 1454.1 2108.85 1457.66 Q2107.04 1461.2 2107.04 1468.33 Q2107.04 1475.44 2108.85 1479.01 Q2110.67 1482.55 2114.28 1482.55 Q2117.92 1482.55 2119.72 1479.01 Q2121.55 1475.44 2121.55 1468.33 Q2121.55 1461.2 2119.72 1457.66 Q2117.92 1454.1 2114.28 1454.1 M2114.28 1450.39 Q2120.09 1450.39 2123.15 1455 Q2126.23 1459.58 2126.23 1468.33 Q2126.23 1477.06 2123.15 1481.67 Q2120.09 1486.25 2114.28 1486.25 Q2108.47 1486.25 2105.4 1481.67 Q2102.34 1477.06 2102.34 1468.33 Q2102.34 1459.58 2105.4 1455 Q2108.47 1450.39 2114.28 1450.39 Z" fill="#000000" fill-rule="nonzero" fill-opacity="1" /><path clip-path="url(#clip750)" d="M699.19 1545.76 Q701.258 1546.46 703.2 1548.76 Q705.173 1551.05 707.147 1555.06 L713.672 1568.04 L706.765 1568.04 L700.686 1555.85 Q698.33 1551.08 696.102 1549.52 Q693.906 1547.96 690.087 1547.96 L683.084 1547.96 L683.084 1568.04 L676.655 1568.04 L676.655 1520.52 L691.169 1520.52 Q699.317 1520.52 703.327 1523.93 Q707.338 1527.34 707.338 1534.21 Q707.338 1538.7 705.237 1541.66 Q703.168 1544.62 699.19 1545.76 M683.084 1525.81 L683.084 1542.68 L691.169 1542.68 Q695.816 1542.68 698.171 1540.54 Q700.558 1538.38 700.558 1534.21 Q700.558 1530.04 698.171 1527.94 Q695.816 1525.81 691.169 1525.81 L683.084 1525.81 Z" fill="#000000" fill-rule="nonzero" fill-opacity="1" /><path clip-path="url(#clip750)" d="M736.461 1550.12 Q729.363 1550.12 726.626 1551.75 Q723.889 1553.37 723.889 1557.29 Q723.889 1560.4 725.926 1562.25 Q727.994 1564.07 731.527 1564.07 Q736.397 1564.07 739.325 1560.63 Q742.285 1557.16 742.285 1551.43 L742.285 1550.12 L736.461 1550.12 M748.142 1547.71 L748.142 1568.04 L742.285 1568.04 L742.285 1562.63 Q740.28 1565.88 737.288 1567.44 Q734.296 1568.97 729.968 1568.97 Q724.493 1568.97 721.247 1565.91 Q718.032 1562.82 718.032 1557.67 Q718.032 1551.65 722.042 1548.6 Q726.085 1545.54 734.074 1545.54 L742.285 1545.54 L742.285 1544.97 Q742.285 1540.93 739.612 1538.73 Q736.97 1536.5 732.164 1536.5 Q729.108 1536.5 726.212 1537.23 Q723.316 1537.97 720.642 1539.43 L720.642 1534.02 Q723.857 1532.78 726.88 1532.17 Q729.904 1531.54 732.769 1531.54 Q740.503 1531.54 744.322 1535.55 Q748.142 1539.56 748.142 1547.71 Z" fill="#000000" fill-rule="nonzero" fill-opacity="1" /><path clip-path="url(#clip750)" d="M811.417 1548.76 L811.417 1551.62 L784.49 1551.62 Q784.872 1557.67 788.119 1560.85 Q791.397 1564 797.221 1564 Q800.595 1564 803.746 1563.17 Q806.929 1562.35 810.048 1560.69 L810.048 1566.23 Q806.897 1567.57 803.587 1568.27 Q800.277 1568.97 796.871 1568.97 Q788.341 1568.97 783.344 1564 Q778.379 1559.04 778.379 1550.57 Q778.379 1541.82 783.09 1536.69 Q787.832 1531.54 795.853 1531.54 Q803.046 1531.54 807.216 1536.18 Q811.417 1540.8 811.417 1548.76 M805.561 1547.04 Q805.497 1542.23 802.855 1539.37 Q800.245 1536.5 795.917 1536.5 Q791.015 1536.5 788.055 1539.27 Q785.127 1542.04 784.681 1547.07 L805.561 1547.04 Z" fill="#000000" fill-rule="nonzero" fill-opacity="1" /><path clip-path="url(#clip750)" d="M843.755 1533.45 L843.755 1538.98 Q841.272 1537.71 838.599 1537.07 Q835.925 1536.44 833.06 1536.44 Q828.7 1536.44 826.504 1537.77 Q824.339 1539.11 824.339 1541.79 Q824.339 1543.82 825.899 1545 Q827.459 1546.15 832.169 1547.2 L834.174 1547.64 Q840.413 1548.98 843.023 1551.43 Q845.665 1553.85 845.665 1558.21 Q845.665 1563.17 841.718 1566.07 Q837.803 1568.97 830.928 1568.97 Q828.063 1568.97 824.944 1568.39 Q821.857 1567.85 818.419 1566.74 L818.419 1560.69 Q821.666 1562.38 824.817 1563.24 Q827.968 1564.07 831.055 1564.07 Q835.193 1564.07 837.421 1562.66 Q839.649 1561.23 839.649 1558.65 Q839.649 1556.27 838.026 1554.99 Q836.434 1553.72 830.992 1552.54 L828.955 1552.07 Q823.512 1550.92 821.093 1548.56 Q818.674 1546.18 818.674 1542.04 Q818.674 1537.01 822.239 1534.27 Q825.804 1531.54 832.36 1531.54 Q835.607 1531.54 838.471 1532.01 Q841.336 1532.49 843.755 1533.45 Z" fill="#000000" fill-rule="nonzero" fill-opacity="1" /><path clip-path="url(#clip750)" d="M860.783 1522.27 L860.783 1532.4 L872.846 1532.4 L872.846 1536.95 L860.783 1536.95 L860.783 1556.3 Q860.783 1560.66 861.961 1561.9 Q863.17 1563.14 866.83 1563.14 L872.846 1563.14 L872.846 1568.04 L866.83 1568.04 Q860.051 1568.04 857.473 1565.53 Q854.895 1562.98 854.895 1556.3 L854.895 1536.95 L850.598 1536.95 L850.598 1532.4 L854.895 1532.4 L854.895 1522.27 L860.783 1522.27 Z" fill="#000000" fill-rule="nonzero" fill-opacity="1" /><path clip-path="url(#clip750)" d="M880.549 1532.4 L886.405 1532.4 L886.405 1568.04 L880.549 1568.04 L880.549 1532.4 M880.549 1518.52 L886.405 1518.52 L886.405 1525.93 L880.549 1525.93 L880.549 1518.52 Z" fill="#000000" fill-rule="nonzero" fill-opacity="1" /><path clip-path="url(#clip750)" d="M926.413 1539.24 Q928.61 1535.29 931.665 1533.41 Q934.721 1531.54 938.858 1531.54 Q944.428 1531.54 947.452 1535.45 Q950.476 1539.33 950.476 1546.53 L950.476 1568.04 L944.588 1568.04 L944.588 1546.72 Q944.588 1541.59 942.773 1539.11 Q940.959 1536.63 937.235 1536.63 Q932.684 1536.63 930.042 1539.65 Q927.4 1542.68 927.4 1547.9 L927.4 1568.04 L921.512 1568.04 L921.512 1546.72 Q921.512 1541.56 919.698 1539.11 Q917.883 1536.63 914.096 1536.63 Q909.608 1536.63 906.966 1539.68 Q904.324 1542.71 904.324 1547.9 L904.324 1568.04 L898.436 1568.04 L898.436 1532.4 L904.324 1532.4 L904.324 1537.93 Q906.33 1534.66 909.131 1533.1 Q911.932 1531.54 915.783 1531.54 Q919.666 1531.54 922.371 1533.51 Q925.109 1535.48 926.413 1539.24 Z" fill="#000000" fill-rule="nonzero" fill-opacity="1" /><path clip-path="url(#clip750)" d="M978.358 1550.12 Q971.26 1550.12 968.523 1551.75 Q965.785 1553.37 965.785 1557.29 Q965.785 1560.4 967.822 1562.25 Q969.891 1564.07 973.424 1564.07 Q978.294 1564.07 981.222 1560.63 Q984.182 1557.16 984.182 1551.43 L984.182 1550.12 L978.358 1550.12 M990.039 1547.71 L990.039 1568.04 L984.182 1568.04 L984.182 1562.63 Q982.177 1565.88 979.185 1567.44 Q976.193 1568.97 971.865 1568.97 Q966.39 1568.97 963.144 1565.91 Q959.929 1562.82 959.929 1557.67 Q959.929 1551.65 963.939 1548.6 Q967.982 1545.54 975.971 1545.54 L984.182 1545.54 L984.182 1544.97 Q984.182 1540.93 981.509 1538.73 Q978.867 1536.5 974.061 1536.5 Q971.005 1536.5 968.109 1537.23 Q965.212 1537.97 962.539 1539.43 L962.539 1534.02 Q965.754 1532.78 968.777 1532.17 Q971.801 1531.54 974.666 1531.54 Q982.4 1531.54 986.219 1535.55 Q990.039 1539.56 990.039 1547.71 Z" fill="#000000" fill-rule="nonzero" fill-opacity="1" /><path clip-path="url(#clip750)" d="M1007.89 1522.27 L1007.89 1532.4 L1019.96 1532.4 L1019.96 1536.95 L1007.89 1536.95 L1007.89 1556.3 Q1007.89 1560.66 1009.07 1561.9 Q1010.28 1563.14 1013.94 1563.14 L1019.96 1563.14 L1019.96 1568.04 L1013.94 1568.04 Q1007.16 1568.04 1004.58 1565.53 Q1002.01 1562.98 1002.01 1556.3 L1002.01 1536.95 L997.709 1536.95 L997.709 1532.4 L1002.01 1532.4 L1002.01 1522.27 L1007.89 1522.27 Z" fill="#000000" fill-rule="nonzero" fill-opacity="1" /><path clip-path="url(#clip750)" d="M1058.15 1548.76 L1058.15 1551.62 L1031.22 1551.62 Q1031.61 1557.67 1034.85 1560.85 Q1038.13 1564 1043.96 1564 Q1047.33 1564 1050.48 1563.17 Q1053.66 1562.35 1056.78 1560.69 L1056.78 1566.23 Q1053.63 1567.57 1050.32 1568.27 Q1047.01 1568.97 1043.61 1568.97 Q1035.08 1568.97 1030.08 1564 Q1025.11 1559.04 1025.11 1550.57 Q1025.11 1541.82 1029.82 1536.69 Q1034.57 1531.54 1042.59 1531.54 Q1049.78 1531.54 1053.95 1536.18 Q1058.15 1540.8 1058.15 1548.76 M1052.3 1547.04 Q1052.23 1542.23 1049.59 1539.37 Q1046.98 1536.5 1042.65 1536.5 Q1037.75 1536.5 1034.79 1539.27 Q1031.86 1542.04 1031.42 1547.07 L1052.3 1547.04 Z" fill="#000000" fill-rule="nonzero" fill-opacity="1" /><path clip-path="url(#clip750)" d="M1084.28 1532.4 L1090.49 1532.4 L1101.63 1562.31 L1112.77 1532.4 L1118.98 1532.4 L1105.61 1568.04 L1097.65 1568.04 L1084.28 1532.4 Z" fill="#000000" fill-rule="nonzero" fill-opacity="1" /><path clip-path="url(#clip750)" d="M1127.06 1532.4 L1132.92 1532.4 L1132.92 1568.04 L1127.06 1568.04 L1127.06 1532.4 M1127.06 1518.52 L1132.92 1518.52 L1132.92 1525.93 L1127.06 1525.93 L1127.06 1518.52 Z" fill="#000000" fill-rule="nonzero" fill-opacity="1" /><path clip-path="url(#clip750)" d="M1161.37 1550.12 Q1154.27 1550.12 1151.54 1551.75 Q1148.8 1553.37 1148.8 1557.29 Q1148.8 1560.4 1150.84 1562.25 Q1152.91 1564.07 1156.44 1564.07 Q1161.31 1564.07 1164.24 1560.63 Q1167.2 1557.16 1167.2 1551.43 L1167.2 1550.12 L1161.37 1550.12 M1173.05 1547.71 L1173.05 1568.04 L1167.2 1568.04 L1167.2 1562.63 Q1165.19 1565.88 1162.2 1567.44 Q1159.21 1568.97 1154.88 1568.97 Q1149.4 1568.97 1146.16 1565.91 Q1142.94 1562.82 1142.94 1557.67 Q1142.94 1551.65 1146.95 1548.6 Q1151 1545.54 1158.98 1545.54 L1167.2 1545.54 L1167.2 1544.97 Q1167.2 1540.93 1164.52 1538.73 Q1161.88 1536.5 1157.07 1536.5 Q1154.02 1536.5 1151.12 1537.23 Q1148.23 1537.97 1145.55 1539.43 L1145.55 1534.02 Q1148.77 1532.78 1151.79 1532.17 Q1154.82 1531.54 1157.68 1531.54 Q1165.41 1531.54 1169.23 1535.55 Q1173.05 1539.56 1173.05 1547.71 Z" fill="#000000" fill-rule="nonzero" fill-opacity="1" /><path clip-path="url(#clip750)" d="M1229.29 1537.81 L1229.29 1518.52 L1235.15 1518.52 L1235.15 1568.04 L1229.29 1568.04 L1229.29 1562.7 Q1227.45 1565.88 1224.62 1567.44 Q1221.81 1568.97 1217.87 1568.97 Q1211.41 1568.97 1207.33 1563.81 Q1203.29 1558.65 1203.29 1550.25 Q1203.29 1541.85 1207.33 1536.69 Q1211.41 1531.54 1217.87 1531.54 Q1221.81 1531.54 1224.62 1533.1 Q1227.45 1534.62 1229.29 1537.81 M1209.34 1550.25 Q1209.34 1556.71 1211.98 1560.4 Q1214.65 1564.07 1219.3 1564.07 Q1223.95 1564.07 1226.62 1560.4 Q1229.29 1556.71 1229.29 1550.25 Q1229.29 1543.79 1226.62 1540.13 Q1223.95 1536.44 1219.3 1536.44 Q1214.65 1536.44 1211.98 1540.13 Q1209.34 1543.79 1209.34 1550.25 Z" fill="#000000" fill-rule="nonzero" fill-opacity="1" /><path clip-path="url(#clip750)" d="M1247.21 1532.4 L1253.07 1532.4 L1253.07 1568.04 L1247.21 1568.04 L1247.21 1532.4 M1247.21 1518.52 L1253.07 1518.52 L1253.07 1525.93 L1247.21 1525.93 L1247.21 1518.52 Z" fill="#000000" fill-rule="nonzero" fill-opacity="1" /><path clip-path="url(#clip750)" d="M1290.98 1533.76 L1290.98 1539.24 Q1288.49 1537.87 1285.98 1537.2 Q1283.5 1536.5 1280.95 1536.5 Q1275.25 1536.5 1272.1 1540.13 Q1268.95 1543.73 1268.95 1550.25 Q1268.95 1556.78 1272.1 1560.4 Q1275.25 1564 1280.95 1564 Q1283.5 1564 1285.98 1563.33 Q1288.49 1562.63 1290.98 1561.26 L1290.98 1566.68 Q1288.53 1567.82 1285.88 1568.39 Q1283.28 1568.97 1280.31 1568.97 Q1272.26 1568.97 1267.52 1563.91 Q1262.78 1558.85 1262.78 1550.25 Q1262.78 1541.53 1267.55 1536.53 Q1272.36 1531.54 1280.7 1531.54 Q1283.4 1531.54 1285.98 1532.11 Q1288.56 1532.65 1290.98 1533.76 Z" fill="#000000" fill-rule="nonzero" fill-opacity="1" /><path clip-path="url(#clip750)" d="M1306.96 1522.27 L1306.96 1532.4 L1319.02 1532.4 L1319.02 1536.95 L1306.96 1536.95 L1306.96 1556.3 Q1306.96 1560.66 1308.13 1561.9 Q1309.34 1563.14 1313 1563.14 L1319.02 1563.14 L1319.02 1568.04 L1313 1568.04 Q1306.22 1568.04 1303.65 1565.53 Q1301.07 1562.98 1301.07 1556.3 L1301.07 1536.95 L1296.77 1536.95 L1296.77 1532.4 L1301.07 1532.4 L1301.07 1522.27 L1306.96 1522.27 Z" fill="#000000" fill-rule="nonzero" fill-opacity="1" /><path clip-path="url(#clip750)" d="M1326.72 1532.4 L1332.58 1532.4 L1332.58 1568.04 L1326.72 1568.04 L1326.72 1532.4 M1326.72 1518.52 L1332.58 1518.52 L1332.58 1525.93 L1326.72 1525.93 L1326.72 1518.52 Z" fill="#000000" fill-rule="nonzero" fill-opacity="1" /><path clip-path="url(#clip750)" d="M1358.64 1536.5 Q1353.93 1536.5 1351.2 1540.19 Q1348.46 1543.85 1348.46 1550.25 Q1348.46 1556.65 1351.17 1560.34 Q1353.9 1564 1358.64 1564 Q1363.32 1564 1366.06 1560.31 Q1368.8 1556.62 1368.8 1550.25 Q1368.8 1543.92 1366.06 1540.23 Q1363.32 1536.5 1358.64 1536.5 M1358.64 1531.54 Q1366.28 1531.54 1370.64 1536.5 Q1375 1541.47 1375 1550.25 Q1375 1559 1370.64 1564 Q1366.28 1568.97 1358.64 1568.97 Q1350.97 1568.97 1346.61 1564 Q1342.29 1559 1342.29 1550.25 Q1342.29 1541.47 1346.61 1536.5 Q1350.97 1531.54 1358.64 1531.54 Z" fill="#000000" fill-rule="nonzero" fill-opacity="1" /><path clip-path="url(#clip750)" d="M1414.34 1546.53 L1414.34 1568.04 L1408.49 1568.04 L1408.49 1546.72 Q1408.49 1541.66 1406.52 1539.14 Q1404.54 1536.63 1400.59 1536.63 Q1395.85 1536.63 1393.12 1539.65 Q1390.38 1542.68 1390.38 1547.9 L1390.38 1568.04 L1384.49 1568.04 L1384.49 1532.4 L1390.38 1532.4 L1390.38 1537.93 Q1392.48 1534.72 1395.31 1533.13 Q1398.18 1531.54 1401.9 1531.54 Q1408.04 1531.54 1411.19 1535.36 Q1414.34 1539.14 1414.34 1546.53 Z" fill="#000000" fill-rule="nonzero" fill-opacity="1" /><path clip-path="url(#clip750)" d="M1442.23 1550.12 Q1435.13 1550.12 1432.39 1551.75 Q1429.65 1553.37 1429.65 1557.29 Q1429.65 1560.4 1431.69 1562.25 Q1433.76 1564.07 1437.29 1564.07 Q1442.16 1564.07 1445.09 1560.63 Q1448.05 1557.16 1448.05 1551.43 L1448.05 1550.12 L1442.23 1550.12 M1453.91 1547.71 L1453.91 1568.04 L1448.05 1568.04 L1448.05 1562.63 Q1446.05 1565.88 1443.05 1567.44 Q1440.06 1568.97 1435.73 1568.97 Q1430.26 1568.97 1427.01 1565.91 Q1423.8 1562.82 1423.8 1557.67 Q1423.8 1551.65 1427.81 1548.6 Q1431.85 1545.54 1439.84 1545.54 L1448.05 1545.54 L1448.05 1544.97 Q1448.05 1540.93 1445.38 1538.73 Q1442.74 1536.5 1437.93 1536.5 Q1434.87 1536.5 1431.98 1537.23 Q1429.08 1537.97 1426.41 1539.43 L1426.41 1534.02 Q1429.62 1532.78 1432.65 1532.17 Q1435.67 1531.54 1438.53 1531.54 Q1446.27 1531.54 1450.09 1535.55 Q1453.91 1539.56 1453.91 1547.71 Z" fill="#000000" fill-rule="nonzero" fill-opacity="1" /><path clip-path="url(#clip750)" d="M1486.63 1537.87 Q1485.64 1537.3 1484.46 1537.04 Q1483.32 1536.76 1481.92 1536.76 Q1476.95 1536.76 1474.28 1540 Q1471.64 1543.22 1471.64 1549.27 L1471.64 1568.04 L1465.75 1568.04 L1465.75 1532.4 L1471.64 1532.4 L1471.64 1537.93 Q1473.48 1534.69 1476.44 1533.13 Q1479.4 1531.54 1483.64 1531.54 Q1484.24 1531.54 1484.97 1531.63 Q1485.7 1531.7 1486.6 1531.85 L1486.63 1537.87 Z" fill="#000000" fill-rule="nonzero" fill-opacity="1" /><path clip-path="url(#clip750)" d="M1507.6 1571.35 Q1505.12 1577.72 1502.76 1579.66 Q1500.41 1581.6 1496.46 1581.6 L1491.78 1581.6 L1491.78 1576.7 L1495.22 1576.7 Q1497.64 1576.7 1498.98 1575.56 Q1500.31 1574.41 1501.94 1570.14 L1502.99 1567.47 L1488.57 1532.4 L1494.78 1532.4 L1505.92 1560.28 L1517.06 1532.4 L1523.26 1532.4 L1507.6 1571.35 Z" fill="#000000" fill-rule="nonzero" fill-opacity="1" /><path clip-path="url(#clip750)" d="M1579.82 1539.24 Q1582.02 1535.29 1585.07 1533.41 Q1588.13 1531.54 1592.27 1531.54 Q1597.84 1531.54 1600.86 1535.45 Q1603.88 1539.33 1603.88 1546.53 L1603.88 1568.04 L1598 1568.04 L1598 1546.72 Q1598 1541.59 1596.18 1539.11 Q1594.37 1536.63 1590.64 1536.63 Q1586.09 1536.63 1583.45 1539.65 Q1580.81 1542.68 1580.81 1547.9 L1580.81 1568.04 L1574.92 1568.04 L1574.92 1546.72 Q1574.92 1541.56 1573.11 1539.11 Q1571.29 1536.63 1567.5 1536.63 Q1563.02 1536.63 1560.37 1539.68 Q1557.73 1542.71 1557.73 1547.9 L1557.73 1568.04 L1551.84 1568.04 L1551.84 1532.4 L1557.73 1532.4 L1557.73 1537.93 Q1559.74 1534.66 1562.54 1533.1 Q1565.34 1531.54 1569.19 1531.54 Q1573.07 1531.54 1575.78 1533.51 Q1578.52 1535.48 1579.82 1539.24 Z" fill="#000000" fill-rule="nonzero" fill-opacity="1" /><path clip-path="url(#clip750)" d="M1631.77 1550.12 Q1624.67 1550.12 1621.93 1551.75 Q1619.19 1553.37 1619.19 1557.29 Q1619.19 1560.4 1621.23 1562.25 Q1623.3 1564.07 1626.83 1564.07 Q1631.7 1564.07 1634.63 1560.63 Q1637.59 1557.16 1637.59 1551.43 L1637.59 1550.12 L1631.77 1550.12 M1643.45 1547.71 L1643.45 1568.04 L1637.59 1568.04 L1637.59 1562.63 Q1635.59 1565.88 1632.59 1567.44 Q1629.6 1568.97 1625.27 1568.97 Q1619.8 1568.97 1616.55 1565.91 Q1613.34 1562.82 1613.34 1557.67 Q1613.34 1551.65 1617.35 1548.6 Q1621.39 1545.54 1629.38 1545.54 L1637.59 1545.54 L1637.59 1544.97 Q1637.59 1540.93 1634.92 1538.73 Q1632.27 1536.5 1627.47 1536.5 Q1624.41 1536.5 1621.52 1537.23 Q1618.62 1537.97 1615.95 1539.43 L1615.95 1534.02 Q1619.16 1532.78 1622.19 1532.17 Q1625.21 1531.54 1628.07 1531.54 Q1635.81 1531.54 1639.63 1535.55 Q1643.45 1539.56 1643.45 1547.71 Z" fill="#000000" fill-rule="nonzero" fill-opacity="1" /><path clip-path="url(#clip750)" d="M1661.3 1522.27 L1661.3 1532.4 L1673.37 1532.4 L1673.37 1536.95 L1661.3 1536.95 L1661.3 1556.3 Q1661.3 1560.66 1662.48 1561.9 Q1663.69 1563.14 1667.35 1563.14 L1673.37 1563.14 L1673.37 1568.04 L1667.35 1568.04 Q1660.57 1568.04 1657.99 1565.53 Q1655.41 1562.98 1655.41 1556.3 L1655.41 1536.95 L1651.12 1536.95 L1651.12 1532.4 L1655.41 1532.4 L1655.41 1522.27 L1661.3 1522.27 Z" fill="#000000" fill-rule="nonzero" fill-opacity="1" /><path clip-path="url(#clip750)" d="M1706.72 1533.76 L1706.72 1539.24 Q1704.24 1537.87 1701.72 1537.2 Q1699.24 1536.5 1696.7 1536.5 Q1691 1536.5 1687.85 1540.13 Q1684.7 1543.73 1684.7 1550.25 Q1684.7 1556.78 1687.85 1560.4 Q1691 1564 1696.7 1564 Q1699.24 1564 1701.72 1563.33 Q1704.24 1562.63 1706.72 1561.26 L1706.72 1566.68 Q1704.27 1567.82 1701.63 1568.39 Q1699.02 1568.97 1696.06 1568.97 Q1688.01 1568.97 1683.26 1563.91 Q1678.52 1558.85 1678.52 1550.25 Q1678.52 1541.53 1683.3 1536.53 Q1688.1 1531.54 1696.44 1531.54 Q1699.15 1531.54 1701.72 1532.11 Q1704.3 1532.65 1706.72 1533.76 Z" fill="#000000" fill-rule="nonzero" fill-opacity="1" /><path clip-path="url(#clip750)" d="M1746.54 1546.53 L1746.54 1568.04 L1740.68 1568.04 L1740.68 1546.72 Q1740.68 1541.66 1738.71 1539.14 Q1736.74 1536.63 1732.79 1536.63 Q1728.05 1536.63 1725.31 1539.65 Q1722.57 1542.68 1722.57 1547.9 L1722.57 1568.04 L1716.68 1568.04 L1716.68 1518.52 L1722.57 1518.52 L1722.57 1537.93 Q1724.67 1534.72 1727.51 1533.13 Q1730.37 1531.54 1734.09 1531.54 Q1740.24 1531.54 1743.39 1535.36 Q1746.54 1539.14 1746.54 1546.53 Z" fill="#000000" fill-rule="nonzero" fill-opacity="1" /><path clip-path="url(#clip750)" d="M1758.22 1532.4 L1764.08 1532.4 L1764.08 1568.04 L1758.22 1568.04 L1758.22 1532.4 M1758.22 1518.52 L1764.08 1518.52 L1764.08 1525.93 L1758.22 1525.93 L1758.22 1518.52 Z" fill="#000000" fill-rule="nonzero" fill-opacity="1" /><path clip-path="url(#clip750)" d="M1805.96 1546.53 L1805.96 1568.04 L1800.11 1568.04 L1800.11 1546.72 Q1800.11 1541.66 1798.13 1539.14 Q1796.16 1536.63 1792.21 1536.63 Q1787.47 1536.63 1784.73 1539.65 Q1782 1542.68 1782 1547.9 L1782 1568.04 L1776.11 1568.04 L1776.11 1532.4 L1782 1532.4 L1782 1537.93 Q1784.1 1534.72 1786.93 1533.13 Q1789.79 1531.54 1793.52 1531.54 Q1799.66 1531.54 1802.81 1535.36 Q1805.96 1539.14 1805.96 1546.53 Z" fill="#000000" fill-rule="nonzero" fill-opacity="1" /><path clip-path="url(#clip750)" d="M1841.1 1549.81 Q1841.1 1543.44 1838.46 1539.94 Q1835.85 1536.44 1831.11 1536.44 Q1826.4 1536.44 1823.76 1539.94 Q1821.15 1543.44 1821.15 1549.81 Q1821.15 1556.14 1823.76 1559.64 Q1826.4 1563.14 1831.11 1563.14 Q1835.85 1563.14 1838.46 1559.64 Q1841.1 1556.14 1841.1 1549.81 M1846.96 1563.62 Q1846.96 1572.72 1842.92 1577.15 Q1838.87 1581.6 1830.53 1581.6 Q1827.45 1581.6 1824.71 1581.13 Q1821.97 1580.68 1819.39 1579.72 L1819.39 1574.03 Q1821.97 1575.43 1824.49 1576.1 Q1827 1576.76 1829.61 1576.76 Q1835.37 1576.76 1838.24 1573.74 Q1841.1 1570.75 1841.1 1564.67 L1841.1 1561.77 Q1839.29 1564.92 1836.45 1566.48 Q1833.62 1568.04 1829.68 1568.04 Q1823.12 1568.04 1819.11 1563.05 Q1815.1 1558.05 1815.1 1549.81 Q1815.1 1541.53 1819.11 1536.53 Q1823.12 1531.54 1829.68 1531.54 Q1833.62 1531.54 1836.45 1533.1 Q1839.29 1534.66 1841.1 1537.81 L1841.1 1532.4 L1846.96 1532.4 L1846.96 1563.62 Z" fill="#000000" fill-rule="nonzero" fill-opacity="1" /><polyline clip-path="url(#clip750)" style="stroke:#000000; stroke-linecap:round; stroke-linejoin:round; stroke-width:4; stroke-opacity:1; fill:none" points="170.857,1423.18 170.857,47.2441 "/>
<polyline clip-path="url(#clip750)" style="stroke:#000000; stroke-linecap:round; stroke-linejoin:round; stroke-width:4; stroke-opacity:1; fill:none" points="170.857,1423.18 189.755,1423.18 "/>
<polyline clip-path="url(#clip750)" style="stroke:#000000; stroke-linecap:round; stroke-linejoin:round; stroke-width:4; stroke-opacity:1; fill:none" points="170.857,964.535 189.755,964.535 "/>
<polyline clip-path="url(#clip750)" style="stroke:#000000; stroke-linecap:round; stroke-linejoin:round; stroke-width:4; stroke-opacity:1; fill:none" points="170.857,505.889 189.755,505.889 "/>
<polyline clip-path="url(#clip750)" style="stroke:#000000; stroke-linecap:round; stroke-linejoin:round; stroke-width:4; stroke-opacity:1; fill:none" points="170.857,47.2441 189.755,47.2441 "/>
<path clip-path="url(#clip750)" d="M122.913 1408.98 Q119.302 1408.98 117.473 1412.54 Q115.668 1416.08 115.668 1423.21 Q115.668 1430.32 117.473 1433.89 Q119.302 1437.43 122.913 1437.43 Q126.547 1437.43 128.353 1433.89 Q130.182 1430.32 130.182 1423.21 Q130.182 1416.08 128.353 1412.54 Q126.547 1408.98 122.913 1408.98 M122.913 1405.27 Q128.723 1405.27 131.779 1409.88 Q134.857 1414.46 134.857 1423.21 Q134.857 1431.94 131.779 1436.55 Q128.723 1441.13 122.913 1441.13 Q117.103 1441.13 114.024 1436.55 Q110.969 1431.94 110.969 1423.21 Q110.969 1414.46 114.024 1409.88 Q117.103 1405.27 122.913 1405.27 Z" fill="#000000" fill-rule="nonzero" fill-opacity="1" /><path clip-path="url(#clip750)" d="M53.3995 977.879 L61.0384 977.879 L61.0384 951.514 L52.7282 953.18 L52.7282 948.921 L60.9921 947.255 L65.668 947.255 L65.668 977.879 L73.3068 977.879 L73.3068 981.815 L53.3995 981.815 L53.3995 977.879 Z" fill="#000000" fill-rule="nonzero" fill-opacity="1" /><path clip-path="url(#clip750)" d="M92.7512 950.333 Q89.1401 950.333 87.3114 953.898 Q85.5058 957.44 85.5058 964.569 Q85.5058 971.676 87.3114 975.241 Q89.1401 978.782 92.7512 978.782 Q96.3854 978.782 98.1909 975.241 Q100.02 971.676 100.02 964.569 Q100.02 957.44 98.1909 953.898 Q96.3854 950.333 92.7512 950.333 M92.7512 946.63 Q98.5613 946.63 101.617 951.236 Q104.696 955.819 104.696 964.569 Q104.696 973.296 101.617 977.903 Q98.5613 982.486 92.7512 982.486 Q86.941 982.486 83.8623 977.903 Q80.8068 973.296 80.8068 964.569 Q80.8068 955.819 83.8623 951.236 Q86.941 946.63 92.7512 946.63 Z" fill="#000000" fill-rule="nonzero" fill-opacity="1" /><path clip-path="url(#clip750)" d="M122.913 950.333 Q119.302 950.333 117.473 953.898 Q115.668 957.44 115.668 964.569 Q115.668 971.676 117.473 975.241 Q119.302 978.782 122.913 978.782 Q126.547 978.782 128.353 975.241 Q130.182 971.676 130.182 964.569 Q130.182 957.44 128.353 953.898 Q126.547 950.333 122.913 950.333 M122.913 946.63 Q128.723 946.63 131.779 951.236 Q134.857 955.819 134.857 964.569 Q134.857 973.296 131.779 977.903 Q128.723 982.486 122.913 982.486 Q117.103 982.486 114.024 977.903 Q110.969 973.296 110.969 964.569 Q110.969 955.819 114.024 951.236 Q117.103 946.63 122.913 946.63 Z" fill="#000000" fill-rule="nonzero" fill-opacity="1" /><path clip-path="url(#clip750)" d="M56.6171 519.234 L72.9365 519.234 L72.9365 523.169 L50.9921 523.169 L50.9921 519.234 Q53.6541 516.48 58.2375 511.85 Q62.8439 507.197 64.0245 505.855 Q66.2698 503.331 67.1494 501.595 Q68.0522 499.836 68.0522 498.146 Q68.0522 495.392 66.1078 493.656 Q64.1865 491.92 61.0847 491.92 Q58.8856 491.92 56.4319 492.683 Q54.0014 493.447 51.2236 494.998 L51.2236 490.276 Q54.0477 489.142 56.5014 488.563 Q58.955 487.984 60.9921 487.984 Q66.3624 487.984 69.5568 490.67 Q72.7513 493.355 72.7513 497.845 Q72.7513 499.975 71.9411 501.896 Q71.1541 503.794 69.0476 506.387 Q68.4689 507.058 65.367 510.276 Q62.2652 513.47 56.6171 519.234 Z" fill="#000000" fill-rule="nonzero" fill-opacity="1" /><path clip-path="url(#clip750)" d="M92.7512 491.688 Q89.1401 491.688 87.3114 495.253 Q85.5058 498.794 85.5058 505.924 Q85.5058 513.031 87.3114 516.595 Q89.1401 520.137 92.7512 520.137 Q96.3854 520.137 98.1909 516.595 Q100.02 513.031 100.02 505.924 Q100.02 498.794 98.1909 495.253 Q96.3854 491.688 92.7512 491.688 M92.7512 487.984 Q98.5613 487.984 101.617 492.591 Q104.696 497.174 104.696 505.924 Q104.696 514.651 101.617 519.257 Q98.5613 523.841 92.7512 523.841 Q86.941 523.841 83.8623 519.257 Q80.8068 514.651 80.8068 505.924 Q80.8068 497.174 83.8623 492.591 Q86.941 487.984 92.7512 487.984 Z" fill="#000000" fill-rule="nonzero" fill-opacity="1" /><path clip-path="url(#clip750)" d="M122.913 491.688 Q119.302 491.688 117.473 495.253 Q115.668 498.794 115.668 505.924 Q115.668 513.031 117.473 516.595 Q119.302 520.137 122.913 520.137 Q126.547 520.137 128.353 516.595 Q130.182 513.031 130.182 505.924 Q130.182 498.794 128.353 495.253 Q126.547 491.688 122.913 491.688 M122.913 487.984 Q128.723 487.984 131.779 492.591 Q134.857 497.174 134.857 505.924 Q134.857 514.651 131.779 519.257 Q128.723 523.841 122.913 523.841 Q117.103 523.841 114.024 519.257 Q110.969 514.651 110.969 505.924 Q110.969 497.174 114.024 492.591 Q117.103 487.984 122.913 487.984 Z" fill="#000000" fill-rule="nonzero" fill-opacity="1" /><path clip-path="url(#clip750)" d="M66.7559 45.8899 Q70.1124 46.6075 71.9874 48.876 Q73.8855 51.1445 73.8855 54.4779 Q73.8855 59.5936 70.367 62.3945 Q66.8485 65.1954 60.3671 65.1954 Q58.1912 65.1954 55.8764 64.7556 Q53.5847 64.3389 51.131 63.4824 L51.131 58.9686 Q53.0754 60.1028 55.3903 60.6815 Q57.7051 61.2602 60.2282 61.2602 Q64.6263 61.2602 66.918 59.5241 Q69.2328 57.788 69.2328 54.4779 Q69.2328 51.4223 67.08 49.7094 Q64.9504 47.9733 61.131 47.9733 L57.1032 47.9733 L57.1032 44.1307 L61.3161 44.1307 Q64.7652 44.1307 66.5939 42.765 Q68.4226 41.3761 68.4226 38.7835 Q68.4226 36.1215 66.5245 34.7094 Q64.6495 33.2743 61.131 33.2743 Q59.2097 33.2743 57.0106 33.6909 Q54.8115 34.1076 52.1727 34.9872 L52.1727 30.8206 Q54.8347 30.0798 57.1495 29.7095 Q59.4875 29.3391 61.5476 29.3391 Q66.8717 29.3391 69.9735 31.7696 Q73.0753 34.177 73.0753 38.2974 Q73.0753 41.1677 71.4318 43.1585 Q69.7883 45.1261 66.7559 45.8899 Z" fill="#000000" fill-rule="nonzero" fill-opacity="1" /><path clip-path="url(#clip750)" d="M92.7512 33.0428 Q89.1401 33.0428 87.3114 36.6076 Q85.5058 40.1492 85.5058 47.2788 Q85.5058 54.3853 87.3114 57.9501 Q89.1401 61.4917 92.7512 61.4917 Q96.3854 61.4917 98.1909 57.9501 Q100.02 54.3853 100.02 47.2788 Q100.02 40.1492 98.1909 36.6076 Q96.3854 33.0428 92.7512 33.0428 M92.7512 29.3391 Q98.5613 29.3391 101.617 33.9456 Q104.696 38.5289 104.696 47.2788 Q104.696 56.0056 101.617 60.6121 Q98.5613 65.1954 92.7512 65.1954 Q86.941 65.1954 83.8623 60.6121 Q80.8068 56.0056 80.8068 47.2788 Q80.8068 38.5289 83.8623 33.9456 Q86.941 29.3391 92.7512 29.3391 Z" fill="#000000" fill-rule="nonzero" fill-opacity="1" /><path clip-path="url(#clip750)" d="M122.913 33.0428 Q119.302 33.0428 117.473 36.6076 Q115.668 40.1492 115.668 47.2788 Q115.668 54.3853 117.473 57.9501 Q119.302 61.4917 122.913 61.4917 Q126.547 61.4917 128.353 57.9501 Q130.182 54.3853 130.182 47.2788 Q130.182 40.1492 128.353 36.6076 Q126.547 33.0428 122.913 33.0428 M122.913 29.3391 Q128.723 29.3391 131.779 33.9456 Q134.857 38.5289 134.857 47.2788 Q134.857 56.0056 131.779 60.6121 Q128.723 65.1954 122.913 65.1954 Q117.103 65.1954 114.024 60.6121 Q110.969 56.0056 110.969 47.2788 Q110.969 38.5289 114.024 33.9456 Q117.103 29.3391 122.913 29.3391 Z" fill="#000000" fill-rule="nonzero" fill-opacity="1" /><path clip-path="url(#clip751)" d="M232.609 1423.18 L232.609 1423.18 L335.529 1423.18 L335.529 1423.18 L232.609 1423.18 L232.609 1423.18  Z" fill="#009af9" fill-rule="evenodd" fill-opacity="1"/>
<polyline clip-path="url(#clip751)" style="stroke:#000000; stroke-linecap:round; stroke-linejoin:round; stroke-width:8; stroke-opacity:1; fill:none" points="232.609,1423.18 232.609,1423.18 335.529,1423.18 232.609,1423.18 "/>
<path clip-path="url(#clip751)" d="M335.529 1418.59 L335.529 1423.18 L438.449 1423.18 L438.449 1418.59 L335.529 1418.59 L335.529 1418.59  Z" fill="#009af9" fill-rule="evenodd" fill-opacity="1"/>
<polyline clip-path="url(#clip751)" style="stroke:#000000; stroke-linecap:round; stroke-linejoin:round; stroke-width:8; stroke-opacity:1; fill:none" points="335.529,1418.59 335.529,1423.18 438.449,1423.18 438.449,1418.59 335.529,1418.59 "/>
<path clip-path="url(#clip751)" d="M438.449 1313.1 L438.449 1423.18 L541.368 1423.18 L541.368 1313.1 L438.449 1313.1 L438.449 1313.1  Z" fill="#009af9" fill-rule="evenodd" fill-opacity="1"/>
<polyline clip-path="url(#clip751)" style="stroke:#000000; stroke-linecap:round; stroke-linejoin:round; stroke-width:8; stroke-opacity:1; fill:none" points="438.449,1313.1 438.449,1423.18 541.368,1423.18 541.368,1313.1 438.449,1313.1 "/>
<path clip-path="url(#clip751)" d="M541.368 1170.92 L541.368 1423.18 L644.288 1423.18 L644.288 1170.92 L541.368 1170.92 L541.368 1170.92  Z" fill="#009af9" fill-rule="evenodd" fill-opacity="1"/>
<polyline clip-path="url(#clip751)" style="stroke:#000000; stroke-linecap:round; stroke-linejoin:round; stroke-width:8; stroke-opacity:1; fill:none" points="541.368,1170.92 541.368,1423.18 644.288,1423.18 644.288,1170.92 541.368,1170.92 "/>
<path clip-path="url(#clip751)" d="M644.288 794.836 L644.288 1423.18 L747.208 1423.18 L747.208 794.836 L644.288 794.836 L644.288 794.836  Z" fill="#009af9" fill-rule="evenodd" fill-opacity="1"/>
<polyline clip-path="url(#clip751)" style="stroke:#000000; stroke-linecap:round; stroke-linejoin:round; stroke-width:8; stroke-opacity:1; fill:none" points="644.288,794.836 644.288,1423.18 747.208,1423.18 747.208,794.836 644.288,794.836 "/>
<path clip-path="url(#clip751)" d="M747.208 473.784 L747.208 1423.18 L850.128 1423.18 L850.128 473.784 L747.208 473.784 L747.208 473.784  Z" fill="#009af9" fill-rule="evenodd" fill-opacity="1"/>
<polyline clip-path="url(#clip751)" style="stroke:#000000; stroke-linecap:round; stroke-linejoin:round; stroke-width:8; stroke-opacity:1; fill:none" points="747.208,473.784 747.208,1423.18 850.128,1423.18 850.128,473.784 747.208,473.784 "/>
<path clip-path="url(#clip751)" d="M850.128 51.8305 L850.128 1423.18 L953.047 1423.18 L953.047 51.8305 L850.128 51.8305 L850.128 51.8305  Z" fill="#009af9" fill-rule="evenodd" fill-opacity="1"/>
<polyline clip-path="url(#clip751)" style="stroke:#000000; stroke-linecap:round; stroke-linejoin:round; stroke-width:8; stroke-opacity:1; fill:none" points="850.128,51.8305 850.128,1423.18 953.047,1423.18 953.047,51.8305 850.128,51.8305 "/>
<path clip-path="url(#clip751)" d="M953.047 97.6951 L953.047 1423.18 L1055.97 1423.18 L1055.97 97.6951 L953.047 97.6951 L953.047 97.6951  Z" fill="#009af9" fill-rule="evenodd" fill-opacity="1"/>
<polyline clip-path="url(#clip751)" style="stroke:#000000; stroke-linecap:round; stroke-linejoin:round; stroke-width:8; stroke-opacity:1; fill:none" points="953.047,97.6951 953.047,1423.18 1055.97,1423.18 1055.97,97.6951 953.047,97.6951 "/>
<path clip-path="url(#clip751)" d="M1055.97 106.868 L1055.97 1423.18 L1158.89 1423.18 L1158.89 106.868 L1055.97 106.868 L1055.97 106.868  Z" fill="#009af9" fill-rule="evenodd" fill-opacity="1"/>
<polyline clip-path="url(#clip751)" style="stroke:#000000; stroke-linecap:round; stroke-linejoin:round; stroke-width:8; stroke-opacity:1; fill:none" points="1055.97,106.868 1055.97,1423.18 1158.89,1423.18 1158.89,106.868 1055.97,106.868 "/>
<path clip-path="url(#clip751)" d="M1158.89 418.747 L1158.89 1423.18 L1261.81 1423.18 L1261.81 418.747 L1158.89 418.747 L1158.89 418.747  Z" fill="#009af9" fill-rule="evenodd" fill-opacity="1"/>
<polyline clip-path="url(#clip751)" style="stroke:#000000; stroke-linecap:round; stroke-linejoin:round; stroke-width:8; stroke-opacity:1; fill:none" points="1158.89,418.747 1158.89,1423.18 1261.81,1423.18 1261.81,418.747 1158.89,418.747 "/>
<path clip-path="url(#clip751)" d="M1261.81 657.242 L1261.81 1423.18 L1364.73 1423.18 L1364.73 657.242 L1261.81 657.242 L1261.81 657.242  Z" fill="#009af9" fill-rule="evenodd" fill-opacity="1"/>
<polyline clip-path="url(#clip751)" style="stroke:#000000; stroke-linecap:round; stroke-linejoin:round; stroke-width:8; stroke-opacity:1; fill:none" points="1261.81,657.242 1261.81,1423.18 1364.73,1423.18 1364.73,657.242 1261.81,657.242 "/>
<path clip-path="url(#clip751)" d="M1364.73 849.873 L1364.73 1423.18 L1467.65 1423.18 L1467.65 849.873 L1364.73 849.873 L1364.73 849.873  Z" fill="#009af9" fill-rule="evenodd" fill-opacity="1"/>
<polyline clip-path="url(#clip751)" style="stroke:#000000; stroke-linecap:round; stroke-linejoin:round; stroke-width:8; stroke-opacity:1; fill:none" points="1364.73,849.873 1364.73,1423.18 1467.65,1423.18 1467.65,849.873 1364.73,849.873 "/>
<path clip-path="url(#clip751)" d="M1467.65 1134.23 L1467.65 1423.18 L1570.57 1423.18 L1570.57 1134.23 L1467.65 1134.23 L1467.65 1134.23  Z" fill="#009af9" fill-rule="evenodd" fill-opacity="1"/>
<polyline clip-path="url(#clip751)" style="stroke:#000000; stroke-linecap:round; stroke-linejoin:round; stroke-width:8; stroke-opacity:1; fill:none" points="1467.65,1134.23 1467.65,1423.18 1570.57,1423.18 1570.57,1134.23 1467.65,1134.23 "/>
<path clip-path="url(#clip751)" d="M1570.57 1212.2 L1570.57 1423.18 L1673.49 1423.18 L1673.49 1212.2 L1570.57 1212.2 L1570.57 1212.2  Z" fill="#009af9" fill-rule="evenodd" fill-opacity="1"/>
<polyline clip-path="url(#clip751)" style="stroke:#000000; stroke-linecap:round; stroke-linejoin:round; stroke-width:8; stroke-opacity:1; fill:none" points="1570.57,1212.2 1570.57,1423.18 1673.49,1423.18 1673.49,1212.2 1570.57,1212.2 "/>
<path clip-path="url(#clip751)" d="M1673.49 1285.59 L1673.49 1423.18 L1776.41 1423.18 L1776.41 1285.59 L1673.49 1285.59 L1673.49 1285.59  Z" fill="#009af9" fill-rule="evenodd" fill-opacity="1"/>
<polyline clip-path="url(#clip751)" style="stroke:#000000; stroke-linecap:round; stroke-linejoin:round; stroke-width:8; stroke-opacity:1; fill:none" points="1673.49,1285.59 1673.49,1423.18 1776.41,1423.18 1776.41,1285.59 1673.49,1285.59 "/>
<path clip-path="url(#clip751)" d="M1776.41 1340.62 L1776.41 1423.18 L1879.33 1423.18 L1879.33 1340.62 L1776.41 1340.62 L1776.41 1340.62  Z" fill="#009af9" fill-rule="evenodd" fill-opacity="1"/>
<polyline clip-path="url(#clip751)" style="stroke:#000000; stroke-linecap:round; stroke-linejoin:round; stroke-width:8; stroke-opacity:1; fill:none" points="1776.41,1340.62 1776.41,1423.18 1879.33,1423.18 1879.33,1340.62 1776.41,1340.62 "/>
<path clip-path="url(#clip751)" d="M1879.33 1368.14 L1879.33 1423.18 L1982.24 1423.18 L1982.24 1368.14 L1879.33 1368.14 L1879.33 1368.14  Z" fill="#009af9" fill-rule="evenodd" fill-opacity="1"/>
<polyline clip-path="url(#clip751)" style="stroke:#000000; stroke-linecap:round; stroke-linejoin:round; stroke-width:8; stroke-opacity:1; fill:none" points="1879.33,1368.14 1879.33,1423.18 1982.24,1423.18 1982.24,1368.14 1879.33,1368.14 "/>
<path clip-path="url(#clip751)" d="M1982.24 1377.32 L1982.24 1423.18 L2085.16 1423.18 L2085.16 1377.32 L1982.24 1377.32 L1982.24 1377.32  Z" fill="#009af9" fill-rule="evenodd" fill-opacity="1"/>
<polyline clip-path="url(#clip751)" style="stroke:#000000; stroke-linecap:round; stroke-linejoin:round; stroke-width:8; stroke-opacity:1; fill:none" points="1982.24,1377.32 1982.24,1423.18 2085.16,1423.18 2085.16,1377.32 1982.24,1377.32 "/>
<path clip-path="url(#clip751)" d="M2085.16 1409.42 L2085.16 1423.18 L2188.08 1423.18 L2188.08 1409.42 L2085.16 1409.42 L2085.16 1409.42  Z" fill="#009af9" fill-rule="evenodd" fill-opacity="1"/>
<polyline clip-path="url(#clip751)" style="stroke:#000000; stroke-linecap:round; stroke-linejoin:round; stroke-width:8; stroke-opacity:1; fill:none" points="2085.16,1409.42 2085.16,1423.18 2188.08,1423.18 2188.08,1409.42 2085.16,1409.42 "/>
<path clip-path="url(#clip751)" d="M2188.08 1400.25 L2188.08 1423.18 L2291 1423.18 L2291 1400.25 L2188.08 1400.25 L2188.08 1400.25  Z" fill="#009af9" fill-rule="evenodd" fill-opacity="1"/>
<polyline clip-path="url(#clip751)" style="stroke:#000000; stroke-linecap:round; stroke-linejoin:round; stroke-width:8; stroke-opacity:1; fill:none" points="2188.08,1400.25 2188.08,1423.18 2291,1423.18 2291,1400.25 2188.08,1400.25 "/>
<circle clip-path="url(#clip751)" style="fill:#009af9; stroke:none; fill-opacity:0" cx="284.069" cy="1423.18" r="2"/>
<circle clip-path="url(#clip751)" style="fill:#009af9; stroke:none; fill-opacity:0" cx="386.989" cy="1418.59" r="2"/>
<circle clip-path="url(#clip751)" style="fill:#009af9; stroke:none; fill-opacity:0" cx="489.909" cy="1313.1" r="2"/>
<circle clip-path="url(#clip751)" style="fill:#009af9; stroke:none; fill-opacity:0" cx="592.828" cy="1170.92" r="2"/>
<circle clip-path="url(#clip751)" style="fill:#009af9; stroke:none; fill-opacity:0" cx="695.748" cy="794.836" r="2"/>
<circle clip-path="url(#clip751)" style="fill:#009af9; stroke:none; fill-opacity:0" cx="798.668" cy="473.784" r="2"/>
<circle clip-path="url(#clip751)" style="fill:#009af9; stroke:none; fill-opacity:0" cx="901.588" cy="51.8305" r="2"/>
<circle clip-path="url(#clip751)" style="fill:#009af9; stroke:none; fill-opacity:0" cx="1004.51" cy="97.6951" r="2"/>
<circle clip-path="url(#clip751)" style="fill:#009af9; stroke:none; fill-opacity:0" cx="1107.43" cy="106.868" r="2"/>
<circle clip-path="url(#clip751)" style="fill:#009af9; stroke:none; fill-opacity:0" cx="1210.35" cy="418.747" r="2"/>
<circle clip-path="url(#clip751)" style="fill:#009af9; stroke:none; fill-opacity:0" cx="1313.27" cy="657.242" r="2"/>
<circle clip-path="url(#clip751)" style="fill:#009af9; stroke:none; fill-opacity:0" cx="1416.19" cy="849.873" r="2"/>
<circle clip-path="url(#clip751)" style="fill:#009af9; stroke:none; fill-opacity:0" cx="1519.11" cy="1134.23" r="2"/>
<circle clip-path="url(#clip751)" style="fill:#009af9; stroke:none; fill-opacity:0" cx="1622.03" cy="1212.2" r="2"/>
<circle clip-path="url(#clip751)" style="fill:#009af9; stroke:none; fill-opacity:0" cx="1724.95" cy="1285.59" r="2"/>
<circle clip-path="url(#clip751)" style="fill:#009af9; stroke:none; fill-opacity:0" cx="1827.87" cy="1340.62" r="2"/>
<circle clip-path="url(#clip751)" style="fill:#009af9; stroke:none; fill-opacity:0" cx="1930.78" cy="1368.14" r="2"/>
<circle clip-path="url(#clip751)" style="fill:#009af9; stroke:none; fill-opacity:0" cx="2033.7" cy="1377.32" r="2"/>
<circle clip-path="url(#clip751)" style="fill:#009af9; stroke:none; fill-opacity:0" cx="2136.62" cy="1409.42" r="2"/>
<circle clip-path="url(#clip751)" style="fill:#009af9; stroke:none; fill-opacity:0" cx="2239.54" cy="1400.25" r="2"/>
<polyline clip-path="url(#clip751)" style="stroke:#e26f46; stroke-linecap:round; stroke-linejoin:round; stroke-width:8; stroke-opacity:1; fill:none" points="1055.97,1423.18 1055.97,47.2441 "/>
<path clip-path="url(#clip750)" d="M1498.76 196.789 L2280.03 196.789 L2280.03 93.1086 L1498.76 93.1086  Z" fill="#ffffff" fill-rule="evenodd" fill-opacity="1"/>
<polyline clip-path="url(#clip750)" style="stroke:#000000; stroke-linecap:round; stroke-linejoin:round; stroke-width:4; stroke-opacity:1; fill:none" points="1498.76,196.789 2280.03,196.789 2280.03,93.1086 1498.76,93.1086 1498.76,196.789 "/>
<path clip-path="url(#clip750)" d="M1523 165.685 L1668.46 165.685 L1668.46 124.213 L1523 124.213 L1523 165.685  Z" fill="#009af9" fill-rule="evenodd" fill-opacity="1"/>
<polyline clip-path="url(#clip750)" style="stroke:#000000; stroke-linecap:round; stroke-linejoin:round; stroke-width:8; stroke-opacity:1; fill:none" points="1523,165.685 1668.46,165.685 1668.46,124.213 1523,124.213 1523,165.685 "/>
<path clip-path="url(#clip750)" d="M1692.71 127.669 L1699.67 127.669 L1708.49 151.187 L1717.36 127.669 L1724.33 127.669 L1724.33 162.229 L1719.77 162.229 L1719.77 131.882 L1710.86 155.585 L1706.16 155.585 L1697.24 131.882 L1697.24 162.229 L1692.71 162.229 L1692.71 127.669 Z" fill="#000000" fill-rule="nonzero" fill-opacity="1" /><path clip-path="url(#clip750)" d="M1755.6 148.201 L1755.6 150.284 L1736.02 150.284 Q1736.29 154.682 1738.66 156.997 Q1741.04 159.289 1745.28 159.289 Q1747.73 159.289 1750.02 158.687 Q1752.34 158.085 1754.6 156.881 L1754.6 160.909 Q1752.31 161.881 1749.91 162.391 Q1747.5 162.9 1745.02 162.9 Q1738.82 162.9 1735.18 159.289 Q1731.57 155.678 1731.57 149.52 Q1731.57 143.155 1735 139.428 Q1738.45 135.678 1744.28 135.678 Q1749.51 135.678 1752.54 139.057 Q1755.6 142.414 1755.6 148.201 M1751.34 146.951 Q1751.29 143.456 1749.37 141.372 Q1747.48 139.289 1744.33 139.289 Q1740.76 139.289 1738.61 141.303 Q1736.48 143.317 1736.16 146.974 L1751.34 146.951 Z" fill="#000000" fill-rule="nonzero" fill-opacity="1" /><path clip-path="url(#clip750)" d="M1774.37 149.196 Q1769.21 149.196 1767.22 150.377 Q1765.23 151.557 1765.23 154.405 Q1765.23 156.673 1766.71 158.016 Q1768.22 159.335 1770.79 159.335 Q1774.33 159.335 1776.46 156.835 Q1778.61 154.312 1778.61 150.145 L1778.61 149.196 L1774.37 149.196 M1782.87 147.437 L1782.87 162.229 L1778.61 162.229 L1778.61 158.293 Q1777.15 160.655 1774.98 161.789 Q1772.8 162.9 1769.65 162.9 Q1765.67 162.9 1763.31 160.678 Q1760.97 158.432 1760.97 154.682 Q1760.97 150.307 1763.89 148.085 Q1766.83 145.863 1772.64 145.863 L1778.61 145.863 L1778.61 145.446 Q1778.61 142.507 1776.66 140.909 Q1774.74 139.289 1771.25 139.289 Q1769.03 139.289 1766.92 139.821 Q1764.81 140.354 1762.87 141.419 L1762.87 137.483 Q1765.21 136.581 1767.41 136.141 Q1769.6 135.678 1771.69 135.678 Q1777.31 135.678 1780.09 138.594 Q1782.87 141.511 1782.87 147.437 Z" fill="#000000" fill-rule="nonzero" fill-opacity="1" /><path clip-path="url(#clip750)" d="M1813.19 146.581 L1813.19 162.229 L1808.93 162.229 L1808.93 146.719 Q1808.93 143.039 1807.5 141.21 Q1806.06 139.382 1803.19 139.382 Q1799.74 139.382 1797.75 141.581 Q1795.76 143.78 1795.76 147.576 L1795.76 162.229 L1791.48 162.229 L1791.48 136.303 L1795.76 136.303 L1795.76 140.331 Q1797.29 137.993 1799.35 136.835 Q1801.43 135.678 1804.14 135.678 Q1808.61 135.678 1810.9 138.456 Q1813.19 141.21 1813.19 146.581 Z" fill="#000000" fill-rule="nonzero" fill-opacity="1" /><path clip-path="url(#clip750)" d="M1822.24 140.701 L1851.92 140.701 L1851.92 144.59 L1822.24 144.59 L1822.24 140.701 M1822.24 150.145 L1851.92 150.145 L1851.92 154.081 L1822.24 154.081 L1822.24 150.145 Z" fill="#000000" fill-rule="nonzero" fill-opacity="1" /><path clip-path="url(#clip750)" d="M1862.82 158.293 L1870.46 158.293 L1870.46 131.928 L1862.15 133.595 L1862.15 129.335 L1870.41 127.669 L1875.09 127.669 L1875.09 158.293 L1882.73 158.293 L1882.73 162.229 L1862.82 162.229 L1862.82 158.293 Z" fill="#000000" fill-rule="nonzero" fill-opacity="1" /><path clip-path="url(#clip750)" d="M1902.17 130.747 Q1898.56 130.747 1896.73 134.312 Q1894.93 137.854 1894.93 144.983 Q1894.93 152.09 1896.73 155.655 Q1898.56 159.196 1902.17 159.196 Q1905.81 159.196 1907.61 155.655 Q1909.44 152.09 1909.44 144.983 Q1909.44 137.854 1907.61 134.312 Q1905.81 130.747 1902.17 130.747 M1902.17 127.044 Q1907.98 127.044 1911.04 131.65 Q1914.12 136.233 1914.12 144.983 Q1914.12 153.71 1911.04 158.317 Q1907.98 162.9 1902.17 162.9 Q1896.36 162.9 1893.28 158.317 Q1890.23 153.71 1890.23 144.983 Q1890.23 136.233 1893.28 131.65 Q1896.36 127.044 1902.17 127.044 Z" fill="#000000" fill-rule="nonzero" fill-opacity="1" /><path clip-path="url(#clip750)" d="M1923.15 158.293 L1930.78 158.293 L1930.78 131.928 L1922.47 133.595 L1922.47 129.335 L1930.74 127.669 L1935.41 127.669 L1935.41 158.293 L1943.05 158.293 L1943.05 162.229 L1923.15 162.229 L1923.15 158.293 Z" fill="#000000" fill-rule="nonzero" fill-opacity="1" /><path clip-path="url(#clip750)" d="M1952.5 156.349 L1957.38 156.349 L1957.38 162.229 L1952.5 162.229 L1952.5 156.349 Z" fill="#000000" fill-rule="nonzero" fill-opacity="1" /><path clip-path="url(#clip750)" d="M1968.38 158.293 L1976.02 158.293 L1976.02 131.928 L1967.71 133.595 L1967.71 129.335 L1975.97 127.669 L1980.65 127.669 L1980.65 158.293 L1988.28 158.293 L1988.28 162.229 L1968.38 162.229 L1968.38 158.293 Z" fill="#000000" fill-rule="nonzero" fill-opacity="1" /><path clip-path="url(#clip750)" d="M1997.87 161.511 L1997.87 157.252 Q1999.63 158.085 2001.43 158.525 Q2003.24 158.965 2004.97 158.965 Q2009.6 158.965 2012.03 155.863 Q2014.49 152.738 2014.83 146.395 Q2013.49 148.386 2011.43 149.451 Q2009.37 150.516 2006.87 150.516 Q2001.69 150.516 1998.65 147.391 Q1995.65 144.243 1995.65 138.803 Q1995.65 133.479 1998.79 130.261 Q2001.94 127.044 2007.17 127.044 Q2013.17 127.044 2016.32 131.65 Q2019.49 136.233 2019.49 144.983 Q2019.49 153.155 2015.6 158.039 Q2011.73 162.9 2005.18 162.9 Q2003.42 162.9 2001.62 162.553 Q1999.81 162.205 1997.87 161.511 M2007.17 146.858 Q2010.32 146.858 2012.15 144.706 Q2014 142.553 2014 138.803 Q2014 135.076 2012.15 132.923 Q2010.32 130.747 2007.17 130.747 Q2004.02 130.747 2002.17 132.923 Q2000.34 135.076 2000.34 138.803 Q2000.34 142.553 2002.17 144.706 Q2004.02 146.858 2007.17 146.858 Z" fill="#000000" fill-rule="nonzero" fill-opacity="1" /><path clip-path="url(#clip750)" d="M2028.38 156.349 L2033.26 156.349 L2033.26 160.33 L2029.46 167.738 L2026.48 167.738 L2028.38 160.33 L2028.38 156.349 Z" fill="#000000" fill-rule="nonzero" fill-opacity="1" /><path clip-path="url(#clip750)" d="M2067.47 139.682 Q2063.95 139.682 2062.06 142.229 Q2060.07 144.891 2060.07 149.289 Q2060.07 153.942 2062.03 156.627 Q2064.02 159.289 2067.47 159.289 Q2070.88 159.289 2072.87 156.604 Q2074.86 153.918 2074.86 149.289 Q2074.86 145.053 2072.87 142.229 Q2071.04 139.682 2067.47 139.682 M2067.47 136.303 L2081.62 136.303 L2081.62 140.562 L2076.85 140.562 Q2079.37 144.173 2079.37 149.289 Q2079.37 155.655 2076.2 159.266 Q2073.03 162.9 2067.47 162.9 Q2061.89 162.9 2058.75 159.266 Q2055.58 155.655 2055.58 149.289 Q2055.58 142.877 2058.75 139.289 Q2061.36 136.303 2067.47 136.303 Z" fill="#000000" fill-rule="nonzero" fill-opacity="1" /><path clip-path="url(#clip750)" d="M2088.03 140.701 L2117.7 140.701 L2117.7 144.59 L2088.03 144.59 L2088.03 140.701 M2088.03 150.145 L2117.7 150.145 L2117.7 154.081 L2088.03 154.081 L2088.03 150.145 Z" fill="#000000" fill-rule="nonzero" fill-opacity="1" /><path clip-path="url(#clip750)" d="M2128.61 158.293 L2136.25 158.293 L2136.25 131.928 L2127.94 133.595 L2127.94 129.335 L2136.2 127.669 L2140.88 127.669 L2140.88 158.293 L2148.51 158.293 L2148.51 162.229 L2128.61 162.229 L2128.61 158.293 Z" fill="#000000" fill-rule="nonzero" fill-opacity="1" /><path clip-path="url(#clip750)" d="M2170.81 131.743 L2159 150.192 L2170.81 150.192 L2170.81 131.743 M2169.58 127.669 L2175.46 127.669 L2175.46 150.192 L2180.39 150.192 L2180.39 154.081 L2175.46 154.081 L2175.46 162.229 L2170.81 162.229 L2170.81 154.081 L2155.2 154.081 L2155.2 149.567 L2169.58 127.669 Z" fill="#000000" fill-rule="nonzero" fill-opacity="1" /><path clip-path="url(#clip750)" d="M2188.12 156.349 L2193.01 156.349 L2193.01 162.229 L2188.12 162.229 L2188.12 156.349 Z" fill="#000000" fill-rule="nonzero" fill-opacity="1" /><path clip-path="url(#clip750)" d="M2216.04 131.743 L2204.23 150.192 L2216.04 150.192 L2216.04 131.743 M2214.81 127.669 L2220.69 127.669 L2220.69 150.192 L2225.62 150.192 L2225.62 154.081 L2220.69 154.081 L2220.69 162.229 L2216.04 162.229 L2216.04 154.081 L2200.44 154.081 L2200.44 149.567 L2214.81 127.669 Z" fill="#000000" fill-rule="nonzero" fill-opacity="1" /><path clip-path="url(#clip750)" d="M2246.2 131.743 L2234.39 150.192 L2246.2 150.192 L2246.2 131.743 M2244.97 127.669 L2250.85 127.669 L2250.85 150.192 L2255.78 150.192 L2255.78 154.081 L2250.85 154.081 L2250.85 162.229 L2246.2 162.229 L2246.2 154.081 L2230.6 154.081 L2230.6 149.567 L2244.97 127.669 Z" fill="#000000" fill-rule="nonzero" fill-opacity="1" /><path clip-path="url(#clip750)" d="M1582.23 480.308 L1582.23 488.936 Q1578.1 485.088 1573.4 483.184 Q1568.74 481.28 1563.48 481.28 Q1553.11 481.28 1547.6 487.64 Q1542.09 493.959 1542.09 505.95 Q1542.09 517.9 1547.6 524.26 Q1553.11 530.58 1563.48 530.58 Q1568.74 530.58 1573.4 528.676 Q1578.1 526.772 1582.23 522.923 L1582.23 531.471 Q1577.94 534.387 1573.12 535.846 Q1568.34 537.304 1562.99 537.304 Q1549.26 537.304 1541.36 528.919 Q1533.46 520.493 1533.46 505.95 Q1533.46 491.367 1541.36 482.981 Q1549.26 474.556 1562.99 474.556 Q1568.42 474.556 1573.2 476.014 Q1578.02 477.432 1582.23 480.308 Z" fill="#ff0000" fill-rule="nonzero" fill-opacity="1" /><path clip-path="url(#clip750)" d="M1623.55 507.773 Q1626.18 508.664 1628.66 511.581 Q1631.17 514.498 1633.68 519.602 L1641.98 536.129 L1633.19 536.129 L1625.45 520.614 Q1622.46 514.538 1619.62 512.553 Q1616.83 510.568 1611.97 510.568 L1603.05 510.568 L1603.05 536.129 L1594.87 536.129 L1594.87 475.649 L1613.34 475.649 Q1623.71 475.649 1628.82 479.984 Q1633.92 484.318 1633.92 493.068 Q1633.92 498.78 1631.25 502.547 Q1628.61 506.315 1623.55 507.773 M1603.05 482.374 L1603.05 503.844 L1613.34 503.844 Q1619.26 503.844 1622.25 501.13 Q1625.29 498.375 1625.29 493.068 Q1625.29 487.762 1622.25 485.088 Q1619.26 482.374 1613.34 482.374 L1603.05 482.374 Z" fill="#ff0000" fill-rule="nonzero" fill-opacity="1" /><path clip-path="url(#clip750)" d="M1660.7 507.246 L1660.7 529.405 L1673.82 529.405 Q1680.43 529.405 1683.59 526.691 Q1686.79 523.936 1686.79 518.305 Q1686.79 512.634 1683.59 509.961 Q1680.43 507.246 1673.82 507.246 L1660.7 507.246 M1660.7 482.374 L1660.7 500.603 L1672.81 500.603 Q1678.81 500.603 1681.72 498.375 Q1684.68 496.106 1684.68 491.488 Q1684.68 486.911 1681.72 484.642 Q1678.81 482.374 1672.81 482.374 L1660.7 482.374 M1652.51 475.649 L1673.42 475.649 Q1682.78 475.649 1687.84 479.538 Q1692.9 483.427 1692.9 490.597 Q1692.9 496.147 1690.31 499.428 Q1687.72 502.709 1682.69 503.52 Q1688.73 504.816 1692.05 508.948 Q1695.41 513.039 1695.41 519.197 Q1695.41 527.298 1689.9 531.714 Q1684.4 536.129 1674.23 536.129 L1652.51 536.129 L1652.51 475.649 Z" fill="#ff0000" fill-rule="nonzero" fill-opacity="1" /><path clip-path="url(#clip750)" d="M1727.01 473.178 Q1721.58 482.495 1718.95 491.61 Q1716.32 500.724 1716.32 510.082 Q1716.32 519.44 1718.95 528.635 Q1721.62 537.79 1727.01 547.067 L1720.53 547.067 Q1714.45 537.547 1711.42 528.352 Q1708.42 519.156 1708.42 510.082 Q1708.42 501.049 1711.42 491.893 Q1714.41 482.738 1720.53 473.178 L1727.01 473.178 Z" fill="#ff0000" fill-rule="nonzero" fill-opacity="1" /><path clip-path="url(#clip750)" d="M1770.48 507.773 Q1773.11 508.664 1775.58 511.581 Q1778.09 514.498 1780.6 519.602 L1788.91 536.129 L1780.12 536.129 L1772.38 520.614 Q1769.38 514.538 1766.55 512.553 Q1763.75 510.568 1758.89 510.568 L1749.98 510.568 L1749.98 536.129 L1741.8 536.129 L1741.8 475.649 L1760.27 475.649 Q1770.64 475.649 1775.74 479.984 Q1780.85 484.318 1780.85 493.068 Q1780.85 498.78 1778.17 502.547 Q1775.54 506.315 1770.48 507.773 M1749.98 482.374 L1749.98 503.844 L1760.27 503.844 Q1766.18 503.844 1769.18 501.13 Q1772.22 498.375 1772.22 493.068 Q1772.22 487.762 1769.18 485.088 Q1766.18 482.374 1760.27 482.374 L1749.98 482.374 Z" fill="#ff0000" fill-rule="nonzero" fill-opacity="1" /><path clip-path="url(#clip750)" d="M1817.91 513.323 Q1808.88 513.323 1805.4 515.389 Q1801.91 517.455 1801.91 522.437 Q1801.91 526.407 1804.5 528.757 Q1807.14 531.066 1811.63 531.066 Q1817.83 531.066 1821.56 526.691 Q1825.33 522.275 1825.33 514.984 L1825.33 513.323 L1817.91 513.323 M1832.78 510.244 L1832.78 536.129 L1825.33 536.129 L1825.33 529.243 Q1822.77 533.375 1818.97 535.36 Q1815.16 537.304 1809.65 537.304 Q1802.68 537.304 1798.55 533.415 Q1794.46 529.486 1794.46 522.923 Q1794.46 515.267 1799.56 511.378 Q1804.71 507.489 1814.88 507.489 L1825.33 507.489 L1825.33 506.76 Q1825.33 501.616 1821.92 498.821 Q1818.56 495.985 1812.44 495.985 Q1808.56 495.985 1804.87 496.917 Q1801.18 497.848 1797.78 499.712 L1797.78 492.825 Q1801.87 491.245 1805.72 490.476 Q1809.57 489.665 1813.21 489.665 Q1823.06 489.665 1827.92 494.77 Q1832.78 499.874 1832.78 510.244 Z" fill="#ff0000" fill-rule="nonzero" fill-opacity="1" /><path clip-path="url(#clip750)" d="M1846.96 473.178 L1853.44 473.178 Q1859.52 482.738 1862.51 491.893 Q1865.55 501.049 1865.55 510.082 Q1865.55 519.156 1862.51 528.352 Q1859.52 537.547 1853.44 547.067 L1846.96 547.067 Q1852.35 537.79 1854.98 528.635 Q1857.65 519.44 1857.65 510.082 Q1857.65 500.724 1854.98 491.61 Q1852.35 482.495 1846.96 473.178 Z" fill="#ff0000" fill-rule="nonzero" fill-opacity="1" /><path clip-path="url(#clip750)" d="M1907.84 498.456 L1959.78 498.456 L1959.78 505.261 L1907.84 505.261 L1907.84 498.456 M1907.84 514.984 L1959.78 514.984 L1959.78 521.87 L1907.84 521.87 L1907.84 514.984 Z" fill="#ff0000" fill-rule="nonzero" fill-opacity="1" /><path clip-path="url(#clip750)" d="M2005.23 529.243 L2018.6 529.243 L2018.6 483.103 L2004.05 486.02 L2004.05 478.566 L2018.51 475.649 L2026.7 475.649 L2026.7 529.243 L2040.06 529.243 L2040.06 536.129 L2005.23 536.129 L2005.23 529.243 Z" fill="#ff0000" fill-rule="nonzero" fill-opacity="1" /><path clip-path="url(#clip750)" d="M2056.84 534.874 L2056.84 527.42 Q2059.91 528.878 2063.07 529.648 Q2066.23 530.418 2069.27 530.418 Q2077.37 530.418 2081.63 524.989 Q2085.92 519.521 2086.53 508.421 Q2084.18 511.905 2080.57 513.768 Q2076.97 515.632 2072.59 515.632 Q2063.52 515.632 2058.21 510.163 Q2052.95 504.654 2052.95 495.134 Q2052.95 485.817 2058.46 480.186 Q2063.97 474.556 2073.12 474.556 Q2083.61 474.556 2089.12 482.617 Q2094.67 490.638 2094.67 505.95 Q2094.67 520.25 2087.87 528.797 Q2081.1 537.304 2069.64 537.304 Q2066.56 537.304 2063.4 536.696 Q2060.24 536.089 2056.84 534.874 M2073.12 509.231 Q2078.63 509.231 2081.83 505.464 Q2085.07 501.697 2085.07 495.134 Q2085.07 488.612 2081.83 484.845 Q2078.63 481.037 2073.12 481.037 Q2067.61 481.037 2064.37 484.845 Q2061.17 488.612 2061.17 495.134 Q2061.17 501.697 2064.37 505.464 Q2067.61 509.231 2073.12 509.231 Z" fill="#ff0000" fill-rule="nonzero" fill-opacity="1" /><path clip-path="url(#clip750)" d="M2109.38 525.84 L2117.92 525.84 L2117.92 536.129 L2109.38 536.129 L2109.38 525.84 Z" fill="#ff0000" fill-rule="nonzero" fill-opacity="1" /><path clip-path="url(#clip750)" d="M2153.25 481.037 Q2146.93 481.037 2143.73 487.275 Q2140.57 493.473 2140.57 505.95 Q2140.57 518.386 2143.73 524.625 Q2146.93 530.823 2153.25 530.823 Q2159.61 530.823 2162.77 524.625 Q2165.97 518.386 2165.97 505.95 Q2165.97 493.473 2162.77 487.275 Q2159.61 481.037 2153.25 481.037 M2153.25 474.556 Q2163.42 474.556 2168.76 482.617 Q2174.15 490.638 2174.15 505.95 Q2174.15 521.222 2168.76 529.283 Q2163.42 537.304 2153.25 537.304 Q2143.08 537.304 2137.69 529.283 Q2132.34 521.222 2132.34 505.95 Q2132.34 490.638 2137.69 482.617 Q2143.08 474.556 2153.25 474.556 Z" fill="#ff0000" fill-rule="nonzero" fill-opacity="1" /><path clip-path="url(#clip750)" d="M2188.61 475.649 L2220.74 475.649 L2220.74 482.536 L2196.11 482.536 L2196.11 497.362 Q2197.89 496.755 2199.67 496.471 Q2201.45 496.147 2203.24 496.147 Q2213.36 496.147 2219.28 501.697 Q2225.19 507.246 2225.19 516.726 Q2225.19 526.488 2219.11 531.916 Q2213.04 537.304 2201.98 537.304 Q2198.17 537.304 2194.2 536.656 Q2190.27 536.008 2186.06 534.712 L2186.06 526.488 Q2189.71 528.473 2193.59 529.445 Q2197.48 530.418 2201.82 530.418 Q2208.83 530.418 2212.92 526.731 Q2217.01 523.045 2217.01 516.726 Q2217.01 510.406 2212.92 506.72 Q2208.83 503.033 2201.82 503.033 Q2198.54 503.033 2195.26 503.763 Q2192.01 504.492 2188.61 506.031 L2188.61 475.649 Z" fill="#ff0000" fill-rule="nonzero" fill-opacity="1" /></svg>
