<?xml version="1.0" encoding="utf-8"?>
<svg xmlns="http://www.w3.org/2000/svg" xmlns:xlink="http://www.w3.org/1999/xlink" width="600" height="400" viewBox="0 0 2400 1600">
<defs>
  <clipPath id="clip600">
    <rect x="0" y="0" width="2400" height="1600"/>
  </clipPath>
</defs>
<path clip-path="url(#clip600)" d="M0 1600 L2400 1600 L2400 0 L0 0  Z" fill="#ffffff" fill-rule="evenodd" fill-opacity="1"/>
<defs>
  <clipPath id="clip601">
    <rect x="209" y="47" width="2145" height="1377"/>
  </clipPath>
</defs>
<path clip-path="url(#clip600)" d="M209.029 1423.18 L2352.76 1423.18 L2352.76 47.2441 L209.029 47.2441  Z" fill="#ffffff" fill-rule="evenodd" fill-opacity="1"/>
<polyline clip-path="url(#clip601)" style="stroke:#000000; stroke-linecap:round; stroke-linejoin:round; stroke-width:2; stroke-opacity:0.1; fill:none" points="269.7,1423.18 269.7,47.2441 "/>
<polyline clip-path="url(#clip601)" style="stroke:#000000; stroke-linecap:round; stroke-linejoin:round; stroke-width:2; stroke-opacity:0.1; fill:none" points="674.177,1423.18 674.177,47.2441 "/>
<polyline clip-path="url(#clip601)" style="stroke:#000000; stroke-linecap:round; stroke-linejoin:round; stroke-width:2; stroke-opacity:0.1; fill:none" points="1078.65,1423.18 1078.65,47.2441 "/>
<polyline clip-path="url(#clip601)" style="stroke:#000000; stroke-linecap:round; stroke-linejoin:round; stroke-width:2; stroke-opacity:0.1; fill:none" points="1483.13,1423.18 1483.13,47.2441 "/>
<polyline clip-path="url(#clip601)" style="stroke:#000000; stroke-linecap:round; stroke-linejoin:round; stroke-width:2; stroke-opacity:0.1; fill:none" points="1887.61,1423.18 1887.61,47.2441 "/>
<polyline clip-path="url(#clip601)" style="stroke:#000000; stroke-linecap:round; stroke-linejoin:round; stroke-width:2; stroke-opacity:0.1; fill:none" points="209.029,1384.24 2352.76,1384.24 "/>
<polyline clip-path="url(#clip601)" style="stroke:#000000; stroke-linecap:round; stroke-linejoin:round; stroke-width:2; stroke-opacity:0.1; fill:none" points="209.029,1059.73 2352.76,1059.73 "/>
<polyline clip-path="url(#clip601)" style="stroke:#000000; stroke-linecap:round; stroke-linejoin:round; stroke-width:2; stroke-opacity:0.1; fill:none" points="209.029,735.212 2352.76,735.212 "/>
<polyline clip-path="url(#clip601)" style="stroke:#000000; stroke-linecap:round; stroke-linejoin:round; stroke-width:2; stroke-opacity:0.1; fill:none" points="209.029,410.699 2352.76,410.699 "/>
<polyline clip-path="url(#clip601)" style="stroke:#000000; stroke-linecap:round; stroke-linejoin:round; stroke-width:2; stroke-opacity:0.1; fill:none" points="209.029,86.1857 2352.76,86.1857 "/>
<polyline clip-path="url(#clip600)" style="stroke:#000000; stroke-linecap:round; stroke-linejoin:round; stroke-width:4; stroke-opacity:1; fill:none" points="209.029,1423.18 2352.76,1423.18 "/>
<polyline clip-path="url(#clip600)" style="stroke:#000000; stroke-linecap:round; stroke-linejoin:round; stroke-width:4; stroke-opacity:1; fill:none" points="269.7,1423.18 269.7,1404.28 "/>
<polyline clip-path="url(#clip600)" style="stroke:#000000; stroke-linecap:round; stroke-linejoin:round; stroke-width:4; stroke-opacity:1; fill:none" points="674.177,1423.18 674.177,1404.28 "/>
<polyline clip-path="url(#clip600)" style="stroke:#000000; stroke-linecap:round; stroke-linejoin:round; stroke-width:4; stroke-opacity:1; fill:none" points="1078.65,1423.18 1078.65,1404.28 "/>
<polyline clip-path="url(#clip600)" style="stroke:#000000; stroke-linecap:round; stroke-linejoin:round; stroke-width:4; stroke-opacity:1; fill:none" points="1483.13,1423.18 1483.13,1404.28 "/>
<polyline clip-path="url(#clip600)" style="stroke:#000000; stroke-linecap:round; stroke-linejoin:round; stroke-width:4; stroke-opacity:1; fill:none" points="1887.61,1423.18 1887.61,1404.28 "/>
<path clip-path="url(#clip600)" d="M269.7 1454.1 Q266.089 1454.1 264.26 1457.66 Q262.455 1461.2 262.455 1468.33 Q262.455 1475.44 264.26 1479.01 Q266.089 1482.55 269.7 1482.55 Q273.334 1482.55 275.14 1479.01 Q276.969 1475.44 276.969 1468.33 Q276.969 1461.2 275.14 1457.66 Q273.334 1454.1 269.7 1454.1 M269.7 1450.39 Q275.51 1450.39 278.566 1455 Q281.644 1459.58 281.644 1468.33 Q281.644 1477.06 278.566 1481.67 Q275.51 1486.25 269.7 1486.25 Q263.89 1486.25 260.811 1481.67 Q257.756 1477.06 257.756 1468.33 Q257.756 1459.58 260.811 1455 Q263.89 1450.39 269.7 1450.39 Z" fill="#000000" fill-rule="nonzero" fill-opacity="1" /><path clip-path="url(#clip600)" d="M662.348 1455.09 L650.543 1473.54 L662.348 1473.54 L662.348 1455.09 M661.121 1451.02 L667.001 1451.02 L667.001 1473.54 L671.932 1473.54 L671.932 1477.43 L667.001 1477.43 L667.001 1485.58 L662.348 1485.58 L662.348 1477.43 L646.746 1477.43 L646.746 1472.92 L661.121 1451.02 Z" fill="#000000" fill-rule="nonzero" fill-opacity="1" /><path clip-path="url(#clip600)" d="M689.663 1454.1 Q686.052 1454.1 684.223 1457.66 Q682.418 1461.2 682.418 1468.33 Q682.418 1475.44 684.223 1479.01 Q686.052 1482.55 689.663 1482.55 Q693.297 1482.55 695.103 1479.01 Q696.931 1475.44 696.931 1468.33 Q696.931 1461.2 695.103 1457.66 Q693.297 1454.1 689.663 1454.1 M689.663 1450.39 Q695.473 1450.39 698.529 1455 Q701.607 1459.58 701.607 1468.33 Q701.607 1477.06 698.529 1481.67 Q695.473 1486.25 689.663 1486.25 Q683.853 1486.25 680.774 1481.67 Q677.719 1477.06 677.719 1468.33 Q677.719 1459.58 680.774 1455 Q683.853 1450.39 689.663 1450.39 Z" fill="#000000" fill-rule="nonzero" fill-opacity="1" /><path clip-path="url(#clip600)" d="M1063.53 1469.17 Q1060.19 1469.17 1058.27 1470.95 Q1056.37 1472.73 1056.37 1475.86 Q1056.37 1478.98 1058.27 1480.77 Q1060.19 1482.55 1063.53 1482.55 Q1066.86 1482.55 1068.78 1480.77 Q1070.7 1478.96 1070.7 1475.86 Q1070.7 1472.73 1068.78 1470.95 Q1066.88 1469.17 1063.53 1469.17 M1058.85 1467.18 Q1055.84 1466.44 1054.15 1464.38 Q1052.48 1462.32 1052.48 1459.35 Q1052.48 1455.21 1055.42 1452.8 Q1058.39 1450.39 1063.53 1450.39 Q1068.69 1450.39 1071.63 1452.8 Q1074.57 1455.21 1074.57 1459.35 Q1074.57 1462.32 1072.88 1464.38 Q1071.21 1466.44 1068.23 1467.18 Q1071.61 1467.96 1073.48 1470.26 Q1075.38 1472.55 1075.38 1475.86 Q1075.38 1480.88 1072.3 1483.57 Q1069.24 1486.25 1063.53 1486.25 Q1057.81 1486.25 1054.73 1483.57 Q1051.67 1480.88 1051.67 1475.86 Q1051.67 1472.55 1053.57 1470.26 Q1055.47 1467.96 1058.85 1467.18 M1057.14 1459.79 Q1057.14 1462.48 1058.8 1463.98 Q1060.49 1465.49 1063.53 1465.49 Q1066.54 1465.49 1068.23 1463.98 Q1069.94 1462.48 1069.94 1459.79 Q1069.94 1457.11 1068.23 1455.6 Q1066.54 1454.1 1063.53 1454.1 Q1060.49 1454.1 1058.8 1455.6 Q1057.14 1457.11 1057.14 1459.79 Z" fill="#000000" fill-rule="nonzero" fill-opacity="1" /><path clip-path="url(#clip600)" d="M1093.69 1454.1 Q1090.08 1454.1 1088.25 1457.66 Q1086.44 1461.2 1086.44 1468.33 Q1086.44 1475.44 1088.25 1479.01 Q1090.08 1482.55 1093.69 1482.55 Q1097.32 1482.55 1099.13 1479.01 Q1100.96 1475.44 1100.96 1468.33 Q1100.96 1461.2 1099.13 1457.66 Q1097.32 1454.1 1093.69 1454.1 M1093.69 1450.39 Q1099.5 1450.39 1102.55 1455 Q1105.63 1459.58 1105.63 1468.33 Q1105.63 1477.06 1102.55 1481.67 Q1099.5 1486.25 1093.69 1486.25 Q1087.88 1486.25 1084.8 1481.67 Q1081.74 1477.06 1081.74 1468.33 Q1081.74 1459.58 1084.8 1455 Q1087.88 1450.39 1093.69 1450.39 Z" fill="#000000" fill-rule="nonzero" fill-opacity="1" /><path clip-path="url(#clip600)" d="M1442.74 1481.64 L1450.38 1481.64 L1450.38 1455.28 L1442.07 1456.95 L1442.07 1452.69 L1450.33 1451.02 L1455.01 1451.02 L1455.01 1481.64 L1462.64 1481.64 L1462.64 1485.58 L1442.74 1485.58 L1442.74 1481.64 Z" fill="#000000" fill-rule="nonzero" fill-opacity="1" /><path clip-path="url(#clip600)" d="M1476.12 1481.64 L1492.44 1481.64 L1492.44 1485.58 L1470.49 1485.58 L1470.49 1481.64 Q1473.15 1478.89 1477.74 1474.26 Q1482.34 1469.61 1483.52 1468.27 Q1485.77 1465.74 1486.65 1464.01 Q1487.55 1462.25 1487.55 1460.56 Q1487.55 1457.8 1485.61 1456.07 Q1483.69 1454.33 1480.58 1454.33 Q1478.39 1454.33 1475.93 1455.09 Q1473.5 1455.86 1470.72 1457.41 L1470.72 1452.69 Q1473.55 1451.55 1476 1450.97 Q1478.45 1450.39 1480.49 1450.39 Q1485.86 1450.39 1489.06 1453.08 Q1492.25 1455.77 1492.25 1460.26 Q1492.25 1462.39 1491.44 1464.31 Q1490.65 1466.2 1488.55 1468.8 Q1487.97 1469.47 1484.87 1472.69 Q1481.76 1475.88 1476.12 1481.64 Z" fill="#000000" fill-rule="nonzero" fill-opacity="1" /><path clip-path="url(#clip600)" d="M1512.25 1454.1 Q1508.64 1454.1 1506.81 1457.66 Q1505.01 1461.2 1505.01 1468.33 Q1505.01 1475.44 1506.81 1479.01 Q1508.64 1482.55 1512.25 1482.55 Q1515.89 1482.55 1517.69 1479.01 Q1519.52 1475.44 1519.52 1468.33 Q1519.52 1461.2 1517.69 1457.66 Q1515.89 1454.1 1512.25 1454.1 M1512.25 1450.39 Q1518.06 1450.39 1521.12 1455 Q1524.2 1459.58 1524.2 1468.33 Q1524.2 1477.06 1521.12 1481.67 Q1518.06 1486.25 1512.25 1486.25 Q1506.44 1486.25 1503.36 1481.67 Q1500.31 1477.06 1500.31 1468.33 Q1500.31 1459.58 1503.36 1455 Q1506.44 1450.39 1512.25 1450.39 Z" fill="#000000" fill-rule="nonzero" fill-opacity="1" /><path clip-path="url(#clip600)" d="M1847.21 1481.64 L1854.85 1481.64 L1854.85 1455.28 L1846.54 1456.95 L1846.54 1452.69 L1854.81 1451.02 L1859.48 1451.02 L1859.48 1481.64 L1867.12 1481.64 L1867.12 1485.58 L1847.21 1485.58 L1847.21 1481.64 Z" fill="#000000" fill-rule="nonzero" fill-opacity="1" /><path clip-path="url(#clip600)" d="M1887.14 1466.44 Q1884 1466.44 1882.14 1468.59 Q1880.32 1470.74 1880.32 1474.49 Q1880.32 1478.22 1882.14 1480.39 Q1884 1482.55 1887.14 1482.55 Q1890.29 1482.55 1892.12 1480.39 Q1893.97 1478.22 1893.97 1474.49 Q1893.97 1470.74 1892.12 1468.59 Q1890.29 1466.44 1887.14 1466.44 M1896.43 1451.78 L1896.43 1456.04 Q1894.67 1455.21 1892.86 1454.77 Q1891.08 1454.33 1889.32 1454.33 Q1884.69 1454.33 1882.24 1457.45 Q1879.81 1460.58 1879.46 1466.9 Q1880.83 1464.89 1882.89 1463.82 Q1884.95 1462.73 1887.42 1462.73 Q1892.63 1462.73 1895.64 1465.9 Q1898.67 1469.05 1898.67 1474.49 Q1898.67 1479.82 1895.52 1483.03 Q1892.38 1486.25 1887.14 1486.25 Q1881.15 1486.25 1877.98 1481.67 Q1874.81 1477.06 1874.81 1468.33 Q1874.81 1460.14 1878.7 1455.28 Q1882.58 1450.39 1889.14 1450.39 Q1890.89 1450.39 1892.68 1450.74 Q1894.48 1451.09 1896.43 1451.78 Z" fill="#000000" fill-rule="nonzero" fill-opacity="1" /><path clip-path="url(#clip600)" d="M1916.73 1454.1 Q1913.12 1454.1 1911.29 1457.66 Q1909.48 1461.2 1909.48 1468.33 Q1909.48 1475.44 1911.29 1479.01 Q1913.12 1482.55 1916.73 1482.55 Q1920.36 1482.55 1922.17 1479.01 Q1924 1475.44 1924 1468.33 Q1924 1461.2 1922.17 1457.66 Q1920.36 1454.1 1916.73 1454.1 M1916.73 1450.39 Q1922.54 1450.39 1925.59 1455 Q1928.67 1459.58 1928.67 1468.33 Q1928.67 1477.06 1925.59 1481.67 Q1922.54 1486.25 1916.73 1486.25 Q1910.92 1486.25 1907.84 1481.67 Q1904.78 1477.06 1904.78 1468.33 Q1904.78 1459.58 1907.84 1455 Q1910.92 1450.39 1916.73 1450.39 Z" fill="#000000" fill-rule="nonzero" fill-opacity="1" /><path clip-path="url(#clip600)" d="M1197.45 1522.27 L1197.45 1532.4 L1209.52 1532.4 L1209.52 1536.95 L1197.45 1536.95 L1197.45 1556.3 Q1197.45 1560.66 1198.63 1561.9 Q1199.84 1563.14 1203.5 1563.14 L1209.52 1563.14 L1209.52 1568.04 L1203.5 1568.04 Q1196.72 1568.04 1194.14 1565.53 Q1191.57 1562.98 1191.57 1556.3 L1191.57 1536.95 L1187.27 1536.95 L1187.27 1532.4 L1191.57 1532.4 L1191.57 1522.27 L1197.45 1522.27 Z" fill="#000000" fill-rule="nonzero" fill-opacity="1" /><path clip-path="url(#clip600)" d="M1237.4 1518.52 L1250.89 1518.52 L1250.89 1523.07 L1243.25 1523.07 L1243.25 1572.09 L1250.89 1572.09 L1250.89 1576.64 L1237.4 1576.64 L1237.4 1518.52 Z" fill="#000000" fill-rule="nonzero" fill-opacity="1" /><path clip-path="url(#clip600)" d="M1291.13 1539.24 Q1293.32 1535.29 1296.38 1533.41 Q1299.43 1531.54 1303.57 1531.54 Q1309.14 1531.54 1312.16 1535.45 Q1315.19 1539.33 1315.19 1546.53 L1315.19 1568.04 L1309.3 1568.04 L1309.3 1546.72 Q1309.3 1541.59 1307.48 1539.11 Q1305.67 1536.63 1301.95 1536.63 Q1297.4 1536.63 1294.75 1539.65 Q1292.11 1542.68 1292.11 1547.9 L1292.11 1568.04 L1286.22 1568.04 L1286.22 1546.72 Q1286.22 1541.56 1284.41 1539.11 Q1282.6 1536.63 1278.81 1536.63 Q1274.32 1536.63 1271.68 1539.68 Q1269.04 1542.71 1269.04 1547.9 L1269.04 1568.04 L1263.15 1568.04 L1263.15 1532.4 L1269.04 1532.4 L1269.04 1537.93 Q1271.04 1534.66 1273.84 1533.1 Q1276.64 1531.54 1280.49 1531.54 Q1284.38 1531.54 1287.08 1533.51 Q1289.82 1535.48 1291.13 1539.24 Z" fill="#000000" fill-rule="nonzero" fill-opacity="1" /><path clip-path="url(#clip600)" d="M1349.59 1533.45 L1349.59 1538.98 Q1347.11 1537.71 1344.44 1537.07 Q1341.76 1536.44 1338.9 1536.44 Q1334.54 1536.44 1332.34 1537.77 Q1330.18 1539.11 1330.18 1541.79 Q1330.18 1543.82 1331.74 1545 Q1333.3 1546.15 1338.01 1547.2 L1340.01 1547.64 Q1346.25 1548.98 1348.86 1551.43 Q1351.5 1553.85 1351.5 1558.21 Q1351.5 1563.17 1347.56 1566.07 Q1343.64 1568.97 1336.77 1568.97 Q1333.9 1568.97 1330.78 1568.39 Q1327.7 1567.85 1324.26 1566.74 L1324.26 1560.69 Q1327.51 1562.38 1330.66 1563.24 Q1333.81 1564.07 1336.89 1564.07 Q1341.03 1564.07 1343.26 1562.66 Q1345.49 1561.23 1345.49 1558.65 Q1345.49 1556.27 1343.86 1554.99 Q1342.27 1553.72 1336.83 1552.54 L1334.79 1552.07 Q1329.35 1550.92 1326.93 1548.56 Q1324.51 1546.18 1324.51 1542.04 Q1324.51 1537.01 1328.08 1534.27 Q1331.64 1531.54 1338.2 1531.54 Q1341.45 1531.54 1344.31 1532.01 Q1347.18 1532.49 1349.59 1533.45 Z" fill="#000000" fill-rule="nonzero" fill-opacity="1" /><path clip-path="url(#clip600)" d="M1374.52 1518.52 L1374.52 1576.64 L1361.02 1576.64 L1361.02 1572.09 L1368.63 1572.09 L1368.63 1523.07 L1361.02 1523.07 L1361.02 1518.52 L1374.52 1518.52 Z" fill="#000000" fill-rule="nonzero" fill-opacity="1" /><polyline clip-path="url(#clip600)" style="stroke:#000000; stroke-linecap:round; stroke-linejoin:round; stroke-width:4; stroke-opacity:1; fill:none" points="209.029,1423.18 209.029,47.2441 "/>
<polyline clip-path="url(#clip600)" style="stroke:#000000; stroke-linecap:round; stroke-linejoin:round; stroke-width:4; stroke-opacity:1; fill:none" points="209.029,1384.24 227.926,1384.24 "/>
<polyline clip-path="url(#clip600)" style="stroke:#000000; stroke-linecap:round; stroke-linejoin:round; stroke-width:4; stroke-opacity:1; fill:none" points="209.029,1059.73 227.926,1059.73 "/>
<polyline clip-path="url(#clip600)" style="stroke:#000000; stroke-linecap:round; stroke-linejoin:round; stroke-width:4; stroke-opacity:1; fill:none" points="209.029,735.212 227.926,735.212 "/>
<polyline clip-path="url(#clip600)" style="stroke:#000000; stroke-linecap:round; stroke-linejoin:round; stroke-width:4; stroke-opacity:1; fill:none" points="209.029,410.699 227.926,410.699 "/>
<polyline clip-path="url(#clip600)" style="stroke:#000000; stroke-linecap:round; stroke-linejoin:round; stroke-width:4; stroke-opacity:1; fill:none" points="209.029,86.1857 227.926,86.1857 "/>
<path clip-path="url(#clip600)" d="M50.9921 1384.69 L80.6679 1384.69 L80.6679 1388.62 L50.9921 1388.62 L50.9921 1384.69 Z" fill="#000000" fill-rule="nonzero" fill-opacity="1" /><path clip-path="url(#clip600)" d="M91.5706 1397.58 L99.2095 1397.58 L99.2095 1371.22 L90.8993 1372.88 L90.8993 1368.62 L99.1632 1366.96 L103.839 1366.96 L103.839 1397.58 L111.478 1397.58 L111.478 1401.52 L91.5706 1401.52 L91.5706 1397.58 Z" fill="#000000" fill-rule="nonzero" fill-opacity="1" /><path clip-path="url(#clip600)" d="M130.922 1370.04 Q127.311 1370.04 125.482 1373.6 Q123.677 1377.14 123.677 1384.27 Q123.677 1391.38 125.482 1394.94 Q127.311 1398.49 130.922 1398.49 Q134.556 1398.49 136.362 1394.94 Q138.191 1391.38 138.191 1384.27 Q138.191 1377.14 136.362 1373.6 Q134.556 1370.04 130.922 1370.04 M130.922 1366.33 Q136.732 1366.33 139.788 1370.94 Q142.867 1375.52 142.867 1384.27 Q142.867 1393 139.788 1397.61 Q136.732 1402.19 130.922 1402.19 Q125.112 1402.19 122.033 1397.61 Q118.978 1393 118.978 1384.27 Q118.978 1375.52 122.033 1370.94 Q125.112 1366.33 130.922 1366.33 Z" fill="#000000" fill-rule="nonzero" fill-opacity="1" /><path clip-path="url(#clip600)" d="M161.084 1370.04 Q157.473 1370.04 155.644 1373.6 Q153.839 1377.14 153.839 1384.27 Q153.839 1391.38 155.644 1394.94 Q157.473 1398.49 161.084 1398.49 Q164.718 1398.49 166.524 1394.94 Q168.353 1391.38 168.353 1384.27 Q168.353 1377.14 166.524 1373.6 Q164.718 1370.04 161.084 1370.04 M161.084 1366.33 Q166.894 1366.33 169.95 1370.94 Q173.029 1375.52 173.029 1384.27 Q173.029 1393 169.95 1397.61 Q166.894 1402.19 161.084 1402.19 Q155.274 1402.19 152.195 1397.61 Q149.14 1393 149.14 1384.27 Q149.14 1375.52 152.195 1370.94 Q155.274 1366.33 161.084 1366.33 Z" fill="#000000" fill-rule="nonzero" fill-opacity="1" /><path clip-path="url(#clip600)" d="M81.154 1060.18 L110.83 1060.18 L110.83 1064.11 L81.154 1064.11 L81.154 1060.18 Z" fill="#000000" fill-rule="nonzero" fill-opacity="1" /><path clip-path="url(#clip600)" d="M120.969 1042.45 L139.325 1042.45 L139.325 1046.38 L125.251 1046.38 L125.251 1054.85 Q126.27 1054.51 127.288 1054.34 Q128.307 1054.16 129.325 1054.16 Q135.112 1054.16 138.492 1057.33 Q141.871 1060.5 141.871 1065.92 Q141.871 1071.5 138.399 1074.6 Q134.927 1077.68 128.607 1077.68 Q126.432 1077.68 124.163 1077.31 Q121.918 1076.94 119.51 1076.19 L119.51 1071.5 Q121.594 1072.63 123.816 1073.19 Q126.038 1073.74 128.515 1073.74 Q132.519 1073.74 134.857 1071.63 Q137.195 1069.53 137.195 1065.92 Q137.195 1062.31 134.857 1060.2 Q132.519 1058.09 128.515 1058.09 Q126.64 1058.09 124.765 1058.51 Q122.913 1058.93 120.969 1059.81 L120.969 1042.45 Z" fill="#000000" fill-rule="nonzero" fill-opacity="1" /><path clip-path="url(#clip600)" d="M161.084 1045.52 Q157.473 1045.52 155.644 1049.09 Q153.839 1052.63 153.839 1059.76 Q153.839 1066.87 155.644 1070.43 Q157.473 1073.97 161.084 1073.97 Q164.718 1073.97 166.524 1070.43 Q168.353 1066.87 168.353 1059.76 Q168.353 1052.63 166.524 1049.09 Q164.718 1045.52 161.084 1045.52 M161.084 1041.82 Q166.894 1041.82 169.95 1046.43 Q173.029 1051.01 173.029 1059.76 Q173.029 1068.49 169.95 1073.09 Q166.894 1077.68 161.084 1077.68 Q155.274 1077.68 152.195 1073.09 Q149.14 1068.49 149.14 1059.76 Q149.14 1051.01 152.195 1046.43 Q155.274 1041.82 161.084 1041.82 Z" fill="#000000" fill-rule="nonzero" fill-opacity="1" /><path clip-path="url(#clip600)" d="M161.084 721.011 Q157.473 721.011 155.644 724.575 Q153.839 728.117 153.839 735.247 Q153.839 742.353 155.644 745.918 Q157.473 749.46 161.084 749.46 Q164.718 749.46 166.524 745.918 Q168.353 742.353 168.353 735.247 Q168.353 728.117 166.524 724.575 Q164.718 721.011 161.084 721.011 M161.084 717.307 Q166.894 717.307 169.95 721.913 Q173.029 726.497 173.029 735.247 Q173.029 743.973 169.95 748.58 Q166.894 753.163 161.084 753.163 Q155.274 753.163 152.195 748.58 Q149.14 743.973 149.14 735.247 Q149.14 726.497 152.195 721.913 Q155.274 717.307 161.084 717.307 Z" fill="#000000" fill-rule="nonzero" fill-opacity="1" /><path clip-path="url(#clip600)" d="M120.969 393.419 L139.325 393.419 L139.325 397.354 L125.251 397.354 L125.251 405.826 Q126.27 405.479 127.288 405.317 Q128.307 405.132 129.325 405.132 Q135.112 405.132 138.492 408.303 Q141.871 411.474 141.871 416.891 Q141.871 422.47 138.399 425.571 Q134.927 428.65 128.607 428.65 Q126.432 428.65 124.163 428.28 Q121.918 427.909 119.51 427.169 L119.51 422.47 Q121.594 423.604 123.816 424.159 Q126.038 424.715 128.515 424.715 Q132.519 424.715 134.857 422.608 Q137.195 420.502 137.195 416.891 Q137.195 413.28 134.857 411.173 Q132.519 409.067 128.515 409.067 Q126.64 409.067 124.765 409.484 Q122.913 409.9 120.969 410.78 L120.969 393.419 Z" fill="#000000" fill-rule="nonzero" fill-opacity="1" /><path clip-path="url(#clip600)" d="M161.084 396.498 Q157.473 396.498 155.644 400.062 Q153.839 403.604 153.839 410.734 Q153.839 417.84 155.644 421.405 Q157.473 424.946 161.084 424.946 Q164.718 424.946 166.524 421.405 Q168.353 417.84 168.353 410.734 Q168.353 403.604 166.524 400.062 Q164.718 396.498 161.084 396.498 M161.084 392.794 Q166.894 392.794 169.95 397.4 Q173.029 401.984 173.029 410.734 Q173.029 419.46 169.95 424.067 Q166.894 428.65 161.084 428.65 Q155.274 428.65 152.195 424.067 Q149.14 419.46 149.14 410.734 Q149.14 401.984 152.195 397.4 Q155.274 392.794 161.084 392.794 Z" fill="#000000" fill-rule="nonzero" fill-opacity="1" /><path clip-path="url(#clip600)" d="M91.5706 99.5305 L99.2095 99.5305 L99.2095 73.1649 L90.8993 74.8316 L90.8993 70.5723 L99.1632 68.9057 L103.839 68.9057 L103.839 99.5305 L111.478 99.5305 L111.478 103.466 L91.5706 103.466 L91.5706 99.5305 Z" fill="#000000" fill-rule="nonzero" fill-opacity="1" /><path clip-path="url(#clip600)" d="M130.922 71.9844 Q127.311 71.9844 125.482 75.5492 Q123.677 79.0908 123.677 86.2204 Q123.677 93.3268 125.482 96.8916 Q127.311 100.433 130.922 100.433 Q134.556 100.433 136.362 96.8916 Q138.191 93.3268 138.191 86.2204 Q138.191 79.0908 136.362 75.5492 Q134.556 71.9844 130.922 71.9844 M130.922 68.2807 Q136.732 68.2807 139.788 72.8871 Q142.867 77.4704 142.867 86.2204 Q142.867 94.9472 139.788 99.5537 Q136.732 104.137 130.922 104.137 Q125.112 104.137 122.033 99.5537 Q118.978 94.9472 118.978 86.2204 Q118.978 77.4704 122.033 72.8871 Q125.112 68.2807 130.922 68.2807 Z" fill="#000000" fill-rule="nonzero" fill-opacity="1" /><path clip-path="url(#clip600)" d="M161.084 71.9844 Q157.473 71.9844 155.644 75.5492 Q153.839 79.0908 153.839 86.2204 Q153.839 93.3268 155.644 96.8916 Q157.473 100.433 161.084 100.433 Q164.718 100.433 166.524 96.8916 Q168.353 93.3268 168.353 86.2204 Q168.353 79.0908 166.524 75.5492 Q164.718 71.9844 161.084 71.9844 M161.084 68.2807 Q166.894 68.2807 169.95 72.8871 Q173.029 77.4704 173.029 86.2204 Q173.029 94.9472 169.95 99.5537 Q166.894 104.137 161.084 104.137 Q155.274 104.137 152.195 99.5537 Q149.14 94.9472 149.14 86.2204 Q149.14 77.4704 152.195 72.8871 Q155.274 68.2807 161.084 68.2807 Z" fill="#000000" fill-rule="nonzero" fill-opacity="1" /><circle clip-path="url(#clip601)" cx="320.26" cy="1125.22" r="14.4" fill="#009af9" fill-rule="evenodd" fill-opacity="1" stroke="none"/>
<circle clip-path="url(#clip601)" cx="421.379" cy="966.107" r="14.4" fill="#009af9" fill-rule="evenodd" fill-opacity="1" stroke="none"/>
<circle clip-path="url(#clip601)" cx="522.498" cy="890.523" r="14.4" fill="#009af9" fill-rule="evenodd" fill-opacity="1" stroke="none"/>
<circle clip-path="url(#clip601)" cx="623.617" cy="858.279" r="14.4" fill="#009af9" fill-rule="evenodd" fill-opacity="1" stroke="none"/>
<circle clip-path="url(#clip601)" cx="724.737" cy="826.831" r="14.4" fill="#009af9" fill-rule="evenodd" fill-opacity="1" stroke="none"/>
<circle clip-path="url(#clip601)" cx="825.856" cy="820.291" r="14.4" fill="#009af9" fill-rule="evenodd" fill-opacity="1" stroke="none"/>
<circle clip-path="url(#clip601)" cx="926.975" cy="797.198" r="14.4" fill="#009af9" fill-rule="evenodd" fill-opacity="1" stroke="none"/>
<circle clip-path="url(#clip601)" cx="1028.09" cy="772.758" r="14.4" fill="#009af9" fill-rule="evenodd" fill-opacity="1" stroke="none"/>
<circle clip-path="url(#clip601)" cx="1129.21" cy="772.909" r="14.4" fill="#009af9" fill-rule="evenodd" fill-opacity="1" stroke="none"/>
<circle clip-path="url(#clip601)" cx="1230.33" cy="769.961" r="14.4" fill="#009af9" fill-rule="evenodd" fill-opacity="1" stroke="none"/>
<circle clip-path="url(#clip601)" cx="1331.45" cy="768.686" r="14.4" fill="#009af9" fill-rule="evenodd" fill-opacity="1" stroke="none"/>
<circle clip-path="url(#clip601)" cx="1432.57" cy="756.357" r="14.4" fill="#009af9" fill-rule="evenodd" fill-opacity="1" stroke="none"/>
<circle clip-path="url(#clip601)" cx="1533.69" cy="758.885" r="14.4" fill="#009af9" fill-rule="evenodd" fill-opacity="1" stroke="none"/>
<circle clip-path="url(#clip601)" cx="1634.81" cy="758.452" r="14.4" fill="#009af9" fill-rule="evenodd" fill-opacity="1" stroke="none"/>
<circle clip-path="url(#clip601)" cx="1735.93" cy="749.15" r="14.4" fill="#009af9" fill-rule="evenodd" fill-opacity="1" stroke="none"/>
<circle clip-path="url(#clip601)" cx="1837.05" cy="746.099" r="14.4" fill="#009af9" fill-rule="evenodd" fill-opacity="1" stroke="none"/>
<circle clip-path="url(#clip601)" cx="1938.17" cy="742.566" r="14.4" fill="#009af9" fill-rule="evenodd" fill-opacity="1" stroke="none"/>
<circle clip-path="url(#clip601)" cx="2039.29" cy="740.539" r="14.4" fill="#009af9" fill-rule="evenodd" fill-opacity="1" stroke="none"/>
<circle clip-path="url(#clip601)" cx="320.26" cy="463.198" r="14.4" fill="#e26f46" fill-rule="evenodd" fill-opacity="1" stroke="none"/>
<circle clip-path="url(#clip601)" cx="421.379" cy="586.349" r="14.4" fill="#e26f46" fill-rule="evenodd" fill-opacity="1" stroke="none"/>
<circle clip-path="url(#clip601)" cx="522.498" cy="630.802" r="14.4" fill="#e26f46" fill-rule="evenodd" fill-opacity="1" stroke="none"/>
<circle clip-path="url(#clip601)" cx="623.617" cy="653.943" r="14.4" fill="#e26f46" fill-rule="evenodd" fill-opacity="1" stroke="none"/>
<circle clip-path="url(#clip601)" cx="724.737" cy="678.611" r="14.4" fill="#e26f46" fill-rule="evenodd" fill-opacity="1" stroke="none"/>
<circle clip-path="url(#clip601)" cx="825.856" cy="684.231" r="14.4" fill="#e26f46" fill-rule="evenodd" fill-opacity="1" stroke="none"/>
<circle clip-path="url(#clip601)" cx="926.975" cy="700.906" r="14.4" fill="#e26f46" fill-rule="evenodd" fill-opacity="1" stroke="none"/>
<circle clip-path="url(#clip601)" cx="1028.09" cy="708.942" r="14.4" fill="#e26f46" fill-rule="evenodd" fill-opacity="1" stroke="none"/>
<circle clip-path="url(#clip601)" cx="1129.21" cy="701.379" r="14.4" fill="#e26f46" fill-rule="evenodd" fill-opacity="1" stroke="none"/>
<circle clip-path="url(#clip601)" cx="1230.33" cy="713.659" r="14.4" fill="#e26f46" fill-rule="evenodd" fill-opacity="1" stroke="none"/>
<circle clip-path="url(#clip601)" cx="1331.45" cy="720.841" r="14.4" fill="#e26f46" fill-rule="evenodd" fill-opacity="1" stroke="none"/>
<circle clip-path="url(#clip601)" cx="1432.57" cy="726.507" r="14.4" fill="#e26f46" fill-rule="evenodd" fill-opacity="1" stroke="none"/>
<circle clip-path="url(#clip601)" cx="1533.69" cy="724.053" r="14.4" fill="#e26f46" fill-rule="evenodd" fill-opacity="1" stroke="none"/>
<circle clip-path="url(#clip601)" cx="1634.81" cy="722.201" r="14.4" fill="#e26f46" fill-rule="evenodd" fill-opacity="1" stroke="none"/>
<circle clip-path="url(#clip601)" cx="1735.93" cy="721.67" r="14.4" fill="#e26f46" fill-rule="evenodd" fill-opacity="1" stroke="none"/>
<circle clip-path="url(#clip601)" cx="1837.05" cy="727.289" r="14.4" fill="#e26f46" fill-rule="evenodd" fill-opacity="1" stroke="none"/>
<circle clip-path="url(#clip601)" cx="1938.17" cy="731.588" r="14.4" fill="#e26f46" fill-rule="evenodd" fill-opacity="1" stroke="none"/>
<circle clip-path="url(#clip601)" cx="2039.29" cy="726.332" r="14.4" fill="#e26f46" fill-rule="evenodd" fill-opacity="1" stroke="none"/>
<path clip-path="url(#clip600)" d="M1542.44 248.629 L2281.3 248.629 L2281.3 93.1086 L1542.44 93.1086  Z" fill="#ffffff" fill-rule="evenodd" fill-opacity="1"/>
<polyline clip-path="url(#clip600)" style="stroke:#000000; stroke-linecap:round; stroke-linejoin:round; stroke-width:4; stroke-opacity:1; fill:none" points="1542.44,248.629 2281.3,248.629 2281.3,93.1086 1542.44,93.1086 1542.44,248.629 "/>
<circle clip-path="url(#clip600)" cx="1637.71" cy="144.949" r="20.48" fill="#009af9" fill-rule="evenodd" fill-opacity="1" stroke="none"/>
<path clip-path="url(#clip600)" d="M1732.99 127.669 L1739.29 127.669 L1754.61 156.581 L1754.61 127.669 L1759.15 127.669 L1759.15 162.229 L1752.85 162.229 L1737.53 133.317 L1737.53 162.229 L1732.99 162.229 L1732.99 127.669 Z" fill="#000000" fill-rule="nonzero" fill-opacity="1" /><path clip-path="url(#clip600)" d="M1778.32 139.289 Q1774.89 139.289 1772.9 141.974 Q1770.91 144.636 1770.91 149.289 Q1770.91 153.942 1772.88 156.627 Q1774.87 159.289 1778.32 159.289 Q1781.72 159.289 1783.71 156.604 Q1785.7 153.918 1785.7 149.289 Q1785.7 144.682 1783.71 141.997 Q1781.72 139.289 1778.32 139.289 M1778.32 135.678 Q1783.87 135.678 1787.04 139.289 Q1790.21 142.9 1790.21 149.289 Q1790.21 155.655 1787.04 159.289 Q1783.87 162.9 1778.32 162.9 Q1772.74 162.9 1769.57 159.289 Q1766.42 155.655 1766.42 149.289 Q1766.42 142.9 1769.57 139.289 Q1772.74 135.678 1778.32 135.678 Z" fill="#000000" fill-rule="nonzero" fill-opacity="1" /><path clip-path="url(#clip600)" d="M1797.27 136.303 L1801.53 136.303 L1801.53 162.229 L1797.27 162.229 L1797.27 136.303 M1797.27 126.21 L1801.53 126.21 L1801.53 131.604 L1797.27 131.604 L1797.27 126.21 Z" fill="#000000" fill-rule="nonzero" fill-opacity="1" /><path clip-path="url(#clip600)" d="M1826.97 137.067 L1826.97 141.094 Q1825.17 140.169 1823.22 139.706 Q1821.28 139.243 1819.19 139.243 Q1816.02 139.243 1814.43 140.215 Q1812.85 141.187 1812.85 143.131 Q1812.85 144.613 1813.99 145.469 Q1815.12 146.303 1818.55 147.067 L1820 147.391 Q1824.54 148.363 1826.44 150.145 Q1828.36 151.905 1828.36 155.076 Q1828.36 158.687 1825.49 160.793 Q1822.64 162.9 1817.64 162.9 Q1815.56 162.9 1813.29 162.483 Q1811.05 162.09 1808.55 161.28 L1808.55 156.881 Q1810.91 158.108 1813.2 158.733 Q1815.49 159.335 1817.74 159.335 Q1820.75 159.335 1822.37 158.317 Q1823.99 157.275 1823.99 155.4 Q1823.99 153.664 1822.81 152.738 Q1821.65 151.812 1817.69 150.956 L1816.21 150.608 Q1812.25 149.775 1810.49 148.062 Q1808.73 146.326 1808.73 143.317 Q1808.73 139.659 1811.32 137.669 Q1813.92 135.678 1818.69 135.678 Q1821.05 135.678 1823.13 136.025 Q1825.21 136.372 1826.97 137.067 Z" fill="#000000" fill-rule="nonzero" fill-opacity="1" /><path clip-path="url(#clip600)" d="M1845.93 164.636 Q1844.12 169.266 1842.41 170.678 Q1840.7 172.09 1837.83 172.09 L1834.43 172.09 L1834.43 168.525 L1836.93 168.525 Q1838.69 168.525 1839.66 167.692 Q1840.63 166.858 1841.81 163.756 L1842.57 161.812 L1832.09 136.303 L1836.6 136.303 L1844.7 156.581 L1852.81 136.303 L1857.32 136.303 L1845.93 164.636 Z" fill="#000000" fill-rule="nonzero" fill-opacity="1" /><path clip-path="url(#clip600)" d="M1895.33 140.238 L1895.33 126.21 L1899.59 126.21 L1899.59 162.229 L1895.33 162.229 L1895.33 158.34 Q1893.99 160.655 1891.93 161.789 Q1889.89 162.9 1887.02 162.9 Q1882.32 162.9 1879.36 159.15 Q1876.42 155.4 1876.42 149.289 Q1876.42 143.178 1879.36 139.428 Q1882.32 135.678 1887.02 135.678 Q1889.89 135.678 1891.93 136.812 Q1893.99 137.923 1895.33 140.238 M1880.81 149.289 Q1880.81 153.988 1882.74 156.673 Q1884.68 159.335 1888.06 159.335 Q1891.44 159.335 1893.38 156.673 Q1895.33 153.988 1895.33 149.289 Q1895.33 144.59 1893.38 141.928 Q1891.44 139.243 1888.06 139.243 Q1884.68 139.243 1882.74 141.928 Q1880.81 144.59 1880.81 149.289 Z" fill="#000000" fill-rule="nonzero" fill-opacity="1" /><path clip-path="url(#clip600)" d="M1920.14 149.196 Q1914.98 149.196 1912.99 150.377 Q1911 151.557 1911 154.405 Q1911 156.673 1912.48 158.016 Q1913.99 159.335 1916.56 159.335 Q1920.1 159.335 1922.23 156.835 Q1924.38 154.312 1924.38 150.145 L1924.38 149.196 L1920.14 149.196 M1928.64 147.437 L1928.64 162.229 L1924.38 162.229 L1924.38 158.293 Q1922.92 160.655 1920.74 161.789 Q1918.57 162.9 1915.42 162.9 Q1911.44 162.9 1909.08 160.678 Q1906.74 158.432 1906.74 154.682 Q1906.74 150.307 1909.66 148.085 Q1912.6 145.863 1918.41 145.863 L1924.38 145.863 L1924.38 145.446 Q1924.38 142.507 1922.43 140.909 Q1920.51 139.289 1917.02 139.289 Q1914.8 139.289 1912.69 139.821 Q1910.58 140.354 1908.64 141.419 L1908.64 137.483 Q1910.98 136.581 1913.18 136.141 Q1915.37 135.678 1917.46 135.678 Q1923.08 135.678 1925.86 138.594 Q1928.64 141.511 1928.64 147.437 Z" fill="#000000" fill-rule="nonzero" fill-opacity="1" /><path clip-path="url(#clip600)" d="M1941.62 128.942 L1941.62 136.303 L1950.4 136.303 L1950.4 139.613 L1941.62 139.613 L1941.62 153.687 Q1941.62 156.858 1942.48 157.761 Q1943.36 158.664 1946.02 158.664 L1950.4 158.664 L1950.4 162.229 L1946.02 162.229 Q1941.09 162.229 1939.22 160.4 Q1937.34 158.548 1937.34 153.687 L1937.34 139.613 L1934.22 139.613 L1934.22 136.303 L1937.34 136.303 L1937.34 128.942 L1941.62 128.942 Z" fill="#000000" fill-rule="nonzero" fill-opacity="1" /><path clip-path="url(#clip600)" d="M1967.78 149.196 Q1962.62 149.196 1960.63 150.377 Q1958.64 151.557 1958.64 154.405 Q1958.64 156.673 1960.12 158.016 Q1961.62 159.335 1964.19 159.335 Q1967.74 159.335 1969.86 156.835 Q1972.02 154.312 1972.02 150.145 L1972.02 149.196 L1967.78 149.196 M1976.28 147.437 L1976.28 162.229 L1972.02 162.229 L1972.02 158.293 Q1970.56 160.655 1968.38 161.789 Q1966.21 162.9 1963.06 162.9 Q1959.08 162.9 1956.72 160.678 Q1954.38 158.432 1954.38 154.682 Q1954.38 150.307 1957.3 148.085 Q1960.24 145.863 1966.05 145.863 L1972.02 145.863 L1972.02 145.446 Q1972.02 142.507 1970.07 140.909 Q1968.15 139.289 1964.66 139.289 Q1962.43 139.289 1960.33 139.821 Q1958.22 140.354 1956.28 141.419 L1956.28 137.483 Q1958.61 136.581 1960.81 136.141 Q1963.01 135.678 1965.1 135.678 Q1970.72 135.678 1973.5 138.594 Q1976.28 141.511 1976.28 147.437 Z" fill="#000000" fill-rule="nonzero" fill-opacity="1" /><path clip-path="url(#clip600)" d="M1997.97 147.344 L2010.44 147.344 L2010.44 151.141 L1997.97 151.141 L1997.97 147.344 Z" fill="#000000" fill-rule="nonzero" fill-opacity="1" /><path clip-path="url(#clip600)" d="M2047.32 140.284 Q2046.6 139.868 2045.74 139.682 Q2044.91 139.474 2043.89 139.474 Q2040.28 139.474 2038.34 141.835 Q2036.42 144.173 2036.42 148.571 L2036.42 162.229 L2032.13 162.229 L2032.13 136.303 L2036.42 136.303 L2036.42 140.331 Q2037.76 137.969 2039.91 136.835 Q2042.06 135.678 2045.14 135.678 Q2045.58 135.678 2046.11 135.747 Q2046.65 135.794 2047.3 135.909 L2047.32 140.284 Z" fill="#000000" fill-rule="nonzero" fill-opacity="1" /><path clip-path="url(#clip600)" d="M2072.92 148.201 L2072.92 150.284 L2053.34 150.284 Q2053.61 154.682 2055.98 156.997 Q2058.36 159.289 2062.6 159.289 Q2065.05 159.289 2067.34 158.687 Q2069.66 158.085 2071.92 156.881 L2071.92 160.909 Q2069.63 161.881 2067.23 162.391 Q2064.82 162.9 2062.34 162.9 Q2056.14 162.9 2052.5 159.289 Q2048.89 155.678 2048.89 149.52 Q2048.89 143.155 2052.32 139.428 Q2055.77 135.678 2061.6 135.678 Q2066.83 135.678 2069.86 139.057 Q2072.92 142.414 2072.92 148.201 M2068.66 146.951 Q2068.61 143.456 2066.69 141.372 Q2064.79 139.289 2061.65 139.289 Q2058.08 139.289 2055.93 141.303 Q2053.8 143.317 2053.48 146.974 L2068.66 146.951 Z" fill="#000000" fill-rule="nonzero" fill-opacity="1" /><path clip-path="url(#clip600)" d="M2091.69 149.196 Q2086.53 149.196 2084.54 150.377 Q2082.55 151.557 2082.55 154.405 Q2082.55 156.673 2084.03 158.016 Q2085.54 159.335 2088.11 159.335 Q2091.65 159.335 2093.78 156.835 Q2095.93 154.312 2095.93 150.145 L2095.93 149.196 L2091.69 149.196 M2100.19 147.437 L2100.19 162.229 L2095.93 162.229 L2095.93 158.293 Q2094.47 160.655 2092.29 161.789 Q2090.12 162.9 2086.97 162.9 Q2082.99 162.9 2080.63 160.678 Q2078.29 158.432 2078.29 154.682 Q2078.29 150.307 2081.21 148.085 Q2084.15 145.863 2089.96 145.863 L2095.93 145.863 L2095.93 145.446 Q2095.93 142.507 2093.98 140.909 Q2092.06 139.289 2088.57 139.289 Q2086.35 139.289 2084.24 139.821 Q2082.13 140.354 2080.19 141.419 L2080.19 137.483 Q2082.53 136.581 2084.73 136.141 Q2086.92 135.678 2089.01 135.678 Q2094.63 135.678 2097.41 138.594 Q2100.19 141.511 2100.19 147.437 Z" fill="#000000" fill-rule="nonzero" fill-opacity="1" /><path clip-path="url(#clip600)" d="M2108.96 126.21 L2113.22 126.21 L2113.22 162.229 L2108.96 162.229 L2108.96 126.21 Z" fill="#000000" fill-rule="nonzero" fill-opacity="1" /><path clip-path="url(#clip600)" d="M2141.32 158.34 L2141.32 172.09 L2137.04 172.09 L2137.04 136.303 L2141.32 136.303 L2141.32 140.238 Q2142.66 137.923 2144.7 136.812 Q2146.76 135.678 2149.61 135.678 Q2154.33 135.678 2157.27 139.428 Q2160.23 143.178 2160.23 149.289 Q2160.23 155.4 2157.27 159.15 Q2154.33 162.9 2149.61 162.9 Q2146.76 162.9 2144.7 161.789 Q2142.66 160.655 2141.32 158.34 M2155.81 149.289 Q2155.81 144.59 2153.87 141.928 Q2151.95 139.243 2148.57 139.243 Q2145.19 139.243 2143.24 141.928 Q2141.32 144.59 2141.32 149.289 Q2141.32 153.988 2143.24 156.673 Q2145.19 159.335 2148.57 159.335 Q2151.95 159.335 2153.87 156.673 Q2155.81 153.988 2155.81 149.289 Z" fill="#000000" fill-rule="nonzero" fill-opacity="1" /><path clip-path="url(#clip600)" d="M2179.08 149.196 Q2173.91 149.196 2171.92 150.377 Q2169.93 151.557 2169.93 154.405 Q2169.93 156.673 2171.41 158.016 Q2172.92 159.335 2175.49 159.335 Q2179.03 159.335 2181.16 156.835 Q2183.31 154.312 2183.31 150.145 L2183.31 149.196 L2179.08 149.196 M2187.57 147.437 L2187.57 162.229 L2183.31 162.229 L2183.31 158.293 Q2181.85 160.655 2179.68 161.789 Q2177.5 162.9 2174.35 162.9 Q2170.37 162.9 2168.01 160.678 Q2165.67 158.432 2165.67 154.682 Q2165.67 150.307 2168.59 148.085 Q2171.53 145.863 2177.34 145.863 L2183.31 145.863 L2183.31 145.446 Q2183.31 142.507 2181.37 140.909 Q2179.45 139.289 2175.95 139.289 Q2173.73 139.289 2171.62 139.821 Q2169.52 140.354 2167.57 141.419 L2167.57 137.483 Q2169.91 136.581 2172.11 136.141 Q2174.31 135.678 2176.39 135.678 Q2182.02 135.678 2184.79 138.594 Q2187.57 141.511 2187.57 147.437 Z" fill="#000000" fill-rule="nonzero" fill-opacity="1" /><path clip-path="url(#clip600)" d="M2211.37 140.284 Q2210.65 139.868 2209.79 139.682 Q2208.96 139.474 2207.94 139.474 Q2204.33 139.474 2202.39 141.835 Q2200.47 144.173 2200.47 148.571 L2200.47 162.229 L2196.18 162.229 L2196.18 136.303 L2200.47 136.303 L2200.47 140.331 Q2201.81 137.969 2203.96 136.835 Q2206.11 135.678 2209.19 135.678 Q2209.63 135.678 2210.16 135.747 Q2210.7 135.794 2211.35 135.909 L2211.37 140.284 Z" fill="#000000" fill-rule="nonzero" fill-opacity="1" /><path clip-path="url(#clip600)" d="M2220.05 128.942 L2220.05 136.303 L2228.82 136.303 L2228.82 139.613 L2220.05 139.613 L2220.05 153.687 Q2220.05 156.858 2220.91 157.761 Q2221.78 158.664 2224.45 158.664 L2228.82 158.664 L2228.82 162.229 L2224.45 162.229 Q2219.52 162.229 2217.64 160.4 Q2215.77 158.548 2215.77 153.687 L2215.77 139.613 L2212.64 139.613 L2212.64 136.303 L2215.77 136.303 L2215.77 128.942 L2220.05 128.942 Z" fill="#000000" fill-rule="nonzero" fill-opacity="1" /><circle clip-path="url(#clip600)" cx="1637.71" cy="196.789" r="20.48" fill="#e26f46" fill-rule="evenodd" fill-opacity="1" stroke="none"/>
<path clip-path="url(#clip600)" d="M1732.99 179.509 L1739.29 179.509 L1754.61 208.421 L1754.61 179.509 L1759.15 179.509 L1759.15 214.069 L1752.85 214.069 L1737.53 185.157 L1737.53 214.069 L1732.99 214.069 L1732.99 179.509 Z" fill="#000000" fill-rule="nonzero" fill-opacity="1" /><path clip-path="url(#clip600)" d="M1778.32 191.129 Q1774.89 191.129 1772.9 193.814 Q1770.91 196.476 1770.91 201.129 Q1770.91 205.782 1772.88 208.467 Q1774.87 211.129 1778.32 211.129 Q1781.72 211.129 1783.71 208.444 Q1785.7 205.758 1785.7 201.129 Q1785.7 196.522 1783.71 193.837 Q1781.72 191.129 1778.32 191.129 M1778.32 187.518 Q1783.87 187.518 1787.04 191.129 Q1790.21 194.74 1790.21 201.129 Q1790.21 207.495 1787.04 211.129 Q1783.87 214.74 1778.32 214.74 Q1772.74 214.74 1769.57 211.129 Q1766.42 207.495 1766.42 201.129 Q1766.42 194.74 1769.57 191.129 Q1772.74 187.518 1778.32 187.518 Z" fill="#000000" fill-rule="nonzero" fill-opacity="1" /><path clip-path="url(#clip600)" d="M1797.27 188.143 L1801.53 188.143 L1801.53 214.069 L1797.27 214.069 L1797.27 188.143 M1797.27 178.05 L1801.53 178.05 L1801.53 183.444 L1797.27 183.444 L1797.27 178.05 Z" fill="#000000" fill-rule="nonzero" fill-opacity="1" /><path clip-path="url(#clip600)" d="M1826.97 188.907 L1826.97 192.934 Q1825.17 192.009 1823.22 191.546 Q1821.28 191.083 1819.19 191.083 Q1816.02 191.083 1814.43 192.055 Q1812.85 193.027 1812.85 194.971 Q1812.85 196.453 1813.99 197.309 Q1815.12 198.143 1818.55 198.907 L1820 199.231 Q1824.54 200.203 1826.44 201.985 Q1828.36 203.745 1828.36 206.916 Q1828.36 210.527 1825.49 212.633 Q1822.64 214.74 1817.64 214.74 Q1815.56 214.74 1813.29 214.323 Q1811.05 213.93 1808.55 213.12 L1808.55 208.721 Q1810.91 209.948 1813.2 210.573 Q1815.49 211.175 1817.74 211.175 Q1820.75 211.175 1822.37 210.157 Q1823.99 209.115 1823.99 207.24 Q1823.99 205.504 1822.81 204.578 Q1821.65 203.652 1817.69 202.796 L1816.21 202.448 Q1812.25 201.615 1810.49 199.902 Q1808.73 198.166 1808.73 195.157 Q1808.73 191.499 1811.32 189.509 Q1813.92 187.518 1818.69 187.518 Q1821.05 187.518 1823.13 187.865 Q1825.21 188.212 1826.97 188.907 Z" fill="#000000" fill-rule="nonzero" fill-opacity="1" /><path clip-path="url(#clip600)" d="M1845.93 216.476 Q1844.12 221.106 1842.41 222.518 Q1840.7 223.93 1837.83 223.93 L1834.43 223.93 L1834.43 220.365 L1836.93 220.365 Q1838.69 220.365 1839.66 219.532 Q1840.63 218.698 1841.81 215.596 L1842.57 213.652 L1832.09 188.143 L1836.6 188.143 L1844.7 208.421 L1852.81 188.143 L1857.32 188.143 L1845.93 216.476 Z" fill="#000000" fill-rule="nonzero" fill-opacity="1" /><path clip-path="url(#clip600)" d="M1895.33 192.078 L1895.33 178.05 L1899.59 178.05 L1899.59 214.069 L1895.33 214.069 L1895.33 210.18 Q1893.99 212.495 1891.93 213.629 Q1889.89 214.74 1887.02 214.74 Q1882.32 214.74 1879.36 210.99 Q1876.42 207.24 1876.42 201.129 Q1876.42 195.018 1879.36 191.268 Q1882.32 187.518 1887.02 187.518 Q1889.89 187.518 1891.93 188.652 Q1893.99 189.763 1895.33 192.078 M1880.81 201.129 Q1880.81 205.828 1882.74 208.513 Q1884.68 211.175 1888.06 211.175 Q1891.44 211.175 1893.38 208.513 Q1895.33 205.828 1895.33 201.129 Q1895.33 196.43 1893.38 193.768 Q1891.44 191.083 1888.06 191.083 Q1884.68 191.083 1882.74 193.768 Q1880.81 196.43 1880.81 201.129 Z" fill="#000000" fill-rule="nonzero" fill-opacity="1" /><path clip-path="url(#clip600)" d="M1920.14 201.036 Q1914.98 201.036 1912.99 202.217 Q1911 203.397 1911 206.245 Q1911 208.513 1912.48 209.856 Q1913.99 211.175 1916.56 211.175 Q1920.1 211.175 1922.23 208.675 Q1924.38 206.152 1924.38 201.985 L1924.38 201.036 L1920.14 201.036 M1928.64 199.277 L1928.64 214.069 L1924.38 214.069 L1924.38 210.133 Q1922.92 212.495 1920.74 213.629 Q1918.57 214.74 1915.42 214.74 Q1911.44 214.74 1909.08 212.518 Q1906.74 210.272 1906.74 206.522 Q1906.74 202.147 1909.66 199.925 Q1912.6 197.703 1918.41 197.703 L1924.38 197.703 L1924.38 197.286 Q1924.38 194.347 1922.43 192.749 Q1920.51 191.129 1917.02 191.129 Q1914.8 191.129 1912.69 191.661 Q1910.58 192.194 1908.64 193.259 L1908.64 189.323 Q1910.98 188.421 1913.18 187.981 Q1915.37 187.518 1917.46 187.518 Q1923.08 187.518 1925.86 190.434 Q1928.64 193.351 1928.64 199.277 Z" fill="#000000" fill-rule="nonzero" fill-opacity="1" /><path clip-path="url(#clip600)" d="M1941.62 180.782 L1941.62 188.143 L1950.4 188.143 L1950.4 191.453 L1941.62 191.453 L1941.62 205.527 Q1941.62 208.698 1942.48 209.601 Q1943.36 210.504 1946.02 210.504 L1950.4 210.504 L1950.4 214.069 L1946.02 214.069 Q1941.09 214.069 1939.22 212.24 Q1937.34 210.388 1937.34 205.527 L1937.34 191.453 L1934.22 191.453 L1934.22 188.143 L1937.34 188.143 L1937.34 180.782 L1941.62 180.782 Z" fill="#000000" fill-rule="nonzero" fill-opacity="1" /><path clip-path="url(#clip600)" d="M1967.78 201.036 Q1962.62 201.036 1960.63 202.217 Q1958.64 203.397 1958.64 206.245 Q1958.64 208.513 1960.12 209.856 Q1961.62 211.175 1964.19 211.175 Q1967.74 211.175 1969.86 208.675 Q1972.02 206.152 1972.02 201.985 L1972.02 201.036 L1967.78 201.036 M1976.28 199.277 L1976.28 214.069 L1972.02 214.069 L1972.02 210.133 Q1970.56 212.495 1968.38 213.629 Q1966.21 214.74 1963.06 214.74 Q1959.08 214.74 1956.72 212.518 Q1954.38 210.272 1954.38 206.522 Q1954.38 202.147 1957.3 199.925 Q1960.24 197.703 1966.05 197.703 L1972.02 197.703 L1972.02 197.286 Q1972.02 194.347 1970.07 192.749 Q1968.15 191.129 1964.66 191.129 Q1962.43 191.129 1960.33 191.661 Q1958.22 192.194 1956.28 193.259 L1956.28 189.323 Q1958.61 188.421 1960.81 187.981 Q1963.01 187.518 1965.1 187.518 Q1970.72 187.518 1973.5 190.434 Q1976.28 193.351 1976.28 199.277 Z" fill="#000000" fill-rule="nonzero" fill-opacity="1" /><path clip-path="url(#clip600)" d="M1997.97 199.184 L2010.44 199.184 L2010.44 202.981 L1997.97 202.981 L1997.97 199.184 Z" fill="#000000" fill-rule="nonzero" fill-opacity="1" /><path clip-path="url(#clip600)" d="M2032.3 188.143 L2036.55 188.143 L2036.55 214.069 L2032.3 214.069 L2032.3 188.143 M2032.3 178.05 L2036.55 178.05 L2036.55 183.444 L2032.3 183.444 L2032.3 178.05 Z" fill="#000000" fill-rule="nonzero" fill-opacity="1" /><path clip-path="url(#clip600)" d="M2065.65 193.12 Q2067.25 190.249 2069.47 188.884 Q2071.69 187.518 2074.7 187.518 Q2078.75 187.518 2080.95 190.365 Q2083.15 193.189 2083.15 198.421 L2083.15 214.069 L2078.87 214.069 L2078.87 198.559 Q2078.87 194.833 2077.55 193.027 Q2076.23 191.222 2073.52 191.222 Q2070.21 191.222 2068.29 193.421 Q2066.37 195.62 2066.37 199.416 L2066.37 214.069 L2062.09 214.069 L2062.09 198.559 Q2062.09 194.809 2060.77 193.027 Q2059.45 191.222 2056.69 191.222 Q2053.43 191.222 2051.51 193.444 Q2049.59 195.643 2049.59 199.416 L2049.59 214.069 L2045.3 214.069 L2045.3 188.143 L2049.59 188.143 L2049.59 192.171 Q2051.05 189.786 2053.08 188.652 Q2055.12 187.518 2057.92 187.518 Q2060.74 187.518 2062.71 188.953 Q2064.7 190.388 2065.65 193.12 Z" fill="#000000" fill-rule="nonzero" fill-opacity="1" /><path clip-path="url(#clip600)" d="M2103.43 201.036 Q2098.27 201.036 2096.28 202.217 Q2094.29 203.397 2094.29 206.245 Q2094.29 208.513 2095.77 209.856 Q2097.27 211.175 2099.84 211.175 Q2103.38 211.175 2105.51 208.675 Q2107.67 206.152 2107.67 201.985 L2107.67 201.036 L2103.43 201.036 M2111.92 199.277 L2111.92 214.069 L2107.67 214.069 L2107.67 210.133 Q2106.21 212.495 2104.03 213.629 Q2101.85 214.74 2098.71 214.74 Q2094.73 214.74 2092.36 212.518 Q2090.03 210.272 2090.03 206.522 Q2090.03 202.147 2092.94 199.925 Q2095.88 197.703 2101.69 197.703 L2107.67 197.703 L2107.67 197.286 Q2107.67 194.347 2105.72 192.749 Q2103.8 191.129 2100.3 191.129 Q2098.08 191.129 2095.98 191.661 Q2093.87 192.194 2091.92 193.259 L2091.92 189.323 Q2094.26 188.421 2096.46 187.981 Q2098.66 187.518 2100.74 187.518 Q2106.37 187.518 2109.15 190.434 Q2111.92 193.351 2111.92 199.277 Z" fill="#000000" fill-rule="nonzero" fill-opacity="1" /><path clip-path="url(#clip600)" d="M2137.76 200.805 Q2137.76 196.175 2135.84 193.629 Q2133.94 191.083 2130.49 191.083 Q2127.06 191.083 2125.14 193.629 Q2123.24 196.175 2123.24 200.805 Q2123.24 205.411 2125.14 207.958 Q2127.06 210.504 2130.49 210.504 Q2133.94 210.504 2135.84 207.958 Q2137.76 205.411 2137.76 200.805 M2142.02 210.851 Q2142.02 217.471 2139.08 220.689 Q2136.14 223.93 2130.07 223.93 Q2127.83 223.93 2125.84 223.582 Q2123.85 223.258 2121.97 222.564 L2121.97 218.42 Q2123.85 219.439 2125.67 219.925 Q2127.5 220.411 2129.4 220.411 Q2133.59 220.411 2135.67 218.212 Q2137.76 216.036 2137.76 211.615 L2137.76 209.508 Q2136.44 211.8 2134.38 212.934 Q2132.32 214.069 2129.45 214.069 Q2124.68 214.069 2121.76 210.434 Q2118.85 206.8 2118.85 200.805 Q2118.85 194.786 2121.76 191.152 Q2124.68 187.518 2129.45 187.518 Q2132.32 187.518 2134.38 188.652 Q2136.44 189.786 2137.76 192.078 L2137.76 188.143 L2142.02 188.143 L2142.02 210.851 Z" fill="#000000" fill-rule="nonzero" fill-opacity="1" /><path clip-path="url(#clip600)" d="M2169.98 210.18 L2169.98 223.93 L2165.7 223.93 L2165.7 188.143 L2169.98 188.143 L2169.98 192.078 Q2171.32 189.763 2173.36 188.652 Q2175.42 187.518 2178.27 187.518 Q2182.99 187.518 2185.93 191.268 Q2188.89 195.018 2188.89 201.129 Q2188.89 207.24 2185.93 210.99 Q2182.99 214.74 2178.27 214.74 Q2175.42 214.74 2173.36 213.629 Q2171.32 212.495 2169.98 210.18 M2184.47 201.129 Q2184.47 196.43 2182.53 193.768 Q2180.6 191.083 2177.22 191.083 Q2173.85 191.083 2171.9 193.768 Q2169.98 196.43 2169.98 201.129 Q2169.98 205.828 2171.9 208.513 Q2173.85 211.175 2177.22 211.175 Q2180.6 211.175 2182.53 208.513 Q2184.47 205.828 2184.47 201.129 Z" fill="#000000" fill-rule="nonzero" fill-opacity="1" /><path clip-path="url(#clip600)" d="M2207.73 201.036 Q2202.57 201.036 2200.58 202.217 Q2198.59 203.397 2198.59 206.245 Q2198.59 208.513 2200.07 209.856 Q2201.58 211.175 2204.15 211.175 Q2207.69 211.175 2209.82 208.675 Q2211.97 206.152 2211.97 201.985 L2211.97 201.036 L2207.73 201.036 M2216.23 199.277 L2216.23 214.069 L2211.97 214.069 L2211.97 210.133 Q2210.51 212.495 2208.34 213.629 Q2206.16 214.74 2203.01 214.74 Q2199.03 214.74 2196.67 212.518 Q2194.33 210.272 2194.33 206.522 Q2194.33 202.147 2197.25 199.925 Q2200.19 197.703 2206 197.703 L2211.97 197.703 L2211.97 197.286 Q2211.97 194.347 2210.03 192.749 Q2208.1 191.129 2204.61 191.129 Q2202.39 191.129 2200.28 191.661 Q2198.17 192.194 2196.23 193.259 L2196.23 189.323 Q2198.57 188.421 2200.77 187.981 Q2202.97 187.518 2205.05 187.518 Q2210.67 187.518 2213.45 190.434 Q2216.23 193.351 2216.23 199.277 Z" fill="#000000" fill-rule="nonzero" fill-opacity="1" /><path clip-path="url(#clip600)" d="M2240.03 192.124 Q2239.31 191.708 2238.45 191.522 Q2237.62 191.314 2236.6 191.314 Q2232.99 191.314 2231.04 193.675 Q2229.12 196.013 2229.12 200.411 L2229.12 214.069 L2224.84 214.069 L2224.84 188.143 L2229.12 188.143 L2229.12 192.171 Q2230.47 189.809 2232.62 188.675 Q2234.77 187.518 2237.85 187.518 Q2238.29 187.518 2238.82 187.587 Q2239.35 187.634 2240 187.749 L2240.03 192.124 Z" fill="#000000" fill-rule="nonzero" fill-opacity="1" /><path clip-path="url(#clip600)" d="M2248.71 180.782 L2248.71 188.143 L2257.48 188.143 L2257.48 191.453 L2248.71 191.453 L2248.71 205.527 Q2248.71 208.698 2249.56 209.601 Q2250.44 210.504 2253.1 210.504 L2257.48 210.504 L2257.48 214.069 L2253.1 214.069 Q2248.17 214.069 2246.3 212.24 Q2244.42 210.388 2244.42 205.527 L2244.42 191.453 L2241.3 191.453 L2241.3 188.143 L2244.42 188.143 L2244.42 180.782 L2248.71 180.782 Z" fill="#000000" fill-rule="nonzero" fill-opacity="1" /></svg>
