<?xml version="1.0" encoding="utf-8"?>
<svg xmlns="http://www.w3.org/2000/svg" xmlns:xlink="http://www.w3.org/1999/xlink" width="600" height="400" viewBox="0 0 2400 1600">
<defs>
  <clipPath id="clip630">
    <rect x="0" y="0" width="2400" height="1600"/>
  </clipPath>
</defs>
<path clip-path="url(#clip630)" d="M0 1600 L2400 1600 L2400 0 L0 0  Z" fill="#ffffff" fill-rule="evenodd" fill-opacity="1"/>
<defs>
  <clipPath id="clip631">
    <rect x="232" y="47" width="2121" height="1377"/>
  </clipPath>
</defs>
<path clip-path="url(#clip630)" d="M232.389 1423.18 L2352.76 1423.18 L2352.76 47.2441 L232.389 47.2441  Z" fill="#ffffff" fill-rule="evenodd" fill-opacity="1"/>
<polyline clip-path="url(#clip631)" style="stroke:#000000; stroke-linecap:round; stroke-linejoin:round; stroke-width:2; stroke-opacity:0.1; fill:none" points="292.4,1423.18 292.4,47.2441 "/>
<polyline clip-path="url(#clip631)" style="stroke:#000000; stroke-linecap:round; stroke-linejoin:round; stroke-width:2; stroke-opacity:0.1; fill:none" points="692.469,1423.18 692.469,47.2441 "/>
<polyline clip-path="url(#clip631)" style="stroke:#000000; stroke-linecap:round; stroke-linejoin:round; stroke-width:2; stroke-opacity:0.1; fill:none" points="1092.54,1423.18 1092.54,47.2441 "/>
<polyline clip-path="url(#clip631)" style="stroke:#000000; stroke-linecap:round; stroke-linejoin:round; stroke-width:2; stroke-opacity:0.1; fill:none" points="1492.61,1423.18 1492.61,47.2441 "/>
<polyline clip-path="url(#clip631)" style="stroke:#000000; stroke-linecap:round; stroke-linejoin:round; stroke-width:2; stroke-opacity:0.1; fill:none" points="1892.68,1423.18 1892.68,47.2441 "/>
<polyline clip-path="url(#clip631)" style="stroke:#000000; stroke-linecap:round; stroke-linejoin:round; stroke-width:2; stroke-opacity:0.1; fill:none" points="232.389,1325.24 2352.76,1325.24 "/>
<polyline clip-path="url(#clip631)" style="stroke:#000000; stroke-linecap:round; stroke-linejoin:round; stroke-width:2; stroke-opacity:0.1; fill:none" points="232.389,1030.22 2352.76,1030.22 "/>
<polyline clip-path="url(#clip631)" style="stroke:#000000; stroke-linecap:round; stroke-linejoin:round; stroke-width:2; stroke-opacity:0.1; fill:none" points="232.389,735.212 2352.76,735.212 "/>
<polyline clip-path="url(#clip631)" style="stroke:#000000; stroke-linecap:round; stroke-linejoin:round; stroke-width:2; stroke-opacity:0.1; fill:none" points="232.389,440.2 2352.76,440.2 "/>
<polyline clip-path="url(#clip631)" style="stroke:#000000; stroke-linecap:round; stroke-linejoin:round; stroke-width:2; stroke-opacity:0.1; fill:none" points="232.389,145.188 2352.76,145.188 "/>
<polyline clip-path="url(#clip630)" style="stroke:#000000; stroke-linecap:round; stroke-linejoin:round; stroke-width:4; stroke-opacity:1; fill:none" points="232.389,1423.18 2352.76,1423.18 "/>
<polyline clip-path="url(#clip630)" style="stroke:#000000; stroke-linecap:round; stroke-linejoin:round; stroke-width:4; stroke-opacity:1; fill:none" points="292.4,1423.18 292.4,1404.28 "/>
<polyline clip-path="url(#clip630)" style="stroke:#000000; stroke-linecap:round; stroke-linejoin:round; stroke-width:4; stroke-opacity:1; fill:none" points="692.469,1423.18 692.469,1404.28 "/>
<polyline clip-path="url(#clip630)" style="stroke:#000000; stroke-linecap:round; stroke-linejoin:round; stroke-width:4; stroke-opacity:1; fill:none" points="1092.54,1423.18 1092.54,1404.28 "/>
<polyline clip-path="url(#clip630)" style="stroke:#000000; stroke-linecap:round; stroke-linejoin:round; stroke-width:4; stroke-opacity:1; fill:none" points="1492.61,1423.18 1492.61,1404.28 "/>
<polyline clip-path="url(#clip630)" style="stroke:#000000; stroke-linecap:round; stroke-linejoin:round; stroke-width:4; stroke-opacity:1; fill:none" points="1892.68,1423.18 1892.68,1404.28 "/>
<path clip-path="url(#clip630)" d="M292.4 1454.1 Q288.789 1454.1 286.96 1457.66 Q285.154 1461.2 285.154 1468.33 Q285.154 1475.44 286.96 1479.01 Q288.789 1482.55 292.4 1482.55 Q296.034 1482.55 297.84 1479.01 Q299.668 1475.44 299.668 1468.33 Q299.668 1461.2 297.84 1457.66 Q296.034 1454.1 292.4 1454.1 M292.4 1450.39 Q298.21 1450.39 301.265 1455 Q304.344 1459.58 304.344 1468.33 Q304.344 1477.06 301.265 1481.67 Q298.21 1486.25 292.4 1486.25 Q286.59 1486.25 283.511 1481.67 Q280.455 1477.06 280.455 1468.33 Q280.455 1459.58 283.511 1455 Q286.59 1450.39 292.4 1450.39 Z" fill="#000000" fill-rule="nonzero" fill-opacity="1" /><path clip-path="url(#clip630)" d="M680.64 1455.09 L668.835 1473.54 L680.64 1473.54 L680.64 1455.09 M679.413 1451.02 L685.293 1451.02 L685.293 1473.54 L690.224 1473.54 L690.224 1477.43 L685.293 1477.43 L685.293 1485.58 L680.64 1485.58 L680.64 1477.43 L665.038 1477.43 L665.038 1472.92 L679.413 1451.02 Z" fill="#000000" fill-rule="nonzero" fill-opacity="1" /><path clip-path="url(#clip630)" d="M707.955 1454.1 Q704.344 1454.1 702.515 1457.66 Q700.71 1461.2 700.71 1468.33 Q700.71 1475.44 702.515 1479.01 Q704.344 1482.55 707.955 1482.55 Q711.589 1482.55 713.395 1479.01 Q715.223 1475.44 715.223 1468.33 Q715.223 1461.2 713.395 1457.66 Q711.589 1454.1 707.955 1454.1 M707.955 1450.39 Q713.765 1450.39 716.821 1455 Q719.899 1459.58 719.899 1468.33 Q719.899 1477.06 716.821 1481.67 Q713.765 1486.25 707.955 1486.25 Q702.145 1486.25 699.066 1481.67 Q696.011 1477.06 696.011 1468.33 Q696.011 1459.58 699.066 1455 Q702.145 1450.39 707.955 1450.39 Z" fill="#000000" fill-rule="nonzero" fill-opacity="1" /><path clip-path="url(#clip630)" d="M1077.41 1469.17 Q1074.08 1469.17 1072.16 1470.95 Q1070.26 1472.73 1070.26 1475.86 Q1070.26 1478.98 1072.16 1480.77 Q1074.08 1482.55 1077.41 1482.55 Q1080.74 1482.55 1082.67 1480.77 Q1084.59 1478.96 1084.59 1475.86 Q1084.59 1472.73 1082.67 1470.95 Q1080.77 1469.17 1077.41 1469.17 M1072.73 1467.18 Q1069.73 1466.44 1068.04 1464.38 Q1066.37 1462.32 1066.37 1459.35 Q1066.37 1455.21 1069.31 1452.8 Q1072.27 1450.39 1077.41 1450.39 Q1082.57 1450.39 1085.51 1452.8 Q1088.45 1455.21 1088.45 1459.35 Q1088.45 1462.32 1086.76 1464.38 Q1085.1 1466.44 1082.11 1467.18 Q1085.49 1467.96 1087.36 1470.26 Q1089.26 1472.55 1089.26 1475.86 Q1089.26 1480.88 1086.18 1483.57 Q1083.13 1486.25 1077.41 1486.25 Q1071.69 1486.25 1068.61 1483.57 Q1065.56 1480.88 1065.56 1475.86 Q1065.56 1472.55 1067.46 1470.26 Q1069.36 1467.96 1072.73 1467.18 M1071.02 1459.79 Q1071.02 1462.48 1072.69 1463.98 Q1074.38 1465.49 1077.41 1465.49 Q1080.42 1465.49 1082.11 1463.98 Q1083.82 1462.48 1083.82 1459.79 Q1083.82 1457.11 1082.11 1455.6 Q1080.42 1454.1 1077.41 1454.1 Q1074.38 1454.1 1072.69 1455.6 Q1071.02 1457.11 1071.02 1459.79 Z" fill="#000000" fill-rule="nonzero" fill-opacity="1" /><path clip-path="url(#clip630)" d="M1107.57 1454.1 Q1103.96 1454.1 1102.13 1457.66 Q1100.33 1461.2 1100.33 1468.33 Q1100.33 1475.44 1102.13 1479.01 Q1103.96 1482.55 1107.57 1482.55 Q1111.21 1482.55 1113.01 1479.01 Q1114.84 1475.44 1114.84 1468.33 Q1114.84 1461.2 1113.01 1457.66 Q1111.21 1454.1 1107.57 1454.1 M1107.57 1450.39 Q1113.38 1450.39 1116.44 1455 Q1119.52 1459.58 1119.52 1468.33 Q1119.52 1477.06 1116.44 1481.67 Q1113.38 1486.25 1107.57 1486.25 Q1101.76 1486.25 1098.68 1481.67 Q1095.63 1477.06 1095.63 1468.33 Q1095.63 1459.58 1098.68 1455 Q1101.76 1450.39 1107.57 1450.39 Z" fill="#000000" fill-rule="nonzero" fill-opacity="1" /><path clip-path="url(#clip630)" d="M1452.21 1481.64 L1459.85 1481.64 L1459.85 1455.28 L1451.54 1456.95 L1451.54 1452.69 L1459.81 1451.02 L1464.48 1451.02 L1464.48 1481.64 L1472.12 1481.64 L1472.12 1485.58 L1452.21 1485.58 L1452.21 1481.64 Z" fill="#000000" fill-rule="nonzero" fill-opacity="1" /><path clip-path="url(#clip630)" d="M1485.59 1481.64 L1501.91 1481.64 L1501.91 1485.58 L1479.97 1485.58 L1479.97 1481.64 Q1482.63 1478.89 1487.21 1474.26 Q1491.82 1469.61 1493 1468.27 Q1495.25 1465.74 1496.13 1464.01 Q1497.03 1462.25 1497.03 1460.56 Q1497.03 1457.8 1495.08 1456.07 Q1493.16 1454.33 1490.06 1454.33 Q1487.86 1454.33 1485.41 1455.09 Q1482.98 1455.86 1480.2 1457.41 L1480.2 1452.69 Q1483.02 1451.55 1485.48 1450.97 Q1487.93 1450.39 1489.97 1450.39 Q1495.34 1450.39 1498.53 1453.08 Q1501.73 1455.77 1501.73 1460.26 Q1501.73 1462.39 1500.92 1464.31 Q1500.13 1466.2 1498.02 1468.8 Q1497.45 1469.47 1494.34 1472.69 Q1491.24 1475.88 1485.59 1481.64 Z" fill="#000000" fill-rule="nonzero" fill-opacity="1" /><path clip-path="url(#clip630)" d="M1521.73 1454.1 Q1518.12 1454.1 1516.29 1457.66 Q1514.48 1461.2 1514.48 1468.33 Q1514.48 1475.44 1516.29 1479.01 Q1518.12 1482.55 1521.73 1482.55 Q1525.36 1482.55 1527.17 1479.01 Q1529 1475.44 1529 1468.33 Q1529 1461.2 1527.17 1457.66 Q1525.36 1454.1 1521.73 1454.1 M1521.73 1450.39 Q1527.54 1450.39 1530.59 1455 Q1533.67 1459.58 1533.67 1468.33 Q1533.67 1477.06 1530.59 1481.67 Q1527.54 1486.25 1521.73 1486.25 Q1515.92 1486.25 1512.84 1481.67 Q1509.78 1477.06 1509.78 1468.33 Q1509.78 1459.58 1512.84 1455 Q1515.92 1450.39 1521.73 1450.39 Z" fill="#000000" fill-rule="nonzero" fill-opacity="1" /><path clip-path="url(#clip630)" d="M1852.28 1481.64 L1859.92 1481.64 L1859.92 1455.28 L1851.61 1456.95 L1851.61 1452.69 L1859.88 1451.02 L1864.55 1451.02 L1864.55 1481.64 L1872.19 1481.64 L1872.19 1485.58 L1852.28 1485.58 L1852.28 1481.64 Z" fill="#000000" fill-rule="nonzero" fill-opacity="1" /><path clip-path="url(#clip630)" d="M1892.21 1466.44 Q1889.07 1466.44 1887.21 1468.59 Q1885.38 1470.74 1885.38 1474.49 Q1885.38 1478.22 1887.21 1480.39 Q1889.07 1482.55 1892.21 1482.55 Q1895.36 1482.55 1897.19 1480.39 Q1899.04 1478.22 1899.04 1474.49 Q1899.04 1470.74 1897.19 1468.59 Q1895.36 1466.44 1892.21 1466.44 M1901.5 1451.78 L1901.5 1456.04 Q1899.74 1455.21 1897.93 1454.77 Q1896.15 1454.33 1894.39 1454.33 Q1889.76 1454.33 1887.31 1457.45 Q1884.88 1460.58 1884.53 1466.9 Q1885.89 1464.89 1887.95 1463.82 Q1890.01 1462.73 1892.49 1462.73 Q1897.7 1462.73 1900.71 1465.9 Q1903.74 1469.05 1903.74 1474.49 Q1903.74 1479.82 1900.59 1483.03 Q1897.44 1486.25 1892.21 1486.25 Q1886.22 1486.25 1883.05 1481.67 Q1879.88 1477.06 1879.88 1468.33 Q1879.88 1460.14 1883.76 1455.28 Q1887.65 1450.39 1894.2 1450.39 Q1895.96 1450.39 1897.75 1450.74 Q1899.55 1451.09 1901.5 1451.78 Z" fill="#000000" fill-rule="nonzero" fill-opacity="1" /><path clip-path="url(#clip630)" d="M1921.8 1454.1 Q1918.19 1454.1 1916.36 1457.66 Q1914.55 1461.2 1914.55 1468.33 Q1914.55 1475.44 1916.36 1479.01 Q1918.19 1482.55 1921.8 1482.55 Q1925.43 1482.55 1927.24 1479.01 Q1929.07 1475.44 1929.07 1468.33 Q1929.07 1461.2 1927.24 1457.66 Q1925.43 1454.1 1921.8 1454.1 M1921.8 1450.39 Q1927.61 1450.39 1930.66 1455 Q1933.74 1459.58 1933.74 1468.33 Q1933.74 1477.06 1930.66 1481.67 Q1927.61 1486.25 1921.8 1486.25 Q1915.99 1486.25 1912.91 1481.67 Q1909.85 1477.06 1909.85 1468.33 Q1909.85 1459.58 1912.91 1455 Q1915.99 1450.39 1921.8 1450.39 Z" fill="#000000" fill-rule="nonzero" fill-opacity="1" /><path clip-path="url(#clip630)" d="M1209.13 1522.27 L1209.13 1532.4 L1221.2 1532.4 L1221.2 1536.95 L1209.13 1536.95 L1209.13 1556.3 Q1209.13 1560.66 1210.31 1561.9 Q1211.52 1563.14 1215.18 1563.14 L1221.2 1563.14 L1221.2 1568.04 L1215.18 1568.04 Q1208.4 1568.04 1205.82 1565.53 Q1203.25 1562.98 1203.25 1556.3 L1203.25 1536.95 L1198.95 1536.95 L1198.95 1532.4 L1203.25 1532.4 L1203.25 1522.27 L1209.13 1522.27 Z" fill="#000000" fill-rule="nonzero" fill-opacity="1" /><path clip-path="url(#clip630)" d="M1249.08 1518.52 L1262.57 1518.52 L1262.57 1523.07 L1254.94 1523.07 L1254.94 1572.09 L1262.57 1572.09 L1262.57 1576.64 L1249.08 1576.64 L1249.08 1518.52 Z" fill="#000000" fill-rule="nonzero" fill-opacity="1" /><path clip-path="url(#clip630)" d="M1302.81 1539.24 Q1305 1535.29 1308.06 1533.41 Q1311.11 1531.54 1315.25 1531.54 Q1320.82 1531.54 1323.84 1535.45 Q1326.87 1539.33 1326.87 1546.53 L1326.87 1568.04 L1320.98 1568.04 L1320.98 1546.72 Q1320.98 1541.59 1319.17 1539.11 Q1317.35 1536.63 1313.63 1536.63 Q1309.08 1536.63 1306.43 1539.65 Q1303.79 1542.68 1303.79 1547.9 L1303.79 1568.04 L1297.9 1568.04 L1297.9 1546.72 Q1297.9 1541.56 1296.09 1539.11 Q1294.28 1536.63 1290.49 1536.63 Q1286 1536.63 1283.36 1539.68 Q1280.72 1542.71 1280.72 1547.9 L1280.72 1568.04 L1274.83 1568.04 L1274.83 1532.4 L1280.72 1532.4 L1280.72 1537.93 Q1282.72 1534.66 1285.52 1533.1 Q1288.32 1531.54 1292.17 1531.54 Q1296.06 1531.54 1298.76 1533.51 Q1301.5 1535.48 1302.81 1539.24 Z" fill="#000000" fill-rule="nonzero" fill-opacity="1" /><path clip-path="url(#clip630)" d="M1361.27 1533.45 L1361.27 1538.98 Q1358.79 1537.71 1356.12 1537.07 Q1353.44 1536.44 1350.58 1536.44 Q1346.22 1536.44 1344.02 1537.77 Q1341.86 1539.11 1341.86 1541.79 Q1341.86 1543.82 1343.42 1545 Q1344.98 1546.15 1349.69 1547.2 L1351.69 1547.64 Q1357.93 1548.98 1360.54 1551.43 Q1363.18 1553.85 1363.18 1558.21 Q1363.18 1563.17 1359.24 1566.07 Q1355.32 1568.97 1348.45 1568.97 Q1345.58 1568.97 1342.46 1568.39 Q1339.38 1567.85 1335.94 1566.74 L1335.94 1560.69 Q1339.19 1562.38 1342.34 1563.24 Q1345.49 1564.07 1348.57 1564.07 Q1352.71 1564.07 1354.94 1562.66 Q1357.17 1561.23 1357.17 1558.65 Q1357.17 1556.27 1355.55 1554.99 Q1353.95 1553.72 1348.51 1552.54 L1346.47 1552.07 Q1341.03 1550.92 1338.61 1548.56 Q1336.19 1546.18 1336.19 1542.04 Q1336.19 1537.01 1339.76 1534.27 Q1343.32 1531.54 1349.88 1531.54 Q1353.13 1531.54 1355.99 1532.01 Q1358.86 1532.49 1361.27 1533.45 Z" fill="#000000" fill-rule="nonzero" fill-opacity="1" /><path clip-path="url(#clip630)" d="M1386.2 1518.52 L1386.2 1576.64 L1372.7 1576.64 L1372.7 1572.09 L1380.31 1572.09 L1380.31 1523.07 L1372.7 1523.07 L1372.7 1518.52 L1386.2 1518.52 Z" fill="#000000" fill-rule="nonzero" fill-opacity="1" /><polyline clip-path="url(#clip630)" style="stroke:#000000; stroke-linecap:round; stroke-linejoin:round; stroke-width:4; stroke-opacity:1; fill:none" points="232.389,1423.18 232.389,47.2441 "/>
<polyline clip-path="url(#clip630)" style="stroke:#000000; stroke-linecap:round; stroke-linejoin:round; stroke-width:4; stroke-opacity:1; fill:none" points="232.389,1325.24 251.287,1325.24 "/>
<polyline clip-path="url(#clip630)" style="stroke:#000000; stroke-linecap:round; stroke-linejoin:round; stroke-width:4; stroke-opacity:1; fill:none" points="232.389,1030.22 251.287,1030.22 "/>
<polyline clip-path="url(#clip630)" style="stroke:#000000; stroke-linecap:round; stroke-linejoin:round; stroke-width:4; stroke-opacity:1; fill:none" points="232.389,735.212 251.287,735.212 "/>
<polyline clip-path="url(#clip630)" style="stroke:#000000; stroke-linecap:round; stroke-linejoin:round; stroke-width:4; stroke-opacity:1; fill:none" points="232.389,440.2 251.287,440.2 "/>
<polyline clip-path="url(#clip630)" style="stroke:#000000; stroke-linecap:round; stroke-linejoin:round; stroke-width:4; stroke-opacity:1; fill:none" points="232.389,145.188 251.287,145.188 "/>
<path clip-path="url(#clip630)" d="M184.445 1311.03 Q180.834 1311.03 179.005 1314.6 Q177.2 1318.14 177.2 1325.27 Q177.2 1332.38 179.005 1335.94 Q180.834 1339.48 184.445 1339.48 Q188.079 1339.48 189.885 1335.94 Q191.713 1332.38 191.713 1325.27 Q191.713 1318.14 189.885 1314.6 Q188.079 1311.03 184.445 1311.03 M184.445 1307.33 Q190.255 1307.33 193.311 1311.94 Q196.389 1316.52 196.389 1325.27 Q196.389 1334 193.311 1338.6 Q190.255 1343.19 184.445 1343.19 Q178.635 1343.19 175.556 1338.6 Q172.501 1334 172.501 1325.27 Q172.501 1316.52 175.556 1311.94 Q178.635 1307.33 184.445 1307.33 Z" fill="#000000" fill-rule="nonzero" fill-opacity="1" /><path clip-path="url(#clip630)" d="M149.306 1043.57 L165.626 1043.57 L165.626 1047.5 L143.681 1047.5 L143.681 1043.57 Q146.343 1040.81 150.927 1036.18 Q155.533 1031.53 156.714 1030.19 Q158.959 1027.67 159.839 1025.93 Q160.741 1024.17 160.741 1022.48 Q160.741 1019.73 158.797 1017.99 Q156.876 1016.25 153.774 1016.25 Q151.575 1016.25 149.121 1017.02 Q146.691 1017.78 143.913 1019.33 L143.913 1014.61 Q146.737 1013.48 149.191 1012.9 Q151.644 1012.32 153.681 1012.32 Q159.052 1012.32 162.246 1015 Q165.44 1017.69 165.44 1022.18 Q165.44 1024.31 164.63 1026.23 Q163.843 1028.13 161.737 1030.72 Q161.158 1031.39 158.056 1034.61 Q154.954 1037.8 149.306 1043.57 Z" fill="#000000" fill-rule="nonzero" fill-opacity="1" /><path clip-path="url(#clip630)" d="M175.487 1012.94 L193.843 1012.94 L193.843 1016.88 L179.769 1016.88 L179.769 1025.35 Q180.788 1025 181.806 1024.84 Q182.825 1024.66 183.843 1024.66 Q189.63 1024.66 193.01 1027.83 Q196.389 1031 196.389 1036.42 Q196.389 1041.99 192.917 1045.1 Q189.445 1048.18 183.126 1048.18 Q180.95 1048.18 178.681 1047.8 Q176.436 1047.43 174.028 1046.69 L174.028 1041.99 Q176.112 1043.13 178.334 1043.68 Q180.556 1044.24 183.033 1044.24 Q187.038 1044.24 189.375 1042.13 Q191.713 1040.03 191.713 1036.42 Q191.713 1032.8 189.375 1030.7 Q187.038 1028.59 183.033 1028.59 Q181.158 1028.59 179.283 1029.01 Q177.431 1029.43 175.487 1030.3 L175.487 1012.94 Z" fill="#000000" fill-rule="nonzero" fill-opacity="1" /><path clip-path="url(#clip630)" d="M144.329 717.932 L162.686 717.932 L162.686 721.867 L148.612 721.867 L148.612 730.339 Q149.63 729.992 150.649 729.83 Q151.667 729.645 152.686 729.645 Q158.473 729.645 161.852 732.816 Q165.232 735.987 165.232 741.404 Q165.232 746.983 161.76 750.085 Q158.288 753.163 151.968 753.163 Q149.792 753.163 147.524 752.793 Q145.279 752.423 142.871 751.682 L142.871 746.983 Q144.954 748.117 147.177 748.673 Q149.399 749.228 151.876 749.228 Q155.88 749.228 158.218 747.122 Q160.556 745.015 160.556 741.404 Q160.556 737.793 158.218 735.687 Q155.88 733.58 151.876 733.58 Q150.001 733.58 148.126 733.997 Q146.274 734.413 144.329 735.293 L144.329 717.932 Z" fill="#000000" fill-rule="nonzero" fill-opacity="1" /><path clip-path="url(#clip630)" d="M184.445 721.011 Q180.834 721.011 179.005 724.575 Q177.2 728.117 177.2 735.247 Q177.2 742.353 179.005 745.918 Q180.834 749.46 184.445 749.46 Q188.079 749.46 189.885 745.918 Q191.713 742.353 191.713 735.247 Q191.713 728.117 189.885 724.575 Q188.079 721.011 184.445 721.011 M184.445 717.307 Q190.255 717.307 193.311 721.913 Q196.389 726.497 196.389 735.247 Q196.389 743.973 193.311 748.58 Q190.255 753.163 184.445 753.163 Q178.635 753.163 175.556 748.58 Q172.501 743.973 172.501 735.247 Q172.501 726.497 175.556 721.913 Q178.635 717.307 184.445 717.307 Z" fill="#000000" fill-rule="nonzero" fill-opacity="1" /><path clip-path="url(#clip630)" d="M144.098 422.92 L166.32 422.92 L166.32 424.911 L153.774 457.48 L148.89 457.48 L160.695 426.855 L144.098 426.855 L144.098 422.92 Z" fill="#000000" fill-rule="nonzero" fill-opacity="1" /><path clip-path="url(#clip630)" d="M175.487 422.92 L193.843 422.92 L193.843 426.855 L179.769 426.855 L179.769 435.327 Q180.788 434.98 181.806 434.818 Q182.825 434.633 183.843 434.633 Q189.63 434.633 193.01 437.804 Q196.389 440.975 196.389 446.392 Q196.389 451.971 192.917 455.073 Q189.445 458.151 183.126 458.151 Q180.95 458.151 178.681 457.781 Q176.436 457.411 174.028 456.67 L174.028 451.971 Q176.112 453.105 178.334 453.661 Q180.556 454.216 183.033 454.216 Q187.038 454.216 189.375 452.11 Q191.713 450.003 191.713 446.392 Q191.713 442.781 189.375 440.675 Q187.038 438.568 183.033 438.568 Q181.158 438.568 179.283 438.985 Q177.431 439.401 175.487 440.281 L175.487 422.92 Z" fill="#000000" fill-rule="nonzero" fill-opacity="1" /><path clip-path="url(#clip630)" d="M114.931 158.533 L122.57 158.533 L122.57 132.167 L114.26 133.834 L114.26 129.575 L122.524 127.908 L127.2 127.908 L127.2 158.533 L134.839 158.533 L134.839 162.468 L114.931 162.468 L114.931 158.533 Z" fill="#000000" fill-rule="nonzero" fill-opacity="1" /><path clip-path="url(#clip630)" d="M154.283 130.987 Q150.672 130.987 148.843 134.552 Q147.038 138.093 147.038 145.223 Q147.038 152.329 148.843 155.894 Q150.672 159.436 154.283 159.436 Q157.917 159.436 159.723 155.894 Q161.552 152.329 161.552 145.223 Q161.552 138.093 159.723 134.552 Q157.917 130.987 154.283 130.987 M154.283 127.283 Q160.093 127.283 163.149 131.89 Q166.227 136.473 166.227 145.223 Q166.227 153.95 163.149 158.556 Q160.093 163.139 154.283 163.139 Q148.473 163.139 145.394 158.556 Q142.339 153.95 142.339 145.223 Q142.339 136.473 145.394 131.89 Q148.473 127.283 154.283 127.283 Z" fill="#000000" fill-rule="nonzero" fill-opacity="1" /><path clip-path="url(#clip630)" d="M184.445 130.987 Q180.834 130.987 179.005 134.552 Q177.2 138.093 177.2 145.223 Q177.2 152.329 179.005 155.894 Q180.834 159.436 184.445 159.436 Q188.079 159.436 189.885 155.894 Q191.713 152.329 191.713 145.223 Q191.713 138.093 189.885 134.552 Q188.079 130.987 184.445 130.987 M184.445 127.283 Q190.255 127.283 193.311 131.89 Q196.389 136.473 196.389 145.223 Q196.389 153.95 193.311 158.556 Q190.255 163.139 184.445 163.139 Q178.635 163.139 175.556 158.556 Q172.501 153.95 172.501 145.223 Q172.501 136.473 175.556 131.89 Q178.635 127.283 184.445 127.283 Z" fill="#000000" fill-rule="nonzero" fill-opacity="1" /><path clip-path="url(#clip630)" d="M67.3143 733.525 Q73.68 736.008 75.6216 738.363 Q77.5631 740.718 77.5631 744.665 L77.5631 749.344 L72.6615 749.344 L72.6615 745.906 Q72.6615 743.487 71.5157 742.151 Q70.3699 740.814 66.1048 739.191 L63.4312 738.14 L28.3562 752.559 L28.3562 746.352 L56.238 735.212 L28.3562 724.072 L28.3562 717.865 L67.3143 733.525 Z" fill="#000000" fill-rule="nonzero" fill-opacity="1" /><polyline clip-path="url(#clip631)" style="stroke:#000000; stroke-linecap:round; stroke-linejoin:round; stroke-width:8; stroke-opacity:1; fill:none" points="292.4,145.188 301.401,214.548 310.403,278.512 319.404,337.535 328.406,392.033 337.408,442.384 346.409,488.936 355.411,532.006 364.412,571.886 373.414,608.839 382.415,643.109 391.417,674.919 400.418,704.47 409.42,731.949 418.422,757.526 427.423,781.357 436.425,803.582 445.426,824.334 454.428,843.73 463.429,861.88 472.431,878.883 481.432,894.831 490.434,909.807 499.436,923.888 508.437,937.143 517.439,949.638 526.44,961.429 535.442,972.573 544.443,983.117 553.445,993.107 562.446,1002.58 571.448,1011.59 580.45,1020.15 589.451,1028.3 598.453,1036.08 607.454,1043.5 616.456,1050.6 625.457,1057.39 634.459,1063.9 643.46,1070.14 652.462,1076.13 661.464,1081.9 670.465,1087.44 679.467,1092.79 688.468,1097.94 697.47,1102.92 706.471,1107.73 715.473,1112.38 724.474,1116.88 733.476,1121.24 742.478,1125.46 751.479,1129.56 760.481,1133.54 769.482,1137.41 778.484,1141.17 787.485,1144.83 796.487,1148.39 805.488,1151.86 814.49,1155.24 823.492,1158.53 832.493,1161.74 841.495,1164.88 850.496,1167.94 859.498,1170.93 868.499,1173.84 877.501,1176.7 886.502,1179.49 895.504,1182.21 904.506,1184.88 913.507,1187.49 922.509,1190.05 931.51,1192.55 940.512,1194.99 949.513,1197.39 958.515,1199.74 967.516,1202.04 976.518,1204.29 985.52,1206.5 994.521,1208.67 1003.52,1210.79 1012.52,1212.87 1021.53,1214.91 1030.53,1216.91 1039.53,1218.88 1048.53,1220.8 1057.53,1222.69 1066.53,1224.54 1075.54,1226.36 1084.54,1228.14 1093.54,1229.89 1102.54,1231.61 1111.54,1233.29 1120.54,1234.95 1129.54,1236.57 1138.55,1238.16 1147.55,1239.73 1156.55,1241.26 1165.55,1242.77 1174.55,1244.25 1183.55,1245.7 1192.56,1247.12 1201.56,1248.52 1210.56,1249.9 1219.56,1251.25 1228.56,1252.57 1237.56,1253.87 1246.56,1255.15 1255.57,1256.4 1264.57,1257.63 1273.57,1258.84 1282.57,1260.03 1291.57,1261.19 1300.57,1262.34 1309.58,1263.46 1318.58,1264.57 1327.58,1265.65 1336.58,1266.72 1345.58,1267.76 1354.58,1268.79 1363.58,1269.8 1372.59,1270.79 1381.59,1271.76 1390.59,1272.71 1399.59,1273.65 1408.59,1274.57 1417.59,1275.48 1426.6,1276.36 1435.6,1277.24 1444.6,1278.09 1453.6,1278.94 1462.6,1279.76 1471.6,1280.57 1480.61,1281.37 1489.61,1282.15 1498.61,1282.92 1507.61,1283.68 1516.61,1284.42 1525.61,1285.15 1534.61,1285.86 1543.62,1286.56 1552.62,1287.26 1561.62,1287.93 1570.62,1288.6 1579.62,1289.25 1588.62,1289.89 1597.63,1290.52 1606.63,1291.14 1615.63,1291.75 1624.63,1292.35 1633.63,1292.94 1642.63,1293.51 1651.63,1294.08 1660.64,1294.63 1669.64,1295.18 1678.64,1295.72 1687.64,1296.24 1696.64,1296.76 1705.64,1297.27 1714.65,1297.77 1723.65,1298.26 1732.65,1298.74 1741.65,1299.21 1750.65,1299.68 1759.65,1300.13 1768.65,1300.58 1777.66,1301.02 1786.66,1301.45 1795.66,1301.88 1804.66,1302.29 1813.66,1302.7 1822.66,1303.1 1831.67,1303.5 1840.67,1303.89 1849.67,1304.27 1858.67,1304.64 1867.67,1305.01 1876.67,1305.37 1885.68,1305.72 1894.68,1306.07 1903.68,1306.41 1912.68,1306.75 1921.68,1307.08 1930.68,1307.4 1939.68,1307.72 1948.69,1308.03 1957.69,1308.34 1966.69,1308.64 1975.69,1308.94 1984.69,1309.23 1993.69,1309.51 2002.7,1309.79 2011.7,1310.07 2020.7,1310.34 2029.7,1310.61 2038.7,1310.87 2047.7,1311.12 2056.7,1311.38 2065.71,1311.62 2074.71,1311.87 2083.71,1312.1 2092.71,1312.34 "/>
<circle clip-path="url(#clip631)" cx="342.408" cy="468.694" r="14.4" fill="#e26f46" fill-rule="evenodd" fill-opacity="1" stroke="none"/>
<circle clip-path="url(#clip631)" cx="442.426" cy="817.573" r="14.4" fill="#e26f46" fill-rule="evenodd" fill-opacity="1" stroke="none"/>
<circle clip-path="url(#clip631)" cx="542.443" cy="980.823" r="14.4" fill="#e26f46" fill-rule="evenodd" fill-opacity="1" stroke="none"/>
<circle clip-path="url(#clip631)" cx="642.46" cy="1069.46" r="14.4" fill="#e26f46" fill-rule="evenodd" fill-opacity="1" stroke="none"/>
<circle clip-path="url(#clip631)" cx="742.478" cy="1125.46" r="14.4" fill="#e26f46" fill-rule="evenodd" fill-opacity="1" stroke="none"/>
<circle clip-path="url(#clip631)" cx="842.495" cy="1165.22" r="14.4" fill="#e26f46" fill-rule="evenodd" fill-opacity="1" stroke="none"/>
<circle clip-path="url(#clip631)" cx="942.512" cy="1195.53" r="14.4" fill="#e26f46" fill-rule="evenodd" fill-opacity="1" stroke="none"/>
<circle clip-path="url(#clip631)" cx="1042.53" cy="1219.52" r="14.4" fill="#e26f46" fill-rule="evenodd" fill-opacity="1" stroke="none"/>
<circle clip-path="url(#clip631)" cx="1142.55" cy="1238.86" r="14.4" fill="#e26f46" fill-rule="evenodd" fill-opacity="1" stroke="none"/>
<circle clip-path="url(#clip631)" cx="1242.56" cy="1254.58" r="14.4" fill="#e26f46" fill-rule="evenodd" fill-opacity="1" stroke="none"/>
<circle clip-path="url(#clip631)" cx="1342.58" cy="1267.41" r="14.4" fill="#e26f46" fill-rule="evenodd" fill-opacity="1" stroke="none"/>
<circle clip-path="url(#clip631)" cx="1442.6" cy="1277.9" r="14.4" fill="#e26f46" fill-rule="evenodd" fill-opacity="1" stroke="none"/>
<circle clip-path="url(#clip631)" cx="1542.62" cy="1286.49" r="14.4" fill="#e26f46" fill-rule="evenodd" fill-opacity="1" stroke="none"/>
<circle clip-path="url(#clip631)" cx="1642.63" cy="1293.51" r="14.4" fill="#e26f46" fill-rule="evenodd" fill-opacity="1" stroke="none"/>
<circle clip-path="url(#clip631)" cx="1742.65" cy="1299.26" r="14.4" fill="#e26f46" fill-rule="evenodd" fill-opacity="1" stroke="none"/>
<circle clip-path="url(#clip631)" cx="1842.67" cy="1303.97" r="14.4" fill="#e26f46" fill-rule="evenodd" fill-opacity="1" stroke="none"/>
<circle clip-path="url(#clip631)" cx="1942.69" cy="1307.83" r="14.4" fill="#e26f46" fill-rule="evenodd" fill-opacity="1" stroke="none"/>
<circle clip-path="url(#clip631)" cx="2042.7" cy="1310.98" r="14.4" fill="#e26f46" fill-rule="evenodd" fill-opacity="1" stroke="none"/>
<path clip-path="url(#clip631)" d="M326.408 444.69 L326.408 476.69 L358.408 476.69 L358.408 444.69 L326.408 444.69 Z" fill="#3da44d" fill-rule="evenodd" fill-opacity="1" stroke="none"/>
<path clip-path="url(#clip631)" d="M426.426 810.07 L426.426 842.07 L458.426 842.07 L458.426 810.07 L426.426 810.07 Z" fill="#3da44d" fill-rule="evenodd" fill-opacity="1" stroke="none"/>
<path clip-path="url(#clip631)" d="M526.443 969.023 L526.443 1001.02 L558.443 1001.02 L558.443 969.023 L526.443 969.023 Z" fill="#3da44d" fill-rule="evenodd" fill-opacity="1" stroke="none"/>
<path clip-path="url(#clip631)" d="M626.46 1041.18 L626.46 1073.18 L658.46 1073.18 L658.46 1041.18 L626.46 1041.18 Z" fill="#3da44d" fill-rule="evenodd" fill-opacity="1" stroke="none"/>
<path clip-path="url(#clip631)" d="M726.478 1113.73 L726.478 1145.73 L758.478 1145.73 L758.478 1113.73 L726.478 1113.73 Z" fill="#3da44d" fill-rule="evenodd" fill-opacity="1" stroke="none"/>
<path clip-path="url(#clip631)" d="M826.495 1129.33 L826.495 1161.33 L858.495 1161.33 L858.495 1129.33 L826.495 1129.33 Z" fill="#3da44d" fill-rule="evenodd" fill-opacity="1" stroke="none"/>
<path clip-path="url(#clip631)" d="M926.512 1181.11 L926.512 1213.11 L958.512 1213.11 L958.512 1181.11 L926.512 1181.11 Z" fill="#3da44d" fill-rule="evenodd" fill-opacity="1" stroke="none"/>
<path clip-path="url(#clip631)" d="M1026.53 1225.92 L1026.53 1257.92 L1058.53 1257.92 L1058.53 1225.92 L1026.53 1225.92 Z" fill="#3da44d" fill-rule="evenodd" fill-opacity="1" stroke="none"/>
<path clip-path="url(#clip631)" d="M1126.55 1217.83 L1126.55 1249.83 L1158.55 1249.83 L1158.55 1217.83 L1126.55 1217.83 Z" fill="#3da44d" fill-rule="evenodd" fill-opacity="1" stroke="none"/>
<path clip-path="url(#clip631)" d="M1226.56 1235 L1226.56 1267 L1258.56 1267 L1258.56 1235 L1226.56 1235 Z" fill="#3da44d" fill-rule="evenodd" fill-opacity="1" stroke="none"/>
<path clip-path="url(#clip631)" d="M1326.58 1244.37 L1326.58 1276.37 L1358.58 1276.37 L1358.58 1244.37 L1326.58 1244.37 Z" fill="#3da44d" fill-rule="evenodd" fill-opacity="1" stroke="none"/>
<path clip-path="url(#clip631)" d="M1426.6 1268.65 L1426.6 1300.65 L1458.6 1300.65 L1458.6 1268.65 L1426.6 1268.65 Z" fill="#3da44d" fill-rule="evenodd" fill-opacity="1" stroke="none"/>
<path clip-path="url(#clip631)" d="M1526.62 1262.33 L1526.62 1294.33 L1558.62 1294.33 L1558.62 1262.33 L1526.62 1262.33 Z" fill="#3da44d" fill-rule="evenodd" fill-opacity="1" stroke="none"/>
<path clip-path="url(#clip631)" d="M1626.63 1261.05 L1626.63 1293.05 L1658.63 1293.05 L1658.63 1261.05 L1626.63 1261.05 Z" fill="#3da44d" fill-rule="evenodd" fill-opacity="1" stroke="none"/>
<path clip-path="url(#clip631)" d="M1726.65 1274.37 L1726.65 1306.37 L1758.65 1306.37 L1758.65 1274.37 L1726.65 1274.37 Z" fill="#3da44d" fill-rule="evenodd" fill-opacity="1" stroke="none"/>
<path clip-path="url(#clip631)" d="M1826.67 1284.76 L1826.67 1316.76 L1858.67 1316.76 L1858.67 1284.76 L1826.67 1284.76 Z" fill="#3da44d" fill-rule="evenodd" fill-opacity="1" stroke="none"/>
<path clip-path="url(#clip631)" d="M1926.69 1294.5 L1926.69 1326.5 L1958.69 1326.5 L1958.69 1294.5 L1926.69 1294.5 Z" fill="#3da44d" fill-rule="evenodd" fill-opacity="1" stroke="none"/>
<path clip-path="url(#clip631)" d="M2026.7 1292.06 L2026.7 1324.06 L2058.7 1324.06 L2058.7 1292.06 L2026.7 1292.06 Z" fill="#3da44d" fill-rule="evenodd" fill-opacity="1" stroke="none"/>
<circle clip-path="url(#clip631)" cx="342.408" cy="1325.24" r="14.4" fill="#c271d2" fill-rule="evenodd" fill-opacity="1" stroke="none"/>
<circle clip-path="url(#clip631)" cx="442.426" cy="1307.08" r="14.4" fill="#c271d2" fill-rule="evenodd" fill-opacity="1" stroke="none"/>
<circle clip-path="url(#clip631)" cx="542.443" cy="1319.4" r="14.4" fill="#c271d2" fill-rule="evenodd" fill-opacity="1" stroke="none"/>
<circle clip-path="url(#clip631)" cx="642.46" cy="1318.43" r="14.4" fill="#c271d2" fill-rule="evenodd" fill-opacity="1" stroke="none"/>
<circle clip-path="url(#clip631)" cx="742.478" cy="1314.35" r="14.4" fill="#c271d2" fill-rule="evenodd" fill-opacity="1" stroke="none"/>
<circle clip-path="url(#clip631)" cx="842.495" cy="1312.77" r="14.4" fill="#c271d2" fill-rule="evenodd" fill-opacity="1" stroke="none"/>
<circle clip-path="url(#clip631)" cx="942.512" cy="1311.93" r="14.4" fill="#c271d2" fill-rule="evenodd" fill-opacity="1" stroke="none"/>
<circle clip-path="url(#clip631)" cx="1042.53" cy="1325.36" r="14.4" fill="#c271d2" fill-rule="evenodd" fill-opacity="1" stroke="none"/>
<circle clip-path="url(#clip631)" cx="1142.55" cy="1336.48" r="14.4" fill="#c271d2" fill-rule="evenodd" fill-opacity="1" stroke="none"/>
<circle clip-path="url(#clip631)" cx="1242.56" cy="1321.24" r="14.4" fill="#c271d2" fill-rule="evenodd" fill-opacity="1" stroke="none"/>
<circle clip-path="url(#clip631)" cx="1342.58" cy="1311.85" r="14.4" fill="#c271d2" fill-rule="evenodd" fill-opacity="1" stroke="none"/>
<circle clip-path="url(#clip631)" cx="1442.6" cy="1316.22" r="14.4" fill="#c271d2" fill-rule="evenodd" fill-opacity="1" stroke="none"/>
<circle clip-path="url(#clip631)" cx="1542.62" cy="1317.25" r="14.4" fill="#c271d2" fill-rule="evenodd" fill-opacity="1" stroke="none"/>
<circle clip-path="url(#clip631)" cx="1642.63" cy="1320.47" r="14.4" fill="#c271d2" fill-rule="evenodd" fill-opacity="1" stroke="none"/>
<circle clip-path="url(#clip631)" cx="1742.65" cy="1330.93" r="14.4" fill="#c271d2" fill-rule="evenodd" fill-opacity="1" stroke="none"/>
<circle clip-path="url(#clip631)" cx="1842.67" cy="1325.73" r="14.4" fill="#c271d2" fill-rule="evenodd" fill-opacity="1" stroke="none"/>
<circle clip-path="url(#clip631)" cx="1942.69" cy="1322.99" r="14.4" fill="#c271d2" fill-rule="evenodd" fill-opacity="1" stroke="none"/>
<circle clip-path="url(#clip631)" cx="2042.7" cy="1332.94" r="14.4" fill="#c271d2" fill-rule="evenodd" fill-opacity="1" stroke="none"/>
<path clip-path="url(#clip630)" d="M1294.07 300.469 L2282.08 300.469 L2282.08 93.1086 L1294.07 93.1086  Z" fill="#ffffff" fill-rule="evenodd" fill-opacity="1"/>
<polyline clip-path="url(#clip630)" style="stroke:#000000; stroke-linecap:round; stroke-linejoin:round; stroke-width:4; stroke-opacity:1; fill:none" points="1294.07,300.469 2282.08,300.469 2282.08,93.1086 1294.07,93.1086 1294.07,300.469 "/>
<circle clip-path="url(#clip630)" cx="1388.31" cy="144.949" r="20.48" fill="#e26f46" fill-rule="evenodd" fill-opacity="1" stroke="none"/>
<path clip-path="url(#clip630)" d="M1482.55 127.669 L1488.85 127.669 L1504.17 156.581 L1504.17 127.669 L1508.71 127.669 L1508.71 162.229 L1502.41 162.229 L1487.09 133.317 L1487.09 162.229 L1482.55 162.229 L1482.55 127.669 Z" fill="#000000" fill-rule="nonzero" fill-opacity="1" /><path clip-path="url(#clip630)" d="M1527.87 139.289 Q1524.45 139.289 1522.46 141.974 Q1520.47 144.636 1520.47 149.289 Q1520.47 153.942 1522.43 156.627 Q1524.42 159.289 1527.87 159.289 Q1531.28 159.289 1533.27 156.604 Q1535.26 153.918 1535.26 149.289 Q1535.26 144.682 1533.27 141.997 Q1531.28 139.289 1527.87 139.289 M1527.87 135.678 Q1533.43 135.678 1536.6 139.289 Q1539.77 142.9 1539.77 149.289 Q1539.77 155.655 1536.6 159.289 Q1533.43 162.9 1527.87 162.9 Q1522.29 162.9 1519.12 159.289 Q1515.98 155.655 1515.98 149.289 Q1515.98 142.9 1519.12 139.289 Q1522.29 135.678 1527.87 135.678 Z" fill="#000000" fill-rule="nonzero" fill-opacity="1" /><path clip-path="url(#clip630)" d="M1546.83 136.303 L1551.09 136.303 L1551.09 162.229 L1546.83 162.229 L1546.83 136.303 M1546.83 126.21 L1551.09 126.21 L1551.09 131.604 L1546.83 131.604 L1546.83 126.21 Z" fill="#000000" fill-rule="nonzero" fill-opacity="1" /><path clip-path="url(#clip630)" d="M1576.53 137.067 L1576.53 141.094 Q1574.72 140.169 1572.78 139.706 Q1570.84 139.243 1568.75 139.243 Q1565.58 139.243 1563.98 140.215 Q1562.41 141.187 1562.41 143.131 Q1562.41 144.613 1563.54 145.469 Q1564.68 146.303 1568.1 147.067 L1569.56 147.391 Q1574.1 148.363 1576 150.145 Q1577.92 151.905 1577.92 155.076 Q1577.92 158.687 1575.05 160.793 Q1572.2 162.9 1567.2 162.9 Q1565.12 162.9 1562.85 162.483 Q1560.6 162.09 1558.1 161.28 L1558.1 156.881 Q1560.47 158.108 1562.76 158.733 Q1565.05 159.335 1567.29 159.335 Q1570.3 159.335 1571.92 158.317 Q1573.54 157.275 1573.54 155.4 Q1573.54 153.664 1572.36 152.738 Q1571.21 151.812 1567.25 150.956 L1565.77 150.608 Q1561.81 149.775 1560.05 148.062 Q1558.29 146.326 1558.29 143.317 Q1558.29 139.659 1560.88 137.669 Q1563.47 135.678 1568.24 135.678 Q1570.6 135.678 1572.69 136.025 Q1574.77 136.372 1576.53 137.067 Z" fill="#000000" fill-rule="nonzero" fill-opacity="1" /><path clip-path="url(#clip630)" d="M1606.88 148.201 L1606.88 150.284 L1587.29 150.284 Q1587.57 154.682 1589.93 156.997 Q1592.32 159.289 1596.55 159.289 Q1599.01 159.289 1601.3 158.687 Q1603.61 158.085 1605.88 156.881 L1605.88 160.909 Q1603.59 161.881 1601.18 162.391 Q1598.78 162.9 1596.3 162.9 Q1590.1 162.9 1586.46 159.289 Q1582.85 155.678 1582.85 149.52 Q1582.85 143.155 1586.28 139.428 Q1589.72 135.678 1595.56 135.678 Q1600.79 135.678 1603.82 139.057 Q1606.88 142.414 1606.88 148.201 M1602.62 146.951 Q1602.57 143.456 1600.65 141.372 Q1598.75 139.289 1595.6 139.289 Q1592.04 139.289 1589.89 141.303 Q1587.76 143.317 1587.43 146.974 L1602.62 146.951 Z" fill="#000000" fill-rule="nonzero" fill-opacity="1" /><path clip-path="url(#clip630)" d="M1613.87 126.21 L1618.13 126.21 L1618.13 162.229 L1613.87 162.229 L1613.87 126.21 Z" fill="#000000" fill-rule="nonzero" fill-opacity="1" /><path clip-path="url(#clip630)" d="M1649.22 148.201 L1649.22 150.284 L1629.63 150.284 Q1629.91 154.682 1632.27 156.997 Q1634.65 159.289 1638.89 159.289 Q1641.34 159.289 1643.64 158.687 Q1645.95 158.085 1648.22 156.881 L1648.22 160.909 Q1645.93 161.881 1643.52 162.391 Q1641.11 162.9 1638.64 162.9 Q1632.43 162.9 1628.8 159.289 Q1625.19 155.678 1625.19 149.52 Q1625.19 143.155 1628.61 139.428 Q1632.06 135.678 1637.9 135.678 Q1643.13 135.678 1646.16 139.057 Q1649.22 142.414 1649.22 148.201 M1644.96 146.951 Q1644.91 143.456 1642.99 141.372 Q1641.09 139.289 1637.94 139.289 Q1634.38 139.289 1632.22 141.303 Q1630.09 143.317 1629.77 146.974 L1644.96 146.951 Z" fill="#000000" fill-rule="nonzero" fill-opacity="1" /><path clip-path="url(#clip630)" d="M1672.73 137.067 L1672.73 141.094 Q1670.93 140.169 1668.98 139.706 Q1667.04 139.243 1664.96 139.243 Q1661.78 139.243 1660.19 140.215 Q1658.61 141.187 1658.61 143.131 Q1658.61 144.613 1659.75 145.469 Q1660.88 146.303 1664.31 147.067 L1665.77 147.391 Q1670.3 148.363 1672.2 150.145 Q1674.12 151.905 1674.12 155.076 Q1674.12 158.687 1671.25 160.793 Q1668.4 162.9 1663.4 162.9 Q1661.32 162.9 1659.05 162.483 Q1656.81 162.09 1654.31 161.28 L1654.31 156.881 Q1656.67 158.108 1658.96 158.733 Q1661.25 159.335 1663.5 159.335 Q1666.51 159.335 1668.13 158.317 Q1669.75 157.275 1669.75 155.4 Q1669.75 153.664 1668.57 152.738 Q1667.41 151.812 1663.45 150.956 L1661.97 150.608 Q1658.01 149.775 1656.25 148.062 Q1654.49 146.326 1654.49 143.317 Q1654.49 139.659 1657.09 137.669 Q1659.68 135.678 1664.45 135.678 Q1666.81 135.678 1668.89 136.025 Q1670.97 136.372 1672.73 137.067 Z" fill="#000000" fill-rule="nonzero" fill-opacity="1" /><path clip-path="url(#clip630)" d="M1697.43 137.067 L1697.43 141.094 Q1695.63 140.169 1693.68 139.706 Q1691.74 139.243 1689.65 139.243 Q1686.48 139.243 1684.89 140.215 Q1683.31 141.187 1683.31 143.131 Q1683.31 144.613 1684.45 145.469 Q1685.58 146.303 1689.01 147.067 L1690.46 147.391 Q1695 148.363 1696.9 150.145 Q1698.82 151.905 1698.82 155.076 Q1698.82 158.687 1695.95 160.793 Q1693.1 162.9 1688.1 162.9 Q1686.02 162.9 1683.75 162.483 Q1681.51 162.09 1679.01 161.28 L1679.01 156.881 Q1681.37 158.108 1683.66 158.733 Q1685.95 159.335 1688.2 159.335 Q1691.21 159.335 1692.83 158.317 Q1694.45 157.275 1694.45 155.4 Q1694.45 153.664 1693.27 152.738 Q1692.11 151.812 1688.15 150.956 L1686.67 150.608 Q1682.71 149.775 1680.95 148.062 Q1679.19 146.326 1679.19 143.317 Q1679.19 139.659 1681.78 137.669 Q1684.38 135.678 1689.15 135.678 Q1691.51 135.678 1693.59 136.025 Q1695.67 136.372 1697.43 137.067 Z" fill="#000000" fill-rule="nonzero" fill-opacity="1" /><path clip-path="url(#clip630)" d="M1737.73 140.238 L1737.73 126.21 L1741.99 126.21 L1741.99 162.229 L1737.73 162.229 L1737.73 158.34 Q1736.39 160.655 1734.33 161.789 Q1732.29 162.9 1729.42 162.9 Q1724.72 162.9 1721.76 159.15 Q1718.82 155.4 1718.82 149.289 Q1718.82 143.178 1721.76 139.428 Q1724.72 135.678 1729.42 135.678 Q1732.29 135.678 1734.33 136.812 Q1736.39 137.923 1737.73 140.238 M1723.22 149.289 Q1723.22 153.988 1725.14 156.673 Q1727.09 159.335 1730.46 159.335 Q1733.84 159.335 1735.79 156.673 Q1737.73 153.988 1737.73 149.289 Q1737.73 144.59 1735.79 141.928 Q1733.84 139.243 1730.46 139.243 Q1727.09 139.243 1725.14 141.928 Q1723.22 144.59 1723.22 149.289 Z" fill="#000000" fill-rule="nonzero" fill-opacity="1" /><path clip-path="url(#clip630)" d="M1762.55 149.196 Q1757.39 149.196 1755.4 150.377 Q1753.4 151.557 1753.4 154.405 Q1753.4 156.673 1754.89 158.016 Q1756.39 159.335 1758.96 159.335 Q1762.5 159.335 1764.63 156.835 Q1766.78 154.312 1766.78 150.145 L1766.78 149.196 L1762.55 149.196 M1771.04 147.437 L1771.04 162.229 L1766.78 162.229 L1766.78 158.293 Q1765.33 160.655 1763.15 161.789 Q1760.97 162.9 1757.83 162.9 Q1753.84 162.9 1751.48 160.678 Q1749.15 158.432 1749.15 154.682 Q1749.15 150.307 1752.06 148.085 Q1755 145.863 1760.81 145.863 L1766.78 145.863 L1766.78 145.446 Q1766.78 142.507 1764.84 140.909 Q1762.92 139.289 1759.42 139.289 Q1757.2 139.289 1755.09 139.821 Q1752.99 140.354 1751.04 141.419 L1751.04 137.483 Q1753.38 136.581 1755.58 136.141 Q1757.78 135.678 1759.86 135.678 Q1765.49 135.678 1768.27 138.594 Q1771.04 141.511 1771.04 147.437 Z" fill="#000000" fill-rule="nonzero" fill-opacity="1" /><path clip-path="url(#clip630)" d="M1784.03 128.942 L1784.03 136.303 L1792.8 136.303 L1792.8 139.613 L1784.03 139.613 L1784.03 153.687 Q1784.03 156.858 1784.89 157.761 Q1785.77 158.664 1788.43 158.664 L1792.8 158.664 L1792.8 162.229 L1788.43 162.229 Q1783.5 162.229 1781.62 160.4 Q1779.75 158.548 1779.75 153.687 L1779.75 139.613 L1776.62 139.613 L1776.62 136.303 L1779.75 136.303 L1779.75 128.942 L1784.03 128.942 Z" fill="#000000" fill-rule="nonzero" fill-opacity="1" /><path clip-path="url(#clip630)" d="M1810.19 149.196 Q1805.02 149.196 1803.03 150.377 Q1801.04 151.557 1801.04 154.405 Q1801.04 156.673 1802.52 158.016 Q1804.03 159.335 1806.6 159.335 Q1810.14 159.335 1812.27 156.835 Q1814.42 154.312 1814.42 150.145 L1814.42 149.196 L1810.19 149.196 M1818.68 147.437 L1818.68 162.229 L1814.42 162.229 L1814.42 158.293 Q1812.96 160.655 1810.79 161.789 Q1808.61 162.9 1805.46 162.9 Q1801.48 162.9 1799.12 160.678 Q1796.78 158.432 1796.78 154.682 Q1796.78 150.307 1799.7 148.085 Q1802.64 145.863 1808.45 145.863 L1814.42 145.863 L1814.42 145.446 Q1814.42 142.507 1812.48 140.909 Q1810.56 139.289 1807.06 139.289 Q1804.84 139.289 1802.73 139.821 Q1800.63 140.354 1798.68 141.419 L1798.68 137.483 Q1801.02 136.581 1803.22 136.141 Q1805.42 135.678 1807.5 135.678 Q1813.13 135.678 1815.9 138.594 Q1818.68 141.511 1818.68 147.437 Z" fill="#000000" fill-rule="nonzero" fill-opacity="1" /><path clip-path="url(#clip630)" d="M1828.54 156.349 L1833.43 156.349 L1833.43 160.33 L1829.63 167.738 L1826.64 167.738 L1828.54 160.33 L1828.54 156.349 Z" fill="#000000" fill-rule="nonzero" fill-opacity="1" /><path clip-path="url(#clip630)" d="M1857.78 127.669 L1864.75 127.669 L1873.57 151.187 L1882.43 127.669 L1889.4 127.669 L1889.4 162.229 L1884.84 162.229 L1884.84 131.882 L1875.93 155.585 L1871.23 155.585 L1862.32 131.882 L1862.32 162.229 L1857.78 162.229 L1857.78 127.669 Z" fill="#000000" fill-rule="nonzero" fill-opacity="1" /><path clip-path="url(#clip630)" d="M1899.05 140.701 L1928.73 140.701 L1928.73 144.59 L1899.05 144.59 L1899.05 140.701 M1899.05 150.145 L1928.73 150.145 L1928.73 154.081 L1899.05 154.081 L1899.05 150.145 Z" fill="#000000" fill-rule="nonzero" fill-opacity="1" /><path clip-path="url(#clip630)" d="M1939.63 158.293 L1947.27 158.293 L1947.27 131.928 L1938.96 133.595 L1938.96 129.335 L1947.22 127.669 L1951.9 127.669 L1951.9 158.293 L1959.54 158.293 L1959.54 162.229 L1939.63 162.229 L1939.63 158.293 Z" fill="#000000" fill-rule="nonzero" fill-opacity="1" /><path clip-path="url(#clip630)" d="M1978.98 145.817 Q1975.65 145.817 1973.73 147.599 Q1971.83 149.381 1971.83 152.506 Q1971.83 155.631 1973.73 157.414 Q1975.65 159.196 1978.98 159.196 Q1982.32 159.196 1984.24 157.414 Q1986.16 155.608 1986.16 152.506 Q1986.16 149.381 1984.24 147.599 Q1982.34 145.817 1978.98 145.817 M1974.31 143.826 Q1971.3 143.085 1969.61 141.025 Q1967.94 138.965 1967.94 136.002 Q1967.94 131.858 1970.88 129.451 Q1973.84 127.044 1978.98 127.044 Q1984.14 127.044 1987.08 129.451 Q1990.02 131.858 1990.02 136.002 Q1990.02 138.965 1988.33 141.025 Q1986.67 143.085 1983.68 143.826 Q1987.06 144.613 1988.94 146.905 Q1990.83 149.196 1990.83 152.506 Q1990.83 157.53 1987.75 160.215 Q1984.7 162.9 1978.98 162.9 Q1973.26 162.9 1970.19 160.215 Q1967.13 157.53 1967.13 152.506 Q1967.13 149.196 1969.03 146.905 Q1970.93 144.613 1974.31 143.826 M1972.59 136.442 Q1972.59 139.127 1974.26 140.632 Q1975.95 142.136 1978.98 142.136 Q1981.99 142.136 1983.68 140.632 Q1985.39 139.127 1985.39 136.442 Q1985.39 133.757 1983.68 132.252 Q1981.99 130.747 1978.98 130.747 Q1975.95 130.747 1974.26 132.252 Q1972.59 133.757 1972.59 136.442 Z" fill="#000000" fill-rule="nonzero" fill-opacity="1" /><path clip-path="url(#clip630)" d="M2030.14 137.067 L2030.14 141.094 Q2028.33 140.169 2026.39 139.706 Q2024.44 139.243 2022.36 139.243 Q2019.19 139.243 2017.59 140.215 Q2016.02 141.187 2016.02 143.131 Q2016.02 144.613 2017.15 145.469 Q2018.29 146.303 2021.71 147.067 L2023.17 147.391 Q2027.71 148.363 2029.61 150.145 Q2031.53 151.905 2031.53 155.076 Q2031.53 158.687 2028.66 160.793 Q2025.81 162.9 2020.81 162.9 Q2018.73 162.9 2016.46 162.483 Q2014.21 162.09 2011.71 161.28 L2011.71 156.881 Q2014.07 158.108 2016.37 158.733 Q2018.66 159.335 2020.9 159.335 Q2023.91 159.335 2025.53 158.317 Q2027.15 157.275 2027.15 155.4 Q2027.15 153.664 2025.97 152.738 Q2024.81 151.812 2020.86 150.956 L2019.38 150.608 Q2015.42 149.775 2013.66 148.062 Q2011.9 146.326 2011.9 143.317 Q2011.9 139.659 2014.49 137.669 Q2017.08 135.678 2021.85 135.678 Q2024.21 135.678 2026.3 136.025 Q2028.38 136.372 2030.14 137.067 Z" fill="#000000" fill-rule="nonzero" fill-opacity="1" /><path clip-path="url(#clip630)" d="M2050.09 149.196 Q2044.93 149.196 2042.94 150.377 Q2040.95 151.557 2040.95 154.405 Q2040.95 156.673 2042.43 158.016 Q2043.94 159.335 2046.5 159.335 Q2050.05 159.335 2052.18 156.835 Q2054.33 154.312 2054.33 150.145 L2054.33 149.196 L2050.09 149.196 M2058.59 147.437 L2058.59 162.229 L2054.33 162.229 L2054.33 158.293 Q2052.87 160.655 2050.69 161.789 Q2048.52 162.9 2045.37 162.9 Q2041.39 162.9 2039.03 160.678 Q2036.69 158.432 2036.69 154.682 Q2036.69 150.307 2039.61 148.085 Q2042.55 145.863 2048.36 145.863 L2054.33 145.863 L2054.33 145.446 Q2054.33 142.507 2052.38 140.909 Q2050.46 139.289 2046.97 139.289 Q2044.75 139.289 2042.64 139.821 Q2040.53 140.354 2038.59 141.419 L2038.59 137.483 Q2040.93 136.581 2043.13 136.141 Q2045.32 135.678 2047.41 135.678 Q2053.03 135.678 2055.81 138.594 Q2058.59 141.511 2058.59 147.437 Z" fill="#000000" fill-rule="nonzero" fill-opacity="1" /><path clip-path="url(#clip630)" d="M2087.55 141.28 Q2089.14 138.409 2091.37 137.044 Q2093.59 135.678 2096.6 135.678 Q2100.65 135.678 2102.85 138.525 Q2105.05 141.349 2105.05 146.581 L2105.05 162.229 L2100.76 162.229 L2100.76 146.719 Q2100.76 142.993 2099.44 141.187 Q2098.12 139.382 2095.42 139.382 Q2092.11 139.382 2090.18 141.581 Q2088.26 143.78 2088.26 147.576 L2088.26 162.229 L2083.98 162.229 L2083.98 146.719 Q2083.98 142.969 2082.66 141.187 Q2081.34 139.382 2078.59 139.382 Q2075.32 139.382 2073.4 141.604 Q2071.48 143.803 2071.48 147.576 L2071.48 162.229 L2067.2 162.229 L2067.2 136.303 L2071.48 136.303 L2071.48 140.331 Q2072.94 137.946 2074.98 136.812 Q2077.01 135.678 2079.81 135.678 Q2082.64 135.678 2084.61 137.113 Q2086.6 138.548 2087.55 141.28 Z" fill="#000000" fill-rule="nonzero" fill-opacity="1" /><path clip-path="url(#clip630)" d="M2117.66 158.34 L2117.66 172.09 L2113.38 172.09 L2113.38 136.303 L2117.66 136.303 L2117.66 140.238 Q2119 137.923 2121.04 136.812 Q2123.1 135.678 2125.95 135.678 Q2130.67 135.678 2133.61 139.428 Q2136.57 143.178 2136.57 149.289 Q2136.57 155.4 2133.61 159.15 Q2130.67 162.9 2125.95 162.9 Q2123.1 162.9 2121.04 161.789 Q2119 160.655 2117.66 158.34 M2132.15 149.289 Q2132.15 144.59 2130.21 141.928 Q2128.29 139.243 2124.91 139.243 Q2121.53 139.243 2119.58 141.928 Q2117.66 144.59 2117.66 149.289 Q2117.66 153.988 2119.58 156.673 Q2121.53 159.335 2124.91 159.335 Q2128.29 159.335 2130.21 156.673 Q2132.15 153.988 2132.15 149.289 Z" fill="#000000" fill-rule="nonzero" fill-opacity="1" /><path clip-path="url(#clip630)" d="M2143.63 126.21 L2147.89 126.21 L2147.89 162.229 L2143.63 162.229 L2143.63 126.21 Z" fill="#000000" fill-rule="nonzero" fill-opacity="1" /><path clip-path="url(#clip630)" d="M2178.98 148.201 L2178.98 150.284 L2159.4 150.284 Q2159.68 154.682 2162.04 156.997 Q2164.42 159.289 2168.66 159.289 Q2171.11 159.289 2173.4 158.687 Q2175.72 158.085 2177.99 156.881 L2177.99 160.909 Q2175.69 161.881 2173.29 162.391 Q2170.88 162.9 2168.4 162.9 Q2162.2 162.9 2158.56 159.289 Q2154.95 155.678 2154.95 149.52 Q2154.95 143.155 2158.38 139.428 Q2161.83 135.678 2167.66 135.678 Q2172.89 135.678 2175.93 139.057 Q2178.98 142.414 2178.98 148.201 M2174.72 146.951 Q2174.68 143.456 2172.75 141.372 Q2170.86 139.289 2167.71 139.289 Q2164.14 139.289 2161.99 141.303 Q2159.86 143.317 2159.54 146.974 L2174.72 146.951 Z" fill="#000000" fill-rule="nonzero" fill-opacity="1" /><path clip-path="url(#clip630)" d="M2202.5 137.067 L2202.5 141.094 Q2200.69 140.169 2198.75 139.706 Q2196.8 139.243 2194.72 139.243 Q2191.55 139.243 2189.95 140.215 Q2188.38 141.187 2188.38 143.131 Q2188.38 144.613 2189.51 145.469 Q2190.65 146.303 2194.07 147.067 L2195.53 147.391 Q2200.07 148.363 2201.97 150.145 Q2203.89 151.905 2203.89 155.076 Q2203.89 158.687 2201.02 160.793 Q2198.17 162.9 2193.17 162.9 Q2191.09 162.9 2188.82 162.483 Q2186.57 162.09 2184.07 161.28 L2184.07 156.881 Q2186.43 158.108 2188.73 158.733 Q2191.02 159.335 2193.26 159.335 Q2196.27 159.335 2197.89 158.317 Q2199.51 157.275 2199.51 155.4 Q2199.51 153.664 2198.33 152.738 Q2197.18 151.812 2193.22 150.956 L2191.74 150.608 Q2187.78 149.775 2186.02 148.062 Q2184.26 146.326 2184.26 143.317 Q2184.26 139.659 2186.85 137.669 Q2189.44 135.678 2194.21 135.678 Q2196.57 135.678 2198.66 136.025 Q2200.74 136.372 2202.5 137.067 Z" fill="#000000" fill-rule="nonzero" fill-opacity="1" /><path clip-path="url(#clip630)" d="M1365.56 174.033 L1365.56 219.544 L1411.07 219.544 L1411.07 174.033 L1365.56 174.033 Z" fill="#3da44d" fill-rule="evenodd" fill-opacity="1" stroke="none"/>
<path clip-path="url(#clip630)" d="M1487.23 183.351 L1487.23 196.337 L1493.1 196.337 Q1496.37 196.337 1498.15 194.647 Q1499.93 192.958 1499.93 189.833 Q1499.93 186.731 1498.15 185.041 Q1496.37 183.351 1493.1 183.351 L1487.23 183.351 M1482.55 179.509 L1493.1 179.509 Q1498.91 179.509 1501.88 182.147 Q1504.86 184.763 1504.86 189.833 Q1504.86 194.948 1501.88 197.564 Q1498.91 200.18 1493.1 200.18 L1487.23 200.18 L1487.23 214.069 L1482.55 214.069 L1482.55 179.509 Z" fill="#000000" fill-rule="nonzero" fill-opacity="1" /><path clip-path="url(#clip630)" d="M1532.5 198.421 L1532.5 214.069 L1528.24 214.069 L1528.24 198.559 Q1528.24 194.879 1526.81 193.05 Q1525.37 191.222 1522.5 191.222 Q1519.05 191.222 1517.06 193.421 Q1515.07 195.62 1515.07 199.416 L1515.07 214.069 L1510.79 214.069 L1510.79 178.05 L1515.07 178.05 L1515.07 192.171 Q1516.6 189.833 1518.66 188.675 Q1520.74 187.518 1523.45 187.518 Q1527.92 187.518 1530.21 190.296 Q1532.5 193.05 1532.5 198.421 Z" fill="#000000" fill-rule="nonzero" fill-opacity="1" /><path clip-path="url(#clip630)" d="M1552.78 201.036 Q1547.62 201.036 1545.63 202.217 Q1543.64 203.397 1543.64 206.245 Q1543.64 208.513 1545.12 209.856 Q1546.62 211.175 1549.19 211.175 Q1552.73 211.175 1554.86 208.675 Q1557.02 206.152 1557.02 201.985 L1557.02 201.036 L1552.78 201.036 M1561.28 199.277 L1561.28 214.069 L1557.02 214.069 L1557.02 210.133 Q1555.56 212.495 1553.38 213.629 Q1551.21 214.74 1548.06 214.74 Q1544.08 214.74 1541.72 212.518 Q1539.38 210.272 1539.38 206.522 Q1539.38 202.147 1542.29 199.925 Q1545.23 197.703 1551.04 197.703 L1557.02 197.703 L1557.02 197.286 Q1557.02 194.347 1555.07 192.749 Q1553.15 191.129 1549.66 191.129 Q1547.43 191.129 1545.33 191.661 Q1543.22 192.194 1541.28 193.259 L1541.28 189.323 Q1543.61 188.421 1545.81 187.981 Q1548.01 187.518 1550.1 187.518 Q1555.72 187.518 1558.5 190.434 Q1561.28 193.351 1561.28 199.277 Z" fill="#000000" fill-rule="nonzero" fill-opacity="1" /><path clip-path="url(#clip630)" d="M1586.58 188.907 L1586.58 192.934 Q1584.77 192.009 1582.83 191.546 Q1580.88 191.083 1578.8 191.083 Q1575.63 191.083 1574.03 192.055 Q1572.46 193.027 1572.46 194.971 Q1572.46 196.453 1573.59 197.309 Q1574.72 198.143 1578.15 198.907 L1579.61 199.231 Q1584.15 200.203 1586.04 201.985 Q1587.97 203.745 1587.97 206.916 Q1587.97 210.527 1585.1 212.633 Q1582.25 214.74 1577.25 214.74 Q1575.16 214.74 1572.9 214.323 Q1570.65 213.93 1568.15 213.12 L1568.15 208.721 Q1570.51 209.948 1572.8 210.573 Q1575.1 211.175 1577.34 211.175 Q1580.35 211.175 1581.97 210.157 Q1583.59 209.115 1583.59 207.24 Q1583.59 205.504 1582.41 204.578 Q1581.25 203.652 1577.29 202.796 L1575.81 202.448 Q1571.85 201.615 1570.1 199.902 Q1568.34 198.166 1568.34 195.157 Q1568.34 191.499 1570.93 189.509 Q1573.52 187.518 1578.29 187.518 Q1580.65 187.518 1582.73 187.865 Q1584.82 188.212 1586.58 188.907 Z" fill="#000000" fill-rule="nonzero" fill-opacity="1" /><path clip-path="url(#clip630)" d="M1616.92 200.041 L1616.92 202.124 L1597.34 202.124 Q1597.62 206.522 1599.98 208.837 Q1602.36 211.129 1606.6 211.129 Q1609.05 211.129 1611.34 210.527 Q1613.66 209.925 1615.93 208.721 L1615.93 212.749 Q1613.64 213.721 1611.23 214.231 Q1608.82 214.74 1606.34 214.74 Q1600.14 214.74 1596.51 211.129 Q1592.9 207.518 1592.9 201.36 Q1592.9 194.995 1596.32 191.268 Q1599.77 187.518 1605.6 187.518 Q1610.84 187.518 1613.87 190.897 Q1616.92 194.254 1616.92 200.041 M1612.66 198.791 Q1612.62 195.296 1610.7 193.212 Q1608.8 191.129 1605.65 191.129 Q1602.09 191.129 1599.93 193.143 Q1597.8 195.157 1597.48 198.814 L1612.66 198.791 Z" fill="#000000" fill-rule="nonzero" fill-opacity="1" /><path clip-path="url(#clip630)" d="M1657.64 189.138 L1657.64 193.12 Q1655.84 192.124 1654.01 191.638 Q1652.2 191.129 1650.35 191.129 Q1646.21 191.129 1643.91 193.768 Q1641.62 196.384 1641.62 201.129 Q1641.62 205.874 1643.91 208.513 Q1646.21 211.129 1650.35 211.129 Q1652.2 211.129 1654.01 210.643 Q1655.84 210.133 1657.64 209.138 L1657.64 213.073 Q1655.86 213.907 1653.94 214.323 Q1652.04 214.74 1649.89 214.74 Q1644.03 214.74 1640.58 211.059 Q1637.13 207.379 1637.13 201.129 Q1637.13 194.786 1640.6 191.152 Q1644.1 187.518 1650.16 187.518 Q1652.13 187.518 1654.01 187.935 Q1655.88 188.328 1657.64 189.138 Z" fill="#000000" fill-rule="nonzero" fill-opacity="1" /><path clip-path="url(#clip630)" d="M1675.09 191.129 Q1671.67 191.129 1669.68 193.814 Q1667.69 196.476 1667.69 201.129 Q1667.69 205.782 1669.65 208.467 Q1671.65 211.129 1675.09 211.129 Q1678.5 211.129 1680.49 208.444 Q1682.48 205.758 1682.48 201.129 Q1682.48 196.522 1680.49 193.837 Q1678.5 191.129 1675.09 191.129 M1675.09 187.518 Q1680.65 187.518 1683.82 191.129 Q1686.99 194.74 1686.99 201.129 Q1686.99 207.495 1683.82 211.129 Q1680.65 214.74 1675.09 214.74 Q1669.52 214.74 1666.34 211.129 Q1663.2 207.495 1663.2 201.129 Q1663.2 194.74 1666.34 191.129 Q1669.52 187.518 1675.09 187.518 Z" fill="#000000" fill-rule="nonzero" fill-opacity="1" /><path clip-path="url(#clip630)" d="M1709.08 192.124 Q1708.36 191.708 1707.5 191.522 Q1706.67 191.314 1705.65 191.314 Q1702.04 191.314 1700.09 193.675 Q1698.17 196.013 1698.17 200.411 L1698.17 214.069 L1693.89 214.069 L1693.89 188.143 L1698.17 188.143 L1698.17 192.171 Q1699.52 189.809 1701.67 188.675 Q1703.82 187.518 1706.9 187.518 Q1707.34 187.518 1707.87 187.587 Q1708.4 187.634 1709.05 187.749 L1709.08 192.124 Z" fill="#000000" fill-rule="nonzero" fill-opacity="1" /><path clip-path="url(#clip630)" d="M1727.73 192.124 Q1727.02 191.708 1726.16 191.522 Q1725.33 191.314 1724.31 191.314 Q1720.7 191.314 1718.75 193.675 Q1716.83 196.013 1716.83 200.411 L1716.83 214.069 L1712.55 214.069 L1712.55 188.143 L1716.83 188.143 L1716.83 192.171 Q1718.17 189.809 1720.33 188.675 Q1722.48 187.518 1725.56 187.518 Q1726 187.518 1726.53 187.587 Q1727.06 187.634 1727.71 187.749 L1727.73 192.124 Z" fill="#000000" fill-rule="nonzero" fill-opacity="1" /><path clip-path="url(#clip630)" d="M1753.33 200.041 L1753.33 202.124 L1733.75 202.124 Q1734.03 206.522 1736.39 208.837 Q1738.77 211.129 1743.01 211.129 Q1745.46 211.129 1747.76 210.527 Q1750.07 209.925 1752.34 208.721 L1752.34 212.749 Q1750.05 213.721 1747.64 214.231 Q1745.23 214.74 1742.76 214.74 Q1736.55 214.74 1732.92 211.129 Q1729.31 207.518 1729.31 201.36 Q1729.31 194.995 1732.73 191.268 Q1736.18 187.518 1742.02 187.518 Q1747.25 187.518 1750.28 190.897 Q1753.33 194.254 1753.33 200.041 M1749.08 198.791 Q1749.03 195.296 1747.11 193.212 Q1745.21 191.129 1742.06 191.129 Q1738.5 191.129 1736.34 193.143 Q1734.21 195.157 1733.89 198.814 L1749.08 198.791 Z" fill="#000000" fill-rule="nonzero" fill-opacity="1" /><path clip-path="url(#clip630)" d="M1778.98 189.138 L1778.98 193.12 Q1777.18 192.124 1775.35 191.638 Q1773.54 191.129 1771.69 191.129 Q1767.55 191.129 1765.26 193.768 Q1762.96 196.384 1762.96 201.129 Q1762.96 205.874 1765.26 208.513 Q1767.55 211.129 1771.69 211.129 Q1773.54 211.129 1775.35 210.643 Q1777.18 210.133 1778.98 209.138 L1778.98 213.073 Q1777.2 213.907 1775.28 214.323 Q1773.38 214.74 1771.23 214.74 Q1765.37 214.74 1761.92 211.059 Q1758.47 207.379 1758.47 201.129 Q1758.47 194.786 1761.95 191.152 Q1765.44 187.518 1771.51 187.518 Q1773.47 187.518 1775.35 187.935 Q1777.22 188.328 1778.98 189.138 Z" fill="#000000" fill-rule="nonzero" fill-opacity="1" /><path clip-path="url(#clip630)" d="M1790.6 180.782 L1790.6 188.143 L1799.38 188.143 L1799.38 191.453 L1790.6 191.453 L1790.6 205.527 Q1790.6 208.698 1791.46 209.601 Q1792.34 210.504 1795 210.504 L1799.38 210.504 L1799.38 214.069 L1795 214.069 Q1790.07 214.069 1788.2 212.24 Q1786.32 210.388 1786.32 205.527 L1786.32 191.453 L1783.2 191.453 L1783.2 188.143 L1786.32 188.143 L1786.32 180.782 L1790.6 180.782 Z" fill="#000000" fill-rule="nonzero" fill-opacity="1" /><path clip-path="url(#clip630)" d="M1827.15 200.041 L1827.15 202.124 L1807.57 202.124 Q1807.85 206.522 1810.21 208.837 Q1812.59 211.129 1816.83 211.129 Q1819.28 211.129 1821.58 210.527 Q1823.89 209.925 1826.16 208.721 L1826.16 212.749 Q1823.87 213.721 1821.46 214.231 Q1819.05 214.74 1816.58 214.74 Q1810.37 214.74 1806.74 211.129 Q1803.13 207.518 1803.13 201.36 Q1803.13 194.995 1806.55 191.268 Q1810 187.518 1815.83 187.518 Q1821.07 187.518 1824.1 190.897 Q1827.15 194.254 1827.15 200.041 M1822.89 198.791 Q1822.85 195.296 1820.93 193.212 Q1819.03 191.129 1815.88 191.129 Q1812.32 191.129 1810.16 193.143 Q1808.03 195.157 1807.71 198.814 L1822.89 198.791 Z" fill="#000000" fill-rule="nonzero" fill-opacity="1" /><path clip-path="url(#clip630)" d="M1851.2 192.078 L1851.2 178.05 L1855.46 178.05 L1855.46 214.069 L1851.2 214.069 L1851.2 210.18 Q1849.86 212.495 1847.8 213.629 Q1845.76 214.74 1842.89 214.74 Q1838.2 214.74 1835.23 210.99 Q1832.29 207.24 1832.29 201.129 Q1832.29 195.018 1835.23 191.268 Q1838.2 187.518 1842.89 187.518 Q1845.76 187.518 1847.8 188.652 Q1849.86 189.763 1851.2 192.078 M1836.69 201.129 Q1836.69 205.828 1838.61 208.513 Q1840.56 211.175 1843.94 211.175 Q1847.32 211.175 1849.26 208.513 Q1851.2 205.828 1851.2 201.129 Q1851.2 196.43 1849.26 193.768 Q1847.32 191.083 1843.94 191.083 Q1840.56 191.083 1838.61 193.768 Q1836.69 196.43 1836.69 201.129 Z" fill="#000000" fill-rule="nonzero" fill-opacity="1" /><path clip-path="url(#clip630)" d="M1896.37 192.078 L1896.37 178.05 L1900.63 178.05 L1900.63 214.069 L1896.37 214.069 L1896.37 210.18 Q1895.02 212.495 1892.96 213.629 Q1890.93 214.74 1888.06 214.74 Q1883.36 214.74 1880.39 210.99 Q1877.45 207.24 1877.45 201.129 Q1877.45 195.018 1880.39 191.268 Q1883.36 187.518 1888.06 187.518 Q1890.93 187.518 1892.96 188.652 Q1895.02 189.763 1896.37 192.078 M1881.85 201.129 Q1881.85 205.828 1883.77 208.513 Q1885.72 211.175 1889.1 211.175 Q1892.48 211.175 1894.42 208.513 Q1896.37 205.828 1896.37 201.129 Q1896.37 196.43 1894.42 193.768 Q1892.48 191.083 1889.1 191.083 Q1885.72 191.083 1883.77 193.768 Q1881.85 196.43 1881.85 201.129 Z" fill="#000000" fill-rule="nonzero" fill-opacity="1" /><path clip-path="url(#clip630)" d="M1921.18 201.036 Q1916.02 201.036 1914.03 202.217 Q1912.04 203.397 1912.04 206.245 Q1912.04 208.513 1913.52 209.856 Q1915.02 211.175 1917.59 211.175 Q1921.13 211.175 1923.26 208.675 Q1925.42 206.152 1925.42 201.985 L1925.42 201.036 L1921.18 201.036 M1929.68 199.277 L1929.68 214.069 L1925.42 214.069 L1925.42 210.133 Q1923.96 212.495 1921.78 213.629 Q1919.61 214.74 1916.46 214.74 Q1912.48 214.74 1910.12 212.518 Q1907.78 210.272 1907.78 206.522 Q1907.78 202.147 1910.7 199.925 Q1913.63 197.703 1919.45 197.703 L1925.42 197.703 L1925.42 197.286 Q1925.42 194.347 1923.47 192.749 Q1921.55 191.129 1918.06 191.129 Q1915.83 191.129 1913.73 191.661 Q1911.62 192.194 1909.68 193.259 L1909.68 189.323 Q1912.01 188.421 1914.21 187.981 Q1916.41 187.518 1918.5 187.518 Q1924.12 187.518 1926.9 190.434 Q1929.68 193.351 1929.68 199.277 Z" fill="#000000" fill-rule="nonzero" fill-opacity="1" /><path clip-path="url(#clip630)" d="M1942.66 180.782 L1942.66 188.143 L1951.44 188.143 L1951.44 191.453 L1942.66 191.453 L1942.66 205.527 Q1942.66 208.698 1943.52 209.601 Q1944.4 210.504 1947.06 210.504 L1951.44 210.504 L1951.44 214.069 L1947.06 214.069 Q1942.13 214.069 1940.26 212.24 Q1938.38 210.388 1938.38 205.527 L1938.38 191.453 L1935.26 191.453 L1935.26 188.143 L1938.38 188.143 L1938.38 180.782 L1942.66 180.782 Z" fill="#000000" fill-rule="nonzero" fill-opacity="1" /><path clip-path="url(#clip630)" d="M1968.82 201.036 Q1963.66 201.036 1961.67 202.217 Q1959.68 203.397 1959.68 206.245 Q1959.68 208.513 1961.16 209.856 Q1962.66 211.175 1965.23 211.175 Q1968.77 211.175 1970.9 208.675 Q1973.06 206.152 1973.06 201.985 L1973.06 201.036 L1968.82 201.036 M1977.32 199.277 L1977.32 214.069 L1973.06 214.069 L1973.06 210.133 Q1971.6 212.495 1969.42 213.629 Q1967.25 214.74 1964.1 214.74 Q1960.12 214.74 1957.76 212.518 Q1955.42 210.272 1955.42 206.522 Q1955.42 202.147 1958.33 199.925 Q1961.27 197.703 1967.08 197.703 L1973.06 197.703 L1973.06 197.286 Q1973.06 194.347 1971.11 192.749 Q1969.19 191.129 1965.69 191.129 Q1963.47 191.129 1961.37 191.661 Q1959.26 192.194 1957.32 193.259 L1957.32 189.323 Q1959.65 188.421 1961.85 187.981 Q1964.05 187.518 1966.13 187.518 Q1971.76 187.518 1974.54 190.434 Q1977.32 193.351 1977.32 199.277 Z" fill="#000000" fill-rule="nonzero" fill-opacity="1" /><path clip-path="url(#clip630)" d="M1999 199.184 L2011.48 199.184 L2011.48 202.981 L1999 202.981 L1999 199.184 Z" fill="#000000" fill-rule="nonzero" fill-opacity="1" /><path clip-path="url(#clip630)" d="M2048.36 192.124 Q2047.64 191.708 2046.78 191.522 Q2045.95 191.314 2044.93 191.314 Q2041.32 191.314 2039.38 193.675 Q2037.45 196.013 2037.45 200.411 L2037.45 214.069 L2033.17 214.069 L2033.17 188.143 L2037.45 188.143 L2037.45 192.171 Q2038.8 189.809 2040.95 188.675 Q2043.1 187.518 2046.18 187.518 Q2046.62 187.518 2047.15 187.587 Q2047.69 187.634 2048.33 187.749 L2048.36 192.124 Z" fill="#000000" fill-rule="nonzero" fill-opacity="1" /><path clip-path="url(#clip630)" d="M2073.96 200.041 L2073.96 202.124 L2054.37 202.124 Q2054.65 206.522 2057.01 208.837 Q2059.4 211.129 2063.63 211.129 Q2066.09 211.129 2068.38 210.527 Q2070.69 209.925 2072.96 208.721 L2072.96 212.749 Q2070.67 213.721 2068.26 214.231 Q2065.86 214.74 2063.38 214.74 Q2057.18 214.74 2053.54 211.129 Q2049.93 207.518 2049.93 201.36 Q2049.93 194.995 2053.36 191.268 Q2056.81 187.518 2062.64 187.518 Q2067.87 187.518 2070.9 190.897 Q2073.96 194.254 2073.96 200.041 M2069.7 198.791 Q2069.65 195.296 2067.73 193.212 Q2065.83 191.129 2062.69 191.129 Q2059.12 191.129 2056.97 193.143 Q2054.84 195.157 2054.51 198.814 L2069.7 198.791 Z" fill="#000000" fill-rule="nonzero" fill-opacity="1" /><path clip-path="url(#clip630)" d="M2092.73 201.036 Q2087.57 201.036 2085.58 202.217 Q2083.59 203.397 2083.59 206.245 Q2083.59 208.513 2085.07 209.856 Q2086.57 211.175 2089.14 211.175 Q2092.68 211.175 2094.81 208.675 Q2096.97 206.152 2096.97 201.985 L2096.97 201.036 L2092.73 201.036 M2101.23 199.277 L2101.23 214.069 L2096.97 214.069 L2096.97 210.133 Q2095.51 212.495 2093.33 213.629 Q2091.16 214.74 2088.01 214.74 Q2084.03 214.74 2081.67 212.518 Q2079.33 210.272 2079.33 206.522 Q2079.33 202.147 2082.25 199.925 Q2085.18 197.703 2091 197.703 L2096.97 197.703 L2096.97 197.286 Q2096.97 194.347 2095.02 192.749 Q2093.1 191.129 2089.61 191.129 Q2087.38 191.129 2085.28 191.661 Q2083.17 192.194 2081.23 193.259 L2081.23 189.323 Q2083.56 188.421 2085.76 187.981 Q2087.96 187.518 2090.05 187.518 Q2095.67 187.518 2098.45 190.434 Q2101.23 193.351 2101.23 199.277 Z" fill="#000000" fill-rule="nonzero" fill-opacity="1" /><path clip-path="url(#clip630)" d="M2110 178.05 L2114.26 178.05 L2114.26 214.069 L2110 214.069 L2110 178.05 Z" fill="#000000" fill-rule="nonzero" fill-opacity="1" /><path clip-path="url(#clip630)" d="M2142.36 210.18 L2142.36 223.93 L2138.08 223.93 L2138.08 188.143 L2142.36 188.143 L2142.36 192.078 Q2143.7 189.763 2145.74 188.652 Q2147.8 187.518 2150.65 187.518 Q2155.37 187.518 2158.31 191.268 Q2161.27 195.018 2161.27 201.129 Q2161.27 207.24 2158.31 210.99 Q2155.37 214.74 2150.65 214.74 Q2147.8 214.74 2145.74 213.629 Q2143.7 212.495 2142.36 210.18 M2156.85 201.129 Q2156.85 196.43 2154.91 193.768 Q2152.99 191.083 2149.61 191.083 Q2146.23 191.083 2144.28 193.768 Q2142.36 196.43 2142.36 201.129 Q2142.36 205.828 2144.28 208.513 Q2146.23 211.175 2149.61 211.175 Q2152.99 211.175 2154.91 208.513 Q2156.85 205.828 2156.85 201.129 Z" fill="#000000" fill-rule="nonzero" fill-opacity="1" /><path clip-path="url(#clip630)" d="M2180.12 201.036 Q2174.95 201.036 2172.96 202.217 Q2170.97 203.397 2170.97 206.245 Q2170.97 208.513 2172.45 209.856 Q2173.96 211.175 2176.53 211.175 Q2180.07 211.175 2182.2 208.675 Q2184.35 206.152 2184.35 201.985 L2184.35 201.036 L2180.12 201.036 M2188.61 199.277 L2188.61 214.069 L2184.35 214.069 L2184.35 210.133 Q2182.89 212.495 2180.72 213.629 Q2178.54 214.74 2175.39 214.74 Q2171.41 214.74 2169.05 212.518 Q2166.71 210.272 2166.71 206.522 Q2166.71 202.147 2169.63 199.925 Q2172.57 197.703 2178.38 197.703 L2184.35 197.703 L2184.35 197.286 Q2184.35 194.347 2182.41 192.749 Q2180.49 191.129 2176.99 191.129 Q2174.77 191.129 2172.66 191.661 Q2170.55 192.194 2168.61 193.259 L2168.61 189.323 Q2170.95 188.421 2173.15 187.981 Q2175.35 187.518 2177.43 187.518 Q2183.05 187.518 2185.83 190.434 Q2188.61 193.351 2188.61 199.277 Z" fill="#000000" fill-rule="nonzero" fill-opacity="1" /><path clip-path="url(#clip630)" d="M2212.41 192.124 Q2211.69 191.708 2210.83 191.522 Q2210 191.314 2208.98 191.314 Q2205.37 191.314 2203.43 193.675 Q2201.5 196.013 2201.5 200.411 L2201.5 214.069 L2197.22 214.069 L2197.22 188.143 L2201.5 188.143 L2201.5 192.171 Q2202.85 189.809 2205 188.675 Q2207.15 187.518 2210.23 187.518 Q2210.67 187.518 2211.2 187.587 Q2211.74 187.634 2212.38 187.749 L2212.41 192.124 Z" fill="#000000" fill-rule="nonzero" fill-opacity="1" /><path clip-path="url(#clip630)" d="M2221.09 180.782 L2221.09 188.143 L2229.86 188.143 L2229.86 191.453 L2221.09 191.453 L2221.09 205.527 Q2221.09 208.698 2221.94 209.601 Q2222.82 210.504 2225.49 210.504 L2229.86 210.504 L2229.86 214.069 L2225.49 214.069 Q2220.55 214.069 2218.68 212.24 Q2216.8 210.388 2216.8 205.527 L2216.8 191.453 L2213.68 191.453 L2213.68 188.143 L2216.8 188.143 L2216.8 180.782 L2221.09 180.782 Z" fill="#000000" fill-rule="nonzero" fill-opacity="1" /><circle clip-path="url(#clip630)" cx="1388.31" cy="248.629" r="20.48" fill="#c271d2" fill-rule="evenodd" fill-opacity="1" stroke="none"/>
<path clip-path="url(#clip630)" d="M1487.23 235.191 L1487.23 248.177 L1493.1 248.177 Q1496.37 248.177 1498.15 246.487 Q1499.93 244.798 1499.93 241.673 Q1499.93 238.571 1498.15 236.881 Q1496.37 235.191 1493.1 235.191 L1487.23 235.191 M1482.55 231.349 L1493.1 231.349 Q1498.91 231.349 1501.88 233.987 Q1504.86 236.603 1504.86 241.673 Q1504.86 246.788 1501.88 249.404 Q1498.91 252.02 1493.1 252.02 L1487.23 252.02 L1487.23 265.909 L1482.55 265.909 L1482.55 231.349 Z" fill="#000000" fill-rule="nonzero" fill-opacity="1" /><path clip-path="url(#clip630)" d="M1532.5 250.261 L1532.5 265.909 L1528.24 265.909 L1528.24 250.399 Q1528.24 246.719 1526.81 244.89 Q1525.37 243.062 1522.5 243.062 Q1519.05 243.062 1517.06 245.261 Q1515.07 247.46 1515.07 251.256 L1515.07 265.909 L1510.79 265.909 L1510.79 229.89 L1515.07 229.89 L1515.07 244.011 Q1516.6 241.673 1518.66 240.515 Q1520.74 239.358 1523.45 239.358 Q1527.92 239.358 1530.21 242.136 Q1532.5 244.89 1532.5 250.261 Z" fill="#000000" fill-rule="nonzero" fill-opacity="1" /><path clip-path="url(#clip630)" d="M1552.78 252.876 Q1547.62 252.876 1545.63 254.057 Q1543.64 255.237 1543.64 258.085 Q1543.64 260.353 1545.12 261.696 Q1546.62 263.015 1549.19 263.015 Q1552.73 263.015 1554.86 260.515 Q1557.02 257.992 1557.02 253.825 L1557.02 252.876 L1552.78 252.876 M1561.28 251.117 L1561.28 265.909 L1557.02 265.909 L1557.02 261.973 Q1555.56 264.335 1553.38 265.469 Q1551.21 266.58 1548.06 266.58 Q1544.08 266.58 1541.72 264.358 Q1539.38 262.112 1539.38 258.362 Q1539.38 253.987 1542.29 251.765 Q1545.23 249.543 1551.04 249.543 L1557.02 249.543 L1557.02 249.126 Q1557.02 246.187 1555.07 244.589 Q1553.15 242.969 1549.66 242.969 Q1547.43 242.969 1545.33 243.501 Q1543.22 244.034 1541.28 245.099 L1541.28 241.163 Q1543.61 240.261 1545.81 239.821 Q1548.01 239.358 1550.1 239.358 Q1555.72 239.358 1558.5 242.274 Q1561.28 245.191 1561.28 251.117 Z" fill="#000000" fill-rule="nonzero" fill-opacity="1" /><path clip-path="url(#clip630)" d="M1586.58 240.747 L1586.58 244.774 Q1584.77 243.849 1582.83 243.386 Q1580.88 242.923 1578.8 242.923 Q1575.63 242.923 1574.03 243.895 Q1572.46 244.867 1572.46 246.811 Q1572.46 248.293 1573.59 249.149 Q1574.72 249.983 1578.15 250.747 L1579.61 251.071 Q1584.15 252.043 1586.04 253.825 Q1587.97 255.585 1587.97 258.756 Q1587.97 262.367 1585.1 264.473 Q1582.25 266.58 1577.25 266.58 Q1575.16 266.58 1572.9 266.163 Q1570.65 265.77 1568.15 264.96 L1568.15 260.561 Q1570.51 261.788 1572.8 262.413 Q1575.1 263.015 1577.34 263.015 Q1580.35 263.015 1581.97 261.997 Q1583.59 260.955 1583.59 259.08 Q1583.59 257.344 1582.41 256.418 Q1581.25 255.492 1577.29 254.636 L1575.81 254.288 Q1571.85 253.455 1570.1 251.742 Q1568.34 250.006 1568.34 246.997 Q1568.34 243.339 1570.93 241.349 Q1573.52 239.358 1578.29 239.358 Q1580.65 239.358 1582.73 239.705 Q1584.82 240.052 1586.58 240.747 Z" fill="#000000" fill-rule="nonzero" fill-opacity="1" /><path clip-path="url(#clip630)" d="M1616.92 251.881 L1616.92 253.964 L1597.34 253.964 Q1597.62 258.362 1599.98 260.677 Q1602.36 262.969 1606.6 262.969 Q1609.05 262.969 1611.34 262.367 Q1613.66 261.765 1615.93 260.561 L1615.93 264.589 Q1613.64 265.561 1611.23 266.071 Q1608.82 266.58 1606.34 266.58 Q1600.14 266.58 1596.51 262.969 Q1592.9 259.358 1592.9 253.2 Q1592.9 246.835 1596.32 243.108 Q1599.77 239.358 1605.6 239.358 Q1610.84 239.358 1613.87 242.737 Q1616.92 246.094 1616.92 251.881 M1612.66 250.631 Q1612.62 247.136 1610.7 245.052 Q1608.8 242.969 1605.65 242.969 Q1602.09 242.969 1599.93 244.983 Q1597.8 246.997 1597.48 250.654 L1612.66 250.631 Z" fill="#000000" fill-rule="nonzero" fill-opacity="1" /><path clip-path="url(#clip630)" d="M1657.64 240.978 L1657.64 244.96 Q1655.84 243.964 1654.01 243.478 Q1652.2 242.969 1650.35 242.969 Q1646.21 242.969 1643.91 245.608 Q1641.62 248.224 1641.62 252.969 Q1641.62 257.714 1643.91 260.353 Q1646.21 262.969 1650.35 262.969 Q1652.2 262.969 1654.01 262.483 Q1655.84 261.973 1657.64 260.978 L1657.64 264.913 Q1655.86 265.747 1653.94 266.163 Q1652.04 266.58 1649.89 266.58 Q1644.03 266.58 1640.58 262.899 Q1637.13 259.219 1637.13 252.969 Q1637.13 246.626 1640.6 242.992 Q1644.1 239.358 1650.16 239.358 Q1652.13 239.358 1654.01 239.775 Q1655.88 240.168 1657.64 240.978 Z" fill="#000000" fill-rule="nonzero" fill-opacity="1" /><path clip-path="url(#clip630)" d="M1675.09 242.969 Q1671.67 242.969 1669.68 245.654 Q1667.69 248.316 1667.69 252.969 Q1667.69 257.622 1669.65 260.307 Q1671.65 262.969 1675.09 262.969 Q1678.5 262.969 1680.49 260.284 Q1682.48 257.598 1682.48 252.969 Q1682.48 248.362 1680.49 245.677 Q1678.5 242.969 1675.09 242.969 M1675.09 239.358 Q1680.65 239.358 1683.82 242.969 Q1686.99 246.58 1686.99 252.969 Q1686.99 259.335 1683.82 262.969 Q1680.65 266.58 1675.09 266.58 Q1669.52 266.58 1666.34 262.969 Q1663.2 259.335 1663.2 252.969 Q1663.2 246.58 1666.34 242.969 Q1669.52 239.358 1675.09 239.358 Z" fill="#000000" fill-rule="nonzero" fill-opacity="1" /><path clip-path="url(#clip630)" d="M1709.08 243.964 Q1708.36 243.548 1707.5 243.362 Q1706.67 243.154 1705.65 243.154 Q1702.04 243.154 1700.09 245.515 Q1698.17 247.853 1698.17 252.251 L1698.17 265.909 L1693.89 265.909 L1693.89 239.983 L1698.17 239.983 L1698.17 244.011 Q1699.52 241.649 1701.67 240.515 Q1703.82 239.358 1706.9 239.358 Q1707.34 239.358 1707.87 239.427 Q1708.4 239.474 1709.05 239.589 L1709.08 243.964 Z" fill="#000000" fill-rule="nonzero" fill-opacity="1" /><path clip-path="url(#clip630)" d="M1727.73 243.964 Q1727.02 243.548 1726.16 243.362 Q1725.33 243.154 1724.31 243.154 Q1720.7 243.154 1718.75 245.515 Q1716.83 247.853 1716.83 252.251 L1716.83 265.909 L1712.55 265.909 L1712.55 239.983 L1716.83 239.983 L1716.83 244.011 Q1718.17 241.649 1720.33 240.515 Q1722.48 239.358 1725.56 239.358 Q1726 239.358 1726.53 239.427 Q1727.06 239.474 1727.71 239.589 L1727.73 243.964 Z" fill="#000000" fill-rule="nonzero" fill-opacity="1" /><path clip-path="url(#clip630)" d="M1753.33 251.881 L1753.33 253.964 L1733.75 253.964 Q1734.03 258.362 1736.39 260.677 Q1738.77 262.969 1743.01 262.969 Q1745.46 262.969 1747.76 262.367 Q1750.07 261.765 1752.34 260.561 L1752.34 264.589 Q1750.05 265.561 1747.64 266.071 Q1745.23 266.58 1742.76 266.58 Q1736.55 266.58 1732.92 262.969 Q1729.31 259.358 1729.31 253.2 Q1729.31 246.835 1732.73 243.108 Q1736.18 239.358 1742.02 239.358 Q1747.25 239.358 1750.28 242.737 Q1753.33 246.094 1753.33 251.881 M1749.08 250.631 Q1749.03 247.136 1747.11 245.052 Q1745.21 242.969 1742.06 242.969 Q1738.5 242.969 1736.34 244.983 Q1734.21 246.997 1733.89 250.654 L1749.08 250.631 Z" fill="#000000" fill-rule="nonzero" fill-opacity="1" /><path clip-path="url(#clip630)" d="M1778.98 240.978 L1778.98 244.96 Q1777.18 243.964 1775.35 243.478 Q1773.54 242.969 1771.69 242.969 Q1767.55 242.969 1765.26 245.608 Q1762.96 248.224 1762.96 252.969 Q1762.96 257.714 1765.26 260.353 Q1767.55 262.969 1771.69 262.969 Q1773.54 262.969 1775.35 262.483 Q1777.18 261.973 1778.98 260.978 L1778.98 264.913 Q1777.2 265.747 1775.28 266.163 Q1773.38 266.58 1771.23 266.58 Q1765.37 266.58 1761.92 262.899 Q1758.47 259.219 1758.47 252.969 Q1758.47 246.626 1761.95 242.992 Q1765.44 239.358 1771.51 239.358 Q1773.47 239.358 1775.35 239.775 Q1777.22 240.168 1778.98 240.978 Z" fill="#000000" fill-rule="nonzero" fill-opacity="1" /><path clip-path="url(#clip630)" d="M1790.6 232.622 L1790.6 239.983 L1799.38 239.983 L1799.38 243.293 L1790.6 243.293 L1790.6 257.367 Q1790.6 260.538 1791.46 261.441 Q1792.34 262.344 1795 262.344 L1799.38 262.344 L1799.38 265.909 L1795 265.909 Q1790.07 265.909 1788.2 264.08 Q1786.32 262.228 1786.32 257.367 L1786.32 243.293 L1783.2 243.293 L1783.2 239.983 L1786.32 239.983 L1786.32 232.622 L1790.6 232.622 Z" fill="#000000" fill-rule="nonzero" fill-opacity="1" /><path clip-path="url(#clip630)" d="M1827.15 251.881 L1827.15 253.964 L1807.57 253.964 Q1807.85 258.362 1810.21 260.677 Q1812.59 262.969 1816.83 262.969 Q1819.28 262.969 1821.58 262.367 Q1823.89 261.765 1826.16 260.561 L1826.16 264.589 Q1823.87 265.561 1821.46 266.071 Q1819.05 266.58 1816.58 266.58 Q1810.37 266.58 1806.74 262.969 Q1803.13 259.358 1803.13 253.2 Q1803.13 246.835 1806.55 243.108 Q1810 239.358 1815.83 239.358 Q1821.07 239.358 1824.1 242.737 Q1827.15 246.094 1827.15 251.881 M1822.89 250.631 Q1822.85 247.136 1820.93 245.052 Q1819.03 242.969 1815.88 242.969 Q1812.32 242.969 1810.16 244.983 Q1808.03 246.997 1807.71 250.654 L1822.89 250.631 Z" fill="#000000" fill-rule="nonzero" fill-opacity="1" /><path clip-path="url(#clip630)" d="M1851.2 243.918 L1851.2 229.89 L1855.46 229.89 L1855.46 265.909 L1851.2 265.909 L1851.2 262.02 Q1849.86 264.335 1847.8 265.469 Q1845.76 266.58 1842.89 266.58 Q1838.2 266.58 1835.23 262.83 Q1832.29 259.08 1832.29 252.969 Q1832.29 246.858 1835.23 243.108 Q1838.2 239.358 1842.89 239.358 Q1845.76 239.358 1847.8 240.492 Q1849.86 241.603 1851.2 243.918 M1836.69 252.969 Q1836.69 257.668 1838.61 260.353 Q1840.56 263.015 1843.94 263.015 Q1847.32 263.015 1849.26 260.353 Q1851.2 257.668 1851.2 252.969 Q1851.2 248.27 1849.26 245.608 Q1847.32 242.923 1843.94 242.923 Q1840.56 242.923 1838.61 245.608 Q1836.69 248.27 1836.69 252.969 Z" fill="#000000" fill-rule="nonzero" fill-opacity="1" /><path clip-path="url(#clip630)" d="M1896.37 243.918 L1896.37 229.89 L1900.63 229.89 L1900.63 265.909 L1896.37 265.909 L1896.37 262.02 Q1895.02 264.335 1892.96 265.469 Q1890.93 266.58 1888.06 266.58 Q1883.36 266.58 1880.39 262.83 Q1877.45 259.08 1877.45 252.969 Q1877.45 246.858 1880.39 243.108 Q1883.36 239.358 1888.06 239.358 Q1890.93 239.358 1892.96 240.492 Q1895.02 241.603 1896.37 243.918 M1881.85 252.969 Q1881.85 257.668 1883.77 260.353 Q1885.72 263.015 1889.1 263.015 Q1892.48 263.015 1894.42 260.353 Q1896.37 257.668 1896.37 252.969 Q1896.37 248.27 1894.42 245.608 Q1892.48 242.923 1889.1 242.923 Q1885.72 242.923 1883.77 245.608 Q1881.85 248.27 1881.85 252.969 Z" fill="#000000" fill-rule="nonzero" fill-opacity="1" /><path clip-path="url(#clip630)" d="M1921.18 252.876 Q1916.02 252.876 1914.03 254.057 Q1912.04 255.237 1912.04 258.085 Q1912.04 260.353 1913.52 261.696 Q1915.02 263.015 1917.59 263.015 Q1921.13 263.015 1923.26 260.515 Q1925.42 257.992 1925.42 253.825 L1925.42 252.876 L1921.18 252.876 M1929.68 251.117 L1929.68 265.909 L1925.42 265.909 L1925.42 261.973 Q1923.96 264.335 1921.78 265.469 Q1919.61 266.58 1916.46 266.58 Q1912.48 266.58 1910.12 264.358 Q1907.78 262.112 1907.78 258.362 Q1907.78 253.987 1910.7 251.765 Q1913.63 249.543 1919.45 249.543 L1925.42 249.543 L1925.42 249.126 Q1925.42 246.187 1923.47 244.589 Q1921.55 242.969 1918.06 242.969 Q1915.83 242.969 1913.73 243.501 Q1911.62 244.034 1909.68 245.099 L1909.68 241.163 Q1912.01 240.261 1914.21 239.821 Q1916.41 239.358 1918.5 239.358 Q1924.12 239.358 1926.9 242.274 Q1929.68 245.191 1929.68 251.117 Z" fill="#000000" fill-rule="nonzero" fill-opacity="1" /><path clip-path="url(#clip630)" d="M1942.66 232.622 L1942.66 239.983 L1951.44 239.983 L1951.44 243.293 L1942.66 243.293 L1942.66 257.367 Q1942.66 260.538 1943.52 261.441 Q1944.4 262.344 1947.06 262.344 L1951.44 262.344 L1951.44 265.909 L1947.06 265.909 Q1942.13 265.909 1940.26 264.08 Q1938.38 262.228 1938.38 257.367 L1938.38 243.293 L1935.26 243.293 L1935.26 239.983 L1938.38 239.983 L1938.38 232.622 L1942.66 232.622 Z" fill="#000000" fill-rule="nonzero" fill-opacity="1" /><path clip-path="url(#clip630)" d="M1968.82 252.876 Q1963.66 252.876 1961.67 254.057 Q1959.68 255.237 1959.68 258.085 Q1959.68 260.353 1961.16 261.696 Q1962.66 263.015 1965.23 263.015 Q1968.77 263.015 1970.9 260.515 Q1973.06 257.992 1973.06 253.825 L1973.06 252.876 L1968.82 252.876 M1977.32 251.117 L1977.32 265.909 L1973.06 265.909 L1973.06 261.973 Q1971.6 264.335 1969.42 265.469 Q1967.25 266.58 1964.1 266.58 Q1960.12 266.58 1957.76 264.358 Q1955.42 262.112 1955.42 258.362 Q1955.42 253.987 1958.33 251.765 Q1961.27 249.543 1967.08 249.543 L1973.06 249.543 L1973.06 249.126 Q1973.06 246.187 1971.11 244.589 Q1969.19 242.969 1965.69 242.969 Q1963.47 242.969 1961.37 243.501 Q1959.26 244.034 1957.32 245.099 L1957.32 241.163 Q1959.65 240.261 1961.85 239.821 Q1964.05 239.358 1966.13 239.358 Q1971.76 239.358 1974.54 242.274 Q1977.32 245.191 1977.32 251.117 Z" fill="#000000" fill-rule="nonzero" fill-opacity="1" /><path clip-path="url(#clip630)" d="M1999 251.024 L2011.48 251.024 L2011.48 254.821 L1999 254.821 L1999 251.024 Z" fill="#000000" fill-rule="nonzero" fill-opacity="1" /><path clip-path="url(#clip630)" d="M2033.33 239.983 L2037.59 239.983 L2037.59 265.909 L2033.33 265.909 L2033.33 239.983 M2033.33 229.89 L2037.59 229.89 L2037.59 235.284 L2033.33 235.284 L2033.33 229.89 Z" fill="#000000" fill-rule="nonzero" fill-opacity="1" /><path clip-path="url(#clip630)" d="M2066.69 244.96 Q2068.29 242.089 2070.51 240.724 Q2072.73 239.358 2075.74 239.358 Q2079.79 239.358 2081.99 242.205 Q2084.19 245.029 2084.19 250.261 L2084.19 265.909 L2079.91 265.909 L2079.91 250.399 Q2079.91 246.673 2078.59 244.867 Q2077.27 243.062 2074.56 243.062 Q2071.25 243.062 2069.33 245.261 Q2067.41 247.46 2067.41 251.256 L2067.41 265.909 L2063.12 265.909 L2063.12 250.399 Q2063.12 246.649 2061.81 244.867 Q2060.49 243.062 2057.73 243.062 Q2054.47 243.062 2052.55 245.284 Q2050.62 247.483 2050.62 251.256 L2050.62 265.909 L2046.34 265.909 L2046.34 239.983 L2050.62 239.983 L2050.62 244.011 Q2052.08 241.626 2054.12 240.492 Q2056.16 239.358 2058.96 239.358 Q2061.78 239.358 2063.75 240.793 Q2065.74 242.228 2066.69 244.96 Z" fill="#000000" fill-rule="nonzero" fill-opacity="1" /><path clip-path="url(#clip630)" d="M2104.47 252.876 Q2099.31 252.876 2097.31 254.057 Q2095.32 255.237 2095.32 258.085 Q2095.32 260.353 2096.81 261.696 Q2098.31 263.015 2100.88 263.015 Q2104.42 263.015 2106.55 260.515 Q2108.7 257.992 2108.7 253.825 L2108.7 252.876 L2104.47 252.876 M2112.96 251.117 L2112.96 265.909 L2108.7 265.909 L2108.7 261.973 Q2107.25 264.335 2105.07 265.469 Q2102.89 266.58 2099.75 266.58 Q2095.76 266.58 2093.4 264.358 Q2091.06 262.112 2091.06 258.362 Q2091.06 253.987 2093.98 251.765 Q2096.92 249.543 2102.73 249.543 L2108.7 249.543 L2108.7 249.126 Q2108.7 246.187 2106.76 244.589 Q2104.84 242.969 2101.34 242.969 Q2099.12 242.969 2097.01 243.501 Q2094.91 244.034 2092.96 245.099 L2092.96 241.163 Q2095.3 240.261 2097.5 239.821 Q2099.7 239.358 2101.78 239.358 Q2107.41 239.358 2110.18 242.274 Q2112.96 245.191 2112.96 251.117 Z" fill="#000000" fill-rule="nonzero" fill-opacity="1" /><path clip-path="url(#clip630)" d="M2138.8 252.645 Q2138.8 248.015 2136.87 245.469 Q2134.98 242.923 2131.53 242.923 Q2128.1 242.923 2126.18 245.469 Q2124.28 248.015 2124.28 252.645 Q2124.28 257.251 2126.18 259.798 Q2128.1 262.344 2131.53 262.344 Q2134.98 262.344 2136.87 259.798 Q2138.8 257.251 2138.8 252.645 M2143.06 262.691 Q2143.06 269.311 2140.12 272.529 Q2137.18 275.77 2131.11 275.77 Q2128.87 275.77 2126.87 275.422 Q2124.88 275.098 2123.01 274.404 L2123.01 270.26 Q2124.88 271.279 2126.71 271.765 Q2128.54 272.251 2130.44 272.251 Q2134.63 272.251 2136.71 270.052 Q2138.8 267.876 2138.8 263.455 L2138.8 261.348 Q2137.48 263.64 2135.42 264.774 Q2133.36 265.909 2130.49 265.909 Q2125.72 265.909 2122.8 262.274 Q2119.88 258.64 2119.88 252.645 Q2119.88 246.626 2122.8 242.992 Q2125.72 239.358 2130.49 239.358 Q2133.36 239.358 2135.42 240.492 Q2137.48 241.626 2138.8 243.918 L2138.8 239.983 L2143.06 239.983 L2143.06 262.691 Z" fill="#000000" fill-rule="nonzero" fill-opacity="1" /><path clip-path="url(#clip630)" d="M2171.02 262.02 L2171.02 275.77 L2166.74 275.77 L2166.74 239.983 L2171.02 239.983 L2171.02 243.918 Q2172.36 241.603 2174.4 240.492 Q2176.46 239.358 2179.3 239.358 Q2184.03 239.358 2186.97 243.108 Q2189.93 246.858 2189.93 252.969 Q2189.93 259.08 2186.97 262.83 Q2184.03 266.58 2179.3 266.58 Q2176.46 266.58 2174.4 265.469 Q2172.36 264.335 2171.02 262.02 M2185.51 252.969 Q2185.51 248.27 2183.56 245.608 Q2181.64 242.923 2178.26 242.923 Q2174.88 242.923 2172.94 245.608 Q2171.02 248.27 2171.02 252.969 Q2171.02 257.668 2172.94 260.353 Q2174.88 263.015 2178.26 263.015 Q2181.64 263.015 2183.56 260.353 Q2185.51 257.668 2185.51 252.969 Z" fill="#000000" fill-rule="nonzero" fill-opacity="1" /><path clip-path="url(#clip630)" d="M2208.77 252.876 Q2203.61 252.876 2201.62 254.057 Q2199.63 255.237 2199.63 258.085 Q2199.63 260.353 2201.11 261.696 Q2202.61 263.015 2205.18 263.015 Q2208.73 263.015 2210.86 260.515 Q2213.01 257.992 2213.01 253.825 L2213.01 252.876 L2208.77 252.876 M2217.27 251.117 L2217.27 265.909 L2213.01 265.909 L2213.01 261.973 Q2211.55 264.335 2209.37 265.469 Q2207.2 266.58 2204.05 266.58 Q2200.07 266.58 2197.71 264.358 Q2195.37 262.112 2195.37 258.362 Q2195.37 253.987 2198.29 251.765 Q2201.23 249.543 2207.04 249.543 L2213.01 249.543 L2213.01 249.126 Q2213.01 246.187 2211.06 244.589 Q2209.14 242.969 2205.65 242.969 Q2203.43 242.969 2201.32 243.501 Q2199.21 244.034 2197.27 245.099 L2197.27 241.163 Q2199.61 240.261 2201.8 239.821 Q2204 239.358 2206.09 239.358 Q2211.71 239.358 2214.49 242.274 Q2217.27 245.191 2217.27 251.117 Z" fill="#000000" fill-rule="nonzero" fill-opacity="1" /><path clip-path="url(#clip630)" d="M2241.06 243.964 Q2240.35 243.548 2239.49 243.362 Q2238.66 243.154 2237.64 243.154 Q2234.03 243.154 2232.08 245.515 Q2230.16 247.853 2230.16 252.251 L2230.16 265.909 L2225.88 265.909 L2225.88 239.983 L2230.16 239.983 L2230.16 244.011 Q2231.5 241.649 2233.66 240.515 Q2235.81 239.358 2238.89 239.358 Q2239.33 239.358 2239.86 239.427 Q2240.39 239.474 2241.04 239.589 L2241.06 243.964 Z" fill="#000000" fill-rule="nonzero" fill-opacity="1" /><path clip-path="url(#clip630)" d="M2249.74 232.622 L2249.74 239.983 L2258.52 239.983 L2258.52 243.293 L2249.74 243.293 L2249.74 257.367 Q2249.74 260.538 2250.6 261.441 Q2251.48 262.344 2254.14 262.344 L2258.52 262.344 L2258.52 265.909 L2254.14 265.909 Q2249.21 265.909 2247.34 264.08 Q2245.46 262.228 2245.46 257.367 L2245.46 243.293 L2242.34 243.293 L2242.34 239.983 L2245.46 239.983 L2245.46 232.622 L2249.74 232.622 Z" fill="#000000" fill-rule="nonzero" fill-opacity="1" /></svg>
