<?xml version="1.0" encoding="utf-8"?>
<svg xmlns="http://www.w3.org/2000/svg" xmlns:xlink="http://www.w3.org/1999/xlink" width="600" height="400" viewBox="0 0 2400 1600">
<defs>
  <clipPath id="clip710">
    <rect x="0" y="0" width="2400" height="1600"/>
  </clipPath>
</defs>
<path clip-path="url(#clip710)" d="M0 1600 L2400 1600 L2400 0 L0 0  Z" fill="#ffffff" fill-rule="evenodd" fill-opacity="1"/>
<defs>
  <clipPath id="clip711">
    <rect x="368" y="47" width="1985" height="1377"/>
  </clipPath>
</defs>
<path clip-path="url(#clip710)" d="M368.631 1423.18 L2352.76 1423.18 L2352.76 47.2441 L368.631 47.2441  Z" fill="#ffffff" fill-rule="evenodd" fill-opacity="1"/>
<polyline clip-path="url(#clip711)" style="stroke:#000000; stroke-linecap:round; stroke-linejoin:round; stroke-width:2; stroke-opacity:0.1; fill:none" points="424.786,1423.18 424.786,47.2441 "/>
<polyline clip-path="url(#clip711)" style="stroke:#000000; stroke-linecap:round; stroke-linejoin:round; stroke-width:2; stroke-opacity:0.1; fill:none" points="799.149,1423.18 799.149,47.2441 "/>
<polyline clip-path="url(#clip711)" style="stroke:#000000; stroke-linecap:round; stroke-linejoin:round; stroke-width:2; stroke-opacity:0.1; fill:none" points="1173.51,1423.18 1173.51,47.2441 "/>
<polyline clip-path="url(#clip711)" style="stroke:#000000; stroke-linecap:round; stroke-linejoin:round; stroke-width:2; stroke-opacity:0.1; fill:none" points="1547.88,1423.18 1547.88,47.2441 "/>
<polyline clip-path="url(#clip711)" style="stroke:#000000; stroke-linecap:round; stroke-linejoin:round; stroke-width:2; stroke-opacity:0.1; fill:none" points="1922.24,1423.18 1922.24,47.2441 "/>
<polyline clip-path="url(#clip711)" style="stroke:#000000; stroke-linecap:round; stroke-linejoin:round; stroke-width:2; stroke-opacity:0.1; fill:none" points="2296.6,1423.18 2296.6,47.2441 "/>
<polyline clip-path="url(#clip711)" style="stroke:#000000; stroke-linecap:round; stroke-linejoin:round; stroke-width:2; stroke-opacity:0.1; fill:none" points="368.631,1384.24 2352.76,1384.24 "/>
<polyline clip-path="url(#clip711)" style="stroke:#000000; stroke-linecap:round; stroke-linejoin:round; stroke-width:2; stroke-opacity:0.1; fill:none" points="368.631,1144.65 2352.76,1144.65 "/>
<polyline clip-path="url(#clip711)" style="stroke:#000000; stroke-linecap:round; stroke-linejoin:round; stroke-width:2; stroke-opacity:0.1; fill:none" points="368.631,905.052 2352.76,905.052 "/>
<polyline clip-path="url(#clip711)" style="stroke:#000000; stroke-linecap:round; stroke-linejoin:round; stroke-width:2; stroke-opacity:0.1; fill:none" points="368.631,665.459 2352.76,665.459 "/>
<polyline clip-path="url(#clip711)" style="stroke:#000000; stroke-linecap:round; stroke-linejoin:round; stroke-width:2; stroke-opacity:0.1; fill:none" points="368.631,425.866 2352.76,425.866 "/>
<polyline clip-path="url(#clip711)" style="stroke:#000000; stroke-linecap:round; stroke-linejoin:round; stroke-width:2; stroke-opacity:0.1; fill:none" points="368.631,186.273 2352.76,186.273 "/>
<polyline clip-path="url(#clip710)" style="stroke:#000000; stroke-linecap:round; stroke-linejoin:round; stroke-width:4; stroke-opacity:1; fill:none" points="368.631,1423.18 2352.76,1423.18 "/>
<polyline clip-path="url(#clip710)" style="stroke:#000000; stroke-linecap:round; stroke-linejoin:round; stroke-width:4; stroke-opacity:1; fill:none" points="424.786,1423.18 424.786,1404.28 "/>
<polyline clip-path="url(#clip710)" style="stroke:#000000; stroke-linecap:round; stroke-linejoin:round; stroke-width:4; stroke-opacity:1; fill:none" points="799.149,1423.18 799.149,1404.28 "/>
<polyline clip-path="url(#clip710)" style="stroke:#000000; stroke-linecap:round; stroke-linejoin:round; stroke-width:4; stroke-opacity:1; fill:none" points="1173.51,1423.18 1173.51,1404.28 "/>
<polyline clip-path="url(#clip710)" style="stroke:#000000; stroke-linecap:round; stroke-linejoin:round; stroke-width:4; stroke-opacity:1; fill:none" points="1547.88,1423.18 1547.88,1404.28 "/>
<polyline clip-path="url(#clip710)" style="stroke:#000000; stroke-linecap:round; stroke-linejoin:round; stroke-width:4; stroke-opacity:1; fill:none" points="1922.24,1423.18 1922.24,1404.28 "/>
<polyline clip-path="url(#clip710)" style="stroke:#000000; stroke-linecap:round; stroke-linejoin:round; stroke-width:4; stroke-opacity:1; fill:none" points="2296.6,1423.18 2296.6,1404.28 "/>
<path clip-path="url(#clip710)" d="M424.786 1454.1 Q421.175 1454.1 419.346 1457.66 Q417.541 1461.2 417.541 1468.33 Q417.541 1475.44 419.346 1479.01 Q421.175 1482.55 424.786 1482.55 Q428.42 1482.55 430.226 1479.01 Q432.054 1475.44 432.054 1468.33 Q432.054 1461.2 430.226 1457.66 Q428.42 1454.1 424.786 1454.1 M424.786 1450.39 Q430.596 1450.39 433.652 1455 Q436.73 1459.58 436.73 1468.33 Q436.73 1477.06 433.652 1481.67 Q430.596 1486.25 424.786 1486.25 Q418.976 1486.25 415.897 1481.67 Q412.841 1477.06 412.841 1468.33 Q412.841 1459.58 415.897 1455 Q418.976 1450.39 424.786 1450.39 Z" fill="#000000" fill-rule="nonzero" fill-opacity="1" /><path clip-path="url(#clip710)" d="M773.837 1481.64 L781.475 1481.64 L781.475 1455.28 L773.165 1456.95 L773.165 1452.69 L781.429 1451.02 L786.105 1451.02 L786.105 1481.64 L793.744 1481.64 L793.744 1485.58 L773.837 1485.58 L773.837 1481.64 Z" fill="#000000" fill-rule="nonzero" fill-opacity="1" /><path clip-path="url(#clip710)" d="M813.188 1454.1 Q809.577 1454.1 807.748 1457.66 Q805.943 1461.2 805.943 1468.33 Q805.943 1475.44 807.748 1479.01 Q809.577 1482.55 813.188 1482.55 Q816.822 1482.55 818.628 1479.01 Q820.457 1475.44 820.457 1468.33 Q820.457 1461.2 818.628 1457.66 Q816.822 1454.1 813.188 1454.1 M813.188 1450.39 Q818.998 1450.39 822.054 1455 Q825.133 1459.58 825.133 1468.33 Q825.133 1477.06 822.054 1481.67 Q818.998 1486.25 813.188 1486.25 Q807.378 1486.25 804.299 1481.67 Q801.244 1477.06 801.244 1468.33 Q801.244 1459.58 804.299 1455 Q807.378 1450.39 813.188 1450.39 Z" fill="#000000" fill-rule="nonzero" fill-opacity="1" /><path clip-path="url(#clip710)" d="M1152.29 1481.64 L1168.6 1481.64 L1168.6 1485.58 L1146.66 1485.58 L1146.66 1481.64 Q1149.32 1478.89 1153.91 1474.26 Q1158.51 1469.61 1159.69 1468.27 Q1161.94 1465.74 1162.82 1464.01 Q1163.72 1462.25 1163.72 1460.56 Q1163.72 1457.8 1161.78 1456.07 Q1159.85 1454.33 1156.75 1454.33 Q1154.55 1454.33 1152.1 1455.09 Q1149.67 1455.86 1146.89 1457.41 L1146.89 1452.69 Q1149.72 1451.55 1152.17 1450.97 Q1154.62 1450.39 1156.66 1450.39 Q1162.03 1450.39 1165.23 1453.08 Q1168.42 1455.77 1168.42 1460.26 Q1168.42 1462.39 1167.61 1464.31 Q1166.82 1466.2 1164.72 1468.8 Q1164.14 1469.47 1161.04 1472.69 Q1157.93 1475.88 1152.29 1481.64 Z" fill="#000000" fill-rule="nonzero" fill-opacity="1" /><path clip-path="url(#clip710)" d="M1188.42 1454.1 Q1184.81 1454.1 1182.98 1457.66 Q1181.17 1461.2 1181.17 1468.33 Q1181.17 1475.44 1182.98 1479.01 Q1184.81 1482.55 1188.42 1482.55 Q1192.05 1482.55 1193.86 1479.01 Q1195.69 1475.44 1195.69 1468.33 Q1195.69 1461.2 1193.86 1457.66 Q1192.05 1454.1 1188.42 1454.1 M1188.42 1450.39 Q1194.23 1450.39 1197.29 1455 Q1200.36 1459.58 1200.36 1468.33 Q1200.36 1477.06 1197.29 1481.67 Q1194.23 1486.25 1188.42 1486.25 Q1182.61 1486.25 1179.53 1481.67 Q1176.48 1477.06 1176.48 1468.33 Q1176.48 1459.58 1179.53 1455 Q1182.61 1450.39 1188.42 1450.39 Z" fill="#000000" fill-rule="nonzero" fill-opacity="1" /><path clip-path="url(#clip710)" d="M1536.72 1466.95 Q1540.07 1467.66 1541.95 1469.93 Q1543.85 1472.2 1543.85 1475.53 Q1543.85 1480.65 1540.33 1483.45 Q1536.81 1486.25 1530.33 1486.25 Q1528.15 1486.25 1525.84 1485.81 Q1523.55 1485.39 1521.09 1484.54 L1521.09 1480.02 Q1523.04 1481.16 1525.35 1481.74 Q1527.67 1482.32 1530.19 1482.32 Q1534.59 1482.32 1536.88 1480.58 Q1539.19 1478.84 1539.19 1475.53 Q1539.19 1472.48 1537.04 1470.77 Q1534.91 1469.03 1531.09 1469.03 L1527.07 1469.03 L1527.07 1465.19 L1531.28 1465.19 Q1534.73 1465.19 1536.56 1463.82 Q1538.38 1462.43 1538.38 1459.84 Q1538.38 1457.18 1536.49 1455.77 Q1534.61 1454.33 1531.09 1454.33 Q1529.17 1454.33 1526.97 1454.75 Q1524.77 1455.16 1522.13 1456.04 L1522.13 1451.88 Q1524.8 1451.14 1527.11 1450.77 Q1529.45 1450.39 1531.51 1450.39 Q1536.83 1450.39 1539.94 1452.83 Q1543.04 1455.23 1543.04 1459.35 Q1543.04 1462.22 1541.39 1464.21 Q1539.75 1466.18 1536.72 1466.95 Z" fill="#000000" fill-rule="nonzero" fill-opacity="1" /><path clip-path="url(#clip710)" d="M1562.71 1454.1 Q1559.1 1454.1 1557.27 1457.66 Q1555.47 1461.2 1555.47 1468.33 Q1555.47 1475.44 1557.27 1479.01 Q1559.1 1482.55 1562.71 1482.55 Q1566.35 1482.55 1568.15 1479.01 Q1569.98 1475.44 1569.98 1468.33 Q1569.98 1461.2 1568.15 1457.66 Q1566.35 1454.1 1562.71 1454.1 M1562.71 1450.39 Q1568.52 1450.39 1571.58 1455 Q1574.66 1459.58 1574.66 1468.33 Q1574.66 1477.06 1571.58 1481.67 Q1568.52 1486.25 1562.71 1486.25 Q1556.9 1486.25 1553.82 1481.67 Q1550.77 1477.06 1550.77 1468.33 Q1550.77 1459.58 1553.82 1455 Q1556.9 1450.39 1562.71 1450.39 Z" fill="#000000" fill-rule="nonzero" fill-opacity="1" /><path clip-path="url(#clip710)" d="M1910.41 1455.09 L1898.6 1473.54 L1910.41 1473.54 L1910.41 1455.09 M1909.18 1451.02 L1915.06 1451.02 L1915.06 1473.54 L1919.99 1473.54 L1919.99 1477.43 L1915.06 1477.43 L1915.06 1485.58 L1910.41 1485.58 L1910.41 1477.43 L1894.81 1477.43 L1894.81 1472.92 L1909.18 1451.02 Z" fill="#000000" fill-rule="nonzero" fill-opacity="1" /><path clip-path="url(#clip710)" d="M1937.72 1454.1 Q1934.11 1454.1 1932.28 1457.66 Q1930.48 1461.2 1930.48 1468.33 Q1930.48 1475.44 1932.28 1479.01 Q1934.11 1482.55 1937.72 1482.55 Q1941.36 1482.55 1943.16 1479.01 Q1944.99 1475.44 1944.99 1468.33 Q1944.99 1461.2 1943.16 1457.66 Q1941.36 1454.1 1937.72 1454.1 M1937.72 1450.39 Q1943.53 1450.39 1946.59 1455 Q1949.67 1459.58 1949.67 1468.33 Q1949.67 1477.06 1946.59 1481.67 Q1943.53 1486.25 1937.72 1486.25 Q1931.91 1486.25 1928.84 1481.67 Q1925.78 1477.06 1925.78 1468.33 Q1925.78 1459.58 1928.84 1455 Q1931.91 1450.39 1937.72 1450.39 Z" fill="#000000" fill-rule="nonzero" fill-opacity="1" /><path clip-path="url(#clip710)" d="M2271.3 1451.02 L2289.66 1451.02 L2289.66 1454.96 L2275.58 1454.96 L2275.58 1463.43 Q2276.6 1463.08 2277.62 1462.92 Q2278.64 1462.73 2279.66 1462.73 Q2285.44 1462.73 2288.82 1465.9 Q2292.2 1469.08 2292.2 1474.49 Q2292.2 1480.07 2288.73 1483.17 Q2285.26 1486.25 2278.94 1486.25 Q2276.76 1486.25 2274.5 1485.88 Q2272.25 1485.51 2269.84 1484.77 L2269.84 1480.07 Q2271.93 1481.2 2274.15 1481.76 Q2276.37 1482.32 2278.85 1482.32 Q2282.85 1482.32 2285.19 1480.21 Q2287.53 1478.1 2287.53 1474.49 Q2287.53 1470.88 2285.19 1468.77 Q2282.85 1466.67 2278.85 1466.67 Q2276.97 1466.67 2275.1 1467.08 Q2273.25 1467.5 2271.3 1468.38 L2271.3 1451.02 Z" fill="#000000" fill-rule="nonzero" fill-opacity="1" /><path clip-path="url(#clip710)" d="M2311.42 1454.1 Q2307.81 1454.1 2305.98 1457.66 Q2304.17 1461.2 2304.17 1468.33 Q2304.17 1475.44 2305.98 1479.01 Q2307.81 1482.55 2311.42 1482.55 Q2315.05 1482.55 2316.86 1479.01 Q2318.68 1475.44 2318.68 1468.33 Q2318.68 1461.2 2316.86 1457.66 Q2315.05 1454.1 2311.42 1454.1 M2311.42 1450.39 Q2317.23 1450.39 2320.28 1455 Q2323.36 1459.58 2323.36 1468.33 Q2323.36 1477.06 2320.28 1481.67 Q2317.23 1486.25 2311.42 1486.25 Q2305.61 1486.25 2302.53 1481.67 Q2299.47 1477.06 2299.47 1468.33 Q2299.47 1459.58 2302.53 1455 Q2305.61 1450.39 2311.42 1450.39 Z" fill="#000000" fill-rule="nonzero" fill-opacity="1" /><path clip-path="url(#clip710)" d="M1196.94 1532.4 L1202.79 1532.4 L1202.79 1568.04 L1196.94 1568.04 L1196.94 1532.4 M1196.94 1518.52 L1202.79 1518.52 L1202.79 1525.93 L1196.94 1525.93 L1196.94 1518.52 Z" fill="#000000" fill-rule="nonzero" fill-opacity="1" /><path clip-path="url(#clip710)" d="M1220.84 1522.27 L1220.84 1532.4 L1232.9 1532.4 L1232.9 1536.95 L1220.84 1536.95 L1220.84 1556.3 Q1220.84 1560.66 1222.02 1561.9 Q1223.23 1563.14 1226.89 1563.14 L1232.9 1563.14 L1232.9 1568.04 L1226.89 1568.04 Q1220.11 1568.04 1217.53 1565.53 Q1214.95 1562.98 1214.95 1556.3 L1214.95 1536.95 L1210.65 1536.95 L1210.65 1532.4 L1214.95 1532.4 L1214.95 1522.27 L1220.84 1522.27 Z" fill="#000000" fill-rule="nonzero" fill-opacity="1" /><path clip-path="url(#clip710)" d="M1271.1 1548.76 L1271.1 1551.62 L1244.17 1551.62 Q1244.55 1557.67 1247.8 1560.85 Q1251.08 1564 1256.9 1564 Q1260.27 1564 1263.43 1563.17 Q1266.61 1562.35 1269.73 1560.69 L1269.73 1566.23 Q1266.58 1567.57 1263.27 1568.27 Q1259.96 1568.97 1256.55 1568.97 Q1248.02 1568.97 1243.02 1564 Q1238.06 1559.04 1238.06 1550.57 Q1238.06 1541.82 1242.77 1536.69 Q1247.51 1531.54 1255.53 1531.54 Q1262.73 1531.54 1266.89 1536.18 Q1271.1 1540.8 1271.1 1548.76 M1265.24 1547.04 Q1265.18 1542.23 1262.53 1539.37 Q1259.92 1536.5 1255.6 1536.5 Q1250.69 1536.5 1247.73 1539.27 Q1244.81 1542.04 1244.36 1547.07 L1265.24 1547.04 Z" fill="#000000" fill-rule="nonzero" fill-opacity="1" /><path clip-path="url(#clip710)" d="M1301.37 1537.87 Q1300.38 1537.3 1299.2 1537.04 Q1298.06 1536.76 1296.65 1536.76 Q1291.69 1536.76 1289.02 1540 Q1286.37 1543.22 1286.37 1549.27 L1286.37 1568.04 L1280.49 1568.04 L1280.49 1532.4 L1286.37 1532.4 L1286.37 1537.93 Q1288.22 1534.69 1291.18 1533.13 Q1294.14 1531.54 1298.37 1531.54 Q1298.98 1531.54 1299.71 1531.63 Q1300.44 1531.7 1301.33 1531.85 L1301.37 1537.87 Z" fill="#000000" fill-rule="nonzero" fill-opacity="1" /><path clip-path="url(#clip710)" d="M1323.71 1550.12 Q1316.61 1550.12 1313.87 1551.75 Q1311.14 1553.37 1311.14 1557.29 Q1311.14 1560.4 1313.17 1562.25 Q1315.24 1564.07 1318.78 1564.07 Q1323.65 1564.07 1326.57 1560.63 Q1329.53 1557.16 1329.53 1551.43 L1329.53 1550.12 L1323.71 1550.12 M1335.39 1547.71 L1335.39 1568.04 L1329.53 1568.04 L1329.53 1562.63 Q1327.53 1565.88 1324.54 1567.44 Q1321.54 1568.97 1317.22 1568.97 Q1311.74 1568.97 1308.49 1565.91 Q1305.28 1562.82 1305.28 1557.67 Q1305.28 1551.65 1309.29 1548.6 Q1313.33 1545.54 1321.32 1545.54 L1329.53 1545.54 L1329.53 1544.97 Q1329.53 1540.93 1326.86 1538.73 Q1324.22 1536.5 1319.41 1536.5 Q1316.36 1536.5 1313.46 1537.23 Q1310.56 1537.97 1307.89 1539.43 L1307.89 1534.02 Q1311.1 1532.78 1314.13 1532.17 Q1317.15 1531.54 1320.02 1531.54 Q1327.75 1531.54 1331.57 1535.55 Q1335.39 1539.56 1335.39 1547.71 Z" fill="#000000" fill-rule="nonzero" fill-opacity="1" /><path clip-path="url(#clip710)" d="M1353.25 1522.27 L1353.25 1532.4 L1365.31 1532.4 L1365.31 1536.95 L1353.25 1536.95 L1353.25 1556.3 Q1353.25 1560.66 1354.42 1561.9 Q1355.63 1563.14 1359.29 1563.14 L1365.31 1563.14 L1365.31 1568.04 L1359.29 1568.04 Q1352.51 1568.04 1349.94 1565.53 Q1347.36 1562.98 1347.36 1556.3 L1347.36 1536.95 L1343.06 1536.95 L1343.06 1532.4 L1347.36 1532.4 L1347.36 1522.27 L1353.25 1522.27 Z" fill="#000000" fill-rule="nonzero" fill-opacity="1" /><path clip-path="url(#clip710)" d="M1373.01 1532.4 L1378.87 1532.4 L1378.87 1568.04 L1373.01 1568.04 L1373.01 1532.4 M1373.01 1518.52 L1378.87 1518.52 L1378.87 1525.93 L1373.01 1525.93 L1373.01 1518.52 Z" fill="#000000" fill-rule="nonzero" fill-opacity="1" /><path clip-path="url(#clip710)" d="M1404.94 1536.5 Q1400.22 1536.5 1397.49 1540.19 Q1394.75 1543.85 1394.75 1550.25 Q1394.75 1556.65 1397.46 1560.34 Q1400.19 1564 1404.94 1564 Q1409.61 1564 1412.35 1560.31 Q1415.09 1556.62 1415.09 1550.25 Q1415.09 1543.92 1412.35 1540.23 Q1409.61 1536.5 1404.94 1536.5 M1404.94 1531.54 Q1412.57 1531.54 1416.93 1536.5 Q1421.3 1541.47 1421.3 1550.25 Q1421.3 1559 1416.93 1564 Q1412.57 1568.97 1404.94 1568.97 Q1397.26 1568.97 1392.9 1564 Q1388.58 1559 1388.58 1550.25 Q1388.58 1541.47 1392.9 1536.5 Q1397.26 1531.54 1404.94 1531.54 Z" fill="#000000" fill-rule="nonzero" fill-opacity="1" /><path clip-path="url(#clip710)" d="M1460.64 1546.53 L1460.64 1568.04 L1454.78 1568.04 L1454.78 1546.72 Q1454.78 1541.66 1452.81 1539.14 Q1450.83 1536.63 1446.89 1536.63 Q1442.14 1536.63 1439.41 1539.65 Q1436.67 1542.68 1436.67 1547.9 L1436.67 1568.04 L1430.78 1568.04 L1430.78 1532.4 L1436.67 1532.4 L1436.67 1537.93 Q1438.77 1534.72 1441.6 1533.13 Q1444.47 1531.54 1448.19 1531.54 Q1454.33 1531.54 1457.48 1535.36 Q1460.64 1539.14 1460.64 1546.53 Z" fill="#000000" fill-rule="nonzero" fill-opacity="1" /><path clip-path="url(#clip710)" d="M1492.81 1518.52 L1498.7 1518.52 L1498.7 1547.77 L1516.18 1532.4 L1523.66 1532.4 L1504.75 1549.07 L1524.45 1568.04 L1516.81 1568.04 L1498.7 1550.63 L1498.7 1568.04 L1492.81 1568.04 L1492.81 1518.52 Z" fill="#000000" fill-rule="nonzero" fill-opacity="1" /><polyline clip-path="url(#clip710)" style="stroke:#000000; stroke-linecap:round; stroke-linejoin:round; stroke-width:4; stroke-opacity:1; fill:none" points="368.631,1423.18 368.631,47.2441 "/>
<polyline clip-path="url(#clip710)" style="stroke:#000000; stroke-linecap:round; stroke-linejoin:round; stroke-width:4; stroke-opacity:1; fill:none" points="368.631,1384.24 387.529,1384.24 "/>
<polyline clip-path="url(#clip710)" style="stroke:#000000; stroke-linecap:round; stroke-linejoin:round; stroke-width:4; stroke-opacity:1; fill:none" points="368.631,1144.65 387.529,1144.65 "/>
<polyline clip-path="url(#clip710)" style="stroke:#000000; stroke-linecap:round; stroke-linejoin:round; stroke-width:4; stroke-opacity:1; fill:none" points="368.631,905.052 387.529,905.052 "/>
<polyline clip-path="url(#clip710)" style="stroke:#000000; stroke-linecap:round; stroke-linejoin:round; stroke-width:4; stroke-opacity:1; fill:none" points="368.631,665.459 387.529,665.459 "/>
<polyline clip-path="url(#clip710)" style="stroke:#000000; stroke-linecap:round; stroke-linejoin:round; stroke-width:4; stroke-opacity:1; fill:none" points="368.631,425.866 387.529,425.866 "/>
<polyline clip-path="url(#clip710)" style="stroke:#000000; stroke-linecap:round; stroke-linejoin:round; stroke-width:4; stroke-opacity:1; fill:none" points="368.631,186.273 387.529,186.273 "/>
<path clip-path="url(#clip710)" d="M320.687 1370.04 Q317.076 1370.04 315.247 1373.6 Q313.442 1377.14 313.442 1384.27 Q313.442 1391.38 315.247 1394.94 Q317.076 1398.49 320.687 1398.49 Q324.321 1398.49 326.127 1394.94 Q327.955 1391.38 327.955 1384.27 Q327.955 1377.14 326.127 1373.6 Q324.321 1370.04 320.687 1370.04 M320.687 1366.33 Q326.497 1366.33 329.553 1370.94 Q332.631 1375.52 332.631 1384.27 Q332.631 1393 329.553 1397.61 Q326.497 1402.19 320.687 1402.19 Q314.877 1402.19 311.798 1397.61 Q308.743 1393 308.743 1384.27 Q308.743 1375.52 311.798 1370.94 Q314.877 1366.33 320.687 1366.33 Z" fill="#000000" fill-rule="nonzero" fill-opacity="1" /><path clip-path="url(#clip710)" d="M117.126 1133.81 L135.483 1133.81 L135.483 1137.75 L121.409 1137.75 L121.409 1146.22 Q122.427 1145.87 123.446 1145.71 Q124.464 1145.53 125.483 1145.53 Q131.27 1145.53 134.649 1148.7 Q138.029 1151.87 138.029 1157.28 Q138.029 1162.86 134.557 1165.97 Q131.084 1169.04 124.765 1169.04 Q122.589 1169.04 120.321 1168.67 Q118.075 1168.3 115.668 1167.56 L115.668 1162.86 Q117.751 1164 119.973 1164.55 Q122.196 1165.11 124.672 1165.11 Q128.677 1165.11 131.015 1163 Q133.353 1160.9 133.353 1157.28 Q133.353 1153.67 131.015 1151.57 Q128.677 1149.46 124.672 1149.46 Q122.797 1149.46 120.922 1149.88 Q119.071 1150.29 117.126 1151.17 L117.126 1133.81 Z" fill="#000000" fill-rule="nonzero" fill-opacity="1" /><path clip-path="url(#clip710)" d="M147.242 1162.49 L152.126 1162.49 L152.126 1168.37 L147.242 1168.37 L147.242 1162.49 Z" fill="#000000" fill-rule="nonzero" fill-opacity="1" /><path clip-path="url(#clip710)" d="M172.311 1136.89 Q168.7 1136.89 166.871 1140.46 Q165.066 1144 165.066 1151.13 Q165.066 1158.23 166.871 1161.8 Q168.7 1165.34 172.311 1165.34 Q175.945 1165.34 177.751 1161.8 Q179.58 1158.23 179.58 1151.13 Q179.58 1144 177.751 1140.46 Q175.945 1136.89 172.311 1136.89 M172.311 1133.19 Q178.121 1133.19 181.177 1137.79 Q184.255 1142.38 184.255 1151.13 Q184.255 1159.85 181.177 1164.46 Q178.121 1169.04 172.311 1169.04 Q166.501 1169.04 163.422 1164.46 Q160.367 1159.85 160.367 1151.13 Q160.367 1142.38 163.422 1137.79 Q166.501 1133.19 172.311 1133.19 Z" fill="#000000" fill-rule="nonzero" fill-opacity="1" /><path clip-path="url(#clip710)" d="M202.473 1136.89 Q198.862 1136.89 197.033 1140.46 Q195.228 1144 195.228 1151.13 Q195.228 1158.23 197.033 1161.8 Q198.862 1165.34 202.473 1165.34 Q206.107 1165.34 207.913 1161.8 Q209.741 1158.23 209.741 1151.13 Q209.741 1144 207.913 1140.46 Q206.107 1136.89 202.473 1136.89 M202.473 1133.19 Q208.283 1133.19 211.339 1137.79 Q214.417 1142.38 214.417 1151.13 Q214.417 1159.85 211.339 1164.46 Q208.283 1169.04 202.473 1169.04 Q196.663 1169.04 193.584 1164.46 Q190.529 1159.85 190.529 1151.13 Q190.529 1142.38 193.584 1137.79 Q196.663 1133.19 202.473 1133.19 Z" fill="#000000" fill-rule="nonzero" fill-opacity="1" /><path clip-path="url(#clip710)" d="M250.806 1142.91 L240.227 1153.53 L250.806 1164.11 L248.051 1166.91 L237.426 1156.29 L226.802 1166.91 L224.07 1164.11 L234.626 1153.53 L224.07 1142.91 L226.802 1140.11 L237.426 1150.73 L248.051 1140.11 L250.806 1142.91 Z" fill="#000000" fill-rule="nonzero" fill-opacity="1" /><path clip-path="url(#clip710)" d="M263.167 1164.44 L270.806 1164.44 L270.806 1138.07 L262.496 1139.74 L262.496 1135.48 L270.76 1133.81 L275.436 1133.81 L275.436 1164.44 L283.074 1164.44 L283.074 1168.37 L263.167 1168.37 L263.167 1164.44 Z" fill="#000000" fill-rule="nonzero" fill-opacity="1" /><path clip-path="url(#clip710)" d="M302.519 1136.89 Q298.908 1136.89 297.079 1140.46 Q295.273 1144 295.273 1151.13 Q295.273 1158.23 297.079 1161.8 Q298.908 1165.34 302.519 1165.34 Q306.153 1165.34 307.958 1161.8 Q309.787 1158.23 309.787 1151.13 Q309.787 1144 307.958 1140.46 Q306.153 1136.89 302.519 1136.89 M302.519 1133.19 Q308.329 1133.19 311.384 1137.79 Q314.463 1142.38 314.463 1151.13 Q314.463 1159.85 311.384 1164.46 Q308.329 1169.04 302.519 1169.04 Q296.709 1169.04 293.63 1164.46 Q290.574 1159.85 290.574 1151.13 Q290.574 1142.38 293.63 1137.79 Q296.709 1133.19 302.519 1133.19 Z" fill="#000000" fill-rule="nonzero" fill-opacity="1" /><path clip-path="url(#clip710)" d="M315.648 1112.88 L330.563 1112.88 L330.563 1116.08 L319.127 1116.08 L319.127 1122.96 Q319.955 1122.68 320.782 1122.55 Q321.61 1122.4 322.438 1122.4 Q327.14 1122.4 329.885 1124.98 Q332.631 1127.55 332.631 1131.95 Q332.631 1136.49 329.81 1139.01 Q326.989 1141.51 321.855 1141.51 Q320.087 1141.51 318.243 1141.21 Q316.419 1140.91 314.463 1140.3 L314.463 1136.49 Q316.156 1137.41 317.961 1137.86 Q319.767 1138.31 321.779 1138.31 Q325.033 1138.31 326.933 1136.6 Q328.832 1134.89 328.832 1131.95 Q328.832 1129.02 326.933 1127.31 Q325.033 1125.6 321.779 1125.6 Q320.256 1125.6 318.732 1125.94 Q317.228 1126.27 315.648 1126.99 L315.648 1112.88 Z" fill="#000000" fill-rule="nonzero" fill-opacity="1" /><path clip-path="url(#clip710)" d="M116.668 924.845 L124.306 924.845 L124.306 898.479 L115.996 900.146 L115.996 895.887 L124.26 894.22 L128.936 894.22 L128.936 924.845 L136.575 924.845 L136.575 928.78 L116.668 928.78 L116.668 924.845 Z" fill="#000000" fill-rule="nonzero" fill-opacity="1" /><path clip-path="url(#clip710)" d="M146.019 922.9 L150.903 922.9 L150.903 928.78 L146.019 928.78 L146.019 922.9 Z" fill="#000000" fill-rule="nonzero" fill-opacity="1" /><path clip-path="url(#clip710)" d="M171.089 897.299 Q167.477 897.299 165.649 900.863 Q163.843 904.405 163.843 911.535 Q163.843 918.641 165.649 922.206 Q167.477 925.748 171.089 925.748 Q174.723 925.748 176.528 922.206 Q178.357 918.641 178.357 911.535 Q178.357 904.405 176.528 900.863 Q174.723 897.299 171.089 897.299 M171.089 893.595 Q176.899 893.595 179.954 898.201 Q183.033 902.785 183.033 911.535 Q183.033 920.261 179.954 924.868 Q176.899 929.451 171.089 929.451 Q165.278 929.451 162.2 924.868 Q159.144 920.261 159.144 911.535 Q159.144 902.785 162.2 898.201 Q165.278 893.595 171.089 893.595 Z" fill="#000000" fill-rule="nonzero" fill-opacity="1" /><path clip-path="url(#clip710)" d="M201.25 897.299 Q197.639 897.299 195.811 900.863 Q194.005 904.405 194.005 911.535 Q194.005 918.641 195.811 922.206 Q197.639 925.748 201.25 925.748 Q204.885 925.748 206.69 922.206 Q208.519 918.641 208.519 911.535 Q208.519 904.405 206.69 900.863 Q204.885 897.299 201.25 897.299 M201.25 893.595 Q207.061 893.595 210.116 898.201 Q213.195 902.785 213.195 911.535 Q213.195 920.261 210.116 924.868 Q207.061 929.451 201.25 929.451 Q195.44 929.451 192.362 924.868 Q189.306 920.261 189.306 911.535 Q189.306 902.785 192.362 898.201 Q195.44 893.595 201.25 893.595 Z" fill="#000000" fill-rule="nonzero" fill-opacity="1" /><path clip-path="url(#clip710)" d="M249.584 903.317 L239.005 913.942 L249.584 924.521 L246.829 927.322 L236.204 916.697 L225.579 927.322 L222.848 924.521 L233.403 913.942 L222.848 903.317 L225.579 900.516 L236.204 911.141 L246.829 900.516 L249.584 903.317 Z" fill="#000000" fill-rule="nonzero" fill-opacity="1" /><path clip-path="url(#clip710)" d="M261.945 924.845 L269.583 924.845 L269.583 898.479 L261.273 900.146 L261.273 895.887 L269.537 894.22 L274.213 894.22 L274.213 924.845 L281.852 924.845 L281.852 928.78 L261.945 928.78 L261.945 924.845 Z" fill="#000000" fill-rule="nonzero" fill-opacity="1" /><path clip-path="url(#clip710)" d="M301.296 897.299 Q297.685 897.299 295.856 900.863 Q294.051 904.405 294.051 911.535 Q294.051 918.641 295.856 922.206 Q297.685 925.748 301.296 925.748 Q304.93 925.748 306.736 922.206 Q308.565 918.641 308.565 911.535 Q308.565 904.405 306.736 900.863 Q304.93 897.299 301.296 897.299 M301.296 893.595 Q307.106 893.595 310.162 898.201 Q313.241 902.785 313.241 911.535 Q313.241 920.261 310.162 924.868 Q307.106 929.451 301.296 929.451 Q295.486 929.451 292.407 924.868 Q289.352 920.261 289.352 911.535 Q289.352 902.785 292.407 898.201 Q295.486 893.595 301.296 893.595 Z" fill="#000000" fill-rule="nonzero" fill-opacity="1" /><path clip-path="url(#clip710)" d="M323.265 885.815 Q320.707 885.815 319.203 887.565 Q317.717 889.314 317.717 892.361 Q317.717 895.389 319.203 897.157 Q320.707 898.906 323.265 898.906 Q325.823 898.906 327.309 897.157 Q328.813 895.389 328.813 892.361 Q328.813 889.314 327.309 887.565 Q325.823 885.815 323.265 885.815 M330.807 873.91 L330.807 877.371 Q329.378 876.694 327.911 876.336 Q326.462 875.979 325.033 875.979 Q321.271 875.979 319.278 878.518 Q317.303 881.057 317.021 886.192 Q318.131 884.555 319.804 883.69 Q321.478 882.806 323.491 882.806 Q327.723 882.806 330.168 885.383 Q332.631 887.941 332.631 892.361 Q332.631 896.686 330.074 899.301 Q327.516 901.915 323.265 901.915 Q318.394 901.915 315.817 898.191 Q313.241 894.448 313.241 887.358 Q313.241 880.7 316.4 876.75 Q319.56 872.782 324.883 872.782 Q326.312 872.782 327.76 873.064 Q329.227 873.346 330.807 873.91 Z" fill="#000000" fill-rule="nonzero" fill-opacity="1" /><path clip-path="url(#clip710)" d="M116.668 685.252 L124.306 685.252 L124.306 658.886 L115.996 660.553 L115.996 656.294 L124.26 654.627 L128.936 654.627 L128.936 685.252 L136.575 685.252 L136.575 689.187 L116.668 689.187 L116.668 685.252 Z" fill="#000000" fill-rule="nonzero" fill-opacity="1" /><path clip-path="url(#clip710)" d="M146.019 683.307 L150.903 683.307 L150.903 689.187 L146.019 689.187 L146.019 683.307 Z" fill="#000000" fill-rule="nonzero" fill-opacity="1" /><path clip-path="url(#clip710)" d="M161.135 654.627 L179.491 654.627 L179.491 658.562 L165.417 658.562 L165.417 667.034 Q166.436 666.687 167.454 666.525 Q168.473 666.34 169.491 666.34 Q175.278 666.34 178.658 669.511 Q182.038 672.682 182.038 678.099 Q182.038 683.678 178.565 686.78 Q175.093 689.858 168.774 689.858 Q166.598 689.858 164.329 689.488 Q162.084 689.117 159.677 688.377 L159.677 683.678 Q161.76 684.812 163.982 685.367 Q166.204 685.923 168.681 685.923 Q172.686 685.923 175.024 683.817 Q177.362 681.71 177.362 678.099 Q177.362 674.488 175.024 672.381 Q172.686 670.275 168.681 670.275 Q166.806 670.275 164.931 670.692 Q163.079 671.108 161.135 671.988 L161.135 654.627 Z" fill="#000000" fill-rule="nonzero" fill-opacity="1" /><path clip-path="url(#clip710)" d="M201.25 657.706 Q197.639 657.706 195.811 661.27 Q194.005 664.812 194.005 671.942 Q194.005 679.048 195.811 682.613 Q197.639 686.155 201.25 686.155 Q204.885 686.155 206.69 682.613 Q208.519 679.048 208.519 671.942 Q208.519 664.812 206.69 661.27 Q204.885 657.706 201.25 657.706 M201.25 654.002 Q207.061 654.002 210.116 658.608 Q213.195 663.192 213.195 671.942 Q213.195 680.668 210.116 685.275 Q207.061 689.858 201.25 689.858 Q195.44 689.858 192.362 685.275 Q189.306 680.668 189.306 671.942 Q189.306 663.192 192.362 658.608 Q195.44 654.002 201.25 654.002 Z" fill="#000000" fill-rule="nonzero" fill-opacity="1" /><path clip-path="url(#clip710)" d="M249.584 663.724 L239.005 674.349 L249.584 684.928 L246.829 687.729 L236.204 677.104 L225.579 687.729 L222.848 684.928 L233.403 674.349 L222.848 663.724 L225.579 660.923 L236.204 671.548 L246.829 660.923 L249.584 663.724 Z" fill="#000000" fill-rule="nonzero" fill-opacity="1" /><path clip-path="url(#clip710)" d="M261.945 685.252 L269.583 685.252 L269.583 658.886 L261.273 660.553 L261.273 656.294 L269.537 654.627 L274.213 654.627 L274.213 685.252 L281.852 685.252 L281.852 689.187 L261.945 689.187 L261.945 685.252 Z" fill="#000000" fill-rule="nonzero" fill-opacity="1" /><path clip-path="url(#clip710)" d="M301.296 657.706 Q297.685 657.706 295.856 661.27 Q294.051 664.812 294.051 671.942 Q294.051 679.048 295.856 682.613 Q297.685 686.155 301.296 686.155 Q304.93 686.155 306.736 682.613 Q308.565 679.048 308.565 671.942 Q308.565 664.812 306.736 661.27 Q304.93 657.706 301.296 657.706 M301.296 654.002 Q307.106 654.002 310.162 658.608 Q313.241 663.192 313.241 671.942 Q313.241 680.668 310.162 685.275 Q307.106 689.858 301.296 689.858 Q295.486 689.858 292.407 685.275 Q289.352 680.668 289.352 671.942 Q289.352 663.192 292.407 658.608 Q295.486 654.002 301.296 654.002 Z" fill="#000000" fill-rule="nonzero" fill-opacity="1" /><path clip-path="url(#clip710)" d="M323.265 646.222 Q320.707 646.222 319.203 647.972 Q317.717 649.721 317.717 652.768 Q317.717 655.796 319.203 657.564 Q320.707 659.313 323.265 659.313 Q325.823 659.313 327.309 657.564 Q328.813 655.796 328.813 652.768 Q328.813 649.721 327.309 647.972 Q325.823 646.222 323.265 646.222 M330.807 634.317 L330.807 637.778 Q329.378 637.101 327.911 636.743 Q326.462 636.386 325.033 636.386 Q321.271 636.386 319.278 638.925 Q317.303 641.464 317.021 646.599 Q318.131 644.962 319.804 644.097 Q321.478 643.213 323.491 643.213 Q327.723 643.213 330.168 645.79 Q332.631 648.348 332.631 652.768 Q332.631 657.093 330.074 659.708 Q327.516 662.322 323.265 662.322 Q318.394 662.322 315.817 658.598 Q313.241 654.855 313.241 647.765 Q313.241 641.107 316.4 637.157 Q319.56 633.189 324.883 633.189 Q326.312 633.189 327.76 633.471 Q329.227 633.753 330.807 634.317 Z" fill="#000000" fill-rule="nonzero" fill-opacity="1" /><path clip-path="url(#clip710)" d="M119.885 445.659 L136.204 445.659 L136.204 449.594 L114.26 449.594 L114.26 445.659 Q116.922 442.904 121.505 438.275 Q126.112 433.622 127.292 432.279 Q129.538 429.756 130.417 428.02 Q131.32 426.261 131.32 424.571 Q131.32 421.816 129.376 420.08 Q127.455 418.344 124.353 418.344 Q122.154 418.344 119.7 419.108 Q117.269 419.872 114.492 421.423 L114.492 416.701 Q117.316 415.566 119.769 414.988 Q122.223 414.409 124.26 414.409 Q129.63 414.409 132.825 417.094 Q136.019 419.779 136.019 424.27 Q136.019 426.4 135.209 428.321 Q134.422 430.219 132.316 432.812 Q131.737 433.483 128.635 436.7 Q125.533 439.895 119.885 445.659 Z" fill="#000000" fill-rule="nonzero" fill-opacity="1" /><path clip-path="url(#clip710)" d="M146.019 443.714 L150.903 443.714 L150.903 449.594 L146.019 449.594 L146.019 443.714 Z" fill="#000000" fill-rule="nonzero" fill-opacity="1" /><path clip-path="url(#clip710)" d="M171.089 418.113 Q167.477 418.113 165.649 421.677 Q163.843 425.219 163.843 432.349 Q163.843 439.455 165.649 443.02 Q167.477 446.562 171.089 446.562 Q174.723 446.562 176.528 443.02 Q178.357 439.455 178.357 432.349 Q178.357 425.219 176.528 421.677 Q174.723 418.113 171.089 418.113 M171.089 414.409 Q176.899 414.409 179.954 419.015 Q183.033 423.599 183.033 432.349 Q183.033 441.075 179.954 445.682 Q176.899 450.265 171.089 450.265 Q165.278 450.265 162.2 445.682 Q159.144 441.075 159.144 432.349 Q159.144 423.599 162.2 419.015 Q165.278 414.409 171.089 414.409 Z" fill="#000000" fill-rule="nonzero" fill-opacity="1" /><path clip-path="url(#clip710)" d="M201.25 418.113 Q197.639 418.113 195.811 421.677 Q194.005 425.219 194.005 432.349 Q194.005 439.455 195.811 443.02 Q197.639 446.562 201.25 446.562 Q204.885 446.562 206.69 443.02 Q208.519 439.455 208.519 432.349 Q208.519 425.219 206.69 421.677 Q204.885 418.113 201.25 418.113 M201.25 414.409 Q207.061 414.409 210.116 419.015 Q213.195 423.599 213.195 432.349 Q213.195 441.075 210.116 445.682 Q207.061 450.265 201.25 450.265 Q195.44 450.265 192.362 445.682 Q189.306 441.075 189.306 432.349 Q189.306 423.599 192.362 419.015 Q195.44 414.409 201.25 414.409 Z" fill="#000000" fill-rule="nonzero" fill-opacity="1" /><path clip-path="url(#clip710)" d="M249.584 424.131 L239.005 434.756 L249.584 445.335 L246.829 448.136 L236.204 437.511 L225.579 448.136 L222.848 445.335 L233.403 434.756 L222.848 424.131 L225.579 421.33 L236.204 431.955 L246.829 421.33 L249.584 424.131 Z" fill="#000000" fill-rule="nonzero" fill-opacity="1" /><path clip-path="url(#clip710)" d="M261.945 445.659 L269.583 445.659 L269.583 419.293 L261.273 420.96 L261.273 416.701 L269.537 415.034 L274.213 415.034 L274.213 445.659 L281.852 445.659 L281.852 449.594 L261.945 449.594 L261.945 445.659 Z" fill="#000000" fill-rule="nonzero" fill-opacity="1" /><path clip-path="url(#clip710)" d="M301.296 418.113 Q297.685 418.113 295.856 421.677 Q294.051 425.219 294.051 432.349 Q294.051 439.455 295.856 443.02 Q297.685 446.562 301.296 446.562 Q304.93 446.562 306.736 443.02 Q308.565 439.455 308.565 432.349 Q308.565 425.219 306.736 421.677 Q304.93 418.113 301.296 418.113 M301.296 414.409 Q307.106 414.409 310.162 419.015 Q313.241 423.599 313.241 432.349 Q313.241 441.075 310.162 445.682 Q307.106 450.265 301.296 450.265 Q295.486 450.265 292.407 445.682 Q289.352 441.075 289.352 432.349 Q289.352 423.599 292.407 419.015 Q295.486 414.409 301.296 414.409 Z" fill="#000000" fill-rule="nonzero" fill-opacity="1" /><path clip-path="url(#clip710)" d="M323.265 406.63 Q320.707 406.63 319.203 408.379 Q317.717 410.128 317.717 413.175 Q317.717 416.203 319.203 417.971 Q320.707 419.72 323.265 419.72 Q325.823 419.72 327.309 417.971 Q328.813 416.203 328.813 413.175 Q328.813 410.128 327.309 408.379 Q325.823 406.63 323.265 406.63 M330.807 394.724 L330.807 398.185 Q329.378 397.508 327.911 397.15 Q326.462 396.793 325.033 396.793 Q321.271 396.793 319.278 399.332 Q317.303 401.871 317.021 407.006 Q318.131 405.369 319.804 404.504 Q321.478 403.62 323.491 403.62 Q327.723 403.62 330.168 406.197 Q332.631 408.755 332.631 413.175 Q332.631 417.5 330.074 420.115 Q327.516 422.729 323.265 422.729 Q318.394 422.729 315.817 419.005 Q313.241 415.262 313.241 408.172 Q313.241 401.514 316.4 397.564 Q319.56 393.596 324.883 393.596 Q326.312 393.596 327.76 393.878 Q329.227 394.16 330.807 394.724 Z" fill="#000000" fill-rule="nonzero" fill-opacity="1" /><path clip-path="url(#clip710)" d="M119.885 206.066 L136.204 206.066 L136.204 210.001 L114.26 210.001 L114.26 206.066 Q116.922 203.311 121.505 198.682 Q126.112 194.029 127.292 192.686 Q129.538 190.163 130.417 188.427 Q131.32 186.668 131.32 184.978 Q131.32 182.223 129.376 180.487 Q127.455 178.751 124.353 178.751 Q122.154 178.751 119.7 179.515 Q117.269 180.279 114.492 181.83 L114.492 177.108 Q117.316 175.973 119.769 175.395 Q122.223 174.816 124.26 174.816 Q129.63 174.816 132.825 177.501 Q136.019 180.186 136.019 184.677 Q136.019 186.807 135.209 188.728 Q134.422 190.626 132.316 193.219 Q131.737 193.89 128.635 197.108 Q125.533 200.302 119.885 206.066 Z" fill="#000000" fill-rule="nonzero" fill-opacity="1" /><path clip-path="url(#clip710)" d="M146.019 204.121 L150.903 204.121 L150.903 210.001 L146.019 210.001 L146.019 204.121 Z" fill="#000000" fill-rule="nonzero" fill-opacity="1" /><path clip-path="url(#clip710)" d="M161.135 175.441 L179.491 175.441 L179.491 179.376 L165.417 179.376 L165.417 187.848 Q166.436 187.501 167.454 187.339 Q168.473 187.154 169.491 187.154 Q175.278 187.154 178.658 190.325 Q182.038 193.496 182.038 198.913 Q182.038 204.492 178.565 207.594 Q175.093 210.672 168.774 210.672 Q166.598 210.672 164.329 210.302 Q162.084 209.932 159.677 209.191 L159.677 204.492 Q161.76 205.626 163.982 206.182 Q166.204 206.737 168.681 206.737 Q172.686 206.737 175.024 204.631 Q177.362 202.524 177.362 198.913 Q177.362 195.302 175.024 193.195 Q172.686 191.089 168.681 191.089 Q166.806 191.089 164.931 191.506 Q163.079 191.922 161.135 192.802 L161.135 175.441 Z" fill="#000000" fill-rule="nonzero" fill-opacity="1" /><path clip-path="url(#clip710)" d="M201.25 178.52 Q197.639 178.52 195.811 182.084 Q194.005 185.626 194.005 192.756 Q194.005 199.862 195.811 203.427 Q197.639 206.969 201.25 206.969 Q204.885 206.969 206.69 203.427 Q208.519 199.862 208.519 192.756 Q208.519 185.626 206.69 182.084 Q204.885 178.52 201.25 178.52 M201.25 174.816 Q207.061 174.816 210.116 179.422 Q213.195 184.006 213.195 192.756 Q213.195 201.482 210.116 206.089 Q207.061 210.672 201.25 210.672 Q195.44 210.672 192.362 206.089 Q189.306 201.482 189.306 192.756 Q189.306 184.006 192.362 179.422 Q195.44 174.816 201.25 174.816 Z" fill="#000000" fill-rule="nonzero" fill-opacity="1" /><path clip-path="url(#clip710)" d="M249.584 184.538 L239.005 195.163 L249.584 205.742 L246.829 208.543 L236.204 197.918 L225.579 208.543 L222.848 205.742 L233.403 195.163 L222.848 184.538 L225.579 181.737 L236.204 192.362 L246.829 181.737 L249.584 184.538 Z" fill="#000000" fill-rule="nonzero" fill-opacity="1" /><path clip-path="url(#clip710)" d="M261.945 206.066 L269.583 206.066 L269.583 179.7 L261.273 181.367 L261.273 177.108 L269.537 175.441 L274.213 175.441 L274.213 206.066 L281.852 206.066 L281.852 210.001 L261.945 210.001 L261.945 206.066 Z" fill="#000000" fill-rule="nonzero" fill-opacity="1" /><path clip-path="url(#clip710)" d="M301.296 178.52 Q297.685 178.52 295.856 182.084 Q294.051 185.626 294.051 192.756 Q294.051 199.862 295.856 203.427 Q297.685 206.969 301.296 206.969 Q304.93 206.969 306.736 203.427 Q308.565 199.862 308.565 192.756 Q308.565 185.626 306.736 182.084 Q304.93 178.52 301.296 178.52 M301.296 174.816 Q307.106 174.816 310.162 179.422 Q313.241 184.006 313.241 192.756 Q313.241 201.482 310.162 206.089 Q307.106 210.672 301.296 210.672 Q295.486 210.672 292.407 206.089 Q289.352 201.482 289.352 192.756 Q289.352 184.006 292.407 179.422 Q295.486 174.816 301.296 174.816 Z" fill="#000000" fill-rule="nonzero" fill-opacity="1" /><path clip-path="url(#clip710)" d="M323.265 167.037 Q320.707 167.037 319.203 168.786 Q317.717 170.535 317.717 173.582 Q317.717 176.61 319.203 178.378 Q320.707 180.127 323.265 180.127 Q325.823 180.127 327.309 178.378 Q328.813 176.61 328.813 173.582 Q328.813 170.535 327.309 168.786 Q325.823 167.037 323.265 167.037 M330.807 155.131 L330.807 158.592 Q329.378 157.915 327.911 157.557 Q326.462 157.2 325.033 157.2 Q321.271 157.2 319.278 159.739 Q317.303 162.278 317.021 167.413 Q318.131 165.776 319.804 164.911 Q321.478 164.027 323.491 164.027 Q327.723 164.027 330.168 166.604 Q332.631 169.162 332.631 173.582 Q332.631 177.907 330.074 180.522 Q327.516 183.136 323.265 183.136 Q318.394 183.136 315.817 179.412 Q313.241 175.669 313.241 168.579 Q313.241 161.921 316.4 157.971 Q319.56 154.003 324.883 154.003 Q326.312 154.003 327.76 154.285 Q329.227 154.567 330.807 155.131 Z" fill="#000000" fill-rule="nonzero" fill-opacity="1" /><path clip-path="url(#clip710)" d="M41.7242 918.115 Q42.4244 916.046 44.7161 914.104 Q47.0077 912.131 51.0181 910.158 L64.0042 903.633 L64.0042 910.539 L51.8138 916.619 Q47.0395 918.974 45.48 921.202 Q43.9204 923.398 43.9204 927.218 L43.9204 934.22 L64.0042 934.22 L64.0042 940.649 L16.4842 940.649 L16.4842 926.135 Q16.4842 917.987 19.8898 913.977 Q23.2955 909.967 30.1704 909.967 Q34.6582 909.967 37.6183 912.067 Q40.5784 914.136 41.7242 918.115 M21.7677 934.22 L38.6368 934.22 L38.6368 926.135 Q38.6368 921.488 36.5043 919.133 Q34.34 916.746 30.1704 916.746 Q26.0009 916.746 23.9002 919.133 Q21.7677 921.488 21.7677 926.135 L21.7677 934.22 Z" fill="#000000" fill-rule="nonzero" fill-opacity="1" /><path clip-path="url(#clip710)" d="M44.7161 868.048 L47.5806 868.048 L47.5806 894.975 Q53.6281 894.593 56.8109 891.347 Q59.9619 888.068 59.9619 882.244 Q59.9619 878.87 59.1344 875.719 Q58.3069 872.536 56.6518 869.417 L62.1899 869.417 Q63.5267 872.568 64.227 875.878 Q64.9272 879.188 64.9272 882.594 Q64.9272 891.124 59.9619 896.121 Q54.9967 901.086 46.5303 901.086 Q37.7774 901.086 32.6531 896.376 Q27.4968 891.633 27.4968 883.613 Q27.4968 876.419 32.1438 872.25 Q36.7589 868.048 44.7161 868.048 M42.9973 873.905 Q38.1912 873.968 35.3266 876.61 Q32.4621 879.22 32.4621 883.549 Q32.4621 888.45 35.2312 891.41 Q38.0002 894.339 43.0292 894.784 L42.9973 873.905 Z" fill="#000000" fill-rule="nonzero" fill-opacity="1" /><path clip-path="url(#clip710)" d="M14.479 858.436 L14.479 852.58 L64.0042 852.58 L64.0042 858.436 L14.479 858.436 Z" fill="#000000" fill-rule="nonzero" fill-opacity="1" /><path clip-path="url(#clip710)" d="M46.0847 824.125 Q46.0847 831.223 47.7079 833.96 Q49.3312 836.697 53.2461 836.697 Q56.3653 836.697 58.2114 834.66 Q60.0256 832.591 60.0256 829.058 Q60.0256 824.189 56.5881 821.26 Q53.1188 818.3 47.3897 818.3 L46.0847 818.3 L46.0847 824.125 M43.6657 812.444 L64.0042 812.444 L64.0042 818.3 L58.5933 818.3 Q61.8398 820.306 63.3994 823.297 Q64.9272 826.289 64.9272 830.618 Q64.9272 836.093 61.8716 839.339 Q58.7843 842.554 53.6281 842.554 Q47.6125 842.554 44.5569 838.543 Q41.5014 834.501 41.5014 826.512 L41.5014 818.3 L40.9285 818.3 Q36.8862 818.3 34.6901 820.974 Q32.4621 823.616 32.4621 828.422 Q32.4621 831.477 33.1941 834.374 Q33.9262 837.27 35.3903 839.944 L29.9795 839.944 Q28.7381 836.729 28.1334 833.705 Q27.4968 830.682 27.4968 827.817 Q27.4968 820.083 31.5072 816.263 Q35.5176 812.444 43.6657 812.444 Z" fill="#000000" fill-rule="nonzero" fill-opacity="1" /><path clip-path="url(#clip710)" d="M18.2347 794.588 L28.3562 794.588 L28.3562 782.525 L32.9077 782.525 L32.9077 794.588 L52.2594 794.588 Q56.6199 794.588 57.8613 793.41 Q59.1026 792.201 59.1026 788.541 L59.1026 782.525 L64.0042 782.525 L64.0042 788.541 Q64.0042 795.32 61.4897 797.898 Q58.9434 800.476 52.2594 800.476 L32.9077 800.476 L32.9077 804.773 L28.3562 804.773 L28.3562 800.476 L18.2347 800.476 L18.2347 794.588 Z" fill="#000000" fill-rule="nonzero" fill-opacity="1" /><path clip-path="url(#clip710)" d="M28.3562 774.823 L28.3562 768.966 L64.0042 768.966 L64.0042 774.823 L28.3562 774.823 M14.479 774.823 L14.479 768.966 L21.895 768.966 L21.895 774.823 L14.479 774.823 Z" fill="#000000" fill-rule="nonzero" fill-opacity="1" /><path clip-path="url(#clip710)" d="M28.3562 760.914 L28.3562 754.707 L58.275 743.567 L28.3562 732.427 L28.3562 726.22 L64.0042 739.588 L64.0042 747.546 L28.3562 760.914 Z" fill="#000000" fill-rule="nonzero" fill-opacity="1" /><path clip-path="url(#clip710)" d="M44.7161 687.644 L47.5806 687.644 L47.5806 714.571 Q53.6281 714.189 56.8109 710.943 Q59.9619 707.664 59.9619 701.84 Q59.9619 698.466 59.1344 695.315 Q58.3069 692.132 56.6518 689.013 L62.1899 689.013 Q63.5267 692.164 64.227 695.474 Q64.9272 698.784 64.9272 702.19 Q64.9272 710.72 59.9619 715.717 Q54.9967 720.682 46.5303 720.682 Q37.7774 720.682 32.6531 715.972 Q27.4968 711.229 27.4968 703.208 Q27.4968 696.015 32.1438 691.846 Q36.7589 687.644 44.7161 687.644 M42.9973 693.501 Q38.1912 693.564 35.3266 696.206 Q32.4621 698.816 32.4621 703.145 Q32.4621 708.046 35.2312 711.006 Q38.0002 713.935 43.0292 714.38 L42.9973 693.501 Z" fill="#000000" fill-rule="nonzero" fill-opacity="1" /><path clip-path="url(#clip710)" d="M29.7248 631.658 L35.1993 631.658 Q33.8307 634.14 33.1623 636.655 Q32.4621 639.138 32.4621 641.684 Q32.4621 647.381 36.0905 650.532 Q39.6872 653.683 46.212 653.683 Q52.7369 653.683 56.3653 650.532 Q59.9619 647.381 59.9619 641.684 Q59.9619 639.138 59.2935 636.655 Q58.5933 634.14 57.2247 631.658 L62.6355 631.658 Q63.7814 634.109 64.3543 636.75 Q64.9272 639.36 64.9272 642.32 Q64.9272 650.373 59.8664 655.115 Q54.8057 659.858 46.212 659.858 Q37.491 659.858 32.4939 655.084 Q27.4968 650.278 27.4968 641.938 Q27.4968 639.233 28.0697 636.655 Q28.6108 634.077 29.7248 631.658 Z" fill="#000000" fill-rule="nonzero" fill-opacity="1" /><path clip-path="url(#clip710)" d="M32.4621 607.659 Q32.4621 612.37 36.1542 615.107 Q39.8145 617.844 46.212 617.844 Q52.6095 617.844 56.3017 615.139 Q59.9619 612.402 59.9619 607.659 Q59.9619 602.98 56.2698 600.243 Q52.5777 597.506 46.212 597.506 Q39.8781 597.506 36.186 600.243 Q32.4621 602.98 32.4621 607.659 M27.4968 607.659 Q27.4968 600.02 32.4621 595.66 Q37.4273 591.299 46.212 591.299 Q54.9649 591.299 59.9619 595.66 Q64.9272 600.02 64.9272 607.659 Q64.9272 615.33 59.9619 619.69 Q54.9649 624.019 46.212 624.019 Q37.4273 624.019 32.4621 619.69 Q27.4968 615.33 27.4968 607.659 Z" fill="#000000" fill-rule="nonzero" fill-opacity="1" /><path clip-path="url(#clip710)" d="M29.4065 558.866 L34.9447 558.866 Q33.6716 561.349 33.035 564.022 Q32.3984 566.696 32.3984 569.56 Q32.3984 573.921 33.7352 576.117 Q35.072 578.281 37.7456 578.281 Q39.7826 578.281 40.9603 576.722 Q42.1061 575.162 43.1565 570.452 L43.6021 568.446 Q44.9389 562.208 47.3897 559.598 Q49.8086 556.956 54.1691 556.956 Q59.1344 556.956 62.0308 560.903 Q64.9272 564.818 64.9272 571.693 Q64.9272 574.557 64.3543 577.677 Q63.8132 580.764 62.6992 584.201 L56.6518 584.201 Q58.3387 580.955 59.198 577.804 Q60.0256 574.653 60.0256 571.566 Q60.0256 567.428 58.6251 565.2 Q57.1929 562.972 54.6147 562.972 Q52.2276 562.972 50.9545 564.595 Q49.6813 566.187 48.5037 571.629 L48.0262 573.666 Q46.8804 579.109 44.5251 581.528 Q42.138 583.947 38.0002 583.947 Q32.9713 583.947 30.2341 580.382 Q27.4968 576.817 27.4968 570.261 Q27.4968 567.014 27.9743 564.15 Q28.4517 561.285 29.4065 558.866 Z" fill="#000000" fill-rule="nonzero" fill-opacity="1" /><path clip-path="url(#clip710)" d="M18.2347 541.838 L28.3562 541.838 L28.3562 529.775 L32.9077 529.775 L32.9077 541.838 L52.2594 541.838 Q56.6199 541.838 57.8613 540.66 Q59.1026 539.451 59.1026 535.79 L59.1026 529.775 L64.0042 529.775 L64.0042 535.79 Q64.0042 542.57 61.4897 545.148 Q58.9434 547.726 52.2594 547.726 L32.9077 547.726 L32.9077 552.023 L28.3562 552.023 L28.3562 547.726 L18.2347 547.726 L18.2347 541.838 Z" fill="#000000" fill-rule="nonzero" fill-opacity="1" /><circle clip-path="url(#clip711)" cx="424.786" cy="86.1857" r="14.4" fill="#009af9" fill-rule="evenodd" fill-opacity="1" stroke="none"/>
<circle clip-path="url(#clip711)" cx="462.222" cy="632.961" r="14.4" fill="#009af9" fill-rule="evenodd" fill-opacity="1" stroke="none"/>
<circle clip-path="url(#clip711)" cx="499.658" cy="791.815" r="14.4" fill="#009af9" fill-rule="evenodd" fill-opacity="1" stroke="none"/>
<circle clip-path="url(#clip711)" cx="537.095" cy="897.044" r="14.4" fill="#009af9" fill-rule="evenodd" fill-opacity="1" stroke="none"/>
<circle clip-path="url(#clip711)" cx="574.531" cy="973.118" r="14.4" fill="#009af9" fill-rule="evenodd" fill-opacity="1" stroke="none"/>
<circle clip-path="url(#clip711)" cx="611.967" cy="1030.69" r="14.4" fill="#009af9" fill-rule="evenodd" fill-opacity="1" stroke="none"/>
<circle clip-path="url(#clip711)" cx="649.404" cy="1075.75" r="14.4" fill="#009af9" fill-rule="evenodd" fill-opacity="1" stroke="none"/>
<circle clip-path="url(#clip711)" cx="686.84" cy="1112.16" r="14.4" fill="#009af9" fill-rule="evenodd" fill-opacity="1" stroke="none"/>
<circle clip-path="url(#clip711)" cx="724.276" cy="1142.24" r="14.4" fill="#009af9" fill-rule="evenodd" fill-opacity="1" stroke="none"/>
<circle clip-path="url(#clip711)" cx="761.713" cy="1167.64" r="14.4" fill="#009af9" fill-rule="evenodd" fill-opacity="1" stroke="none"/>
<circle clip-path="url(#clip711)" cx="799.149" cy="1189.25" r="14.4" fill="#009af9" fill-rule="evenodd" fill-opacity="1" stroke="none"/>
<circle clip-path="url(#clip711)" cx="836.585" cy="1207.77" r="14.4" fill="#009af9" fill-rule="evenodd" fill-opacity="1" stroke="none"/>
<circle clip-path="url(#clip711)" cx="874.022" cy="1223.78" r="14.4" fill="#009af9" fill-rule="evenodd" fill-opacity="1" stroke="none"/>
<circle clip-path="url(#clip711)" cx="911.458" cy="1237.71" r="14.4" fill="#009af9" fill-rule="evenodd" fill-opacity="1" stroke="none"/>
<circle clip-path="url(#clip711)" cx="948.894" cy="1249.94" r="14.4" fill="#009af9" fill-rule="evenodd" fill-opacity="1" stroke="none"/>
<circle clip-path="url(#clip711)" cx="986.331" cy="1260.7" r="14.4" fill="#009af9" fill-rule="evenodd" fill-opacity="1" stroke="none"/>
<circle clip-path="url(#clip711)" cx="1023.77" cy="1270.25" r="14.4" fill="#009af9" fill-rule="evenodd" fill-opacity="1" stroke="none"/>
<circle clip-path="url(#clip711)" cx="1061.2" cy="1278.71" r="14.4" fill="#009af9" fill-rule="evenodd" fill-opacity="1" stroke="none"/>
<circle clip-path="url(#clip711)" cx="1098.64" cy="1286.25" r="14.4" fill="#009af9" fill-rule="evenodd" fill-opacity="1" stroke="none"/>
<circle clip-path="url(#clip711)" cx="1136.08" cy="1292.99" r="14.4" fill="#009af9" fill-rule="evenodd" fill-opacity="1" stroke="none"/>
<circle clip-path="url(#clip711)" cx="1173.51" cy="1299.05" r="14.4" fill="#009af9" fill-rule="evenodd" fill-opacity="1" stroke="none"/>
<circle clip-path="url(#clip711)" cx="1210.95" cy="1304.56" r="14.4" fill="#009af9" fill-rule="evenodd" fill-opacity="1" stroke="none"/>
<circle clip-path="url(#clip711)" cx="1248.38" cy="1309.55" r="14.4" fill="#009af9" fill-rule="evenodd" fill-opacity="1" stroke="none"/>
<circle clip-path="url(#clip711)" cx="1285.82" cy="1314.1" r="14.4" fill="#009af9" fill-rule="evenodd" fill-opacity="1" stroke="none"/>
<circle clip-path="url(#clip711)" cx="1323.26" cy="1318.25" r="14.4" fill="#009af9" fill-rule="evenodd" fill-opacity="1" stroke="none"/>
<circle clip-path="url(#clip711)" cx="1360.69" cy="1322.07" r="14.4" fill="#009af9" fill-rule="evenodd" fill-opacity="1" stroke="none"/>
<circle clip-path="url(#clip711)" cx="1398.13" cy="1325.61" r="14.4" fill="#009af9" fill-rule="evenodd" fill-opacity="1" stroke="none"/>
<circle clip-path="url(#clip711)" cx="1435.57" cy="1328.88" r="14.4" fill="#009af9" fill-rule="evenodd" fill-opacity="1" stroke="none"/>
<circle clip-path="url(#clip711)" cx="1473" cy="1331.92" r="14.4" fill="#009af9" fill-rule="evenodd" fill-opacity="1" stroke="none"/>
<circle clip-path="url(#clip711)" cx="1510.44" cy="1334.73" r="14.4" fill="#009af9" fill-rule="evenodd" fill-opacity="1" stroke="none"/>
<circle clip-path="url(#clip711)" cx="1547.88" cy="1337.33" r="14.4" fill="#009af9" fill-rule="evenodd" fill-opacity="1" stroke="none"/>
<circle clip-path="url(#clip711)" cx="1585.31" cy="1339.75" r="14.4" fill="#009af9" fill-rule="evenodd" fill-opacity="1" stroke="none"/>
<circle clip-path="url(#clip711)" cx="1622.75" cy="1341.99" r="14.4" fill="#009af9" fill-rule="evenodd" fill-opacity="1" stroke="none"/>
<circle clip-path="url(#clip711)" cx="1660.18" cy="1344.08" r="14.4" fill="#009af9" fill-rule="evenodd" fill-opacity="1" stroke="none"/>
<circle clip-path="url(#clip711)" cx="1697.62" cy="1346.03" r="14.4" fill="#009af9" fill-rule="evenodd" fill-opacity="1" stroke="none"/>
<circle clip-path="url(#clip711)" cx="1735.06" cy="1347.86" r="14.4" fill="#009af9" fill-rule="evenodd" fill-opacity="1" stroke="none"/>
<circle clip-path="url(#clip711)" cx="1772.49" cy="1349.57" r="14.4" fill="#009af9" fill-rule="evenodd" fill-opacity="1" stroke="none"/>
<circle clip-path="url(#clip711)" cx="1809.93" cy="1351.19" r="14.4" fill="#009af9" fill-rule="evenodd" fill-opacity="1" stroke="none"/>
<circle clip-path="url(#clip711)" cx="1847.37" cy="1352.73" r="14.4" fill="#009af9" fill-rule="evenodd" fill-opacity="1" stroke="none"/>
<circle clip-path="url(#clip711)" cx="1884.8" cy="1354.18" r="14.4" fill="#009af9" fill-rule="evenodd" fill-opacity="1" stroke="none"/>
<circle clip-path="url(#clip711)" cx="1922.24" cy="1355.54" r="14.4" fill="#009af9" fill-rule="evenodd" fill-opacity="1" stroke="none"/>
<circle clip-path="url(#clip711)" cx="1959.67" cy="1356.84" r="14.4" fill="#009af9" fill-rule="evenodd" fill-opacity="1" stroke="none"/>
<circle clip-path="url(#clip711)" cx="1997.11" cy="1358.08" r="14.4" fill="#009af9" fill-rule="evenodd" fill-opacity="1" stroke="none"/>
<circle clip-path="url(#clip711)" cx="2034.55" cy="1359.23" r="14.4" fill="#009af9" fill-rule="evenodd" fill-opacity="1" stroke="none"/>
<circle clip-path="url(#clip711)" cx="2071.98" cy="1360.3" r="14.4" fill="#009af9" fill-rule="evenodd" fill-opacity="1" stroke="none"/>
<circle clip-path="url(#clip711)" cx="2109.42" cy="1361.31" r="14.4" fill="#009af9" fill-rule="evenodd" fill-opacity="1" stroke="none"/>
<circle clip-path="url(#clip711)" cx="2146.86" cy="1362.27" r="14.4" fill="#009af9" fill-rule="evenodd" fill-opacity="1" stroke="none"/>
<circle clip-path="url(#clip711)" cx="2184.29" cy="1363.18" r="14.4" fill="#009af9" fill-rule="evenodd" fill-opacity="1" stroke="none"/>
<circle clip-path="url(#clip711)" cx="2221.73" cy="1364.03" r="14.4" fill="#009af9" fill-rule="evenodd" fill-opacity="1" stroke="none"/>
<circle clip-path="url(#clip711)" cx="2259.17" cy="1364.85" r="14.4" fill="#009af9" fill-rule="evenodd" fill-opacity="1" stroke="none"/>
<circle clip-path="url(#clip711)" cx="2296.6" cy="1365.62" r="14.4" fill="#009af9" fill-rule="evenodd" fill-opacity="1" stroke="none"/>
<path clip-path="url(#clip711)" d="M408.786 70.1857 L408.786 102.186 L440.786 102.186 L440.786 70.1857 L408.786 70.1857 Z" fill="#e26f46" fill-rule="evenodd" fill-opacity="1" stroke="none"/>
<path clip-path="url(#clip711)" d="M446.222 616.961 L446.222 648.961 L478.222 648.961 L478.222 616.961 L446.222 616.961 Z" fill="#e26f46" fill-rule="evenodd" fill-opacity="1" stroke="none"/>
<path clip-path="url(#clip711)" d="M483.658 775.815 L483.658 807.815 L515.658 807.815 L515.658 775.815 L483.658 775.815 Z" fill="#e26f46" fill-rule="evenodd" fill-opacity="1" stroke="none"/>
<path clip-path="url(#clip711)" d="M521.095 905.678 L521.095 937.678 L553.095 937.678 L553.095 905.678 L521.095 905.678 Z" fill="#e26f46" fill-rule="evenodd" fill-opacity="1" stroke="none"/>
<path clip-path="url(#clip711)" d="M558.531 1007.98 L558.531 1039.98 L590.531 1039.98 L590.531 1007.98 L558.531 1007.98 Z" fill="#e26f46" fill-rule="evenodd" fill-opacity="1" stroke="none"/>
<path clip-path="url(#clip711)" d="M595.967 1086.91 L595.967 1118.91 L627.967 1118.91 L627.967 1086.91 L595.967 1086.91 Z" fill="#e26f46" fill-rule="evenodd" fill-opacity="1" stroke="none"/>
<path clip-path="url(#clip711)" d="M633.404 1148.22 L633.404 1180.22 L665.404 1180.22 L665.404 1148.22 L633.404 1148.22 Z" fill="#e26f46" fill-rule="evenodd" fill-opacity="1" stroke="none"/>
<path clip-path="url(#clip711)" d="M670.84 1196.03 L670.84 1228.03 L702.84 1228.03 L702.84 1196.03 L670.84 1196.03 Z" fill="#e26f46" fill-rule="evenodd" fill-opacity="1" stroke="none"/>
<path clip-path="url(#clip711)" d="M708.276 1233 L708.276 1265 L740.276 1265 L740.276 1233 L708.276 1233 Z" fill="#e26f46" fill-rule="evenodd" fill-opacity="1" stroke="none"/>
<path clip-path="url(#clip711)" d="M745.713 1261.49 L745.713 1293.49 L777.713 1293.49 L777.713 1261.49 L745.713 1261.49 Z" fill="#e26f46" fill-rule="evenodd" fill-opacity="1" stroke="none"/>
<path clip-path="url(#clip711)" d="M783.149 1283.16 L783.149 1315.16 L815.149 1315.16 L815.149 1283.16 L783.149 1283.16 Z" fill="#e26f46" fill-rule="evenodd" fill-opacity="1" stroke="none"/>
<path clip-path="url(#clip711)" d="M820.585 1299.92 L820.585 1331.92 L852.585 1331.92 L852.585 1299.92 L820.585 1299.92 Z" fill="#e26f46" fill-rule="evenodd" fill-opacity="1" stroke="none"/>
<path clip-path="url(#clip711)" d="M858.022 1313.06 L858.022 1345.06 L890.022 1345.06 L890.022 1313.06 L858.022 1313.06 Z" fill="#e26f46" fill-rule="evenodd" fill-opacity="1" stroke="none"/>
<path clip-path="url(#clip711)" d="M895.458 1323.51 L895.458 1355.51 L927.458 1355.51 L927.458 1323.51 L895.458 1323.51 Z" fill="#e26f46" fill-rule="evenodd" fill-opacity="1" stroke="none"/>
<path clip-path="url(#clip711)" d="M932.894 1331.9 L932.894 1363.9 L964.894 1363.9 L964.894 1331.9 L932.894 1331.9 Z" fill="#e26f46" fill-rule="evenodd" fill-opacity="1" stroke="none"/>
<path clip-path="url(#clip711)" d="M970.331 1338.77 L970.331 1370.77 L1002.33 1370.77 L1002.33 1338.77 L970.331 1338.77 Z" fill="#e26f46" fill-rule="evenodd" fill-opacity="1" stroke="none"/>
<path clip-path="url(#clip711)" d="M1007.77 1344.28 L1007.77 1376.28 L1039.77 1376.28 L1039.77 1344.28 L1007.77 1344.28 Z" fill="#e26f46" fill-rule="evenodd" fill-opacity="1" stroke="none"/>
<path clip-path="url(#clip711)" d="M1045.2 1348.56 L1045.2 1380.56 L1077.2 1380.56 L1077.2 1348.56 L1045.2 1348.56 Z" fill="#e26f46" fill-rule="evenodd" fill-opacity="1" stroke="none"/>
<path clip-path="url(#clip711)" d="M1082.64 1352.14 L1082.64 1384.14 L1114.64 1384.14 L1114.64 1352.14 L1082.64 1352.14 Z" fill="#e26f46" fill-rule="evenodd" fill-opacity="1" stroke="none"/>
<path clip-path="url(#clip711)" d="M1120.08 1355.12 L1120.08 1387.12 L1152.08 1387.12 L1152.08 1355.12 L1120.08 1355.12 Z" fill="#e26f46" fill-rule="evenodd" fill-opacity="1" stroke="none"/>
<path clip-path="url(#clip711)" d="M1157.51 1357.55 L1157.51 1389.55 L1189.51 1389.55 L1189.51 1357.55 L1157.51 1357.55 Z" fill="#e26f46" fill-rule="evenodd" fill-opacity="1" stroke="none"/>
<path clip-path="url(#clip711)" d="M1194.95 1359.54 L1194.95 1391.54 L1226.95 1391.54 L1226.95 1359.54 L1194.95 1359.54 Z" fill="#e26f46" fill-rule="evenodd" fill-opacity="1" stroke="none"/>
<path clip-path="url(#clip711)" d="M1232.38 1361.18 L1232.38 1393.18 L1264.38 1393.18 L1264.38 1361.18 L1232.38 1361.18 Z" fill="#e26f46" fill-rule="evenodd" fill-opacity="1" stroke="none"/>
<path clip-path="url(#clip711)" d="M1269.82 1362.55 L1269.82 1394.55 L1301.82 1394.55 L1301.82 1362.55 L1269.82 1362.55 Z" fill="#e26f46" fill-rule="evenodd" fill-opacity="1" stroke="none"/>
<path clip-path="url(#clip711)" d="M1307.26 1363.67 L1307.26 1395.67 L1339.26 1395.67 L1339.26 1363.67 L1307.26 1363.67 Z" fill="#e26f46" fill-rule="evenodd" fill-opacity="1" stroke="none"/>
<path clip-path="url(#clip711)" d="M1344.69 1364.55 L1344.69 1396.55 L1376.69 1396.55 L1376.69 1364.55 L1344.69 1364.55 Z" fill="#e26f46" fill-rule="evenodd" fill-opacity="1" stroke="none"/>
<path clip-path="url(#clip711)" d="M1382.13 1365.23 L1382.13 1397.23 L1414.13 1397.23 L1414.13 1365.23 L1382.13 1365.23 Z" fill="#e26f46" fill-rule="evenodd" fill-opacity="1" stroke="none"/>
<path clip-path="url(#clip711)" d="M1419.57 1365.79 L1419.57 1397.79 L1451.57 1397.79 L1451.57 1365.79 L1419.57 1365.79 Z" fill="#e26f46" fill-rule="evenodd" fill-opacity="1" stroke="none"/>
<path clip-path="url(#clip711)" d="M1457 1366.23 L1457 1398.23 L1489 1398.23 L1489 1366.23 L1457 1366.23 Z" fill="#e26f46" fill-rule="evenodd" fill-opacity="1" stroke="none"/>
<path clip-path="url(#clip711)" d="M1494.44 1366.59 L1494.44 1398.59 L1526.44 1398.59 L1526.44 1366.59 L1494.44 1366.59 Z" fill="#e26f46" fill-rule="evenodd" fill-opacity="1" stroke="none"/>
<path clip-path="url(#clip711)" d="M1531.88 1366.89 L1531.88 1398.89 L1563.88 1398.89 L1563.88 1366.89 L1531.88 1366.89 Z" fill="#e26f46" fill-rule="evenodd" fill-opacity="1" stroke="none"/>
<path clip-path="url(#clip711)" d="M1569.31 1367.14 L1569.31 1399.14 L1601.31 1399.14 L1601.31 1367.14 L1569.31 1367.14 Z" fill="#e26f46" fill-rule="evenodd" fill-opacity="1" stroke="none"/>
<path clip-path="url(#clip711)" d="M1606.75 1367.35 L1606.75 1399.35 L1638.75 1399.35 L1638.75 1367.35 L1606.75 1367.35 Z" fill="#e26f46" fill-rule="evenodd" fill-opacity="1" stroke="none"/>
<path clip-path="url(#clip711)" d="M1644.18 1367.43 L1644.18 1399.43 L1676.18 1399.43 L1676.18 1367.43 L1644.18 1367.43 Z" fill="#e26f46" fill-rule="evenodd" fill-opacity="1" stroke="none"/>
<path clip-path="url(#clip711)" d="M1681.62 1367.51 L1681.62 1399.51 L1713.62 1399.51 L1713.62 1367.51 L1681.62 1367.51 Z" fill="#e26f46" fill-rule="evenodd" fill-opacity="1" stroke="none"/>
<path clip-path="url(#clip711)" d="M1719.06 1367.59 L1719.06 1399.59 L1751.06 1399.59 L1751.06 1367.59 L1719.06 1367.59 Z" fill="#e26f46" fill-rule="evenodd" fill-opacity="1" stroke="none"/>
<path clip-path="url(#clip711)" d="M1756.49 1367.66 L1756.49 1399.66 L1788.49 1399.66 L1788.49 1367.66 L1756.49 1367.66 Z" fill="#e26f46" fill-rule="evenodd" fill-opacity="1" stroke="none"/>
<path clip-path="url(#clip711)" d="M1793.93 1367.72 L1793.93 1399.72 L1825.93 1399.72 L1825.93 1367.72 L1793.93 1367.72 Z" fill="#e26f46" fill-rule="evenodd" fill-opacity="1" stroke="none"/>
<path clip-path="url(#clip711)" d="M1831.37 1367.78 L1831.37 1399.78 L1863.37 1399.78 L1863.37 1367.78 L1831.37 1367.78 Z" fill="#e26f46" fill-rule="evenodd" fill-opacity="1" stroke="none"/>
<path clip-path="url(#clip711)" d="M1868.8 1367.83 L1868.8 1399.83 L1900.8 1399.83 L1900.8 1367.83 L1868.8 1367.83 Z" fill="#e26f46" fill-rule="evenodd" fill-opacity="1" stroke="none"/>
<path clip-path="url(#clip711)" d="M1906.24 1367.88 L1906.24 1399.88 L1938.24 1399.88 L1938.24 1367.88 L1906.24 1367.88 Z" fill="#e26f46" fill-rule="evenodd" fill-opacity="1" stroke="none"/>
<path clip-path="url(#clip711)" d="M1943.67 1367.92 L1943.67 1399.92 L1975.67 1399.92 L1975.67 1367.92 L1943.67 1367.92 Z" fill="#e26f46" fill-rule="evenodd" fill-opacity="1" stroke="none"/>
<path clip-path="url(#clip711)" d="M1981.11 1367.95 L1981.11 1399.95 L2013.11 1399.95 L2013.11 1367.95 L1981.11 1367.95 Z" fill="#e26f46" fill-rule="evenodd" fill-opacity="1" stroke="none"/>
<path clip-path="url(#clip711)" d="M2018.55 1367.98 L2018.55 1399.98 L2050.55 1399.98 L2050.55 1367.98 L2018.55 1367.98 Z" fill="#e26f46" fill-rule="evenodd" fill-opacity="1" stroke="none"/>
<path clip-path="url(#clip711)" d="M2055.98 1368.01 L2055.98 1400.01 L2087.98 1400.01 L2087.98 1368.01 L2055.98 1368.01 Z" fill="#e26f46" fill-rule="evenodd" fill-opacity="1" stroke="none"/>
<path clip-path="url(#clip711)" d="M2093.42 1368.04 L2093.42 1400.04 L2125.42 1400.04 L2125.42 1368.04 L2093.42 1368.04 Z" fill="#e26f46" fill-rule="evenodd" fill-opacity="1" stroke="none"/>
<path clip-path="url(#clip711)" d="M2130.86 1368.06 L2130.86 1400.06 L2162.86 1400.06 L2162.86 1368.06 L2130.86 1368.06 Z" fill="#e26f46" fill-rule="evenodd" fill-opacity="1" stroke="none"/>
<path clip-path="url(#clip711)" d="M2168.29 1368.08 L2168.29 1400.08 L2200.29 1400.08 L2200.29 1368.08 L2168.29 1368.08 Z" fill="#e26f46" fill-rule="evenodd" fill-opacity="1" stroke="none"/>
<path clip-path="url(#clip711)" d="M2205.73 1368.1 L2205.73 1400.1 L2237.73 1400.1 L2237.73 1368.1 L2205.73 1368.1 Z" fill="#e26f46" fill-rule="evenodd" fill-opacity="1" stroke="none"/>
<path clip-path="url(#clip711)" d="M2243.17 1368.12 L2243.17 1400.12 L2275.17 1400.12 L2275.17 1368.12 L2243.17 1368.12 Z" fill="#e26f46" fill-rule="evenodd" fill-opacity="1" stroke="none"/>
<path clip-path="url(#clip711)" d="M2280.6 1368.13 L2280.6 1400.13 L2312.6 1400.13 L2312.6 1368.13 L2280.6 1368.13 Z" fill="#e26f46" fill-rule="evenodd" fill-opacity="1" stroke="none"/>
<path clip-path="url(#clip711)" d="M424.786 70.1857 L408.786 102.186 L440.786 102.186 L424.786 70.1857 Z" fill="#3da44d" fill-rule="evenodd" fill-opacity="1" stroke="none"/>
<path clip-path="url(#clip711)" d="M462.222 536.826 L446.222 568.826 L478.222 568.826 L462.222 536.826 Z" fill="#3da44d" fill-rule="evenodd" fill-opacity="1" stroke="none"/>
<path clip-path="url(#clip711)" d="M499.658 813.434 L483.658 845.434 L515.658 845.434 L499.658 813.434 Z" fill="#3da44d" fill-rule="evenodd" fill-opacity="1" stroke="none"/>
<path clip-path="url(#clip711)" d="M537.095 984.9 L521.095 1016.9 L553.095 1016.9 L537.095 984.9 Z" fill="#3da44d" fill-rule="evenodd" fill-opacity="1" stroke="none"/>
<path clip-path="url(#clip711)" d="M574.531 1103.4 L558.531 1135.4 L590.531 1135.4 L574.531 1103.4 Z" fill="#3da44d" fill-rule="evenodd" fill-opacity="1" stroke="none"/>
<path clip-path="url(#clip711)" d="M611.967 1183.17 L595.967 1215.17 L627.967 1215.17 L611.967 1183.17 Z" fill="#3da44d" fill-rule="evenodd" fill-opacity="1" stroke="none"/>
<path clip-path="url(#clip711)" d="M649.404 1238.04 L633.404 1270.04 L665.404 1270.04 L649.404 1238.04 Z" fill="#3da44d" fill-rule="evenodd" fill-opacity="1" stroke="none"/>
<path clip-path="url(#clip711)" d="M686.84 1275.31 L670.84 1307.31 L702.84 1307.31 L686.84 1275.31 Z" fill="#3da44d" fill-rule="evenodd" fill-opacity="1" stroke="none"/>
<path clip-path="url(#clip711)" d="M724.276 1300.85 L708.276 1332.85 L740.276 1332.85 L724.276 1300.85 Z" fill="#3da44d" fill-rule="evenodd" fill-opacity="1" stroke="none"/>
<path clip-path="url(#clip711)" d="M761.713 1318.8 L745.713 1350.8 L777.713 1350.8 L761.713 1318.8 Z" fill="#3da44d" fill-rule="evenodd" fill-opacity="1" stroke="none"/>
<path clip-path="url(#clip711)" d="M799.149 1331.78 L783.149 1363.78 L815.149 1363.78 L799.149 1331.78 Z" fill="#3da44d" fill-rule="evenodd" fill-opacity="1" stroke="none"/>
<path clip-path="url(#clip711)" d="M836.585 1341.25 L820.585 1373.25 L852.585 1373.25 L836.585 1341.25 Z" fill="#3da44d" fill-rule="evenodd" fill-opacity="1" stroke="none"/>
<path clip-path="url(#clip711)" d="M874.022 1348.14 L858.022 1380.14 L890.022 1380.14 L874.022 1348.14 Z" fill="#3da44d" fill-rule="evenodd" fill-opacity="1" stroke="none"/>
<path clip-path="url(#clip711)" d="M911.458 1353.29 L895.458 1385.29 L927.458 1385.29 L911.458 1353.29 Z" fill="#3da44d" fill-rule="evenodd" fill-opacity="1" stroke="none"/>
<path clip-path="url(#clip711)" d="M948.894 1357.14 L932.894 1389.14 L964.894 1389.14 L948.894 1357.14 Z" fill="#3da44d" fill-rule="evenodd" fill-opacity="1" stroke="none"/>
<path clip-path="url(#clip711)" d="M986.331 1360.03 L970.331 1392.03 L1002.33 1392.03 L986.331 1360.03 Z" fill="#3da44d" fill-rule="evenodd" fill-opacity="1" stroke="none"/>
<path clip-path="url(#clip711)" d="M1023.77 1362.22 L1007.77 1394.22 L1039.77 1394.22 L1023.77 1362.22 Z" fill="#3da44d" fill-rule="evenodd" fill-opacity="1" stroke="none"/>
<path clip-path="url(#clip711)" d="M1061.2 1363.85 L1045.2 1395.85 L1077.2 1395.85 L1061.2 1363.85 Z" fill="#3da44d" fill-rule="evenodd" fill-opacity="1" stroke="none"/>
<path clip-path="url(#clip711)" d="M1098.64 1365.01 L1082.64 1397.01 L1114.64 1397.01 L1098.64 1365.01 Z" fill="#3da44d" fill-rule="evenodd" fill-opacity="1" stroke="none"/>
<path clip-path="url(#clip711)" d="M1136.08 1365.84 L1120.08 1397.84 L1152.08 1397.84 L1136.08 1365.84 Z" fill="#3da44d" fill-rule="evenodd" fill-opacity="1" stroke="none"/>
<path clip-path="url(#clip711)" d="M1173.51 1366.45 L1157.51 1398.45 L1189.51 1398.45 L1173.51 1366.45 Z" fill="#3da44d" fill-rule="evenodd" fill-opacity="1" stroke="none"/>
<path clip-path="url(#clip711)" d="M1210.95 1366.94 L1194.95 1398.94 L1226.95 1398.94 L1210.95 1366.94 Z" fill="#3da44d" fill-rule="evenodd" fill-opacity="1" stroke="none"/>
<path clip-path="url(#clip711)" d="M1248.38 1367.1 L1232.38 1399.1 L1264.38 1399.1 L1248.38 1367.1 Z" fill="#3da44d" fill-rule="evenodd" fill-opacity="1" stroke="none"/>
<path clip-path="url(#clip711)" d="M1285.82 1367.22 L1269.82 1399.22 L1301.82 1399.22 L1285.82 1367.22 Z" fill="#3da44d" fill-rule="evenodd" fill-opacity="1" stroke="none"/>
<path clip-path="url(#clip711)" d="M1323.26 1367.34 L1307.26 1399.34 L1339.26 1399.34 L1323.26 1367.34 Z" fill="#3da44d" fill-rule="evenodd" fill-opacity="1" stroke="none"/>
<path clip-path="url(#clip711)" d="M1360.69 1367.46 L1344.69 1399.46 L1376.69 1399.46 L1360.69 1367.46 Z" fill="#3da44d" fill-rule="evenodd" fill-opacity="1" stroke="none"/>
<path clip-path="url(#clip711)" d="M1398.13 1367.57 L1382.13 1399.57 L1414.13 1399.57 L1398.13 1367.57 Z" fill="#3da44d" fill-rule="evenodd" fill-opacity="1" stroke="none"/>
<path clip-path="url(#clip711)" d="M1435.57 1367.66 L1419.57 1399.66 L1451.57 1399.66 L1435.57 1367.66 Z" fill="#3da44d" fill-rule="evenodd" fill-opacity="1" stroke="none"/>
<path clip-path="url(#clip711)" d="M1473 1367.74 L1457 1399.74 L1489 1399.74 L1473 1367.74 Z" fill="#3da44d" fill-rule="evenodd" fill-opacity="1" stroke="none"/>
<path clip-path="url(#clip711)" d="M1510.44 1367.82 L1494.44 1399.82 L1526.44 1399.82 L1510.44 1367.82 Z" fill="#3da44d" fill-rule="evenodd" fill-opacity="1" stroke="none"/>
<path clip-path="url(#clip711)" d="M1547.88 1367.88 L1531.88 1399.88 L1563.88 1399.88 L1547.88 1367.88 Z" fill="#3da44d" fill-rule="evenodd" fill-opacity="1" stroke="none"/>
<path clip-path="url(#clip711)" d="M1585.31 1367.94 L1569.31 1399.94 L1601.31 1399.94 L1585.31 1367.94 Z" fill="#3da44d" fill-rule="evenodd" fill-opacity="1" stroke="none"/>
<path clip-path="url(#clip711)" d="M1622.75 1367.99 L1606.75 1399.99 L1638.75 1399.99 L1622.75 1367.99 Z" fill="#3da44d" fill-rule="evenodd" fill-opacity="1" stroke="none"/>
<path clip-path="url(#clip711)" d="M1660.18 1368.03 L1644.18 1400.03 L1676.18 1400.03 L1660.18 1368.03 Z" fill="#3da44d" fill-rule="evenodd" fill-opacity="1" stroke="none"/>
<path clip-path="url(#clip711)" d="M1697.62 1368.07 L1681.62 1400.07 L1713.62 1400.07 L1697.62 1368.07 Z" fill="#3da44d" fill-rule="evenodd" fill-opacity="1" stroke="none"/>
<path clip-path="url(#clip711)" d="M1735.06 1368.1 L1719.06 1400.1 L1751.06 1400.1 L1735.06 1368.1 Z" fill="#3da44d" fill-rule="evenodd" fill-opacity="1" stroke="none"/>
<path clip-path="url(#clip711)" d="M1772.49 1368.13 L1756.49 1400.13 L1788.49 1400.13 L1772.49 1368.13 Z" fill="#3da44d" fill-rule="evenodd" fill-opacity="1" stroke="none"/>
<path clip-path="url(#clip711)" d="M1809.93 1368.15 L1793.93 1400.15 L1825.93 1400.15 L1809.93 1368.15 Z" fill="#3da44d" fill-rule="evenodd" fill-opacity="1" stroke="none"/>
<path clip-path="url(#clip711)" d="M1847.37 1368.18 L1831.37 1400.18 L1863.37 1400.18 L1847.37 1368.18 Z" fill="#3da44d" fill-rule="evenodd" fill-opacity="1" stroke="none"/>
<path clip-path="url(#clip711)" d="M1884.8 1368.19 L1868.8 1400.19 L1900.8 1400.19 L1884.8 1368.19 Z" fill="#3da44d" fill-rule="evenodd" fill-opacity="1" stroke="none"/>
<path clip-path="url(#clip711)" d="M1922.24 1368.21 L1906.24 1400.21 L1938.24 1400.21 L1922.24 1368.21 Z" fill="#3da44d" fill-rule="evenodd" fill-opacity="1" stroke="none"/>
<path clip-path="url(#clip711)" d="M1959.67 1368.22 L1943.67 1400.22 L1975.67 1400.22 L1959.67 1368.22 Z" fill="#3da44d" fill-rule="evenodd" fill-opacity="1" stroke="none"/>
<path clip-path="url(#clip711)" d="M1997.11 1368.22 L1981.11 1400.22 L2013.11 1400.22 L1997.11 1368.22 Z" fill="#3da44d" fill-rule="evenodd" fill-opacity="1" stroke="none"/>
<path clip-path="url(#clip711)" d="M2034.55 1368.23 L2018.55 1400.23 L2050.55 1400.23 L2034.55 1368.23 Z" fill="#3da44d" fill-rule="evenodd" fill-opacity="1" stroke="none"/>
<path clip-path="url(#clip711)" d="M2071.98 1368.23 L2055.98 1400.23 L2087.98 1400.23 L2071.98 1368.23 Z" fill="#3da44d" fill-rule="evenodd" fill-opacity="1" stroke="none"/>
<path clip-path="url(#clip711)" d="M2109.42 1368.23 L2093.42 1400.23 L2125.42 1400.23 L2109.42 1368.23 Z" fill="#3da44d" fill-rule="evenodd" fill-opacity="1" stroke="none"/>
<path clip-path="url(#clip711)" d="M2146.86 1368.24 L2130.86 1400.24 L2162.86 1400.24 L2146.86 1368.24 Z" fill="#3da44d" fill-rule="evenodd" fill-opacity="1" stroke="none"/>
<path clip-path="url(#clip711)" d="M2184.29 1368.24 L2168.29 1400.24 L2200.29 1400.24 L2184.29 1368.24 Z" fill="#3da44d" fill-rule="evenodd" fill-opacity="1" stroke="none"/>
<path clip-path="url(#clip711)" d="M2221.73 1368.24 L2205.73 1400.24 L2237.73 1400.24 L2221.73 1368.24 Z" fill="#3da44d" fill-rule="evenodd" fill-opacity="1" stroke="none"/>
<path clip-path="url(#clip711)" d="M2259.17 1368.24 L2243.17 1400.24 L2275.17 1400.24 L2259.17 1368.24 Z" fill="#3da44d" fill-rule="evenodd" fill-opacity="1" stroke="none"/>
<path clip-path="url(#clip711)" d="M2296.6 1368.24 L2280.6 1400.24 L2312.6 1400.24 L2296.6 1368.24 Z" fill="#3da44d" fill-rule="evenodd" fill-opacity="1" stroke="none"/>
<path clip-path="url(#clip710)" d="M1831.49 300.469 L2286.62 300.469 L2286.62 93.1086 L1831.49 93.1086  Z" fill="#ffffff" fill-rule="evenodd" fill-opacity="1"/>
<polyline clip-path="url(#clip710)" style="stroke:#000000; stroke-linecap:round; stroke-linejoin:round; stroke-width:4; stroke-opacity:1; fill:none" points="1831.49,300.469 2286.62,300.469 2286.62,93.1086 1831.49,93.1086 1831.49,300.469 "/>
<circle clip-path="url(#clip710)" cx="1919.68" cy="144.949" r="20.48" fill="#009af9" fill-rule="evenodd" fill-opacity="1" stroke="none"/>
<path clip-path="url(#clip710)" d="M2035.73 130.331 L2035.73 135.261 Q2033.37 133.062 2030.68 131.974 Q2028.02 130.886 2025.01 130.886 Q2019.09 130.886 2015.94 134.52 Q2012.79 138.132 2012.79 144.983 Q2012.79 151.812 2015.94 155.446 Q2019.09 159.057 2025.01 159.057 Q2028.02 159.057 2030.68 157.969 Q2033.37 156.881 2035.73 154.682 L2035.73 159.567 Q2033.28 161.233 2030.52 162.067 Q2027.79 162.9 2024.74 162.9 Q2016.89 162.9 2012.37 158.108 Q2007.86 153.293 2007.86 144.983 Q2007.86 136.65 2012.37 131.858 Q2016.89 127.044 2024.74 127.044 Q2027.84 127.044 2030.57 127.877 Q2033.32 128.687 2035.73 130.331 Z" fill="#000000" fill-rule="nonzero" fill-opacity="1" /><path clip-path="url(#clip710)" d="M2052.81 139.289 Q2049.39 139.289 2047.4 141.974 Q2045.41 144.636 2045.41 149.289 Q2045.41 153.942 2047.37 156.627 Q2049.37 159.289 2052.81 159.289 Q2056.22 159.289 2058.21 156.604 Q2060.2 153.918 2060.2 149.289 Q2060.2 144.682 2058.21 141.997 Q2056.22 139.289 2052.81 139.289 M2052.81 135.678 Q2058.37 135.678 2061.54 139.289 Q2064.71 142.9 2064.71 149.289 Q2064.71 155.655 2061.54 159.289 Q2058.37 162.9 2052.81 162.9 Q2047.24 162.9 2044.06 159.289 Q2040.92 155.655 2040.92 149.289 Q2040.92 142.9 2044.06 139.289 Q2047.24 135.678 2052.81 135.678 Z" fill="#000000" fill-rule="nonzero" fill-opacity="1" /><path clip-path="url(#clip710)" d="M2088.3 137.067 L2088.3 141.094 Q2086.49 140.169 2084.55 139.706 Q2082.61 139.243 2080.52 139.243 Q2077.35 139.243 2075.75 140.215 Q2074.18 141.187 2074.18 143.131 Q2074.18 144.613 2075.31 145.469 Q2076.45 146.303 2079.87 147.067 L2081.33 147.391 Q2085.87 148.363 2087.77 150.145 Q2089.69 151.905 2089.69 155.076 Q2089.69 158.687 2086.82 160.793 Q2083.97 162.9 2078.97 162.9 Q2076.89 162.9 2074.62 162.483 Q2072.37 162.09 2069.87 161.28 L2069.87 156.881 Q2072.24 158.108 2074.53 158.733 Q2076.82 159.335 2079.06 159.335 Q2082.07 159.335 2083.69 158.317 Q2085.31 157.275 2085.31 155.4 Q2085.31 153.664 2084.13 152.738 Q2082.98 151.812 2079.02 150.956 L2077.54 150.608 Q2073.58 149.775 2071.82 148.062 Q2070.06 146.326 2070.06 143.317 Q2070.06 139.659 2072.65 137.669 Q2075.24 135.678 2080.01 135.678 Q2082.37 135.678 2084.46 136.025 Q2086.54 136.372 2088.3 137.067 Z" fill="#000000" fill-rule="nonzero" fill-opacity="1" /><path clip-path="url(#clip710)" d="M2100.68 128.942 L2100.68 136.303 L2109.46 136.303 L2109.46 139.613 L2100.68 139.613 L2100.68 153.687 Q2100.68 156.858 2101.54 157.761 Q2102.42 158.664 2105.08 158.664 L2109.46 158.664 L2109.46 162.229 L2105.08 162.229 Q2100.15 162.229 2098.28 160.4 Q2096.4 158.548 2096.4 153.687 L2096.4 139.613 L2093.28 139.613 L2093.28 136.303 L2096.4 136.303 L2096.4 128.942 L2100.68 128.942 Z" fill="#000000" fill-rule="nonzero" fill-opacity="1" /><path clip-path="url(#clip710)" d="M2130.31 127.669 L2134.99 127.669 L2134.99 162.229 L2130.31 162.229 L2130.31 127.669 Z" fill="#000000" fill-rule="nonzero" fill-opacity="1" /><path clip-path="url(#clip710)" d="M2165.01 128.803 L2165.01 133.363 Q2162.35 132.09 2159.99 131.465 Q2157.63 130.84 2155.43 130.84 Q2151.61 130.84 2149.53 132.321 Q2147.47 133.803 2147.47 136.534 Q2147.47 138.826 2148.83 140.007 Q2150.22 141.164 2154.06 141.882 L2156.89 142.46 Q2162.12 143.456 2164.6 145.979 Q2167.1 148.479 2167.1 152.692 Q2167.1 157.715 2163.72 160.307 Q2160.36 162.9 2153.86 162.9 Q2151.4 162.9 2148.62 162.344 Q2145.87 161.789 2142.91 160.701 L2142.91 155.886 Q2145.75 157.483 2148.49 158.293 Q2151.22 159.104 2153.86 159.104 Q2157.86 159.104 2160.04 157.53 Q2162.21 155.956 2162.21 153.039 Q2162.21 150.493 2160.64 149.057 Q2159.09 147.622 2155.52 146.905 L2152.68 146.349 Q2147.44 145.307 2145.11 143.085 Q2142.77 140.863 2142.77 136.905 Q2142.77 132.321 2145.99 129.682 Q2149.23 127.044 2154.9 127.044 Q2157.33 127.044 2159.85 127.483 Q2162.37 127.923 2165.01 128.803 Z" fill="#000000" fill-rule="nonzero" fill-opacity="1" /><path clip-path="url(#clip710)" d="M2169.6 127.669 L2198.83 127.669 L2198.83 131.604 L2186.56 131.604 L2186.56 162.229 L2181.86 162.229 L2181.86 131.604 L2169.6 131.604 L2169.6 127.669 Z" fill="#000000" fill-rule="nonzero" fill-opacity="1" /><path clip-path="url(#clip710)" d="M2211.22 132.275 L2204.87 149.474 L2217.58 149.474 L2211.22 132.275 M2208.58 127.669 L2213.88 127.669 L2227.05 162.229 L2222.19 162.229 L2219.04 153.363 L2203.46 153.363 L2200.31 162.229 L2195.38 162.229 L2208.58 127.669 Z" fill="#000000" fill-rule="nonzero" fill-opacity="1" /><path clip-path="url(#clip710)" d="M1896.92 174.033 L1896.92 219.544 L1942.43 219.544 L1942.43 174.033 L1896.92 174.033 Z" fill="#e26f46" fill-rule="evenodd" fill-opacity="1" stroke="none"/>
<path clip-path="url(#clip710)" d="M2035.73 182.171 L2035.73 187.101 Q2033.37 184.902 2030.68 183.814 Q2028.02 182.726 2025.01 182.726 Q2019.09 182.726 2015.94 186.36 Q2012.79 189.972 2012.79 196.823 Q2012.79 203.652 2015.94 207.286 Q2019.09 210.897 2025.01 210.897 Q2028.02 210.897 2030.68 209.809 Q2033.37 208.721 2035.73 206.522 L2035.73 211.407 Q2033.28 213.073 2030.52 213.907 Q2027.79 214.74 2024.74 214.74 Q2016.89 214.74 2012.37 209.948 Q2007.86 205.133 2007.86 196.823 Q2007.86 188.49 2012.37 183.698 Q2016.89 178.884 2024.74 178.884 Q2027.84 178.884 2030.57 179.717 Q2033.32 180.527 2035.73 182.171 Z" fill="#000000" fill-rule="nonzero" fill-opacity="1" /><path clip-path="url(#clip710)" d="M2052.81 191.129 Q2049.39 191.129 2047.4 193.814 Q2045.41 196.476 2045.41 201.129 Q2045.41 205.782 2047.37 208.467 Q2049.37 211.129 2052.81 211.129 Q2056.22 211.129 2058.21 208.444 Q2060.2 205.758 2060.2 201.129 Q2060.2 196.522 2058.21 193.837 Q2056.22 191.129 2052.81 191.129 M2052.81 187.518 Q2058.37 187.518 2061.54 191.129 Q2064.71 194.74 2064.71 201.129 Q2064.71 207.495 2061.54 211.129 Q2058.37 214.74 2052.81 214.74 Q2047.24 214.74 2044.06 211.129 Q2040.92 207.495 2040.92 201.129 Q2040.92 194.74 2044.06 191.129 Q2047.24 187.518 2052.81 187.518 Z" fill="#000000" fill-rule="nonzero" fill-opacity="1" /><path clip-path="url(#clip710)" d="M2088.3 188.907 L2088.3 192.934 Q2086.49 192.009 2084.55 191.546 Q2082.61 191.083 2080.52 191.083 Q2077.35 191.083 2075.75 192.055 Q2074.18 193.027 2074.18 194.971 Q2074.18 196.453 2075.31 197.309 Q2076.45 198.143 2079.87 198.907 L2081.33 199.231 Q2085.87 200.203 2087.77 201.985 Q2089.69 203.745 2089.69 206.916 Q2089.69 210.527 2086.82 212.633 Q2083.97 214.74 2078.97 214.74 Q2076.89 214.74 2074.62 214.323 Q2072.37 213.93 2069.87 213.12 L2069.87 208.721 Q2072.24 209.948 2074.53 210.573 Q2076.82 211.175 2079.06 211.175 Q2082.07 211.175 2083.69 210.157 Q2085.31 209.115 2085.31 207.24 Q2085.31 205.504 2084.13 204.578 Q2082.98 203.652 2079.02 202.796 L2077.54 202.448 Q2073.58 201.615 2071.82 199.902 Q2070.06 198.166 2070.06 195.157 Q2070.06 191.499 2072.65 189.509 Q2075.24 187.518 2080.01 187.518 Q2082.37 187.518 2084.46 187.865 Q2086.54 188.212 2088.3 188.907 Z" fill="#000000" fill-rule="nonzero" fill-opacity="1" /><path clip-path="url(#clip710)" d="M2100.68 180.782 L2100.68 188.143 L2109.46 188.143 L2109.46 191.453 L2100.68 191.453 L2100.68 205.527 Q2100.68 208.698 2101.54 209.601 Q2102.42 210.504 2105.08 210.504 L2109.46 210.504 L2109.46 214.069 L2105.08 214.069 Q2100.15 214.069 2098.28 212.24 Q2096.4 210.388 2096.4 205.527 L2096.4 191.453 L2093.28 191.453 L2093.28 188.143 L2096.4 188.143 L2096.4 180.782 L2100.68 180.782 Z" fill="#000000" fill-rule="nonzero" fill-opacity="1" /><path clip-path="url(#clip710)" d="M2130.31 179.509 L2150.18 179.509 L2150.18 183.444 L2134.99 183.444 L2134.99 193.629 L2148.69 193.629 L2148.69 197.564 L2134.99 197.564 L2134.99 214.069 L2130.31 214.069 L2130.31 179.509 Z" fill="#000000" fill-rule="nonzero" fill-opacity="1" /><path clip-path="url(#clip710)" d="M2157.58 179.509 L2162.26 179.509 L2162.26 214.069 L2157.58 214.069 L2157.58 179.509 Z" fill="#000000" fill-rule="nonzero" fill-opacity="1" /><path clip-path="url(#clip710)" d="M2192.28 180.643 L2192.28 185.203 Q2189.62 183.93 2187.26 183.305 Q2184.9 182.68 2182.7 182.68 Q2178.88 182.68 2176.8 184.161 Q2174.74 185.643 2174.74 188.374 Q2174.74 190.666 2176.1 191.847 Q2177.49 193.004 2181.33 193.722 L2184.16 194.3 Q2189.39 195.296 2191.86 197.819 Q2194.36 200.319 2194.36 204.532 Q2194.36 209.555 2190.99 212.147 Q2187.63 214.74 2181.12 214.74 Q2178.67 214.74 2175.89 214.184 Q2173.14 213.629 2170.17 212.541 L2170.17 207.726 Q2173.02 209.323 2175.75 210.133 Q2178.49 210.944 2181.12 210.944 Q2185.13 210.944 2187.3 209.37 Q2189.48 207.796 2189.48 204.879 Q2189.48 202.333 2187.91 200.897 Q2186.36 199.462 2182.79 198.745 L2179.94 198.189 Q2174.71 197.147 2172.37 194.925 Q2170.04 192.703 2170.04 188.745 Q2170.04 184.161 2173.25 181.522 Q2176.49 178.884 2182.17 178.884 Q2184.6 178.884 2187.12 179.323 Q2189.64 179.763 2192.28 180.643 Z" fill="#000000" fill-rule="nonzero" fill-opacity="1" /><path clip-path="url(#clip710)" d="M2196.86 179.509 L2226.1 179.509 L2226.1 183.444 L2213.83 183.444 L2213.83 214.069 L2209.13 214.069 L2209.13 183.444 L2196.86 183.444 L2196.86 179.509 Z" fill="#000000" fill-rule="nonzero" fill-opacity="1" /><path clip-path="url(#clip710)" d="M2238.48 184.115 L2232.14 201.314 L2244.85 201.314 L2238.48 184.115 M2235.85 179.509 L2241.15 179.509 L2254.32 214.069 L2249.46 214.069 L2246.31 205.203 L2230.73 205.203 L2227.58 214.069 L2222.65 214.069 L2235.85 179.509 Z" fill="#000000" fill-rule="nonzero" fill-opacity="1" /><path clip-path="url(#clip710)" d="M1919.68 225.873 L1896.92 271.384 L1942.43 271.384 L1919.68 225.873 Z" fill="#3da44d" fill-rule="evenodd" fill-opacity="1" stroke="none"/>
<path clip-path="url(#clip710)" d="M2035.73 234.011 L2035.73 238.941 Q2033.37 236.742 2030.68 235.654 Q2028.02 234.566 2025.01 234.566 Q2019.09 234.566 2015.94 238.2 Q2012.79 241.812 2012.79 248.663 Q2012.79 255.492 2015.94 259.126 Q2019.09 262.737 2025.01 262.737 Q2028.02 262.737 2030.68 261.649 Q2033.37 260.561 2035.73 258.362 L2035.73 263.247 Q2033.28 264.913 2030.52 265.747 Q2027.79 266.58 2024.74 266.58 Q2016.89 266.58 2012.37 261.788 Q2007.86 256.973 2007.86 248.663 Q2007.86 240.33 2012.37 235.538 Q2016.89 230.724 2024.74 230.724 Q2027.84 230.724 2030.57 231.557 Q2033.32 232.367 2035.73 234.011 Z" fill="#000000" fill-rule="nonzero" fill-opacity="1" /><path clip-path="url(#clip710)" d="M2052.81 242.969 Q2049.39 242.969 2047.4 245.654 Q2045.41 248.316 2045.41 252.969 Q2045.41 257.622 2047.37 260.307 Q2049.37 262.969 2052.81 262.969 Q2056.22 262.969 2058.21 260.284 Q2060.2 257.598 2060.2 252.969 Q2060.2 248.362 2058.21 245.677 Q2056.22 242.969 2052.81 242.969 M2052.81 239.358 Q2058.37 239.358 2061.54 242.969 Q2064.71 246.58 2064.71 252.969 Q2064.71 259.335 2061.54 262.969 Q2058.37 266.58 2052.81 266.58 Q2047.24 266.58 2044.06 262.969 Q2040.92 259.335 2040.92 252.969 Q2040.92 246.58 2044.06 242.969 Q2047.24 239.358 2052.81 239.358 Z" fill="#000000" fill-rule="nonzero" fill-opacity="1" /><path clip-path="url(#clip710)" d="M2088.3 240.747 L2088.3 244.774 Q2086.49 243.849 2084.55 243.386 Q2082.61 242.923 2080.52 242.923 Q2077.35 242.923 2075.75 243.895 Q2074.18 244.867 2074.18 246.811 Q2074.18 248.293 2075.31 249.149 Q2076.45 249.983 2079.87 250.747 L2081.33 251.071 Q2085.87 252.043 2087.77 253.825 Q2089.69 255.585 2089.69 258.756 Q2089.69 262.367 2086.82 264.473 Q2083.97 266.58 2078.97 266.58 Q2076.89 266.58 2074.62 266.163 Q2072.37 265.77 2069.87 264.96 L2069.87 260.561 Q2072.24 261.788 2074.53 262.413 Q2076.82 263.015 2079.06 263.015 Q2082.07 263.015 2083.69 261.997 Q2085.31 260.955 2085.31 259.08 Q2085.31 257.344 2084.13 256.418 Q2082.98 255.492 2079.02 254.636 L2077.54 254.288 Q2073.58 253.455 2071.82 251.742 Q2070.06 250.006 2070.06 246.997 Q2070.06 243.339 2072.65 241.349 Q2075.24 239.358 2080.01 239.358 Q2082.37 239.358 2084.46 239.705 Q2086.54 240.052 2088.3 240.747 Z" fill="#000000" fill-rule="nonzero" fill-opacity="1" /><path clip-path="url(#clip710)" d="M2100.68 232.622 L2100.68 239.983 L2109.46 239.983 L2109.46 243.293 L2100.68 243.293 L2100.68 257.367 Q2100.68 260.538 2101.54 261.441 Q2102.42 262.344 2105.08 262.344 L2109.46 262.344 L2109.46 265.909 L2105.08 265.909 Q2100.15 265.909 2098.28 264.08 Q2096.4 262.228 2096.4 257.367 L2096.4 243.293 L2093.28 243.293 L2093.28 239.983 L2096.4 239.983 L2096.4 232.622 L2100.68 232.622 Z" fill="#000000" fill-rule="nonzero" fill-opacity="1" /><path clip-path="url(#clip710)" d="M2134.99 235.191 L2134.99 248.177 L2140.87 248.177 Q2144.13 248.177 2145.92 246.487 Q2147.7 244.798 2147.7 241.673 Q2147.7 238.571 2145.92 236.881 Q2144.13 235.191 2140.87 235.191 L2134.99 235.191 M2130.31 231.349 L2140.87 231.349 Q2146.68 231.349 2149.64 233.987 Q2152.63 236.603 2152.63 241.673 Q2152.63 246.788 2149.64 249.404 Q2146.68 252.02 2140.87 252.02 L2134.99 252.02 L2134.99 265.909 L2130.31 265.909 L2130.31 231.349 Z" fill="#000000" fill-rule="nonzero" fill-opacity="1" /><path clip-path="url(#clip710)" d="M2172.93 234.52 Q2167.84 234.52 2164.83 238.316 Q2161.84 242.112 2161.84 248.663 Q2161.84 255.191 2164.83 258.987 Q2167.84 262.784 2172.93 262.784 Q2178.02 262.784 2180.99 258.987 Q2183.97 255.191 2183.97 248.663 Q2183.97 242.112 2180.99 238.316 Q2178.02 234.52 2172.93 234.52 M2172.93 230.724 Q2180.2 230.724 2184.55 235.608 Q2188.9 240.469 2188.9 248.663 Q2188.9 256.835 2184.55 261.719 Q2180.2 266.58 2172.93 266.58 Q2165.64 266.58 2161.26 261.719 Q2156.91 256.858 2156.91 248.663 Q2156.91 240.469 2161.26 235.608 Q2165.64 230.724 2172.93 230.724 Z" fill="#000000" fill-rule="nonzero" fill-opacity="1" /><path clip-path="url(#clip710)" d="M2219.78 260.978 L2219.78 251.696 L2212.14 251.696 L2212.14 247.853 L2224.41 247.853 L2224.41 262.691 Q2221.7 264.612 2218.44 265.608 Q2215.17 266.58 2211.47 266.58 Q2203.37 266.58 2198.79 261.858 Q2194.23 257.112 2194.23 248.663 Q2194.23 240.191 2198.79 235.469 Q2203.37 230.724 2211.47 230.724 Q2214.85 230.724 2217.88 231.557 Q2220.94 232.39 2223.51 234.011 L2223.51 238.987 Q2220.92 236.788 2218 235.677 Q2215.08 234.566 2211.86 234.566 Q2205.52 234.566 2202.33 238.108 Q2199.16 241.649 2199.16 248.663 Q2199.16 255.654 2202.33 259.196 Q2205.52 262.737 2211.86 262.737 Q2214.34 262.737 2216.29 262.321 Q2218.23 261.881 2219.78 260.978 Z" fill="#000000" fill-rule="nonzero" fill-opacity="1" /><path clip-path="url(#clip710)" d="M2232.95 231.349 L2239.92 231.349 L2248.74 254.867 L2257.61 231.349 L2264.57 231.349 L2264.57 265.909 L2260.01 265.909 L2260.01 235.562 L2251.1 259.265 L2246.4 259.265 L2237.49 235.562 L2237.49 265.909 L2232.95 265.909 L2232.95 231.349 Z" fill="#000000" fill-rule="nonzero" fill-opacity="1" /></svg>
