<?xml version="1.0" encoding="utf-8"?>
<svg xmlns="http://www.w3.org/2000/svg" xmlns:xlink="http://www.w3.org/1999/xlink" width="600" height="400" viewBox="0 0 2400 1600">
<defs>
  <clipPath id="clip740">
    <rect x="0" y="0" width="2400" height="1600"/>
  </clipPath>
</defs>
<path clip-path="url(#clip740)" d="M0 1600 L2400 1600 L2400 0 L0 0  Z" fill="#ffffff" fill-rule="evenodd" fill-opacity="1"/>
<defs>
  <clipPath id="clip741">
    <rect x="220" y="47" width="2134" height="1377"/>
  </clipPath>
</defs>
<path clip-path="url(#clip740)" d="M220.19 1423.18 L2352.76 1423.18 L2352.76 47.2441 L220.19 47.2441  Z" fill="#ffffff" fill-rule="evenodd" fill-opacity="1"/>
<polyline clip-path="url(#clip741)" style="stroke:#000000; stroke-linecap:round; stroke-linejoin:round; stroke-width:2; stroke-opacity:0.1; fill:none" points="280.546,1423.18 280.546,47.2441 "/>
<polyline clip-path="url(#clip741)" style="stroke:#000000; stroke-linecap:round; stroke-linejoin:round; stroke-width:2; stroke-opacity:0.1; fill:none" points="682.917,1423.18 682.917,47.2441 "/>
<polyline clip-path="url(#clip741)" style="stroke:#000000; stroke-linecap:round; stroke-linejoin:round; stroke-width:2; stroke-opacity:0.1; fill:none" points="1085.29,1423.18 1085.29,47.2441 "/>
<polyline clip-path="url(#clip741)" style="stroke:#000000; stroke-linecap:round; stroke-linejoin:round; stroke-width:2; stroke-opacity:0.1; fill:none" points="1487.66,1423.18 1487.66,47.2441 "/>
<polyline clip-path="url(#clip741)" style="stroke:#000000; stroke-linecap:round; stroke-linejoin:round; stroke-width:2; stroke-opacity:0.1; fill:none" points="1890.03,1423.18 1890.03,47.2441 "/>
<polyline clip-path="url(#clip741)" style="stroke:#000000; stroke-linecap:round; stroke-linejoin:round; stroke-width:2; stroke-opacity:0.1; fill:none" points="2292.4,1423.18 2292.4,47.2441 "/>
<polyline clip-path="url(#clip741)" style="stroke:#000000; stroke-linecap:round; stroke-linejoin:round; stroke-width:2; stroke-opacity:0.1; fill:none" points="220.19,1423.18 2352.76,1423.18 "/>
<polyline clip-path="url(#clip741)" style="stroke:#000000; stroke-linecap:round; stroke-linejoin:round; stroke-width:2; stroke-opacity:0.1; fill:none" points="220.19,1226.62 2352.76,1226.62 "/>
<polyline clip-path="url(#clip741)" style="stroke:#000000; stroke-linecap:round; stroke-linejoin:round; stroke-width:2; stroke-opacity:0.1; fill:none" points="220.19,1030.06 2352.76,1030.06 "/>
<polyline clip-path="url(#clip741)" style="stroke:#000000; stroke-linecap:round; stroke-linejoin:round; stroke-width:2; stroke-opacity:0.1; fill:none" points="220.19,833.493 2352.76,833.493 "/>
<polyline clip-path="url(#clip741)" style="stroke:#000000; stroke-linecap:round; stroke-linejoin:round; stroke-width:2; stroke-opacity:0.1; fill:none" points="220.19,636.931 2352.76,636.931 "/>
<polyline clip-path="url(#clip741)" style="stroke:#000000; stroke-linecap:round; stroke-linejoin:round; stroke-width:2; stroke-opacity:0.1; fill:none" points="220.19,440.369 2352.76,440.369 "/>
<polyline clip-path="url(#clip741)" style="stroke:#000000; stroke-linecap:round; stroke-linejoin:round; stroke-width:2; stroke-opacity:0.1; fill:none" points="220.19,243.806 2352.76,243.806 "/>
<polyline clip-path="url(#clip741)" style="stroke:#000000; stroke-linecap:round; stroke-linejoin:round; stroke-width:2; stroke-opacity:0.1; fill:none" points="220.19,47.2441 2352.76,47.2441 "/>
<polyline clip-path="url(#clip740)" style="stroke:#000000; stroke-linecap:round; stroke-linejoin:round; stroke-width:4; stroke-opacity:1; fill:none" points="220.19,1423.18 2352.76,1423.18 "/>
<polyline clip-path="url(#clip740)" style="stroke:#000000; stroke-linecap:round; stroke-linejoin:round; stroke-width:4; stroke-opacity:1; fill:none" points="280.546,1423.18 280.546,1404.28 "/>
<polyline clip-path="url(#clip740)" style="stroke:#000000; stroke-linecap:round; stroke-linejoin:round; stroke-width:4; stroke-opacity:1; fill:none" points="682.917,1423.18 682.917,1404.28 "/>
<polyline clip-path="url(#clip740)" style="stroke:#000000; stroke-linecap:round; stroke-linejoin:round; stroke-width:4; stroke-opacity:1; fill:none" points="1085.29,1423.18 1085.29,1404.28 "/>
<polyline clip-path="url(#clip740)" style="stroke:#000000; stroke-linecap:round; stroke-linejoin:round; stroke-width:4; stroke-opacity:1; fill:none" points="1487.66,1423.18 1487.66,1404.28 "/>
<polyline clip-path="url(#clip740)" style="stroke:#000000; stroke-linecap:round; stroke-linejoin:round; stroke-width:4; stroke-opacity:1; fill:none" points="1890.03,1423.18 1890.03,1404.28 "/>
<polyline clip-path="url(#clip740)" style="stroke:#000000; stroke-linecap:round; stroke-linejoin:round; stroke-width:4; stroke-opacity:1; fill:none" points="2292.4,1423.18 2292.4,1404.28 "/>
<path clip-path="url(#clip740)" d="M280.546 1454.1 Q276.935 1454.1 275.106 1457.66 Q273.301 1461.2 273.301 1468.33 Q273.301 1475.44 275.106 1479.01 Q276.935 1482.55 280.546 1482.55 Q284.18 1482.55 285.986 1479.01 Q287.814 1475.44 287.814 1468.33 Q287.814 1461.2 285.986 1457.66 Q284.18 1454.1 280.546 1454.1 M280.546 1450.39 Q286.356 1450.39 289.412 1455 Q292.49 1459.58 292.49 1468.33 Q292.49 1477.06 289.412 1481.67 Q286.356 1486.25 280.546 1486.25 Q274.736 1486.25 271.657 1481.67 Q268.602 1477.06 268.602 1468.33 Q268.602 1459.58 271.657 1455 Q274.736 1450.39 280.546 1450.39 Z" fill="#000000" fill-rule="nonzero" fill-opacity="1" /><path clip-path="url(#clip740)" d="M657.604 1481.64 L665.243 1481.64 L665.243 1455.28 L656.933 1456.95 L656.933 1452.69 L665.197 1451.02 L669.873 1451.02 L669.873 1481.64 L677.512 1481.64 L677.512 1485.58 L657.604 1485.58 L657.604 1481.64 Z" fill="#000000" fill-rule="nonzero" fill-opacity="1" /><path clip-path="url(#clip740)" d="M696.956 1454.1 Q693.345 1454.1 691.516 1457.66 Q689.711 1461.2 689.711 1468.33 Q689.711 1475.44 691.516 1479.01 Q693.345 1482.55 696.956 1482.55 Q700.59 1482.55 702.396 1479.01 Q704.225 1475.44 704.225 1468.33 Q704.225 1461.2 702.396 1457.66 Q700.59 1454.1 696.956 1454.1 M696.956 1450.39 Q702.766 1450.39 705.822 1455 Q708.9 1459.58 708.9 1468.33 Q708.9 1477.06 705.822 1481.67 Q702.766 1486.25 696.956 1486.25 Q691.146 1486.25 688.067 1481.67 Q685.012 1477.06 685.012 1468.33 Q685.012 1459.58 688.067 1455 Q691.146 1450.39 696.956 1450.39 Z" fill="#000000" fill-rule="nonzero" fill-opacity="1" /><path clip-path="url(#clip740)" d="M1064.06 1481.64 L1080.38 1481.64 L1080.38 1485.58 L1058.44 1485.58 L1058.44 1481.64 Q1061.1 1478.89 1065.68 1474.26 Q1070.29 1469.61 1071.47 1468.27 Q1073.71 1465.74 1074.59 1464.01 Q1075.5 1462.25 1075.5 1460.56 Q1075.5 1457.8 1073.55 1456.07 Q1071.63 1454.33 1068.53 1454.33 Q1066.33 1454.33 1063.88 1455.09 Q1061.45 1455.86 1058.67 1457.41 L1058.67 1452.69 Q1061.49 1451.55 1063.95 1450.97 Q1066.4 1450.39 1068.44 1450.39 Q1073.81 1450.39 1077 1453.08 Q1080.2 1455.77 1080.2 1460.26 Q1080.2 1462.39 1079.38 1464.31 Q1078.6 1466.2 1076.49 1468.8 Q1075.91 1469.47 1072.81 1472.69 Q1069.71 1475.88 1064.06 1481.64 Z" fill="#000000" fill-rule="nonzero" fill-opacity="1" /><path clip-path="url(#clip740)" d="M1100.2 1454.1 Q1096.58 1454.1 1094.76 1457.66 Q1092.95 1461.2 1092.95 1468.33 Q1092.95 1475.44 1094.76 1479.01 Q1096.58 1482.55 1100.2 1482.55 Q1103.83 1482.55 1105.63 1479.01 Q1107.46 1475.44 1107.46 1468.33 Q1107.46 1461.2 1105.63 1457.66 Q1103.83 1454.1 1100.2 1454.1 M1100.2 1450.39 Q1106.01 1450.39 1109.06 1455 Q1112.14 1459.58 1112.14 1468.33 Q1112.14 1477.06 1109.06 1481.67 Q1106.01 1486.25 1100.2 1486.25 Q1094.38 1486.25 1091.31 1481.67 Q1088.25 1477.06 1088.25 1468.33 Q1088.25 1459.58 1091.31 1455 Q1094.38 1450.39 1100.2 1450.39 Z" fill="#000000" fill-rule="nonzero" fill-opacity="1" /><path clip-path="url(#clip740)" d="M1476.5 1466.95 Q1479.86 1467.66 1481.73 1469.93 Q1483.63 1472.2 1483.63 1475.53 Q1483.63 1480.65 1480.11 1483.45 Q1476.59 1486.25 1470.11 1486.25 Q1467.94 1486.25 1465.62 1485.81 Q1463.33 1485.39 1460.88 1484.54 L1460.88 1480.02 Q1462.82 1481.16 1465.14 1481.74 Q1467.45 1482.32 1469.97 1482.32 Q1474.37 1482.32 1476.66 1480.58 Q1478.98 1478.84 1478.98 1475.53 Q1478.98 1472.48 1476.83 1470.77 Q1474.7 1469.03 1470.88 1469.03 L1466.85 1469.03 L1466.85 1465.19 L1471.06 1465.19 Q1474.51 1465.19 1476.34 1463.82 Q1478.17 1462.43 1478.17 1459.84 Q1478.17 1457.18 1476.27 1455.77 Q1474.39 1454.33 1470.88 1454.33 Q1468.95 1454.33 1466.76 1454.75 Q1464.56 1455.16 1461.92 1456.04 L1461.92 1451.88 Q1464.58 1451.14 1466.89 1450.77 Q1469.23 1450.39 1471.29 1450.39 Q1476.62 1450.39 1479.72 1452.83 Q1482.82 1455.23 1482.82 1459.35 Q1482.82 1462.22 1481.18 1464.21 Q1479.53 1466.18 1476.5 1466.95 Z" fill="#000000" fill-rule="nonzero" fill-opacity="1" /><path clip-path="url(#clip740)" d="M1502.5 1454.1 Q1498.89 1454.1 1497.06 1457.66 Q1495.25 1461.2 1495.25 1468.33 Q1495.25 1475.44 1497.06 1479.01 Q1498.89 1482.55 1502.5 1482.55 Q1506.13 1482.55 1507.94 1479.01 Q1509.76 1475.44 1509.76 1468.33 Q1509.76 1461.2 1507.94 1457.66 Q1506.13 1454.1 1502.5 1454.1 M1502.5 1450.39 Q1508.31 1450.39 1511.36 1455 Q1514.44 1459.58 1514.44 1468.33 Q1514.44 1477.06 1511.36 1481.67 Q1508.31 1486.25 1502.5 1486.25 Q1496.69 1486.25 1493.61 1481.67 Q1490.55 1477.06 1490.55 1468.33 Q1490.55 1459.58 1493.61 1455 Q1496.69 1450.39 1502.5 1450.39 Z" fill="#000000" fill-rule="nonzero" fill-opacity="1" /><path clip-path="url(#clip740)" d="M1878.2 1455.09 L1866.4 1473.54 L1878.2 1473.54 L1878.2 1455.09 M1876.97 1451.02 L1882.85 1451.02 L1882.85 1473.54 L1887.78 1473.54 L1887.78 1477.43 L1882.85 1477.43 L1882.85 1485.58 L1878.2 1485.58 L1878.2 1477.43 L1862.6 1477.43 L1862.6 1472.92 L1876.97 1451.02 Z" fill="#000000" fill-rule="nonzero" fill-opacity="1" /><path clip-path="url(#clip740)" d="M1905.52 1454.1 Q1901.9 1454.1 1900.08 1457.66 Q1898.27 1461.2 1898.27 1468.33 Q1898.27 1475.44 1900.08 1479.01 Q1901.9 1482.55 1905.52 1482.55 Q1909.15 1482.55 1910.96 1479.01 Q1912.78 1475.44 1912.78 1468.33 Q1912.78 1461.2 1910.96 1457.66 Q1909.15 1454.1 1905.52 1454.1 M1905.52 1450.39 Q1911.33 1450.39 1914.38 1455 Q1917.46 1459.58 1917.46 1468.33 Q1917.46 1477.06 1914.38 1481.67 Q1911.33 1486.25 1905.52 1486.25 Q1899.71 1486.25 1896.63 1481.67 Q1893.57 1477.06 1893.57 1468.33 Q1893.57 1459.58 1896.63 1455 Q1899.71 1450.39 1905.52 1450.39 Z" fill="#000000" fill-rule="nonzero" fill-opacity="1" /><path clip-path="url(#clip740)" d="M2267.1 1451.02 L2285.46 1451.02 L2285.46 1454.96 L2271.38 1454.96 L2271.38 1463.43 Q2272.4 1463.08 2273.42 1462.92 Q2274.44 1462.73 2275.46 1462.73 Q2281.24 1462.73 2284.62 1465.9 Q2288 1469.08 2288 1474.49 Q2288 1480.07 2284.53 1483.17 Q2281.06 1486.25 2274.74 1486.25 Q2272.56 1486.25 2270.29 1485.88 Q2268.05 1485.51 2265.64 1484.77 L2265.64 1480.07 Q2267.72 1481.2 2269.95 1481.76 Q2272.17 1482.32 2274.65 1482.32 Q2278.65 1482.32 2280.99 1480.21 Q2283.33 1478.1 2283.33 1474.49 Q2283.33 1470.88 2280.99 1468.77 Q2278.65 1466.67 2274.65 1466.67 Q2272.77 1466.67 2270.9 1467.08 Q2269.04 1467.5 2267.1 1468.38 L2267.1 1451.02 Z" fill="#000000" fill-rule="nonzero" fill-opacity="1" /><path clip-path="url(#clip740)" d="M2307.22 1454.1 Q2303.6 1454.1 2301.78 1457.66 Q2299.97 1461.2 2299.97 1468.33 Q2299.97 1475.44 2301.78 1479.01 Q2303.6 1482.55 2307.22 1482.55 Q2310.85 1482.55 2312.65 1479.01 Q2314.48 1475.44 2314.48 1468.33 Q2314.48 1461.2 2312.65 1457.66 Q2310.85 1454.1 2307.22 1454.1 M2307.22 1450.39 Q2313.03 1450.39 2316.08 1455 Q2319.16 1459.58 2319.16 1468.33 Q2319.16 1477.06 2316.08 1481.67 Q2313.03 1486.25 2307.22 1486.25 Q2301.4 1486.25 2298.33 1481.67 Q2295.27 1477.06 2295.27 1468.33 Q2295.27 1459.58 2298.33 1455 Q2301.4 1450.39 2307.22 1450.39 Z" fill="#000000" fill-rule="nonzero" fill-opacity="1" /><path clip-path="url(#clip740)" d="M1122.72 1532.4 L1128.57 1532.4 L1128.57 1568.04 L1122.72 1568.04 L1122.72 1532.4 M1122.72 1518.52 L1128.57 1518.52 L1128.57 1525.93 L1122.72 1525.93 L1122.72 1518.52 Z" fill="#000000" fill-rule="nonzero" fill-opacity="1" /><path clip-path="url(#clip740)" d="M1146.62 1522.27 L1146.62 1532.4 L1158.68 1532.4 L1158.68 1536.95 L1146.62 1536.95 L1146.62 1556.3 Q1146.62 1560.66 1147.8 1561.9 Q1149.01 1563.14 1152.67 1563.14 L1158.68 1563.14 L1158.68 1568.04 L1152.67 1568.04 Q1145.89 1568.04 1143.31 1565.53 Q1140.73 1562.98 1140.73 1556.3 L1140.73 1536.95 L1136.43 1536.95 L1136.43 1532.4 L1140.73 1532.4 L1140.73 1522.27 L1146.62 1522.27 Z" fill="#000000" fill-rule="nonzero" fill-opacity="1" /><path clip-path="url(#clip740)" d="M1196.88 1548.76 L1196.88 1551.62 L1169.95 1551.62 Q1170.33 1557.67 1173.58 1560.85 Q1176.86 1564 1182.68 1564 Q1186.05 1564 1189.21 1563.17 Q1192.39 1562.35 1195.51 1560.69 L1195.51 1566.23 Q1192.36 1567.57 1189.05 1568.27 Q1185.74 1568.97 1182.33 1568.97 Q1173.8 1568.97 1168.8 1564 Q1163.84 1559.04 1163.84 1550.57 Q1163.84 1541.82 1168.55 1536.69 Q1173.29 1531.54 1181.31 1531.54 Q1188.5 1531.54 1192.67 1536.18 Q1196.88 1540.8 1196.88 1548.76 M1191.02 1547.04 Q1190.96 1542.23 1188.31 1539.37 Q1185.7 1536.5 1181.38 1536.5 Q1176.47 1536.5 1173.51 1539.27 Q1170.59 1542.04 1170.14 1547.07 L1191.02 1547.04 Z" fill="#000000" fill-rule="nonzero" fill-opacity="1" /><path clip-path="url(#clip740)" d="M1227.14 1537.87 Q1226.16 1537.3 1224.98 1537.04 Q1223.83 1536.76 1222.43 1536.76 Q1217.47 1536.76 1214.8 1540 Q1212.15 1543.22 1212.15 1549.27 L1212.15 1568.04 L1206.27 1568.04 L1206.27 1532.4 L1212.15 1532.4 L1212.15 1537.93 Q1214 1534.69 1216.96 1533.13 Q1219.92 1531.54 1224.15 1531.54 Q1224.76 1531.54 1225.49 1531.63 Q1226.22 1531.7 1227.11 1531.85 L1227.14 1537.87 Z" fill="#000000" fill-rule="nonzero" fill-opacity="1" /><path clip-path="url(#clip740)" d="M1249.49 1550.12 Q1242.39 1550.12 1239.65 1551.75 Q1236.92 1553.37 1236.92 1557.29 Q1236.92 1560.4 1238.95 1562.25 Q1241.02 1564.07 1244.55 1564.07 Q1249.42 1564.07 1252.35 1560.63 Q1255.31 1557.16 1255.31 1551.43 L1255.31 1550.12 L1249.49 1550.12 M1261.17 1547.71 L1261.17 1568.04 L1255.31 1568.04 L1255.31 1562.63 Q1253.31 1565.88 1250.32 1567.44 Q1247.32 1568.97 1243 1568.97 Q1237.52 1568.97 1234.27 1565.91 Q1231.06 1562.82 1231.06 1557.67 Q1231.06 1551.65 1235.07 1548.6 Q1239.11 1545.54 1247.1 1545.54 L1255.31 1545.54 L1255.31 1544.97 Q1255.31 1540.93 1252.64 1538.73 Q1250 1536.5 1245.19 1536.5 Q1242.14 1536.5 1239.24 1537.23 Q1236.34 1537.97 1233.67 1539.43 L1233.67 1534.02 Q1236.88 1532.78 1239.91 1532.17 Q1242.93 1531.54 1245.8 1531.54 Q1253.53 1531.54 1257.35 1535.55 Q1261.17 1539.56 1261.17 1547.71 Z" fill="#000000" fill-rule="nonzero" fill-opacity="1" /><path clip-path="url(#clip740)" d="M1279.03 1522.27 L1279.03 1532.4 L1291.09 1532.4 L1291.09 1536.95 L1279.03 1536.95 L1279.03 1556.3 Q1279.03 1560.66 1280.2 1561.9 Q1281.41 1563.14 1285.07 1563.14 L1291.09 1563.14 L1291.09 1568.04 L1285.07 1568.04 Q1278.29 1568.04 1275.72 1565.53 Q1273.14 1562.98 1273.14 1556.3 L1273.14 1536.95 L1268.84 1536.95 L1268.84 1532.4 L1273.14 1532.4 L1273.14 1522.27 L1279.03 1522.27 Z" fill="#000000" fill-rule="nonzero" fill-opacity="1" /><path clip-path="url(#clip740)" d="M1298.79 1532.4 L1304.65 1532.4 L1304.65 1568.04 L1298.79 1568.04 L1298.79 1532.4 M1298.79 1518.52 L1304.65 1518.52 L1304.65 1525.93 L1298.79 1525.93 L1298.79 1518.52 Z" fill="#000000" fill-rule="nonzero" fill-opacity="1" /><path clip-path="url(#clip740)" d="M1330.71 1536.5 Q1326 1536.5 1323.27 1540.19 Q1320.53 1543.85 1320.53 1550.25 Q1320.53 1556.65 1323.24 1560.34 Q1325.97 1564 1330.71 1564 Q1335.39 1564 1338.13 1560.31 Q1340.87 1556.62 1340.87 1550.25 Q1340.87 1543.92 1338.13 1540.23 Q1335.39 1536.5 1330.71 1536.5 M1330.71 1531.54 Q1338.35 1531.54 1342.71 1536.5 Q1347.07 1541.47 1347.07 1550.25 Q1347.07 1559 1342.71 1564 Q1338.35 1568.97 1330.71 1568.97 Q1323.04 1568.97 1318.68 1564 Q1314.35 1559 1314.35 1550.25 Q1314.35 1541.47 1318.68 1536.5 Q1323.04 1531.54 1330.71 1531.54 Z" fill="#000000" fill-rule="nonzero" fill-opacity="1" /><path clip-path="url(#clip740)" d="M1386.41 1546.53 L1386.41 1568.04 L1380.56 1568.04 L1380.56 1546.72 Q1380.56 1541.66 1378.58 1539.14 Q1376.61 1536.63 1372.66 1536.63 Q1367.92 1536.63 1365.19 1539.65 Q1362.45 1542.68 1362.45 1547.9 L1362.45 1568.04 L1356.56 1568.04 L1356.56 1532.4 L1362.45 1532.4 L1362.45 1537.93 Q1364.55 1534.72 1367.38 1533.13 Q1370.25 1531.54 1373.97 1531.54 Q1380.11 1531.54 1383.26 1535.36 Q1386.41 1539.14 1386.41 1546.53 Z" fill="#000000" fill-rule="nonzero" fill-opacity="1" /><path clip-path="url(#clip740)" d="M1418.59 1518.52 L1424.48 1518.52 L1424.48 1547.77 L1441.96 1532.4 L1449.44 1532.4 L1430.53 1549.07 L1450.23 1568.04 L1442.59 1568.04 L1424.48 1550.63 L1424.48 1568.04 L1418.59 1568.04 L1418.59 1518.52 Z" fill="#000000" fill-rule="nonzero" fill-opacity="1" /><polyline clip-path="url(#clip740)" style="stroke:#000000; stroke-linecap:round; stroke-linejoin:round; stroke-width:4; stroke-opacity:1; fill:none" points="220.19,1423.18 220.19,47.2441 "/>
<polyline clip-path="url(#clip740)" style="stroke:#000000; stroke-linecap:round; stroke-linejoin:round; stroke-width:4; stroke-opacity:1; fill:none" points="220.19,1423.18 239.088,1423.18 "/>
<polyline clip-path="url(#clip740)" style="stroke:#000000; stroke-linecap:round; stroke-linejoin:round; stroke-width:4; stroke-opacity:1; fill:none" points="220.19,1226.62 239.088,1226.62 "/>
<polyline clip-path="url(#clip740)" style="stroke:#000000; stroke-linecap:round; stroke-linejoin:round; stroke-width:4; stroke-opacity:1; fill:none" points="220.19,1030.06 239.088,1030.06 "/>
<polyline clip-path="url(#clip740)" style="stroke:#000000; stroke-linecap:round; stroke-linejoin:round; stroke-width:4; stroke-opacity:1; fill:none" points="220.19,833.493 239.088,833.493 "/>
<polyline clip-path="url(#clip740)" style="stroke:#000000; stroke-linecap:round; stroke-linejoin:round; stroke-width:4; stroke-opacity:1; fill:none" points="220.19,636.931 239.088,636.931 "/>
<polyline clip-path="url(#clip740)" style="stroke:#000000; stroke-linecap:round; stroke-linejoin:round; stroke-width:4; stroke-opacity:1; fill:none" points="220.19,440.369 239.088,440.369 "/>
<polyline clip-path="url(#clip740)" style="stroke:#000000; stroke-linecap:round; stroke-linejoin:round; stroke-width:4; stroke-opacity:1; fill:none" points="220.19,243.806 239.088,243.806 "/>
<polyline clip-path="url(#clip740)" style="stroke:#000000; stroke-linecap:round; stroke-linejoin:round; stroke-width:4; stroke-opacity:1; fill:none" points="220.19,47.2441 239.088,47.2441 "/>
<path clip-path="url(#clip740)" d="M131.181 1421.83 Q134.538 1422.54 136.413 1424.81 Q138.311 1427.08 138.311 1430.41 Q138.311 1435.53 134.792 1438.33 Q131.274 1441.13 124.793 1441.13 Q122.617 1441.13 120.302 1440.69 Q118.01 1440.27 115.556 1439.42 L115.556 1434.9 Q117.501 1436.04 119.816 1436.62 Q122.13 1437.2 124.654 1437.2 Q129.052 1437.2 131.343 1435.46 Q133.658 1433.72 133.658 1430.41 Q133.658 1427.36 131.505 1425.65 Q129.376 1423.91 125.556 1423.91 L121.529 1423.91 L121.529 1420.07 L125.742 1420.07 Q129.191 1420.07 131.019 1418.7 Q132.848 1417.31 132.848 1414.72 Q132.848 1412.06 130.95 1410.65 Q129.075 1409.21 125.556 1409.21 Q123.635 1409.21 121.436 1409.63 Q119.237 1410.04 116.598 1410.92 L116.598 1406.76 Q119.26 1406.02 121.575 1405.65 Q123.913 1405.27 125.973 1405.27 Q131.297 1405.27 134.399 1407.71 Q137.501 1410.11 137.501 1414.23 Q137.501 1417.1 135.857 1419.09 Q134.214 1421.06 131.181 1421.83 Z" fill="#000000" fill-rule="nonzero" fill-opacity="1" /><path clip-path="url(#clip740)" d="M147.177 1434.58 L152.061 1434.58 L152.061 1440.46 L147.177 1440.46 L147.177 1434.58 Z" fill="#000000" fill-rule="nonzero" fill-opacity="1" /><path clip-path="url(#clip740)" d="M172.246 1408.98 Q168.635 1408.98 166.806 1412.54 Q165.001 1416.08 165.001 1423.21 Q165.001 1430.32 166.806 1433.89 Q168.635 1437.43 172.246 1437.43 Q175.88 1437.43 177.686 1433.89 Q179.514 1430.32 179.514 1423.21 Q179.514 1416.08 177.686 1412.54 Q175.88 1408.98 172.246 1408.98 M172.246 1405.27 Q178.056 1405.27 181.112 1409.88 Q184.19 1414.46 184.19 1423.21 Q184.19 1431.94 181.112 1436.55 Q178.056 1441.13 172.246 1441.13 Q166.436 1441.13 163.357 1436.55 Q160.302 1431.94 160.302 1423.21 Q160.302 1414.46 163.357 1409.88 Q166.436 1405.27 172.246 1405.27 Z" fill="#000000" fill-rule="nonzero" fill-opacity="1" /><path clip-path="url(#clip740)" d="M132.177 1225.26 Q135.533 1225.98 137.408 1228.25 Q139.306 1230.52 139.306 1233.85 Q139.306 1238.97 135.788 1241.77 Q132.269 1244.57 125.788 1244.57 Q123.612 1244.57 121.297 1244.13 Q119.006 1243.71 116.552 1242.86 L116.552 1238.34 Q118.496 1239.48 120.811 1240.06 Q123.126 1240.63 125.649 1240.63 Q130.047 1240.63 132.339 1238.9 Q134.654 1237.16 134.654 1233.85 Q134.654 1230.8 132.501 1229.08 Q130.371 1227.35 126.552 1227.35 L122.524 1227.35 L122.524 1223.5 L126.737 1223.5 Q130.186 1223.5 132.015 1222.14 Q133.843 1220.75 133.843 1218.16 Q133.843 1215.49 131.945 1214.08 Q130.07 1212.65 126.552 1212.65 Q124.63 1212.65 122.431 1213.06 Q120.232 1213.48 117.593 1214.36 L117.593 1210.19 Q120.255 1209.45 122.57 1209.08 Q124.908 1208.71 126.968 1208.71 Q132.292 1208.71 135.394 1211.14 Q138.496 1213.55 138.496 1217.67 Q138.496 1220.54 136.853 1222.53 Q135.209 1224.5 132.177 1225.26 Z" fill="#000000" fill-rule="nonzero" fill-opacity="1" /><path clip-path="url(#clip740)" d="M148.172 1238.02 L153.056 1238.02 L153.056 1243.9 L148.172 1243.9 L148.172 1238.02 Z" fill="#000000" fill-rule="nonzero" fill-opacity="1" /><path clip-path="url(#clip740)" d="M163.288 1209.34 L181.644 1209.34 L181.644 1213.27 L167.57 1213.27 L167.57 1221.74 Q168.589 1221.4 169.607 1221.24 Q170.626 1221.05 171.644 1221.05 Q177.431 1221.05 180.811 1224.22 Q184.19 1227.39 184.19 1232.81 Q184.19 1238.39 180.718 1241.49 Q177.246 1244.57 170.927 1244.57 Q168.751 1244.57 166.482 1244.2 Q164.237 1243.83 161.829 1243.09 L161.829 1238.39 Q163.913 1239.52 166.135 1240.08 Q168.357 1240.63 170.834 1240.63 Q174.839 1240.63 177.176 1238.53 Q179.514 1236.42 179.514 1232.81 Q179.514 1229.2 177.176 1227.09 Q174.839 1224.99 170.834 1224.99 Q168.959 1224.99 167.084 1225.4 Q165.232 1225.82 163.288 1226.7 L163.288 1209.34 Z" fill="#000000" fill-rule="nonzero" fill-opacity="1" /><path clip-path="url(#clip740)" d="M129.862 1016.85 L118.056 1035.3 L129.862 1035.3 L129.862 1016.85 M128.635 1012.78 L134.515 1012.78 L134.515 1035.3 L139.445 1035.3 L139.445 1039.19 L134.515 1039.19 L134.515 1047.34 L129.862 1047.34 L129.862 1039.19 L114.26 1039.19 L114.26 1034.67 L128.635 1012.78 Z" fill="#000000" fill-rule="nonzero" fill-opacity="1" /><path clip-path="url(#clip740)" d="M147.177 1041.46 L152.061 1041.46 L152.061 1047.34 L147.177 1047.34 L147.177 1041.46 Z" fill="#000000" fill-rule="nonzero" fill-opacity="1" /><path clip-path="url(#clip740)" d="M172.246 1015.85 Q168.635 1015.85 166.806 1019.42 Q165.001 1022.96 165.001 1030.09 Q165.001 1037.2 166.806 1040.76 Q168.635 1044.3 172.246 1044.3 Q175.88 1044.3 177.686 1040.76 Q179.514 1037.2 179.514 1030.09 Q179.514 1022.96 177.686 1019.42 Q175.88 1015.85 172.246 1015.85 M172.246 1012.15 Q178.056 1012.15 181.112 1016.76 Q184.19 1021.34 184.19 1030.09 Q184.19 1038.82 181.112 1043.42 Q178.056 1048.01 172.246 1048.01 Q166.436 1048.01 163.357 1043.42 Q160.302 1038.82 160.302 1030.09 Q160.302 1021.34 163.357 1016.76 Q166.436 1012.15 172.246 1012.15 Z" fill="#000000" fill-rule="nonzero" fill-opacity="1" /><path clip-path="url(#clip740)" d="M130.857 820.287 L119.052 838.736 L130.857 838.736 L130.857 820.287 M129.63 816.213 L135.51 816.213 L135.51 838.736 L140.441 838.736 L140.441 842.625 L135.51 842.625 L135.51 850.773 L130.857 850.773 L130.857 842.625 L115.256 842.625 L115.256 838.111 L129.63 816.213 Z" fill="#000000" fill-rule="nonzero" fill-opacity="1" /><path clip-path="url(#clip740)" d="M148.172 844.893 L153.056 844.893 L153.056 850.773 L148.172 850.773 L148.172 844.893 Z" fill="#000000" fill-rule="nonzero" fill-opacity="1" /><path clip-path="url(#clip740)" d="M163.288 816.213 L181.644 816.213 L181.644 820.148 L167.57 820.148 L167.57 828.62 Q168.589 828.273 169.607 828.111 Q170.626 827.926 171.644 827.926 Q177.431 827.926 180.811 831.097 Q184.19 834.269 184.19 839.685 Q184.19 845.264 180.718 848.366 Q177.246 851.444 170.927 851.444 Q168.751 851.444 166.482 851.074 Q164.237 850.704 161.829 849.963 L161.829 845.264 Q163.913 846.398 166.135 846.954 Q168.357 847.509 170.834 847.509 Q174.839 847.509 177.176 845.403 Q179.514 843.296 179.514 839.685 Q179.514 836.074 177.176 833.968 Q174.839 831.861 170.834 831.861 Q168.959 831.861 167.084 832.278 Q165.232 832.694 163.288 833.574 L163.288 816.213 Z" fill="#000000" fill-rule="nonzero" fill-opacity="1" /><path clip-path="url(#clip740)" d="M117.061 619.651 L135.417 619.651 L135.417 623.586 L121.343 623.586 L121.343 632.058 Q122.362 631.711 123.38 631.549 Q124.399 631.364 125.418 631.364 Q131.205 631.364 134.584 634.535 Q137.964 637.706 137.964 643.123 Q137.964 648.702 134.492 651.803 Q131.019 654.882 124.7 654.882 Q122.524 654.882 120.255 654.512 Q118.01 654.141 115.603 653.401 L115.603 648.702 Q117.686 649.836 119.908 650.391 Q122.13 650.947 124.607 650.947 Q128.612 650.947 130.95 648.841 Q133.288 646.734 133.288 643.123 Q133.288 639.512 130.95 637.405 Q128.612 635.299 124.607 635.299 Q122.732 635.299 120.857 635.716 Q119.006 636.132 117.061 637.012 L117.061 619.651 Z" fill="#000000" fill-rule="nonzero" fill-opacity="1" /><path clip-path="url(#clip740)" d="M147.177 648.331 L152.061 648.331 L152.061 654.211 L147.177 654.211 L147.177 648.331 Z" fill="#000000" fill-rule="nonzero" fill-opacity="1" /><path clip-path="url(#clip740)" d="M172.246 622.73 Q168.635 622.73 166.806 626.294 Q165.001 629.836 165.001 636.966 Q165.001 644.072 166.806 647.637 Q168.635 651.178 172.246 651.178 Q175.88 651.178 177.686 647.637 Q179.514 644.072 179.514 636.966 Q179.514 629.836 177.686 626.294 Q175.88 622.73 172.246 622.73 M172.246 619.026 Q178.056 619.026 181.112 623.632 Q184.19 628.216 184.19 636.966 Q184.19 645.692 181.112 650.299 Q178.056 654.882 172.246 654.882 Q166.436 654.882 163.357 650.299 Q160.302 645.692 160.302 636.966 Q160.302 628.216 163.357 623.632 Q166.436 619.026 172.246 619.026 Z" fill="#000000" fill-rule="nonzero" fill-opacity="1" /><path clip-path="url(#clip740)" d="M118.056 423.089 L136.413 423.089 L136.413 427.024 L122.339 427.024 L122.339 435.496 Q123.357 435.149 124.376 434.987 Q125.394 434.801 126.413 434.801 Q132.2 434.801 135.579 437.973 Q138.959 441.144 138.959 446.561 Q138.959 452.139 135.487 455.241 Q132.015 458.32 125.695 458.32 Q123.519 458.32 121.251 457.95 Q119.006 457.579 116.598 456.838 L116.598 452.139 Q118.681 453.274 120.904 453.829 Q123.126 454.385 125.603 454.385 Q129.607 454.385 131.945 452.278 Q134.283 450.172 134.283 446.561 Q134.283 442.95 131.945 440.843 Q129.607 438.737 125.603 438.737 Q123.728 438.737 121.853 439.153 Q120.001 439.57 118.056 440.45 L118.056 423.089 Z" fill="#000000" fill-rule="nonzero" fill-opacity="1" /><path clip-path="url(#clip740)" d="M148.172 451.769 L153.056 451.769 L153.056 457.649 L148.172 457.649 L148.172 451.769 Z" fill="#000000" fill-rule="nonzero" fill-opacity="1" /><path clip-path="url(#clip740)" d="M163.288 423.089 L181.644 423.089 L181.644 427.024 L167.57 427.024 L167.57 435.496 Q168.589 435.149 169.607 434.987 Q170.626 434.801 171.644 434.801 Q177.431 434.801 180.811 437.973 Q184.19 441.144 184.19 446.561 Q184.19 452.139 180.718 455.241 Q177.246 458.32 170.927 458.32 Q168.751 458.32 166.482 457.95 Q164.237 457.579 161.829 456.838 L161.829 452.139 Q163.913 453.274 166.135 453.829 Q168.357 454.385 170.834 454.385 Q174.839 454.385 177.176 452.278 Q179.514 450.172 179.514 446.561 Q179.514 442.95 177.176 440.843 Q174.839 438.737 170.834 438.737 Q168.959 438.737 167.084 439.153 Q165.232 439.57 163.288 440.45 L163.288 423.089 Z" fill="#000000" fill-rule="nonzero" fill-opacity="1" /><path clip-path="url(#clip740)" d="M127.593 241.943 Q124.445 241.943 122.593 244.096 Q120.765 246.248 120.765 249.998 Q120.765 253.725 122.593 255.901 Q124.445 258.054 127.593 258.054 Q130.742 258.054 132.57 255.901 Q134.422 253.725 134.422 249.998 Q134.422 246.248 132.57 244.096 Q130.742 241.943 127.593 241.943 M136.876 227.29 L136.876 231.549 Q135.117 230.716 133.311 230.276 Q131.529 229.837 129.769 229.837 Q125.14 229.837 122.686 232.961 Q120.255 236.086 119.908 242.406 Q121.274 240.392 123.334 239.327 Q125.394 238.239 127.871 238.239 Q133.08 238.239 136.089 241.411 Q139.121 244.559 139.121 249.998 Q139.121 255.322 135.973 258.54 Q132.825 261.758 127.593 261.758 Q121.598 261.758 118.427 257.174 Q115.256 252.568 115.256 243.841 Q115.256 235.647 119.144 230.786 Q123.033 225.901 129.584 225.901 Q131.343 225.901 133.126 226.249 Q134.931 226.596 136.876 227.29 Z" fill="#000000" fill-rule="nonzero" fill-opacity="1" /><path clip-path="url(#clip740)" d="M147.177 255.207 L152.061 255.207 L152.061 261.086 L147.177 261.086 L147.177 255.207 Z" fill="#000000" fill-rule="nonzero" fill-opacity="1" /><path clip-path="url(#clip740)" d="M172.246 229.605 Q168.635 229.605 166.806 233.17 Q165.001 236.711 165.001 243.841 Q165.001 250.948 166.806 254.512 Q168.635 258.054 172.246 258.054 Q175.88 258.054 177.686 254.512 Q179.514 250.948 179.514 243.841 Q179.514 236.711 177.686 233.17 Q175.88 229.605 172.246 229.605 M172.246 225.901 Q178.056 225.901 181.112 230.508 Q184.19 235.091 184.19 243.841 Q184.19 252.568 181.112 257.174 Q178.056 261.758 172.246 261.758 Q166.436 261.758 163.357 257.174 Q160.302 252.568 160.302 243.841 Q160.302 235.091 163.357 230.508 Q166.436 225.901 172.246 225.901 Z" fill="#000000" fill-rule="nonzero" fill-opacity="1" /><path clip-path="url(#clip740)" d="M128.589 45.3807 Q125.441 45.3807 123.589 47.5334 Q121.76 49.6862 121.76 53.4362 Q121.76 57.163 123.589 59.3389 Q125.441 61.4917 128.589 61.4917 Q131.737 61.4917 133.566 59.3389 Q135.417 57.163 135.417 53.4362 Q135.417 49.6862 133.566 47.5334 Q131.737 45.3807 128.589 45.3807 M137.871 30.728 L137.871 34.9872 Q136.112 34.1539 134.306 33.7141 Q132.524 33.2743 130.765 33.2743 Q126.135 33.2743 123.681 36.3992 Q121.251 39.5242 120.904 45.8436 Q122.269 43.8298 124.33 42.765 Q126.39 41.677 128.867 41.677 Q134.075 41.677 137.084 44.8483 Q140.117 47.9964 140.117 53.4362 Q140.117 58.7602 136.968 61.9778 Q133.82 65.1954 128.589 65.1954 Q122.593 65.1954 119.422 60.6121 Q116.251 56.0056 116.251 47.2788 Q116.251 39.0844 120.14 34.2233 Q124.029 29.3391 130.58 29.3391 Q132.339 29.3391 134.121 29.6863 Q135.927 30.0335 137.871 30.728 Z" fill="#000000" fill-rule="nonzero" fill-opacity="1" /><path clip-path="url(#clip740)" d="M148.172 58.6445 L153.056 58.6445 L153.056 64.5241 L148.172 64.5241 L148.172 58.6445 Z" fill="#000000" fill-rule="nonzero" fill-opacity="1" /><path clip-path="url(#clip740)" d="M163.288 29.9641 L181.644 29.9641 L181.644 33.8993 L167.57 33.8993 L167.57 42.3714 Q168.589 42.0242 169.607 41.8622 Q170.626 41.677 171.644 41.677 Q177.431 41.677 180.811 44.8483 Q184.19 48.0196 184.19 53.4362 Q184.19 59.0149 180.718 62.1167 Q177.246 65.1954 170.927 65.1954 Q168.751 65.1954 166.482 64.825 Q164.237 64.4547 161.829 63.7139 L161.829 59.0149 Q163.913 60.1491 166.135 60.7047 Q168.357 61.2602 170.834 61.2602 Q174.839 61.2602 177.176 59.1538 Q179.514 57.0473 179.514 53.4362 Q179.514 49.8251 177.176 47.7186 Q174.839 45.6122 170.834 45.6122 Q168.959 45.6122 167.084 46.0288 Q165.232 46.4455 163.288 47.3251 L163.288 29.9641 Z" fill="#000000" fill-rule="nonzero" fill-opacity="1" /><path clip-path="url(#clip740)" d="M16.4842 887.973 L16.4842 879.316 L56.238 858.245 L16.4842 858.245 L16.4842 852.007 L64.0042 852.007 L64.0042 860.664 L24.2503 881.735 L64.0042 881.735 L64.0042 887.973 L16.4842 887.973 Z" fill="#000000" fill-rule="nonzero" fill-opacity="1" /><path clip-path="url(#clip740)" d="M41.7242 816.677 Q42.4244 814.608 44.7161 812.667 Q47.0077 810.693 51.0181 808.72 L64.0042 802.195 L64.0042 809.102 L51.8138 815.181 Q47.0395 817.536 45.48 819.764 Q43.9204 821.961 43.9204 825.78 L43.9204 832.782 L64.0042 832.782 L64.0042 839.212 L16.4842 839.212 L16.4842 824.698 Q16.4842 816.55 19.8898 812.539 Q23.2955 808.529 30.1704 808.529 Q34.6582 808.529 37.6183 810.63 Q40.5784 812.699 41.7242 816.677 M21.7677 832.782 L38.6368 832.782 L38.6368 824.698 Q38.6368 820.051 36.5043 817.696 Q34.34 815.308 30.1704 815.308 Q26.0009 815.308 23.9002 817.696 Q21.7677 820.051 21.7677 824.698 L21.7677 832.782 Z" fill="#000000" fill-rule="nonzero" fill-opacity="1" /><path clip-path="url(#clip740)" d="M16.4842 793.92 L16.4842 784.339 L48.8219 772.213 L16.4842 760.022 L16.4842 750.442 L64.0042 750.442 L64.0042 756.712 L22.277 756.712 L54.8694 768.966 L54.8694 775.427 L22.277 787.681 L64.0042 787.681 L64.0042 793.92 L16.4842 793.92 Z" fill="#000000" fill-rule="nonzero" fill-opacity="1" /><path clip-path="url(#clip740)" d="M18.0438 709.192 L24.314 709.192 Q22.5634 712.852 21.704 716.099 Q20.8447 719.345 20.8447 722.369 Q20.8447 727.621 22.8817 730.485 Q24.9187 733.318 28.6745 733.318 Q31.8255 733.318 33.4488 731.44 Q35.0402 729.531 36.0269 724.247 L36.8226 720.364 Q38.1912 713.171 41.6605 709.765 Q45.098 706.328 50.8908 706.328 Q57.7976 706.328 61.3624 710.975 Q64.9272 715.59 64.9272 724.533 Q64.9272 727.907 64.1633 731.727 Q63.3994 735.514 61.9035 739.588 L55.2831 739.588 Q57.4793 735.673 58.5933 731.918 Q59.7073 728.162 59.7073 724.533 Q59.7073 719.027 57.543 716.035 Q55.3786 713.043 51.3682 713.043 Q47.8671 713.043 45.8937 715.208 Q43.9204 717.34 42.9337 722.242 L42.1698 726.157 Q40.7375 733.35 37.682 736.565 Q34.6264 739.779 29.1837 739.779 Q22.8817 739.779 19.2532 735.355 Q15.6248 730.899 15.6248 723.101 Q15.6248 719.759 16.2295 716.29 Q16.8343 712.821 18.0438 709.192 Z" fill="#000000" fill-rule="nonzero" fill-opacity="1" /><path clip-path="url(#clip740)" d="M16.4842 696.302 L16.4842 666.255 L21.895 666.255 L21.895 689.872 L35.9632 689.872 L35.9632 667.242 L41.3741 667.242 L41.3741 689.872 L58.5933 689.872 L58.5933 665.683 L64.0042 665.683 L64.0042 696.302 L16.4842 696.302 Z" fill="#000000" fill-rule="nonzero" fill-opacity="1" /><path clip-path="url(#clip740)" d="M43.0928 593.4 Q43.0928 596.169 45.4481 597.76 Q47.8034 599.32 52.0048 599.32 Q56.1425 599.32 58.5296 597.76 Q60.885 596.169 60.885 593.4 Q60.885 590.695 58.5296 589.135 Q56.1425 587.543 52.0048 587.543 Q47.8353 587.543 45.48 589.135 Q43.0928 590.695 43.0928 593.4 M39.0506 593.4 Q39.0506 588.371 42.5517 585.411 Q46.0529 582.451 52.0048 582.451 Q57.9567 582.451 61.4579 585.443 Q64.9272 588.403 64.9272 593.4 Q64.9272 598.493 61.4579 601.453 Q57.9567 604.413 52.0048 604.413 Q46.021 604.413 42.5517 601.453 Q39.0506 598.461 39.0506 593.4 M19.667 626.247 Q19.667 628.984 22.0542 630.576 Q24.4095 632.135 28.5472 632.135 Q32.7485 632.135 35.1038 630.576 Q37.4592 629.016 37.4592 626.247 Q37.4592 623.478 35.1038 621.918 Q32.7485 620.327 28.5472 620.327 Q24.4413 620.327 22.0542 621.918 Q19.667 623.51 19.667 626.247 M15.6248 597.506 L15.6248 592.413 L64.9272 622.141 L64.9272 627.234 L15.6248 597.506 M15.6248 626.247 Q15.6248 621.218 19.1259 618.226 Q22.5952 615.234 28.5472 615.234 Q34.5628 615.234 38.0321 618.226 Q41.5014 621.186 41.5014 626.247 Q41.5014 631.308 38.0321 634.268 Q34.5309 637.196 28.5472 637.196 Q22.6271 637.196 19.1259 634.236 Q15.6248 631.276 15.6248 626.247 Z" fill="#000000" fill-rule="nonzero" fill-opacity="1" /><circle clip-path="url(#clip741)" cx="280.546" cy="165.181" r="14.4" fill="#009af9" fill-rule="evenodd" fill-opacity="1" stroke="none"/>
<circle clip-path="url(#clip741)" cx="320.783" cy="243.806" r="14.4" fill="#009af9" fill-rule="evenodd" fill-opacity="1" stroke="none"/>
<circle clip-path="url(#clip741)" cx="361.02" cy="361.744" r="14.4" fill="#009af9" fill-rule="evenodd" fill-opacity="1" stroke="none"/>
<circle clip-path="url(#clip741)" cx="401.257" cy="401.056" r="14.4" fill="#009af9" fill-rule="evenodd" fill-opacity="1" stroke="none"/>
<circle clip-path="url(#clip741)" cx="441.494" cy="479.681" r="14.4" fill="#009af9" fill-rule="evenodd" fill-opacity="1" stroke="none"/>
<circle clip-path="url(#clip741)" cx="481.731" cy="518.993" r="14.4" fill="#009af9" fill-rule="evenodd" fill-opacity="1" stroke="none"/>
<circle clip-path="url(#clip741)" cx="521.968" cy="597.618" r="14.4" fill="#009af9" fill-rule="evenodd" fill-opacity="1" stroke="none"/>
<circle clip-path="url(#clip741)" cx="562.206" cy="636.931" r="14.4" fill="#009af9" fill-rule="evenodd" fill-opacity="1" stroke="none"/>
<circle clip-path="url(#clip741)" cx="602.443" cy="676.243" r="14.4" fill="#009af9" fill-rule="evenodd" fill-opacity="1" stroke="none"/>
<circle clip-path="url(#clip741)" cx="642.68" cy="715.556" r="14.4" fill="#009af9" fill-rule="evenodd" fill-opacity="1" stroke="none"/>
<circle clip-path="url(#clip741)" cx="682.917" cy="754.868" r="14.4" fill="#009af9" fill-rule="evenodd" fill-opacity="1" stroke="none"/>
<circle clip-path="url(#clip741)" cx="723.154" cy="754.868" r="14.4" fill="#009af9" fill-rule="evenodd" fill-opacity="1" stroke="none"/>
<circle clip-path="url(#clip741)" cx="763.391" cy="794.181" r="14.4" fill="#009af9" fill-rule="evenodd" fill-opacity="1" stroke="none"/>
<circle clip-path="url(#clip741)" cx="803.628" cy="833.493" r="14.4" fill="#009af9" fill-rule="evenodd" fill-opacity="1" stroke="none"/>
<circle clip-path="url(#clip741)" cx="843.865" cy="833.493" r="14.4" fill="#009af9" fill-rule="evenodd" fill-opacity="1" stroke="none"/>
<circle clip-path="url(#clip741)" cx="884.102" cy="872.806" r="14.4" fill="#009af9" fill-rule="evenodd" fill-opacity="1" stroke="none"/>
<circle clip-path="url(#clip741)" cx="924.339" cy="872.806" r="14.4" fill="#009af9" fill-rule="evenodd" fill-opacity="1" stroke="none"/>
<circle clip-path="url(#clip741)" cx="964.576" cy="912.118" r="14.4" fill="#009af9" fill-rule="evenodd" fill-opacity="1" stroke="none"/>
<circle clip-path="url(#clip741)" cx="1004.81" cy="912.118" r="14.4" fill="#009af9" fill-rule="evenodd" fill-opacity="1" stroke="none"/>
<circle clip-path="url(#clip741)" cx="1045.05" cy="951.43" r="14.4" fill="#009af9" fill-rule="evenodd" fill-opacity="1" stroke="none"/>
<circle clip-path="url(#clip741)" cx="1085.29" cy="951.43" r="14.4" fill="#009af9" fill-rule="evenodd" fill-opacity="1" stroke="none"/>
<circle clip-path="url(#clip741)" cx="1125.52" cy="951.43" r="14.4" fill="#009af9" fill-rule="evenodd" fill-opacity="1" stroke="none"/>
<circle clip-path="url(#clip741)" cx="1165.76" cy="990.743" r="14.4" fill="#009af9" fill-rule="evenodd" fill-opacity="1" stroke="none"/>
<circle clip-path="url(#clip741)" cx="1206" cy="990.743" r="14.4" fill="#009af9" fill-rule="evenodd" fill-opacity="1" stroke="none"/>
<circle clip-path="url(#clip741)" cx="1246.24" cy="990.743" r="14.4" fill="#009af9" fill-rule="evenodd" fill-opacity="1" stroke="none"/>
<circle clip-path="url(#clip741)" cx="1286.47" cy="1030.06" r="14.4" fill="#009af9" fill-rule="evenodd" fill-opacity="1" stroke="none"/>
<circle clip-path="url(#clip741)" cx="1326.71" cy="1030.06" r="14.4" fill="#009af9" fill-rule="evenodd" fill-opacity="1" stroke="none"/>
<circle clip-path="url(#clip741)" cx="1366.95" cy="1030.06" r="14.4" fill="#009af9" fill-rule="evenodd" fill-opacity="1" stroke="none"/>
<circle clip-path="url(#clip741)" cx="1407.18" cy="1030.06" r="14.4" fill="#009af9" fill-rule="evenodd" fill-opacity="1" stroke="none"/>
<circle clip-path="url(#clip741)" cx="1447.42" cy="1069.37" r="14.4" fill="#009af9" fill-rule="evenodd" fill-opacity="1" stroke="none"/>
<circle clip-path="url(#clip741)" cx="1487.66" cy="1069.37" r="14.4" fill="#009af9" fill-rule="evenodd" fill-opacity="1" stroke="none"/>
<circle clip-path="url(#clip741)" cx="1527.9" cy="1069.37" r="14.4" fill="#009af9" fill-rule="evenodd" fill-opacity="1" stroke="none"/>
<circle clip-path="url(#clip741)" cx="1568.13" cy="1069.37" r="14.4" fill="#009af9" fill-rule="evenodd" fill-opacity="1" stroke="none"/>
<circle clip-path="url(#clip741)" cx="1608.37" cy="1108.68" r="14.4" fill="#009af9" fill-rule="evenodd" fill-opacity="1" stroke="none"/>
<circle clip-path="url(#clip741)" cx="1648.61" cy="1108.68" r="14.4" fill="#009af9" fill-rule="evenodd" fill-opacity="1" stroke="none"/>
<circle clip-path="url(#clip741)" cx="1688.84" cy="1108.68" r="14.4" fill="#009af9" fill-rule="evenodd" fill-opacity="1" stroke="none"/>
<circle clip-path="url(#clip741)" cx="1729.08" cy="1108.68" r="14.4" fill="#009af9" fill-rule="evenodd" fill-opacity="1" stroke="none"/>
<circle clip-path="url(#clip741)" cx="1769.32" cy="1108.68" r="14.4" fill="#009af9" fill-rule="evenodd" fill-opacity="1" stroke="none"/>
<circle clip-path="url(#clip741)" cx="1809.56" cy="1108.68" r="14.4" fill="#009af9" fill-rule="evenodd" fill-opacity="1" stroke="none"/>
<circle clip-path="url(#clip741)" cx="1849.79" cy="1147.99" r="14.4" fill="#009af9" fill-rule="evenodd" fill-opacity="1" stroke="none"/>
<circle clip-path="url(#clip741)" cx="1890.03" cy="1147.99" r="14.4" fill="#009af9" fill-rule="evenodd" fill-opacity="1" stroke="none"/>
<circle clip-path="url(#clip741)" cx="1930.27" cy="1147.99" r="14.4" fill="#009af9" fill-rule="evenodd" fill-opacity="1" stroke="none"/>
<circle clip-path="url(#clip741)" cx="1970.5" cy="1147.99" r="14.4" fill="#009af9" fill-rule="evenodd" fill-opacity="1" stroke="none"/>
<circle clip-path="url(#clip741)" cx="2010.74" cy="1147.99" r="14.4" fill="#009af9" fill-rule="evenodd" fill-opacity="1" stroke="none"/>
<circle clip-path="url(#clip741)" cx="2050.98" cy="1147.99" r="14.4" fill="#009af9" fill-rule="evenodd" fill-opacity="1" stroke="none"/>
<circle clip-path="url(#clip741)" cx="2091.21" cy="1147.99" r="14.4" fill="#009af9" fill-rule="evenodd" fill-opacity="1" stroke="none"/>
<circle clip-path="url(#clip741)" cx="2131.45" cy="1147.99" r="14.4" fill="#009af9" fill-rule="evenodd" fill-opacity="1" stroke="none"/>
<circle clip-path="url(#clip741)" cx="2171.69" cy="1187.31" r="14.4" fill="#009af9" fill-rule="evenodd" fill-opacity="1" stroke="none"/>
<circle clip-path="url(#clip741)" cx="2211.93" cy="1187.31" r="14.4" fill="#009af9" fill-rule="evenodd" fill-opacity="1" stroke="none"/>
<circle clip-path="url(#clip741)" cx="2252.16" cy="1187.31" r="14.4" fill="#009af9" fill-rule="evenodd" fill-opacity="1" stroke="none"/>
<circle clip-path="url(#clip741)" cx="2292.4" cy="1187.31" r="14.4" fill="#009af9" fill-rule="evenodd" fill-opacity="1" stroke="none"/>
<path clip-path="url(#clip741)" d="M264.546 149.181 L264.546 181.181 L296.546 181.181 L296.546 149.181 L264.546 149.181 Z" fill="#e26f46" fill-rule="evenodd" fill-opacity="1" stroke="none"/>
<path clip-path="url(#clip741)" d="M304.783 227.806 L304.783 259.806 L336.783 259.806 L336.783 227.806 L304.783 227.806 Z" fill="#e26f46" fill-rule="evenodd" fill-opacity="1" stroke="none"/>
<path clip-path="url(#clip741)" d="M345.02 345.744 L345.02 377.744 L377.02 377.744 L377.02 345.744 L345.02 345.744 Z" fill="#e26f46" fill-rule="evenodd" fill-opacity="1" stroke="none"/>
<path clip-path="url(#clip741)" d="M385.257 424.369 L385.257 456.369 L417.257 456.369 L417.257 424.369 L385.257 424.369 Z" fill="#e26f46" fill-rule="evenodd" fill-opacity="1" stroke="none"/>
<path clip-path="url(#clip741)" d="M425.494 502.993 L425.494 534.993 L457.494 534.993 L457.494 502.993 L425.494 502.993 Z" fill="#e26f46" fill-rule="evenodd" fill-opacity="1" stroke="none"/>
<path clip-path="url(#clip741)" d="M465.731 581.618 L465.731 613.618 L497.731 613.618 L497.731 581.618 L465.731 581.618 Z" fill="#e26f46" fill-rule="evenodd" fill-opacity="1" stroke="none"/>
<path clip-path="url(#clip741)" d="M505.968 660.243 L505.968 692.243 L537.968 692.243 L537.968 660.243 L505.968 660.243 Z" fill="#e26f46" fill-rule="evenodd" fill-opacity="1" stroke="none"/>
<path clip-path="url(#clip741)" d="M546.206 738.868 L546.206 770.868 L578.206 770.868 L578.206 738.868 L546.206 738.868 Z" fill="#e26f46" fill-rule="evenodd" fill-opacity="1" stroke="none"/>
<path clip-path="url(#clip741)" d="M586.443 817.493 L586.443 849.493 L618.443 849.493 L618.443 817.493 L586.443 817.493 Z" fill="#e26f46" fill-rule="evenodd" fill-opacity="1" stroke="none"/>
<path clip-path="url(#clip741)" d="M626.68 856.806 L626.68 888.806 L658.68 888.806 L658.68 856.806 L626.68 856.806 Z" fill="#e26f46" fill-rule="evenodd" fill-opacity="1" stroke="none"/>
<path clip-path="url(#clip741)" d="M666.917 935.43 L666.917 967.43 L698.917 967.43 L698.917 935.43 L666.917 935.43 Z" fill="#e26f46" fill-rule="evenodd" fill-opacity="1" stroke="none"/>
<path clip-path="url(#clip741)" d="M707.154 974.743 L707.154 1006.74 L739.154 1006.74 L739.154 974.743 L707.154 974.743 Z" fill="#e26f46" fill-rule="evenodd" fill-opacity="1" stroke="none"/>
<path clip-path="url(#clip741)" d="M747.391 1014.06 L747.391 1046.06 L779.391 1046.06 L779.391 1014.06 L747.391 1014.06 Z" fill="#e26f46" fill-rule="evenodd" fill-opacity="1" stroke="none"/>
<path clip-path="url(#clip741)" d="M787.628 1053.37 L787.628 1085.37 L819.628 1085.37 L819.628 1053.37 L787.628 1053.37 Z" fill="#e26f46" fill-rule="evenodd" fill-opacity="1" stroke="none"/>
<path clip-path="url(#clip741)" d="M827.865 1053.37 L827.865 1085.37 L859.865 1085.37 L859.865 1053.37 L827.865 1053.37 Z" fill="#e26f46" fill-rule="evenodd" fill-opacity="1" stroke="none"/>
<path clip-path="url(#clip741)" d="M868.102 1092.68 L868.102 1124.68 L900.102 1124.68 L900.102 1092.68 L868.102 1092.68 Z" fill="#e26f46" fill-rule="evenodd" fill-opacity="1" stroke="none"/>
<path clip-path="url(#clip741)" d="M908.339 1131.99 L908.339 1163.99 L940.339 1163.99 L940.339 1131.99 L908.339 1131.99 Z" fill="#e26f46" fill-rule="evenodd" fill-opacity="1" stroke="none"/>
<path clip-path="url(#clip741)" d="M948.576 1131.99 L948.576 1163.99 L980.576 1163.99 L980.576 1131.99 L948.576 1131.99 Z" fill="#e26f46" fill-rule="evenodd" fill-opacity="1" stroke="none"/>
<path clip-path="url(#clip741)" d="M988.814 1131.99 L988.814 1163.99 L1020.81 1163.99 L1020.81 1131.99 L988.814 1131.99 Z" fill="#e26f46" fill-rule="evenodd" fill-opacity="1" stroke="none"/>
<path clip-path="url(#clip741)" d="M1029.05 1171.31 L1029.05 1203.31 L1061.05 1203.31 L1061.05 1171.31 L1029.05 1171.31 Z" fill="#e26f46" fill-rule="evenodd" fill-opacity="1" stroke="none"/>
<path clip-path="url(#clip741)" d="M1069.29 1171.31 L1069.29 1203.31 L1101.29 1203.31 L1101.29 1171.31 L1069.29 1171.31 Z" fill="#e26f46" fill-rule="evenodd" fill-opacity="1" stroke="none"/>
<path clip-path="url(#clip741)" d="M1109.52 1171.31 L1109.52 1203.31 L1141.52 1203.31 L1141.52 1171.31 L1109.52 1171.31 Z" fill="#e26f46" fill-rule="evenodd" fill-opacity="1" stroke="none"/>
<path clip-path="url(#clip741)" d="M1149.76 1210.62 L1149.76 1242.62 L1181.76 1242.62 L1181.76 1210.62 L1149.76 1210.62 Z" fill="#e26f46" fill-rule="evenodd" fill-opacity="1" stroke="none"/>
<path clip-path="url(#clip741)" d="M1190 1210.62 L1190 1242.62 L1222 1242.62 L1222 1210.62 L1190 1210.62 Z" fill="#e26f46" fill-rule="evenodd" fill-opacity="1" stroke="none"/>
<path clip-path="url(#clip741)" d="M1230.24 1210.62 L1230.24 1242.62 L1262.24 1242.62 L1262.24 1210.62 L1230.24 1210.62 Z" fill="#e26f46" fill-rule="evenodd" fill-opacity="1" stroke="none"/>
<path clip-path="url(#clip741)" d="M1270.47 1210.62 L1270.47 1242.62 L1302.47 1242.62 L1302.47 1210.62 L1270.47 1210.62 Z" fill="#e26f46" fill-rule="evenodd" fill-opacity="1" stroke="none"/>
<path clip-path="url(#clip741)" d="M1310.71 1249.93 L1310.71 1281.93 L1342.71 1281.93 L1342.71 1249.93 L1310.71 1249.93 Z" fill="#e26f46" fill-rule="evenodd" fill-opacity="1" stroke="none"/>
<path clip-path="url(#clip741)" d="M1350.95 1249.93 L1350.95 1281.93 L1382.95 1281.93 L1382.95 1249.93 L1350.95 1249.93 Z" fill="#e26f46" fill-rule="evenodd" fill-opacity="1" stroke="none"/>
<path clip-path="url(#clip741)" d="M1391.18 1249.93 L1391.18 1281.93 L1423.18 1281.93 L1423.18 1249.93 L1391.18 1249.93 Z" fill="#e26f46" fill-rule="evenodd" fill-opacity="1" stroke="none"/>
<path clip-path="url(#clip741)" d="M1431.42 1249.93 L1431.42 1281.93 L1463.42 1281.93 L1463.42 1249.93 L1431.42 1249.93 Z" fill="#e26f46" fill-rule="evenodd" fill-opacity="1" stroke="none"/>
<path clip-path="url(#clip741)" d="M1471.66 1249.93 L1471.66 1281.93 L1503.66 1281.93 L1503.66 1249.93 L1471.66 1249.93 Z" fill="#e26f46" fill-rule="evenodd" fill-opacity="1" stroke="none"/>
<path clip-path="url(#clip741)" d="M1511.9 1249.93 L1511.9 1281.93 L1543.9 1281.93 L1543.9 1249.93 L1511.9 1249.93 Z" fill="#e26f46" fill-rule="evenodd" fill-opacity="1" stroke="none"/>
<path clip-path="url(#clip741)" d="M1552.13 1249.93 L1552.13 1281.93 L1584.13 1281.93 L1584.13 1249.93 L1552.13 1249.93 Z" fill="#e26f46" fill-rule="evenodd" fill-opacity="1" stroke="none"/>
<path clip-path="url(#clip741)" d="M1592.37 1249.93 L1592.37 1281.93 L1624.37 1281.93 L1624.37 1249.93 L1592.37 1249.93 Z" fill="#e26f46" fill-rule="evenodd" fill-opacity="1" stroke="none"/>
<path clip-path="url(#clip741)" d="M1632.61 1249.93 L1632.61 1281.93 L1664.61 1281.93 L1664.61 1249.93 L1632.61 1249.93 Z" fill="#e26f46" fill-rule="evenodd" fill-opacity="1" stroke="none"/>
<path clip-path="url(#clip741)" d="M1672.84 1249.93 L1672.84 1281.93 L1704.84 1281.93 L1704.84 1249.93 L1672.84 1249.93 Z" fill="#e26f46" fill-rule="evenodd" fill-opacity="1" stroke="none"/>
<path clip-path="url(#clip741)" d="M1713.08 1249.93 L1713.08 1281.93 L1745.08 1281.93 L1745.08 1249.93 L1713.08 1249.93 Z" fill="#e26f46" fill-rule="evenodd" fill-opacity="1" stroke="none"/>
<path clip-path="url(#clip741)" d="M1753.32 1249.93 L1753.32 1281.93 L1785.32 1281.93 L1785.32 1249.93 L1753.32 1249.93 Z" fill="#e26f46" fill-rule="evenodd" fill-opacity="1" stroke="none"/>
<path clip-path="url(#clip741)" d="M1793.56 1249.93 L1793.56 1281.93 L1825.56 1281.93 L1825.56 1249.93 L1793.56 1249.93 Z" fill="#e26f46" fill-rule="evenodd" fill-opacity="1" stroke="none"/>
<path clip-path="url(#clip741)" d="M1833.79 1249.93 L1833.79 1281.93 L1865.79 1281.93 L1865.79 1249.93 L1833.79 1249.93 Z" fill="#e26f46" fill-rule="evenodd" fill-opacity="1" stroke="none"/>
<path clip-path="url(#clip741)" d="M1874.03 1249.93 L1874.03 1281.93 L1906.03 1281.93 L1906.03 1249.93 L1874.03 1249.93 Z" fill="#e26f46" fill-rule="evenodd" fill-opacity="1" stroke="none"/>
<path clip-path="url(#clip741)" d="M1914.27 1289.24 L1914.27 1321.24 L1946.27 1321.24 L1946.27 1289.24 L1914.27 1289.24 Z" fill="#e26f46" fill-rule="evenodd" fill-opacity="1" stroke="none"/>
<path clip-path="url(#clip741)" d="M1954.5 1289.24 L1954.5 1321.24 L1986.5 1321.24 L1986.5 1289.24 L1954.5 1289.24 Z" fill="#e26f46" fill-rule="evenodd" fill-opacity="1" stroke="none"/>
<path clip-path="url(#clip741)" d="M1994.74 1289.24 L1994.74 1321.24 L2026.74 1321.24 L2026.74 1289.24 L1994.74 1289.24 Z" fill="#e26f46" fill-rule="evenodd" fill-opacity="1" stroke="none"/>
<path clip-path="url(#clip741)" d="M2034.98 1289.24 L2034.98 1321.24 L2066.98 1321.24 L2066.98 1289.24 L2034.98 1289.24 Z" fill="#e26f46" fill-rule="evenodd" fill-opacity="1" stroke="none"/>
<path clip-path="url(#clip741)" d="M2075.21 1289.24 L2075.21 1321.24 L2107.21 1321.24 L2107.21 1289.24 L2075.21 1289.24 Z" fill="#e26f46" fill-rule="evenodd" fill-opacity="1" stroke="none"/>
<path clip-path="url(#clip741)" d="M2115.45 1289.24 L2115.45 1321.24 L2147.45 1321.24 L2147.45 1289.24 L2115.45 1289.24 Z" fill="#e26f46" fill-rule="evenodd" fill-opacity="1" stroke="none"/>
<path clip-path="url(#clip741)" d="M2155.69 1289.24 L2155.69 1321.24 L2187.69 1321.24 L2187.69 1289.24 L2155.69 1289.24 Z" fill="#e26f46" fill-rule="evenodd" fill-opacity="1" stroke="none"/>
<path clip-path="url(#clip741)" d="M2195.93 1289.24 L2195.93 1321.24 L2227.93 1321.24 L2227.93 1289.24 L2195.93 1289.24 Z" fill="#e26f46" fill-rule="evenodd" fill-opacity="1" stroke="none"/>
<path clip-path="url(#clip741)" d="M2236.16 1289.24 L2236.16 1321.24 L2268.16 1321.24 L2268.16 1289.24 L2236.16 1289.24 Z" fill="#e26f46" fill-rule="evenodd" fill-opacity="1" stroke="none"/>
<path clip-path="url(#clip741)" d="M2276.4 1289.24 L2276.4 1321.24 L2308.4 1321.24 L2308.4 1289.24 L2276.4 1289.24 Z" fill="#e26f46" fill-rule="evenodd" fill-opacity="1" stroke="none"/>
<path clip-path="url(#clip741)" d="M280.546 149.181 L264.546 181.181 L296.546 181.181 L280.546 149.181 Z" fill="#3da44d" fill-rule="evenodd" fill-opacity="1" stroke="none"/>
<path clip-path="url(#clip741)" d="M320.783 227.806 L304.783 259.806 L336.783 259.806 L320.783 227.806 Z" fill="#3da44d" fill-rule="evenodd" fill-opacity="1" stroke="none"/>
<path clip-path="url(#clip741)" d="M361.02 385.056 L345.02 417.056 L377.02 417.056 L361.02 385.056 Z" fill="#3da44d" fill-rule="evenodd" fill-opacity="1" stroke="none"/>
<path clip-path="url(#clip741)" d="M401.257 502.993 L385.257 534.993 L417.257 534.993 L401.257 502.993 Z" fill="#3da44d" fill-rule="evenodd" fill-opacity="1" stroke="none"/>
<path clip-path="url(#clip741)" d="M441.494 620.931 L425.494 652.931 L457.494 652.931 L441.494 620.931 Z" fill="#3da44d" fill-rule="evenodd" fill-opacity="1" stroke="none"/>
<path clip-path="url(#clip741)" d="M481.731 738.868 L465.731 770.868 L497.731 770.868 L481.731 738.868 Z" fill="#3da44d" fill-rule="evenodd" fill-opacity="1" stroke="none"/>
<path clip-path="url(#clip741)" d="M521.968 817.493 L505.968 849.493 L537.968 849.493 L521.968 817.493 Z" fill="#3da44d" fill-rule="evenodd" fill-opacity="1" stroke="none"/>
<path clip-path="url(#clip741)" d="M562.206 896.118 L546.206 928.118 L578.206 928.118 L562.206 896.118 Z" fill="#3da44d" fill-rule="evenodd" fill-opacity="1" stroke="none"/>
<path clip-path="url(#clip741)" d="M602.443 974.743 L586.443 1006.74 L618.443 1006.74 L602.443 974.743 Z" fill="#3da44d" fill-rule="evenodd" fill-opacity="1" stroke="none"/>
<path clip-path="url(#clip741)" d="M642.68 1014.06 L626.68 1046.06 L658.68 1046.06 L642.68 1014.06 Z" fill="#3da44d" fill-rule="evenodd" fill-opacity="1" stroke="none"/>
<path clip-path="url(#clip741)" d="M682.917 1053.37 L666.917 1085.37 L698.917 1085.37 L682.917 1053.37 Z" fill="#3da44d" fill-rule="evenodd" fill-opacity="1" stroke="none"/>
<path clip-path="url(#clip741)" d="M723.154 1092.68 L707.154 1124.68 L739.154 1124.68 L723.154 1092.68 Z" fill="#3da44d" fill-rule="evenodd" fill-opacity="1" stroke="none"/>
<path clip-path="url(#clip741)" d="M763.391 1131.99 L747.391 1163.99 L779.391 1163.99 L763.391 1131.99 Z" fill="#3da44d" fill-rule="evenodd" fill-opacity="1" stroke="none"/>
<path clip-path="url(#clip741)" d="M803.628 1171.31 L787.628 1203.31 L819.628 1203.31 L803.628 1171.31 Z" fill="#3da44d" fill-rule="evenodd" fill-opacity="1" stroke="none"/>
<path clip-path="url(#clip741)" d="M843.865 1171.31 L827.865 1203.31 L859.865 1203.31 L843.865 1171.31 Z" fill="#3da44d" fill-rule="evenodd" fill-opacity="1" stroke="none"/>
<path clip-path="url(#clip741)" d="M884.102 1210.62 L868.102 1242.62 L900.102 1242.62 L884.102 1210.62 Z" fill="#3da44d" fill-rule="evenodd" fill-opacity="1" stroke="none"/>
<path clip-path="url(#clip741)" d="M924.339 1210.62 L908.339 1242.62 L940.339 1242.62 L924.339 1210.62 Z" fill="#3da44d" fill-rule="evenodd" fill-opacity="1" stroke="none"/>
<path clip-path="url(#clip741)" d="M964.576 1210.62 L948.576 1242.62 L980.576 1242.62 L964.576 1210.62 Z" fill="#3da44d" fill-rule="evenodd" fill-opacity="1" stroke="none"/>
<path clip-path="url(#clip741)" d="M1004.81 1249.93 L988.814 1281.93 L1020.81 1281.93 L1004.81 1249.93 Z" fill="#3da44d" fill-rule="evenodd" fill-opacity="1" stroke="none"/>
<path clip-path="url(#clip741)" d="M1045.05 1249.93 L1029.05 1281.93 L1061.05 1281.93 L1045.05 1249.93 Z" fill="#3da44d" fill-rule="evenodd" fill-opacity="1" stroke="none"/>
<path clip-path="url(#clip741)" d="M1085.29 1249.93 L1069.29 1281.93 L1101.29 1281.93 L1085.29 1249.93 Z" fill="#3da44d" fill-rule="evenodd" fill-opacity="1" stroke="none"/>
<path clip-path="url(#clip741)" d="M1125.52 1249.93 L1109.52 1281.93 L1141.52 1281.93 L1125.52 1249.93 Z" fill="#3da44d" fill-rule="evenodd" fill-opacity="1" stroke="none"/>
<path clip-path="url(#clip741)" d="M1165.76 1249.93 L1149.76 1281.93 L1181.76 1281.93 L1165.76 1249.93 Z" fill="#3da44d" fill-rule="evenodd" fill-opacity="1" stroke="none"/>
<path clip-path="url(#clip741)" d="M1206 1249.93 L1190 1281.93 L1222 1281.93 L1206 1249.93 Z" fill="#3da44d" fill-rule="evenodd" fill-opacity="1" stroke="none"/>
<path clip-path="url(#clip741)" d="M1246.24 1249.93 L1230.24 1281.93 L1262.24 1281.93 L1246.24 1249.93 Z" fill="#3da44d" fill-rule="evenodd" fill-opacity="1" stroke="none"/>
<path clip-path="url(#clip741)" d="M1286.47 1249.93 L1270.47 1281.93 L1302.47 1281.93 L1286.47 1249.93 Z" fill="#3da44d" fill-rule="evenodd" fill-opacity="1" stroke="none"/>
<path clip-path="url(#clip741)" d="M1326.71 1249.93 L1310.71 1281.93 L1342.71 1281.93 L1326.71 1249.93 Z" fill="#3da44d" fill-rule="evenodd" fill-opacity="1" stroke="none"/>
<path clip-path="url(#clip741)" d="M1366.95 1249.93 L1350.95 1281.93 L1382.95 1281.93 L1366.95 1249.93 Z" fill="#3da44d" fill-rule="evenodd" fill-opacity="1" stroke="none"/>
<path clip-path="url(#clip741)" d="M1407.18 1249.93 L1391.18 1281.93 L1423.18 1281.93 L1407.18 1249.93 Z" fill="#3da44d" fill-rule="evenodd" fill-opacity="1" stroke="none"/>
<path clip-path="url(#clip741)" d="M1447.42 1249.93 L1431.42 1281.93 L1463.42 1281.93 L1447.42 1249.93 Z" fill="#3da44d" fill-rule="evenodd" fill-opacity="1" stroke="none"/>
<path clip-path="url(#clip741)" d="M1487.66 1289.24 L1471.66 1321.24 L1503.66 1321.24 L1487.66 1289.24 Z" fill="#3da44d" fill-rule="evenodd" fill-opacity="1" stroke="none"/>
<path clip-path="url(#clip741)" d="M1527.9 1289.24 L1511.9 1321.24 L1543.9 1321.24 L1527.9 1289.24 Z" fill="#3da44d" fill-rule="evenodd" fill-opacity="1" stroke="none"/>
<path clip-path="url(#clip741)" d="M1568.13 1289.24 L1552.13 1321.24 L1584.13 1321.24 L1568.13 1289.24 Z" fill="#3da44d" fill-rule="evenodd" fill-opacity="1" stroke="none"/>
<path clip-path="url(#clip741)" d="M1608.37 1289.24 L1592.37 1321.24 L1624.37 1321.24 L1608.37 1289.24 Z" fill="#3da44d" fill-rule="evenodd" fill-opacity="1" stroke="none"/>
<path clip-path="url(#clip741)" d="M1648.61 1289.24 L1632.61 1321.24 L1664.61 1321.24 L1648.61 1289.24 Z" fill="#3da44d" fill-rule="evenodd" fill-opacity="1" stroke="none"/>
<path clip-path="url(#clip741)" d="M1688.84 1289.24 L1672.84 1321.24 L1704.84 1321.24 L1688.84 1289.24 Z" fill="#3da44d" fill-rule="evenodd" fill-opacity="1" stroke="none"/>
<path clip-path="url(#clip741)" d="M1729.08 1289.24 L1713.08 1321.24 L1745.08 1321.24 L1729.08 1289.24 Z" fill="#3da44d" fill-rule="evenodd" fill-opacity="1" stroke="none"/>
<path clip-path="url(#clip741)" d="M1769.32 1289.24 L1753.32 1321.24 L1785.32 1321.24 L1769.32 1289.24 Z" fill="#3da44d" fill-rule="evenodd" fill-opacity="1" stroke="none"/>
<path clip-path="url(#clip741)" d="M1809.56 1289.24 L1793.56 1321.24 L1825.56 1321.24 L1809.56 1289.24 Z" fill="#3da44d" fill-rule="evenodd" fill-opacity="1" stroke="none"/>
<path clip-path="url(#clip741)" d="M1849.79 1289.24 L1833.79 1321.24 L1865.79 1321.24 L1849.79 1289.24 Z" fill="#3da44d" fill-rule="evenodd" fill-opacity="1" stroke="none"/>
<path clip-path="url(#clip741)" d="M1890.03 1289.24 L1874.03 1321.24 L1906.03 1321.24 L1890.03 1289.24 Z" fill="#3da44d" fill-rule="evenodd" fill-opacity="1" stroke="none"/>
<path clip-path="url(#clip741)" d="M1930.27 1289.24 L1914.27 1321.24 L1946.27 1321.24 L1930.27 1289.24 Z" fill="#3da44d" fill-rule="evenodd" fill-opacity="1" stroke="none"/>
<path clip-path="url(#clip741)" d="M1970.5 1289.24 L1954.5 1321.24 L1986.5 1321.24 L1970.5 1289.24 Z" fill="#3da44d" fill-rule="evenodd" fill-opacity="1" stroke="none"/>
<path clip-path="url(#clip741)" d="M2010.74 1289.24 L1994.74 1321.24 L2026.74 1321.24 L2010.74 1289.24 Z" fill="#3da44d" fill-rule="evenodd" fill-opacity="1" stroke="none"/>
<path clip-path="url(#clip741)" d="M2050.98 1289.24 L2034.98 1321.24 L2066.98 1321.24 L2050.98 1289.24 Z" fill="#3da44d" fill-rule="evenodd" fill-opacity="1" stroke="none"/>
<path clip-path="url(#clip741)" d="M2091.21 1289.24 L2075.21 1321.24 L2107.21 1321.24 L2091.21 1289.24 Z" fill="#3da44d" fill-rule="evenodd" fill-opacity="1" stroke="none"/>
<path clip-path="url(#clip741)" d="M2131.45 1289.24 L2115.45 1321.24 L2147.45 1321.24 L2131.45 1289.24 Z" fill="#3da44d" fill-rule="evenodd" fill-opacity="1" stroke="none"/>
<path clip-path="url(#clip741)" d="M2171.69 1289.24 L2155.69 1321.24 L2187.69 1321.24 L2171.69 1289.24 Z" fill="#3da44d" fill-rule="evenodd" fill-opacity="1" stroke="none"/>
<path clip-path="url(#clip741)" d="M2211.93 1289.24 L2195.93 1321.24 L2227.93 1321.24 L2211.93 1289.24 Z" fill="#3da44d" fill-rule="evenodd" fill-opacity="1" stroke="none"/>
<path clip-path="url(#clip741)" d="M2252.16 1289.24 L2236.16 1321.24 L2268.16 1321.24 L2252.16 1289.24 Z" fill="#3da44d" fill-rule="evenodd" fill-opacity="1" stroke="none"/>
<path clip-path="url(#clip741)" d="M2292.4 1289.24 L2276.4 1321.24 L2308.4 1321.24 L2292.4 1289.24 Z" fill="#3da44d" fill-rule="evenodd" fill-opacity="1" stroke="none"/>
<path clip-path="url(#clip740)" d="M1749.73 300.469 L2281.67 300.469 L2281.67 93.1086 L1749.73 93.1086  Z" fill="#ffffff" fill-rule="evenodd" fill-opacity="1"/>
<polyline clip-path="url(#clip740)" style="stroke:#000000; stroke-linecap:round; stroke-linejoin:round; stroke-width:4; stroke-opacity:1; fill:none" points="1749.73,300.469 2281.67,300.469 2281.67,93.1086 1749.73,93.1086 1749.73,300.469 "/>
<circle clip-path="url(#clip740)" cx="1844.52" cy="144.949" r="20.48" fill="#009af9" fill-rule="evenodd" fill-opacity="1" stroke="none"/>
<path clip-path="url(#clip740)" d="M1939.3 127.669 L1945.59 127.669 L1960.92 156.581 L1960.92 127.669 L1965.45 127.669 L1965.45 162.229 L1959.16 162.229 L1943.83 133.317 L1943.83 162.229 L1939.3 162.229 L1939.3 127.669 Z" fill="#000000" fill-rule="nonzero" fill-opacity="1" /><path clip-path="url(#clip740)" d="M1991.15 146.025 Q1992.65 146.534 1994.06 148.201 Q1995.5 149.868 1996.93 152.784 L2001.68 162.229 L1996.66 162.229 L1992.24 153.363 Q1990.52 149.891 1988.9 148.756 Q1987.31 147.622 1984.53 147.622 L1979.44 147.622 L1979.44 162.229 L1974.76 162.229 L1974.76 127.669 L1985.31 127.669 Q1991.24 127.669 1994.16 130.145 Q1997.07 132.622 1997.07 137.622 Q1997.07 140.886 1995.55 143.039 Q1994.04 145.192 1991.15 146.025 M1979.44 131.511 L1979.44 143.78 L1985.31 143.78 Q1988.69 143.78 1990.41 142.229 Q1992.14 140.655 1992.14 137.622 Q1992.14 134.59 1990.41 133.062 Q1988.69 131.511 1985.31 131.511 L1979.44 131.511 Z" fill="#000000" fill-rule="nonzero" fill-opacity="1" /><path clip-path="url(#clip740)" d="M2007.7 127.669 L2014.67 127.669 L2023.49 151.187 L2032.35 127.669 L2039.32 127.669 L2039.32 162.229 L2034.76 162.229 L2034.76 131.882 L2025.85 155.585 L2021.15 155.585 L2012.24 131.882 L2012.24 162.229 L2007.7 162.229 L2007.7 127.669 Z" fill="#000000" fill-rule="nonzero" fill-opacity="1" /><path clip-path="url(#clip740)" d="M2069.32 128.803 L2069.32 133.363 Q2066.66 132.09 2064.3 131.465 Q2061.93 130.84 2059.74 130.84 Q2055.92 130.84 2053.83 132.321 Q2051.77 133.803 2051.77 136.534 Q2051.77 138.826 2053.14 140.007 Q2054.53 141.164 2058.37 141.882 L2061.19 142.46 Q2066.43 143.456 2068.9 145.979 Q2071.4 148.479 2071.4 152.692 Q2071.4 157.715 2068.02 160.307 Q2064.67 162.9 2058.16 162.9 Q2055.71 162.9 2052.93 162.344 Q2050.18 161.789 2047.21 160.701 L2047.21 155.886 Q2050.06 157.483 2052.79 158.293 Q2055.52 159.104 2058.16 159.104 Q2062.17 159.104 2064.34 157.53 Q2066.52 155.956 2066.52 153.039 Q2066.52 150.493 2064.94 149.057 Q2063.39 147.622 2059.83 146.905 L2056.98 146.349 Q2051.75 145.307 2049.41 143.085 Q2047.07 140.863 2047.07 136.905 Q2047.07 132.321 2050.29 129.682 Q2053.53 127.044 2059.2 127.044 Q2061.63 127.044 2064.16 127.483 Q2066.68 127.923 2069.32 128.803 Z" fill="#000000" fill-rule="nonzero" fill-opacity="1" /><path clip-path="url(#clip740)" d="M2078.69 127.669 L2100.55 127.669 L2100.55 131.604 L2083.37 131.604 L2083.37 141.835 L2099.83 141.835 L2099.83 145.77 L2083.37 145.77 L2083.37 158.293 L2100.96 158.293 L2100.96 162.229 L2078.69 162.229 L2078.69 127.669 Z" fill="#000000" fill-rule="nonzero" fill-opacity="1" /><path clip-path="url(#clip740)" d="M2123.72 127.669 L2128.39 127.669 L2128.39 162.229 L2123.72 162.229 L2123.72 127.669 Z" fill="#000000" fill-rule="nonzero" fill-opacity="1" /><path clip-path="url(#clip740)" d="M2158.42 128.803 L2158.42 133.363 Q2155.75 132.09 2153.39 131.465 Q2151.03 130.84 2148.83 130.84 Q2145.01 130.84 2142.93 132.321 Q2140.87 133.803 2140.87 136.534 Q2140.87 138.826 2142.24 140.007 Q2143.62 141.164 2147.47 141.882 L2150.29 142.46 Q2155.52 143.456 2158 145.979 Q2160.5 148.479 2160.5 152.692 Q2160.5 157.715 2157.12 160.307 Q2153.76 162.9 2147.26 162.9 Q2144.8 162.9 2142.03 162.344 Q2139.27 161.789 2136.31 160.701 L2136.31 155.886 Q2139.16 157.483 2141.89 158.293 Q2144.62 159.104 2147.26 159.104 Q2151.26 159.104 2153.44 157.53 Q2155.61 155.956 2155.61 153.039 Q2155.61 150.493 2154.04 149.057 Q2152.49 147.622 2148.92 146.905 L2146.08 146.349 Q2140.85 145.307 2138.51 143.085 Q2136.17 140.863 2136.17 136.905 Q2136.17 132.321 2139.39 129.682 Q2142.63 127.044 2148.3 127.044 Q2150.73 127.044 2153.25 127.483 Q2155.78 127.923 2158.42 128.803 Z" fill="#000000" fill-rule="nonzero" fill-opacity="1" /><path clip-path="url(#clip740)" d="M2163 127.669 L2192.23 127.669 L2192.23 131.604 L2179.97 131.604 L2179.97 162.229 L2175.27 162.229 L2175.27 131.604 L2163 131.604 L2163 127.669 Z" fill="#000000" fill-rule="nonzero" fill-opacity="1" /><path clip-path="url(#clip740)" d="M2204.62 132.275 L2198.28 149.474 L2210.98 149.474 L2204.62 132.275 M2201.98 127.669 L2207.28 127.669 L2220.45 162.229 L2215.59 162.229 L2212.44 153.363 L2196.86 153.363 L2193.72 162.229 L2188.79 162.229 L2201.98 127.669 Z" fill="#000000" fill-rule="nonzero" fill-opacity="1" /><path clip-path="url(#clip740)" d="M1821.76 174.033 L1821.76 219.544 L1867.27 219.544 L1867.27 174.033 L1821.76 174.033 Z" fill="#e26f46" fill-rule="evenodd" fill-opacity="1" stroke="none"/>
<path clip-path="url(#clip740)" d="M1939.3 179.509 L1945.59 179.509 L1960.92 208.421 L1960.92 179.509 L1965.45 179.509 L1965.45 214.069 L1959.16 214.069 L1943.83 185.157 L1943.83 214.069 L1939.3 214.069 L1939.3 179.509 Z" fill="#000000" fill-rule="nonzero" fill-opacity="1" /><path clip-path="url(#clip740)" d="M1991.15 197.865 Q1992.65 198.374 1994.06 200.041 Q1995.5 201.708 1996.93 204.624 L2001.68 214.069 L1996.66 214.069 L1992.24 205.203 Q1990.52 201.731 1988.9 200.596 Q1987.31 199.462 1984.53 199.462 L1979.44 199.462 L1979.44 214.069 L1974.76 214.069 L1974.76 179.509 L1985.31 179.509 Q1991.24 179.509 1994.16 181.985 Q1997.07 184.462 1997.07 189.462 Q1997.07 192.726 1995.55 194.879 Q1994.04 197.032 1991.15 197.865 M1979.44 183.351 L1979.44 195.62 L1985.31 195.62 Q1988.69 195.62 1990.41 194.069 Q1992.14 192.495 1992.14 189.462 Q1992.14 186.43 1990.41 184.902 Q1988.69 183.351 1985.31 183.351 L1979.44 183.351 Z" fill="#000000" fill-rule="nonzero" fill-opacity="1" /><path clip-path="url(#clip740)" d="M2007.7 179.509 L2014.67 179.509 L2023.49 203.027 L2032.35 179.509 L2039.32 179.509 L2039.32 214.069 L2034.76 214.069 L2034.76 183.722 L2025.85 207.425 L2021.15 207.425 L2012.24 183.722 L2012.24 214.069 L2007.7 214.069 L2007.7 179.509 Z" fill="#000000" fill-rule="nonzero" fill-opacity="1" /><path clip-path="url(#clip740)" d="M2069.32 180.643 L2069.32 185.203 Q2066.66 183.93 2064.3 183.305 Q2061.93 182.68 2059.74 182.68 Q2055.92 182.68 2053.83 184.161 Q2051.77 185.643 2051.77 188.374 Q2051.77 190.666 2053.14 191.847 Q2054.53 193.004 2058.37 193.722 L2061.19 194.3 Q2066.43 195.296 2068.9 197.819 Q2071.4 200.319 2071.4 204.532 Q2071.4 209.555 2068.02 212.147 Q2064.67 214.74 2058.16 214.74 Q2055.71 214.74 2052.93 214.184 Q2050.18 213.629 2047.21 212.541 L2047.21 207.726 Q2050.06 209.323 2052.79 210.133 Q2055.52 210.944 2058.16 210.944 Q2062.17 210.944 2064.34 209.37 Q2066.52 207.796 2066.52 204.879 Q2066.52 202.333 2064.94 200.897 Q2063.39 199.462 2059.83 198.745 L2056.98 198.189 Q2051.75 197.147 2049.41 194.925 Q2047.07 192.703 2047.07 188.745 Q2047.07 184.161 2050.29 181.522 Q2053.53 178.884 2059.2 178.884 Q2061.63 178.884 2064.16 179.323 Q2066.68 179.763 2069.32 180.643 Z" fill="#000000" fill-rule="nonzero" fill-opacity="1" /><path clip-path="url(#clip740)" d="M2078.69 179.509 L2100.55 179.509 L2100.55 183.444 L2083.37 183.444 L2083.37 193.675 L2099.83 193.675 L2099.83 197.61 L2083.37 197.61 L2083.37 210.133 L2100.96 210.133 L2100.96 214.069 L2078.69 214.069 L2078.69 179.509 Z" fill="#000000" fill-rule="nonzero" fill-opacity="1" /><path clip-path="url(#clip740)" d="M2123.72 179.509 L2143.58 179.509 L2143.58 183.444 L2128.39 183.444 L2128.39 193.629 L2142.1 193.629 L2142.1 197.564 L2128.39 197.564 L2128.39 214.069 L2123.72 214.069 L2123.72 179.509 Z" fill="#000000" fill-rule="nonzero" fill-opacity="1" /><path clip-path="url(#clip740)" d="M2150.99 179.509 L2155.66 179.509 L2155.66 214.069 L2150.99 214.069 L2150.99 179.509 Z" fill="#000000" fill-rule="nonzero" fill-opacity="1" /><path clip-path="url(#clip740)" d="M2185.68 180.643 L2185.68 185.203 Q2183.02 183.93 2180.66 183.305 Q2178.3 182.68 2176.1 182.68 Q2172.28 182.68 2170.2 184.161 Q2168.14 185.643 2168.14 188.374 Q2168.14 190.666 2169.5 191.847 Q2170.89 193.004 2174.73 193.722 L2177.56 194.3 Q2182.79 195.296 2185.27 197.819 Q2187.77 200.319 2187.77 204.532 Q2187.77 209.555 2184.39 212.147 Q2181.03 214.74 2174.53 214.74 Q2172.07 214.74 2169.3 214.184 Q2166.54 213.629 2163.58 212.541 L2163.58 207.726 Q2166.42 209.323 2169.16 210.133 Q2171.89 210.944 2174.53 210.944 Q2178.53 210.944 2180.71 209.37 Q2182.88 207.796 2182.88 204.879 Q2182.88 202.333 2181.31 200.897 Q2179.76 199.462 2176.19 198.745 L2173.35 198.189 Q2168.11 197.147 2165.78 194.925 Q2163.44 192.703 2163.44 188.745 Q2163.44 184.161 2166.66 181.522 Q2169.9 178.884 2175.57 178.884 Q2178 178.884 2180.52 179.323 Q2183.05 179.763 2185.68 180.643 Z" fill="#000000" fill-rule="nonzero" fill-opacity="1" /><path clip-path="url(#clip740)" d="M2190.27 179.509 L2219.5 179.509 L2219.5 183.444 L2207.23 183.444 L2207.23 214.069 L2202.54 214.069 L2202.54 183.444 L2190.27 183.444 L2190.27 179.509 Z" fill="#000000" fill-rule="nonzero" fill-opacity="1" /><path clip-path="url(#clip740)" d="M2231.89 184.115 L2225.54 201.314 L2238.25 201.314 L2231.89 184.115 M2229.25 179.509 L2234.55 179.509 L2247.72 214.069 L2242.86 214.069 L2239.71 205.203 L2224.13 205.203 L2220.98 214.069 L2216.05 214.069 L2229.25 179.509 Z" fill="#000000" fill-rule="nonzero" fill-opacity="1" /><path clip-path="url(#clip740)" d="M1844.52 225.873 L1821.76 271.384 L1867.27 271.384 L1844.52 225.873 Z" fill="#3da44d" fill-rule="evenodd" fill-opacity="1" stroke="none"/>
<path clip-path="url(#clip740)" d="M1939.3 231.349 L1945.59 231.349 L1960.92 260.261 L1960.92 231.349 L1965.45 231.349 L1965.45 265.909 L1959.16 265.909 L1943.83 236.997 L1943.83 265.909 L1939.3 265.909 L1939.3 231.349 Z" fill="#000000" fill-rule="nonzero" fill-opacity="1" /><path clip-path="url(#clip740)" d="M1991.15 249.705 Q1992.65 250.214 1994.06 251.881 Q1995.5 253.548 1996.93 256.464 L2001.68 265.909 L1996.66 265.909 L1992.24 257.043 Q1990.52 253.571 1988.9 252.436 Q1987.31 251.302 1984.53 251.302 L1979.44 251.302 L1979.44 265.909 L1974.76 265.909 L1974.76 231.349 L1985.31 231.349 Q1991.24 231.349 1994.16 233.825 Q1997.07 236.302 1997.07 241.302 Q1997.07 244.566 1995.55 246.719 Q1994.04 248.872 1991.15 249.705 M1979.44 235.191 L1979.44 247.46 L1985.31 247.46 Q1988.69 247.46 1990.41 245.909 Q1992.14 244.335 1992.14 241.302 Q1992.14 238.27 1990.41 236.742 Q1988.69 235.191 1985.31 235.191 L1979.44 235.191 Z" fill="#000000" fill-rule="nonzero" fill-opacity="1" /><path clip-path="url(#clip740)" d="M2007.7 231.349 L2014.67 231.349 L2023.49 254.867 L2032.35 231.349 L2039.32 231.349 L2039.32 265.909 L2034.76 265.909 L2034.76 235.562 L2025.85 259.265 L2021.15 259.265 L2012.24 235.562 L2012.24 265.909 L2007.7 265.909 L2007.7 231.349 Z" fill="#000000" fill-rule="nonzero" fill-opacity="1" /><path clip-path="url(#clip740)" d="M2069.32 232.483 L2069.32 237.043 Q2066.66 235.77 2064.3 235.145 Q2061.93 234.52 2059.74 234.52 Q2055.92 234.52 2053.83 236.001 Q2051.77 237.483 2051.77 240.214 Q2051.77 242.506 2053.14 243.687 Q2054.53 244.844 2058.37 245.562 L2061.19 246.14 Q2066.43 247.136 2068.9 249.659 Q2071.4 252.159 2071.4 256.372 Q2071.4 261.395 2068.02 263.987 Q2064.67 266.58 2058.16 266.58 Q2055.71 266.58 2052.93 266.024 Q2050.18 265.469 2047.21 264.381 L2047.21 259.566 Q2050.06 261.163 2052.79 261.973 Q2055.52 262.784 2058.16 262.784 Q2062.17 262.784 2064.34 261.21 Q2066.52 259.636 2066.52 256.719 Q2066.52 254.173 2064.94 252.737 Q2063.39 251.302 2059.83 250.585 L2056.98 250.029 Q2051.75 248.987 2049.41 246.765 Q2047.07 244.543 2047.07 240.585 Q2047.07 236.001 2050.29 233.362 Q2053.53 230.724 2059.2 230.724 Q2061.63 230.724 2064.16 231.163 Q2066.68 231.603 2069.32 232.483 Z" fill="#000000" fill-rule="nonzero" fill-opacity="1" /><path clip-path="url(#clip740)" d="M2078.69 231.349 L2100.55 231.349 L2100.55 235.284 L2083.37 235.284 L2083.37 245.515 L2099.83 245.515 L2099.83 249.45 L2083.37 249.45 L2083.37 261.973 L2100.96 261.973 L2100.96 265.909 L2078.69 265.909 L2078.69 231.349 Z" fill="#000000" fill-rule="nonzero" fill-opacity="1" /><path clip-path="url(#clip740)" d="M2128.39 235.191 L2128.39 248.177 L2134.27 248.177 Q2137.54 248.177 2139.32 246.487 Q2141.1 244.798 2141.1 241.673 Q2141.1 238.571 2139.32 236.881 Q2137.54 235.191 2134.27 235.191 L2128.39 235.191 M2123.72 231.349 L2134.27 231.349 Q2140.08 231.349 2143.05 233.987 Q2146.03 236.603 2146.03 241.673 Q2146.03 246.788 2143.05 249.404 Q2140.08 252.02 2134.27 252.02 L2128.39 252.02 L2128.39 265.909 L2123.72 265.909 L2123.72 231.349 Z" fill="#000000" fill-rule="nonzero" fill-opacity="1" /><path clip-path="url(#clip740)" d="M2166.33 234.52 Q2161.24 234.52 2158.23 238.316 Q2155.24 242.112 2155.24 248.663 Q2155.24 255.191 2158.23 258.987 Q2161.24 262.784 2166.33 262.784 Q2171.42 262.784 2174.39 258.987 Q2177.37 255.191 2177.37 248.663 Q2177.37 242.112 2174.39 238.316 Q2171.42 234.52 2166.33 234.52 M2166.33 230.724 Q2173.6 230.724 2177.95 235.608 Q2182.3 240.469 2182.3 248.663 Q2182.3 256.835 2177.95 261.719 Q2173.6 266.58 2166.33 266.58 Q2159.04 266.58 2154.67 261.719 Q2150.31 256.858 2150.31 248.663 Q2150.31 240.469 2154.67 235.608 Q2159.04 230.724 2166.33 230.724 Z" fill="#000000" fill-rule="nonzero" fill-opacity="1" /><path clip-path="url(#clip740)" d="M2213.18 260.978 L2213.18 251.696 L2205.54 251.696 L2205.54 247.853 L2217.81 247.853 L2217.81 262.691 Q2215.11 264.612 2211.84 265.608 Q2208.58 266.58 2204.87 266.58 Q2196.77 266.58 2192.19 261.858 Q2187.63 257.112 2187.63 248.663 Q2187.63 240.191 2192.19 235.469 Q2196.77 230.724 2204.87 230.724 Q2208.25 230.724 2211.29 231.557 Q2214.34 232.39 2216.91 234.011 L2216.91 238.987 Q2214.32 236.788 2211.4 235.677 Q2208.48 234.566 2205.27 234.566 Q2198.92 234.566 2195.73 238.108 Q2192.56 241.649 2192.56 248.663 Q2192.56 255.654 2195.73 259.196 Q2198.92 262.737 2205.27 262.737 Q2207.74 262.737 2209.69 262.321 Q2211.63 261.881 2213.18 260.978 Z" fill="#000000" fill-rule="nonzero" fill-opacity="1" /><path clip-path="url(#clip740)" d="M2226.36 231.349 L2233.32 231.349 L2242.14 254.867 L2251.01 231.349 L2257.98 231.349 L2257.98 265.909 L2253.42 265.909 L2253.42 235.562 L2244.5 259.265 L2239.8 259.265 L2230.89 235.562 L2230.89 265.909 L2226.36 265.909 L2226.36 231.349 Z" fill="#000000" fill-rule="nonzero" fill-opacity="1" /></svg>
