<?xml version="1.0" encoding="utf-8"?>
<svg xmlns="http://www.w3.org/2000/svg" xmlns:xlink="http://www.w3.org/1999/xlink" width="600" height="400" viewBox="0 0 2400 1600">
<defs>
  <clipPath id="clip970">
    <rect x="0" y="0" width="2400" height="1600"/>
  </clipPath>
</defs>
<path clip-path="url(#clip970)" d="M0 1600 L2400 1600 L2400 0 L0 0  Z" fill="#ffffff" fill-rule="evenodd" fill-opacity="1"/>
<defs>
  <clipPath id="clip971">
    <rect x="169" y="47" width="2185" height="1377"/>
  </clipPath>
</defs>
<path clip-path="url(#clip970)" d="M169.121 1423.18 L2352.76 1423.18 L2352.76 47.2441 L169.121 47.2441  Z" fill="#ffffff" fill-rule="evenodd" fill-opacity="1"/>
<polyline clip-path="url(#clip971)" style="stroke:#000000; stroke-linecap:round; stroke-linejoin:round; stroke-width:2; stroke-opacity:0.1; fill:none" points="230.922,1423.18 230.922,47.2441 "/>
<polyline clip-path="url(#clip971)" style="stroke:#000000; stroke-linecap:round; stroke-linejoin:round; stroke-width:2; stroke-opacity:0.1; fill:none" points="282.423,1423.18 282.423,47.2441 "/>
<polyline clip-path="url(#clip971)" style="stroke:#000000; stroke-linecap:round; stroke-linejoin:round; stroke-width:2; stroke-opacity:0.1; fill:none" points="539.927,1423.18 539.927,47.2441 "/>
<polyline clip-path="url(#clip971)" style="stroke:#000000; stroke-linecap:round; stroke-linejoin:round; stroke-width:2; stroke-opacity:0.1; fill:none" points="797.431,1423.18 797.431,47.2441 "/>
<polyline clip-path="url(#clip971)" style="stroke:#000000; stroke-linecap:round; stroke-linejoin:round; stroke-width:2; stroke-opacity:0.1; fill:none" points="1054.94,1423.18 1054.94,47.2441 "/>
<polyline clip-path="url(#clip971)" style="stroke:#000000; stroke-linecap:round; stroke-linejoin:round; stroke-width:2; stroke-opacity:0.1; fill:none" points="1312.44,1423.18 1312.44,47.2441 "/>
<polyline clip-path="url(#clip971)" style="stroke:#000000; stroke-linecap:round; stroke-linejoin:round; stroke-width:2; stroke-opacity:0.1; fill:none" points="1569.94,1423.18 1569.94,47.2441 "/>
<polyline clip-path="url(#clip971)" style="stroke:#000000; stroke-linecap:round; stroke-linejoin:round; stroke-width:2; stroke-opacity:0.1; fill:none" points="1827.45,1423.18 1827.45,47.2441 "/>
<polyline clip-path="url(#clip971)" style="stroke:#000000; stroke-linecap:round; stroke-linejoin:round; stroke-width:2; stroke-opacity:0.1; fill:none" points="2084.95,1423.18 2084.95,47.2441 "/>
<polyline clip-path="url(#clip971)" style="stroke:#000000; stroke-linecap:round; stroke-linejoin:round; stroke-width:2; stroke-opacity:0.1; fill:none" points="2290.95,1423.18 2290.95,47.2441 "/>
<polyline clip-path="url(#clip971)" style="stroke:#000000; stroke-linecap:round; stroke-linejoin:round; stroke-width:2; stroke-opacity:0.1; fill:none" points="169.121,1408.46 2352.76,1408.46 "/>
<polyline clip-path="url(#clip971)" style="stroke:#000000; stroke-linecap:round; stroke-linejoin:round; stroke-width:2; stroke-opacity:0.1; fill:none" points="169.121,1077.89 2352.76,1077.89 "/>
<polyline clip-path="url(#clip971)" style="stroke:#000000; stroke-linecap:round; stroke-linejoin:round; stroke-width:2; stroke-opacity:0.1; fill:none" points="169.121,747.321 2352.76,747.321 "/>
<polyline clip-path="url(#clip971)" style="stroke:#000000; stroke-linecap:round; stroke-linejoin:round; stroke-width:2; stroke-opacity:0.1; fill:none" points="169.121,416.753 2352.76,416.753 "/>
<polyline clip-path="url(#clip971)" style="stroke:#000000; stroke-linecap:round; stroke-linejoin:round; stroke-width:2; stroke-opacity:0.1; fill:none" points="169.121,86.1857 2352.76,86.1857 "/>
<polyline clip-path="url(#clip970)" style="stroke:#000000; stroke-linecap:round; stroke-linejoin:round; stroke-width:4; stroke-opacity:1; fill:none" points="169.121,1423.18 2352.76,1423.18 "/>
<polyline clip-path="url(#clip970)" style="stroke:#000000; stroke-linecap:round; stroke-linejoin:round; stroke-width:4; stroke-opacity:1; fill:none" points="230.922,1423.18 230.922,1404.28 "/>
<polyline clip-path="url(#clip970)" style="stroke:#000000; stroke-linecap:round; stroke-linejoin:round; stroke-width:4; stroke-opacity:1; fill:none" points="282.423,1423.18 282.423,1404.28 "/>
<polyline clip-path="url(#clip970)" style="stroke:#000000; stroke-linecap:round; stroke-linejoin:round; stroke-width:4; stroke-opacity:1; fill:none" points="539.927,1423.18 539.927,1404.28 "/>
<polyline clip-path="url(#clip970)" style="stroke:#000000; stroke-linecap:round; stroke-linejoin:round; stroke-width:4; stroke-opacity:1; fill:none" points="797.431,1423.18 797.431,1404.28 "/>
<polyline clip-path="url(#clip970)" style="stroke:#000000; stroke-linecap:round; stroke-linejoin:round; stroke-width:4; stroke-opacity:1; fill:none" points="1054.94,1423.18 1054.94,1404.28 "/>
<polyline clip-path="url(#clip970)" style="stroke:#000000; stroke-linecap:round; stroke-linejoin:round; stroke-width:4; stroke-opacity:1; fill:none" points="1312.44,1423.18 1312.44,1404.28 "/>
<polyline clip-path="url(#clip970)" style="stroke:#000000; stroke-linecap:round; stroke-linejoin:round; stroke-width:4; stroke-opacity:1; fill:none" points="1569.94,1423.18 1569.94,1404.28 "/>
<polyline clip-path="url(#clip970)" style="stroke:#000000; stroke-linecap:round; stroke-linejoin:round; stroke-width:4; stroke-opacity:1; fill:none" points="1827.45,1423.18 1827.45,1404.28 "/>
<polyline clip-path="url(#clip970)" style="stroke:#000000; stroke-linecap:round; stroke-linejoin:round; stroke-width:4; stroke-opacity:1; fill:none" points="2084.95,1423.18 2084.95,1404.28 "/>
<polyline clip-path="url(#clip970)" style="stroke:#000000; stroke-linecap:round; stroke-linejoin:round; stroke-width:4; stroke-opacity:1; fill:none" points="2290.95,1423.18 2290.95,1404.28 "/>
<path clip-path="url(#clip970)" d="M230.922 1454.1 Q227.311 1454.1 225.483 1457.66 Q223.677 1461.2 223.677 1468.33 Q223.677 1475.44 225.483 1479.01 Q227.311 1482.55 230.922 1482.55 Q234.557 1482.55 236.362 1479.01 Q238.191 1475.44 238.191 1468.33 Q238.191 1461.2 236.362 1457.66 Q234.557 1454.1 230.922 1454.1 M230.922 1450.39 Q236.732 1450.39 239.788 1455 Q242.867 1459.58 242.867 1468.33 Q242.867 1477.06 239.788 1481.67 Q236.732 1486.25 230.922 1486.25 Q225.112 1486.25 222.033 1481.67 Q218.978 1477.06 218.978 1468.33 Q218.978 1459.58 222.033 1455 Q225.112 1450.39 230.922 1450.39 Z" fill="#000000" fill-rule="nonzero" fill-opacity="1" /><path clip-path="url(#clip970)" d="M272.701 1451.02 L291.057 1451.02 L291.057 1454.96 L276.983 1454.96 L276.983 1463.43 Q278.002 1463.08 279.02 1462.92 Q280.039 1462.73 281.057 1462.73 Q286.844 1462.73 290.224 1465.9 Q293.604 1469.08 293.604 1474.49 Q293.604 1480.07 290.131 1483.17 Q286.659 1486.25 280.34 1486.25 Q278.164 1486.25 275.895 1485.88 Q273.65 1485.51 271.243 1484.77 L271.243 1480.07 Q273.326 1481.2 275.548 1481.76 Q277.77 1482.32 280.247 1482.32 Q284.252 1482.32 286.59 1480.21 Q288.928 1478.1 288.928 1474.49 Q288.928 1470.88 286.59 1468.77 Q284.252 1466.67 280.247 1466.67 Q278.372 1466.67 276.497 1467.08 Q274.645 1467.5 272.701 1468.38 L272.701 1451.02 Z" fill="#000000" fill-rule="nonzero" fill-opacity="1" /><path clip-path="url(#clip970)" d="M528.77 1466.95 Q532.126 1467.66 534.001 1469.93 Q535.899 1472.2 535.899 1475.53 Q535.899 1480.65 532.381 1483.45 Q528.862 1486.25 522.381 1486.25 Q520.205 1486.25 517.89 1485.81 Q515.599 1485.39 513.145 1484.54 L513.145 1480.02 Q515.089 1481.16 517.404 1481.74 Q519.719 1482.32 522.242 1482.32 Q526.64 1482.32 528.932 1480.58 Q531.247 1478.84 531.247 1475.53 Q531.247 1472.48 529.094 1470.77 Q526.964 1469.03 523.145 1469.03 L519.117 1469.03 L519.117 1465.19 L523.33 1465.19 Q526.779 1465.19 528.608 1463.82 Q530.436 1462.43 530.436 1459.84 Q530.436 1457.18 528.538 1455.77 Q526.663 1454.33 523.145 1454.33 Q521.224 1454.33 519.025 1454.75 Q516.825 1455.16 514.187 1456.04 L514.187 1451.88 Q516.849 1451.14 519.163 1450.77 Q521.501 1450.39 523.562 1450.39 Q528.886 1450.39 531.987 1452.83 Q535.089 1455.23 535.089 1459.35 Q535.089 1462.22 533.446 1464.21 Q531.802 1466.18 528.77 1466.95 Z" fill="#000000" fill-rule="nonzero" fill-opacity="1" /><path clip-path="url(#clip970)" d="M554.765 1454.1 Q551.154 1454.1 549.325 1457.66 Q547.52 1461.2 547.52 1468.33 Q547.52 1475.44 549.325 1479.01 Q551.154 1482.55 554.765 1482.55 Q558.399 1482.55 560.205 1479.01 Q562.034 1475.44 562.034 1468.33 Q562.034 1461.2 560.205 1457.66 Q558.399 1454.1 554.765 1454.1 M554.765 1450.39 Q560.575 1450.39 563.631 1455 Q566.709 1459.58 566.709 1468.33 Q566.709 1477.06 563.631 1481.67 Q560.575 1486.25 554.765 1486.25 Q548.955 1486.25 545.876 1481.67 Q542.821 1477.06 542.821 1468.33 Q542.821 1459.58 545.876 1455 Q548.955 1450.39 554.765 1450.39 Z" fill="#000000" fill-rule="nonzero" fill-opacity="1" /><path clip-path="url(#clip970)" d="M772.628 1451.02 L790.985 1451.02 L790.985 1454.96 L776.911 1454.96 L776.911 1463.43 Q777.929 1463.08 778.948 1462.92 Q779.966 1462.73 780.985 1462.73 Q786.772 1462.73 790.151 1465.9 Q793.531 1469.08 793.531 1474.49 Q793.531 1480.07 790.059 1483.17 Q786.586 1486.25 780.267 1486.25 Q778.091 1486.25 775.823 1485.88 Q773.577 1485.51 771.17 1484.77 L771.17 1480.07 Q773.253 1481.2 775.475 1481.76 Q777.698 1482.32 780.174 1482.32 Q784.179 1482.32 786.517 1480.21 Q788.855 1478.1 788.855 1474.49 Q788.855 1470.88 786.517 1468.77 Q784.179 1466.67 780.174 1466.67 Q778.299 1466.67 776.424 1467.08 Q774.573 1467.5 772.628 1468.38 L772.628 1451.02 Z" fill="#000000" fill-rule="nonzero" fill-opacity="1" /><path clip-path="url(#clip970)" d="M802.79 1451.02 L821.146 1451.02 L821.146 1454.96 L807.072 1454.96 L807.072 1463.43 Q808.091 1463.08 809.109 1462.92 Q810.128 1462.73 811.146 1462.73 Q816.933 1462.73 820.313 1465.9 Q823.693 1469.08 823.693 1474.49 Q823.693 1480.07 820.22 1483.17 Q816.748 1486.25 810.429 1486.25 Q808.253 1486.25 805.984 1485.88 Q803.739 1485.51 801.332 1484.77 L801.332 1480.07 Q803.415 1481.2 805.637 1481.76 Q807.859 1482.32 810.336 1482.32 Q814.341 1482.32 816.679 1480.21 Q819.017 1478.1 819.017 1474.49 Q819.017 1470.88 816.679 1468.77 Q814.341 1466.67 810.336 1466.67 Q808.461 1466.67 806.586 1467.08 Q804.734 1467.5 802.79 1468.38 L802.79 1451.02 Z" fill="#000000" fill-rule="nonzero" fill-opacity="1" /><path clip-path="url(#clip970)" d="M1039.81 1469.17 Q1036.47 1469.17 1034.55 1470.95 Q1032.66 1472.73 1032.66 1475.86 Q1032.66 1478.98 1034.55 1480.77 Q1036.47 1482.55 1039.81 1482.55 Q1043.14 1482.55 1045.06 1480.77 Q1046.98 1478.96 1046.98 1475.86 Q1046.98 1472.73 1045.06 1470.95 Q1043.16 1469.17 1039.81 1469.17 M1035.13 1467.18 Q1032.12 1466.44 1030.43 1464.38 Q1028.77 1462.32 1028.77 1459.35 Q1028.77 1455.21 1031.71 1452.8 Q1034.67 1450.39 1039.81 1450.39 Q1044.97 1450.39 1047.91 1452.8 Q1050.85 1455.21 1050.85 1459.35 Q1050.85 1462.32 1049.16 1464.38 Q1047.49 1466.44 1044.51 1467.18 Q1047.89 1467.96 1049.76 1470.26 Q1051.66 1472.55 1051.66 1475.86 Q1051.66 1480.88 1048.58 1483.57 Q1045.53 1486.25 1039.81 1486.25 Q1034.09 1486.25 1031.01 1483.57 Q1027.96 1480.88 1027.96 1475.86 Q1027.96 1472.55 1029.85 1470.26 Q1031.75 1467.96 1035.13 1467.18 M1033.42 1459.79 Q1033.42 1462.48 1035.09 1463.98 Q1036.78 1465.49 1039.81 1465.49 Q1042.82 1465.49 1044.51 1463.98 Q1046.22 1462.48 1046.22 1459.79 Q1046.22 1457.11 1044.51 1455.6 Q1042.82 1454.1 1039.81 1454.1 Q1036.78 1454.1 1035.09 1455.6 Q1033.42 1457.11 1033.42 1459.79 Z" fill="#000000" fill-rule="nonzero" fill-opacity="1" /><path clip-path="url(#clip970)" d="M1069.97 1454.1 Q1066.36 1454.1 1064.53 1457.66 Q1062.72 1461.2 1062.72 1468.33 Q1062.72 1475.44 1064.53 1479.01 Q1066.36 1482.55 1069.97 1482.55 Q1073.6 1482.55 1075.41 1479.01 Q1077.24 1475.44 1077.24 1468.33 Q1077.24 1461.2 1075.41 1457.66 Q1073.6 1454.1 1069.97 1454.1 M1069.97 1450.39 Q1075.78 1450.39 1078.84 1455 Q1081.91 1459.58 1081.91 1468.33 Q1081.91 1477.06 1078.84 1481.67 Q1075.78 1486.25 1069.97 1486.25 Q1064.16 1486.25 1061.08 1481.67 Q1058.03 1477.06 1058.03 1468.33 Q1058.03 1459.58 1061.08 1455 Q1064.16 1450.39 1069.97 1450.39 Z" fill="#000000" fill-rule="nonzero" fill-opacity="1" /><path clip-path="url(#clip970)" d="M1272.54 1481.64 L1280.18 1481.64 L1280.18 1455.28 L1271.87 1456.95 L1271.87 1452.69 L1280.14 1451.02 L1284.81 1451.02 L1284.81 1481.64 L1292.45 1481.64 L1292.45 1485.58 L1272.54 1485.58 L1272.54 1481.64 Z" fill="#000000" fill-rule="nonzero" fill-opacity="1" /><path clip-path="url(#clip970)" d="M1311.9 1454.1 Q1308.28 1454.1 1306.46 1457.66 Q1304.65 1461.2 1304.65 1468.33 Q1304.65 1475.44 1306.46 1479.01 Q1308.28 1482.55 1311.9 1482.55 Q1315.53 1482.55 1317.34 1479.01 Q1319.16 1475.44 1319.16 1468.33 Q1319.16 1461.2 1317.34 1457.66 Q1315.53 1454.1 1311.9 1454.1 M1311.9 1450.39 Q1317.71 1450.39 1320.76 1455 Q1323.84 1459.58 1323.84 1468.33 Q1323.84 1477.06 1320.76 1481.67 Q1317.71 1486.25 1311.9 1486.25 Q1306.09 1486.25 1303.01 1481.67 Q1299.95 1477.06 1299.95 1468.33 Q1299.95 1459.58 1303.01 1455 Q1306.09 1450.39 1311.9 1450.39 Z" fill="#000000" fill-rule="nonzero" fill-opacity="1" /><path clip-path="url(#clip970)" d="M1332.1 1451.02 L1350.46 1451.02 L1350.46 1454.96 L1336.39 1454.96 L1336.39 1463.43 Q1337.4 1463.08 1338.42 1462.92 Q1339.44 1462.73 1340.46 1462.73 Q1346.25 1462.73 1349.63 1465.9 Q1353.01 1469.08 1353.01 1474.49 Q1353.01 1480.07 1349.53 1483.17 Q1346.06 1486.25 1339.74 1486.25 Q1337.57 1486.25 1335.3 1485.88 Q1333.05 1485.51 1330.65 1484.77 L1330.65 1480.07 Q1332.73 1481.2 1334.95 1481.76 Q1337.17 1482.32 1339.65 1482.32 Q1343.65 1482.32 1345.99 1480.21 Q1348.33 1478.1 1348.33 1474.49 Q1348.33 1470.88 1345.99 1468.77 Q1343.65 1466.67 1339.65 1466.67 Q1337.77 1466.67 1335.9 1467.08 Q1334.05 1467.5 1332.1 1468.38 L1332.1 1451.02 Z" fill="#000000" fill-rule="nonzero" fill-opacity="1" /><path clip-path="url(#clip970)" d="M1529.55 1481.64 L1537.19 1481.64 L1537.19 1455.28 L1528.88 1456.95 L1528.88 1452.69 L1537.14 1451.02 L1541.82 1451.02 L1541.82 1481.64 L1549.46 1481.64 L1549.46 1485.58 L1529.55 1485.58 L1529.55 1481.64 Z" fill="#000000" fill-rule="nonzero" fill-opacity="1" /><path clip-path="url(#clip970)" d="M1573.07 1466.95 Q1576.42 1467.66 1578.3 1469.93 Q1580.2 1472.2 1580.2 1475.53 Q1580.2 1480.65 1576.68 1483.45 Q1573.16 1486.25 1566.68 1486.25 Q1564.5 1486.25 1562.19 1485.81 Q1559.9 1485.39 1557.44 1484.54 L1557.44 1480.02 Q1559.39 1481.16 1561.7 1481.74 Q1564.02 1482.32 1566.54 1482.32 Q1570.94 1482.32 1573.23 1480.58 Q1575.55 1478.84 1575.55 1475.53 Q1575.55 1472.48 1573.39 1470.77 Q1571.26 1469.03 1567.44 1469.03 L1563.42 1469.03 L1563.42 1465.19 L1567.63 1465.19 Q1571.08 1465.19 1572.91 1463.82 Q1574.74 1462.43 1574.74 1459.84 Q1574.74 1457.18 1572.84 1455.77 Q1570.96 1454.33 1567.44 1454.33 Q1565.52 1454.33 1563.32 1454.75 Q1561.12 1455.16 1558.49 1456.04 L1558.49 1451.88 Q1561.15 1451.14 1563.46 1450.77 Q1565.8 1450.39 1567.86 1450.39 Q1573.18 1450.39 1576.29 1452.83 Q1579.39 1455.23 1579.39 1459.35 Q1579.39 1462.22 1577.74 1464.21 Q1576.1 1466.18 1573.07 1466.95 Z" fill="#000000" fill-rule="nonzero" fill-opacity="1" /><path clip-path="url(#clip970)" d="M1599.06 1454.1 Q1595.45 1454.1 1593.62 1457.66 Q1591.82 1461.2 1591.82 1468.33 Q1591.82 1475.44 1593.62 1479.01 Q1595.45 1482.55 1599.06 1482.55 Q1602.7 1482.55 1604.5 1479.01 Q1606.33 1475.44 1606.33 1468.33 Q1606.33 1461.2 1604.5 1457.66 Q1602.7 1454.1 1599.06 1454.1 M1599.06 1450.39 Q1604.87 1450.39 1607.93 1455 Q1611.01 1459.58 1611.01 1468.33 Q1611.01 1477.06 1607.93 1481.67 Q1604.87 1486.25 1599.06 1486.25 Q1593.25 1486.25 1590.17 1481.67 Q1587.12 1477.06 1587.12 1468.33 Q1587.12 1459.58 1590.17 1455 Q1593.25 1450.39 1599.06 1450.39 Z" fill="#000000" fill-rule="nonzero" fill-opacity="1" /><path clip-path="url(#clip970)" d="M1787.55 1481.64 L1795.19 1481.64 L1795.19 1455.28 L1786.88 1456.95 L1786.88 1452.69 L1795.14 1451.02 L1799.82 1451.02 L1799.82 1481.64 L1807.46 1481.64 L1807.46 1485.58 L1787.55 1485.58 L1787.55 1481.64 Z" fill="#000000" fill-rule="nonzero" fill-opacity="1" /><path clip-path="url(#clip970)" d="M1816.95 1451.02 L1835.31 1451.02 L1835.31 1454.96 L1821.23 1454.96 L1821.23 1463.43 Q1822.25 1463.08 1823.27 1462.92 Q1824.29 1462.73 1825.31 1462.73 Q1831.09 1462.73 1834.47 1465.9 Q1837.85 1469.08 1837.85 1474.49 Q1837.85 1480.07 1834.38 1483.17 Q1830.91 1486.25 1824.59 1486.25 Q1822.41 1486.25 1820.14 1485.88 Q1817.9 1485.51 1815.49 1484.77 L1815.49 1480.07 Q1817.57 1481.2 1819.8 1481.76 Q1822.02 1482.32 1824.5 1482.32 Q1828.5 1482.32 1830.84 1480.21 Q1833.18 1478.1 1833.18 1474.49 Q1833.18 1470.88 1830.84 1468.77 Q1828.5 1466.67 1824.5 1466.67 Q1822.62 1466.67 1820.75 1467.08 Q1818.89 1467.5 1816.95 1468.38 L1816.95 1451.02 Z" fill="#000000" fill-rule="nonzero" fill-opacity="1" /><path clip-path="url(#clip970)" d="M1847.11 1451.02 L1865.47 1451.02 L1865.47 1454.96 L1851.39 1454.96 L1851.39 1463.43 Q1852.41 1463.08 1853.43 1462.92 Q1854.45 1462.73 1855.47 1462.73 Q1861.26 1462.73 1864.63 1465.9 Q1868.01 1469.08 1868.01 1474.49 Q1868.01 1480.07 1864.54 1483.17 Q1861.07 1486.25 1854.75 1486.25 Q1852.57 1486.25 1850.31 1485.88 Q1848.06 1485.51 1845.65 1484.77 L1845.65 1480.07 Q1847.74 1481.2 1849.96 1481.76 Q1852.18 1482.32 1854.66 1482.32 Q1858.66 1482.32 1861 1480.21 Q1863.34 1478.1 1863.34 1474.49 Q1863.34 1470.88 1861 1468.77 Q1858.66 1466.67 1854.66 1466.67 Q1852.78 1466.67 1850.91 1467.08 Q1849.06 1467.5 1847.11 1468.38 L1847.11 1451.02 Z" fill="#000000" fill-rule="nonzero" fill-opacity="1" /><path clip-path="url(#clip970)" d="M2044.56 1481.64 L2052.2 1481.64 L2052.2 1455.28 L2043.89 1456.95 L2043.89 1452.69 L2052.15 1451.02 L2056.83 1451.02 L2056.83 1481.64 L2064.47 1481.64 L2064.47 1485.58 L2044.56 1485.58 L2044.56 1481.64 Z" fill="#000000" fill-rule="nonzero" fill-opacity="1" /><path clip-path="url(#clip970)" d="M2083.91 1469.17 Q2080.58 1469.17 2078.66 1470.95 Q2076.76 1472.73 2076.76 1475.86 Q2076.76 1478.98 2078.66 1480.77 Q2080.58 1482.55 2083.91 1482.55 Q2087.24 1482.55 2089.16 1480.77 Q2091.09 1478.96 2091.09 1475.86 Q2091.09 1472.73 2089.16 1470.95 Q2087.27 1469.17 2083.91 1469.17 M2079.23 1467.18 Q2076.22 1466.44 2074.54 1464.38 Q2072.87 1462.32 2072.87 1459.35 Q2072.87 1455.21 2075.81 1452.8 Q2078.77 1450.39 2083.91 1450.39 Q2089.07 1450.39 2092.01 1452.8 Q2094.95 1455.21 2094.95 1459.35 Q2094.95 1462.32 2093.26 1464.38 Q2091.6 1466.44 2088.61 1467.18 Q2091.99 1467.96 2093.86 1470.26 Q2095.76 1472.55 2095.76 1475.86 Q2095.76 1480.88 2092.68 1483.57 Q2089.63 1486.25 2083.91 1486.25 Q2078.19 1486.25 2075.11 1483.57 Q2072.06 1480.88 2072.06 1475.86 Q2072.06 1472.55 2073.96 1470.26 Q2075.85 1467.96 2079.23 1467.18 M2077.52 1459.79 Q2077.52 1462.48 2079.19 1463.98 Q2080.88 1465.49 2083.91 1465.49 Q2086.92 1465.49 2088.61 1463.98 Q2090.32 1462.48 2090.32 1459.79 Q2090.32 1457.11 2088.61 1455.6 Q2086.92 1454.1 2083.91 1454.1 Q2080.88 1454.1 2079.19 1455.6 Q2077.52 1457.11 2077.52 1459.79 Z" fill="#000000" fill-rule="nonzero" fill-opacity="1" /><path clip-path="url(#clip970)" d="M2114.07 1454.1 Q2110.46 1454.1 2108.63 1457.66 Q2106.83 1461.2 2106.83 1468.33 Q2106.83 1475.44 2108.63 1479.01 Q2110.46 1482.55 2114.07 1482.55 Q2117.71 1482.55 2119.51 1479.01 Q2121.34 1475.44 2121.34 1468.33 Q2121.34 1461.2 2119.51 1457.66 Q2117.71 1454.1 2114.07 1454.1 M2114.07 1450.39 Q2119.88 1450.39 2122.94 1455 Q2126.02 1459.58 2126.02 1468.33 Q2126.02 1477.06 2122.94 1481.67 Q2119.88 1486.25 2114.07 1486.25 Q2108.26 1486.25 2105.18 1481.67 Q2102.13 1477.06 2102.13 1468.33 Q2102.13 1459.58 2105.18 1455 Q2108.26 1450.39 2114.07 1450.39 Z" fill="#000000" fill-rule="nonzero" fill-opacity="1" /><path clip-path="url(#clip970)" d="M2254.65 1481.64 L2270.97 1481.64 L2270.97 1485.58 L2249.02 1485.58 L2249.02 1481.64 Q2251.68 1478.89 2256.27 1474.26 Q2260.87 1469.61 2262.05 1468.27 Q2264.3 1465.74 2265.18 1464.01 Q2266.08 1462.25 2266.08 1460.56 Q2266.08 1457.8 2264.14 1456.07 Q2262.22 1454.33 2259.11 1454.33 Q2256.92 1454.33 2254.46 1455.09 Q2252.03 1455.86 2249.25 1457.41 L2249.25 1452.69 Q2252.08 1451.55 2254.53 1450.97 Q2256.99 1450.39 2259.02 1450.39 Q2264.39 1450.39 2267.59 1453.08 Q2270.78 1455.77 2270.78 1460.26 Q2270.78 1462.39 2269.97 1464.31 Q2269.18 1466.2 2267.08 1468.8 Q2266.5 1469.47 2263.4 1472.69 Q2260.3 1475.88 2254.65 1481.64 Z" fill="#000000" fill-rule="nonzero" fill-opacity="1" /><path clip-path="url(#clip970)" d="M2290.78 1454.1 Q2287.17 1454.1 2285.34 1457.66 Q2283.54 1461.2 2283.54 1468.33 Q2283.54 1475.44 2285.34 1479.01 Q2287.17 1482.55 2290.78 1482.55 Q2294.42 1482.55 2296.22 1479.01 Q2298.05 1475.44 2298.05 1468.33 Q2298.05 1461.2 2296.22 1457.66 Q2294.42 1454.1 2290.78 1454.1 M2290.78 1450.39 Q2296.59 1450.39 2299.65 1455 Q2302.73 1459.58 2302.73 1468.33 Q2302.73 1477.06 2299.65 1481.67 Q2296.59 1486.25 2290.78 1486.25 Q2284.97 1486.25 2281.89 1481.67 Q2278.84 1477.06 2278.84 1468.33 Q2278.84 1459.58 2281.89 1455 Q2284.97 1450.39 2290.78 1450.39 Z" fill="#000000" fill-rule="nonzero" fill-opacity="1" /><path clip-path="url(#clip970)" d="M2320.94 1454.1 Q2317.33 1454.1 2315.5 1457.66 Q2313.7 1461.2 2313.7 1468.33 Q2313.7 1475.44 2315.5 1479.01 Q2317.33 1482.55 2320.94 1482.55 Q2324.58 1482.55 2326.38 1479.01 Q2328.21 1475.44 2328.21 1468.33 Q2328.21 1461.2 2326.38 1457.66 Q2324.58 1454.1 2320.94 1454.1 M2320.94 1450.39 Q2326.75 1450.39 2329.81 1455 Q2332.89 1459.58 2332.89 1468.33 Q2332.89 1477.06 2329.81 1481.67 Q2326.75 1486.25 2320.94 1486.25 Q2315.13 1486.25 2312.05 1481.67 Q2309 1477.06 2309 1468.33 Q2309 1459.58 2312.05 1455 Q2315.13 1450.39 2320.94 1450.39 Z" fill="#000000" fill-rule="nonzero" fill-opacity="1" /><path clip-path="url(#clip970)" d="M1177.5 1522.27 L1177.5 1532.4 L1189.56 1532.4 L1189.56 1536.95 L1177.5 1536.95 L1177.5 1556.3 Q1177.5 1560.66 1178.68 1561.9 Q1179.89 1563.14 1183.55 1563.14 L1189.56 1563.14 L1189.56 1568.04 L1183.55 1568.04 Q1176.77 1568.04 1174.19 1565.53 Q1171.61 1562.98 1171.61 1556.3 L1171.61 1536.95 L1167.31 1536.95 L1167.31 1532.4 L1171.61 1532.4 L1171.61 1522.27 L1177.5 1522.27 Z" fill="#000000" fill-rule="nonzero" fill-opacity="1" /><path clip-path="url(#clip970)" d="M1232.05 1518.58 Q1227.79 1525.9 1225.72 1533.06 Q1223.65 1540.23 1223.65 1547.58 Q1223.65 1554.93 1225.72 1562.16 Q1227.82 1569.35 1232.05 1576.64 L1226.96 1576.64 Q1222.19 1569.16 1219.8 1561.93 Q1217.44 1554.71 1217.44 1547.58 Q1217.44 1540.48 1219.8 1533.29 Q1222.16 1526.09 1226.96 1518.58 L1232.05 1518.58 Z" fill="#000000" fill-rule="nonzero" fill-opacity="1" /><path clip-path="url(#clip970)" d="M1271.17 1539.24 Q1273.37 1535.29 1276.42 1533.41 Q1279.48 1531.54 1283.62 1531.54 Q1289.19 1531.54 1292.21 1535.45 Q1295.23 1539.33 1295.23 1546.53 L1295.23 1568.04 L1289.35 1568.04 L1289.35 1546.72 Q1289.35 1541.59 1287.53 1539.11 Q1285.72 1536.63 1281.99 1536.63 Q1277.44 1536.63 1274.8 1539.65 Q1272.16 1542.68 1272.16 1547.9 L1272.16 1568.04 L1266.27 1568.04 L1266.27 1546.72 Q1266.27 1541.56 1264.46 1539.11 Q1262.64 1536.63 1258.85 1536.63 Q1254.37 1536.63 1251.72 1539.68 Q1249.08 1542.71 1249.08 1547.9 L1249.08 1568.04 L1243.19 1568.04 L1243.19 1532.4 L1249.08 1532.4 L1249.08 1537.93 Q1251.09 1534.66 1253.89 1533.1 Q1256.69 1531.54 1260.54 1531.54 Q1264.42 1531.54 1267.13 1533.51 Q1269.87 1535.48 1271.17 1539.24 Z" fill="#000000" fill-rule="nonzero" fill-opacity="1" /><path clip-path="url(#clip970)" d="M1329.64 1533.45 L1329.64 1538.98 Q1327.16 1537.71 1324.48 1537.07 Q1321.81 1536.44 1318.95 1536.44 Q1314.59 1536.44 1312.39 1537.77 Q1310.23 1539.11 1310.23 1541.79 Q1310.23 1543.82 1311.78 1545 Q1313.34 1546.15 1318.05 1547.2 L1320.06 1547.64 Q1326.3 1548.98 1328.91 1551.43 Q1331.55 1553.85 1331.55 1558.21 Q1331.55 1563.17 1327.6 1566.07 Q1323.69 1568.97 1316.81 1568.97 Q1313.95 1568.97 1310.83 1568.39 Q1307.74 1567.85 1304.3 1566.74 L1304.3 1560.69 Q1307.55 1562.38 1310.7 1563.24 Q1313.85 1564.07 1316.94 1564.07 Q1321.08 1564.07 1323.31 1562.66 Q1325.53 1561.23 1325.53 1558.65 Q1325.53 1556.27 1323.91 1554.99 Q1322.32 1553.72 1316.88 1552.54 L1314.84 1552.07 Q1309.4 1550.92 1306.98 1548.56 Q1304.56 1546.18 1304.56 1542.04 Q1304.56 1537.01 1308.12 1534.27 Q1311.69 1531.54 1318.25 1531.54 Q1321.49 1531.54 1324.36 1532.01 Q1327.22 1532.49 1329.64 1533.45 Z" fill="#000000" fill-rule="nonzero" fill-opacity="1" /><path clip-path="url(#clip970)" d="M1339.95 1518.58 L1345.05 1518.58 Q1349.82 1526.09 1352.18 1533.29 Q1354.56 1540.48 1354.56 1547.58 Q1354.56 1554.71 1352.18 1561.93 Q1349.82 1569.16 1345.05 1576.64 L1339.95 1576.64 Q1344.19 1569.35 1346.25 1562.16 Q1348.36 1554.93 1348.36 1547.58 Q1348.36 1540.23 1346.25 1533.06 Q1344.19 1525.9 1339.95 1518.58 Z" fill="#000000" fill-rule="nonzero" fill-opacity="1" /><polyline clip-path="url(#clip970)" style="stroke:#000000; stroke-linecap:round; stroke-linejoin:round; stroke-width:4; stroke-opacity:1; fill:none" points="169.121,1423.18 169.121,47.2441 "/>
<polyline clip-path="url(#clip970)" style="stroke:#000000; stroke-linecap:round; stroke-linejoin:round; stroke-width:4; stroke-opacity:1; fill:none" points="169.121,1408.46 188.019,1408.46 "/>
<polyline clip-path="url(#clip970)" style="stroke:#000000; stroke-linecap:round; stroke-linejoin:round; stroke-width:4; stroke-opacity:1; fill:none" points="169.121,1077.89 188.019,1077.89 "/>
<polyline clip-path="url(#clip970)" style="stroke:#000000; stroke-linecap:round; stroke-linejoin:round; stroke-width:4; stroke-opacity:1; fill:none" points="169.121,747.321 188.019,747.321 "/>
<polyline clip-path="url(#clip970)" style="stroke:#000000; stroke-linecap:round; stroke-linejoin:round; stroke-width:4; stroke-opacity:1; fill:none" points="169.121,416.753 188.019,416.753 "/>
<polyline clip-path="url(#clip970)" style="stroke:#000000; stroke-linecap:round; stroke-linejoin:round; stroke-width:4; stroke-opacity:1; fill:none" points="169.121,86.1857 188.019,86.1857 "/>
<path clip-path="url(#clip970)" d="M121.177 1394.26 Q117.566 1394.26 115.737 1397.82 Q113.932 1401.36 113.932 1408.49 Q113.932 1415.6 115.737 1419.16 Q117.566 1422.7 121.177 1422.7 Q124.811 1422.7 126.617 1419.16 Q128.445 1415.6 128.445 1408.49 Q128.445 1401.36 126.617 1397.82 Q124.811 1394.26 121.177 1394.26 M121.177 1390.55 Q126.987 1390.55 130.043 1395.16 Q133.121 1399.74 133.121 1408.49 Q133.121 1417.22 130.043 1421.82 Q126.987 1426.41 121.177 1426.41 Q115.367 1426.41 112.288 1421.82 Q109.233 1417.22 109.233 1408.49 Q109.233 1399.74 112.288 1395.16 Q115.367 1390.55 121.177 1390.55 Z" fill="#000000" fill-rule="nonzero" fill-opacity="1" /><path clip-path="url(#clip970)" d="M86.0382 1091.23 L102.358 1091.23 L102.358 1095.17 L80.4133 1095.17 L80.4133 1091.23 Q83.0753 1088.48 87.6586 1083.85 Q92.2651 1079.2 93.4456 1077.85 Q95.691 1075.33 96.5706 1073.59 Q97.4734 1071.84 97.4734 1070.15 Q97.4734 1067.39 95.5289 1065.66 Q93.6076 1063.92 90.5058 1063.92 Q88.3067 1063.92 85.8531 1064.68 Q83.4225 1065.45 80.6447 1067 L80.6447 1062.28 Q83.4688 1061.14 85.9225 1060.56 Q88.3762 1059.98 90.4132 1059.98 Q95.7836 1059.98 98.978 1062.67 Q102.172 1065.35 102.172 1069.84 Q102.172 1071.97 101.362 1073.9 Q100.575 1075.79 98.4687 1078.39 Q97.89 1079.06 94.7882 1082.28 Q91.6864 1085.47 86.0382 1091.23 Z" fill="#000000" fill-rule="nonzero" fill-opacity="1" /><path clip-path="url(#clip970)" d="M112.219 1060.61 L130.575 1060.61 L130.575 1064.54 L116.501 1064.54 L116.501 1073.02 Q117.52 1072.67 118.538 1072.51 Q119.557 1072.32 120.575 1072.32 Q126.362 1072.32 129.742 1075.49 Q133.121 1078.66 133.121 1084.08 Q133.121 1089.66 129.649 1092.76 Q126.177 1095.84 119.857 1095.84 Q117.682 1095.84 115.413 1095.47 Q113.168 1095.1 110.76 1094.36 L110.76 1089.66 Q112.844 1090.79 115.066 1091.35 Q117.288 1091.9 119.765 1091.9 Q123.77 1091.9 126.107 1089.8 Q128.445 1087.69 128.445 1084.08 Q128.445 1080.47 126.107 1078.36 Q123.77 1076.26 119.765 1076.26 Q117.89 1076.26 116.015 1076.67 Q114.163 1077.09 112.219 1077.97 L112.219 1060.61 Z" fill="#000000" fill-rule="nonzero" fill-opacity="1" /><path clip-path="url(#clip970)" d="M81.0614 730.041 L99.4178 730.041 L99.4178 733.976 L85.3438 733.976 L85.3438 742.448 Q86.3623 742.101 87.3808 741.939 Q88.3993 741.754 89.4178 741.754 Q95.2049 741.754 98.5845 744.925 Q101.964 748.097 101.964 753.513 Q101.964 759.092 98.4919 762.194 Q95.0197 765.272 88.7003 765.272 Q86.5243 765.272 84.2558 764.902 Q82.0105 764.532 79.6031 763.791 L79.6031 759.092 Q81.6864 760.226 83.9086 760.782 Q86.1308 761.337 88.6077 761.337 Q92.6123 761.337 94.9502 759.231 Q97.2882 757.124 97.2882 753.513 Q97.2882 749.902 94.9502 747.796 Q92.6123 745.689 88.6077 745.689 Q86.7327 745.689 84.8577 746.106 Q83.0058 746.522 81.0614 747.402 L81.0614 730.041 Z" fill="#000000" fill-rule="nonzero" fill-opacity="1" /><path clip-path="url(#clip970)" d="M121.177 733.12 Q117.566 733.12 115.737 736.685 Q113.932 740.226 113.932 747.356 Q113.932 754.462 115.737 758.027 Q117.566 761.569 121.177 761.569 Q124.811 761.569 126.617 758.027 Q128.445 754.462 128.445 747.356 Q128.445 740.226 126.617 736.685 Q124.811 733.12 121.177 733.12 M121.177 729.416 Q126.987 729.416 130.043 734.023 Q133.121 738.606 133.121 747.356 Q133.121 756.083 130.043 760.689 Q126.987 765.272 121.177 765.272 Q115.367 765.272 112.288 760.689 Q109.233 756.083 109.233 747.356 Q109.233 738.606 112.288 734.023 Q115.367 729.416 121.177 729.416 Z" fill="#000000" fill-rule="nonzero" fill-opacity="1" /><path clip-path="url(#clip970)" d="M80.8299 399.473 L103.052 399.473 L103.052 401.464 L90.5058 434.033 L85.6216 434.033 L97.4271 403.409 L80.8299 403.409 L80.8299 399.473 Z" fill="#000000" fill-rule="nonzero" fill-opacity="1" /><path clip-path="url(#clip970)" d="M112.219 399.473 L130.575 399.473 L130.575 403.409 L116.501 403.409 L116.501 411.881 Q117.52 411.533 118.538 411.371 Q119.557 411.186 120.575 411.186 Q126.362 411.186 129.742 414.358 Q133.121 417.529 133.121 422.945 Q133.121 428.524 129.649 431.626 Q126.177 434.705 119.857 434.705 Q117.682 434.705 115.413 434.334 Q113.168 433.964 110.76 433.223 L110.76 428.524 Q112.844 429.658 115.066 430.214 Q117.288 430.77 119.765 430.77 Q123.77 430.77 126.107 428.663 Q128.445 426.557 128.445 422.945 Q128.445 419.334 126.107 417.228 Q123.77 415.121 119.765 415.121 Q117.89 415.121 116.015 415.538 Q114.163 415.955 112.219 416.834 L112.219 399.473 Z" fill="#000000" fill-rule="nonzero" fill-opacity="1" /><path clip-path="url(#clip970)" d="M51.6634 99.5305 L59.3023 99.5305 L59.3023 73.1649 L50.9921 74.8316 L50.9921 70.5723 L59.256 68.9057 L63.9319 68.9057 L63.9319 99.5305 L71.5707 99.5305 L71.5707 103.466 L51.6634 103.466 L51.6634 99.5305 Z" fill="#000000" fill-rule="nonzero" fill-opacity="1" /><path clip-path="url(#clip970)" d="M91.0151 71.9844 Q87.404 71.9844 85.5753 75.5492 Q83.7697 79.0908 83.7697 86.2204 Q83.7697 93.3268 85.5753 96.8916 Q87.404 100.433 91.0151 100.433 Q94.6493 100.433 96.4548 96.8916 Q98.2835 93.3268 98.2835 86.2204 Q98.2835 79.0908 96.4548 75.5492 Q94.6493 71.9844 91.0151 71.9844 M91.0151 68.2807 Q96.8252 68.2807 99.8808 72.8871 Q102.959 77.4704 102.959 86.2204 Q102.959 94.9472 99.8808 99.5537 Q96.8252 104.137 91.0151 104.137 Q85.2049 104.137 82.1262 99.5537 Q79.0707 94.9472 79.0707 86.2204 Q79.0707 77.4704 82.1262 72.8871 Q85.2049 68.2807 91.0151 68.2807 Z" fill="#000000" fill-rule="nonzero" fill-opacity="1" /><path clip-path="url(#clip970)" d="M121.177 71.9844 Q117.566 71.9844 115.737 75.5492 Q113.932 79.0908 113.932 86.2204 Q113.932 93.3268 115.737 96.8916 Q117.566 100.433 121.177 100.433 Q124.811 100.433 126.617 96.8916 Q128.445 93.3268 128.445 86.2204 Q128.445 79.0908 126.617 75.5492 Q124.811 71.9844 121.177 71.9844 M121.177 68.2807 Q126.987 68.2807 130.043 72.8871 Q133.121 77.4704 133.121 86.2204 Q133.121 94.9472 130.043 99.5537 Q126.987 104.137 121.177 104.137 Q115.367 104.137 112.288 99.5537 Q109.233 94.9472 109.233 86.2204 Q109.233 77.4704 112.288 72.8871 Q115.367 68.2807 121.177 68.2807 Z" fill="#000000" fill-rule="nonzero" fill-opacity="1" /><polyline clip-path="url(#clip971)" style="stroke:#000000; stroke-linecap:round; stroke-linejoin:round; stroke-width:8; stroke-opacity:1; fill:none" points="230.922,86.1857 241.222,112.368 251.523,138.033 261.823,163.189 272.123,187.847 282.423,212.016 292.723,235.707 303.023,258.929 313.324,281.692 323.624,304.003 333.924,325.873 344.224,347.309 354.524,368.321 364.824,388.917 375.125,409.106 385.425,428.894 395.725,448.291 406.025,467.303 416.325,485.939 426.625,504.207 436.926,522.112 447.226,539.663 457.526,556.866 467.826,573.729 478.126,590.257 488.426,606.459 498.727,622.339 509.027,637.905 519.327,653.163 529.627,668.119 539.927,682.779 550.227,697.148 560.528,711.233 570.828,725.039 581.128,738.572 591.428,751.836 601.728,764.838 612.028,777.583 622.328,790.075 632.629,802.32 642.929,814.322 653.229,826.087 663.529,837.618 673.829,848.922 684.129,860.001 694.43,870.861 704.73,881.506 715.03,891.941 725.33,902.168 735.63,912.194 745.93,922.02 756.231,931.652 766.531,941.094 776.831,950.348 787.131,959.419 797.431,968.311 807.731,977.026 818.032,985.569 828.332,993.943 838.632,1002.15 848.932,1010.2 859.232,1018.08 869.532,1025.81 879.833,1033.39 890.133,1040.82 900.433,1048.1 910.733,1055.23 921.033,1062.23 931.333,1069.08 941.634,1075.8 951.934,1082.39 962.234,1088.85 972.534,1095.17 982.834,1101.38 993.134,1107.46 1003.43,1113.42 1013.73,1119.26 1024.03,1124.99 1034.34,1130.6 1044.64,1136.1 1054.94,1141.49 1065.24,1146.78 1075.54,1151.96 1085.84,1157.04 1096.14,1162.02 1106.44,1166.9 1116.74,1171.68 1127.04,1176.37 1137.34,1180.97 1147.64,1185.47 1157.94,1189.89 1168.24,1194.21 1178.54,1198.46 1188.84,1202.62 1199.14,1206.69 1209.44,1210.69 1219.74,1214.6 1230.04,1218.44 1240.34,1222.2 1250.64,1225.89 1260.94,1229.51 1271.24,1233.05 1281.54,1236.52 1291.84,1239.93 1302.14,1243.26 1312.44,1246.54 1322.74,1249.74 1333.04,1252.88 1343.34,1255.97 1353.64,1258.98 1363.94,1261.94 1374.24,1264.85 1384.54,1267.69 1394.84,1270.48 1405.14,1273.21 1415.44,1275.89 1425.74,1278.51 1436.04,1281.09 1446.34,1283.61 1456.64,1286.08 1466.94,1288.5 1477.24,1290.88 1487.54,1293.21 1497.84,1295.49 1508.14,1297.73 1518.44,1299.92 1528.74,1302.07 1539.04,1304.17 1549.34,1306.24 1559.64,1308.26 1569.94,1310.25 1580.24,1312.19 1590.54,1314.1 1600.84,1315.97 1611.14,1317.8 1621.44,1319.59 1631.74,1321.35 1642.04,1323.08 1652.34,1324.77 1662.64,1326.42 1672.95,1328.05 1683.25,1329.64 1693.55,1331.2 1703.85,1332.73 1714.15,1334.23 1724.45,1335.7 1734.75,1337.14 1745.05,1338.55 1755.35,1339.94 1765.65,1341.29 1775.95,1342.62 1786.25,1343.93 1796.55,1345.21 1806.85,1346.46 1817.15,1347.69 1827.45,1348.89 1837.75,1350.07 1848.05,1351.22 1858.35,1352.36 1868.65,1353.47 1878.95,1354.56 1889.25,1355.63 1899.55,1356.67 1909.85,1357.7 1920.15,1358.7 1930.45,1359.69 1940.75,1360.65 1951.05,1361.6 1961.35,1362.53 1971.65,1363.44 1981.95,1364.33 1992.25,1365.2 2002.55,1366.06 2012.85,1366.9 2023.15,1367.72 2033.45,1368.53 2043.75,1369.32 2054.05,1370.09 2064.35,1370.85 2074.65,1371.6 2084.95,1372.33 2095.25,1373.04 2105.55,1373.74 2115.85,1374.43 2126.15,1375.1 2136.45,1375.77 2146.75,1376.41 2157.05,1377.05 2167.35,1377.67 2177.65,1378.28 2187.95,1378.88 2198.25,1379.46 2208.55,1380.04 2218.85,1380.6 2229.15,1381.15 2239.45,1381.69 2249.75,1382.22 2260.05,1382.74 2270.35,1383.25 2280.65,1383.75 2290.95,1384.24 "/>
<circle clip-path="url(#clip971)" cx="282.423" cy="212.016" r="14.4" fill="#e26f46" fill-rule="evenodd" fill-opacity="1" stroke="none"/>
<circle clip-path="url(#clip971)" cx="539.927" cy="682.779" r="14.4" fill="#e26f46" fill-rule="evenodd" fill-opacity="1" stroke="none"/>
<circle clip-path="url(#clip971)" cx="797.431" cy="968.311" r="14.4" fill="#e26f46" fill-rule="evenodd" fill-opacity="1" stroke="none"/>
<circle clip-path="url(#clip971)" cx="1054.94" cy="1141.49" r="14.4" fill="#e26f46" fill-rule="evenodd" fill-opacity="1" stroke="none"/>
<circle clip-path="url(#clip971)" cx="1312.44" cy="1246.54" r="14.4" fill="#e26f46" fill-rule="evenodd" fill-opacity="1" stroke="none"/>
<circle clip-path="url(#clip971)" cx="1569.94" cy="1310.25" r="14.4" fill="#e26f46" fill-rule="evenodd" fill-opacity="1" stroke="none"/>
<circle clip-path="url(#clip971)" cx="1827.45" cy="1348.89" r="14.4" fill="#e26f46" fill-rule="evenodd" fill-opacity="1" stroke="none"/>
<circle clip-path="url(#clip971)" cx="2084.95" cy="1372.33" r="14.4" fill="#e26f46" fill-rule="evenodd" fill-opacity="1" stroke="none"/>
<path clip-path="url(#clip970)" d="M1370.43 196.789 L2279.97 196.789 L2279.97 93.1086 L1370.43 93.1086  Z" fill="#ffffff" fill-rule="evenodd" fill-opacity="1"/>
<polyline clip-path="url(#clip970)" style="stroke:#000000; stroke-linecap:round; stroke-linejoin:round; stroke-width:4; stroke-opacity:1; fill:none" points="1370.43,196.789 2279.97,196.789 2279.97,93.1086 1370.43,93.1086 1370.43,196.789 "/>
<circle clip-path="url(#clip970)" cx="1467.48" cy="144.949" r="20.48" fill="#e26f46" fill-rule="evenodd" fill-opacity="1" stroke="none"/>
<path clip-path="url(#clip970)" d="M1564.53 127.669 L1570.82 127.669 L1586.15 156.581 L1586.15 127.669 L1590.69 127.669 L1590.69 162.229 L1584.39 162.229 L1569.07 133.317 L1569.07 162.229 L1564.53 162.229 L1564.53 127.669 Z" fill="#000000" fill-rule="nonzero" fill-opacity="1" /><path clip-path="url(#clip970)" d="M1609.85 139.289 Q1606.43 139.289 1604.44 141.974 Q1602.45 144.636 1602.45 149.289 Q1602.45 153.942 1604.41 156.627 Q1606.4 159.289 1609.85 159.289 Q1613.26 159.289 1615.25 156.604 Q1617.24 153.918 1617.24 149.289 Q1617.24 144.682 1615.25 141.997 Q1613.26 139.289 1609.85 139.289 M1609.85 135.678 Q1615.41 135.678 1618.58 139.289 Q1621.75 142.9 1621.75 149.289 Q1621.75 155.655 1618.58 159.289 Q1615.41 162.9 1609.85 162.9 Q1604.27 162.9 1601.1 159.289 Q1597.95 155.655 1597.95 149.289 Q1597.95 142.9 1601.1 139.289 Q1604.27 135.678 1609.85 135.678 Z" fill="#000000" fill-rule="nonzero" fill-opacity="1" /><path clip-path="url(#clip970)" d="M1628.81 136.303 L1633.07 136.303 L1633.07 162.229 L1628.81 162.229 L1628.81 136.303 M1628.81 126.21 L1633.07 126.21 L1633.07 131.604 L1628.81 131.604 L1628.81 126.21 Z" fill="#000000" fill-rule="nonzero" fill-opacity="1" /><path clip-path="url(#clip970)" d="M1658.51 137.067 L1658.51 141.094 Q1656.7 140.169 1654.76 139.706 Q1652.82 139.243 1650.73 139.243 Q1647.56 139.243 1645.96 140.215 Q1644.39 141.187 1644.39 143.131 Q1644.39 144.613 1645.52 145.469 Q1646.66 146.303 1650.08 147.067 L1651.54 147.391 Q1656.08 148.363 1657.98 150.145 Q1659.9 151.905 1659.9 155.076 Q1659.9 158.687 1657.03 160.793 Q1654.18 162.9 1649.18 162.9 Q1647.1 162.9 1644.83 162.483 Q1642.58 162.09 1640.08 161.28 L1640.08 156.881 Q1642.44 158.108 1644.74 158.733 Q1647.03 159.335 1649.27 159.335 Q1652.28 159.335 1653.9 158.317 Q1655.52 157.275 1655.52 155.4 Q1655.52 153.664 1654.34 152.738 Q1653.19 151.812 1649.23 150.956 L1647.75 150.608 Q1643.79 149.775 1642.03 148.062 Q1640.27 146.326 1640.27 143.317 Q1640.27 139.659 1642.86 137.669 Q1645.45 135.678 1650.22 135.678 Q1652.58 135.678 1654.67 136.025 Q1656.75 136.372 1658.51 137.067 Z" fill="#000000" fill-rule="nonzero" fill-opacity="1" /><path clip-path="url(#clip970)" d="M1688.86 148.201 L1688.86 150.284 L1669.27 150.284 Q1669.55 154.682 1671.91 156.997 Q1674.3 159.289 1678.53 159.289 Q1680.99 159.289 1683.28 158.687 Q1685.59 158.085 1687.86 156.881 L1687.86 160.909 Q1685.57 161.881 1683.16 162.391 Q1680.75 162.9 1678.28 162.9 Q1672.07 162.9 1668.44 159.289 Q1664.83 155.678 1664.83 149.52 Q1664.83 143.155 1668.25 139.428 Q1671.7 135.678 1677.54 135.678 Q1682.77 135.678 1685.8 139.057 Q1688.86 142.414 1688.86 148.201 M1684.6 146.951 Q1684.55 143.456 1682.63 141.372 Q1680.73 139.289 1677.58 139.289 Q1674.02 139.289 1671.87 141.303 Q1669.74 143.317 1669.41 146.974 L1684.6 146.951 Z" fill="#000000" fill-rule="nonzero" fill-opacity="1" /><path clip-path="url(#clip970)" d="M1695.85 126.21 L1700.11 126.21 L1700.11 162.229 L1695.85 162.229 L1695.85 126.21 Z" fill="#000000" fill-rule="nonzero" fill-opacity="1" /><path clip-path="url(#clip970)" d="M1731.19 148.201 L1731.19 150.284 L1711.61 150.284 Q1711.89 154.682 1714.25 156.997 Q1716.63 159.289 1720.87 159.289 Q1723.32 159.289 1725.62 158.687 Q1727.93 158.085 1730.2 156.881 L1730.2 160.909 Q1727.91 161.881 1725.5 162.391 Q1723.09 162.9 1720.62 162.9 Q1714.41 162.9 1710.78 159.289 Q1707.17 155.678 1707.17 149.52 Q1707.17 143.155 1710.59 139.428 Q1714.04 135.678 1719.88 135.678 Q1725.11 135.678 1728.14 139.057 Q1731.19 142.414 1731.19 148.201 M1726.94 146.951 Q1726.89 143.456 1724.97 141.372 Q1723.07 139.289 1719.92 139.289 Q1716.36 139.289 1714.2 141.303 Q1712.07 143.317 1711.75 146.974 L1726.94 146.951 Z" fill="#000000" fill-rule="nonzero" fill-opacity="1" /><path clip-path="url(#clip970)" d="M1754.71 137.067 L1754.71 141.094 Q1752.91 140.169 1750.96 139.706 Q1749.02 139.243 1746.94 139.243 Q1743.76 139.243 1742.17 140.215 Q1740.59 141.187 1740.59 143.131 Q1740.59 144.613 1741.73 145.469 Q1742.86 146.303 1746.29 147.067 L1747.75 147.391 Q1752.28 148.363 1754.18 150.145 Q1756.1 151.905 1756.1 155.076 Q1756.1 158.687 1753.23 160.793 Q1750.38 162.9 1745.38 162.9 Q1743.3 162.9 1741.03 162.483 Q1738.79 162.09 1736.29 161.28 L1736.29 156.881 Q1738.65 158.108 1740.94 158.733 Q1743.23 159.335 1745.48 159.335 Q1748.49 159.335 1750.11 158.317 Q1751.73 157.275 1751.73 155.4 Q1751.73 153.664 1750.55 152.738 Q1749.39 151.812 1745.43 150.956 L1743.95 150.608 Q1739.99 149.775 1738.23 148.062 Q1736.47 146.326 1736.47 143.317 Q1736.47 139.659 1739.06 137.669 Q1741.66 135.678 1746.43 135.678 Q1748.79 135.678 1750.87 136.025 Q1752.95 136.372 1754.71 137.067 Z" fill="#000000" fill-rule="nonzero" fill-opacity="1" /><path clip-path="url(#clip970)" d="M1779.41 137.067 L1779.41 141.094 Q1777.61 140.169 1775.66 139.706 Q1773.72 139.243 1771.63 139.243 Q1768.46 139.243 1766.87 140.215 Q1765.29 141.187 1765.29 143.131 Q1765.29 144.613 1766.43 145.469 Q1767.56 146.303 1770.99 147.067 L1772.44 147.391 Q1776.98 148.363 1778.88 150.145 Q1780.8 151.905 1780.8 155.076 Q1780.8 158.687 1777.93 160.793 Q1775.08 162.9 1770.08 162.9 Q1768 162.9 1765.73 162.483 Q1763.49 162.09 1760.99 161.28 L1760.99 156.881 Q1763.35 158.108 1765.64 158.733 Q1767.93 159.335 1770.18 159.335 Q1773.18 159.335 1774.81 158.317 Q1776.43 157.275 1776.43 155.4 Q1776.43 153.664 1775.25 152.738 Q1774.09 151.812 1770.13 150.956 L1768.65 150.608 Q1764.69 149.775 1762.93 148.062 Q1761.17 146.326 1761.17 143.317 Q1761.17 139.659 1763.76 137.669 Q1766.36 135.678 1771.12 135.678 Q1773.49 135.678 1775.57 136.025 Q1777.65 136.372 1779.41 137.067 Z" fill="#000000" fill-rule="nonzero" fill-opacity="1" /><path clip-path="url(#clip970)" d="M1819.71 140.238 L1819.71 126.21 L1823.97 126.21 L1823.97 162.229 L1819.71 162.229 L1819.71 158.34 Q1818.37 160.655 1816.31 161.789 Q1814.27 162.9 1811.4 162.9 Q1806.7 162.9 1803.74 159.15 Q1800.8 155.4 1800.8 149.289 Q1800.8 143.178 1803.74 139.428 Q1806.7 135.678 1811.4 135.678 Q1814.27 135.678 1816.31 136.812 Q1818.37 137.923 1819.71 140.238 M1805.2 149.289 Q1805.2 153.988 1807.12 156.673 Q1809.06 159.335 1812.44 159.335 Q1815.82 159.335 1817.77 156.673 Q1819.71 153.988 1819.71 149.289 Q1819.71 144.59 1817.77 141.928 Q1815.82 139.243 1812.44 139.243 Q1809.06 139.243 1807.12 141.928 Q1805.2 144.59 1805.2 149.289 Z" fill="#000000" fill-rule="nonzero" fill-opacity="1" /><path clip-path="url(#clip970)" d="M1844.53 149.196 Q1839.37 149.196 1837.37 150.377 Q1835.38 151.557 1835.38 154.405 Q1835.38 156.673 1836.87 158.016 Q1838.37 159.335 1840.94 159.335 Q1844.48 159.335 1846.61 156.835 Q1848.76 154.312 1848.76 150.145 L1848.76 149.196 L1844.53 149.196 M1853.02 147.437 L1853.02 162.229 L1848.76 162.229 L1848.76 158.293 Q1847.3 160.655 1845.13 161.789 Q1842.95 162.9 1839.8 162.9 Q1835.82 162.9 1833.46 160.678 Q1831.12 158.432 1831.12 154.682 Q1831.12 150.307 1834.04 148.085 Q1836.98 145.863 1842.79 145.863 L1848.76 145.863 L1848.76 145.446 Q1848.76 142.507 1846.82 140.909 Q1844.9 139.289 1841.4 139.289 Q1839.18 139.289 1837.07 139.821 Q1834.97 140.354 1833.02 141.419 L1833.02 137.483 Q1835.36 136.581 1837.56 136.141 Q1839.76 135.678 1841.84 135.678 Q1847.47 135.678 1850.24 138.594 Q1853.02 141.511 1853.02 147.437 Z" fill="#000000" fill-rule="nonzero" fill-opacity="1" /><path clip-path="url(#clip970)" d="M1866.01 128.942 L1866.01 136.303 L1874.78 136.303 L1874.78 139.613 L1866.01 139.613 L1866.01 153.687 Q1866.01 156.858 1866.86 157.761 Q1867.74 158.664 1870.41 158.664 L1874.78 158.664 L1874.78 162.229 L1870.41 162.229 Q1865.48 162.229 1863.6 160.4 Q1861.73 158.548 1861.73 153.687 L1861.73 139.613 L1858.6 139.613 L1858.6 136.303 L1861.73 136.303 L1861.73 128.942 L1866.01 128.942 Z" fill="#000000" fill-rule="nonzero" fill-opacity="1" /><path clip-path="url(#clip970)" d="M1892.17 149.196 Q1887 149.196 1885.01 150.377 Q1883.02 151.557 1883.02 154.405 Q1883.02 156.673 1884.5 158.016 Q1886.01 159.335 1888.58 159.335 Q1892.12 159.335 1894.25 156.835 Q1896.4 154.312 1896.4 150.145 L1896.4 149.196 L1892.17 149.196 M1900.66 147.437 L1900.66 162.229 L1896.4 162.229 L1896.4 158.293 Q1894.94 160.655 1892.77 161.789 Q1890.59 162.9 1887.44 162.9 Q1883.46 162.9 1881.1 160.678 Q1878.76 158.432 1878.76 154.682 Q1878.76 150.307 1881.68 148.085 Q1884.62 145.863 1890.43 145.863 L1896.4 145.863 L1896.4 145.446 Q1896.4 142.507 1894.46 140.909 Q1892.54 139.289 1889.04 139.289 Q1886.82 139.289 1884.71 139.821 Q1882.61 140.354 1880.66 141.419 L1880.66 137.483 Q1883 136.581 1885.2 136.141 Q1887.4 135.678 1889.48 135.678 Q1895.11 135.678 1897.88 138.594 Q1900.66 141.511 1900.66 147.437 Z" fill="#000000" fill-rule="nonzero" fill-opacity="1" /><path clip-path="url(#clip970)" d="M1910.52 156.349 L1915.41 156.349 L1915.41 160.33 L1911.61 167.738 L1908.62 167.738 L1910.52 160.33 L1910.52 156.349 Z" fill="#000000" fill-rule="nonzero" fill-opacity="1" /><path clip-path="url(#clip970)" d="M1939.76 127.669 L1946.73 127.669 L1955.55 151.187 L1964.41 127.669 L1971.38 127.669 L1971.38 162.229 L1966.82 162.229 L1966.82 131.882 L1957.91 155.585 L1953.21 155.585 L1944.3 131.882 L1944.3 162.229 L1939.76 162.229 L1939.76 127.669 Z" fill="#000000" fill-rule="nonzero" fill-opacity="1" /><path clip-path="url(#clip970)" d="M1981.03 140.701 L2010.71 140.701 L2010.71 144.59 L1981.03 144.59 L1981.03 140.701 M1981.03 150.145 L2010.71 150.145 L2010.71 154.081 L1981.03 154.081 L1981.03 150.145 Z" fill="#000000" fill-rule="nonzero" fill-opacity="1" /><path clip-path="url(#clip970)" d="M2030.8 145.817 Q2027.47 145.817 2025.54 147.599 Q2023.65 149.381 2023.65 152.506 Q2023.65 155.631 2025.54 157.414 Q2027.47 159.196 2030.8 159.196 Q2034.13 159.196 2036.05 157.414 Q2037.98 155.608 2037.98 152.506 Q2037.98 149.381 2036.05 147.599 Q2034.16 145.817 2030.8 145.817 M2026.12 143.826 Q2023.11 143.085 2021.42 141.025 Q2019.76 138.965 2019.76 136.002 Q2019.76 131.858 2022.7 129.451 Q2025.66 127.044 2030.8 127.044 Q2035.96 127.044 2038.9 129.451 Q2041.84 131.858 2041.84 136.002 Q2041.84 138.965 2040.15 141.025 Q2038.48 143.085 2035.5 143.826 Q2038.88 144.613 2040.75 146.905 Q2042.65 149.196 2042.65 152.506 Q2042.65 157.53 2039.57 160.215 Q2036.52 162.9 2030.8 162.9 Q2025.08 162.9 2022 160.215 Q2018.95 157.53 2018.95 152.506 Q2018.95 149.196 2020.85 146.905 Q2022.74 144.613 2026.12 143.826 M2024.41 136.442 Q2024.41 139.127 2026.08 140.632 Q2027.77 142.136 2030.8 142.136 Q2033.81 142.136 2035.5 140.632 Q2037.21 139.127 2037.21 136.442 Q2037.21 133.757 2035.5 132.252 Q2033.81 130.747 2030.8 130.747 Q2027.77 130.747 2026.08 132.252 Q2024.41 133.757 2024.41 136.442 Z" fill="#000000" fill-rule="nonzero" fill-opacity="1" /><path clip-path="url(#clip970)" d="M2081.96 137.067 L2081.96 141.094 Q2080.15 140.169 2078.21 139.706 Q2076.26 139.243 2074.18 139.243 Q2071.01 139.243 2069.41 140.215 Q2067.84 141.187 2067.84 143.131 Q2067.84 144.613 2068.97 145.469 Q2070.1 146.303 2073.53 147.067 L2074.99 147.391 Q2079.53 148.363 2081.42 150.145 Q2083.35 151.905 2083.35 155.076 Q2083.35 158.687 2080.47 160.793 Q2077.63 162.9 2072.63 162.9 Q2070.54 162.9 2068.28 162.483 Q2066.03 162.09 2063.53 161.28 L2063.53 156.881 Q2065.89 158.108 2068.18 158.733 Q2070.47 159.335 2072.72 159.335 Q2075.73 159.335 2077.35 158.317 Q2078.97 157.275 2078.97 155.4 Q2078.97 153.664 2077.79 152.738 Q2076.63 151.812 2072.67 150.956 L2071.19 150.608 Q2067.23 149.775 2065.48 148.062 Q2063.72 146.326 2063.72 143.317 Q2063.72 139.659 2066.31 137.669 Q2068.9 135.678 2073.67 135.678 Q2076.03 135.678 2078.11 136.025 Q2080.2 136.372 2081.96 137.067 Z" fill="#000000" fill-rule="nonzero" fill-opacity="1" /><path clip-path="url(#clip970)" d="M2101.91 149.196 Q2096.75 149.196 2094.76 150.377 Q2092.77 151.557 2092.77 154.405 Q2092.77 156.673 2094.25 158.016 Q2095.75 159.335 2098.32 159.335 Q2101.86 159.335 2103.99 156.835 Q2106.15 154.312 2106.15 150.145 L2106.15 149.196 L2101.91 149.196 M2110.41 147.437 L2110.41 162.229 L2106.15 162.229 L2106.15 158.293 Q2104.69 160.655 2102.51 161.789 Q2100.34 162.9 2097.19 162.9 Q2093.21 162.9 2090.85 160.678 Q2088.51 158.432 2088.51 154.682 Q2088.51 150.307 2091.42 148.085 Q2094.36 145.863 2100.17 145.863 L2106.15 145.863 L2106.15 145.446 Q2106.15 142.507 2104.2 140.909 Q2102.28 139.289 2098.79 139.289 Q2096.56 139.289 2094.46 139.821 Q2092.35 140.354 2090.41 141.419 L2090.41 137.483 Q2092.74 136.581 2094.94 136.141 Q2097.14 135.678 2099.22 135.678 Q2104.85 135.678 2107.63 138.594 Q2110.41 141.511 2110.41 147.437 Z" fill="#000000" fill-rule="nonzero" fill-opacity="1" /><path clip-path="url(#clip970)" d="M2139.36 141.28 Q2140.96 138.409 2143.18 137.044 Q2145.41 135.678 2148.41 135.678 Q2152.47 135.678 2154.66 138.525 Q2156.86 141.349 2156.86 146.581 L2156.86 162.229 L2152.58 162.229 L2152.58 146.719 Q2152.58 142.993 2151.26 141.187 Q2149.94 139.382 2147.23 139.382 Q2143.92 139.382 2142 141.581 Q2140.08 143.78 2140.08 147.576 L2140.08 162.229 L2135.8 162.229 L2135.8 146.719 Q2135.8 142.969 2134.48 141.187 Q2133.16 139.382 2130.41 139.382 Q2127.14 139.382 2125.22 141.604 Q2123.3 143.803 2123.3 147.576 L2123.3 162.229 L2119.02 162.229 L2119.02 136.303 L2123.3 136.303 L2123.3 140.331 Q2124.76 137.946 2126.79 136.812 Q2128.83 135.678 2131.63 135.678 Q2134.46 135.678 2136.42 137.113 Q2138.41 138.548 2139.36 141.28 Z" fill="#000000" fill-rule="nonzero" fill-opacity="1" /><path clip-path="url(#clip970)" d="M2169.48 158.34 L2169.48 172.09 L2165.2 172.09 L2165.2 136.303 L2169.48 136.303 L2169.48 140.238 Q2170.82 137.923 2172.86 136.812 Q2174.92 135.678 2177.77 135.678 Q2182.49 135.678 2185.43 139.428 Q2188.39 143.178 2188.39 149.289 Q2188.39 155.4 2185.43 159.15 Q2182.49 162.9 2177.77 162.9 Q2174.92 162.9 2172.86 161.789 Q2170.82 160.655 2169.48 158.34 M2183.97 149.289 Q2183.97 144.59 2182.03 141.928 Q2180.1 139.243 2176.72 139.243 Q2173.34 139.243 2171.4 141.928 Q2169.48 144.59 2169.48 149.289 Q2169.48 153.988 2171.4 156.673 Q2173.34 159.335 2176.72 159.335 Q2180.1 159.335 2182.03 156.673 Q2183.97 153.988 2183.97 149.289 Z" fill="#000000" fill-rule="nonzero" fill-opacity="1" /><path clip-path="url(#clip970)" d="M2195.45 126.21 L2199.71 126.21 L2199.71 162.229 L2195.45 162.229 L2195.45 126.21 Z" fill="#000000" fill-rule="nonzero" fill-opacity="1" /><path clip-path="url(#clip970)" d="M2230.8 148.201 L2230.8 150.284 L2211.21 150.284 Q2211.49 154.682 2213.85 156.997 Q2216.24 159.289 2220.47 159.289 Q2222.93 159.289 2225.22 158.687 Q2227.53 158.085 2229.8 156.881 L2229.8 160.909 Q2227.51 161.881 2225.1 162.391 Q2222.7 162.9 2220.22 162.9 Q2214.02 162.9 2210.38 159.289 Q2206.77 155.678 2206.77 149.52 Q2206.77 143.155 2210.2 139.428 Q2213.65 135.678 2219.48 135.678 Q2224.71 135.678 2227.74 139.057 Q2230.8 142.414 2230.8 148.201 M2226.54 146.951 Q2226.49 143.456 2224.57 141.372 Q2222.67 139.289 2219.53 139.289 Q2215.96 139.289 2213.81 141.303 Q2211.68 143.317 2211.35 146.974 L2226.54 146.951 Z" fill="#000000" fill-rule="nonzero" fill-opacity="1" /><path clip-path="url(#clip970)" d="M2254.32 137.067 L2254.32 141.094 Q2252.51 140.169 2250.57 139.706 Q2248.62 139.243 2246.54 139.243 Q2243.37 139.243 2241.77 140.215 Q2240.2 141.187 2240.2 143.131 Q2240.2 144.613 2241.33 145.469 Q2242.46 146.303 2245.89 147.067 L2247.35 147.391 Q2251.89 148.363 2253.78 150.145 Q2255.71 151.905 2255.71 155.076 Q2255.71 158.687 2252.84 160.793 Q2249.99 162.9 2244.99 162.9 Q2242.9 162.9 2240.64 162.483 Q2238.39 162.09 2235.89 161.28 L2235.89 156.881 Q2238.25 158.108 2240.54 158.733 Q2242.84 159.335 2245.08 159.335 Q2248.09 159.335 2249.71 158.317 Q2251.33 157.275 2251.33 155.4 Q2251.33 153.664 2250.15 152.738 Q2248.99 151.812 2245.03 150.956 L2243.55 150.608 Q2239.59 149.775 2237.84 148.062 Q2236.08 146.326 2236.08 143.317 Q2236.08 139.659 2238.67 137.669 Q2241.26 135.678 2246.03 135.678 Q2248.39 135.678 2250.47 136.025 Q2252.56 136.372 2254.32 137.067 Z" fill="#000000" fill-rule="nonzero" fill-opacity="1" /></svg>
