<?xml version="1.0" encoding="utf-8"?>
<svg xmlns="http://www.w3.org/2000/svg" xmlns:xlink="http://www.w3.org/1999/xlink" width="600" height="400" viewBox="0 0 2400 1600">
<defs>
  <clipPath id="clip150">
    <rect x="0" y="0" width="2400" height="1600"/>
  </clipPath>
</defs>
<path clip-path="url(#clip150)" d="M0 1600 L2400 1600 L2400 0 L0 0  Z" fill="#ffffff" fill-rule="evenodd" fill-opacity="1"/>
<defs>
  <clipPath id="clip151">
    <rect x="175" y="47" width="2178" height="1377"/>
  </clipPath>
</defs>
<path clip-path="url(#clip150)" d="M175.445 1423.18 L2352.76 1423.18 L2352.76 47.2441 L175.445 47.2441  Z" fill="#ffffff" fill-rule="evenodd" fill-opacity="1"/>
<polyline clip-path="url(#clip151)" style="stroke:#000000; stroke-linecap:round; stroke-linejoin:round; stroke-width:2; stroke-opacity:0.1; fill:none" points="237.067,1423.18 237.067,47.2441 "/>
<polyline clip-path="url(#clip151)" style="stroke:#000000; stroke-linecap:round; stroke-linejoin:round; stroke-width:2; stroke-opacity:0.1; fill:none" points="288.419,1423.18 288.419,47.2441 "/>
<polyline clip-path="url(#clip151)" style="stroke:#000000; stroke-linecap:round; stroke-linejoin:round; stroke-width:2; stroke-opacity:0.1; fill:none" points="545.177,1423.18 545.177,47.2441 "/>
<polyline clip-path="url(#clip151)" style="stroke:#000000; stroke-linecap:round; stroke-linejoin:round; stroke-width:2; stroke-opacity:0.1; fill:none" points="801.936,1423.18 801.936,47.2441 "/>
<polyline clip-path="url(#clip151)" style="stroke:#000000; stroke-linecap:round; stroke-linejoin:round; stroke-width:2; stroke-opacity:0.1; fill:none" points="1058.69,1423.18 1058.69,47.2441 "/>
<polyline clip-path="url(#clip151)" style="stroke:#000000; stroke-linecap:round; stroke-linejoin:round; stroke-width:2; stroke-opacity:0.1; fill:none" points="1315.45,1423.18 1315.45,47.2441 "/>
<polyline clip-path="url(#clip151)" style="stroke:#000000; stroke-linecap:round; stroke-linejoin:round; stroke-width:2; stroke-opacity:0.1; fill:none" points="1572.21,1423.18 1572.21,47.2441 "/>
<polyline clip-path="url(#clip151)" style="stroke:#000000; stroke-linecap:round; stroke-linejoin:round; stroke-width:2; stroke-opacity:0.1; fill:none" points="1828.97,1423.18 1828.97,47.2441 "/>
<polyline clip-path="url(#clip151)" style="stroke:#000000; stroke-linecap:round; stroke-linejoin:round; stroke-width:2; stroke-opacity:0.1; fill:none" points="2085.73,1423.18 2085.73,47.2441 "/>
<polyline clip-path="url(#clip151)" style="stroke:#000000; stroke-linecap:round; stroke-linejoin:round; stroke-width:2; stroke-opacity:0.1; fill:none" points="2291.13,1423.18 2291.13,47.2441 "/>
<polyline clip-path="url(#clip151)" style="stroke:#000000; stroke-linecap:round; stroke-linejoin:round; stroke-width:2; stroke-opacity:0.1; fill:none" points="175.445,1281.39 2352.76,1281.39 "/>
<polyline clip-path="url(#clip151)" style="stroke:#000000; stroke-linecap:round; stroke-linejoin:round; stroke-width:2; stroke-opacity:0.1; fill:none" points="175.445,1021.85 2352.76,1021.85 "/>
<polyline clip-path="url(#clip151)" style="stroke:#000000; stroke-linecap:round; stroke-linejoin:round; stroke-width:2; stroke-opacity:0.1; fill:none" points="175.445,762.32 2352.76,762.32 "/>
<polyline clip-path="url(#clip151)" style="stroke:#000000; stroke-linecap:round; stroke-linejoin:round; stroke-width:2; stroke-opacity:0.1; fill:none" points="175.445,502.784 2352.76,502.784 "/>
<polyline clip-path="url(#clip151)" style="stroke:#000000; stroke-linecap:round; stroke-linejoin:round; stroke-width:2; stroke-opacity:0.1; fill:none" points="175.445,243.249 2352.76,243.249 "/>
<polyline clip-path="url(#clip150)" style="stroke:#000000; stroke-linecap:round; stroke-linejoin:round; stroke-width:4; stroke-opacity:1; fill:none" points="175.445,1423.18 2352.76,1423.18 "/>
<polyline clip-path="url(#clip150)" style="stroke:#000000; stroke-linecap:round; stroke-linejoin:round; stroke-width:4; stroke-opacity:1; fill:none" points="237.067,1423.18 237.067,1404.28 "/>
<polyline clip-path="url(#clip150)" style="stroke:#000000; stroke-linecap:round; stroke-linejoin:round; stroke-width:4; stroke-opacity:1; fill:none" points="288.419,1423.18 288.419,1404.28 "/>
<polyline clip-path="url(#clip150)" style="stroke:#000000; stroke-linecap:round; stroke-linejoin:round; stroke-width:4; stroke-opacity:1; fill:none" points="545.177,1423.18 545.177,1404.28 "/>
<polyline clip-path="url(#clip150)" style="stroke:#000000; stroke-linecap:round; stroke-linejoin:round; stroke-width:4; stroke-opacity:1; fill:none" points="801.936,1423.18 801.936,1404.28 "/>
<polyline clip-path="url(#clip150)" style="stroke:#000000; stroke-linecap:round; stroke-linejoin:round; stroke-width:4; stroke-opacity:1; fill:none" points="1058.69,1423.18 1058.69,1404.28 "/>
<polyline clip-path="url(#clip150)" style="stroke:#000000; stroke-linecap:round; stroke-linejoin:round; stroke-width:4; stroke-opacity:1; fill:none" points="1315.45,1423.18 1315.45,1404.28 "/>
<polyline clip-path="url(#clip150)" style="stroke:#000000; stroke-linecap:round; stroke-linejoin:round; stroke-width:4; stroke-opacity:1; fill:none" points="1572.21,1423.18 1572.21,1404.28 "/>
<polyline clip-path="url(#clip150)" style="stroke:#000000; stroke-linecap:round; stroke-linejoin:round; stroke-width:4; stroke-opacity:1; fill:none" points="1828.97,1423.18 1828.97,1404.28 "/>
<polyline clip-path="url(#clip150)" style="stroke:#000000; stroke-linecap:round; stroke-linejoin:round; stroke-width:4; stroke-opacity:1; fill:none" points="2085.73,1423.18 2085.73,1404.28 "/>
<polyline clip-path="url(#clip150)" style="stroke:#000000; stroke-linecap:round; stroke-linejoin:round; stroke-width:4; stroke-opacity:1; fill:none" points="2291.13,1423.18 2291.13,1404.28 "/>
<path clip-path="url(#clip150)" d="M237.067 1454.1 Q233.456 1454.1 231.627 1457.66 Q229.822 1461.2 229.822 1468.33 Q229.822 1475.44 231.627 1479.01 Q233.456 1482.55 237.067 1482.55 Q240.701 1482.55 242.507 1479.01 Q244.336 1475.44 244.336 1468.33 Q244.336 1461.2 242.507 1457.66 Q240.701 1454.1 237.067 1454.1 M237.067 1450.39 Q242.877 1450.39 245.933 1455 Q249.012 1459.58 249.012 1468.33 Q249.012 1477.06 245.933 1481.67 Q242.877 1486.25 237.067 1486.25 Q231.257 1486.25 228.178 1481.67 Q225.123 1477.06 225.123 1468.33 Q225.123 1459.58 228.178 1455 Q231.257 1450.39 237.067 1450.39 Z" fill="#000000" fill-rule="nonzero" fill-opacity="1" /><path clip-path="url(#clip150)" d="M278.697 1451.02 L297.053 1451.02 L297.053 1454.96 L282.979 1454.96 L282.979 1463.43 Q283.998 1463.08 285.016 1462.92 Q286.035 1462.73 287.053 1462.73 Q292.84 1462.73 296.22 1465.9 Q299.599 1469.08 299.599 1474.49 Q299.599 1480.07 296.127 1483.17 Q292.655 1486.25 286.336 1486.25 Q284.16 1486.25 281.891 1485.88 Q279.646 1485.51 277.238 1484.77 L277.238 1480.07 Q279.322 1481.2 281.544 1481.76 Q283.766 1482.32 286.243 1482.32 Q290.248 1482.32 292.586 1480.21 Q294.923 1478.1 294.923 1474.49 Q294.923 1470.88 292.586 1468.77 Q290.248 1466.67 286.243 1466.67 Q284.368 1466.67 282.493 1467.08 Q280.641 1467.5 278.697 1468.38 L278.697 1451.02 Z" fill="#000000" fill-rule="nonzero" fill-opacity="1" /><path clip-path="url(#clip150)" d="M534.02 1466.95 Q537.376 1467.66 539.251 1469.93 Q541.149 1472.2 541.149 1475.53 Q541.149 1480.65 537.631 1483.45 Q534.112 1486.25 527.631 1486.25 Q525.455 1486.25 523.14 1485.81 Q520.849 1485.39 518.395 1484.54 L518.395 1480.02 Q520.339 1481.16 522.654 1481.74 Q524.969 1482.32 527.492 1482.32 Q531.89 1482.32 534.182 1480.58 Q536.497 1478.84 536.497 1475.53 Q536.497 1472.48 534.344 1470.77 Q532.214 1469.03 528.395 1469.03 L524.367 1469.03 L524.367 1465.19 L528.58 1465.19 Q532.029 1465.19 533.858 1463.82 Q535.687 1462.43 535.687 1459.84 Q535.687 1457.18 533.788 1455.77 Q531.913 1454.33 528.395 1454.33 Q526.474 1454.33 524.275 1454.75 Q522.075 1455.16 519.437 1456.04 L519.437 1451.88 Q522.099 1451.14 524.413 1450.77 Q526.751 1450.39 528.812 1450.39 Q534.136 1450.39 537.237 1452.83 Q540.339 1455.23 540.339 1459.35 Q540.339 1462.22 538.696 1464.21 Q537.052 1466.18 534.02 1466.95 Z" fill="#000000" fill-rule="nonzero" fill-opacity="1" /><path clip-path="url(#clip150)" d="M560.015 1454.1 Q556.404 1454.1 554.575 1457.66 Q552.77 1461.2 552.77 1468.33 Q552.77 1475.44 554.575 1479.01 Q556.404 1482.55 560.015 1482.55 Q563.649 1482.55 565.455 1479.01 Q567.284 1475.44 567.284 1468.33 Q567.284 1461.2 565.455 1457.66 Q563.649 1454.1 560.015 1454.1 M560.015 1450.39 Q565.825 1450.39 568.881 1455 Q571.959 1459.58 571.959 1468.33 Q571.959 1477.06 568.881 1481.67 Q565.825 1486.25 560.015 1486.25 Q554.205 1486.25 551.126 1481.67 Q548.071 1477.06 548.071 1468.33 Q548.071 1459.58 551.126 1455 Q554.205 1450.39 560.015 1450.39 Z" fill="#000000" fill-rule="nonzero" fill-opacity="1" /><path clip-path="url(#clip150)" d="M777.132 1451.02 L795.489 1451.02 L795.489 1454.96 L781.415 1454.96 L781.415 1463.43 Q782.433 1463.08 783.452 1462.92 Q784.47 1462.73 785.489 1462.73 Q791.276 1462.73 794.655 1465.9 Q798.035 1469.08 798.035 1474.49 Q798.035 1480.07 794.563 1483.17 Q791.091 1486.25 784.771 1486.25 Q782.595 1486.25 780.327 1485.88 Q778.082 1485.51 775.674 1484.77 L775.674 1480.07 Q777.757 1481.2 779.98 1481.76 Q782.202 1482.32 784.679 1482.32 Q788.683 1482.32 791.021 1480.21 Q793.359 1478.1 793.359 1474.49 Q793.359 1470.88 791.021 1468.77 Q788.683 1466.67 784.679 1466.67 Q782.804 1466.67 780.929 1467.08 Q779.077 1467.5 777.132 1468.38 L777.132 1451.02 Z" fill="#000000" fill-rule="nonzero" fill-opacity="1" /><path clip-path="url(#clip150)" d="M807.294 1451.02 L825.651 1451.02 L825.651 1454.96 L811.577 1454.96 L811.577 1463.43 Q812.595 1463.08 813.614 1462.92 Q814.632 1462.73 815.651 1462.73 Q821.438 1462.73 824.817 1465.9 Q828.197 1469.08 828.197 1474.49 Q828.197 1480.07 824.725 1483.17 Q821.253 1486.25 814.933 1486.25 Q812.757 1486.25 810.489 1485.88 Q808.243 1485.51 805.836 1484.77 L805.836 1480.07 Q807.919 1481.2 810.142 1481.76 Q812.364 1482.32 814.841 1482.32 Q818.845 1482.32 821.183 1480.21 Q823.521 1478.1 823.521 1474.49 Q823.521 1470.88 821.183 1468.77 Q818.845 1466.67 814.841 1466.67 Q812.966 1466.67 811.091 1467.08 Q809.239 1467.5 807.294 1468.38 L807.294 1451.02 Z" fill="#000000" fill-rule="nonzero" fill-opacity="1" /><path clip-path="url(#clip150)" d="M1043.57 1469.17 Q1040.23 1469.17 1038.31 1470.95 Q1036.41 1472.73 1036.41 1475.86 Q1036.41 1478.98 1038.31 1480.77 Q1040.23 1482.55 1043.57 1482.55 Q1046.9 1482.55 1048.82 1480.77 Q1050.74 1478.96 1050.74 1475.86 Q1050.74 1472.73 1048.82 1470.95 Q1046.92 1469.17 1043.57 1469.17 M1038.89 1467.18 Q1035.88 1466.44 1034.19 1464.38 Q1032.53 1462.32 1032.53 1459.35 Q1032.53 1455.21 1035.46 1452.8 Q1038.43 1450.39 1043.57 1450.39 Q1048.73 1450.39 1051.67 1452.8 Q1054.61 1455.21 1054.61 1459.35 Q1054.61 1462.32 1052.92 1464.38 Q1051.25 1466.44 1048.27 1467.18 Q1051.65 1467.96 1053.52 1470.26 Q1055.42 1472.55 1055.42 1475.86 Q1055.42 1480.88 1052.34 1483.57 Q1049.28 1486.25 1043.57 1486.25 Q1037.85 1486.25 1034.77 1483.57 Q1031.71 1480.88 1031.71 1475.86 Q1031.71 1472.55 1033.61 1470.26 Q1035.51 1467.96 1038.89 1467.18 M1037.18 1459.79 Q1037.18 1462.48 1038.84 1463.98 Q1040.53 1465.49 1043.57 1465.49 Q1046.58 1465.49 1048.27 1463.98 Q1049.98 1462.48 1049.98 1459.79 Q1049.98 1457.11 1048.27 1455.6 Q1046.58 1454.1 1043.57 1454.1 Q1040.53 1454.1 1038.84 1455.6 Q1037.18 1457.11 1037.18 1459.79 Z" fill="#000000" fill-rule="nonzero" fill-opacity="1" /><path clip-path="url(#clip150)" d="M1073.73 1454.1 Q1070.12 1454.1 1068.29 1457.66 Q1066.48 1461.2 1066.48 1468.33 Q1066.48 1475.44 1068.29 1479.01 Q1070.12 1482.55 1073.73 1482.55 Q1077.36 1482.55 1079.17 1479.01 Q1081 1475.44 1081 1468.33 Q1081 1461.2 1079.17 1457.66 Q1077.36 1454.1 1073.73 1454.1 M1073.73 1450.39 Q1079.54 1450.39 1082.59 1455 Q1085.67 1459.58 1085.67 1468.33 Q1085.67 1477.06 1082.59 1481.67 Q1079.54 1486.25 1073.73 1486.25 Q1067.92 1486.25 1064.84 1481.67 Q1061.78 1477.06 1061.78 1468.33 Q1061.78 1459.58 1064.84 1455 Q1067.92 1450.39 1073.73 1450.39 Z" fill="#000000" fill-rule="nonzero" fill-opacity="1" /><path clip-path="url(#clip150)" d="M1275.56 1481.64 L1283.2 1481.64 L1283.2 1455.28 L1274.89 1456.95 L1274.89 1452.69 L1283.15 1451.02 L1287.83 1451.02 L1287.83 1481.64 L1295.46 1481.64 L1295.46 1485.58 L1275.56 1485.58 L1275.56 1481.64 Z" fill="#000000" fill-rule="nonzero" fill-opacity="1" /><path clip-path="url(#clip150)" d="M1314.91 1454.1 Q1311.3 1454.1 1309.47 1457.66 Q1307.66 1461.2 1307.66 1468.33 Q1307.66 1475.44 1309.47 1479.01 Q1311.3 1482.55 1314.91 1482.55 Q1318.54 1482.55 1320.35 1479.01 Q1322.18 1475.44 1322.18 1468.33 Q1322.18 1461.2 1320.35 1457.66 Q1318.54 1454.1 1314.91 1454.1 M1314.91 1450.39 Q1320.72 1450.39 1323.77 1455 Q1326.85 1459.58 1326.85 1468.33 Q1326.85 1477.06 1323.77 1481.67 Q1320.72 1486.25 1314.91 1486.25 Q1309.1 1486.25 1306.02 1481.67 Q1302.96 1477.06 1302.96 1468.33 Q1302.96 1459.58 1306.02 1455 Q1309.1 1450.39 1314.91 1450.39 Z" fill="#000000" fill-rule="nonzero" fill-opacity="1" /><path clip-path="url(#clip150)" d="M1335.12 1451.02 L1353.47 1451.02 L1353.47 1454.96 L1339.4 1454.96 L1339.4 1463.43 Q1340.42 1463.08 1341.44 1462.92 Q1342.45 1462.73 1343.47 1462.73 Q1349.26 1462.73 1352.64 1465.9 Q1356.02 1469.08 1356.02 1474.49 Q1356.02 1480.07 1352.55 1483.17 Q1349.07 1486.25 1342.76 1486.25 Q1340.58 1486.25 1338.31 1485.88 Q1336.07 1485.51 1333.66 1484.77 L1333.66 1480.07 Q1335.74 1481.2 1337.96 1481.76 Q1340.19 1482.32 1342.66 1482.32 Q1346.67 1482.32 1349.01 1480.21 Q1351.34 1478.1 1351.34 1474.49 Q1351.34 1470.88 1349.01 1468.77 Q1346.67 1466.67 1342.66 1466.67 Q1340.79 1466.67 1338.91 1467.08 Q1337.06 1467.5 1335.12 1468.38 L1335.12 1451.02 Z" fill="#000000" fill-rule="nonzero" fill-opacity="1" /><path clip-path="url(#clip150)" d="M1531.82 1481.64 L1539.46 1481.64 L1539.46 1455.28 L1531.15 1456.95 L1531.15 1452.69 L1539.41 1451.02 L1544.09 1451.02 L1544.09 1481.64 L1551.72 1481.64 L1551.72 1485.58 L1531.82 1485.58 L1531.82 1481.64 Z" fill="#000000" fill-rule="nonzero" fill-opacity="1" /><path clip-path="url(#clip150)" d="M1575.34 1466.95 Q1578.69 1467.66 1580.57 1469.93 Q1582.47 1472.2 1582.47 1475.53 Q1582.47 1480.65 1578.95 1483.45 Q1575.43 1486.25 1568.95 1486.25 Q1566.77 1486.25 1564.46 1485.81 Q1562.16 1485.39 1559.71 1484.54 L1559.71 1480.02 Q1561.66 1481.16 1563.97 1481.74 Q1566.28 1482.32 1568.81 1482.32 Q1573.21 1482.32 1575.5 1480.58 Q1577.81 1478.84 1577.81 1475.53 Q1577.81 1472.48 1575.66 1470.77 Q1573.53 1469.03 1569.71 1469.03 L1565.68 1469.03 L1565.68 1465.19 L1569.9 1465.19 Q1573.34 1465.19 1575.17 1463.82 Q1577 1462.43 1577 1459.84 Q1577 1457.18 1575.1 1455.77 Q1573.23 1454.33 1569.71 1454.33 Q1567.79 1454.33 1565.59 1454.75 Q1563.39 1455.16 1560.75 1456.04 L1560.75 1451.88 Q1563.41 1451.14 1565.73 1450.77 Q1568.07 1450.39 1570.13 1450.39 Q1575.45 1450.39 1578.55 1452.83 Q1581.65 1455.23 1581.65 1459.35 Q1581.65 1462.22 1580.01 1464.21 Q1578.37 1466.18 1575.34 1466.95 Z" fill="#000000" fill-rule="nonzero" fill-opacity="1" /><path clip-path="url(#clip150)" d="M1601.33 1454.1 Q1597.72 1454.1 1595.89 1457.66 Q1594.09 1461.2 1594.09 1468.33 Q1594.09 1475.44 1595.89 1479.01 Q1597.72 1482.55 1601.33 1482.55 Q1604.97 1482.55 1606.77 1479.01 Q1608.6 1475.44 1608.6 1468.33 Q1608.6 1461.2 1606.77 1457.66 Q1604.97 1454.1 1601.33 1454.1 M1601.33 1450.39 Q1607.14 1450.39 1610.2 1455 Q1613.28 1459.58 1613.28 1468.33 Q1613.28 1477.06 1610.2 1481.67 Q1607.14 1486.25 1601.33 1486.25 Q1595.52 1486.25 1592.44 1481.67 Q1589.39 1477.06 1589.39 1468.33 Q1589.39 1459.58 1592.44 1455 Q1595.52 1450.39 1601.33 1450.39 Z" fill="#000000" fill-rule="nonzero" fill-opacity="1" /><path clip-path="url(#clip150)" d="M1789.07 1481.64 L1796.71 1481.64 L1796.71 1455.28 L1788.4 1456.95 L1788.4 1452.69 L1796.67 1451.02 L1801.34 1451.02 L1801.34 1481.64 L1808.98 1481.64 L1808.98 1485.58 L1789.07 1485.58 L1789.07 1481.64 Z" fill="#000000" fill-rule="nonzero" fill-opacity="1" /><path clip-path="url(#clip150)" d="M1818.47 1451.02 L1836.83 1451.02 L1836.83 1454.96 L1822.75 1454.96 L1822.75 1463.43 Q1823.77 1463.08 1824.79 1462.92 Q1825.81 1462.73 1826.83 1462.73 Q1832.61 1462.73 1835.99 1465.9 Q1839.37 1469.08 1839.37 1474.49 Q1839.37 1480.07 1835.9 1483.17 Q1832.43 1486.25 1826.11 1486.25 Q1823.93 1486.25 1821.67 1485.88 Q1819.42 1485.51 1817.01 1484.77 L1817.01 1480.07 Q1819.1 1481.2 1821.32 1481.76 Q1823.54 1482.32 1826.02 1482.32 Q1830.02 1482.32 1832.36 1480.21 Q1834.7 1478.1 1834.7 1474.49 Q1834.7 1470.88 1832.36 1468.77 Q1830.02 1466.67 1826.02 1466.67 Q1824.14 1466.67 1822.27 1467.08 Q1820.42 1467.5 1818.47 1468.38 L1818.47 1451.02 Z" fill="#000000" fill-rule="nonzero" fill-opacity="1" /><path clip-path="url(#clip150)" d="M1848.63 1451.02 L1866.99 1451.02 L1866.99 1454.96 L1852.92 1454.96 L1852.92 1463.43 Q1853.93 1463.08 1854.95 1462.92 Q1855.97 1462.73 1856.99 1462.73 Q1862.78 1462.73 1866.16 1465.9 Q1869.54 1469.08 1869.54 1474.49 Q1869.54 1480.07 1866.06 1483.17 Q1862.59 1486.25 1856.27 1486.25 Q1854.1 1486.25 1851.83 1485.88 Q1849.58 1485.51 1847.17 1484.77 L1847.17 1480.07 Q1849.26 1481.2 1851.48 1481.76 Q1853.7 1482.32 1856.18 1482.32 Q1860.18 1482.32 1862.52 1480.21 Q1864.86 1478.1 1864.86 1474.49 Q1864.86 1470.88 1862.52 1468.77 Q1860.18 1466.67 1856.18 1466.67 Q1854.3 1466.67 1852.43 1467.08 Q1850.58 1467.5 1848.63 1468.38 L1848.63 1451.02 Z" fill="#000000" fill-rule="nonzero" fill-opacity="1" /><path clip-path="url(#clip150)" d="M2045.33 1481.64 L2052.97 1481.64 L2052.97 1455.28 L2044.66 1456.95 L2044.66 1452.69 L2052.93 1451.02 L2057.6 1451.02 L2057.6 1481.64 L2065.24 1481.64 L2065.24 1485.58 L2045.33 1485.58 L2045.33 1481.64 Z" fill="#000000" fill-rule="nonzero" fill-opacity="1" /><path clip-path="url(#clip150)" d="M2084.69 1469.17 Q2081.35 1469.17 2079.43 1470.95 Q2077.53 1472.73 2077.53 1475.86 Q2077.53 1478.98 2079.43 1480.77 Q2081.35 1482.55 2084.69 1482.55 Q2088.02 1482.55 2089.94 1480.77 Q2091.86 1478.96 2091.86 1475.86 Q2091.86 1472.73 2089.94 1470.95 Q2088.04 1469.17 2084.69 1469.17 M2080.01 1467.18 Q2077 1466.44 2075.31 1464.38 Q2073.64 1462.32 2073.64 1459.35 Q2073.64 1455.21 2076.58 1452.8 Q2079.55 1450.39 2084.69 1450.39 Q2089.85 1450.39 2092.79 1452.8 Q2095.73 1455.21 2095.73 1459.35 Q2095.73 1462.32 2094.04 1464.38 Q2092.37 1466.44 2089.38 1467.18 Q2092.76 1467.96 2094.64 1470.26 Q2096.54 1472.55 2096.54 1475.86 Q2096.54 1480.88 2093.46 1483.57 Q2090.4 1486.25 2084.69 1486.25 Q2078.97 1486.25 2075.89 1483.57 Q2072.83 1480.88 2072.83 1475.86 Q2072.83 1472.55 2074.73 1470.26 Q2076.63 1467.96 2080.01 1467.18 M2078.3 1459.79 Q2078.3 1462.48 2079.96 1463.98 Q2081.65 1465.49 2084.69 1465.49 Q2087.69 1465.49 2089.38 1463.98 Q2091.1 1462.48 2091.1 1459.79 Q2091.1 1457.11 2089.38 1455.6 Q2087.69 1454.1 2084.69 1454.1 Q2081.65 1454.1 2079.96 1455.6 Q2078.3 1457.11 2078.3 1459.79 Z" fill="#000000" fill-rule="nonzero" fill-opacity="1" /><path clip-path="url(#clip150)" d="M2114.85 1454.1 Q2111.24 1454.1 2109.41 1457.66 Q2107.6 1461.2 2107.6 1468.33 Q2107.6 1475.44 2109.41 1479.01 Q2111.24 1482.55 2114.85 1482.55 Q2118.48 1482.55 2120.29 1479.01 Q2122.12 1475.44 2122.12 1468.33 Q2122.12 1461.2 2120.29 1457.66 Q2118.48 1454.1 2114.85 1454.1 M2114.85 1450.39 Q2120.66 1450.39 2123.71 1455 Q2126.79 1459.58 2126.79 1468.33 Q2126.79 1477.06 2123.71 1481.67 Q2120.66 1486.25 2114.85 1486.25 Q2109.04 1486.25 2105.96 1481.67 Q2102.9 1477.06 2102.9 1468.33 Q2102.9 1459.58 2105.96 1455 Q2109.04 1450.39 2114.85 1450.39 Z" fill="#000000" fill-rule="nonzero" fill-opacity="1" /><path clip-path="url(#clip150)" d="M2254.83 1481.64 L2271.15 1481.64 L2271.15 1485.58 L2249.2 1485.58 L2249.2 1481.64 Q2251.86 1478.89 2256.45 1474.26 Q2261.05 1469.61 2262.23 1468.27 Q2264.48 1465.74 2265.36 1464.01 Q2266.26 1462.25 2266.26 1460.56 Q2266.26 1457.8 2264.32 1456.07 Q2262.4 1454.33 2259.29 1454.33 Q2257.09 1454.33 2254.64 1455.09 Q2252.21 1455.86 2249.43 1457.41 L2249.43 1452.69 Q2252.26 1451.55 2254.71 1450.97 Q2257.16 1450.39 2259.2 1450.39 Q2264.57 1450.39 2267.77 1453.08 Q2270.96 1455.77 2270.96 1460.26 Q2270.96 1462.39 2270.15 1464.31 Q2269.36 1466.2 2267.26 1468.8 Q2266.68 1469.47 2263.58 1472.69 Q2260.47 1475.88 2254.83 1481.64 Z" fill="#000000" fill-rule="nonzero" fill-opacity="1" /><path clip-path="url(#clip150)" d="M2290.96 1454.1 Q2287.35 1454.1 2285.52 1457.66 Q2283.71 1461.2 2283.71 1468.33 Q2283.71 1475.44 2285.52 1479.01 Q2287.35 1482.55 2290.96 1482.55 Q2294.59 1482.55 2296.4 1479.01 Q2298.23 1475.44 2298.23 1468.33 Q2298.23 1461.2 2296.4 1457.66 Q2294.59 1454.1 2290.96 1454.1 M2290.96 1450.39 Q2296.77 1450.39 2299.83 1455 Q2302.9 1459.58 2302.9 1468.33 Q2302.9 1477.06 2299.83 1481.67 Q2296.77 1486.25 2290.96 1486.25 Q2285.15 1486.25 2282.07 1481.67 Q2279.02 1477.06 2279.02 1468.33 Q2279.02 1459.58 2282.07 1455 Q2285.15 1450.39 2290.96 1450.39 Z" fill="#000000" fill-rule="nonzero" fill-opacity="1" /><path clip-path="url(#clip150)" d="M2321.12 1454.1 Q2317.51 1454.1 2315.68 1457.66 Q2313.88 1461.2 2313.88 1468.33 Q2313.88 1475.44 2315.68 1479.01 Q2317.51 1482.55 2321.12 1482.55 Q2324.76 1482.55 2326.56 1479.01 Q2328.39 1475.44 2328.39 1468.33 Q2328.39 1461.2 2326.56 1457.66 Q2324.76 1454.1 2321.12 1454.1 M2321.12 1450.39 Q2326.93 1450.39 2329.99 1455 Q2333.07 1459.58 2333.07 1468.33 Q2333.07 1477.06 2329.99 1481.67 Q2326.93 1486.25 2321.12 1486.25 Q2315.31 1486.25 2312.23 1481.67 Q2309.18 1477.06 2309.18 1468.33 Q2309.18 1459.58 2312.23 1455 Q2315.31 1450.39 2321.12 1450.39 Z" fill="#000000" fill-rule="nonzero" fill-opacity="1" /><path clip-path="url(#clip150)" d="M1180.66 1522.27 L1180.66 1532.4 L1192.73 1532.4 L1192.73 1536.95 L1180.66 1536.95 L1180.66 1556.3 Q1180.66 1560.66 1181.84 1561.9 Q1183.05 1563.14 1186.71 1563.14 L1192.73 1563.14 L1192.73 1568.04 L1186.71 1568.04 Q1179.93 1568.04 1177.35 1565.53 Q1174.77 1562.98 1174.77 1556.3 L1174.77 1536.95 L1170.48 1536.95 L1170.48 1532.4 L1174.77 1532.4 L1174.77 1522.27 L1180.66 1522.27 Z" fill="#000000" fill-rule="nonzero" fill-opacity="1" /><path clip-path="url(#clip150)" d="M1235.22 1518.58 Q1230.95 1525.9 1228.88 1533.06 Q1226.81 1540.23 1226.81 1547.58 Q1226.81 1554.93 1228.88 1562.16 Q1230.98 1569.35 1235.22 1576.64 L1230.12 1576.64 Q1225.35 1569.16 1222.96 1561.93 Q1220.61 1554.71 1220.61 1547.58 Q1220.61 1540.48 1222.96 1533.29 Q1225.32 1526.09 1230.12 1518.58 L1235.22 1518.58 Z" fill="#000000" fill-rule="nonzero" fill-opacity="1" /><path clip-path="url(#clip150)" d="M1274.33 1539.24 Q1276.53 1535.29 1279.59 1533.41 Q1282.64 1531.54 1286.78 1531.54 Q1292.35 1531.54 1295.37 1535.45 Q1298.4 1539.33 1298.4 1546.53 L1298.4 1568.04 L1292.51 1568.04 L1292.51 1546.72 Q1292.51 1541.59 1290.69 1539.11 Q1288.88 1536.63 1285.16 1536.63 Q1280.6 1536.63 1277.96 1539.65 Q1275.32 1542.68 1275.32 1547.9 L1275.32 1568.04 L1269.43 1568.04 L1269.43 1546.72 Q1269.43 1541.56 1267.62 1539.11 Q1265.8 1536.63 1262.02 1536.63 Q1257.53 1536.63 1254.89 1539.68 Q1252.24 1542.71 1252.24 1547.9 L1252.24 1568.04 L1246.36 1568.04 L1246.36 1532.4 L1252.24 1532.4 L1252.24 1537.93 Q1254.25 1534.66 1257.05 1533.1 Q1259.85 1531.54 1263.7 1531.54 Q1267.59 1531.54 1270.29 1533.51 Q1273.03 1535.48 1274.33 1539.24 Z" fill="#000000" fill-rule="nonzero" fill-opacity="1" /><path clip-path="url(#clip150)" d="M1332.8 1533.45 L1332.8 1538.98 Q1330.32 1537.71 1327.65 1537.07 Q1324.97 1536.44 1322.11 1536.44 Q1317.75 1536.44 1315.55 1537.77 Q1313.39 1539.11 1313.39 1541.79 Q1313.39 1543.82 1314.95 1545 Q1316.51 1546.15 1321.22 1547.2 L1323.22 1547.64 Q1329.46 1548.98 1332.07 1551.43 Q1334.71 1553.85 1334.71 1558.21 Q1334.71 1563.17 1330.77 1566.07 Q1326.85 1568.97 1319.98 1568.97 Q1317.11 1568.97 1313.99 1568.39 Q1310.9 1567.85 1307.47 1566.74 L1307.47 1560.69 Q1310.71 1562.38 1313.86 1563.24 Q1317.02 1564.07 1320.1 1564.07 Q1324.24 1564.07 1326.47 1562.66 Q1328.7 1561.23 1328.7 1558.65 Q1328.7 1556.27 1327.07 1554.99 Q1325.48 1553.72 1320.04 1552.54 L1318 1552.07 Q1312.56 1550.92 1310.14 1548.56 Q1307.72 1546.18 1307.72 1542.04 Q1307.72 1537.01 1311.29 1534.27 Q1314.85 1531.54 1321.41 1531.54 Q1324.65 1531.54 1327.52 1532.01 Q1330.38 1532.49 1332.8 1533.45 Z" fill="#000000" fill-rule="nonzero" fill-opacity="1" /><path clip-path="url(#clip150)" d="M1343.11 1518.58 L1348.21 1518.58 Q1352.98 1526.09 1355.34 1533.29 Q1357.72 1540.48 1357.72 1547.58 Q1357.72 1554.71 1355.34 1561.93 Q1352.98 1569.16 1348.21 1576.64 L1343.11 1576.64 Q1347.35 1569.35 1349.42 1562.16 Q1351.52 1554.93 1351.52 1547.58 Q1351.52 1540.23 1349.42 1533.06 Q1347.35 1525.9 1343.11 1518.58 Z" fill="#000000" fill-rule="nonzero" fill-opacity="1" /><polyline clip-path="url(#clip150)" style="stroke:#000000; stroke-linecap:round; stroke-linejoin:round; stroke-width:4; stroke-opacity:1; fill:none" points="175.445,1423.18 175.445,47.2441 "/>
<polyline clip-path="url(#clip150)" style="stroke:#000000; stroke-linecap:round; stroke-linejoin:round; stroke-width:4; stroke-opacity:1; fill:none" points="175.445,1281.39 194.343,1281.39 "/>
<polyline clip-path="url(#clip150)" style="stroke:#000000; stroke-linecap:round; stroke-linejoin:round; stroke-width:4; stroke-opacity:1; fill:none" points="175.445,1021.85 194.343,1021.85 "/>
<polyline clip-path="url(#clip150)" style="stroke:#000000; stroke-linecap:round; stroke-linejoin:round; stroke-width:4; stroke-opacity:1; fill:none" points="175.445,762.32 194.343,762.32 "/>
<polyline clip-path="url(#clip150)" style="stroke:#000000; stroke-linecap:round; stroke-linejoin:round; stroke-width:4; stroke-opacity:1; fill:none" points="175.445,502.784 194.343,502.784 "/>
<polyline clip-path="url(#clip150)" style="stroke:#000000; stroke-linecap:round; stroke-linejoin:round; stroke-width:4; stroke-opacity:1; fill:none" points="175.445,243.249 194.343,243.249 "/>
<path clip-path="url(#clip150)" d="M127.501 1267.19 Q123.89 1267.19 122.061 1270.75 Q120.255 1274.3 120.255 1281.42 Q120.255 1288.53 122.061 1292.1 Q123.89 1295.64 127.501 1295.64 Q131.135 1295.64 132.941 1292.1 Q134.769 1288.53 134.769 1281.42 Q134.769 1274.3 132.941 1270.75 Q131.135 1267.19 127.501 1267.19 M127.501 1263.49 Q133.311 1263.49 136.367 1268.09 Q139.445 1272.68 139.445 1281.42 Q139.445 1290.15 136.367 1294.76 Q133.311 1299.34 127.501 1299.34 Q121.691 1299.34 118.612 1294.76 Q115.556 1290.15 115.556 1281.42 Q115.556 1272.68 118.612 1268.09 Q121.691 1263.49 127.501 1263.49 Z" fill="#000000" fill-rule="nonzero" fill-opacity="1" /><path clip-path="url(#clip150)" d="M119.538 1035.2 L127.177 1035.2 L127.177 1008.83 L118.867 1010.5 L118.867 1006.24 L127.13 1004.57 L131.806 1004.57 L131.806 1035.2 L139.445 1035.2 L139.445 1039.13 L119.538 1039.13 L119.538 1035.2 Z" fill="#000000" fill-rule="nonzero" fill-opacity="1" /><path clip-path="url(#clip150)" d="M123.126 775.664 L139.445 775.664 L139.445 779.6 L117.501 779.6 L117.501 775.664 Q120.163 772.91 124.746 768.28 Q129.353 763.627 130.533 762.285 Q132.779 759.762 133.658 758.026 Q134.561 756.266 134.561 754.576 Q134.561 751.822 132.617 750.086 Q130.695 748.35 127.593 748.35 Q125.394 748.35 122.941 749.114 Q120.51 749.877 117.732 751.428 L117.732 746.706 Q120.556 745.572 123.01 744.993 Q125.464 744.415 127.501 744.415 Q132.871 744.415 136.066 747.1 Q139.26 749.785 139.26 754.276 Q139.26 756.405 138.45 758.326 Q137.663 760.225 135.556 762.817 Q134.978 763.488 131.876 766.706 Q128.774 769.9 123.126 775.664 Z" fill="#000000" fill-rule="nonzero" fill-opacity="1" /><path clip-path="url(#clip150)" d="M132.316 501.43 Q135.672 502.148 137.547 504.416 Q139.445 506.685 139.445 510.018 Q139.445 515.134 135.927 517.935 Q132.408 520.735 125.927 520.735 Q123.751 520.735 121.436 520.296 Q119.144 519.879 116.691 519.022 L116.691 514.509 Q118.635 515.643 120.95 516.222 Q123.265 516.8 125.788 516.8 Q130.186 516.8 132.478 515.064 Q134.792 513.328 134.792 510.018 Q134.792 506.962 132.64 505.249 Q130.51 503.513 126.691 503.513 L122.663 503.513 L122.663 499.671 L126.876 499.671 Q130.325 499.671 132.154 498.305 Q133.982 496.916 133.982 494.324 Q133.982 491.661 132.084 490.249 Q130.209 488.814 126.691 488.814 Q124.769 488.814 122.57 489.231 Q120.371 489.648 117.732 490.527 L117.732 486.361 Q120.394 485.62 122.709 485.249 Q125.047 484.879 127.107 484.879 Q132.431 484.879 135.533 487.31 Q138.635 489.717 138.635 493.837 Q138.635 496.708 136.992 498.698 Q135.348 500.666 132.316 501.43 Z" fill="#000000" fill-rule="nonzero" fill-opacity="1" /><path clip-path="url(#clip150)" d="M129.862 230.043 L118.056 248.492 L129.862 248.492 L129.862 230.043 M128.635 225.969 L134.515 225.969 L134.515 248.492 L139.445 248.492 L139.445 252.381 L134.515 252.381 L134.515 260.529 L129.862 260.529 L129.862 252.381 L114.26 252.381 L114.26 247.867 L128.635 225.969 Z" fill="#000000" fill-rule="nonzero" fill-opacity="1" /><path clip-path="url(#clip150)" d="M16.4842 871.04 L16.4842 864.611 L58.5933 864.611 L58.5933 841.472 L64.0042 841.472 L64.0042 871.04 L16.4842 871.04 Z" fill="#000000" fill-rule="nonzero" fill-opacity="1" /><path clip-path="url(#clip150)" d="M32.4621 822.311 Q32.4621 827.021 36.1542 829.759 Q39.8145 832.496 46.212 832.496 Q52.6095 832.496 56.3017 829.79 Q59.9619 827.053 59.9619 822.311 Q59.9619 817.632 56.2698 814.895 Q52.5777 812.157 46.212 812.157 Q39.8781 812.157 36.186 814.895 Q32.4621 817.632 32.4621 822.311 M27.4968 822.311 Q27.4968 814.672 32.4621 810.311 Q37.4273 805.951 46.212 805.951 Q54.9649 805.951 59.9619 810.311 Q64.9272 814.672 64.9272 822.311 Q64.9272 829.981 59.9619 834.342 Q54.9649 838.671 46.212 838.671 Q37.4273 838.671 32.4621 834.342 Q27.4968 829.981 27.4968 822.311 Z" fill="#000000" fill-rule="nonzero" fill-opacity="1" /><path clip-path="url(#clip150)" d="M45.7664 772.786 Q39.4007 772.786 35.8996 775.427 Q32.3984 778.037 32.3984 782.78 Q32.3984 787.49 35.8996 790.132 Q39.4007 792.742 45.7664 792.742 Q52.1003 792.742 55.6014 790.132 Q59.1026 787.49 59.1026 782.78 Q59.1026 778.037 55.6014 775.427 Q52.1003 772.786 45.7664 772.786 M59.58 766.929 Q68.683 766.929 73.1071 770.971 Q77.5631 775.014 77.5631 783.353 Q77.5631 786.44 77.0857 789.177 Q76.6401 791.915 75.6852 794.493 L69.9879 794.493 Q71.3884 791.915 72.0568 789.4 Q72.7252 786.886 72.7252 784.276 Q72.7252 778.515 69.7015 775.65 Q66.7096 772.786 60.6303 772.786 L57.7339 772.786 Q60.885 774.6 62.4446 777.433 Q64.0042 780.265 64.0042 784.212 Q64.0042 790.769 59.0071 794.779 Q54.01 798.789 45.7664 798.789 Q37.491 798.789 32.4939 794.779 Q27.4968 790.769 27.4968 784.212 Q27.4968 780.265 29.0564 777.433 Q30.616 774.6 33.7671 772.786 L28.3562 772.786 L28.3562 766.929 L59.58 766.929 Z" fill="#000000" fill-rule="nonzero" fill-opacity="1" /><path clip-path="url(#clip150)" d="M33.7671 710.688 L14.479 710.688 L14.479 704.832 L64.0042 704.832 L64.0042 710.688 L58.657 710.688 Q61.8398 712.534 63.3994 715.367 Q64.9272 718.168 64.9272 722.115 Q64.9272 728.576 59.771 732.65 Q54.6147 736.692 46.212 736.692 Q37.8093 736.692 32.6531 732.65 Q27.4968 728.576 27.4968 722.115 Q27.4968 718.168 29.0564 715.367 Q30.5842 712.534 33.7671 710.688 M46.212 730.645 Q52.6732 730.645 56.3653 728.003 Q60.0256 725.329 60.0256 720.682 Q60.0256 716.035 56.3653 713.362 Q52.6732 710.688 46.212 710.688 Q39.7508 710.688 36.0905 713.362 Q32.3984 716.035 32.3984 720.682 Q32.3984 725.329 36.0905 728.003 Q39.7508 730.645 46.212 730.645 Z" fill="#000000" fill-rule="nonzero" fill-opacity="1" /><path clip-path="url(#clip150)" d="M46.0847 676.568 Q46.0847 683.666 47.7079 686.403 Q49.3312 689.14 53.2461 689.14 Q56.3653 689.14 58.2114 687.103 Q60.0256 685.034 60.0256 681.501 Q60.0256 676.632 56.5881 673.703 Q53.1188 670.743 47.3897 670.743 L46.0847 670.743 L46.0847 676.568 M43.6657 664.887 L64.0042 664.887 L64.0042 670.743 L58.5933 670.743 Q61.8398 672.748 63.3994 675.74 Q64.9272 678.732 64.9272 683.061 Q64.9272 688.535 61.8716 691.782 Q58.7843 694.997 53.6281 694.997 Q47.6125 694.997 44.5569 690.986 Q41.5014 686.944 41.5014 678.955 L41.5014 670.743 L40.9285 670.743 Q36.8862 670.743 34.6901 673.417 Q32.4621 676.059 32.4621 680.865 Q32.4621 683.92 33.1941 686.817 Q33.9262 689.713 35.3903 692.387 L29.9795 692.387 Q28.7381 689.172 28.1334 686.148 Q27.4968 683.125 27.4968 680.26 Q27.4968 672.526 31.5072 668.706 Q35.5176 664.887 43.6657 664.887 Z" fill="#000000" fill-rule="nonzero" fill-opacity="1" /><path clip-path="url(#clip150)" d="M18.2347 647.031 L28.3562 647.031 L28.3562 634.968 L32.9077 634.968 L32.9077 647.031 L52.2594 647.031 Q56.6199 647.031 57.8613 645.853 Q59.1026 644.644 59.1026 640.984 L59.1026 634.968 L64.0042 634.968 L64.0042 640.984 Q64.0042 647.763 61.4897 650.341 Q58.9434 652.919 52.2594 652.919 L32.9077 652.919 L32.9077 657.216 L28.3562 657.216 L28.3562 652.919 L18.2347 652.919 L18.2347 647.031 Z" fill="#000000" fill-rule="nonzero" fill-opacity="1" /><path clip-path="url(#clip150)" d="M46.0847 611.065 Q46.0847 618.163 47.7079 620.9 Q49.3312 623.637 53.2461 623.637 Q56.3653 623.637 58.2114 621.6 Q60.0256 619.531 60.0256 615.998 Q60.0256 611.128 56.5881 608.2 Q53.1188 605.24 47.3897 605.24 L46.0847 605.24 L46.0847 611.065 M43.6657 599.384 L64.0042 599.384 L64.0042 605.24 L58.5933 605.24 Q61.8398 607.245 63.3994 610.237 Q64.9272 613.229 64.9272 617.558 Q64.9272 623.032 61.8716 626.279 Q58.7843 629.493 53.6281 629.493 Q47.6125 629.493 44.5569 625.483 Q41.5014 621.441 41.5014 613.452 L41.5014 605.24 L40.9285 605.24 Q36.8862 605.24 34.6901 607.914 Q32.4621 610.556 32.4621 615.362 Q32.4621 618.417 33.1941 621.314 Q33.9262 624.21 35.3903 626.884 L29.9795 626.884 Q28.7381 623.669 28.1334 620.645 Q27.4968 617.621 27.4968 614.757 Q27.4968 607.023 31.5072 603.203 Q35.5176 599.384 43.6657 599.384 Z" fill="#000000" fill-rule="nonzero" fill-opacity="1" /><polyline clip-path="url(#clip151)" style="stroke:#d3d3d3; stroke-linecap:round; stroke-linejoin:round; stroke-width:8; stroke-opacity:1; fill:none" points="237.067,86.1857 247.338,91.3764 257.608,96.5671 267.878,101.758 278.149,106.949 288.419,112.139 298.689,117.33 308.96,122.521 319.23,127.711 329.5,132.902 339.771,138.093 350.041,143.283 360.311,148.474 370.582,153.665 380.852,158.856 391.122,164.046 401.393,169.237 411.663,174.428 421.933,179.618 432.204,184.809 442.474,190 452.744,195.191 463.015,200.381 473.285,205.572 483.555,210.763 493.826,215.953 504.096,221.144 514.366,226.335 524.637,231.525 534.907,236.716 545.177,241.907 555.448,247.098 565.718,252.288 575.988,257.479 586.259,262.67 596.529,267.86 606.799,273.051 617.07,278.242 627.34,283.433 637.61,288.623 647.881,293.814 658.151,299.005 668.421,304.195 678.692,309.386 688.962,314.577 699.232,319.768 709.503,324.958 719.773,330.149 730.043,335.34 740.314,340.53 750.584,345.721 760.854,350.912 771.125,356.102 781.395,361.293 791.665,366.484 801.936,371.675 812.206,376.865 822.476,382.056 832.747,387.247 843.017,392.437 853.287,397.628 863.558,402.819 873.828,408.01 884.098,413.2 894.369,418.391 904.639,423.582 914.909,428.772 925.18,433.963 935.45,439.154 945.72,444.344 955.991,449.535 966.261,454.726 976.531,459.917 986.802,465.107 997.072,470.298 1007.34,475.489 1017.61,480.679 1027.88,485.87 1038.15,491.061 1048.42,496.252 1058.69,501.442 1068.96,506.633 1079.23,511.824 1089.5,517.014 1099.78,522.205 1110.05,527.396 1120.32,532.587 1130.59,537.777 1140.86,542.968 1151.13,548.159 1161.4,553.349 1171.67,558.54 1181.94,563.731 1192.21,568.921 1202.48,574.112 1212.75,579.303 1223.02,584.494 1233.29,589.684 1243.56,594.875 1253.83,600.066 1264.1,605.256 1274.37,610.447 1284.64,615.638 1294.91,620.829 1305.18,626.019 1315.45,631.21 1325.72,636.401 1335.99,641.591 1346.26,646.782 1356.53,651.973 1366.8,657.164 1377.07,662.354 1387.34,667.545 1397.61,672.736 1407.89,677.926 1418.16,683.117 1428.43,688.308 1438.7,693.498 1448.97,698.689 1459.24,703.88 1469.51,709.071 1479.78,714.261 1490.05,719.452 1500.32,724.643 1510.59,729.833 1520.86,735.024 1531.13,740.215 1541.4,745.406 1551.67,750.596 1561.94,755.787 1572.21,760.978 1582.48,766.168 1592.75,771.359 1603.02,776.55 1613.29,781.74 1623.56,786.931 1633.83,792.122 1644.1,797.313 1654.37,802.503 1664.64,807.694 1674.91,812.885 1685.18,818.075 1695.45,823.266 1705.72,828.457 1716,833.648 1726.27,838.838 1736.54,844.029 1746.81,849.22 1757.08,854.41 1767.35,859.601 1777.62,864.792 1787.89,869.983 1798.16,875.173 1808.43,880.364 1818.7,885.555 1828.97,890.745 1839.24,895.936 1849.51,901.127 1859.78,906.317 1870.05,911.508 1880.32,916.699 1890.59,921.89 1900.86,927.08 1911.13,932.271 1921.4,937.462 1931.67,942.652 1941.94,947.843 1952.21,953.034 1962.48,958.225 1972.75,963.415 1983.02,968.606 1993.29,973.797 2003.56,978.987 2013.83,984.178 2024.11,989.369 2034.38,994.559 2044.65,999.75 2054.92,1004.94 2065.19,1010.13 2075.46,1015.32 2085.73,1020.51 2096,1025.7 2106.27,1030.89 2116.54,1036.09 2126.81,1041.28 2137.08,1046.47 2147.35,1051.66 2157.62,1056.85 2167.89,1062.04 2178.16,1067.23 2188.43,1072.42 2198.7,1077.61 2208.97,1082.8 2219.24,1087.99 2229.51,1093.18 2239.78,1098.37 2250.05,1103.56 2260.32,1108.76 2270.59,1113.95 2280.86,1119.14 2291.13,1124.33 "/>
<circle clip-path="url(#clip151)" cx="288.419" cy="112.139" r="14.4" fill="#000000" fill-rule="evenodd" fill-opacity="1" stroke="none"/>
<circle clip-path="url(#clip151)" cx="545.177" cy="241.907" r="14.4" fill="#000000" fill-rule="evenodd" fill-opacity="1" stroke="none"/>
<circle clip-path="url(#clip151)" cx="801.936" cy="371.675" r="14.4" fill="#000000" fill-rule="evenodd" fill-opacity="1" stroke="none"/>
<circle clip-path="url(#clip151)" cx="1058.69" cy="501.442" r="14.4" fill="#000000" fill-rule="evenodd" fill-opacity="1" stroke="none"/>
<circle clip-path="url(#clip151)" cx="1315.45" cy="631.21" r="14.4" fill="#000000" fill-rule="evenodd" fill-opacity="1" stroke="none"/>
<circle clip-path="url(#clip151)" cx="1572.21" cy="760.978" r="14.4" fill="#000000" fill-rule="evenodd" fill-opacity="1" stroke="none"/>
<circle clip-path="url(#clip151)" cx="1828.97" cy="890.745" r="14.4" fill="#000000" fill-rule="evenodd" fill-opacity="1" stroke="none"/>
<circle clip-path="url(#clip151)" cx="2085.73" cy="1020.51" r="14.4" fill="#000000" fill-rule="evenodd" fill-opacity="1" stroke="none"/>
<circle clip-path="url(#clip151)" cx="288.419" cy="108.692" r="14.4" fill="#ff0000" fill-rule="evenodd" fill-opacity="1" stroke="none"/>
<circle clip-path="url(#clip151)" cx="545.177" cy="247.746" r="14.4" fill="#ff0000" fill-rule="evenodd" fill-opacity="1" stroke="none"/>
<circle clip-path="url(#clip151)" cx="801.936" cy="376.581" r="14.4" fill="#ff0000" fill-rule="evenodd" fill-opacity="1" stroke="none"/>
<circle clip-path="url(#clip151)" cx="1058.69" cy="478.584" r="14.4" fill="#ff0000" fill-rule="evenodd" fill-opacity="1" stroke="none"/>
<circle clip-path="url(#clip151)" cx="1315.45" cy="643.405" r="14.4" fill="#ff0000" fill-rule="evenodd" fill-opacity="1" stroke="none"/>
<circle clip-path="url(#clip151)" cx="1572.21" cy="670.164" r="14.4" fill="#ff0000" fill-rule="evenodd" fill-opacity="1" stroke="none"/>
<circle clip-path="url(#clip151)" cx="1828.97" cy="884.495" r="14.4" fill="#ff0000" fill-rule="evenodd" fill-opacity="1" stroke="none"/>
<circle clip-path="url(#clip151)" cx="2085.73" cy="1384.24" r="14.4" fill="#ff0000" fill-rule="evenodd" fill-opacity="1" stroke="none"/>
<path clip-path="url(#clip150)" d="M1938.12 248.629 L2280.18 248.629 L2280.18 93.1086 L1938.12 93.1086  Z" fill="#ffffff" fill-rule="evenodd" fill-opacity="1"/>
<polyline clip-path="url(#clip150)" style="stroke:#000000; stroke-linecap:round; stroke-linejoin:round; stroke-width:4; stroke-opacity:1; fill:none" points="1938.12,248.629 2280.18,248.629 2280.18,93.1086 1938.12,93.1086 1938.12,248.629 "/>
<circle clip-path="url(#clip150)" cx="2034.89" cy="144.949" r="20.48" fill="#000000" fill-rule="evenodd" fill-opacity="1" stroke="none"/>
<path clip-path="url(#clip150)" d="M2131.66 127.669 L2160.89 127.669 L2160.89 131.604 L2148.63 131.604 L2148.63 162.229 L2143.93 162.229 L2143.93 131.604 L2131.66 131.604 L2131.66 127.669 Z" fill="#000000" fill-rule="nonzero" fill-opacity="1" /><path clip-path="url(#clip150)" d="M2173.28 140.284 Q2172.56 139.868 2171.7 139.682 Q2170.87 139.474 2169.85 139.474 Q2166.24 139.474 2164.3 141.835 Q2162.38 144.173 2162.38 148.571 L2162.38 162.229 L2158.09 162.229 L2158.09 136.303 L2162.38 136.303 L2162.38 140.331 Q2163.72 137.969 2165.87 136.835 Q2168.02 135.678 2171.1 135.678 Q2171.54 135.678 2172.07 135.747 Q2172.61 135.794 2173.26 135.909 L2173.28 140.284 Z" fill="#000000" fill-rule="nonzero" fill-opacity="1" /><path clip-path="url(#clip150)" d="M2177.31 151.997 L2177.31 136.303 L2181.57 136.303 L2181.57 151.835 Q2181.57 155.516 2183 157.368 Q2184.44 159.196 2187.31 159.196 Q2190.76 159.196 2192.75 156.997 Q2194.76 154.798 2194.76 151.002 L2194.76 136.303 L2199.02 136.303 L2199.02 162.229 L2194.76 162.229 L2194.76 158.247 Q2193.21 160.608 2191.15 161.766 Q2189.11 162.9 2186.4 162.9 Q2181.94 162.9 2179.62 160.122 Q2177.31 157.344 2177.31 151.997 M2188.02 135.678 L2188.02 135.678 Z" fill="#000000" fill-rule="nonzero" fill-opacity="1" /><path clip-path="url(#clip150)" d="M2229.97 148.201 L2229.97 150.284 L2210.38 150.284 Q2210.66 154.682 2213.02 156.997 Q2215.41 159.289 2219.64 159.289 Q2222.1 159.289 2224.39 158.687 Q2226.7 158.085 2228.97 156.881 L2228.97 160.909 Q2226.68 161.881 2224.27 162.391 Q2221.87 162.9 2219.39 162.9 Q2213.19 162.9 2209.55 159.289 Q2205.94 155.678 2205.94 149.52 Q2205.94 143.155 2209.37 139.428 Q2212.82 135.678 2218.65 135.678 Q2223.88 135.678 2226.91 139.057 Q2229.97 142.414 2229.97 148.201 M2225.71 146.951 Q2225.66 143.456 2223.74 141.372 Q2221.84 139.289 2218.7 139.289 Q2215.13 139.289 2212.98 141.303 Q2210.85 143.317 2210.52 146.974 L2225.71 146.951 Z" fill="#000000" fill-rule="nonzero" fill-opacity="1" /><circle clip-path="url(#clip150)" cx="2034.89" cy="196.789" r="20.48" fill="#ff0000" fill-rule="evenodd" fill-opacity="1" stroke="none"/>
<path clip-path="url(#clip150)" d="M2131.66 179.509 L2137.95 179.509 L2153.28 208.421 L2153.28 179.509 L2157.82 179.509 L2157.82 214.069 L2151.52 214.069 L2136.2 185.157 L2136.2 214.069 L2131.66 214.069 L2131.66 179.509 Z" fill="#000000" fill-rule="nonzero" fill-opacity="1" /><path clip-path="url(#clip150)" d="M2176.98 191.129 Q2173.56 191.129 2171.57 193.814 Q2169.57 196.476 2169.57 201.129 Q2169.57 205.782 2171.54 208.467 Q2173.53 211.129 2176.98 211.129 Q2180.39 211.129 2182.38 208.444 Q2184.37 205.758 2184.37 201.129 Q2184.37 196.522 2182.38 193.837 Q2180.39 191.129 2176.98 191.129 M2176.98 187.518 Q2182.54 187.518 2185.71 191.129 Q2188.88 194.74 2188.88 201.129 Q2188.88 207.495 2185.71 211.129 Q2182.54 214.74 2176.98 214.74 Q2171.4 214.74 2168.23 211.129 Q2165.08 207.495 2165.08 201.129 Q2165.08 194.74 2168.23 191.129 Q2171.4 187.518 2176.98 187.518 Z" fill="#000000" fill-rule="nonzero" fill-opacity="1" /><path clip-path="url(#clip150)" d="M2195.94 188.143 L2200.2 188.143 L2200.2 214.069 L2195.94 214.069 L2195.94 188.143 M2195.94 178.05 L2200.2 178.05 L2200.2 183.444 L2195.94 183.444 L2195.94 178.05 Z" fill="#000000" fill-rule="nonzero" fill-opacity="1" /><path clip-path="url(#clip150)" d="M2225.64 188.907 L2225.64 192.934 Q2223.83 192.009 2221.89 191.546 Q2219.95 191.083 2217.86 191.083 Q2214.69 191.083 2213.09 192.055 Q2211.52 193.027 2211.52 194.971 Q2211.52 196.453 2212.65 197.309 Q2213.79 198.143 2217.21 198.907 L2218.67 199.231 Q2223.21 200.203 2225.11 201.985 Q2227.03 203.745 2227.03 206.916 Q2227.03 210.527 2224.16 212.633 Q2221.31 214.74 2216.31 214.74 Q2214.23 214.74 2211.96 214.323 Q2209.71 213.93 2207.21 213.12 L2207.21 208.721 Q2209.57 209.948 2211.87 210.573 Q2214.16 211.175 2216.4 211.175 Q2219.41 211.175 2221.03 210.157 Q2222.65 209.115 2222.65 207.24 Q2222.65 205.504 2221.47 204.578 Q2220.32 203.652 2216.36 202.796 L2214.88 202.448 Q2210.92 201.615 2209.16 199.902 Q2207.4 198.166 2207.4 195.157 Q2207.4 191.499 2209.99 189.509 Q2212.58 187.518 2217.35 187.518 Q2219.71 187.518 2221.8 187.865 Q2223.88 188.212 2225.64 188.907 Z" fill="#000000" fill-rule="nonzero" fill-opacity="1" /><path clip-path="url(#clip150)" d="M2244.6 216.476 Q2242.79 221.106 2241.08 222.518 Q2239.37 223.93 2236.5 223.93 L2233.09 223.93 L2233.09 220.365 L2235.59 220.365 Q2237.35 220.365 2238.32 219.532 Q2239.3 218.698 2240.48 215.596 L2241.24 213.652 L2230.76 188.143 L2235.27 188.143 L2243.37 208.421 L2251.47 188.143 L2255.99 188.143 L2244.6 216.476 Z" fill="#000000" fill-rule="nonzero" fill-opacity="1" /></svg>
