<?xml version="1.0" encoding="utf-8"?>
<svg xmlns="http://www.w3.org/2000/svg" xmlns:xlink="http://www.w3.org/1999/xlink" width="600" height="400" viewBox="0 0 2400 1600">
<defs>
  <clipPath id="clip120">
    <rect x="0" y="0" width="2400" height="1600"/>
  </clipPath>
</defs>
<path clip-path="url(#clip120)" d="M0 1600 L2400 1600 L2400 0 L0 0  Z" fill="#ffffff" fill-rule="evenodd" fill-opacity="1"/>
<defs>
  <clipPath id="clip121">
    <rect x="141" y="47" width="2212" height="1377"/>
  </clipPath>
</defs>
<path clip-path="url(#clip120)" d="M141.853 1423.18 L2352.76 1423.18 L2352.76 47.2441 L141.853 47.2441  Z" fill="#ffffff" fill-rule="evenodd" fill-opacity="1"/>
<polyline clip-path="url(#clip121)" style="stroke:#000000; stroke-linecap:round; stroke-linejoin:round; stroke-width:2; stroke-opacity:0.1; fill:none" points="263.457,1423.18 263.457,47.2441 "/>
<polyline clip-path="url(#clip121)" style="stroke:#000000; stroke-linecap:round; stroke-linejoin:round; stroke-width:2; stroke-opacity:0.1; fill:none" points="755.38,1423.18 755.38,47.2441 "/>
<polyline clip-path="url(#clip121)" style="stroke:#000000; stroke-linecap:round; stroke-linejoin:round; stroke-width:2; stroke-opacity:0.1; fill:none" points="1247.3,1423.18 1247.3,47.2441 "/>
<polyline clip-path="url(#clip121)" style="stroke:#000000; stroke-linecap:round; stroke-linejoin:round; stroke-width:2; stroke-opacity:0.1; fill:none" points="1739.23,1423.18 1739.23,47.2441 "/>
<polyline clip-path="url(#clip121)" style="stroke:#000000; stroke-linecap:round; stroke-linejoin:round; stroke-width:2; stroke-opacity:0.1; fill:none" points="2231.15,1423.18 2231.15,47.2441 "/>
<polyline clip-path="url(#clip121)" style="stroke:#000000; stroke-linecap:round; stroke-linejoin:round; stroke-width:2; stroke-opacity:0.1; fill:none" points="141.853,1423.18 2352.76,1423.18 "/>
<polyline clip-path="url(#clip121)" style="stroke:#000000; stroke-linecap:round; stroke-linejoin:round; stroke-width:2; stroke-opacity:0.1; fill:none" points="141.853,1127.28 2352.76,1127.28 "/>
<polyline clip-path="url(#clip121)" style="stroke:#000000; stroke-linecap:round; stroke-linejoin:round; stroke-width:2; stroke-opacity:0.1; fill:none" points="141.853,831.38 2352.76,831.38 "/>
<polyline clip-path="url(#clip121)" style="stroke:#000000; stroke-linecap:round; stroke-linejoin:round; stroke-width:2; stroke-opacity:0.1; fill:none" points="141.853,535.479 2352.76,535.479 "/>
<polyline clip-path="url(#clip121)" style="stroke:#000000; stroke-linecap:round; stroke-linejoin:round; stroke-width:2; stroke-opacity:0.1; fill:none" points="141.853,239.579 2352.76,239.579 "/>
<polyline clip-path="url(#clip120)" style="stroke:#000000; stroke-linecap:round; stroke-linejoin:round; stroke-width:4; stroke-opacity:1; fill:none" points="141.853,1423.18 2352.76,1423.18 "/>
<polyline clip-path="url(#clip120)" style="stroke:#000000; stroke-linecap:round; stroke-linejoin:round; stroke-width:4; stroke-opacity:1; fill:none" points="263.457,1423.18 263.457,1404.28 "/>
<polyline clip-path="url(#clip120)" style="stroke:#000000; stroke-linecap:round; stroke-linejoin:round; stroke-width:4; stroke-opacity:1; fill:none" points="755.38,1423.18 755.38,1404.28 "/>
<polyline clip-path="url(#clip120)" style="stroke:#000000; stroke-linecap:round; stroke-linejoin:round; stroke-width:4; stroke-opacity:1; fill:none" points="1247.3,1423.18 1247.3,1404.28 "/>
<polyline clip-path="url(#clip120)" style="stroke:#000000; stroke-linecap:round; stroke-linejoin:round; stroke-width:4; stroke-opacity:1; fill:none" points="1739.23,1423.18 1739.23,1404.28 "/>
<polyline clip-path="url(#clip120)" style="stroke:#000000; stroke-linecap:round; stroke-linejoin:round; stroke-width:4; stroke-opacity:1; fill:none" points="2231.15,1423.18 2231.15,1404.28 "/>
<path clip-path="url(#clip120)" d="M232.357 1468.75 L262.033 1468.75 L262.033 1472.69 L232.357 1472.69 L232.357 1468.75 Z" fill="#000000" fill-rule="nonzero" fill-opacity="1" /><path clip-path="url(#clip120)" d="M284.973 1455.09 L273.167 1473.54 L284.973 1473.54 L284.973 1455.09 M283.746 1451.02 L289.625 1451.02 L289.625 1473.54 L294.556 1473.54 L294.556 1477.43 L289.625 1477.43 L289.625 1485.58 L284.973 1485.58 L284.973 1477.43 L269.371 1477.43 L269.371 1472.92 L283.746 1451.02 Z" fill="#000000" fill-rule="nonzero" fill-opacity="1" /><path clip-path="url(#clip120)" d="M725.323 1468.75 L754.999 1468.75 L754.999 1472.69 L725.323 1472.69 L725.323 1468.75 Z" fill="#000000" fill-rule="nonzero" fill-opacity="1" /><path clip-path="url(#clip120)" d="M769.119 1481.64 L785.438 1481.64 L785.438 1485.58 L763.494 1485.58 L763.494 1481.64 Q766.156 1478.89 770.739 1474.26 Q775.346 1469.61 776.526 1468.27 Q778.772 1465.74 779.651 1464.01 Q780.554 1462.25 780.554 1460.56 Q780.554 1457.8 778.61 1456.07 Q776.688 1454.33 773.586 1454.33 Q771.387 1454.33 768.934 1455.09 Q766.503 1455.86 763.725 1457.41 L763.725 1452.69 Q766.549 1451.55 769.003 1450.97 Q771.457 1450.39 773.494 1450.39 Q778.864 1450.39 782.059 1453.08 Q785.253 1455.77 785.253 1460.26 Q785.253 1462.39 784.443 1464.31 Q783.656 1466.2 781.549 1468.8 Q780.971 1469.47 777.869 1472.69 Q774.767 1475.88 769.119 1481.64 Z" fill="#000000" fill-rule="nonzero" fill-opacity="1" /><path clip-path="url(#clip120)" d="M1247.3 1454.1 Q1243.69 1454.1 1241.86 1457.66 Q1240.06 1461.2 1240.06 1468.33 Q1240.06 1475.44 1241.86 1479.01 Q1243.69 1482.55 1247.3 1482.55 Q1250.94 1482.55 1252.74 1479.01 Q1254.57 1475.44 1254.57 1468.33 Q1254.57 1461.2 1252.74 1457.66 Q1250.94 1454.1 1247.3 1454.1 M1247.3 1450.39 Q1253.11 1450.39 1256.17 1455 Q1259.25 1459.58 1259.25 1468.33 Q1259.25 1477.06 1256.17 1481.67 Q1253.11 1486.25 1247.3 1486.25 Q1241.49 1486.25 1238.42 1481.67 Q1235.36 1477.06 1235.36 1468.33 Q1235.36 1459.58 1238.42 1455 Q1241.49 1450.39 1247.3 1450.39 Z" fill="#000000" fill-rule="nonzero" fill-opacity="1" /><path clip-path="url(#clip120)" d="M1733.88 1481.64 L1750.2 1481.64 L1750.2 1485.58 L1728.26 1485.58 L1728.26 1481.64 Q1730.92 1478.89 1735.5 1474.26 Q1740.11 1469.61 1741.29 1468.27 Q1743.53 1465.74 1744.41 1464.01 Q1745.32 1462.25 1745.32 1460.56 Q1745.32 1457.8 1743.37 1456.07 Q1741.45 1454.33 1738.35 1454.33 Q1736.15 1454.33 1733.7 1455.09 Q1731.27 1455.86 1728.49 1457.41 L1728.49 1452.69 Q1731.31 1451.55 1733.77 1450.97 Q1736.22 1450.39 1738.26 1450.39 Q1743.63 1450.39 1746.82 1453.08 Q1750.02 1455.77 1750.02 1460.26 Q1750.02 1462.39 1749.21 1464.31 Q1748.42 1466.2 1746.31 1468.8 Q1745.73 1469.47 1742.63 1472.69 Q1739.53 1475.88 1733.88 1481.64 Z" fill="#000000" fill-rule="nonzero" fill-opacity="1" /><path clip-path="url(#clip120)" d="M2234.16 1455.09 L2222.36 1473.54 L2234.16 1473.54 L2234.16 1455.09 M2232.93 1451.02 L2238.81 1451.02 L2238.81 1473.54 L2243.74 1473.54 L2243.74 1477.43 L2238.81 1477.43 L2238.81 1485.58 L2234.16 1485.58 L2234.16 1477.43 L2218.56 1477.43 L2218.56 1472.92 L2232.93 1451.02 Z" fill="#000000" fill-rule="nonzero" fill-opacity="1" /><path clip-path="url(#clip120)" d="M637.247 1545.76 Q639.316 1546.46 641.257 1548.76 Q643.231 1551.05 645.204 1555.06 L651.729 1568.04 L644.822 1568.04 L638.743 1555.85 Q636.388 1551.08 634.16 1549.52 Q631.963 1547.96 628.144 1547.96 L621.142 1547.96 L621.142 1568.04 L614.712 1568.04 L614.712 1520.52 L629.226 1520.52 Q637.374 1520.52 641.385 1523.93 Q645.395 1527.34 645.395 1534.21 Q645.395 1538.7 643.294 1541.66 Q641.225 1544.62 637.247 1545.76 M621.142 1525.81 L621.142 1542.68 L629.226 1542.68 Q633.873 1542.68 636.228 1540.54 Q638.616 1538.38 638.616 1534.21 Q638.616 1530.04 636.228 1527.94 Q633.873 1525.81 629.226 1525.81 L621.142 1525.81 Z" fill="#000000" fill-rule="nonzero" fill-opacity="1" /><path clip-path="url(#clip120)" d="M687.313 1548.76 L687.313 1551.62 L660.386 1551.62 Q660.768 1557.67 664.015 1560.85 Q667.293 1564 673.118 1564 Q676.492 1564 679.643 1563.17 Q682.825 1562.35 685.945 1560.69 L685.945 1566.23 Q682.794 1567.57 679.483 1568.27 Q676.173 1568.97 672.768 1568.97 Q664.238 1568.97 659.24 1564 Q654.275 1559.04 654.275 1550.57 Q654.275 1541.82 658.986 1536.69 Q663.728 1531.54 671.749 1531.54 Q678.942 1531.54 683.112 1536.18 Q687.313 1540.8 687.313 1548.76 M681.457 1547.04 Q681.393 1542.23 678.751 1539.37 Q676.141 1536.5 671.813 1536.5 Q666.911 1536.5 663.951 1539.27 Q661.023 1542.04 660.577 1547.07 L681.457 1547.04 Z" fill="#000000" fill-rule="nonzero" fill-opacity="1" /><path clip-path="url(#clip120)" d="M713.126 1550.12 Q706.028 1550.12 703.291 1551.75 Q700.554 1553.37 700.554 1557.29 Q700.554 1560.4 702.591 1562.25 Q704.66 1564.07 708.193 1564.07 Q713.062 1564.07 715.991 1560.63 Q718.951 1557.16 718.951 1551.43 L718.951 1550.12 L713.126 1550.12 M724.807 1547.71 L724.807 1568.04 L718.951 1568.04 L718.951 1562.63 Q716.946 1565.88 713.954 1567.44 Q710.962 1568.97 706.633 1568.97 Q701.159 1568.97 697.912 1565.91 Q694.697 1562.82 694.697 1557.67 Q694.697 1551.65 698.708 1548.6 Q702.75 1545.54 710.739 1545.54 L718.951 1545.54 L718.951 1544.97 Q718.951 1540.93 716.277 1538.73 Q713.635 1536.5 708.829 1536.5 Q705.774 1536.5 702.877 1537.23 Q699.981 1537.97 697.307 1539.43 L697.307 1534.02 Q700.522 1532.78 703.546 1532.17 Q706.569 1531.54 709.434 1531.54 Q717.168 1531.54 720.988 1535.55 Q724.807 1539.56 724.807 1547.71 Z" fill="#000000" fill-rule="nonzero" fill-opacity="1" /><path clip-path="url(#clip120)" d="M736.87 1518.52 L742.727 1518.52 L742.727 1568.04 L736.87 1568.04 L736.87 1518.52 Z" fill="#000000" fill-rule="nonzero" fill-opacity="1" /><path clip-path="url(#clip120)" d="M781.367 1562.7 L781.367 1581.6 L775.478 1581.6 L775.478 1532.4 L781.367 1532.4 L781.367 1537.81 Q783.213 1534.62 786.013 1533.1 Q788.846 1531.54 792.761 1531.54 Q799.254 1531.54 803.296 1536.69 Q807.37 1541.85 807.37 1550.25 Q807.37 1558.65 803.296 1563.81 Q799.254 1568.97 792.761 1568.97 Q788.846 1568.97 786.013 1567.44 Q783.213 1565.88 781.367 1562.7 M801.291 1550.25 Q801.291 1543.79 798.618 1540.13 Q795.976 1536.44 791.329 1536.44 Q786.682 1536.44 784.008 1540.13 Q781.367 1543.79 781.367 1550.25 Q781.367 1556.71 784.008 1560.4 Q786.682 1564.07 791.329 1564.07 Q795.976 1564.07 798.618 1560.4 Q801.291 1556.71 801.291 1550.25 Z" fill="#000000" fill-rule="nonzero" fill-opacity="1" /><path clip-path="url(#clip120)" d="M833.279 1550.12 Q826.181 1550.12 823.444 1551.75 Q820.707 1553.37 820.707 1557.29 Q820.707 1560.4 822.744 1562.25 Q824.812 1564.07 828.345 1564.07 Q833.215 1564.07 836.143 1560.63 Q839.103 1557.16 839.103 1551.43 L839.103 1550.12 L833.279 1550.12 M844.96 1547.71 L844.96 1568.04 L839.103 1568.04 L839.103 1562.63 Q837.098 1565.88 834.106 1567.44 Q831.115 1568.97 826.786 1568.97 Q821.311 1568.97 818.065 1565.91 Q814.85 1562.82 814.85 1557.67 Q814.85 1551.65 818.861 1548.6 Q822.903 1545.54 830.892 1545.54 L839.103 1545.54 L839.103 1544.97 Q839.103 1540.93 836.43 1538.73 Q833.788 1536.5 828.982 1536.5 Q825.926 1536.5 823.03 1537.23 Q820.134 1537.97 817.46 1539.43 L817.46 1534.02 Q820.675 1532.78 823.698 1532.17 Q826.722 1531.54 829.587 1531.54 Q837.321 1531.54 841.141 1535.55 Q844.96 1539.56 844.96 1547.71 Z" fill="#000000" fill-rule="nonzero" fill-opacity="1" /><path clip-path="url(#clip120)" d="M877.68 1537.87 Q876.693 1537.3 875.515 1537.04 Q874.37 1536.76 872.969 1536.76 Q868.004 1536.76 865.33 1540 Q862.688 1543.22 862.688 1549.27 L862.688 1568.04 L856.8 1568.04 L856.8 1532.4 L862.688 1532.4 L862.688 1537.93 Q864.534 1534.69 867.495 1533.13 Q870.455 1531.54 874.688 1531.54 Q875.293 1531.54 876.025 1531.63 Q876.757 1531.7 877.648 1531.85 L877.68 1537.87 Z" fill="#000000" fill-rule="nonzero" fill-opacity="1" /><path clip-path="url(#clip120)" d="M889.615 1522.27 L889.615 1532.4 L901.678 1532.4 L901.678 1536.95 L889.615 1536.95 L889.615 1556.3 Q889.615 1560.66 890.793 1561.9 Q892.003 1563.14 895.663 1563.14 L901.678 1563.14 L901.678 1568.04 L895.663 1568.04 Q888.883 1568.04 886.305 1565.53 Q883.727 1562.98 883.727 1556.3 L883.727 1536.95 L879.43 1536.95 L879.43 1532.4 L883.727 1532.4 L883.727 1522.27 L889.615 1522.27 Z" fill="#000000" fill-rule="nonzero" fill-opacity="1" /><path clip-path="url(#clip120)" d="M943.915 1536.5 Q939.204 1536.5 936.467 1540.19 Q933.73 1543.85 933.73 1550.25 Q933.73 1556.65 936.435 1560.34 Q939.172 1564 943.915 1564 Q948.594 1564 951.331 1560.31 Q954.068 1556.62 954.068 1550.25 Q954.068 1543.92 951.331 1540.23 Q948.594 1536.5 943.915 1536.5 M943.915 1531.54 Q951.554 1531.54 955.914 1536.5 Q960.275 1541.47 960.275 1550.25 Q960.275 1559 955.914 1564 Q951.554 1568.97 943.915 1568.97 Q936.244 1568.97 931.884 1564 Q927.555 1559 927.555 1550.25 Q927.555 1541.47 931.884 1536.5 Q936.244 1531.54 943.915 1531.54 Z" fill="#000000" fill-rule="nonzero" fill-opacity="1" /><path clip-path="url(#clip120)" d="M988.029 1518.52 L988.029 1523.39 L982.427 1523.39 Q979.276 1523.39 978.035 1524.66 Q976.826 1525.93 976.826 1529.24 L976.826 1532.4 L986.47 1532.4 L986.47 1536.95 L976.826 1536.95 L976.826 1568.04 L970.937 1568.04 L970.937 1536.95 L965.335 1536.95 L965.335 1532.4 L970.937 1532.4 L970.937 1529.91 Q970.937 1523.96 973.706 1521.26 Q976.475 1518.52 982.491 1518.52 L988.029 1518.52 Z" fill="#000000" fill-rule="nonzero" fill-opacity="1" /><path clip-path="url(#clip120)" d="M1019.32 1562.7 L1019.32 1581.6 L1013.43 1581.6 L1013.43 1532.4 L1019.32 1532.4 L1019.32 1537.81 Q1021.16 1534.62 1023.96 1533.1 Q1026.8 1531.54 1030.71 1531.54 Q1037.2 1531.54 1041.25 1536.69 Q1045.32 1541.85 1045.32 1550.25 Q1045.32 1558.65 1041.25 1563.81 Q1037.2 1568.97 1030.71 1568.97 Q1026.8 1568.97 1023.96 1567.44 Q1021.16 1565.88 1019.32 1562.7 M1039.24 1550.25 Q1039.24 1543.79 1036.57 1540.13 Q1033.93 1536.44 1029.28 1536.44 Q1024.63 1536.44 1021.96 1540.13 Q1019.32 1543.79 1019.32 1550.25 Q1019.32 1556.71 1021.96 1560.4 Q1024.63 1564.07 1029.28 1564.07 Q1033.93 1564.07 1036.57 1560.4 Q1039.24 1556.71 1039.24 1550.25 Z" fill="#000000" fill-rule="nonzero" fill-opacity="1" /><path clip-path="url(#clip120)" d="M1084.66 1546.53 L1084.66 1568.04 L1078.8 1568.04 L1078.8 1546.72 Q1078.8 1541.66 1076.83 1539.14 Q1074.86 1536.63 1070.91 1536.63 Q1066.17 1536.63 1063.43 1539.65 Q1060.69 1542.68 1060.69 1547.9 L1060.69 1568.04 L1054.81 1568.04 L1054.81 1518.52 L1060.69 1518.52 L1060.69 1537.93 Q1062.79 1534.72 1065.63 1533.13 Q1068.49 1531.54 1072.22 1531.54 Q1078.36 1531.54 1081.51 1535.36 Q1084.66 1539.14 1084.66 1546.53 Z" fill="#000000" fill-rule="nonzero" fill-opacity="1" /><path clip-path="url(#clip120)" d="M1112.54 1550.12 Q1105.44 1550.12 1102.71 1551.75 Q1099.97 1553.37 1099.97 1557.29 Q1099.97 1560.4 1102.01 1562.25 Q1104.08 1564.07 1107.61 1564.07 Q1112.48 1564.07 1115.41 1560.63 Q1118.37 1557.16 1118.37 1551.43 L1118.37 1550.12 L1112.54 1550.12 M1124.22 1547.71 L1124.22 1568.04 L1118.37 1568.04 L1118.37 1562.63 Q1116.36 1565.88 1113.37 1567.44 Q1110.38 1568.97 1106.05 1568.97 Q1100.57 1568.97 1097.33 1565.91 Q1094.11 1562.82 1094.11 1557.67 Q1094.11 1551.65 1098.12 1548.6 Q1102.17 1545.54 1110.16 1545.54 L1118.37 1545.54 L1118.37 1544.97 Q1118.37 1540.93 1115.69 1538.73 Q1113.05 1536.5 1108.25 1536.5 Q1105.19 1536.5 1102.29 1537.23 Q1099.4 1537.97 1096.72 1539.43 L1096.72 1534.02 Q1099.94 1532.78 1102.96 1532.17 Q1105.99 1531.54 1108.85 1531.54 Q1116.58 1531.54 1120.4 1535.55 Q1124.22 1539.56 1124.22 1547.71 Z" fill="#000000" fill-rule="nonzero" fill-opacity="1" /><path clip-path="url(#clip120)" d="M1159.01 1533.45 L1159.01 1538.98 Q1156.53 1537.71 1153.86 1537.07 Q1151.18 1536.44 1148.32 1536.44 Q1143.96 1536.44 1141.76 1537.77 Q1139.6 1539.11 1139.6 1541.79 Q1139.6 1543.82 1141.16 1545 Q1142.72 1546.15 1147.43 1547.2 L1149.43 1547.64 Q1155.67 1548.98 1158.28 1551.43 Q1160.92 1553.85 1160.92 1558.21 Q1160.92 1563.17 1156.98 1566.07 Q1153.06 1568.97 1146.19 1568.97 Q1143.32 1568.97 1140.2 1568.39 Q1137.11 1567.85 1133.68 1566.74 L1133.68 1560.69 Q1136.92 1562.38 1140.07 1563.24 Q1143.23 1564.07 1146.31 1564.07 Q1150.45 1564.07 1152.68 1562.66 Q1154.91 1561.23 1154.91 1558.65 Q1154.91 1556.27 1153.28 1554.99 Q1151.69 1553.72 1146.25 1552.54 L1144.21 1552.07 Q1138.77 1550.92 1136.35 1548.56 Q1133.93 1546.18 1133.93 1542.04 Q1133.93 1537.01 1137.5 1534.27 Q1141.06 1531.54 1147.62 1531.54 Q1150.86 1531.54 1153.73 1532.01 Q1156.59 1532.49 1159.01 1533.45 Z" fill="#000000" fill-rule="nonzero" fill-opacity="1" /><path clip-path="url(#clip120)" d="M1200.74 1548.76 L1200.74 1551.62 L1173.81 1551.62 Q1174.19 1557.67 1177.44 1560.85 Q1180.72 1564 1186.54 1564 Q1189.92 1564 1193.07 1563.17 Q1196.25 1562.35 1199.37 1560.69 L1199.37 1566.23 Q1196.22 1567.57 1192.91 1568.27 Q1189.6 1568.97 1186.19 1568.97 Q1177.66 1568.97 1172.67 1564 Q1167.7 1559.04 1167.7 1550.57 Q1167.7 1541.82 1172.41 1536.69 Q1177.15 1531.54 1185.18 1531.54 Q1192.37 1531.54 1196.54 1536.18 Q1200.74 1540.8 1200.74 1548.76 M1194.88 1547.04 Q1194.82 1542.23 1192.18 1539.37 Q1189.57 1536.5 1185.24 1536.5 Q1180.34 1536.5 1177.38 1539.27 Q1174.45 1542.04 1174 1547.07 L1194.88 1547.04 Z" fill="#000000" fill-rule="nonzero" fill-opacity="1" /><path clip-path="url(#clip120)" d="M1207.39 1547.58 L1224.55 1547.58 L1224.55 1552.8 L1207.39 1552.8 L1207.39 1547.58 Z" fill="#000000" fill-rule="nonzero" fill-opacity="1" /><path clip-path="url(#clip120)" d="M1259.53 1533.76 L1259.53 1539.24 Q1257.04 1537.87 1254.53 1537.2 Q1252.05 1536.5 1249.5 1536.5 Q1243.8 1536.5 1240.65 1540.13 Q1237.5 1543.73 1237.5 1550.25 Q1237.5 1556.78 1240.65 1560.4 Q1243.8 1564 1249.5 1564 Q1252.05 1564 1254.53 1563.33 Q1257.04 1562.63 1259.53 1561.26 L1259.53 1566.68 Q1257.08 1567.82 1254.43 1568.39 Q1251.82 1568.97 1248.86 1568.97 Q1240.81 1568.97 1236.07 1563.91 Q1231.33 1558.85 1231.33 1550.25 Q1231.33 1541.53 1236.1 1536.53 Q1240.91 1531.54 1249.25 1531.54 Q1251.95 1531.54 1254.53 1532.11 Q1257.11 1532.65 1259.53 1533.76 Z" fill="#000000" fill-rule="nonzero" fill-opacity="1" /><path clip-path="url(#clip120)" d="M1283.53 1536.5 Q1278.81 1536.5 1276.08 1540.19 Q1273.34 1543.85 1273.34 1550.25 Q1273.34 1556.65 1276.05 1560.34 Q1278.78 1564 1283.53 1564 Q1288.2 1564 1290.94 1560.31 Q1293.68 1556.62 1293.68 1550.25 Q1293.68 1543.92 1290.94 1540.23 Q1288.2 1536.5 1283.53 1536.5 M1283.53 1531.54 Q1291.16 1531.54 1295.52 1536.5 Q1299.89 1541.47 1299.89 1550.25 Q1299.89 1559 1295.52 1564 Q1291.16 1568.97 1283.53 1568.97 Q1275.85 1568.97 1271.49 1564 Q1267.17 1559 1267.17 1550.25 Q1267.17 1541.47 1271.49 1536.5 Q1275.85 1531.54 1283.53 1531.54 Z" fill="#000000" fill-rule="nonzero" fill-opacity="1" /><path clip-path="url(#clip120)" d="M1330.25 1537.87 Q1329.26 1537.3 1328.09 1537.04 Q1326.94 1536.76 1325.54 1536.76 Q1320.57 1536.76 1317.9 1540 Q1315.26 1543.22 1315.26 1549.27 L1315.26 1568.04 L1309.37 1568.04 L1309.37 1532.4 L1315.26 1532.4 L1315.26 1537.93 Q1317.1 1534.69 1320.06 1533.13 Q1323.02 1531.54 1327.26 1531.54 Q1327.86 1531.54 1328.59 1531.63 Q1329.33 1531.7 1330.22 1531.85 L1330.25 1537.87 Z" fill="#000000" fill-rule="nonzero" fill-opacity="1" /><path clip-path="url(#clip120)" d="M1355.9 1537.87 Q1354.92 1537.3 1353.74 1537.04 Q1352.59 1536.76 1351.19 1536.76 Q1346.23 1536.76 1343.55 1540 Q1340.91 1543.22 1340.91 1549.27 L1340.91 1568.04 L1335.02 1568.04 L1335.02 1532.4 L1340.91 1532.4 L1340.91 1537.93 Q1342.76 1534.69 1345.72 1533.13 Q1348.68 1531.54 1352.91 1531.54 Q1353.52 1531.54 1354.25 1531.63 Q1354.98 1531.7 1355.87 1531.85 L1355.9 1537.87 Z" fill="#000000" fill-rule="nonzero" fill-opacity="1" /><path clip-path="url(#clip120)" d="M1391.11 1548.76 L1391.11 1551.62 L1364.18 1551.62 Q1364.56 1557.67 1367.81 1560.85 Q1371.09 1564 1376.91 1564 Q1380.28 1564 1383.44 1563.17 Q1386.62 1562.35 1389.74 1560.69 L1389.74 1566.23 Q1386.59 1567.57 1383.28 1568.27 Q1379.97 1568.97 1376.56 1568.97 Q1368.03 1568.97 1363.03 1564 Q1358.07 1559.04 1358.07 1550.57 Q1358.07 1541.82 1362.78 1536.69 Q1367.52 1531.54 1375.54 1531.54 Q1382.73 1531.54 1386.9 1536.18 Q1391.11 1540.8 1391.11 1548.76 M1385.25 1547.04 Q1385.19 1542.23 1382.54 1539.37 Q1379.93 1536.5 1375.61 1536.5 Q1370.7 1536.5 1367.74 1539.27 Q1364.82 1542.04 1364.37 1547.07 L1385.25 1547.04 Z" fill="#000000" fill-rule="nonzero" fill-opacity="1" /><path clip-path="url(#clip120)" d="M1426.37 1533.76 L1426.37 1539.24 Q1423.89 1537.87 1421.37 1537.2 Q1418.89 1536.5 1416.35 1536.5 Q1410.65 1536.5 1407.5 1540.13 Q1404.35 1543.73 1404.35 1550.25 Q1404.35 1556.78 1407.5 1560.4 Q1410.65 1564 1416.35 1564 Q1418.89 1564 1421.37 1563.33 Q1423.89 1562.63 1426.37 1561.26 L1426.37 1566.68 Q1423.92 1567.82 1421.28 1568.39 Q1418.67 1568.97 1415.71 1568.97 Q1407.66 1568.97 1402.91 1563.91 Q1398.17 1558.85 1398.17 1550.25 Q1398.17 1541.53 1402.95 1536.53 Q1407.75 1531.54 1416.09 1531.54 Q1418.8 1531.54 1421.37 1532.11 Q1423.95 1532.65 1426.37 1533.76 Z" fill="#000000" fill-rule="nonzero" fill-opacity="1" /><path clip-path="url(#clip120)" d="M1442.35 1522.27 L1442.35 1532.4 L1454.41 1532.4 L1454.41 1536.95 L1442.35 1536.95 L1442.35 1556.3 Q1442.35 1560.66 1443.53 1561.9 Q1444.74 1563.14 1448.4 1563.14 L1454.41 1563.14 L1454.41 1568.04 L1448.4 1568.04 Q1441.62 1568.04 1439.04 1565.53 Q1436.46 1562.98 1436.46 1556.3 L1436.46 1536.95 L1432.16 1536.95 L1432.16 1532.4 L1436.46 1532.4 L1436.46 1522.27 L1442.35 1522.27 Z" fill="#000000" fill-rule="nonzero" fill-opacity="1" /><path clip-path="url(#clip120)" d="M1492.61 1548.76 L1492.61 1551.62 L1465.68 1551.62 Q1466.06 1557.67 1469.31 1560.85 Q1472.59 1564 1478.41 1564 Q1481.79 1564 1484.94 1563.17 Q1488.12 1562.35 1491.24 1560.69 L1491.24 1566.23 Q1488.09 1567.57 1484.78 1568.27 Q1481.47 1568.97 1478.06 1568.97 Q1469.53 1568.97 1464.53 1564 Q1459.57 1559.04 1459.57 1550.57 Q1459.57 1541.82 1464.28 1536.69 Q1469.02 1531.54 1477.04 1531.54 Q1484.24 1531.54 1488.41 1536.18 Q1492.61 1540.8 1492.61 1548.76 M1486.75 1547.04 Q1486.69 1542.23 1484.05 1539.37 Q1481.44 1536.5 1477.11 1536.5 Q1472.2 1536.5 1469.24 1539.27 Q1466.32 1542.04 1465.87 1547.07 L1486.75 1547.04 Z" fill="#000000" fill-rule="nonzero" fill-opacity="1" /><path clip-path="url(#clip120)" d="M1525.68 1537.81 L1525.68 1518.52 L1531.53 1518.52 L1531.53 1568.04 L1525.68 1568.04 L1525.68 1562.7 Q1523.83 1565.88 1521 1567.44 Q1518.2 1568.97 1514.25 1568.97 Q1507.79 1568.97 1503.72 1563.81 Q1499.67 1558.65 1499.67 1550.25 Q1499.67 1541.85 1503.72 1536.69 Q1507.79 1531.54 1514.25 1531.54 Q1518.2 1531.54 1521 1533.1 Q1523.83 1534.62 1525.68 1537.81 M1505.72 1550.25 Q1505.72 1556.71 1508.36 1560.4 Q1511.04 1564.07 1515.68 1564.07 Q1520.33 1564.07 1523 1560.4 Q1525.68 1556.71 1525.68 1550.25 Q1525.68 1543.79 1523 1540.13 Q1520.33 1536.44 1515.68 1536.44 Q1511.04 1536.44 1508.36 1540.13 Q1505.72 1543.79 1505.72 1550.25 Z" fill="#000000" fill-rule="nonzero" fill-opacity="1" /><path clip-path="url(#clip120)" d="M1587.04 1533.45 L1587.04 1538.98 Q1584.56 1537.71 1581.89 1537.07 Q1579.21 1536.44 1576.35 1536.44 Q1571.99 1536.44 1569.79 1537.77 Q1567.63 1539.11 1567.63 1541.79 Q1567.63 1543.82 1569.19 1545 Q1570.75 1546.15 1575.46 1547.2 L1577.46 1547.64 Q1583.7 1548.98 1586.31 1551.43 Q1588.95 1553.85 1588.95 1558.21 Q1588.95 1563.17 1585.01 1566.07 Q1581.09 1568.97 1574.22 1568.97 Q1571.35 1568.97 1568.23 1568.39 Q1565.14 1567.85 1561.71 1566.74 L1561.71 1560.69 Q1564.95 1562.38 1568.1 1563.24 Q1571.26 1564.07 1574.34 1564.07 Q1578.48 1564.07 1580.71 1562.66 Q1582.94 1561.23 1582.94 1558.65 Q1582.94 1556.27 1581.31 1554.99 Q1579.72 1553.72 1574.28 1552.54 L1572.24 1552.07 Q1566.8 1550.92 1564.38 1548.56 Q1561.96 1546.18 1561.96 1542.04 Q1561.96 1537.01 1565.53 1534.27 Q1569.09 1531.54 1575.65 1531.54 Q1578.89 1531.54 1581.76 1532.01 Q1584.62 1532.49 1587.04 1533.45 Z" fill="#000000" fill-rule="nonzero" fill-opacity="1" /><path clip-path="url(#clip120)" d="M1598.28 1532.4 L1604.13 1532.4 L1604.13 1568.04 L1598.28 1568.04 L1598.28 1532.4 M1598.28 1518.52 L1604.13 1518.52 L1604.13 1525.93 L1598.28 1525.93 L1598.28 1518.52 Z" fill="#000000" fill-rule="nonzero" fill-opacity="1" /><path clip-path="url(#clip120)" d="M1639.85 1549.81 Q1639.85 1543.44 1637.2 1539.94 Q1634.59 1536.44 1629.85 1536.44 Q1625.14 1536.44 1622.5 1539.94 Q1619.89 1543.44 1619.89 1549.81 Q1619.89 1556.14 1622.5 1559.64 Q1625.14 1563.14 1629.85 1563.14 Q1634.59 1563.14 1637.2 1559.64 Q1639.85 1556.14 1639.85 1549.81 M1645.7 1563.62 Q1645.7 1572.72 1641.66 1577.15 Q1637.62 1581.6 1629.28 1581.6 Q1626.19 1581.6 1623.45 1581.13 Q1620.72 1580.68 1618.14 1579.72 L1618.14 1574.03 Q1620.72 1575.43 1623.23 1576.1 Q1625.75 1576.76 1628.36 1576.76 Q1634.12 1576.76 1636.98 1573.74 Q1639.85 1570.75 1639.85 1564.67 L1639.85 1561.77 Q1638.03 1564.92 1635.2 1566.48 Q1632.37 1568.04 1628.42 1568.04 Q1621.86 1568.04 1617.85 1563.05 Q1613.84 1558.05 1613.84 1549.81 Q1613.84 1541.53 1617.85 1536.53 Q1621.86 1531.54 1628.42 1531.54 Q1632.37 1531.54 1635.2 1533.1 Q1638.03 1534.66 1639.85 1537.81 L1639.85 1532.4 L1645.7 1532.4 L1645.7 1563.62 Z" fill="#000000" fill-rule="nonzero" fill-opacity="1" /><path clip-path="url(#clip120)" d="M1687.4 1546.53 L1687.4 1568.04 L1681.54 1568.04 L1681.54 1546.72 Q1681.54 1541.66 1679.57 1539.14 Q1677.59 1536.63 1673.65 1536.63 Q1668.91 1536.63 1666.17 1539.65 Q1663.43 1542.68 1663.43 1547.9 L1663.43 1568.04 L1657.54 1568.04 L1657.54 1532.4 L1663.43 1532.4 L1663.43 1537.93 Q1665.53 1534.72 1668.36 1533.13 Q1671.23 1531.54 1674.95 1531.54 Q1681.1 1531.54 1684.25 1535.36 Q1687.4 1539.14 1687.4 1546.53 Z" fill="#000000" fill-rule="nonzero" fill-opacity="1" /><path clip-path="url(#clip120)" d="M1715.28 1550.12 Q1708.18 1550.12 1705.44 1551.75 Q1702.71 1553.37 1702.71 1557.29 Q1702.71 1560.4 1704.74 1562.25 Q1706.81 1564.07 1710.35 1564.07 Q1715.22 1564.07 1718.14 1560.63 Q1721.1 1557.16 1721.1 1551.43 L1721.1 1550.12 L1715.28 1550.12 M1726.96 1547.71 L1726.96 1568.04 L1721.1 1568.04 L1721.1 1562.63 Q1719.1 1565.88 1716.11 1567.44 Q1713.12 1568.97 1708.79 1568.97 Q1703.31 1568.97 1700.07 1565.91 Q1696.85 1562.82 1696.85 1557.67 Q1696.85 1551.65 1700.86 1548.6 Q1704.9 1545.54 1712.89 1545.54 L1721.1 1545.54 L1721.1 1544.97 Q1721.1 1540.93 1718.43 1538.73 Q1715.79 1536.5 1710.98 1536.5 Q1707.93 1536.5 1705.03 1537.23 Q1702.13 1537.97 1699.46 1539.43 L1699.46 1534.02 Q1702.68 1532.78 1705.7 1532.17 Q1708.72 1531.54 1711.59 1531.54 Q1719.32 1531.54 1723.14 1535.55 Q1726.96 1539.56 1726.96 1547.71 Z" fill="#000000" fill-rule="nonzero" fill-opacity="1" /><path clip-path="url(#clip120)" d="M1739.02 1518.52 L1744.88 1518.52 L1744.88 1568.04 L1739.02 1568.04 L1739.02 1518.52 Z" fill="#000000" fill-rule="nonzero" fill-opacity="1" /><path clip-path="url(#clip120)" d="M1792.69 1571.35 Q1790.2 1577.72 1787.85 1579.66 Q1785.49 1581.6 1781.55 1581.6 L1776.87 1581.6 L1776.87 1576.7 L1780.31 1576.7 Q1782.72 1576.7 1784.06 1575.56 Q1785.4 1574.41 1787.02 1570.14 L1788.07 1567.47 L1773.65 1532.4 L1779.86 1532.4 L1791 1560.28 L1802.14 1532.4 L1808.35 1532.4 L1792.69 1571.35 Z" fill="#000000" fill-rule="nonzero" fill-opacity="1" /><path clip-path="url(#clip120)" d="M1843.52 1578.87 L1843.52 1583.42 L1809.65 1583.42 L1809.65 1578.87 L1843.52 1578.87 Z" fill="#000000" fill-rule="nonzero" fill-opacity="1" /><path clip-path="url(#clip120)" d="M1863.6 1545.48 Q1859.02 1545.48 1856.38 1547.93 Q1853.77 1550.38 1853.77 1554.68 Q1853.77 1558.97 1856.38 1561.42 Q1859.02 1563.87 1863.6 1563.87 Q1868.18 1563.87 1870.83 1561.42 Q1873.47 1558.94 1873.47 1554.68 Q1873.47 1550.38 1870.83 1547.93 Q1868.22 1545.48 1863.6 1545.48 M1857.17 1542.74 Q1853.03 1541.72 1850.71 1538.89 Q1848.42 1536.06 1848.42 1531.98 Q1848.42 1526.28 1852.46 1522.97 Q1856.53 1519.66 1863.6 1519.66 Q1870.7 1519.66 1874.74 1522.97 Q1878.78 1526.28 1878.78 1531.98 Q1878.78 1536.06 1876.46 1538.89 Q1874.17 1541.72 1870.06 1542.74 Q1874.71 1543.82 1877.29 1546.97 Q1879.9 1550.12 1879.9 1554.68 Q1879.9 1561.58 1875.66 1565.27 Q1871.46 1568.97 1863.6 1568.97 Q1855.74 1568.97 1851.51 1565.27 Q1847.3 1561.58 1847.3 1554.68 Q1847.3 1550.12 1849.91 1546.97 Q1852.52 1543.82 1857.17 1542.74 M1854.82 1532.59 Q1854.82 1536.28 1857.11 1538.35 Q1859.43 1540.42 1863.6 1540.42 Q1867.74 1540.42 1870.06 1538.35 Q1872.42 1536.28 1872.42 1532.59 Q1872.42 1528.89 1870.06 1526.83 Q1867.74 1524.76 1863.6 1524.76 Q1859.43 1524.76 1857.11 1526.83 Q1854.82 1528.89 1854.82 1532.59 Z" fill="#000000" fill-rule="nonzero" fill-opacity="1" /><polyline clip-path="url(#clip120)" style="stroke:#000000; stroke-linecap:round; stroke-linejoin:round; stroke-width:4; stroke-opacity:1; fill:none" points="141.853,1423.18 141.853,47.2441 "/>
<polyline clip-path="url(#clip120)" style="stroke:#000000; stroke-linecap:round; stroke-linejoin:round; stroke-width:4; stroke-opacity:1; fill:none" points="141.853,1423.18 160.751,1423.18 "/>
<polyline clip-path="url(#clip120)" style="stroke:#000000; stroke-linecap:round; stroke-linejoin:round; stroke-width:4; stroke-opacity:1; fill:none" points="141.853,1127.28 160.751,1127.28 "/>
<polyline clip-path="url(#clip120)" style="stroke:#000000; stroke-linecap:round; stroke-linejoin:round; stroke-width:4; stroke-opacity:1; fill:none" points="141.853,831.38 160.751,831.38 "/>
<polyline clip-path="url(#clip120)" style="stroke:#000000; stroke-linecap:round; stroke-linejoin:round; stroke-width:4; stroke-opacity:1; fill:none" points="141.853,535.479 160.751,535.479 "/>
<polyline clip-path="url(#clip120)" style="stroke:#000000; stroke-linecap:round; stroke-linejoin:round; stroke-width:4; stroke-opacity:1; fill:none" points="141.853,239.579 160.751,239.579 "/>
<path clip-path="url(#clip120)" d="M93.9086 1408.98 Q90.2975 1408.98 88.4688 1412.54 Q86.6632 1416.08 86.6632 1423.21 Q86.6632 1430.32 88.4688 1433.89 Q90.2975 1437.43 93.9086 1437.43 Q97.5428 1437.43 99.3483 1433.89 Q101.177 1430.32 101.177 1423.21 Q101.177 1416.08 99.3483 1412.54 Q97.5428 1408.98 93.9086 1408.98 M93.9086 1405.27 Q99.7187 1405.27 102.774 1409.88 Q105.853 1414.46 105.853 1423.21 Q105.853 1431.94 102.774 1436.55 Q99.7187 1441.13 93.9086 1441.13 Q88.0984 1441.13 85.0197 1436.55 Q81.9642 1431.94 81.9642 1423.21 Q81.9642 1414.46 85.0197 1409.88 Q88.0984 1405.27 93.9086 1405.27 Z" fill="#000000" fill-rule="nonzero" fill-opacity="1" /><path clip-path="url(#clip120)" d="M57.7745 1140.62 L74.0939 1140.62 L74.0939 1144.56 L52.1495 1144.56 L52.1495 1140.62 Q54.8115 1137.87 59.3949 1133.24 Q64.0013 1128.59 65.1819 1127.24 Q67.4272 1124.72 68.3068 1122.99 Q69.2096 1121.23 69.2096 1119.54 Q69.2096 1116.78 67.2652 1115.05 Q65.3439 1113.31 62.2421 1113.31 Q60.043 1113.31 57.5893 1114.07 Q55.1588 1114.84 52.381 1116.39 L52.381 1111.67 Q55.2051 1110.53 57.6588 1109.95 Q60.1124 1109.37 62.1495 1109.37 Q67.5198 1109.37 70.7142 1112.06 Q73.9087 1114.75 73.9087 1119.24 Q73.9087 1121.37 73.0985 1123.29 Q72.3115 1125.18 70.205 1127.78 Q69.6263 1128.45 66.5245 1131.67 Q63.4226 1134.86 57.7745 1140.62 Z" fill="#000000" fill-rule="nonzero" fill-opacity="1" /><path clip-path="url(#clip120)" d="M93.9086 1113.08 Q90.2975 1113.08 88.4688 1116.64 Q86.6632 1120.18 86.6632 1127.31 Q86.6632 1134.42 88.4688 1137.99 Q90.2975 1141.53 93.9086 1141.53 Q97.5428 1141.53 99.3483 1137.99 Q101.177 1134.42 101.177 1127.31 Q101.177 1120.18 99.3483 1116.64 Q97.5428 1113.08 93.9086 1113.08 M93.9086 1109.37 Q99.7187 1109.37 102.774 1113.98 Q105.853 1118.56 105.853 1127.31 Q105.853 1136.04 102.774 1140.65 Q99.7187 1145.23 93.9086 1145.23 Q88.0984 1145.23 85.0197 1140.65 Q81.9642 1136.04 81.9642 1127.31 Q81.9642 1118.56 85.0197 1113.98 Q88.0984 1109.37 93.9086 1109.37 Z" fill="#000000" fill-rule="nonzero" fill-opacity="1" /><path clip-path="url(#clip120)" d="M66.5939 818.174 L54.7884 836.623 L66.5939 836.623 L66.5939 818.174 M65.367 814.1 L71.2466 814.1 L71.2466 836.623 L76.1772 836.623 L76.1772 840.511 L71.2466 840.511 L71.2466 848.66 L66.5939 848.66 L66.5939 840.511 L50.9921 840.511 L50.9921 835.998 L65.367 814.1 Z" fill="#000000" fill-rule="nonzero" fill-opacity="1" /><path clip-path="url(#clip120)" d="M93.9086 817.178 Q90.2975 817.178 88.4688 820.743 Q86.6632 824.285 86.6632 831.414 Q86.6632 838.521 88.4688 842.085 Q90.2975 845.627 93.9086 845.627 Q97.5428 845.627 99.3483 842.085 Q101.177 838.521 101.177 831.414 Q101.177 824.285 99.3483 820.743 Q97.5428 817.178 93.9086 817.178 M93.9086 813.475 Q99.7187 813.475 102.774 818.081 Q105.853 822.664 105.853 831.414 Q105.853 840.141 102.774 844.748 Q99.7187 849.331 93.9086 849.331 Q88.0984 849.331 85.0197 844.748 Q81.9642 840.141 81.9642 831.414 Q81.9642 822.664 85.0197 818.081 Q88.0984 813.475 93.9086 813.475 Z" fill="#000000" fill-rule="nonzero" fill-opacity="1" /><path clip-path="url(#clip120)" d="M64.3254 533.616 Q61.1773 533.616 59.3254 535.769 Q57.4967 537.921 57.4967 541.671 Q57.4967 545.398 59.3254 547.574 Q61.1773 549.727 64.3254 549.727 Q67.4735 549.727 69.3022 547.574 Q71.1541 545.398 71.1541 541.671 Q71.1541 537.921 69.3022 535.769 Q67.4735 533.616 64.3254 533.616 M73.6077 518.963 L73.6077 523.222 Q71.8485 522.389 70.0429 521.949 Q68.2606 521.51 66.5013 521.51 Q61.8717 521.51 59.418 524.635 Q56.9875 527.759 56.6402 534.079 Q58.006 532.065 60.0662 531 Q62.1263 529.912 64.6032 529.912 Q69.8115 529.912 72.8207 533.084 Q75.8531 536.232 75.8531 541.671 Q75.8531 546.996 72.705 550.213 Q69.5568 553.431 64.3254 553.431 Q58.33 553.431 55.1588 548.847 Q51.9875 544.241 51.9875 535.514 Q51.9875 527.32 55.8764 522.459 Q59.7652 517.574 66.3161 517.574 Q68.0754 517.574 69.8578 517.922 Q71.6633 518.269 73.6077 518.963 Z" fill="#000000" fill-rule="nonzero" fill-opacity="1" /><path clip-path="url(#clip120)" d="M93.9086 521.278 Q90.2975 521.278 88.4688 524.843 Q86.6632 528.384 86.6632 535.514 Q86.6632 542.621 88.4688 546.185 Q90.2975 549.727 93.9086 549.727 Q97.5428 549.727 99.3483 546.185 Q101.177 542.621 101.177 535.514 Q101.177 528.384 99.3483 524.843 Q97.5428 521.278 93.9086 521.278 M93.9086 517.574 Q99.7187 517.574 102.774 522.181 Q105.853 526.764 105.853 535.514 Q105.853 544.241 102.774 548.847 Q99.7187 553.431 93.9086 553.431 Q88.0984 553.431 85.0197 548.847 Q81.9642 544.241 81.9642 535.514 Q81.9642 526.764 85.0197 522.181 Q88.0984 517.574 93.9086 517.574 Z" fill="#000000" fill-rule="nonzero" fill-opacity="1" /><path clip-path="url(#clip120)" d="M63.7467 240.447 Q60.4134 240.447 58.4921 242.23 Q56.5939 244.012 56.5939 247.137 Q56.5939 250.262 58.4921 252.044 Q60.4134 253.827 63.7467 253.827 Q67.08 253.827 69.0013 252.044 Q70.9226 250.239 70.9226 247.137 Q70.9226 244.012 69.0013 242.23 Q67.1032 240.447 63.7467 240.447 M59.0708 238.457 Q56.0615 237.716 54.3717 235.656 Q52.7051 233.595 52.7051 230.632 Q52.7051 226.489 55.6449 224.082 Q58.6078 221.674 63.7467 221.674 Q68.9087 221.674 71.8485 224.082 Q74.7883 226.489 74.7883 230.632 Q74.7883 233.595 73.0985 235.656 Q71.4318 237.716 68.4457 238.457 Q71.8253 239.244 73.7003 241.535 Q75.5985 243.827 75.5985 247.137 Q75.5985 252.16 72.5198 254.845 Q69.4642 257.53 63.7467 257.53 Q58.0291 257.53 54.9504 254.845 Q51.8949 252.16 51.8949 247.137 Q51.8949 243.827 53.793 241.535 Q55.6912 239.244 59.0708 238.457 M57.3578 231.072 Q57.3578 233.757 59.0245 235.262 Q60.7143 236.767 63.7467 236.767 Q66.7559 236.767 68.4457 235.262 Q70.1587 233.757 70.1587 231.072 Q70.1587 228.387 68.4457 226.883 Q66.7559 225.378 63.7467 225.378 Q60.7143 225.378 59.0245 226.883 Q57.3578 228.387 57.3578 231.072 Z" fill="#000000" fill-rule="nonzero" fill-opacity="1" /><path clip-path="url(#clip120)" d="M93.9086 225.378 Q90.2975 225.378 88.4688 228.943 Q86.6632 232.484 86.6632 239.614 Q86.6632 246.72 88.4688 250.285 Q90.2975 253.827 93.9086 253.827 Q97.5428 253.827 99.3483 250.285 Q101.177 246.72 101.177 239.614 Q101.177 232.484 99.3483 228.943 Q97.5428 225.378 93.9086 225.378 M93.9086 221.674 Q99.7187 221.674 102.774 226.281 Q105.853 230.864 105.853 239.614 Q105.853 248.341 102.774 252.947 Q99.7187 257.53 93.9086 257.53 Q88.0984 257.53 85.0197 252.947 Q81.9642 248.341 81.9642 239.614 Q81.9642 230.864 85.0197 226.281 Q88.0984 221.674 93.9086 221.674 Z" fill="#000000" fill-rule="nonzero" fill-opacity="1" /><path clip-path="url(#clip121)" d="M263.457 1423.18 L263.457 1423.18 L288.053 1423.18 L288.053 1423.18 L263.457 1423.18 L263.457 1423.18  Z" fill="#009af9" fill-rule="evenodd" fill-opacity="1"/>
<polyline clip-path="url(#clip121)" style="stroke:#000000; stroke-linecap:round; stroke-linejoin:round; stroke-width:8; stroke-opacity:1; fill:none" points="263.457,1423.18 263.457,1423.18 288.053,1423.18 263.457,1423.18 "/>
<path clip-path="url(#clip121)" d="M288.053 1423.18 L288.053 1423.18 L312.649 1423.18 L312.649 1423.18 L288.053 1423.18 L288.053 1423.18  Z" fill="#009af9" fill-rule="evenodd" fill-opacity="1"/>
<polyline clip-path="url(#clip121)" style="stroke:#000000; stroke-linecap:round; stroke-linejoin:round; stroke-width:8; stroke-opacity:1; fill:none" points="288.053,1423.18 288.053,1423.18 312.649,1423.18 288.053,1423.18 "/>
<path clip-path="url(#clip121)" d="M312.649 1423.18 L312.649 1423.18 L337.245 1423.18 L337.245 1423.18 L312.649 1423.18 L312.649 1423.18  Z" fill="#009af9" fill-rule="evenodd" fill-opacity="1"/>
<polyline clip-path="url(#clip121)" style="stroke:#000000; stroke-linecap:round; stroke-linejoin:round; stroke-width:8; stroke-opacity:1; fill:none" points="312.649,1423.18 312.649,1423.18 337.245,1423.18 312.649,1423.18 "/>
<path clip-path="url(#clip121)" d="M337.245 1423.18 L337.245 1423.18 L361.841 1423.18 L361.841 1423.18 L337.245 1423.18 L337.245 1423.18  Z" fill="#009af9" fill-rule="evenodd" fill-opacity="1"/>
<polyline clip-path="url(#clip121)" style="stroke:#000000; stroke-linecap:round; stroke-linejoin:round; stroke-width:8; stroke-opacity:1; fill:none" points="337.245,1423.18 337.245,1423.18 361.841,1423.18 337.245,1423.18 "/>
<path clip-path="url(#clip121)" d="M361.841 1423.18 L361.841 1423.18 L386.438 1423.18 L386.438 1423.18 L361.841 1423.18 L361.841 1423.18  Z" fill="#009af9" fill-rule="evenodd" fill-opacity="1"/>
<polyline clip-path="url(#clip121)" style="stroke:#000000; stroke-linecap:round; stroke-linejoin:round; stroke-width:8; stroke-opacity:1; fill:none" points="361.841,1423.18 361.841,1423.18 386.438,1423.18 361.841,1423.18 "/>
<path clip-path="url(#clip121)" d="M386.438 1423.18 L386.438 1423.18 L411.034 1423.18 L411.034 1423.18 L386.438 1423.18 L386.438 1423.18  Z" fill="#009af9" fill-rule="evenodd" fill-opacity="1"/>
<polyline clip-path="url(#clip121)" style="stroke:#000000; stroke-linecap:round; stroke-linejoin:round; stroke-width:8; stroke-opacity:1; fill:none" points="386.438,1423.18 386.438,1423.18 411.034,1423.18 386.438,1423.18 "/>
<path clip-path="url(#clip121)" d="M411.034 1423.18 L411.034 1423.18 L435.63 1423.18 L435.63 1423.18 L411.034 1423.18 L411.034 1423.18  Z" fill="#009af9" fill-rule="evenodd" fill-opacity="1"/>
<polyline clip-path="url(#clip121)" style="stroke:#000000; stroke-linecap:round; stroke-linejoin:round; stroke-width:8; stroke-opacity:1; fill:none" points="411.034,1423.18 411.034,1423.18 435.63,1423.18 411.034,1423.18 "/>
<path clip-path="url(#clip121)" d="M435.63 1408.38 L435.63 1423.18 L460.226 1423.18 L460.226 1408.38 L435.63 1408.38 L435.63 1408.38  Z" fill="#009af9" fill-rule="evenodd" fill-opacity="1"/>
<polyline clip-path="url(#clip121)" style="stroke:#000000; stroke-linecap:round; stroke-linejoin:round; stroke-width:8; stroke-opacity:1; fill:none" points="435.63,1408.38 435.63,1423.18 460.226,1423.18 460.226,1408.38 435.63,1408.38 "/>
<path clip-path="url(#clip121)" d="M460.226 1408.38 L460.226 1423.18 L484.822 1423.18 L484.822 1408.38 L460.226 1408.38 L460.226 1408.38  Z" fill="#009af9" fill-rule="evenodd" fill-opacity="1"/>
<polyline clip-path="url(#clip121)" style="stroke:#000000; stroke-linecap:round; stroke-linejoin:round; stroke-width:8; stroke-opacity:1; fill:none" points="460.226,1408.38 460.226,1423.18 484.822,1423.18 484.822,1408.38 460.226,1408.38 "/>
<path clip-path="url(#clip121)" d="M484.822 1423.18 L484.822 1423.18 L509.419 1423.18 L509.419 1423.18 L484.822 1423.18 L484.822 1423.18  Z" fill="#009af9" fill-rule="evenodd" fill-opacity="1"/>
<polyline clip-path="url(#clip121)" style="stroke:#000000; stroke-linecap:round; stroke-linejoin:round; stroke-width:8; stroke-opacity:1; fill:none" points="484.822,1423.18 484.822,1423.18 509.419,1423.18 484.822,1423.18 "/>
<path clip-path="url(#clip121)" d="M509.419 1408.38 L509.419 1423.18 L534.015 1423.18 L534.015 1408.38 L509.419 1408.38 L509.419 1408.38  Z" fill="#009af9" fill-rule="evenodd" fill-opacity="1"/>
<polyline clip-path="url(#clip121)" style="stroke:#000000; stroke-linecap:round; stroke-linejoin:round; stroke-width:8; stroke-opacity:1; fill:none" points="509.419,1408.38 509.419,1423.18 534.015,1423.18 534.015,1408.38 509.419,1408.38 "/>
<path clip-path="url(#clip121)" d="M534.015 1408.38 L534.015 1423.18 L558.611 1423.18 L558.611 1408.38 L534.015 1408.38 L534.015 1408.38  Z" fill="#009af9" fill-rule="evenodd" fill-opacity="1"/>
<polyline clip-path="url(#clip121)" style="stroke:#000000; stroke-linecap:round; stroke-linejoin:round; stroke-width:8; stroke-opacity:1; fill:none" points="534.015,1408.38 534.015,1423.18 558.611,1423.18 558.611,1408.38 534.015,1408.38 "/>
<path clip-path="url(#clip121)" d="M558.611 1423.18 L558.611 1423.18 L583.207 1423.18 L583.207 1423.18 L558.611 1423.18 L558.611 1423.18  Z" fill="#009af9" fill-rule="evenodd" fill-opacity="1"/>
<polyline clip-path="url(#clip121)" style="stroke:#000000; stroke-linecap:round; stroke-linejoin:round; stroke-width:8; stroke-opacity:1; fill:none" points="558.611,1423.18 558.611,1423.18 583.207,1423.18 558.611,1423.18 "/>
<path clip-path="url(#clip121)" d="M583.207 1393.59 L583.207 1423.18 L607.803 1423.18 L607.803 1393.59 L583.207 1393.59 L583.207 1393.59  Z" fill="#009af9" fill-rule="evenodd" fill-opacity="1"/>
<polyline clip-path="url(#clip121)" style="stroke:#000000; stroke-linecap:round; stroke-linejoin:round; stroke-width:8; stroke-opacity:1; fill:none" points="583.207,1393.59 583.207,1423.18 607.803,1423.18 607.803,1393.59 583.207,1393.59 "/>
<path clip-path="url(#clip121)" d="M607.803 1378.79 L607.803 1423.18 L632.399 1423.18 L632.399 1378.79 L607.803 1378.79 L607.803 1378.79  Z" fill="#009af9" fill-rule="evenodd" fill-opacity="1"/>
<polyline clip-path="url(#clip121)" style="stroke:#000000; stroke-linecap:round; stroke-linejoin:round; stroke-width:8; stroke-opacity:1; fill:none" points="607.803,1378.79 607.803,1423.18 632.399,1423.18 632.399,1378.79 607.803,1378.79 "/>
<path clip-path="url(#clip121)" d="M632.399 1334.41 L632.399 1423.18 L656.996 1423.18 L656.996 1334.41 L632.399 1334.41 L632.399 1334.41  Z" fill="#009af9" fill-rule="evenodd" fill-opacity="1"/>
<polyline clip-path="url(#clip121)" style="stroke:#000000; stroke-linecap:round; stroke-linejoin:round; stroke-width:8; stroke-opacity:1; fill:none" points="632.399,1334.41 632.399,1423.18 656.996,1423.18 656.996,1334.41 632.399,1334.41 "/>
<path clip-path="url(#clip121)" d="M656.996 1275.23 L656.996 1423.18 L681.592 1423.18 L681.592 1275.23 L656.996 1275.23 L656.996 1275.23  Z" fill="#009af9" fill-rule="evenodd" fill-opacity="1"/>
<polyline clip-path="url(#clip121)" style="stroke:#000000; stroke-linecap:round; stroke-linejoin:round; stroke-width:8; stroke-opacity:1; fill:none" points="656.996,1275.23 656.996,1423.18 681.592,1423.18 681.592,1275.23 656.996,1275.23 "/>
<path clip-path="url(#clip121)" d="M681.592 1319.61 L681.592 1423.18 L706.188 1423.18 L706.188 1319.61 L681.592 1319.61 L681.592 1319.61  Z" fill="#009af9" fill-rule="evenodd" fill-opacity="1"/>
<polyline clip-path="url(#clip121)" style="stroke:#000000; stroke-linecap:round; stroke-linejoin:round; stroke-width:8; stroke-opacity:1; fill:none" points="681.592,1319.61 681.592,1423.18 706.188,1423.18 706.188,1319.61 681.592,1319.61 "/>
<path clip-path="url(#clip121)" d="M706.188 1290.02 L706.188 1423.18 L730.784 1423.18 L730.784 1290.02 L706.188 1290.02 L706.188 1290.02  Z" fill="#009af9" fill-rule="evenodd" fill-opacity="1"/>
<polyline clip-path="url(#clip121)" style="stroke:#000000; stroke-linecap:round; stroke-linejoin:round; stroke-width:8; stroke-opacity:1; fill:none" points="706.188,1290.02 706.188,1423.18 730.784,1423.18 730.784,1290.02 706.188,1290.02 "/>
<path clip-path="url(#clip121)" d="M730.784 1319.61 L730.784 1423.18 L755.38 1423.18 L755.38 1319.61 L730.784 1319.61 L730.784 1319.61  Z" fill="#009af9" fill-rule="evenodd" fill-opacity="1"/>
<polyline clip-path="url(#clip121)" style="stroke:#000000; stroke-linecap:round; stroke-linejoin:round; stroke-width:8; stroke-opacity:1; fill:none" points="730.784,1319.61 730.784,1423.18 755.38,1423.18 755.38,1319.61 730.784,1319.61 "/>
<path clip-path="url(#clip121)" d="M755.38 1304.82 L755.38 1423.18 L779.977 1423.18 L779.977 1304.82 L755.38 1304.82 L755.38 1304.82  Z" fill="#009af9" fill-rule="evenodd" fill-opacity="1"/>
<polyline clip-path="url(#clip121)" style="stroke:#000000; stroke-linecap:round; stroke-linejoin:round; stroke-width:8; stroke-opacity:1; fill:none" points="755.38,1304.82 755.38,1423.18 779.977,1423.18 779.977,1304.82 755.38,1304.82 "/>
<path clip-path="url(#clip121)" d="M779.977 1156.87 L779.977 1423.18 L804.573 1423.18 L804.573 1156.87 L779.977 1156.87 L779.977 1156.87  Z" fill="#009af9" fill-rule="evenodd" fill-opacity="1"/>
<polyline clip-path="url(#clip121)" style="stroke:#000000; stroke-linecap:round; stroke-linejoin:round; stroke-width:8; stroke-opacity:1; fill:none" points="779.977,1156.87 779.977,1423.18 804.573,1423.18 804.573,1156.87 779.977,1156.87 "/>
<path clip-path="url(#clip121)" d="M804.573 1260.43 L804.573 1423.18 L829.169 1423.18 L829.169 1260.43 L804.573 1260.43 L804.573 1260.43  Z" fill="#009af9" fill-rule="evenodd" fill-opacity="1"/>
<polyline clip-path="url(#clip121)" style="stroke:#000000; stroke-linecap:round; stroke-linejoin:round; stroke-width:8; stroke-opacity:1; fill:none" points="804.573,1260.43 804.573,1423.18 829.169,1423.18 829.169,1260.43 804.573,1260.43 "/>
<path clip-path="url(#clip121)" d="M829.169 1230.84 L829.169 1423.18 L853.765 1423.18 L853.765 1230.84 L829.169 1230.84 L829.169 1230.84  Z" fill="#009af9" fill-rule="evenodd" fill-opacity="1"/>
<polyline clip-path="url(#clip121)" style="stroke:#000000; stroke-linecap:round; stroke-linejoin:round; stroke-width:8; stroke-opacity:1; fill:none" points="829.169,1230.84 829.169,1423.18 853.765,1423.18 853.765,1230.84 829.169,1230.84 "/>
<path clip-path="url(#clip121)" d="M853.765 1097.69 L853.765 1423.18 L878.361 1423.18 L878.361 1097.69 L853.765 1097.69 L853.765 1097.69  Z" fill="#009af9" fill-rule="evenodd" fill-opacity="1"/>
<polyline clip-path="url(#clip121)" style="stroke:#000000; stroke-linecap:round; stroke-linejoin:round; stroke-width:8; stroke-opacity:1; fill:none" points="853.765,1097.69 853.765,1423.18 878.361,1423.18 878.361,1097.69 853.765,1097.69 "/>
<path clip-path="url(#clip121)" d="M878.361 890.56 L878.361 1423.18 L902.958 1423.18 L902.958 890.56 L878.361 890.56 L878.361 890.56  Z" fill="#009af9" fill-rule="evenodd" fill-opacity="1"/>
<polyline clip-path="url(#clip121)" style="stroke:#000000; stroke-linecap:round; stroke-linejoin:round; stroke-width:8; stroke-opacity:1; fill:none" points="878.361,890.56 878.361,1423.18 902.958,1423.18 902.958,890.56 878.361,890.56 "/>
<path clip-path="url(#clip121)" d="M902.958 1038.51 L902.958 1423.18 L927.554 1423.18 L927.554 1038.51 L902.958 1038.51 L902.958 1038.51  Z" fill="#009af9" fill-rule="evenodd" fill-opacity="1"/>
<polyline clip-path="url(#clip121)" style="stroke:#000000; stroke-linecap:round; stroke-linejoin:round; stroke-width:8; stroke-opacity:1; fill:none" points="902.958,1038.51 902.958,1423.18 927.554,1423.18 927.554,1038.51 902.958,1038.51 "/>
<path clip-path="url(#clip121)" d="M927.554 994.125 L927.554 1423.18 L952.15 1423.18 L952.15 994.125 L927.554 994.125 L927.554 994.125  Z" fill="#009af9" fill-rule="evenodd" fill-opacity="1"/>
<polyline clip-path="url(#clip121)" style="stroke:#000000; stroke-linecap:round; stroke-linejoin:round; stroke-width:8; stroke-opacity:1; fill:none" points="927.554,994.125 927.554,1423.18 952.15,1423.18 952.15,994.125 927.554,994.125 "/>
<path clip-path="url(#clip121)" d="M952.15 742.609 L952.15 1423.18 L976.746 1423.18 L976.746 742.609 L952.15 742.609 L952.15 742.609  Z" fill="#009af9" fill-rule="evenodd" fill-opacity="1"/>
<polyline clip-path="url(#clip121)" style="stroke:#000000; stroke-linecap:round; stroke-linejoin:round; stroke-width:8; stroke-opacity:1; fill:none" points="952.15,742.609 952.15,1423.18 976.746,1423.18 976.746,742.609 952.15,742.609 "/>
<path clip-path="url(#clip121)" d="M976.746 491.094 L976.746 1423.18 L1001.34 1423.18 L1001.34 491.094 L976.746 491.094 L976.746 491.094  Z" fill="#009af9" fill-rule="evenodd" fill-opacity="1"/>
<polyline clip-path="url(#clip121)" style="stroke:#000000; stroke-linecap:round; stroke-linejoin:round; stroke-width:8; stroke-opacity:1; fill:none" points="976.746,491.094 976.746,1423.18 1001.34,1423.18 1001.34,491.094 976.746,491.094 "/>
<path clip-path="url(#clip121)" d="M1001.34 639.044 L1001.34 1423.18 L1025.94 1423.18 L1025.94 639.044 L1001.34 639.044 L1001.34 639.044  Z" fill="#009af9" fill-rule="evenodd" fill-opacity="1"/>
<polyline clip-path="url(#clip121)" style="stroke:#000000; stroke-linecap:round; stroke-linejoin:round; stroke-width:8; stroke-opacity:1; fill:none" points="1001.34,639.044 1001.34,1423.18 1025.94,1423.18 1025.94,639.044 1001.34,639.044 "/>
<path clip-path="url(#clip121)" d="M1025.94 491.094 L1025.94 1423.18 L1050.53 1423.18 L1050.53 491.094 L1025.94 491.094 L1025.94 491.094  Z" fill="#009af9" fill-rule="evenodd" fill-opacity="1"/>
<polyline clip-path="url(#clip121)" style="stroke:#000000; stroke-linecap:round; stroke-linejoin:round; stroke-width:8; stroke-opacity:1; fill:none" points="1025.94,491.094 1025.94,1423.18 1050.53,1423.18 1050.53,491.094 1025.94,491.094 "/>
<path clip-path="url(#clip121)" d="M1050.53 594.659 L1050.53 1423.18 L1075.13 1423.18 L1075.13 594.659 L1050.53 594.659 L1050.53 594.659  Z" fill="#009af9" fill-rule="evenodd" fill-opacity="1"/>
<polyline clip-path="url(#clip121)" style="stroke:#000000; stroke-linecap:round; stroke-linejoin:round; stroke-width:8; stroke-opacity:1; fill:none" points="1050.53,594.659 1050.53,1423.18 1075.13,1423.18 1075.13,594.659 1050.53,594.659 "/>
<path clip-path="url(#clip121)" d="M1075.13 387.529 L1075.13 1423.18 L1099.73 1423.18 L1099.73 387.529 L1075.13 387.529 L1075.13 387.529  Z" fill="#009af9" fill-rule="evenodd" fill-opacity="1"/>
<polyline clip-path="url(#clip121)" style="stroke:#000000; stroke-linecap:round; stroke-linejoin:round; stroke-width:8; stroke-opacity:1; fill:none" points="1075.13,387.529 1075.13,1423.18 1099.73,1423.18 1099.73,387.529 1075.13,387.529 "/>
<path clip-path="url(#clip121)" d="M1099.73 283.964 L1099.73 1423.18 L1124.32 1423.18 L1124.32 283.964 L1099.73 283.964 L1099.73 283.964  Z" fill="#009af9" fill-rule="evenodd" fill-opacity="1"/>
<polyline clip-path="url(#clip121)" style="stroke:#000000; stroke-linecap:round; stroke-linejoin:round; stroke-width:8; stroke-opacity:1; fill:none" points="1099.73,283.964 1099.73,1423.18 1124.32,1423.18 1124.32,283.964 1099.73,283.964 "/>
<path clip-path="url(#clip121)" d="M1124.32 594.659 L1124.32 1423.18 L1148.92 1423.18 L1148.92 594.659 L1124.32 594.659 L1124.32 594.659  Z" fill="#009af9" fill-rule="evenodd" fill-opacity="1"/>
<polyline clip-path="url(#clip121)" style="stroke:#000000; stroke-linecap:round; stroke-linejoin:round; stroke-width:8; stroke-opacity:1; fill:none" points="1124.32,594.659 1124.32,1423.18 1148.92,1423.18 1148.92,594.659 1124.32,594.659 "/>
<path clip-path="url(#clip121)" d="M1148.92 372.734 L1148.92 1423.18 L1173.52 1423.18 L1173.52 372.734 L1148.92 372.734 L1148.92 372.734  Z" fill="#009af9" fill-rule="evenodd" fill-opacity="1"/>
<polyline clip-path="url(#clip121)" style="stroke:#000000; stroke-linecap:round; stroke-linejoin:round; stroke-width:8; stroke-opacity:1; fill:none" points="1148.92,372.734 1148.92,1423.18 1173.52,1423.18 1173.52,372.734 1148.92,372.734 "/>
<path clip-path="url(#clip121)" d="M1173.52 387.529 L1173.52 1423.18 L1198.11 1423.18 L1198.11 387.529 L1173.52 387.529 L1173.52 387.529  Z" fill="#009af9" fill-rule="evenodd" fill-opacity="1"/>
<polyline clip-path="url(#clip121)" style="stroke:#000000; stroke-linecap:round; stroke-linejoin:round; stroke-width:8; stroke-opacity:1; fill:none" points="1173.52,387.529 1173.52,1423.18 1198.11,1423.18 1198.11,387.529 1173.52,387.529 "/>
<path clip-path="url(#clip121)" d="M1198.11 283.964 L1198.11 1423.18 L1222.71 1423.18 L1222.71 283.964 L1198.11 283.964 L1198.11 283.964  Z" fill="#009af9" fill-rule="evenodd" fill-opacity="1"/>
<polyline clip-path="url(#clip121)" style="stroke:#000000; stroke-linecap:round; stroke-linejoin:round; stroke-width:8; stroke-opacity:1; fill:none" points="1198.11,283.964 1198.11,1423.18 1222.71,1423.18 1222.71,283.964 1198.11,283.964 "/>
<path clip-path="url(#clip121)" d="M1222.71 254.374 L1222.71 1423.18 L1247.3 1423.18 L1247.3 254.374 L1222.71 254.374 L1222.71 254.374  Z" fill="#009af9" fill-rule="evenodd" fill-opacity="1"/>
<polyline clip-path="url(#clip121)" style="stroke:#000000; stroke-linecap:round; stroke-linejoin:round; stroke-width:8; stroke-opacity:1; fill:none" points="1222.71,254.374 1222.71,1423.18 1247.3,1423.18 1247.3,254.374 1222.71,254.374 "/>
<path clip-path="url(#clip121)" d="M1247.3 47.2441 L1247.3 1423.18 L1271.9 1423.18 L1271.9 47.2441 L1247.3 47.2441 L1247.3 47.2441  Z" fill="#009af9" fill-rule="evenodd" fill-opacity="1"/>
<polyline clip-path="url(#clip121)" style="stroke:#000000; stroke-linecap:round; stroke-linejoin:round; stroke-width:8; stroke-opacity:1; fill:none" points="1247.3,47.2441 1247.3,1423.18 1271.9,1423.18 1271.9,47.2441 1247.3,47.2441 "/>
<path clip-path="url(#clip121)" d="M1271.9 224.784 L1271.9 1423.18 L1296.5 1423.18 L1296.5 224.784 L1271.9 224.784 L1271.9 224.784  Z" fill="#009af9" fill-rule="evenodd" fill-opacity="1"/>
<polyline clip-path="url(#clip121)" style="stroke:#000000; stroke-linecap:round; stroke-linejoin:round; stroke-width:8; stroke-opacity:1; fill:none" points="1271.9,224.784 1271.9,1423.18 1296.5,1423.18 1296.5,224.784 1271.9,224.784 "/>
<path clip-path="url(#clip121)" d="M1296.5 283.964 L1296.5 1423.18 L1321.09 1423.18 L1321.09 283.964 L1296.5 283.964 L1296.5 283.964  Z" fill="#009af9" fill-rule="evenodd" fill-opacity="1"/>
<polyline clip-path="url(#clip121)" style="stroke:#000000; stroke-linecap:round; stroke-linejoin:round; stroke-width:8; stroke-opacity:1; fill:none" points="1296.5,283.964 1296.5,1423.18 1321.09,1423.18 1321.09,283.964 1296.5,283.964 "/>
<path clip-path="url(#clip121)" d="M1321.09 461.504 L1321.09 1423.18 L1345.69 1423.18 L1345.69 461.504 L1321.09 461.504 L1321.09 461.504  Z" fill="#009af9" fill-rule="evenodd" fill-opacity="1"/>
<polyline clip-path="url(#clip121)" style="stroke:#000000; stroke-linecap:round; stroke-linejoin:round; stroke-width:8; stroke-opacity:1; fill:none" points="1321.09,461.504 1321.09,1423.18 1345.69,1423.18 1345.69,461.504 1321.09,461.504 "/>
<path clip-path="url(#clip121)" d="M1345.69 402.324 L1345.69 1423.18 L1370.29 1423.18 L1370.29 402.324 L1345.69 402.324 L1345.69 402.324  Z" fill="#009af9" fill-rule="evenodd" fill-opacity="1"/>
<polyline clip-path="url(#clip121)" style="stroke:#000000; stroke-linecap:round; stroke-linejoin:round; stroke-width:8; stroke-opacity:1; fill:none" points="1345.69,402.324 1345.69,1423.18 1370.29,1423.18 1370.29,402.324 1345.69,402.324 "/>
<path clip-path="url(#clip121)" d="M1370.29 446.709 L1370.29 1423.18 L1394.88 1423.18 L1394.88 446.709 L1370.29 446.709 L1370.29 446.709  Z" fill="#009af9" fill-rule="evenodd" fill-opacity="1"/>
<polyline clip-path="url(#clip121)" style="stroke:#000000; stroke-linecap:round; stroke-linejoin:round; stroke-width:8; stroke-opacity:1; fill:none" points="1370.29,446.709 1370.29,1423.18 1394.88,1423.18 1394.88,446.709 1370.29,446.709 "/>
<path clip-path="url(#clip121)" d="M1394.88 446.709 L1394.88 1423.18 L1419.48 1423.18 L1419.48 446.709 L1394.88 446.709 L1394.88 446.709  Z" fill="#009af9" fill-rule="evenodd" fill-opacity="1"/>
<polyline clip-path="url(#clip121)" style="stroke:#000000; stroke-linecap:round; stroke-linejoin:round; stroke-width:8; stroke-opacity:1; fill:none" points="1394.88,446.709 1394.88,1423.18 1419.48,1423.18 1419.48,446.709 1394.88,446.709 "/>
<path clip-path="url(#clip121)" d="M1419.48 565.069 L1419.48 1423.18 L1444.07 1423.18 L1444.07 565.069 L1419.48 565.069 L1419.48 565.069  Z" fill="#009af9" fill-rule="evenodd" fill-opacity="1"/>
<polyline clip-path="url(#clip121)" style="stroke:#000000; stroke-linecap:round; stroke-linejoin:round; stroke-width:8; stroke-opacity:1; fill:none" points="1419.48,565.069 1419.48,1423.18 1444.07,1423.18 1444.07,565.069 1419.48,565.069 "/>
<path clip-path="url(#clip121)" d="M1444.07 505.889 L1444.07 1423.18 L1468.67 1423.18 L1468.67 505.889 L1444.07 505.889 L1444.07 505.889  Z" fill="#009af9" fill-rule="evenodd" fill-opacity="1"/>
<polyline clip-path="url(#clip121)" style="stroke:#000000; stroke-linecap:round; stroke-linejoin:round; stroke-width:8; stroke-opacity:1; fill:none" points="1444.07,505.889 1444.07,1423.18 1468.67,1423.18 1468.67,505.889 1444.07,505.889 "/>
<path clip-path="url(#clip121)" d="M1468.67 609.454 L1468.67 1423.18 L1493.27 1423.18 L1493.27 609.454 L1468.67 609.454 L1468.67 609.454  Z" fill="#009af9" fill-rule="evenodd" fill-opacity="1"/>
<polyline clip-path="url(#clip121)" style="stroke:#000000; stroke-linecap:round; stroke-linejoin:round; stroke-width:8; stroke-opacity:1; fill:none" points="1468.67,609.454 1468.67,1423.18 1493.27,1423.18 1493.27,609.454 1468.67,609.454 "/>
<path clip-path="url(#clip121)" d="M1493.27 890.56 L1493.27 1423.18 L1517.86 1423.18 L1517.86 890.56 L1493.27 890.56 L1493.27 890.56  Z" fill="#009af9" fill-rule="evenodd" fill-opacity="1"/>
<polyline clip-path="url(#clip121)" style="stroke:#000000; stroke-linecap:round; stroke-linejoin:round; stroke-width:8; stroke-opacity:1; fill:none" points="1493.27,890.56 1493.27,1423.18 1517.86,1423.18 1517.86,890.56 1493.27,890.56 "/>
<path clip-path="url(#clip121)" d="M1517.86 742.609 L1517.86 1423.18 L1542.46 1423.18 L1542.46 742.609 L1517.86 742.609 L1517.86 742.609  Z" fill="#009af9" fill-rule="evenodd" fill-opacity="1"/>
<polyline clip-path="url(#clip121)" style="stroke:#000000; stroke-linecap:round; stroke-linejoin:round; stroke-width:8; stroke-opacity:1; fill:none" points="1517.86,742.609 1517.86,1423.18 1542.46,1423.18 1542.46,742.609 1517.86,742.609 "/>
<path clip-path="url(#clip121)" d="M1542.46 757.404 L1542.46 1423.18 L1567.05 1423.18 L1567.05 757.404 L1542.46 757.404 L1542.46 757.404  Z" fill="#009af9" fill-rule="evenodd" fill-opacity="1"/>
<polyline clip-path="url(#clip121)" style="stroke:#000000; stroke-linecap:round; stroke-linejoin:round; stroke-width:8; stroke-opacity:1; fill:none" points="1542.46,757.404 1542.46,1423.18 1567.05,1423.18 1567.05,757.404 1542.46,757.404 "/>
<path clip-path="url(#clip121)" d="M1567.05 1023.71 L1567.05 1423.18 L1591.65 1423.18 L1591.65 1023.71 L1567.05 1023.71 L1567.05 1023.71  Z" fill="#009af9" fill-rule="evenodd" fill-opacity="1"/>
<polyline clip-path="url(#clip121)" style="stroke:#000000; stroke-linecap:round; stroke-linejoin:round; stroke-width:8; stroke-opacity:1; fill:none" points="1567.05,1023.71 1567.05,1423.18 1591.65,1423.18 1591.65,1023.71 1567.05,1023.71 "/>
<path clip-path="url(#clip121)" d="M1591.65 1008.92 L1591.65 1423.18 L1616.25 1423.18 L1616.25 1008.92 L1591.65 1008.92 L1591.65 1008.92  Z" fill="#009af9" fill-rule="evenodd" fill-opacity="1"/>
<polyline clip-path="url(#clip121)" style="stroke:#000000; stroke-linecap:round; stroke-linejoin:round; stroke-width:8; stroke-opacity:1; fill:none" points="1591.65,1008.92 1591.65,1423.18 1616.25,1423.18 1616.25,1008.92 1591.65,1008.92 "/>
<path clip-path="url(#clip121)" d="M1616.25 1171.66 L1616.25 1423.18 L1640.84 1423.18 L1640.84 1171.66 L1616.25 1171.66 L1616.25 1171.66  Z" fill="#009af9" fill-rule="evenodd" fill-opacity="1"/>
<polyline clip-path="url(#clip121)" style="stroke:#000000; stroke-linecap:round; stroke-linejoin:round; stroke-width:8; stroke-opacity:1; fill:none" points="1616.25,1171.66 1616.25,1423.18 1640.84,1423.18 1640.84,1171.66 1616.25,1171.66 "/>
<path clip-path="url(#clip121)" d="M1640.84 1053.3 L1640.84 1423.18 L1665.44 1423.18 L1665.44 1053.3 L1640.84 1053.3 L1640.84 1053.3  Z" fill="#009af9" fill-rule="evenodd" fill-opacity="1"/>
<polyline clip-path="url(#clip121)" style="stroke:#000000; stroke-linecap:round; stroke-linejoin:round; stroke-width:8; stroke-opacity:1; fill:none" points="1640.84,1053.3 1640.84,1423.18 1665.44,1423.18 1665.44,1053.3 1640.84,1053.3 "/>
<path clip-path="url(#clip121)" d="M1665.44 1082.89 L1665.44 1423.18 L1690.04 1423.18 L1690.04 1082.89 L1665.44 1082.89 L1665.44 1082.89  Z" fill="#009af9" fill-rule="evenodd" fill-opacity="1"/>
<polyline clip-path="url(#clip121)" style="stroke:#000000; stroke-linecap:round; stroke-linejoin:round; stroke-width:8; stroke-opacity:1; fill:none" points="1665.44,1082.89 1665.44,1423.18 1690.04,1423.18 1690.04,1082.89 1665.44,1082.89 "/>
<path clip-path="url(#clip121)" d="M1690.04 1260.43 L1690.04 1423.18 L1714.63 1423.18 L1714.63 1260.43 L1690.04 1260.43 L1690.04 1260.43  Z" fill="#009af9" fill-rule="evenodd" fill-opacity="1"/>
<polyline clip-path="url(#clip121)" style="stroke:#000000; stroke-linecap:round; stroke-linejoin:round; stroke-width:8; stroke-opacity:1; fill:none" points="1690.04,1260.43 1690.04,1423.18 1714.63,1423.18 1714.63,1260.43 1690.04,1260.43 "/>
<path clip-path="url(#clip121)" d="M1714.63 1290.02 L1714.63 1423.18 L1739.23 1423.18 L1739.23 1290.02 L1714.63 1290.02 L1714.63 1290.02  Z" fill="#009af9" fill-rule="evenodd" fill-opacity="1"/>
<polyline clip-path="url(#clip121)" style="stroke:#000000; stroke-linecap:round; stroke-linejoin:round; stroke-width:8; stroke-opacity:1; fill:none" points="1714.63,1290.02 1714.63,1423.18 1739.23,1423.18 1739.23,1290.02 1714.63,1290.02 "/>
<path clip-path="url(#clip121)" d="M1739.23 1245.64 L1739.23 1423.18 L1763.82 1423.18 L1763.82 1245.64 L1739.23 1245.64 L1739.23 1245.64  Z" fill="#009af9" fill-rule="evenodd" fill-opacity="1"/>
<polyline clip-path="url(#clip121)" style="stroke:#000000; stroke-linecap:round; stroke-linejoin:round; stroke-width:8; stroke-opacity:1; fill:none" points="1739.23,1245.64 1739.23,1423.18 1763.82,1423.18 1763.82,1245.64 1739.23,1245.64 "/>
<path clip-path="url(#clip121)" d="M1763.82 1304.82 L1763.82 1423.18 L1788.42 1423.18 L1788.42 1304.82 L1763.82 1304.82 L1763.82 1304.82  Z" fill="#009af9" fill-rule="evenodd" fill-opacity="1"/>
<polyline clip-path="url(#clip121)" style="stroke:#000000; stroke-linecap:round; stroke-linejoin:round; stroke-width:8; stroke-opacity:1; fill:none" points="1763.82,1304.82 1763.82,1423.18 1788.42,1423.18 1788.42,1304.82 1763.82,1304.82 "/>
<path clip-path="url(#clip121)" d="M1788.42 1304.82 L1788.42 1423.18 L1813.02 1423.18 L1813.02 1304.82 L1788.42 1304.82 L1788.42 1304.82  Z" fill="#009af9" fill-rule="evenodd" fill-opacity="1"/>
<polyline clip-path="url(#clip121)" style="stroke:#000000; stroke-linecap:round; stroke-linejoin:round; stroke-width:8; stroke-opacity:1; fill:none" points="1788.42,1304.82 1788.42,1423.18 1813.02,1423.18 1813.02,1304.82 1788.42,1304.82 "/>
<path clip-path="url(#clip121)" d="M1813.02 1349.2 L1813.02 1423.18 L1837.61 1423.18 L1837.61 1349.2 L1813.02 1349.2 L1813.02 1349.2  Z" fill="#009af9" fill-rule="evenodd" fill-opacity="1"/>
<polyline clip-path="url(#clip121)" style="stroke:#000000; stroke-linecap:round; stroke-linejoin:round; stroke-width:8; stroke-opacity:1; fill:none" points="1813.02,1349.2 1813.02,1423.18 1837.61,1423.18 1837.61,1349.2 1813.02,1349.2 "/>
<path clip-path="url(#clip121)" d="M1837.61 1364 L1837.61 1423.18 L1862.21 1423.18 L1862.21 1364 L1837.61 1364 L1837.61 1364  Z" fill="#009af9" fill-rule="evenodd" fill-opacity="1"/>
<polyline clip-path="url(#clip121)" style="stroke:#000000; stroke-linecap:round; stroke-linejoin:round; stroke-width:8; stroke-opacity:1; fill:none" points="1837.61,1364 1837.61,1423.18 1862.21,1423.18 1862.21,1364 1837.61,1364 "/>
<path clip-path="url(#clip121)" d="M1862.21 1408.38 L1862.21 1423.18 L1886.81 1423.18 L1886.81 1408.38 L1862.21 1408.38 L1862.21 1408.38  Z" fill="#009af9" fill-rule="evenodd" fill-opacity="1"/>
<polyline clip-path="url(#clip121)" style="stroke:#000000; stroke-linecap:round; stroke-linejoin:round; stroke-width:8; stroke-opacity:1; fill:none" points="1862.21,1408.38 1862.21,1423.18 1886.81,1423.18 1886.81,1408.38 1862.21,1408.38 "/>
<path clip-path="url(#clip121)" d="M1886.81 1408.38 L1886.81 1423.18 L1911.4 1423.18 L1911.4 1408.38 L1886.81 1408.38 L1886.81 1408.38  Z" fill="#009af9" fill-rule="evenodd" fill-opacity="1"/>
<polyline clip-path="url(#clip121)" style="stroke:#000000; stroke-linecap:round; stroke-linejoin:round; stroke-width:8; stroke-opacity:1; fill:none" points="1886.81,1408.38 1886.81,1423.18 1911.4,1423.18 1911.4,1408.38 1886.81,1408.38 "/>
<path clip-path="url(#clip121)" d="M1911.4 1378.79 L1911.4 1423.18 L1936 1423.18 L1936 1378.79 L1911.4 1378.79 L1911.4 1378.79  Z" fill="#009af9" fill-rule="evenodd" fill-opacity="1"/>
<polyline clip-path="url(#clip121)" style="stroke:#000000; stroke-linecap:round; stroke-linejoin:round; stroke-width:8; stroke-opacity:1; fill:none" points="1911.4,1378.79 1911.4,1423.18 1936,1423.18 1936,1378.79 1911.4,1378.79 "/>
<path clip-path="url(#clip121)" d="M1936 1423.18 L1936 1423.18 L1960.59 1423.18 L1960.59 1423.18 L1936 1423.18 L1936 1423.18  Z" fill="#009af9" fill-rule="evenodd" fill-opacity="1"/>
<polyline clip-path="url(#clip121)" style="stroke:#000000; stroke-linecap:round; stroke-linejoin:round; stroke-width:8; stroke-opacity:1; fill:none" points="1936,1423.18 1936,1423.18 1960.59,1423.18 1936,1423.18 "/>
<path clip-path="url(#clip121)" d="M1960.59 1378.79 L1960.59 1423.18 L1985.19 1423.18 L1985.19 1378.79 L1960.59 1378.79 L1960.59 1378.79  Z" fill="#009af9" fill-rule="evenodd" fill-opacity="1"/>
<polyline clip-path="url(#clip121)" style="stroke:#000000; stroke-linecap:round; stroke-linejoin:round; stroke-width:8; stroke-opacity:1; fill:none" points="1960.59,1378.79 1960.59,1423.18 1985.19,1423.18 1985.19,1378.79 1960.59,1378.79 "/>
<path clip-path="url(#clip121)" d="M1985.19 1378.79 L1985.19 1423.18 L2009.79 1423.18 L2009.79 1378.79 L1985.19 1378.79 L1985.19 1378.79  Z" fill="#009af9" fill-rule="evenodd" fill-opacity="1"/>
<polyline clip-path="url(#clip121)" style="stroke:#000000; stroke-linecap:round; stroke-linejoin:round; stroke-width:8; stroke-opacity:1; fill:none" points="1985.19,1378.79 1985.19,1423.18 2009.79,1423.18 2009.79,1378.79 1985.19,1378.79 "/>
<path clip-path="url(#clip121)" d="M2009.79 1423.18 L2009.79 1423.18 L2034.38 1423.18 L2034.38 1423.18 L2009.79 1423.18 L2009.79 1423.18  Z" fill="#009af9" fill-rule="evenodd" fill-opacity="1"/>
<polyline clip-path="url(#clip121)" style="stroke:#000000; stroke-linecap:round; stroke-linejoin:round; stroke-width:8; stroke-opacity:1; fill:none" points="2009.79,1423.18 2009.79,1423.18 2034.38,1423.18 2009.79,1423.18 "/>
<path clip-path="url(#clip121)" d="M2034.38 1408.38 L2034.38 1423.18 L2058.98 1423.18 L2058.98 1408.38 L2034.38 1408.38 L2034.38 1408.38  Z" fill="#009af9" fill-rule="evenodd" fill-opacity="1"/>
<polyline clip-path="url(#clip121)" style="stroke:#000000; stroke-linecap:round; stroke-linejoin:round; stroke-width:8; stroke-opacity:1; fill:none" points="2034.38,1408.38 2034.38,1423.18 2058.98,1423.18 2058.98,1408.38 2034.38,1408.38 "/>
<path clip-path="url(#clip121)" d="M2058.98 1423.18 L2058.98 1423.18 L2083.58 1423.18 L2083.58 1423.18 L2058.98 1423.18 L2058.98 1423.18  Z" fill="#009af9" fill-rule="evenodd" fill-opacity="1"/>
<polyline clip-path="url(#clip121)" style="stroke:#000000; stroke-linecap:round; stroke-linejoin:round; stroke-width:8; stroke-opacity:1; fill:none" points="2058.98,1423.18 2058.98,1423.18 2083.58,1423.18 2058.98,1423.18 "/>
<path clip-path="url(#clip121)" d="M2083.58 1423.18 L2083.58 1423.18 L2108.17 1423.18 L2108.17 1423.18 L2083.58 1423.18 L2083.58 1423.18  Z" fill="#009af9" fill-rule="evenodd" fill-opacity="1"/>
<polyline clip-path="url(#clip121)" style="stroke:#000000; stroke-linecap:round; stroke-linejoin:round; stroke-width:8; stroke-opacity:1; fill:none" points="2083.58,1423.18 2083.58,1423.18 2108.17,1423.18 2083.58,1423.18 "/>
<path clip-path="url(#clip121)" d="M2108.17 1423.18 L2108.17 1423.18 L2132.77 1423.18 L2132.77 1423.18 L2108.17 1423.18 L2108.17 1423.18  Z" fill="#009af9" fill-rule="evenodd" fill-opacity="1"/>
<polyline clip-path="url(#clip121)" style="stroke:#000000; stroke-linecap:round; stroke-linejoin:round; stroke-width:8; stroke-opacity:1; fill:none" points="2108.17,1423.18 2108.17,1423.18 2132.77,1423.18 2108.17,1423.18 "/>
<path clip-path="url(#clip121)" d="M2132.77 1423.18 L2132.77 1423.18 L2157.36 1423.18 L2157.36 1423.18 L2132.77 1423.18 L2132.77 1423.18  Z" fill="#009af9" fill-rule="evenodd" fill-opacity="1"/>
<polyline clip-path="url(#clip121)" style="stroke:#000000; stroke-linecap:round; stroke-linejoin:round; stroke-width:8; stroke-opacity:1; fill:none" points="2132.77,1423.18 2132.77,1423.18 2157.36,1423.18 2132.77,1423.18 "/>
<path clip-path="url(#clip121)" d="M2157.36 1423.18 L2157.36 1423.18 L2181.96 1423.18 L2181.96 1423.18 L2157.36 1423.18 L2157.36 1423.18  Z" fill="#009af9" fill-rule="evenodd" fill-opacity="1"/>
<polyline clip-path="url(#clip121)" style="stroke:#000000; stroke-linecap:round; stroke-linejoin:round; stroke-width:8; stroke-opacity:1; fill:none" points="2157.36,1423.18 2157.36,1423.18 2181.96,1423.18 2157.36,1423.18 "/>
<path clip-path="url(#clip121)" d="M2181.96 1423.18 L2181.96 1423.18 L2206.56 1423.18 L2206.56 1423.18 L2181.96 1423.18 L2181.96 1423.18  Z" fill="#009af9" fill-rule="evenodd" fill-opacity="1"/>
<polyline clip-path="url(#clip121)" style="stroke:#000000; stroke-linecap:round; stroke-linejoin:round; stroke-width:8; stroke-opacity:1; fill:none" points="2181.96,1423.18 2181.96,1423.18 2206.56,1423.18 2181.96,1423.18 "/>
<path clip-path="url(#clip121)" d="M2206.56 1423.18 L2206.56 1423.18 L2231.15 1423.18 L2231.15 1423.18 L2206.56 1423.18 L2206.56 1423.18  Z" fill="#009af9" fill-rule="evenodd" fill-opacity="1"/>
<polyline clip-path="url(#clip121)" style="stroke:#000000; stroke-linecap:round; stroke-linejoin:round; stroke-width:8; stroke-opacity:1; fill:none" points="2206.56,1423.18 2206.56,1423.18 2231.15,1423.18 2206.56,1423.18 "/>
<circle clip-path="url(#clip121)" style="fill:#009af9; stroke:none; fill-opacity:0" cx="275.755" cy="1423.18" r="2"/>
<circle clip-path="url(#clip121)" style="fill:#009af9; stroke:none; fill-opacity:0" cx="300.351" cy="1423.18" r="2"/>
<circle clip-path="url(#clip121)" style="fill:#009af9; stroke:none; fill-opacity:0" cx="324.947" cy="1423.18" r="2"/>
<circle clip-path="url(#clip121)" style="fill:#009af9; stroke:none; fill-opacity:0" cx="349.543" cy="1423.18" r="2"/>
<circle clip-path="url(#clip121)" style="fill:#009af9; stroke:none; fill-opacity:0" cx="374.139" cy="1423.18" r="2"/>
<circle clip-path="url(#clip121)" style="fill:#009af9; stroke:none; fill-opacity:0" cx="398.736" cy="1423.18" r="2"/>
<circle clip-path="url(#clip121)" style="fill:#009af9; stroke:none; fill-opacity:0" cx="423.332" cy="1423.18" r="2"/>
<circle clip-path="url(#clip121)" style="fill:#009af9; stroke:none; fill-opacity:0" cx="447.928" cy="1408.38" r="2"/>
<circle clip-path="url(#clip121)" style="fill:#009af9; stroke:none; fill-opacity:0" cx="472.524" cy="1408.38" r="2"/>
<circle clip-path="url(#clip121)" style="fill:#009af9; stroke:none; fill-opacity:0" cx="497.12" cy="1423.18" r="2"/>
<circle clip-path="url(#clip121)" style="fill:#009af9; stroke:none; fill-opacity:0" cx="521.717" cy="1408.38" r="2"/>
<circle clip-path="url(#clip121)" style="fill:#009af9; stroke:none; fill-opacity:0" cx="546.313" cy="1408.38" r="2"/>
<circle clip-path="url(#clip121)" style="fill:#009af9; stroke:none; fill-opacity:0" cx="570.909" cy="1423.18" r="2"/>
<circle clip-path="url(#clip121)" style="fill:#009af9; stroke:none; fill-opacity:0" cx="595.505" cy="1393.59" r="2"/>
<circle clip-path="url(#clip121)" style="fill:#009af9; stroke:none; fill-opacity:0" cx="620.101" cy="1378.79" r="2"/>
<circle clip-path="url(#clip121)" style="fill:#009af9; stroke:none; fill-opacity:0" cx="644.698" cy="1334.41" r="2"/>
<circle clip-path="url(#clip121)" style="fill:#009af9; stroke:none; fill-opacity:0" cx="669.294" cy="1275.23" r="2"/>
<circle clip-path="url(#clip121)" style="fill:#009af9; stroke:none; fill-opacity:0" cx="693.89" cy="1319.61" r="2"/>
<circle clip-path="url(#clip121)" style="fill:#009af9; stroke:none; fill-opacity:0" cx="718.486" cy="1290.02" r="2"/>
<circle clip-path="url(#clip121)" style="fill:#009af9; stroke:none; fill-opacity:0" cx="743.082" cy="1319.61" r="2"/>
<circle clip-path="url(#clip121)" style="fill:#009af9; stroke:none; fill-opacity:0" cx="767.679" cy="1304.82" r="2"/>
<circle clip-path="url(#clip121)" style="fill:#009af9; stroke:none; fill-opacity:0" cx="792.275" cy="1156.87" r="2"/>
<circle clip-path="url(#clip121)" style="fill:#009af9; stroke:none; fill-opacity:0" cx="816.871" cy="1260.43" r="2"/>
<circle clip-path="url(#clip121)" style="fill:#009af9; stroke:none; fill-opacity:0" cx="841.467" cy="1230.84" r="2"/>
<circle clip-path="url(#clip121)" style="fill:#009af9; stroke:none; fill-opacity:0" cx="866.063" cy="1097.69" r="2"/>
<circle clip-path="url(#clip121)" style="fill:#009af9; stroke:none; fill-opacity:0" cx="890.66" cy="890.56" r="2"/>
<circle clip-path="url(#clip121)" style="fill:#009af9; stroke:none; fill-opacity:0" cx="915.256" cy="1038.51" r="2"/>
<circle clip-path="url(#clip121)" style="fill:#009af9; stroke:none; fill-opacity:0" cx="939.852" cy="994.125" r="2"/>
<circle clip-path="url(#clip121)" style="fill:#009af9; stroke:none; fill-opacity:0" cx="964.448" cy="742.609" r="2"/>
<circle clip-path="url(#clip121)" style="fill:#009af9; stroke:none; fill-opacity:0" cx="989.044" cy="491.094" r="2"/>
<circle clip-path="url(#clip121)" style="fill:#009af9; stroke:none; fill-opacity:0" cx="1013.64" cy="639.044" r="2"/>
<circle clip-path="url(#clip121)" style="fill:#009af9; stroke:none; fill-opacity:0" cx="1038.24" cy="491.094" r="2"/>
<circle clip-path="url(#clip121)" style="fill:#009af9; stroke:none; fill-opacity:0" cx="1062.83" cy="594.659" r="2"/>
<circle clip-path="url(#clip121)" style="fill:#009af9; stroke:none; fill-opacity:0" cx="1087.43" cy="387.529" r="2"/>
<circle clip-path="url(#clip121)" style="fill:#009af9; stroke:none; fill-opacity:0" cx="1112.03" cy="283.964" r="2"/>
<circle clip-path="url(#clip121)" style="fill:#009af9; stroke:none; fill-opacity:0" cx="1136.62" cy="594.659" r="2"/>
<circle clip-path="url(#clip121)" style="fill:#009af9; stroke:none; fill-opacity:0" cx="1161.22" cy="372.734" r="2"/>
<circle clip-path="url(#clip121)" style="fill:#009af9; stroke:none; fill-opacity:0" cx="1185.81" cy="387.529" r="2"/>
<circle clip-path="url(#clip121)" style="fill:#009af9; stroke:none; fill-opacity:0" cx="1210.41" cy="283.964" r="2"/>
<circle clip-path="url(#clip121)" style="fill:#009af9; stroke:none; fill-opacity:0" cx="1235.01" cy="254.374" r="2"/>
<circle clip-path="url(#clip121)" style="fill:#009af9; stroke:none; fill-opacity:0" cx="1259.6" cy="47.2441" r="2"/>
<circle clip-path="url(#clip121)" style="fill:#009af9; stroke:none; fill-opacity:0" cx="1284.2" cy="224.784" r="2"/>
<circle clip-path="url(#clip121)" style="fill:#009af9; stroke:none; fill-opacity:0" cx="1308.79" cy="283.964" r="2"/>
<circle clip-path="url(#clip121)" style="fill:#009af9; stroke:none; fill-opacity:0" cx="1333.39" cy="461.504" r="2"/>
<circle clip-path="url(#clip121)" style="fill:#009af9; stroke:none; fill-opacity:0" cx="1357.99" cy="402.324" r="2"/>
<circle clip-path="url(#clip121)" style="fill:#009af9; stroke:none; fill-opacity:0" cx="1382.58" cy="446.709" r="2"/>
<circle clip-path="url(#clip121)" style="fill:#009af9; stroke:none; fill-opacity:0" cx="1407.18" cy="446.709" r="2"/>
<circle clip-path="url(#clip121)" style="fill:#009af9; stroke:none; fill-opacity:0" cx="1431.78" cy="565.069" r="2"/>
<circle clip-path="url(#clip121)" style="fill:#009af9; stroke:none; fill-opacity:0" cx="1456.37" cy="505.889" r="2"/>
<circle clip-path="url(#clip121)" style="fill:#009af9; stroke:none; fill-opacity:0" cx="1480.97" cy="609.454" r="2"/>
<circle clip-path="url(#clip121)" style="fill:#009af9; stroke:none; fill-opacity:0" cx="1505.56" cy="890.56" r="2"/>
<circle clip-path="url(#clip121)" style="fill:#009af9; stroke:none; fill-opacity:0" cx="1530.16" cy="742.609" r="2"/>
<circle clip-path="url(#clip121)" style="fill:#009af9; stroke:none; fill-opacity:0" cx="1554.76" cy="757.404" r="2"/>
<circle clip-path="url(#clip121)" style="fill:#009af9; stroke:none; fill-opacity:0" cx="1579.35" cy="1023.71" r="2"/>
<circle clip-path="url(#clip121)" style="fill:#009af9; stroke:none; fill-opacity:0" cx="1603.95" cy="1008.92" r="2"/>
<circle clip-path="url(#clip121)" style="fill:#009af9; stroke:none; fill-opacity:0" cx="1628.55" cy="1171.66" r="2"/>
<circle clip-path="url(#clip121)" style="fill:#009af9; stroke:none; fill-opacity:0" cx="1653.14" cy="1053.3" r="2"/>
<circle clip-path="url(#clip121)" style="fill:#009af9; stroke:none; fill-opacity:0" cx="1677.74" cy="1082.89" r="2"/>
<circle clip-path="url(#clip121)" style="fill:#009af9; stroke:none; fill-opacity:0" cx="1702.33" cy="1260.43" r="2"/>
<circle clip-path="url(#clip121)" style="fill:#009af9; stroke:none; fill-opacity:0" cx="1726.93" cy="1290.02" r="2"/>
<circle clip-path="url(#clip121)" style="fill:#009af9; stroke:none; fill-opacity:0" cx="1751.53" cy="1245.64" r="2"/>
<circle clip-path="url(#clip121)" style="fill:#009af9; stroke:none; fill-opacity:0" cx="1776.12" cy="1304.82" r="2"/>
<circle clip-path="url(#clip121)" style="fill:#009af9; stroke:none; fill-opacity:0" cx="1800.72" cy="1304.82" r="2"/>
<circle clip-path="url(#clip121)" style="fill:#009af9; stroke:none; fill-opacity:0" cx="1825.32" cy="1349.2" r="2"/>
<circle clip-path="url(#clip121)" style="fill:#009af9; stroke:none; fill-opacity:0" cx="1849.91" cy="1364" r="2"/>
<circle clip-path="url(#clip121)" style="fill:#009af9; stroke:none; fill-opacity:0" cx="1874.51" cy="1408.38" r="2"/>
<circle clip-path="url(#clip121)" style="fill:#009af9; stroke:none; fill-opacity:0" cx="1899.1" cy="1408.38" r="2"/>
<circle clip-path="url(#clip121)" style="fill:#009af9; stroke:none; fill-opacity:0" cx="1923.7" cy="1378.79" r="2"/>
<circle clip-path="url(#clip121)" style="fill:#009af9; stroke:none; fill-opacity:0" cx="1948.3" cy="1423.18" r="2"/>
<circle clip-path="url(#clip121)" style="fill:#009af9; stroke:none; fill-opacity:0" cx="1972.89" cy="1378.79" r="2"/>
<circle clip-path="url(#clip121)" style="fill:#009af9; stroke:none; fill-opacity:0" cx="1997.49" cy="1378.79" r="2"/>
<circle clip-path="url(#clip121)" style="fill:#009af9; stroke:none; fill-opacity:0" cx="2022.08" cy="1423.18" r="2"/>
<circle clip-path="url(#clip121)" style="fill:#009af9; stroke:none; fill-opacity:0" cx="2046.68" cy="1408.38" r="2"/>
<circle clip-path="url(#clip121)" style="fill:#009af9; stroke:none; fill-opacity:0" cx="2071.28" cy="1423.18" r="2"/>
<circle clip-path="url(#clip121)" style="fill:#009af9; stroke:none; fill-opacity:0" cx="2095.87" cy="1423.18" r="2"/>
<circle clip-path="url(#clip121)" style="fill:#009af9; stroke:none; fill-opacity:0" cx="2120.47" cy="1423.18" r="2"/>
<circle clip-path="url(#clip121)" style="fill:#009af9; stroke:none; fill-opacity:0" cx="2145.07" cy="1423.18" r="2"/>
<circle clip-path="url(#clip121)" style="fill:#009af9; stroke:none; fill-opacity:0" cx="2169.66" cy="1423.18" r="2"/>
<circle clip-path="url(#clip121)" style="fill:#009af9; stroke:none; fill-opacity:0" cx="2194.26" cy="1423.18" r="2"/>
<circle clip-path="url(#clip121)" style="fill:#009af9; stroke:none; fill-opacity:0" cx="2218.85" cy="1423.18" r="2"/>
</svg>
