<?xml version="1.0" encoding="utf-8"?>
<svg xmlns="http://www.w3.org/2000/svg" xmlns:xlink="http://www.w3.org/1999/xlink" width="600" height="400" viewBox="0 0 2400 1600">
<defs>
  <clipPath id="clip000">
    <rect x="0" y="0" width="2400" height="1600"/>
  </clipPath>
</defs>
<path clip-path="url(#clip000)" d="M0 1600 L2400 1600 L2400 0 L0 0  Z" fill="#ffffff" fill-rule="evenodd" fill-opacity="1"/>
<defs>
  <clipPath id="clip001">
    <rect x="192" y="47" width="2161" height="1377"/>
  </clipPath>
</defs>
<path clip-path="url(#clip000)" d="M192.274 1423.18 L2352.76 1423.18 L2352.76 47.2441 L192.274 47.2441  Z" fill="#ffffff" fill-rule="evenodd" fill-opacity="1"/>
<polyline clip-path="url(#clip001)" style="stroke:#000000; stroke-linecap:round; stroke-linejoin:round; stroke-width:2; stroke-opacity:0.1; fill:none" points="253.42,1423.18 253.42,47.2441 "/>
<polyline clip-path="url(#clip001)" style="stroke:#000000; stroke-linecap:round; stroke-linejoin:round; stroke-width:2; stroke-opacity:0.1; fill:none" points="304.374,1423.18 304.374,47.2441 "/>
<polyline clip-path="url(#clip001)" style="stroke:#000000; stroke-linecap:round; stroke-linejoin:round; stroke-width:2; stroke-opacity:0.1; fill:none" points="559.148,1423.18 559.148,47.2441 "/>
<polyline clip-path="url(#clip001)" style="stroke:#000000; stroke-linecap:round; stroke-linejoin:round; stroke-width:2; stroke-opacity:0.1; fill:none" points="813.922,1423.18 813.922,47.2441 "/>
<polyline clip-path="url(#clip001)" style="stroke:#000000; stroke-linecap:round; stroke-linejoin:round; stroke-width:2; stroke-opacity:0.1; fill:none" points="1068.7,1423.18 1068.7,47.2441 "/>
<polyline clip-path="url(#clip001)" style="stroke:#000000; stroke-linecap:round; stroke-linejoin:round; stroke-width:2; stroke-opacity:0.1; fill:none" points="1323.47,1423.18 1323.47,47.2441 "/>
<polyline clip-path="url(#clip001)" style="stroke:#000000; stroke-linecap:round; stroke-linejoin:round; stroke-width:2; stroke-opacity:0.1; fill:none" points="1578.24,1423.18 1578.24,47.2441 "/>
<polyline clip-path="url(#clip001)" style="stroke:#000000; stroke-linecap:round; stroke-linejoin:round; stroke-width:2; stroke-opacity:0.1; fill:none" points="1833.02,1423.18 1833.02,47.2441 "/>
<polyline clip-path="url(#clip001)" style="stroke:#000000; stroke-linecap:round; stroke-linejoin:round; stroke-width:2; stroke-opacity:0.1; fill:none" points="2087.79,1423.18 2087.79,47.2441 "/>
<polyline clip-path="url(#clip001)" style="stroke:#000000; stroke-linecap:round; stroke-linejoin:round; stroke-width:2; stroke-opacity:0.1; fill:none" points="2291.61,1423.18 2291.61,47.2441 "/>
<polyline clip-path="url(#clip001)" style="stroke:#000000; stroke-linecap:round; stroke-linejoin:round; stroke-width:2; stroke-opacity:0.1; fill:none" points="192.274,1384.24 2352.76,1384.24 "/>
<polyline clip-path="url(#clip001)" style="stroke:#000000; stroke-linecap:round; stroke-linejoin:round; stroke-width:2; stroke-opacity:0.1; fill:none" points="192.274,735.212 2352.76,735.212 "/>
<polyline clip-path="url(#clip001)" style="stroke:#000000; stroke-linecap:round; stroke-linejoin:round; stroke-width:2; stroke-opacity:0.1; fill:none" points="192.274,86.1857 2352.76,86.1857 "/>
<polyline clip-path="url(#clip000)" style="stroke:#000000; stroke-linecap:round; stroke-linejoin:round; stroke-width:4; stroke-opacity:1; fill:none" points="192.274,1423.18 2352.76,1423.18 "/>
<polyline clip-path="url(#clip000)" style="stroke:#000000; stroke-linecap:round; stroke-linejoin:round; stroke-width:4; stroke-opacity:1; fill:none" points="253.42,1423.18 253.42,1404.28 "/>
<polyline clip-path="url(#clip000)" style="stroke:#000000; stroke-linecap:round; stroke-linejoin:round; stroke-width:4; stroke-opacity:1; fill:none" points="304.374,1423.18 304.374,1404.28 "/>
<polyline clip-path="url(#clip000)" style="stroke:#000000; stroke-linecap:round; stroke-linejoin:round; stroke-width:4; stroke-opacity:1; fill:none" points="559.148,1423.18 559.148,1404.28 "/>
<polyline clip-path="url(#clip000)" style="stroke:#000000; stroke-linecap:round; stroke-linejoin:round; stroke-width:4; stroke-opacity:1; fill:none" points="813.922,1423.18 813.922,1404.28 "/>
<polyline clip-path="url(#clip000)" style="stroke:#000000; stroke-linecap:round; stroke-linejoin:round; stroke-width:4; stroke-opacity:1; fill:none" points="1068.7,1423.18 1068.7,1404.28 "/>
<polyline clip-path="url(#clip000)" style="stroke:#000000; stroke-linecap:round; stroke-linejoin:round; stroke-width:4; stroke-opacity:1; fill:none" points="1323.47,1423.18 1323.47,1404.28 "/>
<polyline clip-path="url(#clip000)" style="stroke:#000000; stroke-linecap:round; stroke-linejoin:round; stroke-width:4; stroke-opacity:1; fill:none" points="1578.24,1423.18 1578.24,1404.28 "/>
<polyline clip-path="url(#clip000)" style="stroke:#000000; stroke-linecap:round; stroke-linejoin:round; stroke-width:4; stroke-opacity:1; fill:none" points="1833.02,1423.18 1833.02,1404.28 "/>
<polyline clip-path="url(#clip000)" style="stroke:#000000; stroke-linecap:round; stroke-linejoin:round; stroke-width:4; stroke-opacity:1; fill:none" points="2087.79,1423.18 2087.79,1404.28 "/>
<polyline clip-path="url(#clip000)" style="stroke:#000000; stroke-linecap:round; stroke-linejoin:round; stroke-width:4; stroke-opacity:1; fill:none" points="2291.61,1423.18 2291.61,1404.28 "/>
<path clip-path="url(#clip000)" d="M253.42 1454.1 Q249.808 1454.1 247.98 1457.66 Q246.174 1461.2 246.174 1468.33 Q246.174 1475.44 247.98 1479.01 Q249.808 1482.55 253.42 1482.55 Q257.054 1482.55 258.859 1479.01 Q260.688 1475.44 260.688 1468.33 Q260.688 1461.2 258.859 1457.66 Q257.054 1454.1 253.42 1454.1 M253.42 1450.39 Q259.23 1450.39 262.285 1455 Q265.364 1459.58 265.364 1468.33 Q265.364 1477.06 262.285 1481.67 Q259.23 1486.25 253.42 1486.25 Q247.609 1486.25 244.531 1481.67 Q241.475 1477.06 241.475 1468.33 Q241.475 1459.58 244.531 1455 Q247.609 1450.39 253.42 1450.39 Z" fill="#000000" fill-rule="nonzero" fill-opacity="1" /><path clip-path="url(#clip000)" d="M294.652 1451.02 L313.009 1451.02 L313.009 1454.96 L298.935 1454.96 L298.935 1463.43 Q299.953 1463.08 300.972 1462.92 Q301.99 1462.73 303.009 1462.73 Q308.796 1462.73 312.175 1465.9 Q315.555 1469.08 315.555 1474.49 Q315.555 1480.07 312.083 1483.17 Q308.61 1486.25 302.291 1486.25 Q300.115 1486.25 297.847 1485.88 Q295.601 1485.51 293.194 1484.77 L293.194 1480.07 Q295.277 1481.2 297.499 1481.76 Q299.722 1482.32 302.198 1482.32 Q306.203 1482.32 308.541 1480.21 Q310.879 1478.1 310.879 1474.49 Q310.879 1470.88 308.541 1468.77 Q306.203 1466.67 302.198 1466.67 Q300.323 1466.67 298.448 1467.08 Q296.597 1467.5 294.652 1468.38 L294.652 1451.02 Z" fill="#000000" fill-rule="nonzero" fill-opacity="1" /><path clip-path="url(#clip000)" d="M547.991 1466.95 Q551.347 1467.66 553.222 1469.93 Q555.12 1472.2 555.12 1475.53 Q555.12 1480.65 551.602 1483.45 Q548.083 1486.25 541.602 1486.25 Q539.426 1486.25 537.111 1485.81 Q534.82 1485.39 532.366 1484.54 L532.366 1480.02 Q534.31 1481.16 536.625 1481.74 Q538.94 1482.32 541.463 1482.32 Q545.861 1482.32 548.153 1480.58 Q550.468 1478.84 550.468 1475.53 Q550.468 1472.48 548.315 1470.77 Q546.185 1469.03 542.366 1469.03 L538.338 1469.03 L538.338 1465.19 L542.551 1465.19 Q546 1465.19 547.829 1463.82 Q549.657 1462.43 549.657 1459.84 Q549.657 1457.18 547.759 1455.77 Q545.884 1454.33 542.366 1454.33 Q540.445 1454.33 538.245 1454.75 Q536.046 1455.16 533.408 1456.04 L533.408 1451.88 Q536.07 1451.14 538.384 1450.77 Q540.722 1450.39 542.782 1450.39 Q548.107 1450.39 551.208 1452.83 Q554.31 1455.23 554.31 1459.35 Q554.31 1462.22 552.667 1464.21 Q551.023 1466.18 547.991 1466.95 Z" fill="#000000" fill-rule="nonzero" fill-opacity="1" /><path clip-path="url(#clip000)" d="M573.986 1454.1 Q570.375 1454.1 568.546 1457.66 Q566.741 1461.2 566.741 1468.33 Q566.741 1475.44 568.546 1479.01 Q570.375 1482.55 573.986 1482.55 Q577.62 1482.55 579.426 1479.01 Q581.255 1475.44 581.255 1468.33 Q581.255 1461.2 579.426 1457.66 Q577.62 1454.1 573.986 1454.1 M573.986 1450.39 Q579.796 1450.39 582.852 1455 Q585.93 1459.58 585.93 1468.33 Q585.93 1477.06 582.852 1481.67 Q579.796 1486.25 573.986 1486.25 Q568.176 1486.25 565.097 1481.67 Q562.042 1477.06 562.042 1468.33 Q562.042 1459.58 565.097 1455 Q568.176 1450.39 573.986 1450.39 Z" fill="#000000" fill-rule="nonzero" fill-opacity="1" /><path clip-path="url(#clip000)" d="M789.119 1451.02 L807.475 1451.02 L807.475 1454.96 L793.401 1454.96 L793.401 1463.43 Q794.42 1463.08 795.438 1462.92 Q796.457 1462.73 797.475 1462.73 Q803.262 1462.73 806.642 1465.9 Q810.022 1469.08 810.022 1474.49 Q810.022 1480.07 806.549 1483.17 Q803.077 1486.25 796.758 1486.25 Q794.582 1486.25 792.313 1485.88 Q790.068 1485.51 787.661 1484.77 L787.661 1480.07 Q789.744 1481.2 791.966 1481.76 Q794.188 1482.32 796.665 1482.32 Q800.67 1482.32 803.008 1480.21 Q805.346 1478.1 805.346 1474.49 Q805.346 1470.88 803.008 1468.77 Q800.67 1466.67 796.665 1466.67 Q794.79 1466.67 792.915 1467.08 Q791.063 1467.5 789.119 1468.38 L789.119 1451.02 Z" fill="#000000" fill-rule="nonzero" fill-opacity="1" /><path clip-path="url(#clip000)" d="M819.281 1451.02 L837.637 1451.02 L837.637 1454.96 L823.563 1454.96 L823.563 1463.43 Q824.582 1463.08 825.6 1462.92 Q826.619 1462.73 827.637 1462.73 Q833.424 1462.73 836.804 1465.9 Q840.183 1469.08 840.183 1474.49 Q840.183 1480.07 836.711 1483.17 Q833.239 1486.25 826.92 1486.25 Q824.744 1486.25 822.475 1485.88 Q820.23 1485.51 817.822 1484.77 L817.822 1480.07 Q819.906 1481.2 822.128 1481.76 Q824.35 1482.32 826.827 1482.32 Q830.832 1482.32 833.17 1480.21 Q835.508 1478.1 835.508 1474.49 Q835.508 1470.88 833.17 1468.77 Q830.832 1466.67 826.827 1466.67 Q824.952 1466.67 823.077 1467.08 Q821.225 1467.5 819.281 1468.38 L819.281 1451.02 Z" fill="#000000" fill-rule="nonzero" fill-opacity="1" /><path clip-path="url(#clip000)" d="M1053.57 1469.17 Q1050.24 1469.17 1048.31 1470.95 Q1046.42 1472.73 1046.42 1475.86 Q1046.42 1478.98 1048.31 1480.77 Q1050.24 1482.55 1053.57 1482.55 Q1056.9 1482.55 1058.82 1480.77 Q1060.74 1478.96 1060.74 1475.86 Q1060.74 1472.73 1058.82 1470.95 Q1056.93 1469.17 1053.57 1469.17 M1048.89 1467.18 Q1045.88 1466.44 1044.19 1464.38 Q1042.53 1462.32 1042.53 1459.35 Q1042.53 1455.21 1045.47 1452.8 Q1048.43 1450.39 1053.57 1450.39 Q1058.73 1450.39 1061.67 1452.8 Q1064.61 1455.21 1064.61 1459.35 Q1064.61 1462.32 1062.92 1464.38 Q1061.25 1466.44 1058.27 1467.18 Q1061.65 1467.96 1063.52 1470.26 Q1065.42 1472.55 1065.42 1475.86 Q1065.42 1480.88 1062.34 1483.57 Q1059.29 1486.25 1053.57 1486.25 Q1047.85 1486.25 1044.77 1483.57 Q1041.72 1480.88 1041.72 1475.86 Q1041.72 1472.55 1043.61 1470.26 Q1045.51 1467.96 1048.89 1467.18 M1047.18 1459.79 Q1047.18 1462.48 1048.85 1463.98 Q1050.54 1465.49 1053.57 1465.49 Q1056.58 1465.49 1058.27 1463.98 Q1059.98 1462.48 1059.98 1459.79 Q1059.98 1457.11 1058.27 1455.6 Q1056.58 1454.1 1053.57 1454.1 Q1050.54 1454.1 1048.85 1455.6 Q1047.18 1457.11 1047.18 1459.79 Z" fill="#000000" fill-rule="nonzero" fill-opacity="1" /><path clip-path="url(#clip000)" d="M1083.73 1454.1 Q1080.12 1454.1 1078.29 1457.66 Q1076.49 1461.2 1076.49 1468.33 Q1076.49 1475.44 1078.29 1479.01 Q1080.12 1482.55 1083.73 1482.55 Q1087.36 1482.55 1089.17 1479.01 Q1091 1475.44 1091 1468.33 Q1091 1461.2 1089.17 1457.66 Q1087.36 1454.1 1083.73 1454.1 M1083.73 1450.39 Q1089.54 1450.39 1092.6 1455 Q1095.67 1459.58 1095.67 1468.33 Q1095.67 1477.06 1092.6 1481.67 Q1089.54 1486.25 1083.73 1486.25 Q1077.92 1486.25 1074.84 1481.67 Q1071.79 1477.06 1071.79 1468.33 Q1071.79 1459.58 1074.84 1455 Q1077.92 1450.39 1083.73 1450.39 Z" fill="#000000" fill-rule="nonzero" fill-opacity="1" /><path clip-path="url(#clip000)" d="M1283.57 1481.64 L1291.21 1481.64 L1291.21 1455.28 L1282.9 1456.95 L1282.9 1452.69 L1291.17 1451.02 L1295.84 1451.02 L1295.84 1481.64 L1303.48 1481.64 L1303.48 1485.58 L1283.57 1485.58 L1283.57 1481.64 Z" fill="#000000" fill-rule="nonzero" fill-opacity="1" /><path clip-path="url(#clip000)" d="M1322.93 1454.1 Q1319.31 1454.1 1317.49 1457.66 Q1315.68 1461.2 1315.68 1468.33 Q1315.68 1475.44 1317.49 1479.01 Q1319.31 1482.55 1322.93 1482.55 Q1326.56 1482.55 1328.37 1479.01 Q1330.19 1475.44 1330.19 1468.33 Q1330.19 1461.2 1328.37 1457.66 Q1326.56 1454.1 1322.93 1454.1 M1322.93 1450.39 Q1328.74 1450.39 1331.79 1455 Q1334.87 1459.58 1334.87 1468.33 Q1334.87 1477.06 1331.79 1481.67 Q1328.74 1486.25 1322.93 1486.25 Q1317.12 1486.25 1314.04 1481.67 Q1310.98 1477.06 1310.98 1468.33 Q1310.98 1459.58 1314.04 1455 Q1317.12 1450.39 1322.93 1450.39 Z" fill="#000000" fill-rule="nonzero" fill-opacity="1" /><path clip-path="url(#clip000)" d="M1343.13 1451.02 L1361.49 1451.02 L1361.49 1454.96 L1347.42 1454.96 L1347.42 1463.43 Q1348.43 1463.08 1349.45 1462.92 Q1350.47 1462.73 1351.49 1462.73 Q1357.28 1462.73 1360.66 1465.9 Q1364.04 1469.08 1364.04 1474.49 Q1364.04 1480.07 1360.56 1483.17 Q1357.09 1486.25 1350.77 1486.25 Q1348.6 1486.25 1346.33 1485.88 Q1344.08 1485.51 1341.68 1484.77 L1341.68 1480.07 Q1343.76 1481.2 1345.98 1481.76 Q1348.2 1482.32 1350.68 1482.32 Q1354.68 1482.32 1357.02 1480.21 Q1359.36 1478.1 1359.36 1474.49 Q1359.36 1470.88 1357.02 1468.77 Q1354.68 1466.67 1350.68 1466.67 Q1348.81 1466.67 1346.93 1467.08 Q1345.08 1467.5 1343.13 1468.38 L1343.13 1451.02 Z" fill="#000000" fill-rule="nonzero" fill-opacity="1" /><path clip-path="url(#clip000)" d="M1537.85 1481.64 L1545.49 1481.64 L1545.49 1455.28 L1537.18 1456.95 L1537.18 1452.69 L1545.44 1451.02 L1550.12 1451.02 L1550.12 1481.64 L1557.76 1481.64 L1557.76 1485.58 L1537.85 1485.58 L1537.85 1481.64 Z" fill="#000000" fill-rule="nonzero" fill-opacity="1" /><path clip-path="url(#clip000)" d="M1581.37 1466.95 Q1584.72 1467.66 1586.6 1469.93 Q1588.5 1472.2 1588.5 1475.53 Q1588.5 1480.65 1584.98 1483.45 Q1581.46 1486.25 1574.98 1486.25 Q1572.8 1486.25 1570.49 1485.81 Q1568.2 1485.39 1565.74 1484.54 L1565.74 1480.02 Q1567.69 1481.16 1570 1481.74 Q1572.32 1482.32 1574.84 1482.32 Q1579.24 1482.32 1581.53 1480.58 Q1583.85 1478.84 1583.85 1475.53 Q1583.85 1472.48 1581.69 1470.77 Q1579.56 1469.03 1575.74 1469.03 L1571.72 1469.03 L1571.72 1465.19 L1575.93 1465.19 Q1579.38 1465.19 1581.21 1463.82 Q1583.04 1462.43 1583.04 1459.84 Q1583.04 1457.18 1581.14 1455.77 Q1579.26 1454.33 1575.74 1454.33 Q1573.82 1454.33 1571.62 1454.75 Q1569.42 1455.16 1566.79 1456.04 L1566.79 1451.88 Q1569.45 1451.14 1571.76 1450.77 Q1574.1 1450.39 1576.16 1450.39 Q1581.48 1450.39 1584.59 1452.83 Q1587.69 1455.23 1587.69 1459.35 Q1587.69 1462.22 1586.04 1464.21 Q1584.4 1466.18 1581.37 1466.95 Z" fill="#000000" fill-rule="nonzero" fill-opacity="1" /><path clip-path="url(#clip000)" d="M1607.36 1454.1 Q1603.75 1454.1 1601.92 1457.66 Q1600.12 1461.2 1600.12 1468.33 Q1600.12 1475.44 1601.92 1479.01 Q1603.75 1482.55 1607.36 1482.55 Q1611 1482.55 1612.8 1479.01 Q1614.63 1475.44 1614.63 1468.33 Q1614.63 1461.2 1612.8 1457.66 Q1611 1454.1 1607.36 1454.1 M1607.36 1450.39 Q1613.17 1450.39 1616.23 1455 Q1619.31 1459.58 1619.31 1468.33 Q1619.31 1477.06 1616.23 1481.67 Q1613.17 1486.25 1607.36 1486.25 Q1601.55 1486.25 1598.47 1481.67 Q1595.42 1477.06 1595.42 1468.33 Q1595.42 1459.58 1598.47 1455 Q1601.55 1450.39 1607.36 1450.39 Z" fill="#000000" fill-rule="nonzero" fill-opacity="1" /><path clip-path="url(#clip000)" d="M1793.12 1481.64 L1800.76 1481.64 L1800.76 1455.28 L1792.45 1456.95 L1792.45 1452.69 L1800.71 1451.02 L1805.39 1451.02 L1805.39 1481.64 L1813.03 1481.64 L1813.03 1485.58 L1793.12 1485.58 L1793.12 1481.64 Z" fill="#000000" fill-rule="nonzero" fill-opacity="1" /><path clip-path="url(#clip000)" d="M1822.52 1451.02 L1840.88 1451.02 L1840.88 1454.96 L1826.8 1454.96 L1826.8 1463.43 Q1827.82 1463.08 1828.84 1462.92 Q1829.86 1462.73 1830.88 1462.73 Q1836.66 1462.73 1840.04 1465.9 Q1843.42 1469.08 1843.42 1474.49 Q1843.42 1480.07 1839.95 1483.17 Q1836.48 1486.25 1830.16 1486.25 Q1827.98 1486.25 1825.71 1485.88 Q1823.47 1485.51 1821.06 1484.77 L1821.06 1480.07 Q1823.14 1481.2 1825.37 1481.76 Q1827.59 1482.32 1830.07 1482.32 Q1834.07 1482.32 1836.41 1480.21 Q1838.75 1478.1 1838.75 1474.49 Q1838.75 1470.88 1836.41 1468.77 Q1834.07 1466.67 1830.07 1466.67 Q1828.19 1466.67 1826.32 1467.08 Q1824.46 1467.5 1822.52 1468.38 L1822.52 1451.02 Z" fill="#000000" fill-rule="nonzero" fill-opacity="1" /><path clip-path="url(#clip000)" d="M1852.68 1451.02 L1871.04 1451.02 L1871.04 1454.96 L1856.96 1454.96 L1856.96 1463.43 Q1857.98 1463.08 1859 1462.92 Q1860.02 1462.73 1861.04 1462.73 Q1866.82 1462.73 1870.2 1465.9 Q1873.58 1469.08 1873.58 1474.49 Q1873.58 1480.07 1870.11 1483.17 Q1866.64 1486.25 1860.32 1486.25 Q1858.14 1486.25 1855.88 1485.88 Q1853.63 1485.51 1851.22 1484.77 L1851.22 1480.07 Q1853.31 1481.2 1855.53 1481.76 Q1857.75 1482.32 1860.23 1482.32 Q1864.23 1482.32 1866.57 1480.21 Q1868.91 1478.1 1868.91 1474.49 Q1868.91 1470.88 1866.57 1468.77 Q1864.23 1466.67 1860.23 1466.67 Q1858.35 1466.67 1856.48 1467.08 Q1854.63 1467.5 1852.68 1468.38 L1852.68 1451.02 Z" fill="#000000" fill-rule="nonzero" fill-opacity="1" /><path clip-path="url(#clip000)" d="M2047.4 1481.64 L2055.04 1481.64 L2055.04 1455.28 L2046.73 1456.95 L2046.73 1452.69 L2054.99 1451.02 L2059.67 1451.02 L2059.67 1481.64 L2067.31 1481.64 L2067.31 1485.58 L2047.4 1485.58 L2047.4 1481.64 Z" fill="#000000" fill-rule="nonzero" fill-opacity="1" /><path clip-path="url(#clip000)" d="M2086.75 1469.17 Q2083.42 1469.17 2081.49 1470.95 Q2079.6 1472.73 2079.6 1475.86 Q2079.6 1478.98 2081.49 1480.77 Q2083.42 1482.55 2086.75 1482.55 Q2090.08 1482.55 2092 1480.77 Q2093.93 1478.96 2093.93 1475.86 Q2093.93 1472.73 2092 1470.95 Q2090.11 1469.17 2086.75 1469.17 M2082.07 1467.18 Q2079.06 1466.44 2077.37 1464.38 Q2075.71 1462.32 2075.71 1459.35 Q2075.71 1455.21 2078.65 1452.8 Q2081.61 1450.39 2086.75 1450.39 Q2091.91 1450.39 2094.85 1452.8 Q2097.79 1455.21 2097.79 1459.35 Q2097.79 1462.32 2096.1 1464.38 Q2094.43 1466.44 2091.45 1467.18 Q2094.83 1467.96 2096.7 1470.26 Q2098.6 1472.55 2098.6 1475.86 Q2098.6 1480.88 2095.52 1483.57 Q2092.47 1486.25 2086.75 1486.25 Q2081.03 1486.25 2077.95 1483.57 Q2074.9 1480.88 2074.9 1475.86 Q2074.9 1472.55 2076.8 1470.26 Q2078.69 1467.96 2082.07 1467.18 M2080.36 1459.79 Q2080.36 1462.48 2082.03 1463.98 Q2083.72 1465.49 2086.75 1465.49 Q2089.76 1465.49 2091.45 1463.98 Q2093.16 1462.48 2093.16 1459.79 Q2093.16 1457.11 2091.45 1455.6 Q2089.76 1454.1 2086.75 1454.1 Q2083.72 1454.1 2082.03 1455.6 Q2080.36 1457.11 2080.36 1459.79 Z" fill="#000000" fill-rule="nonzero" fill-opacity="1" /><path clip-path="url(#clip000)" d="M2116.91 1454.1 Q2113.3 1454.1 2111.47 1457.66 Q2109.67 1461.2 2109.67 1468.33 Q2109.67 1475.44 2111.47 1479.01 Q2113.3 1482.55 2116.91 1482.55 Q2120.55 1482.55 2122.35 1479.01 Q2124.18 1475.44 2124.18 1468.33 Q2124.18 1461.2 2122.35 1457.66 Q2120.55 1454.1 2116.91 1454.1 M2116.91 1450.39 Q2122.72 1450.39 2125.78 1455 Q2128.86 1459.58 2128.86 1468.33 Q2128.86 1477.06 2125.78 1481.67 Q2122.72 1486.25 2116.91 1486.25 Q2111.1 1486.25 2108.02 1481.67 Q2104.97 1477.06 2104.97 1468.33 Q2104.97 1459.58 2108.02 1455 Q2111.1 1450.39 2116.91 1450.39 Z" fill="#000000" fill-rule="nonzero" fill-opacity="1" /><path clip-path="url(#clip000)" d="M2255.3 1481.64 L2271.62 1481.64 L2271.62 1485.58 L2249.68 1485.58 L2249.68 1481.64 Q2252.34 1478.89 2256.92 1474.26 Q2261.53 1469.61 2262.71 1468.27 Q2264.96 1465.74 2265.83 1464.01 Q2266.74 1462.25 2266.74 1460.56 Q2266.74 1457.8 2264.79 1456.07 Q2262.87 1454.33 2259.77 1454.33 Q2257.57 1454.33 2255.12 1455.09 Q2252.69 1455.86 2249.91 1457.41 L2249.91 1452.69 Q2252.73 1451.55 2255.19 1450.97 Q2257.64 1450.39 2259.68 1450.39 Q2265.05 1450.39 2268.24 1453.08 Q2271.44 1455.77 2271.44 1460.26 Q2271.44 1462.39 2270.63 1464.31 Q2269.84 1466.2 2267.73 1468.8 Q2267.15 1469.47 2264.05 1472.69 Q2260.95 1475.88 2255.3 1481.64 Z" fill="#000000" fill-rule="nonzero" fill-opacity="1" /><path clip-path="url(#clip000)" d="M2291.44 1454.1 Q2287.83 1454.1 2286 1457.66 Q2284.19 1461.2 2284.19 1468.33 Q2284.19 1475.44 2286 1479.01 Q2287.83 1482.55 2291.44 1482.55 Q2295.07 1482.55 2296.88 1479.01 Q2298.71 1475.44 2298.71 1468.33 Q2298.71 1461.2 2296.88 1457.66 Q2295.07 1454.1 2291.44 1454.1 M2291.44 1450.39 Q2297.25 1450.39 2300.3 1455 Q2303.38 1459.58 2303.38 1468.33 Q2303.38 1477.06 2300.3 1481.67 Q2297.25 1486.25 2291.44 1486.25 Q2285.63 1486.25 2282.55 1481.67 Q2279.49 1477.06 2279.49 1468.33 Q2279.49 1459.58 2282.55 1455 Q2285.63 1450.39 2291.44 1450.39 Z" fill="#000000" fill-rule="nonzero" fill-opacity="1" /><path clip-path="url(#clip000)" d="M2321.6 1454.1 Q2317.99 1454.1 2316.16 1457.66 Q2314.35 1461.2 2314.35 1468.33 Q2314.35 1475.44 2316.16 1479.01 Q2317.99 1482.55 2321.6 1482.55 Q2325.23 1482.55 2327.04 1479.01 Q2328.87 1475.44 2328.87 1468.33 Q2328.87 1461.2 2327.04 1457.66 Q2325.23 1454.1 2321.6 1454.1 M2321.6 1450.39 Q2327.41 1450.39 2330.46 1455 Q2333.54 1459.58 2333.54 1468.33 Q2333.54 1477.06 2330.46 1481.67 Q2327.41 1486.25 2321.6 1486.25 Q2315.79 1486.25 2312.71 1481.67 Q2309.65 1477.06 2309.65 1468.33 Q2309.65 1459.58 2312.71 1455 Q2315.79 1450.39 2321.6 1450.39 Z" fill="#000000" fill-rule="nonzero" fill-opacity="1" /><path clip-path="url(#clip000)" d="M1189.08 1522.27 L1189.08 1532.4 L1201.14 1532.4 L1201.14 1536.95 L1189.08 1536.95 L1189.08 1556.3 Q1189.08 1560.66 1190.25 1561.9 Q1191.46 1563.14 1195.12 1563.14 L1201.14 1563.14 L1201.14 1568.04 L1195.12 1568.04 Q1188.34 1568.04 1185.77 1565.53 Q1183.19 1562.98 1183.19 1556.3 L1183.19 1536.95 L1178.89 1536.95 L1178.89 1532.4 L1183.19 1532.4 L1183.19 1522.27 L1189.08 1522.27 Z" fill="#000000" fill-rule="nonzero" fill-opacity="1" /><path clip-path="url(#clip000)" d="M1243.63 1518.58 Q1239.37 1525.9 1237.3 1533.06 Q1235.23 1540.23 1235.23 1547.58 Q1235.23 1554.93 1237.3 1562.16 Q1239.4 1569.35 1243.63 1576.64 L1238.54 1576.64 Q1233.76 1569.16 1231.38 1561.93 Q1229.02 1554.71 1229.02 1547.58 Q1229.02 1540.48 1231.38 1533.29 Q1233.73 1526.09 1238.54 1518.58 L1243.63 1518.58 Z" fill="#000000" fill-rule="nonzero" fill-opacity="1" /><path clip-path="url(#clip000)" d="M1282.75 1539.24 Q1284.94 1535.29 1288 1533.41 Q1291.05 1531.54 1295.19 1531.54 Q1300.76 1531.54 1303.79 1535.45 Q1306.81 1539.33 1306.81 1546.53 L1306.81 1568.04 L1300.92 1568.04 L1300.92 1546.72 Q1300.92 1541.59 1299.11 1539.11 Q1297.29 1536.63 1293.57 1536.63 Q1289.02 1536.63 1286.38 1539.65 Q1283.73 1542.68 1283.73 1547.9 L1283.73 1568.04 L1277.85 1568.04 L1277.85 1546.72 Q1277.85 1541.56 1276.03 1539.11 Q1274.22 1536.63 1270.43 1536.63 Q1265.94 1536.63 1263.3 1539.68 Q1260.66 1542.71 1260.66 1547.9 L1260.66 1568.04 L1254.77 1568.04 L1254.77 1532.4 L1260.66 1532.4 L1260.66 1537.93 Q1262.66 1534.66 1265.46 1533.1 Q1268.27 1531.54 1272.12 1531.54 Q1276 1531.54 1278.71 1533.51 Q1281.44 1535.48 1282.75 1539.24 Z" fill="#000000" fill-rule="nonzero" fill-opacity="1" /><path clip-path="url(#clip000)" d="M1341.22 1533.45 L1341.22 1538.98 Q1338.73 1537.71 1336.06 1537.07 Q1333.39 1536.44 1330.52 1536.44 Q1326.16 1536.44 1323.97 1537.77 Q1321.8 1539.11 1321.8 1541.79 Q1321.8 1543.82 1323.36 1545 Q1324.92 1546.15 1329.63 1547.2 L1331.64 1547.64 Q1337.87 1548.98 1340.48 1551.43 Q1343.13 1553.85 1343.13 1558.21 Q1343.13 1563.17 1339.18 1566.07 Q1335.26 1568.97 1328.39 1568.97 Q1325.53 1568.97 1322.41 1568.39 Q1319.32 1567.85 1315.88 1566.74 L1315.88 1560.69 Q1319.13 1562.38 1322.28 1563.24 Q1325.43 1564.07 1328.52 1564.07 Q1332.65 1564.07 1334.88 1562.66 Q1337.11 1561.23 1337.11 1558.65 Q1337.11 1556.27 1335.49 1554.99 Q1333.9 1553.72 1328.45 1552.54 L1326.42 1552.07 Q1320.97 1550.92 1318.55 1548.56 Q1316.14 1546.18 1316.14 1542.04 Q1316.14 1537.01 1319.7 1534.27 Q1323.27 1531.54 1329.82 1531.54 Q1333.07 1531.54 1335.93 1532.01 Q1338.8 1532.49 1341.22 1533.45 Z" fill="#000000" fill-rule="nonzero" fill-opacity="1" /><path clip-path="url(#clip000)" d="M1351.53 1518.58 L1356.62 1518.58 Q1361.4 1526.09 1363.75 1533.29 Q1366.14 1540.48 1366.14 1547.58 Q1366.14 1554.71 1363.75 1561.93 Q1361.4 1569.16 1356.62 1576.64 L1351.53 1576.64 Q1355.76 1569.35 1357.83 1562.16 Q1359.93 1554.93 1359.93 1547.58 Q1359.93 1540.23 1357.83 1533.06 Q1355.76 1525.9 1351.53 1518.58 Z" fill="#000000" fill-rule="nonzero" fill-opacity="1" /><polyline clip-path="url(#clip000)" style="stroke:#000000; stroke-linecap:round; stroke-linejoin:round; stroke-width:4; stroke-opacity:1; fill:none" points="192.274,1423.18 192.274,47.2441 "/>
<polyline clip-path="url(#clip000)" style="stroke:#000000; stroke-linecap:round; stroke-linejoin:round; stroke-width:4; stroke-opacity:1; fill:none" points="192.274,1384.24 211.171,1384.24 "/>
<polyline clip-path="url(#clip000)" style="stroke:#000000; stroke-linecap:round; stroke-linejoin:round; stroke-width:4; stroke-opacity:1; fill:none" points="192.274,735.212 211.171,735.212 "/>
<polyline clip-path="url(#clip000)" style="stroke:#000000; stroke-linecap:round; stroke-linejoin:round; stroke-width:4; stroke-opacity:1; fill:none" points="192.274,86.1857 211.171,86.1857 "/>
<path clip-path="url(#clip000)" d="M114.26 1386.63 L126.737 1386.63 L126.737 1390.43 L114.26 1390.43 L114.26 1386.63 Z" fill="#000000" fill-rule="nonzero" fill-opacity="1" /><path clip-path="url(#clip000)" d="M130.765 1375.59 L155.603 1375.59 L155.603 1379.85 L152.339 1379.85 L152.339 1395.78 Q152.339 1397.44 152.894 1398.18 Q153.473 1398.9 154.746 1398.9 Q155.093 1398.9 155.603 1398.86 Q156.112 1398.79 156.274 1398.76 L156.274 1401.84 Q155.464 1402.14 154.607 1402.28 Q153.751 1402.42 152.894 1402.42 Q150.116 1402.42 149.052 1400.92 Q147.987 1399.39 147.987 1395.31 L147.987 1379.85 L138.427 1379.85 L138.427 1401.52 L134.075 1401.52 L134.075 1379.85 L130.765 1379.85 L130.765 1375.59 Z" fill="#000000" fill-rule="nonzero" fill-opacity="1" /><path clip-path="url(#clip000)" d="M144.329 721.011 Q140.718 721.011 138.89 724.575 Q137.084 728.117 137.084 735.247 Q137.084 742.353 138.89 745.918 Q140.718 749.46 144.329 749.46 Q147.964 749.46 149.769 745.918 Q151.598 742.353 151.598 735.247 Q151.598 728.117 149.769 724.575 Q147.964 721.011 144.329 721.011 M144.329 717.307 Q150.14 717.307 153.195 721.913 Q156.274 726.497 156.274 735.247 Q156.274 743.973 153.195 748.58 Q150.14 753.163 144.329 753.163 Q138.519 753.163 135.441 748.58 Q132.385 743.973 132.385 735.247 Q132.385 726.497 135.441 721.913 Q138.519 717.307 144.329 717.307 Z" fill="#000000" fill-rule="nonzero" fill-opacity="1" /><path clip-path="url(#clip000)" d="M130.765 77.5399 L155.603 77.5399 L155.603 81.7991 L152.339 81.7991 L152.339 97.725 Q152.339 99.3916 152.894 100.132 Q153.473 100.85 154.746 100.85 Q155.093 100.85 155.603 100.804 Q156.112 100.734 156.274 100.711 L156.274 103.79 Q155.464 104.091 154.607 104.23 Q153.751 104.368 152.894 104.368 Q150.116 104.368 149.052 102.864 Q147.987 101.336 147.987 97.262 L147.987 81.7991 L138.427 81.7991 L138.427 103.466 L134.075 103.466 L134.075 81.7991 L130.765 81.7991 L130.765 77.5399 Z" fill="#000000" fill-rule="nonzero" fill-opacity="1" /><path clip-path="url(#clip000)" d="M21.7677 821.165 L39.6235 821.165 L39.6235 813.08 Q39.6235 808.593 37.3 806.142 Q34.9765 803.691 30.6797 803.691 Q26.4147 803.691 24.0912 806.142 Q21.7677 808.593 21.7677 813.08 L21.7677 821.165 M16.4842 827.594 L16.4842 813.08 Q16.4842 805.092 20.1126 801.017 Q23.7092 796.912 30.6797 796.912 Q37.7138 796.912 41.3104 801.017 Q44.907 805.092 44.907 813.08 L44.907 821.165 L64.0042 821.165 L64.0042 827.594 L16.4842 827.594 Z" fill="#000000" fill-rule="nonzero" fill-opacity="1" /><path clip-path="url(#clip000)" d="M42.4881 758.908 L64.0042 758.908 L64.0042 764.765 L42.679 764.765 Q37.6183 764.765 35.1038 766.738 Q32.5894 768.711 32.5894 772.658 Q32.5894 777.401 35.6131 780.138 Q38.6368 782.875 43.8567 782.875 L64.0042 782.875 L64.0042 788.763 L14.479 788.763 L14.479 782.875 L33.8944 782.875 Q30.6797 780.775 29.0883 777.942 Q27.4968 775.077 27.4968 771.353 Q27.4968 765.21 31.3163 762.059 Q35.1038 758.908 42.4881 758.908 Z" fill="#000000" fill-rule="nonzero" fill-opacity="1" /><path clip-path="url(#clip000)" d="M46.0847 731.027 Q46.0847 738.124 47.7079 740.862 Q49.3312 743.599 53.2461 743.599 Q56.3653 743.599 58.2114 741.562 Q60.0256 739.493 60.0256 735.96 Q60.0256 731.09 56.5881 728.162 Q53.1188 725.202 47.3897 725.202 L46.0847 725.202 L46.0847 731.027 M43.6657 719.345 L64.0042 719.345 L64.0042 725.202 L58.5933 725.202 Q61.8398 727.207 63.3994 730.199 Q64.9272 733.191 64.9272 737.52 Q64.9272 742.994 61.8716 746.241 Q58.7843 749.455 53.6281 749.455 Q47.6125 749.455 44.5569 745.445 Q41.5014 741.403 41.5014 733.414 L41.5014 725.202 L40.9285 725.202 Q36.8862 725.202 34.6901 727.875 Q32.4621 730.517 32.4621 735.323 Q32.4621 738.379 33.1941 741.275 Q33.9262 744.172 35.3903 746.845 L29.9795 746.845 Q28.7381 743.631 28.1334 740.607 Q27.4968 737.583 27.4968 734.719 Q27.4968 726.984 31.5072 723.165 Q35.5176 719.345 43.6657 719.345 Z" fill="#000000" fill-rule="nonzero" fill-opacity="1" /><path clip-path="url(#clip000)" d="M29.4065 684.557 L34.9447 684.557 Q33.6716 687.039 33.035 689.713 Q32.3984 692.387 32.3984 695.251 Q32.3984 699.612 33.7352 701.808 Q35.072 703.972 37.7456 703.972 Q39.7826 703.972 40.9603 702.413 Q42.1061 700.853 43.1565 696.142 L43.6021 694.137 Q44.9389 687.899 47.3897 685.289 Q49.8086 682.647 54.1691 682.647 Q59.1344 682.647 62.0308 686.594 Q64.9272 690.509 64.9272 697.384 Q64.9272 700.248 64.3543 703.368 Q63.8132 706.455 62.6992 709.892 L56.6518 709.892 Q58.3387 706.646 59.198 703.495 Q60.0256 700.344 60.0256 697.256 Q60.0256 693.119 58.6251 690.891 Q57.1929 688.663 54.6147 688.663 Q52.2276 688.663 50.9545 690.286 Q49.6813 691.877 48.5037 697.32 L48.0262 699.357 Q46.8804 704.8 44.5251 707.219 Q42.138 709.638 38.0002 709.638 Q32.9713 709.638 30.2341 706.073 Q27.4968 702.508 27.4968 695.951 Q27.4968 692.705 27.9743 689.84 Q28.4517 686.976 29.4065 684.557 Z" fill="#000000" fill-rule="nonzero" fill-opacity="1" /><path clip-path="url(#clip000)" d="M44.7161 642.83 L47.5806 642.83 L47.5806 669.757 Q53.6281 669.375 56.8109 666.128 Q59.9619 662.85 59.9619 657.025 Q59.9619 653.651 59.1344 650.5 Q58.3069 647.317 56.6518 644.198 L62.1899 644.198 Q63.5267 647.349 64.227 650.659 Q64.9272 653.97 64.9272 657.375 Q64.9272 665.905 59.9619 670.902 Q54.9967 675.868 46.5303 675.868 Q37.7774 675.868 32.6531 671.157 Q27.4968 666.415 27.4968 658.394 Q27.4968 651.201 32.1438 647.031 Q36.7589 642.83 44.7161 642.83 M42.9973 648.686 Q38.1912 648.75 35.3266 651.392 Q32.4621 654.001 32.4621 658.33 Q32.4621 663.232 35.2312 666.192 Q38.0002 669.12 43.0292 669.566 L42.9973 648.686 Z" fill="#000000" fill-rule="nonzero" fill-opacity="1" /><circle clip-path="url(#clip001)" cx="304.374" cy="208.593" r="14.4" fill="#009af9" fill-rule="evenodd" fill-opacity="1" stroke="none"/>
<circle clip-path="url(#clip001)" cx="559.148" cy="208.593" r="14.4" fill="#009af9" fill-rule="evenodd" fill-opacity="1" stroke="none"/>
<circle clip-path="url(#clip001)" cx="813.922" cy="208.593" r="14.4" fill="#009af9" fill-rule="evenodd" fill-opacity="1" stroke="none"/>
<circle clip-path="url(#clip001)" cx="1068.7" cy="208.593" r="14.4" fill="#009af9" fill-rule="evenodd" fill-opacity="1" stroke="none"/>
<circle clip-path="url(#clip001)" cx="1323.47" cy="208.593" r="14.4" fill="#009af9" fill-rule="evenodd" fill-opacity="1" stroke="none"/>
<circle clip-path="url(#clip001)" cx="1578.24" cy="208.593" r="14.4" fill="#009af9" fill-rule="evenodd" fill-opacity="1" stroke="none"/>
<circle clip-path="url(#clip001)" cx="1833.02" cy="208.593" r="14.4" fill="#009af9" fill-rule="evenodd" fill-opacity="1" stroke="none"/>
<circle clip-path="url(#clip001)" cx="2087.79" cy="208.593" r="14.4" fill="#009af9" fill-rule="evenodd" fill-opacity="1" stroke="none"/>
<circle clip-path="url(#clip001)" cx="304.374" cy="213.422" r="14.4" fill="#e26f46" fill-rule="evenodd" fill-opacity="1" stroke="none"/>
<circle clip-path="url(#clip001)" cx="559.148" cy="202.858" r="14.4" fill="#e26f46" fill-rule="evenodd" fill-opacity="1" stroke="none"/>
<circle clip-path="url(#clip001)" cx="813.922" cy="208.385" r="14.4" fill="#e26f46" fill-rule="evenodd" fill-opacity="1" stroke="none"/>
<circle clip-path="url(#clip001)" cx="1068.7" cy="205.239" r="14.4" fill="#e26f46" fill-rule="evenodd" fill-opacity="1" stroke="none"/>
<circle clip-path="url(#clip001)" cx="1323.47" cy="188.223" r="14.4" fill="#e26f46" fill-rule="evenodd" fill-opacity="1" stroke="none"/>
<circle clip-path="url(#clip001)" cx="1578.24" cy="180.558" r="14.4" fill="#e26f46" fill-rule="evenodd" fill-opacity="1" stroke="none"/>
<circle clip-path="url(#clip001)" cx="1833.02" cy="131.541" r="14.4" fill="#e26f46" fill-rule="evenodd" fill-opacity="1" stroke="none"/>
<circle clip-path="url(#clip001)" cx="2087.79" cy="787.057" r="14.4" fill="#e26f46" fill-rule="evenodd" fill-opacity="1" stroke="none"/>
<path clip-path="url(#clip000)" d="M1821.41 1377.32 L2280.74 1377.32 L2280.74 1221.8 L1821.41 1221.8  Z" fill="#ffffff" fill-rule="evenodd" fill-opacity="1"/>
<polyline clip-path="url(#clip000)" style="stroke:#000000; stroke-linecap:round; stroke-linejoin:round; stroke-width:4; stroke-opacity:1; fill:none" points="1821.41,1377.32 2280.74,1377.32 2280.74,1221.8 1821.41,1221.8 1821.41,1377.32 "/>
<circle clip-path="url(#clip000)" cx="1917.43" cy="1273.64" r="20.48" fill="#009af9" fill-rule="evenodd" fill-opacity="1" stroke="none"/>
<path clip-path="url(#clip000)" d="M2013.45 1256.36 L2042.68 1256.36 L2042.68 1260.29 L2030.42 1260.29 L2030.42 1290.92 L2025.72 1290.92 L2025.72 1260.29 L2013.45 1260.29 L2013.45 1256.36 Z" fill="#000000" fill-rule="nonzero" fill-opacity="1" /><path clip-path="url(#clip000)" d="M2055.07 1268.97 Q2054.35 1268.55 2053.49 1268.37 Q2052.66 1268.16 2051.64 1268.16 Q2048.03 1268.16 2046.09 1270.52 Q2044.17 1272.86 2044.17 1277.26 L2044.17 1290.92 L2039.88 1290.92 L2039.88 1264.99 L2044.17 1264.99 L2044.17 1269.02 Q2045.51 1266.66 2047.66 1265.52 Q2049.81 1264.36 2052.89 1264.36 Q2053.33 1264.36 2053.87 1264.43 Q2054.4 1264.48 2055.05 1264.6 L2055.07 1268.97 Z" fill="#000000" fill-rule="nonzero" fill-opacity="1" /><path clip-path="url(#clip000)" d="M2059.1 1280.68 L2059.1 1264.99 L2063.36 1264.99 L2063.36 1280.52 Q2063.36 1284.2 2064.79 1286.05 Q2066.23 1287.88 2069.1 1287.88 Q2072.55 1287.88 2074.54 1285.68 Q2076.55 1283.48 2076.55 1279.69 L2076.55 1264.99 L2080.81 1264.99 L2080.81 1290.92 L2076.55 1290.92 L2076.55 1286.93 Q2075 1289.29 2072.94 1290.45 Q2070.9 1291.59 2068.19 1291.59 Q2063.73 1291.59 2061.41 1288.81 Q2059.1 1286.03 2059.1 1280.68 M2069.81 1264.36 L2069.81 1264.36 Z" fill="#000000" fill-rule="nonzero" fill-opacity="1" /><path clip-path="url(#clip000)" d="M2111.76 1276.89 L2111.76 1278.97 L2092.18 1278.97 Q2092.45 1283.37 2094.81 1285.68 Q2097.2 1287.98 2101.43 1287.98 Q2103.89 1287.98 2106.18 1287.37 Q2108.49 1286.77 2110.76 1285.57 L2110.76 1289.6 Q2108.47 1290.57 2106.06 1291.08 Q2103.66 1291.59 2101.18 1291.59 Q2094.98 1291.59 2091.34 1287.98 Q2087.73 1284.36 2087.73 1278.21 Q2087.73 1271.84 2091.16 1268.11 Q2094.61 1264.36 2100.44 1264.36 Q2105.67 1264.36 2108.7 1267.74 Q2111.76 1271.1 2111.76 1276.89 M2107.5 1275.64 Q2107.45 1272.14 2105.53 1270.06 Q2103.63 1267.98 2100.49 1267.98 Q2096.92 1267.98 2094.77 1269.99 Q2092.64 1272 2092.31 1275.66 L2107.5 1275.64 Z" fill="#000000" fill-rule="nonzero" fill-opacity="1" /><path clip-path="url(#clip000)" d="M2150.88 1268.92 L2150.88 1254.9 L2155.14 1254.9 L2155.14 1290.92 L2150.88 1290.92 L2150.88 1287.03 Q2149.54 1289.34 2147.48 1290.48 Q2145.44 1291.59 2142.57 1291.59 Q2137.87 1291.59 2134.91 1287.84 Q2131.97 1284.09 2131.97 1277.98 Q2131.97 1271.86 2134.91 1268.11 Q2137.87 1264.36 2142.57 1264.36 Q2145.44 1264.36 2147.48 1265.5 Q2149.54 1266.61 2150.88 1268.92 M2136.36 1277.98 Q2136.36 1282.67 2138.29 1285.36 Q2140.23 1288.02 2143.61 1288.02 Q2146.99 1288.02 2148.93 1285.36 Q2150.88 1282.67 2150.88 1277.98 Q2150.88 1273.28 2148.93 1270.61 Q2146.99 1267.93 2143.61 1267.93 Q2140.23 1267.93 2138.29 1270.61 Q2136.36 1273.28 2136.36 1277.98 Z" fill="#000000" fill-rule="nonzero" fill-opacity="1" /><path clip-path="url(#clip000)" d="M2175.69 1277.88 Q2170.53 1277.88 2168.54 1279.06 Q2166.55 1280.24 2166.55 1283.09 Q2166.55 1285.36 2168.03 1286.7 Q2169.54 1288.02 2172.11 1288.02 Q2175.65 1288.02 2177.78 1285.52 Q2179.93 1283 2179.93 1278.83 L2179.93 1277.88 L2175.69 1277.88 M2184.19 1276.12 L2184.19 1290.92 L2179.93 1290.92 L2179.93 1286.98 Q2178.47 1289.34 2176.3 1290.48 Q2174.12 1291.59 2170.97 1291.59 Q2166.99 1291.59 2164.63 1289.36 Q2162.29 1287.12 2162.29 1283.37 Q2162.29 1278.99 2165.21 1276.77 Q2168.15 1274.55 2173.96 1274.55 L2179.93 1274.55 L2179.93 1274.13 Q2179.93 1271.19 2177.98 1269.6 Q2176.06 1267.98 2172.57 1267.98 Q2170.35 1267.98 2168.24 1268.51 Q2166.13 1269.04 2164.19 1270.11 L2164.19 1266.17 Q2166.53 1265.27 2168.73 1264.83 Q2170.92 1264.36 2173.01 1264.36 Q2178.63 1264.36 2181.41 1267.28 Q2184.19 1270.2 2184.19 1276.12 Z" fill="#000000" fill-rule="nonzero" fill-opacity="1" /><path clip-path="url(#clip000)" d="M2197.17 1257.63 L2197.17 1264.99 L2205.95 1264.99 L2205.95 1268.3 L2197.17 1268.3 L2197.17 1282.37 Q2197.17 1285.54 2198.03 1286.45 Q2198.91 1287.35 2201.57 1287.35 L2205.95 1287.35 L2205.95 1290.92 L2201.57 1290.92 Q2196.64 1290.92 2194.77 1289.09 Q2192.89 1287.23 2192.89 1282.37 L2192.89 1268.3 L2189.77 1268.3 L2189.77 1264.99 L2192.89 1264.99 L2192.89 1257.63 L2197.17 1257.63 Z" fill="#000000" fill-rule="nonzero" fill-opacity="1" /><path clip-path="url(#clip000)" d="M2223.33 1277.88 Q2218.17 1277.88 2216.18 1279.06 Q2214.19 1280.24 2214.19 1283.09 Q2214.19 1285.36 2215.67 1286.7 Q2217.17 1288.02 2219.74 1288.02 Q2223.29 1288.02 2225.42 1285.52 Q2227.57 1283 2227.57 1278.83 L2227.57 1277.88 L2223.33 1277.88 M2231.83 1276.12 L2231.83 1290.92 L2227.57 1290.92 L2227.57 1286.98 Q2226.11 1289.34 2223.93 1290.48 Q2221.76 1291.59 2218.61 1291.59 Q2214.63 1291.59 2212.27 1289.36 Q2209.93 1287.12 2209.93 1283.37 Q2209.93 1278.99 2212.85 1276.77 Q2215.79 1274.55 2221.6 1274.55 L2227.57 1274.55 L2227.57 1274.13 Q2227.57 1271.19 2225.62 1269.6 Q2223.7 1267.98 2220.21 1267.98 Q2217.98 1267.98 2215.88 1268.51 Q2213.77 1269.04 2211.83 1270.11 L2211.83 1266.17 Q2214.17 1265.27 2216.36 1264.83 Q2218.56 1264.36 2220.65 1264.36 Q2226.27 1264.36 2229.05 1267.28 Q2231.83 1270.2 2231.83 1276.12 Z" fill="#000000" fill-rule="nonzero" fill-opacity="1" /><circle clip-path="url(#clip000)" cx="1917.43" cy="1325.48" r="20.48" fill="#e26f46" fill-rule="evenodd" fill-opacity="1" stroke="none"/>
<path clip-path="url(#clip000)" d="M2013.45 1308.2 L2019.75 1308.2 L2035.07 1337.11 L2035.07 1308.2 L2039.61 1308.2 L2039.61 1342.76 L2033.31 1342.76 L2017.99 1313.84 L2017.99 1342.76 L2013.45 1342.76 L2013.45 1308.2 Z" fill="#000000" fill-rule="nonzero" fill-opacity="1" /><path clip-path="url(#clip000)" d="M2058.77 1319.82 Q2055.35 1319.82 2053.36 1322.5 Q2051.37 1325.16 2051.37 1329.82 Q2051.37 1334.47 2053.33 1337.15 Q2055.32 1339.82 2058.77 1339.82 Q2062.18 1339.82 2064.17 1337.13 Q2066.16 1334.45 2066.16 1329.82 Q2066.16 1325.21 2064.17 1322.52 Q2062.18 1319.82 2058.77 1319.82 M2058.77 1316.2 Q2064.33 1316.2 2067.5 1319.82 Q2070.67 1323.43 2070.67 1329.82 Q2070.67 1336.18 2067.5 1339.82 Q2064.33 1343.43 2058.77 1343.43 Q2053.19 1343.43 2050.02 1339.82 Q2046.87 1336.18 2046.87 1329.82 Q2046.87 1323.43 2050.02 1319.82 Q2053.19 1316.2 2058.77 1316.2 Z" fill="#000000" fill-rule="nonzero" fill-opacity="1" /><path clip-path="url(#clip000)" d="M2077.73 1316.83 L2081.99 1316.83 L2081.99 1342.76 L2077.73 1342.76 L2077.73 1316.83 M2077.73 1306.74 L2081.99 1306.74 L2081.99 1312.13 L2077.73 1312.13 L2077.73 1306.74 Z" fill="#000000" fill-rule="nonzero" fill-opacity="1" /><path clip-path="url(#clip000)" d="M2107.43 1317.59 L2107.43 1321.62 Q2105.62 1320.7 2103.68 1320.23 Q2101.74 1319.77 2099.65 1319.77 Q2096.48 1319.77 2094.88 1320.74 Q2093.31 1321.71 2093.31 1323.66 Q2093.31 1325.14 2094.44 1326 Q2095.58 1326.83 2099 1327.59 L2100.46 1327.92 Q2105 1328.89 2106.9 1330.67 Q2108.82 1332.43 2108.82 1335.6 Q2108.82 1339.21 2105.95 1341.32 Q2103.1 1343.43 2098.1 1343.43 Q2096.02 1343.43 2093.75 1343.01 Q2091.5 1342.62 2089 1341.81 L2089 1337.41 Q2091.36 1338.63 2093.66 1339.26 Q2095.95 1339.86 2098.19 1339.86 Q2101.2 1339.86 2102.82 1338.84 Q2104.44 1337.8 2104.44 1335.93 Q2104.44 1334.19 2103.26 1333.26 Q2102.11 1332.34 2098.15 1331.48 L2096.67 1331.14 Q2092.71 1330.3 2090.95 1328.59 Q2089.19 1326.85 2089.19 1323.84 Q2089.19 1320.19 2091.78 1318.2 Q2094.37 1316.2 2099.14 1316.2 Q2101.5 1316.2 2103.59 1316.55 Q2105.67 1316.9 2107.43 1317.59 Z" fill="#000000" fill-rule="nonzero" fill-opacity="1" /><path clip-path="url(#clip000)" d="M2126.39 1345.16 Q2124.58 1349.79 2122.87 1351.2 Q2121.16 1352.62 2118.29 1352.62 L2114.88 1352.62 L2114.88 1349.05 L2117.38 1349.05 Q2119.14 1349.05 2120.11 1348.22 Q2121.09 1347.38 2122.27 1344.28 L2123.03 1342.34 L2112.55 1316.83 L2117.06 1316.83 L2125.16 1337.11 L2133.26 1316.83 L2137.78 1316.83 L2126.39 1345.16 Z" fill="#000000" fill-rule="nonzero" fill-opacity="1" /><path clip-path="url(#clip000)" d="M2175.79 1320.76 L2175.79 1306.74 L2180.05 1306.74 L2180.05 1342.76 L2175.79 1342.76 L2175.79 1338.87 Q2174.44 1341.18 2172.38 1342.32 Q2170.35 1343.43 2167.48 1343.43 Q2162.78 1343.43 2159.81 1339.68 Q2156.87 1335.93 2156.87 1329.82 Q2156.87 1323.7 2159.81 1319.95 Q2162.78 1316.2 2167.48 1316.2 Q2170.35 1316.2 2172.38 1317.34 Q2174.44 1318.45 2175.79 1320.76 M2161.27 1329.82 Q2161.27 1334.51 2163.19 1337.2 Q2165.14 1339.86 2168.52 1339.86 Q2171.9 1339.86 2173.84 1337.2 Q2175.79 1334.51 2175.79 1329.82 Q2175.79 1325.12 2173.84 1322.45 Q2171.9 1319.77 2168.52 1319.77 Q2165.14 1319.77 2163.19 1322.45 Q2161.27 1325.12 2161.27 1329.82 Z" fill="#000000" fill-rule="nonzero" fill-opacity="1" /><path clip-path="url(#clip000)" d="M2200.6 1329.72 Q2195.44 1329.72 2193.45 1330.9 Q2191.46 1332.08 2191.46 1334.93 Q2191.46 1337.2 2192.94 1338.54 Q2194.44 1339.86 2197.01 1339.86 Q2200.55 1339.86 2202.68 1337.36 Q2204.84 1334.84 2204.84 1330.67 L2204.84 1329.72 L2200.6 1329.72 M2209.1 1327.96 L2209.1 1342.76 L2204.84 1342.76 L2204.84 1338.82 Q2203.38 1341.18 2201.2 1342.32 Q2199.03 1343.43 2195.88 1343.43 Q2191.9 1343.43 2189.54 1341.2 Q2187.2 1338.96 2187.2 1335.21 Q2187.2 1330.83 2190.11 1328.61 Q2193.05 1326.39 2198.86 1326.39 L2204.84 1326.39 L2204.84 1325.97 Q2204.84 1323.03 2202.89 1321.44 Q2200.97 1319.82 2197.48 1319.82 Q2195.25 1319.82 2193.15 1320.35 Q2191.04 1320.88 2189.1 1321.95 L2189.1 1318.01 Q2191.43 1317.11 2193.63 1316.67 Q2195.83 1316.2 2197.92 1316.2 Q2203.54 1316.2 2206.32 1319.12 Q2209.1 1322.04 2209.1 1327.96 Z" fill="#000000" fill-rule="nonzero" fill-opacity="1" /><path clip-path="url(#clip000)" d="M2222.08 1309.47 L2222.08 1316.83 L2230.85 1316.83 L2230.85 1320.14 L2222.08 1320.14 L2222.08 1334.21 Q2222.08 1337.38 2222.94 1338.29 Q2223.82 1339.19 2226.48 1339.19 L2230.85 1339.19 L2230.85 1342.76 L2226.48 1342.76 Q2221.55 1342.76 2219.67 1340.93 Q2217.8 1339.07 2217.8 1334.21 L2217.8 1320.14 L2214.67 1320.14 L2214.67 1316.83 L2217.8 1316.83 L2217.8 1309.47 L2222.08 1309.47 Z" fill="#000000" fill-rule="nonzero" fill-opacity="1" /><path clip-path="url(#clip000)" d="M2248.24 1329.72 Q2243.08 1329.72 2241.09 1330.9 Q2239.1 1332.08 2239.1 1334.93 Q2239.1 1337.2 2240.58 1338.54 Q2242.08 1339.86 2244.65 1339.86 Q2248.19 1339.86 2250.32 1337.36 Q2252.48 1334.84 2252.48 1330.67 L2252.48 1329.72 L2248.24 1329.72 M2256.73 1327.96 L2256.73 1342.76 L2252.48 1342.76 L2252.48 1338.82 Q2251.02 1341.18 2248.84 1342.32 Q2246.67 1343.43 2243.52 1343.43 Q2239.54 1343.43 2237.17 1341.2 Q2234.84 1338.96 2234.84 1335.21 Q2234.84 1330.83 2237.75 1328.61 Q2240.69 1326.39 2246.5 1326.39 L2252.48 1326.39 L2252.48 1325.97 Q2252.48 1323.03 2250.53 1321.44 Q2248.61 1319.82 2245.11 1319.82 Q2242.89 1319.82 2240.79 1320.35 Q2238.68 1320.88 2236.73 1321.95 L2236.73 1318.01 Q2239.07 1317.11 2241.27 1316.67 Q2243.47 1316.2 2245.55 1316.2 Q2251.18 1316.2 2253.96 1319.12 Q2256.73 1322.04 2256.73 1327.96 Z" fill="#000000" fill-rule="nonzero" fill-opacity="1" /></svg>
