<?xml version="1.0" encoding="utf-8"?>
<svg xmlns="http://www.w3.org/2000/svg" xmlns:xlink="http://www.w3.org/1999/xlink" width="600" height="400" viewBox="0 0 2400 1600">
<defs>
  <clipPath id="clip180">
    <rect x="0" y="0" width="2400" height="1600"/>
  </clipPath>
</defs>
<path clip-path="url(#clip180)" d="M0 1600 L2400 1600 L2400 0 L0 0  Z" fill="#ffffff" fill-rule="evenodd" fill-opacity="1"/>
<defs>
  <clipPath id="clip181">
    <rect x="212" y="47" width="2141" height="1377"/>
  </clipPath>
</defs>
<path clip-path="url(#clip180)" d="M212.459 1423.18 L2352.76 1423.18 L2352.76 47.2441 L212.459 47.2441  Z" fill="#ffffff" fill-rule="evenodd" fill-opacity="1"/>
<polyline clip-path="url(#clip181)" style="stroke:#000000; stroke-linecap:round; stroke-linejoin:round; stroke-width:2; stroke-opacity:0.1; fill:none" points="273.033,1423.18 273.033,47.2441 "/>
<polyline clip-path="url(#clip181)" style="stroke:#000000; stroke-linecap:round; stroke-linejoin:round; stroke-width:2; stroke-opacity:0.1; fill:none" points="273.033,1423.18 273.033,47.2441 "/>
<polyline clip-path="url(#clip181)" style="stroke:#000000; stroke-linecap:round; stroke-linejoin:round; stroke-width:2; stroke-opacity:0.1; fill:none" points="531.898,1423.18 531.898,47.2441 "/>
<polyline clip-path="url(#clip181)" style="stroke:#000000; stroke-linecap:round; stroke-linejoin:round; stroke-width:2; stroke-opacity:0.1; fill:none" points="790.764,1423.18 790.764,47.2441 "/>
<polyline clip-path="url(#clip181)" style="stroke:#000000; stroke-linecap:round; stroke-linejoin:round; stroke-width:2; stroke-opacity:0.1; fill:none" points="1049.63,1423.18 1049.63,47.2441 "/>
<polyline clip-path="url(#clip181)" style="stroke:#000000; stroke-linecap:round; stroke-linejoin:round; stroke-width:2; stroke-opacity:0.1; fill:none" points="1308.49,1423.18 1308.49,47.2441 "/>
<polyline clip-path="url(#clip181)" style="stroke:#000000; stroke-linecap:round; stroke-linejoin:round; stroke-width:2; stroke-opacity:0.1; fill:none" points="1567.36,1423.18 1567.36,47.2441 "/>
<polyline clip-path="url(#clip181)" style="stroke:#000000; stroke-linecap:round; stroke-linejoin:round; stroke-width:2; stroke-opacity:0.1; fill:none" points="1826.22,1423.18 1826.22,47.2441 "/>
<polyline clip-path="url(#clip181)" style="stroke:#000000; stroke-linecap:round; stroke-linejoin:round; stroke-width:2; stroke-opacity:0.1; fill:none" points="2085.09,1423.18 2085.09,47.2441 "/>
<polyline clip-path="url(#clip181)" style="stroke:#000000; stroke-linecap:round; stroke-linejoin:round; stroke-width:2; stroke-opacity:0.1; fill:none" points="2343.95,1423.18 2343.95,47.2441 "/>
<polyline clip-path="url(#clip181)" style="stroke:#000000; stroke-linecap:round; stroke-linejoin:round; stroke-width:2; stroke-opacity:0.1; fill:none" points="212.459,1406.26 2352.76,1406.26 "/>
<polyline clip-path="url(#clip181)" style="stroke:#000000; stroke-linecap:round; stroke-linejoin:round; stroke-width:2; stroke-opacity:0.1; fill:none" points="212.459,1148.02 2352.76,1148.02 "/>
<polyline clip-path="url(#clip181)" style="stroke:#000000; stroke-linecap:round; stroke-linejoin:round; stroke-width:2; stroke-opacity:0.1; fill:none" points="212.459,889.78 2352.76,889.78 "/>
<polyline clip-path="url(#clip181)" style="stroke:#000000; stroke-linecap:round; stroke-linejoin:round; stroke-width:2; stroke-opacity:0.1; fill:none" points="212.459,631.54 2352.76,631.54 "/>
<polyline clip-path="url(#clip181)" style="stroke:#000000; stroke-linecap:round; stroke-linejoin:round; stroke-width:2; stroke-opacity:0.1; fill:none" points="212.459,373.301 2352.76,373.301 "/>
<polyline clip-path="url(#clip181)" style="stroke:#000000; stroke-linecap:round; stroke-linejoin:round; stroke-width:2; stroke-opacity:0.1; fill:none" points="212.459,115.061 2352.76,115.061 "/>
<polyline clip-path="url(#clip180)" style="stroke:#000000; stroke-linecap:round; stroke-linejoin:round; stroke-width:4; stroke-opacity:1; fill:none" points="212.459,1423.18 2352.76,1423.18 "/>
<polyline clip-path="url(#clip180)" style="stroke:#000000; stroke-linecap:round; stroke-linejoin:round; stroke-width:4; stroke-opacity:1; fill:none" points="273.033,1423.18 273.033,1404.28 "/>
<polyline clip-path="url(#clip180)" style="stroke:#000000; stroke-linecap:round; stroke-linejoin:round; stroke-width:4; stroke-opacity:1; fill:none" points="273.033,1423.18 273.033,1404.28 "/>
<polyline clip-path="url(#clip180)" style="stroke:#000000; stroke-linecap:round; stroke-linejoin:round; stroke-width:4; stroke-opacity:1; fill:none" points="531.898,1423.18 531.898,1404.28 "/>
<polyline clip-path="url(#clip180)" style="stroke:#000000; stroke-linecap:round; stroke-linejoin:round; stroke-width:4; stroke-opacity:1; fill:none" points="790.764,1423.18 790.764,1404.28 "/>
<polyline clip-path="url(#clip180)" style="stroke:#000000; stroke-linecap:round; stroke-linejoin:round; stroke-width:4; stroke-opacity:1; fill:none" points="1049.63,1423.18 1049.63,1404.28 "/>
<polyline clip-path="url(#clip180)" style="stroke:#000000; stroke-linecap:round; stroke-linejoin:round; stroke-width:4; stroke-opacity:1; fill:none" points="1308.49,1423.18 1308.49,1404.28 "/>
<polyline clip-path="url(#clip180)" style="stroke:#000000; stroke-linecap:round; stroke-linejoin:round; stroke-width:4; stroke-opacity:1; fill:none" points="1567.36,1423.18 1567.36,1404.28 "/>
<polyline clip-path="url(#clip180)" style="stroke:#000000; stroke-linecap:round; stroke-linejoin:round; stroke-width:4; stroke-opacity:1; fill:none" points="1826.22,1423.18 1826.22,1404.28 "/>
<polyline clip-path="url(#clip180)" style="stroke:#000000; stroke-linecap:round; stroke-linejoin:round; stroke-width:4; stroke-opacity:1; fill:none" points="2085.09,1423.18 2085.09,1404.28 "/>
<polyline clip-path="url(#clip180)" style="stroke:#000000; stroke-linecap:round; stroke-linejoin:round; stroke-width:4; stroke-opacity:1; fill:none" points="2343.95,1423.18 2343.95,1404.28 "/>
<path clip-path="url(#clip180)" d="M273.033 1454.1 Q269.422 1454.1 267.594 1457.66 Q265.788 1461.2 265.788 1468.33 Q265.788 1475.44 267.594 1479.01 Q269.422 1482.55 273.033 1482.55 Q276.668 1482.55 278.473 1479.01 Q280.302 1475.44 280.302 1468.33 Q280.302 1461.2 278.473 1457.66 Q276.668 1454.1 273.033 1454.1 M273.033 1450.39 Q278.843 1450.39 281.899 1455 Q284.978 1459.58 284.978 1468.33 Q284.978 1477.06 281.899 1481.67 Q278.843 1486.25 273.033 1486.25 Q267.223 1486.25 264.145 1481.67 Q261.089 1477.06 261.089 1468.33 Q261.089 1459.58 264.145 1455 Q267.223 1450.39 273.033 1450.39 Z" fill="#000000" fill-rule="nonzero" fill-opacity="1" /><path clip-path="url(#clip180)" d="M273.033 1454.1 Q269.422 1454.1 267.594 1457.66 Q265.788 1461.2 265.788 1468.33 Q265.788 1475.44 267.594 1479.01 Q269.422 1482.55 273.033 1482.55 Q276.668 1482.55 278.473 1479.01 Q280.302 1475.44 280.302 1468.33 Q280.302 1461.2 278.473 1457.66 Q276.668 1454.1 273.033 1454.1 M273.033 1450.39 Q278.843 1450.39 281.899 1455 Q284.978 1459.58 284.978 1468.33 Q284.978 1477.06 281.899 1481.67 Q278.843 1486.25 273.033 1486.25 Q267.223 1486.25 264.145 1481.67 Q261.089 1477.06 261.089 1468.33 Q261.089 1459.58 264.145 1455 Q267.223 1450.39 273.033 1450.39 Z" fill="#000000" fill-rule="nonzero" fill-opacity="1" /><path clip-path="url(#clip180)" d="M511.169 1481.64 L527.489 1481.64 L527.489 1485.58 L505.544 1485.58 L505.544 1481.64 Q508.206 1478.89 512.79 1474.26 Q517.396 1469.61 518.577 1468.27 Q520.822 1465.74 521.702 1464.01 Q522.605 1462.25 522.605 1460.56 Q522.605 1457.8 520.66 1456.07 Q518.739 1454.33 515.637 1454.33 Q513.438 1454.33 510.984 1455.09 Q508.554 1455.86 505.776 1457.41 L505.776 1452.69 Q508.6 1451.55 511.054 1450.97 Q513.507 1450.39 515.544 1450.39 Q520.915 1450.39 524.109 1453.08 Q527.304 1455.77 527.304 1460.26 Q527.304 1462.39 526.493 1464.31 Q525.706 1466.2 523.6 1468.8 Q523.021 1469.47 519.919 1472.69 Q516.818 1475.88 511.169 1481.64 Z" fill="#000000" fill-rule="nonzero" fill-opacity="1" /><path clip-path="url(#clip180)" d="M537.35 1451.02 L555.706 1451.02 L555.706 1454.96 L541.632 1454.96 L541.632 1463.43 Q542.651 1463.08 543.669 1462.92 Q544.688 1462.73 545.706 1462.73 Q551.493 1462.73 554.873 1465.9 Q558.253 1469.08 558.253 1474.49 Q558.253 1480.07 554.78 1483.17 Q551.308 1486.25 544.989 1486.25 Q542.813 1486.25 540.544 1485.88 Q538.299 1485.51 535.892 1484.77 L535.892 1480.07 Q537.975 1481.2 540.197 1481.76 Q542.419 1482.32 544.896 1482.32 Q548.901 1482.32 551.239 1480.21 Q553.577 1478.1 553.577 1474.49 Q553.577 1470.88 551.239 1468.77 Q548.901 1466.67 544.896 1466.67 Q543.021 1466.67 541.146 1467.08 Q539.294 1467.5 537.35 1468.38 L537.35 1451.02 Z" fill="#000000" fill-rule="nonzero" fill-opacity="1" /><path clip-path="url(#clip180)" d="M765.463 1451.02 L783.819 1451.02 L783.819 1454.96 L769.745 1454.96 L769.745 1463.43 Q770.764 1463.08 771.782 1462.92 Q772.801 1462.73 773.819 1462.73 Q779.606 1462.73 782.986 1465.9 Q786.366 1469.08 786.366 1474.49 Q786.366 1480.07 782.893 1483.17 Q779.421 1486.25 773.102 1486.25 Q770.926 1486.25 768.657 1485.88 Q766.412 1485.51 764.005 1484.77 L764.005 1480.07 Q766.088 1481.2 768.31 1481.76 Q770.532 1482.32 773.009 1482.32 Q777.014 1482.32 779.352 1480.21 Q781.69 1478.1 781.69 1474.49 Q781.69 1470.88 779.352 1468.77 Q777.014 1466.67 773.009 1466.67 Q771.134 1466.67 769.259 1467.08 Q767.407 1467.5 765.463 1468.38 L765.463 1451.02 Z" fill="#000000" fill-rule="nonzero" fill-opacity="1" /><path clip-path="url(#clip180)" d="M805.578 1454.1 Q801.967 1454.1 800.139 1457.66 Q798.333 1461.2 798.333 1468.33 Q798.333 1475.44 800.139 1479.01 Q801.967 1482.55 805.578 1482.55 Q809.213 1482.55 811.018 1479.01 Q812.847 1475.44 812.847 1468.33 Q812.847 1461.2 811.018 1457.66 Q809.213 1454.1 805.578 1454.1 M805.578 1450.39 Q811.389 1450.39 814.444 1455 Q817.523 1459.58 817.523 1468.33 Q817.523 1477.06 814.444 1481.67 Q811.389 1486.25 805.578 1486.25 Q799.768 1486.25 796.69 1481.67 Q793.634 1477.06 793.634 1468.33 Q793.634 1459.58 796.69 1455 Q799.768 1450.39 805.578 1450.39 Z" fill="#000000" fill-rule="nonzero" fill-opacity="1" /><path clip-path="url(#clip180)" d="M1023.48 1451.02 L1045.71 1451.02 L1045.71 1453.01 L1033.16 1485.58 L1028.27 1485.58 L1040.08 1454.96 L1023.48 1454.96 L1023.48 1451.02 Z" fill="#000000" fill-rule="nonzero" fill-opacity="1" /><path clip-path="url(#clip180)" d="M1054.87 1451.02 L1073.23 1451.02 L1073.23 1454.96 L1059.15 1454.96 L1059.15 1463.43 Q1060.17 1463.08 1061.19 1462.92 Q1062.21 1462.73 1063.23 1462.73 Q1069.02 1462.73 1072.39 1465.9 Q1075.77 1469.08 1075.77 1474.49 Q1075.77 1480.07 1072.3 1483.17 Q1068.83 1486.25 1062.51 1486.25 Q1060.33 1486.25 1058.07 1485.88 Q1055.82 1485.51 1053.41 1484.77 L1053.41 1480.07 Q1055.5 1481.2 1057.72 1481.76 Q1059.94 1482.32 1062.42 1482.32 Q1066.42 1482.32 1068.76 1480.21 Q1071.1 1478.1 1071.1 1474.49 Q1071.1 1470.88 1068.76 1468.77 Q1066.42 1466.67 1062.42 1466.67 Q1060.54 1466.67 1058.67 1467.08 Q1056.82 1467.5 1054.87 1468.38 L1054.87 1451.02 Z" fill="#000000" fill-rule="nonzero" fill-opacity="1" /><path clip-path="url(#clip180)" d="M1268.1 1481.64 L1275.74 1481.64 L1275.74 1455.28 L1267.43 1456.95 L1267.43 1452.69 L1275.69 1451.02 L1280.37 1451.02 L1280.37 1481.64 L1288.01 1481.64 L1288.01 1485.58 L1268.1 1485.58 L1268.1 1481.64 Z" fill="#000000" fill-rule="nonzero" fill-opacity="1" /><path clip-path="url(#clip180)" d="M1307.45 1454.1 Q1303.84 1454.1 1302.01 1457.66 Q1300.21 1461.2 1300.21 1468.33 Q1300.21 1475.44 1302.01 1479.01 Q1303.84 1482.55 1307.45 1482.55 Q1311.09 1482.55 1312.89 1479.01 Q1314.72 1475.44 1314.72 1468.33 Q1314.72 1461.2 1312.89 1457.66 Q1311.09 1454.1 1307.45 1454.1 M1307.45 1450.39 Q1313.26 1450.39 1316.32 1455 Q1319.4 1459.58 1319.4 1468.33 Q1319.4 1477.06 1316.32 1481.67 Q1313.26 1486.25 1307.45 1486.25 Q1301.64 1486.25 1298.56 1481.67 Q1295.51 1477.06 1295.51 1468.33 Q1295.51 1459.58 1298.56 1455 Q1301.64 1450.39 1307.45 1450.39 Z" fill="#000000" fill-rule="nonzero" fill-opacity="1" /><path clip-path="url(#clip180)" d="M1337.61 1454.1 Q1334 1454.1 1332.17 1457.66 Q1330.37 1461.2 1330.37 1468.33 Q1330.37 1475.44 1332.17 1479.01 Q1334 1482.55 1337.61 1482.55 Q1341.25 1482.55 1343.05 1479.01 Q1344.88 1475.44 1344.88 1468.33 Q1344.88 1461.2 1343.05 1457.66 Q1341.25 1454.1 1337.61 1454.1 M1337.61 1450.39 Q1343.42 1450.39 1346.48 1455 Q1349.56 1459.58 1349.56 1468.33 Q1349.56 1477.06 1346.48 1481.67 Q1343.42 1486.25 1337.61 1486.25 Q1331.8 1486.25 1328.73 1481.67 Q1325.67 1477.06 1325.67 1468.33 Q1325.67 1459.58 1328.73 1455 Q1331.8 1450.39 1337.61 1450.39 Z" fill="#000000" fill-rule="nonzero" fill-opacity="1" /><path clip-path="url(#clip180)" d="M1527.46 1481.64 L1535.1 1481.64 L1535.1 1455.28 L1526.79 1456.95 L1526.79 1452.69 L1535.06 1451.02 L1539.73 1451.02 L1539.73 1481.64 L1547.37 1481.64 L1547.37 1485.58 L1527.46 1485.58 L1527.46 1481.64 Z" fill="#000000" fill-rule="nonzero" fill-opacity="1" /><path clip-path="url(#clip180)" d="M1560.84 1481.64 L1577.16 1481.64 L1577.16 1485.58 L1555.22 1485.58 L1555.22 1481.64 Q1557.88 1478.89 1562.46 1474.26 Q1567.07 1469.61 1568.25 1468.27 Q1570.5 1465.74 1571.38 1464.01 Q1572.28 1462.25 1572.28 1460.56 Q1572.28 1457.8 1570.33 1456.07 Q1568.41 1454.33 1565.31 1454.33 Q1563.11 1454.33 1560.66 1455.09 Q1558.23 1455.86 1555.45 1457.41 L1555.45 1452.69 Q1558.27 1451.55 1560.73 1450.97 Q1563.18 1450.39 1565.22 1450.39 Q1570.59 1450.39 1573.78 1453.08 Q1576.98 1455.77 1576.98 1460.26 Q1576.98 1462.39 1576.17 1464.31 Q1575.38 1466.2 1573.27 1468.8 Q1572.69 1469.47 1569.59 1472.69 Q1566.49 1475.88 1560.84 1481.64 Z" fill="#000000" fill-rule="nonzero" fill-opacity="1" /><path clip-path="url(#clip180)" d="M1587.02 1451.02 L1605.38 1451.02 L1605.38 1454.96 L1591.31 1454.96 L1591.31 1463.43 Q1592.32 1463.08 1593.34 1462.92 Q1594.36 1462.73 1595.38 1462.73 Q1601.17 1462.73 1604.55 1465.9 Q1607.93 1469.08 1607.93 1474.49 Q1607.93 1480.07 1604.45 1483.17 Q1600.98 1486.25 1594.66 1486.25 Q1592.49 1486.25 1590.22 1485.88 Q1587.97 1485.51 1585.56 1484.77 L1585.56 1480.07 Q1587.65 1481.2 1589.87 1481.76 Q1592.09 1482.32 1594.57 1482.32 Q1598.57 1482.32 1600.91 1480.21 Q1603.25 1478.1 1603.25 1474.49 Q1603.25 1470.88 1600.91 1468.77 Q1598.57 1466.67 1594.57 1466.67 Q1592.69 1466.67 1590.82 1467.08 Q1588.97 1467.5 1587.02 1468.38 L1587.02 1451.02 Z" fill="#000000" fill-rule="nonzero" fill-opacity="1" /><path clip-path="url(#clip180)" d="M1785.83 1481.64 L1793.47 1481.64 L1793.47 1455.28 L1785.16 1456.95 L1785.16 1452.69 L1793.42 1451.02 L1798.1 1451.02 L1798.1 1481.64 L1805.74 1481.64 L1805.74 1485.58 L1785.83 1485.58 L1785.83 1481.64 Z" fill="#000000" fill-rule="nonzero" fill-opacity="1" /><path clip-path="url(#clip180)" d="M1815.23 1451.02 L1833.59 1451.02 L1833.59 1454.96 L1819.51 1454.96 L1819.51 1463.43 Q1820.53 1463.08 1821.55 1462.92 Q1822.57 1462.73 1823.59 1462.73 Q1829.37 1462.73 1832.75 1465.9 Q1836.13 1469.08 1836.13 1474.49 Q1836.13 1480.07 1832.66 1483.17 Q1829.19 1486.25 1822.87 1486.25 Q1820.69 1486.25 1818.42 1485.88 Q1816.18 1485.51 1813.77 1484.77 L1813.77 1480.07 Q1815.85 1481.2 1818.08 1481.76 Q1820.3 1482.32 1822.78 1482.32 Q1826.78 1482.32 1829.12 1480.21 Q1831.46 1478.1 1831.46 1474.49 Q1831.46 1470.88 1829.12 1468.77 Q1826.78 1466.67 1822.78 1466.67 Q1820.9 1466.67 1819.03 1467.08 Q1817.17 1467.5 1815.23 1468.38 L1815.23 1451.02 Z" fill="#000000" fill-rule="nonzero" fill-opacity="1" /><path clip-path="url(#clip180)" d="M1855.34 1454.1 Q1851.73 1454.1 1849.9 1457.66 Q1848.1 1461.2 1848.1 1468.33 Q1848.1 1475.44 1849.9 1479.01 Q1851.73 1482.55 1855.34 1482.55 Q1858.98 1482.55 1860.78 1479.01 Q1862.61 1475.44 1862.61 1468.33 Q1862.61 1461.2 1860.78 1457.66 Q1858.98 1454.1 1855.34 1454.1 M1855.34 1450.39 Q1861.15 1450.39 1864.21 1455 Q1867.29 1459.58 1867.29 1468.33 Q1867.29 1477.06 1864.21 1481.67 Q1861.15 1486.25 1855.34 1486.25 Q1849.53 1486.25 1846.46 1481.67 Q1843.4 1477.06 1843.4 1468.33 Q1843.4 1459.58 1846.46 1455 Q1849.53 1450.39 1855.34 1450.39 Z" fill="#000000" fill-rule="nonzero" fill-opacity="1" /><path clip-path="url(#clip180)" d="M2045.19 1481.64 L2052.83 1481.64 L2052.83 1455.28 L2044.52 1456.95 L2044.52 1452.69 L2052.79 1451.02 L2057.46 1451.02 L2057.46 1481.64 L2065.1 1481.64 L2065.1 1485.58 L2045.19 1485.58 L2045.19 1481.64 Z" fill="#000000" fill-rule="nonzero" fill-opacity="1" /><path clip-path="url(#clip180)" d="M2073.36 1451.02 L2095.59 1451.02 L2095.59 1453.01 L2083.04 1485.58 L2078.16 1485.58 L2089.96 1454.96 L2073.36 1454.96 L2073.36 1451.02 Z" fill="#000000" fill-rule="nonzero" fill-opacity="1" /><path clip-path="url(#clip180)" d="M2104.75 1451.02 L2123.11 1451.02 L2123.11 1454.96 L2109.04 1454.96 L2109.04 1463.43 Q2110.05 1463.08 2111.07 1462.92 Q2112.09 1462.73 2113.11 1462.73 Q2118.9 1462.73 2122.28 1465.9 Q2125.66 1469.08 2125.66 1474.49 Q2125.66 1480.07 2122.18 1483.17 Q2118.71 1486.25 2112.39 1486.25 Q2110.22 1486.25 2107.95 1485.88 Q2105.7 1485.51 2103.3 1484.77 L2103.3 1480.07 Q2105.38 1481.2 2107.6 1481.76 Q2109.82 1482.32 2112.3 1482.32 Q2116.3 1482.32 2118.64 1480.21 Q2120.98 1478.1 2120.98 1474.49 Q2120.98 1470.88 2118.64 1468.77 Q2116.3 1466.67 2112.3 1466.67 Q2110.42 1466.67 2108.55 1467.08 Q2106.7 1467.5 2104.75 1468.38 L2104.75 1451.02 Z" fill="#000000" fill-rule="nonzero" fill-opacity="1" /><path clip-path="url(#clip180)" d="M2307.65 1481.64 L2323.97 1481.64 L2323.97 1485.58 L2302.02 1485.58 L2302.02 1481.64 Q2304.68 1478.89 2309.27 1474.26 Q2313.87 1469.61 2315.05 1468.27 Q2317.3 1465.74 2318.18 1464.01 Q2319.08 1462.25 2319.08 1460.56 Q2319.08 1457.8 2317.14 1456.07 Q2315.22 1454.33 2312.11 1454.33 Q2309.92 1454.33 2307.46 1455.09 Q2305.03 1455.86 2302.25 1457.41 L2302.25 1452.69 Q2305.08 1451.55 2307.53 1450.97 Q2309.98 1450.39 2312.02 1450.39 Q2317.39 1450.39 2320.59 1453.08 Q2323.78 1455.77 2323.78 1460.26 Q2323.78 1462.39 2322.97 1464.31 Q2322.18 1466.2 2320.08 1468.8 Q2319.5 1469.47 2316.4 1472.69 Q2313.29 1475.88 2307.65 1481.64 Z" fill="#000000" fill-rule="nonzero" fill-opacity="1" /><path clip-path="url(#clip180)" d="M2343.78 1454.1 Q2340.17 1454.1 2338.34 1457.66 Q2336.54 1461.2 2336.54 1468.33 Q2336.54 1475.44 2338.34 1479.01 Q2340.17 1482.55 2343.78 1482.55 Q2347.42 1482.55 2349.22 1479.01 Q2351.05 1475.44 2351.05 1468.33 Q2351.05 1461.2 2349.22 1457.66 Q2347.42 1454.1 2343.78 1454.1 M2343.78 1450.39 Q2349.59 1450.39 2352.65 1455 Q2355.73 1459.58 2355.73 1468.33 Q2355.73 1477.06 2352.65 1481.67 Q2349.59 1486.25 2343.78 1486.25 Q2337.97 1486.25 2334.89 1481.67 Q2331.84 1477.06 2331.84 1468.33 Q2331.84 1459.58 2334.89 1455 Q2337.97 1450.39 2343.78 1450.39 Z" fill="#000000" fill-rule="nonzero" fill-opacity="1" /><path clip-path="url(#clip180)" d="M2373.94 1454.1 Q2370.33 1454.1 2368.5 1457.66 Q2366.7 1461.2 2366.7 1468.33 Q2366.7 1475.44 2368.5 1479.01 Q2370.33 1482.55 2373.94 1482.55 Q2377.58 1482.55 2379.38 1479.01 Q2381.21 1475.44 2381.21 1468.33 Q2381.21 1461.2 2379.38 1457.66 Q2377.58 1454.1 2373.94 1454.1 M2373.94 1450.39 Q2379.75 1450.39 2382.81 1455 Q2385.89 1459.58 2385.89 1468.33 Q2385.89 1477.06 2382.81 1481.67 Q2379.75 1486.25 2373.94 1486.25 Q2368.13 1486.25 2365.05 1481.67 Q2362 1477.06 2362 1468.33 Q2362 1459.58 2365.05 1455 Q2368.13 1450.39 2373.94 1450.39 Z" fill="#000000" fill-rule="nonzero" fill-opacity="1" /><path clip-path="url(#clip180)" d="M1187.84 1526.86 L1174.79 1562.7 L1200.92 1562.7 L1187.84 1526.86 M1166.07 1568.04 L1184.21 1520.52 L1191.5 1520.52 L1209.61 1568.04 L1166.07 1568.04 Z" fill="#000000" fill-rule="nonzero" fill-opacity="1" /><path clip-path="url(#clip180)" d="M1222.09 1522.27 L1222.09 1532.4 L1234.15 1532.4 L1234.15 1536.95 L1222.09 1536.95 L1222.09 1556.3 Q1222.09 1560.66 1223.26 1561.9 Q1224.47 1563.14 1228.13 1563.14 L1234.15 1563.14 L1234.15 1568.04 L1228.13 1568.04 Q1221.35 1568.04 1218.78 1565.53 Q1216.2 1562.98 1216.2 1556.3 L1216.2 1536.95 L1211.9 1536.95 L1211.9 1532.4 L1216.2 1532.4 L1216.2 1522.27 L1222.09 1522.27 Z" fill="#000000" fill-rule="nonzero" fill-opacity="1" /><path clip-path="url(#clip180)" d="M1276.64 1518.58 Q1272.37 1525.9 1270.31 1533.06 Q1268.24 1540.23 1268.24 1547.58 Q1268.24 1554.93 1270.31 1562.16 Q1272.41 1569.35 1276.64 1576.64 L1271.55 1576.64 Q1266.77 1569.16 1264.39 1561.93 Q1262.03 1554.71 1262.03 1547.58 Q1262.03 1540.48 1264.39 1533.29 Q1266.74 1526.09 1271.55 1518.58 L1276.64 1518.58 Z" fill="#000000" fill-rule="nonzero" fill-opacity="1" /><path clip-path="url(#clip180)" d="M1315.76 1539.24 Q1317.95 1535.29 1321.01 1533.41 Q1324.06 1531.54 1328.2 1531.54 Q1333.77 1531.54 1336.8 1535.45 Q1339.82 1539.33 1339.82 1546.53 L1339.82 1568.04 L1333.93 1568.04 L1333.93 1546.72 Q1333.93 1541.59 1332.12 1539.11 Q1330.3 1536.63 1326.58 1536.63 Q1322.03 1536.63 1319.39 1539.65 Q1316.74 1542.68 1316.74 1547.9 L1316.74 1568.04 L1310.86 1568.04 L1310.86 1546.72 Q1310.86 1541.56 1309.04 1539.11 Q1307.23 1536.63 1303.44 1536.63 Q1298.95 1536.63 1296.31 1539.68 Q1293.67 1542.71 1293.67 1547.9 L1293.67 1568.04 L1287.78 1568.04 L1287.78 1532.4 L1293.67 1532.4 L1293.67 1537.93 Q1295.67 1534.66 1298.47 1533.1 Q1301.27 1531.54 1305.13 1531.54 Q1309.01 1531.54 1311.71 1533.51 Q1314.45 1535.48 1315.76 1539.24 Z" fill="#000000" fill-rule="nonzero" fill-opacity="1" /><path clip-path="url(#clip180)" d="M1374.23 1533.45 L1374.23 1538.98 Q1371.74 1537.71 1369.07 1537.07 Q1366.4 1536.44 1363.53 1536.44 Q1359.17 1536.44 1356.97 1537.77 Q1354.81 1539.11 1354.81 1541.79 Q1354.81 1543.82 1356.37 1545 Q1357.93 1546.15 1362.64 1547.2 L1364.65 1547.64 Q1370.88 1548.98 1373.49 1551.43 Q1376.14 1553.85 1376.14 1558.21 Q1376.14 1563.17 1372.19 1566.07 Q1368.27 1568.97 1361.4 1568.97 Q1358.53 1568.97 1355.42 1568.39 Q1352.33 1567.85 1348.89 1566.74 L1348.89 1560.69 Q1352.14 1562.38 1355.29 1563.24 Q1358.44 1564.07 1361.53 1564.07 Q1365.66 1564.07 1367.89 1562.66 Q1370.12 1561.23 1370.12 1558.65 Q1370.12 1556.27 1368.5 1554.99 Q1366.91 1553.72 1361.46 1552.54 L1359.43 1552.07 Q1353.98 1550.92 1351.56 1548.56 Q1349.14 1546.18 1349.14 1542.04 Q1349.14 1537.01 1352.71 1534.27 Q1356.27 1531.54 1362.83 1531.54 Q1366.08 1531.54 1368.94 1532.01 Q1371.81 1532.49 1374.23 1533.45 Z" fill="#000000" fill-rule="nonzero" fill-opacity="1" /><path clip-path="url(#clip180)" d="M1384.54 1518.58 L1389.63 1518.58 Q1394.41 1526.09 1396.76 1533.29 Q1399.15 1540.48 1399.15 1547.58 Q1399.15 1554.71 1396.76 1561.93 Q1394.41 1569.16 1389.63 1576.64 L1384.54 1576.64 Q1388.77 1569.35 1390.84 1562.16 Q1392.94 1554.93 1392.94 1547.58 Q1392.94 1540.23 1390.84 1533.06 Q1388.77 1525.9 1384.54 1518.58 Z" fill="#000000" fill-rule="nonzero" fill-opacity="1" /><polyline clip-path="url(#clip180)" style="stroke:#000000; stroke-linecap:round; stroke-linejoin:round; stroke-width:4; stroke-opacity:1; fill:none" points="212.459,1423.18 212.459,47.2441 "/>
<polyline clip-path="url(#clip180)" style="stroke:#000000; stroke-linecap:round; stroke-linejoin:round; stroke-width:4; stroke-opacity:1; fill:none" points="212.459,1406.26 231.357,1406.26 "/>
<polyline clip-path="url(#clip180)" style="stroke:#000000; stroke-linecap:round; stroke-linejoin:round; stroke-width:4; stroke-opacity:1; fill:none" points="212.459,1148.02 231.357,1148.02 "/>
<polyline clip-path="url(#clip180)" style="stroke:#000000; stroke-linecap:round; stroke-linejoin:round; stroke-width:4; stroke-opacity:1; fill:none" points="212.459,889.78 231.357,889.78 "/>
<polyline clip-path="url(#clip180)" style="stroke:#000000; stroke-linecap:round; stroke-linejoin:round; stroke-width:4; stroke-opacity:1; fill:none" points="212.459,631.54 231.357,631.54 "/>
<polyline clip-path="url(#clip180)" style="stroke:#000000; stroke-linecap:round; stroke-linejoin:round; stroke-width:4; stroke-opacity:1; fill:none" points="212.459,373.301 231.357,373.301 "/>
<polyline clip-path="url(#clip180)" style="stroke:#000000; stroke-linecap:round; stroke-linejoin:round; stroke-width:4; stroke-opacity:1; fill:none" points="212.459,115.061 231.357,115.061 "/>
<path clip-path="url(#clip180)" d="M115.742 1406.71 L145.417 1406.71 L145.417 1410.65 L115.742 1410.65 L115.742 1406.71 Z" fill="#000000" fill-rule="nonzero" fill-opacity="1" /><path clip-path="url(#clip180)" d="M155.556 1388.98 L173.913 1388.98 L173.913 1392.91 L159.839 1392.91 L159.839 1401.39 Q160.857 1401.04 161.876 1400.88 Q162.894 1400.69 163.913 1400.69 Q169.7 1400.69 173.079 1403.86 Q176.459 1407.03 176.459 1412.45 Q176.459 1418.03 172.987 1421.13 Q169.514 1424.21 163.195 1424.21 Q161.019 1424.21 158.751 1423.84 Q156.505 1423.47 154.098 1422.73 L154.098 1418.03 Q156.181 1419.16 158.403 1419.72 Q160.626 1420.27 163.102 1420.27 Q167.107 1420.27 169.445 1418.17 Q171.783 1416.06 171.783 1412.45 Q171.783 1408.84 169.445 1406.73 Q167.107 1404.63 163.102 1404.63 Q161.227 1404.63 159.353 1405.04 Q157.501 1405.46 155.556 1406.34 L155.556 1388.98 Z" fill="#000000" fill-rule="nonzero" fill-opacity="1" /><path clip-path="url(#clip180)" d="M114.26 1148.47 L143.936 1148.47 L143.936 1152.41 L114.26 1152.41 L114.26 1148.47 Z" fill="#000000" fill-rule="nonzero" fill-opacity="1" /><path clip-path="url(#clip180)" d="M166.876 1134.81 L155.07 1153.26 L166.876 1153.26 L166.876 1134.81 M165.649 1130.74 L171.528 1130.74 L171.528 1153.26 L176.459 1153.26 L176.459 1157.15 L171.528 1157.15 L171.528 1165.3 L166.876 1165.3 L166.876 1157.15 L151.274 1157.15 L151.274 1152.64 L165.649 1130.74 Z" fill="#000000" fill-rule="nonzero" fill-opacity="1" /><path clip-path="url(#clip180)" d="M115.394 890.231 L145.07 890.231 L145.07 894.166 L115.394 894.166 L115.394 890.231 Z" fill="#000000" fill-rule="nonzero" fill-opacity="1" /><path clip-path="url(#clip180)" d="M169.329 888.426 Q172.686 889.143 174.561 891.412 Q176.459 893.68 176.459 897.013 Q176.459 902.129 172.94 904.93 Q169.422 907.731 162.94 907.731 Q160.765 907.731 158.45 907.291 Q156.158 906.875 153.704 906.018 L153.704 901.504 Q155.649 902.638 157.964 903.217 Q160.278 903.796 162.802 903.796 Q167.2 903.796 169.491 902.06 Q171.806 900.324 171.806 897.013 Q171.806 893.958 169.653 892.245 Q167.524 890.509 163.704 890.509 L159.677 890.509 L159.677 886.666 L163.89 886.666 Q167.339 886.666 169.167 885.301 Q170.996 883.912 170.996 881.319 Q170.996 878.657 169.098 877.245 Q167.223 875.81 163.704 875.81 Q161.783 875.81 159.584 876.227 Q157.385 876.643 154.746 877.523 L154.746 873.356 Q157.408 872.615 159.723 872.245 Q162.061 871.875 164.121 871.875 Q169.445 871.875 172.547 874.305 Q175.649 876.713 175.649 880.833 Q175.649 883.703 174.005 885.694 Q172.362 887.662 169.329 888.426 Z" fill="#000000" fill-rule="nonzero" fill-opacity="1" /><path clip-path="url(#clip180)" d="M116.343 631.992 L146.019 631.992 L146.019 635.927 L116.343 635.927 L116.343 631.992 Z" fill="#000000" fill-rule="nonzero" fill-opacity="1" /><path clip-path="url(#clip180)" d="M160.14 644.885 L176.459 644.885 L176.459 648.82 L154.515 648.82 L154.515 644.885 Q157.177 642.13 161.76 637.501 Q166.366 632.848 167.547 631.506 Q169.792 628.982 170.672 627.246 Q171.575 625.487 171.575 623.797 Q171.575 621.043 169.63 619.307 Q167.709 617.57 164.607 617.57 Q162.408 617.57 159.954 618.334 Q157.524 619.098 154.746 620.649 L154.746 615.927 Q157.57 614.793 160.024 614.214 Q162.477 613.635 164.515 613.635 Q169.885 613.635 173.079 616.32 Q176.274 619.006 176.274 623.496 Q176.274 625.626 175.464 627.547 Q174.677 629.445 172.57 632.038 Q171.991 632.709 168.889 635.927 Q165.788 639.121 160.14 644.885 Z" fill="#000000" fill-rule="nonzero" fill-opacity="1" /><path clip-path="url(#clip180)" d="M115.973 373.752 L145.649 373.752 L145.649 377.687 L115.973 377.687 L115.973 373.752 Z" fill="#000000" fill-rule="nonzero" fill-opacity="1" /><path clip-path="url(#clip180)" d="M156.552 386.646 L164.19 386.646 L164.19 360.28 L155.88 361.947 L155.88 357.687 L164.144 356.021 L168.82 356.021 L168.82 386.646 L176.459 386.646 L176.459 390.581 L156.552 390.581 L156.552 386.646 Z" fill="#000000" fill-rule="nonzero" fill-opacity="1" /><path clip-path="url(#clip180)" d="M164.515 100.86 Q160.903 100.86 159.075 104.425 Q157.269 107.966 157.269 115.096 Q157.269 122.202 159.075 125.767 Q160.903 129.309 164.515 129.309 Q168.149 129.309 169.954 125.767 Q171.783 122.202 171.783 115.096 Q171.783 107.966 169.954 104.425 Q168.149 100.86 164.515 100.86 M164.515 97.1563 Q170.325 97.1563 173.38 101.763 Q176.459 106.346 176.459 115.096 Q176.459 123.823 173.38 128.429 Q170.325 133.013 164.515 133.013 Q158.704 133.013 155.626 128.429 Q152.57 123.823 152.57 115.096 Q152.57 106.346 155.626 101.763 Q158.704 97.1563 164.515 97.1563 Z" fill="#000000" fill-rule="nonzero" fill-opacity="1" /><path clip-path="url(#clip180)" d="M16.4842 871.04 L16.4842 864.611 L58.5933 864.611 L58.5933 841.472 L64.0042 841.472 L64.0042 871.04 L16.4842 871.04 Z" fill="#000000" fill-rule="nonzero" fill-opacity="1" /><path clip-path="url(#clip180)" d="M32.4621 822.311 Q32.4621 827.021 36.1542 829.759 Q39.8145 832.496 46.212 832.496 Q52.6095 832.496 56.3017 829.79 Q59.9619 827.053 59.9619 822.311 Q59.9619 817.632 56.2698 814.895 Q52.5777 812.157 46.212 812.157 Q39.8781 812.157 36.186 814.895 Q32.4621 817.632 32.4621 822.311 M27.4968 822.311 Q27.4968 814.672 32.4621 810.311 Q37.4273 805.951 46.212 805.951 Q54.9649 805.951 59.9619 810.311 Q64.9272 814.672 64.9272 822.311 Q64.9272 829.981 59.9619 834.342 Q54.9649 838.671 46.212 838.671 Q37.4273 838.671 32.4621 834.342 Q27.4968 829.981 27.4968 822.311 Z" fill="#000000" fill-rule="nonzero" fill-opacity="1" /><path clip-path="url(#clip180)" d="M45.7664 772.786 Q39.4007 772.786 35.8996 775.427 Q32.3984 778.037 32.3984 782.78 Q32.3984 787.49 35.8996 790.132 Q39.4007 792.742 45.7664 792.742 Q52.1003 792.742 55.6014 790.132 Q59.1026 787.49 59.1026 782.78 Q59.1026 778.037 55.6014 775.427 Q52.1003 772.786 45.7664 772.786 M59.58 766.929 Q68.683 766.929 73.1071 770.971 Q77.5631 775.014 77.5631 783.353 Q77.5631 786.44 77.0857 789.177 Q76.6401 791.915 75.6852 794.493 L69.9879 794.493 Q71.3884 791.915 72.0568 789.4 Q72.7252 786.886 72.7252 784.276 Q72.7252 778.515 69.7015 775.65 Q66.7096 772.786 60.6303 772.786 L57.7339 772.786 Q60.885 774.6 62.4446 777.433 Q64.0042 780.265 64.0042 784.212 Q64.0042 790.769 59.0071 794.779 Q54.01 798.789 45.7664 798.789 Q37.491 798.789 32.4939 794.779 Q27.4968 790.769 27.4968 784.212 Q27.4968 780.265 29.0564 777.433 Q30.616 774.6 33.7671 772.786 L28.3562 772.786 L28.3562 766.929 L59.58 766.929 Z" fill="#000000" fill-rule="nonzero" fill-opacity="1" /><path clip-path="url(#clip180)" d="M33.7671 710.688 L14.479 710.688 L14.479 704.832 L64.0042 704.832 L64.0042 710.688 L58.657 710.688 Q61.8398 712.534 63.3994 715.367 Q64.9272 718.168 64.9272 722.115 Q64.9272 728.576 59.771 732.65 Q54.6147 736.692 46.212 736.692 Q37.8093 736.692 32.6531 732.65 Q27.4968 728.576 27.4968 722.115 Q27.4968 718.168 29.0564 715.367 Q30.5842 712.534 33.7671 710.688 M46.212 730.645 Q52.6732 730.645 56.3653 728.003 Q60.0256 725.329 60.0256 720.682 Q60.0256 716.035 56.3653 713.362 Q52.6732 710.688 46.212 710.688 Q39.7508 710.688 36.0905 713.362 Q32.3984 716.035 32.3984 720.682 Q32.3984 725.329 36.0905 728.003 Q39.7508 730.645 46.212 730.645 Z" fill="#000000" fill-rule="nonzero" fill-opacity="1" /><path clip-path="url(#clip180)" d="M46.0847 676.568 Q46.0847 683.666 47.7079 686.403 Q49.3312 689.14 53.2461 689.14 Q56.3653 689.14 58.2114 687.103 Q60.0256 685.034 60.0256 681.501 Q60.0256 676.632 56.5881 673.703 Q53.1188 670.743 47.3897 670.743 L46.0847 670.743 L46.0847 676.568 M43.6657 664.887 L64.0042 664.887 L64.0042 670.743 L58.5933 670.743 Q61.8398 672.748 63.3994 675.74 Q64.9272 678.732 64.9272 683.061 Q64.9272 688.535 61.8716 691.782 Q58.7843 694.997 53.6281 694.997 Q47.6125 694.997 44.5569 690.986 Q41.5014 686.944 41.5014 678.955 L41.5014 670.743 L40.9285 670.743 Q36.8862 670.743 34.6901 673.417 Q32.4621 676.059 32.4621 680.865 Q32.4621 683.92 33.1941 686.817 Q33.9262 689.713 35.3903 692.387 L29.9795 692.387 Q28.7381 689.172 28.1334 686.148 Q27.4968 683.125 27.4968 680.26 Q27.4968 672.526 31.5072 668.706 Q35.5176 664.887 43.6657 664.887 Z" fill="#000000" fill-rule="nonzero" fill-opacity="1" /><path clip-path="url(#clip180)" d="M18.2347 647.031 L28.3562 647.031 L28.3562 634.968 L32.9077 634.968 L32.9077 647.031 L52.2594 647.031 Q56.6199 647.031 57.8613 645.853 Q59.1026 644.644 59.1026 640.984 L59.1026 634.968 L64.0042 634.968 L64.0042 640.984 Q64.0042 647.763 61.4897 650.341 Q58.9434 652.919 52.2594 652.919 L32.9077 652.919 L32.9077 657.216 L28.3562 657.216 L28.3562 652.919 L18.2347 652.919 L18.2347 647.031 Z" fill="#000000" fill-rule="nonzero" fill-opacity="1" /><path clip-path="url(#clip180)" d="M46.0847 611.065 Q46.0847 618.163 47.7079 620.9 Q49.3312 623.637 53.2461 623.637 Q56.3653 623.637 58.2114 621.6 Q60.0256 619.531 60.0256 615.998 Q60.0256 611.128 56.5881 608.2 Q53.1188 605.24 47.3897 605.24 L46.0847 605.24 L46.0847 611.065 M43.6657 599.384 L64.0042 599.384 L64.0042 605.24 L58.5933 605.24 Q61.8398 607.245 63.3994 610.237 Q64.9272 613.229 64.9272 617.558 Q64.9272 623.032 61.8716 626.279 Q58.7843 629.493 53.6281 629.493 Q47.6125 629.493 44.5569 625.483 Q41.5014 621.441 41.5014 613.452 L41.5014 605.24 L40.9285 605.24 Q36.8862 605.24 34.6901 607.914 Q32.4621 610.556 32.4621 615.362 Q32.4621 618.417 33.1941 621.314 Q33.9262 624.21 35.3903 626.884 L29.9795 626.884 Q28.7381 623.669 28.1334 620.645 Q27.4968 617.621 27.4968 614.757 Q27.4968 607.023 31.5072 603.203 Q35.5176 599.384 43.6657 599.384 Z" fill="#000000" fill-rule="nonzero" fill-opacity="1" /><polyline clip-path="url(#clip181)" style="stroke:#d3d3d3; stroke-linecap:round; stroke-linejoin:round; stroke-width:8; stroke-opacity:1; fill:none" points="221.26,89.2374 231.615,94.4022 241.97,99.5669 252.324,104.732 262.679,109.897 273.033,115.061 283.388,120.226 293.743,125.391 304.097,130.556 314.452,135.72 324.806,140.885 335.161,146.05 345.516,151.215 355.87,156.38 366.225,161.544 376.579,166.709 386.934,171.874 397.289,177.039 407.643,182.204 417.998,187.368 428.352,192.533 438.707,197.698 449.062,202.863 459.416,208.028 469.771,213.192 480.125,218.357 490.48,223.522 500.835,228.687 511.189,233.851 521.544,239.016 531.898,244.181 542.253,249.346 552.608,254.511 562.962,259.675 573.317,264.84 583.672,270.005 594.026,275.17 604.381,280.335 614.735,285.499 625.09,290.664 635.445,295.829 645.799,300.994 656.154,306.159 666.508,311.323 676.863,316.488 687.218,321.653 697.572,326.818 707.927,331.982 718.281,337.147 728.636,342.312 738.991,347.477 749.345,352.642 759.7,357.806 770.054,362.971 780.409,368.136 790.764,373.301 801.118,378.466 811.473,383.63 821.827,388.795 832.182,393.96 842.537,399.125 852.891,404.29 863.246,409.454 873.6,414.619 883.955,419.784 894.31,424.949 904.664,430.113 915.019,435.278 925.374,440.443 935.728,445.608 946.083,450.773 956.437,455.937 966.792,461.102 977.147,466.267 987.501,471.432 997.856,476.597 1008.21,481.761 1018.56,486.926 1028.92,492.091 1039.27,497.256 1049.63,502.421 1059.98,507.585 1070.34,512.75 1080.69,517.915 1091.05,523.08 1101.4,528.244 1111.76,533.409 1122.11,538.574 1132.47,543.739 1142.82,548.904 1153.17,554.068 1163.53,559.233 1173.88,564.398 1184.24,569.563 1194.59,574.728 1204.95,579.892 1215.3,585.057 1225.66,590.222 1236.01,595.387 1246.37,600.552 1256.72,605.716 1267.08,610.881 1277.43,616.046 1287.78,621.211 1298.14,626.375 1308.49,631.54 1318.85,636.705 1329.2,641.87 1339.56,647.035 1349.91,652.199 1360.27,657.364 1370.62,662.529 1380.98,667.694 1391.33,672.859 1401.69,678.023 1412.04,683.188 1422.39,688.353 1432.75,693.518 1443.1,698.683 1453.46,703.847 1463.81,709.012 1474.17,714.177 1484.52,719.342 1494.88,724.506 1505.23,729.671 1515.59,734.836 1525.94,740.001 1536.3,745.166 1546.65,750.33 1557,755.495 1567.36,760.66 1577.71,765.825 1588.07,770.99 1598.42,776.154 1608.78,781.319 1619.13,786.484 1629.49,791.649 1639.84,796.814 1650.2,801.978 1660.55,807.143 1670.91,812.308 1681.26,817.473 1691.61,822.638 1701.97,827.802 1712.32,832.967 1722.68,838.132 1733.03,843.297 1743.39,848.461 1753.74,853.626 1764.1,858.791 1774.45,863.956 1784.81,869.121 1795.16,874.285 1805.51,879.45 1815.87,884.615 1826.22,889.78 1836.58,894.945 1846.93,900.109 1857.29,905.274 1867.64,910.439 1878,915.604 1888.35,920.769 1898.71,925.933 1909.06,931.098 1919.42,936.263 1929.77,941.428 1940.12,946.592 1950.48,951.757 1960.83,956.922 1971.19,962.087 1981.54,967.252 1991.9,972.416 2002.25,977.581 2012.61,982.746 2022.96,987.911 2033.32,993.076 2043.67,998.24 2054.03,1003.41 2064.38,1008.57 2074.73,1013.73 2085.09,1018.9 2095.44,1024.06 2105.8,1029.23 2116.15,1034.39 2126.51,1039.56 2136.86,1044.72 2147.22,1049.89 2157.57,1055.05 2167.93,1060.22 2178.28,1065.38 2188.64,1070.55 2198.99,1075.71 2209.34,1080.88 2219.7,1086.04 2230.05,1091.21 2240.41,1096.37 2250.76,1101.54 2261.12,1106.7 2271.47,1111.87 2281.83,1117.03 2292.18,1122.2 "/>
<circle clip-path="url(#clip181)" cx="273.033" cy="115.061" r="14.4" fill="#000000" fill-rule="evenodd" fill-opacity="1" stroke="none"/>
<circle clip-path="url(#clip181)" cx="531.898" cy="244.181" r="14.4" fill="#000000" fill-rule="evenodd" fill-opacity="1" stroke="none"/>
<circle clip-path="url(#clip181)" cx="790.764" cy="373.301" r="14.4" fill="#000000" fill-rule="evenodd" fill-opacity="1" stroke="none"/>
<circle clip-path="url(#clip181)" cx="1049.63" cy="502.42" r="14.4" fill="#000000" fill-rule="evenodd" fill-opacity="1" stroke="none"/>
<circle clip-path="url(#clip181)" cx="1308.49" cy="631.54" r="14.4" fill="#000000" fill-rule="evenodd" fill-opacity="1" stroke="none"/>
<circle clip-path="url(#clip181)" cx="1567.36" cy="760.66" r="14.4" fill="#000000" fill-rule="evenodd" fill-opacity="1" stroke="none"/>
<circle clip-path="url(#clip181)" cx="1826.22" cy="889.78" r="14.4" fill="#000000" fill-rule="evenodd" fill-opacity="1" stroke="none"/>
<circle clip-path="url(#clip181)" cx="2085.09" cy="1018.9" r="14.4" fill="#000000" fill-rule="evenodd" fill-opacity="1" stroke="none"/>
<circle clip-path="url(#clip181)" cx="273.033" cy="115.061" r="14.4" fill="#ff0000" fill-rule="evenodd" fill-opacity="1" stroke="none"/>
<circle clip-path="url(#clip181)" cx="531.898" cy="253.421" r="14.4" fill="#ff0000" fill-rule="evenodd" fill-opacity="1" stroke="none"/>
<circle clip-path="url(#clip181)" cx="790.764" cy="381.612" r="14.4" fill="#ff0000" fill-rule="evenodd" fill-opacity="1" stroke="none"/>
<circle clip-path="url(#clip181)" cx="1049.63" cy="483.106" r="14.4" fill="#ff0000" fill-rule="evenodd" fill-opacity="1" stroke="none"/>
<circle clip-path="url(#clip181)" cx="1308.49" cy="647.104" r="14.4" fill="#ff0000" fill-rule="evenodd" fill-opacity="1" stroke="none"/>
<circle clip-path="url(#clip181)" cx="1567.36" cy="673.73" r="14.4" fill="#ff0000" fill-rule="evenodd" fill-opacity="1" stroke="none"/>
<circle clip-path="url(#clip181)" cx="1826.22" cy="886.99" r="14.4" fill="#ff0000" fill-rule="evenodd" fill-opacity="1" stroke="none"/>
<circle clip-path="url(#clip181)" cx="2085.09" cy="1384.24" r="14.4" fill="#ff0000" fill-rule="evenodd" fill-opacity="1" stroke="none"/>
<polyline clip-path="url(#clip181)" style="stroke:#c271d2; stroke-linecap:round; stroke-linejoin:round; stroke-width:8; stroke-opacity:1; fill:none" points="221.26,86.1857 231.615,91.9608 241.97,97.7359 252.324,103.511 262.679,109.286 273.033,115.061 283.388,120.836 293.743,126.612 304.097,132.387 314.452,138.162 324.806,143.937 335.161,149.712 345.516,155.487 355.87,161.262 366.225,167.037 376.579,172.812 386.934,178.588 397.289,184.363 407.643,190.138 417.998,195.913 428.352,201.688 438.707,207.463 449.062,213.238 459.416,219.013 469.771,224.789 480.125,230.564 490.48,236.339 500.835,242.114 511.189,247.889 521.544,253.664 531.898,259.439 542.253,265.214 552.608,270.99 562.962,276.765 573.317,282.54 583.672,288.315 594.026,294.09 604.381,299.865 614.735,305.64 625.09,311.415 635.445,317.19 645.799,322.966 656.154,328.741 666.508,334.516 676.863,340.291 687.218,346.066 697.572,351.841 707.927,357.616 718.281,363.391 728.636,369.167 738.991,374.942 749.345,380.717 759.7,386.492 770.054,392.267 780.409,398.042 790.764,403.817 801.118,409.592 811.473,415.368 821.827,421.143 832.182,426.918 842.537,432.693 852.891,438.468 863.246,444.243 873.6,450.018 883.955,455.793 894.31,461.568 904.664,467.344 915.019,473.119 925.374,478.894 935.728,484.669 946.083,490.444 956.437,496.219 966.792,501.994 977.147,507.769 987.501,513.545 997.856,519.32 1008.21,525.095 1018.56,530.87 1028.92,536.645 1039.27,542.42 1049.63,548.195 1059.98,553.97 1070.34,559.746 1080.69,565.521 1091.05,571.296 1101.4,577.071 1111.76,582.846 1122.11,588.621 1132.47,594.396 1142.82,600.171 1153.17,605.946 1163.53,611.722 1173.88,617.497 1184.24,623.272 1194.59,629.047 1204.95,634.822 1215.3,640.597 1225.66,646.372 1236.01,652.147 1246.37,657.923 1256.72,663.698 1267.08,669.473 1277.43,675.248 1287.78,681.023 1298.14,686.798 1308.49,692.573 1318.85,698.348 1329.2,704.124 1339.56,709.899 1349.91,715.674 1360.27,721.449 1370.62,727.224 1380.98,732.999 1391.33,738.774 1401.69,744.549 1412.04,750.324 1422.39,756.1 1432.75,761.875 1443.1,767.65 1453.46,773.425 1463.81,779.2 1474.17,784.975 1484.52,790.75 1494.88,796.525 1505.23,802.301 1515.59,808.076 1525.94,813.851 1536.3,819.626 1546.65,825.401 1557,831.176 1567.36,836.951 1577.71,842.726 1588.07,848.502 1598.42,854.277 1608.78,860.052 1619.13,865.827 1629.49,871.602 1639.84,877.377 1650.2,883.152 1660.55,888.927 1670.91,894.702 1681.26,900.478 1691.61,906.253 1701.97,912.028 1712.32,917.803 1722.68,923.578 1733.03,929.353 1743.39,935.128 1753.74,940.903 1764.1,946.679 1774.45,952.454 1784.81,958.229 1795.16,964.004 1805.51,969.779 1815.87,975.554 1826.22,981.329 1836.58,987.104 1846.93,992.88 1857.29,998.655 1867.64,1004.43 1878,1010.2 1888.35,1015.98 1898.71,1021.76 1909.06,1027.53 1919.42,1033.31 1929.77,1039.08 1940.12,1044.86 1950.48,1050.63 1960.83,1056.41 1971.19,1062.18 1981.54,1067.96 1991.9,1073.73 2002.25,1079.51 2012.61,1085.28 2022.96,1091.06 2033.32,1096.83 2043.67,1102.61 2054.03,1108.38 2064.38,1114.16 2074.73,1119.93 2085.09,1125.71 2095.44,1131.48 2105.8,1137.26 2116.15,1143.03 2126.51,1148.81 2136.86,1154.58 2147.22,1160.36 2157.57,1166.13 2167.93,1171.91 2178.28,1177.68 2188.64,1183.46 2198.99,1189.23 2209.34,1195.01 2219.7,1200.78 2230.05,1206.56 2240.41,1212.33 2250.76,1218.11 2261.12,1223.88 2271.47,1229.66 2281.83,1235.43 2292.18,1241.21 "/>
<path clip-path="url(#clip180)" d="M1431.95 300.469 L2281.41 300.469 L2281.41 93.1086 L1431.95 93.1086  Z" fill="#ffffff" fill-rule="evenodd" fill-opacity="1"/>
<polyline clip-path="url(#clip180)" style="stroke:#000000; stroke-linecap:round; stroke-linejoin:round; stroke-width:4; stroke-opacity:1; fill:none" points="1431.95,300.469 2281.41,300.469 2281.41,93.1086 1431.95,93.1086 1431.95,300.469 "/>
<circle clip-path="url(#clip180)" cx="1527.07" cy="144.949" r="20.48" fill="#000000" fill-rule="evenodd" fill-opacity="1" stroke="none"/>
<path clip-path="url(#clip180)" d="M1622.2 127.669 L1651.43 127.669 L1651.43 131.604 L1639.16 131.604 L1639.16 162.229 L1634.46 162.229 L1634.46 131.604 L1622.2 131.604 L1622.2 127.669 Z" fill="#000000" fill-rule="nonzero" fill-opacity="1" /><path clip-path="url(#clip180)" d="M1663.82 140.284 Q1663.1 139.868 1662.24 139.682 Q1661.41 139.474 1660.39 139.474 Q1656.78 139.474 1654.83 141.835 Q1652.91 144.173 1652.91 148.571 L1652.91 162.229 L1648.63 162.229 L1648.63 136.303 L1652.91 136.303 L1652.91 140.331 Q1654.26 137.969 1656.41 136.835 Q1658.56 135.678 1661.64 135.678 Q1662.08 135.678 1662.61 135.747 Q1663.14 135.794 1663.79 135.909 L1663.82 140.284 Z" fill="#000000" fill-rule="nonzero" fill-opacity="1" /><path clip-path="url(#clip180)" d="M1667.84 151.997 L1667.84 136.303 L1672.1 136.303 L1672.1 151.835 Q1672.1 155.516 1673.54 157.368 Q1674.97 159.196 1677.84 159.196 Q1681.29 159.196 1683.28 156.997 Q1685.3 154.798 1685.3 151.002 L1685.3 136.303 L1689.56 136.303 L1689.56 162.229 L1685.3 162.229 L1685.3 158.247 Q1683.75 160.608 1681.69 161.766 Q1679.65 162.9 1676.94 162.9 Q1672.47 162.9 1670.16 160.122 Q1667.84 157.344 1667.84 151.997 M1678.56 135.678 L1678.56 135.678 Z" fill="#000000" fill-rule="nonzero" fill-opacity="1" /><path clip-path="url(#clip180)" d="M1720.5 148.201 L1720.5 150.284 L1700.92 150.284 Q1701.2 154.682 1703.56 156.997 Q1705.94 159.289 1710.18 159.289 Q1712.63 159.289 1714.93 158.687 Q1717.24 158.085 1719.51 156.881 L1719.51 160.909 Q1717.22 161.881 1714.81 162.391 Q1712.4 162.9 1709.93 162.9 Q1703.72 162.9 1700.09 159.289 Q1696.48 155.678 1696.48 149.52 Q1696.48 143.155 1699.9 139.428 Q1703.35 135.678 1709.19 135.678 Q1714.42 135.678 1717.45 139.057 Q1720.5 142.414 1720.5 148.201 M1716.25 146.951 Q1716.2 143.456 1714.28 141.372 Q1712.38 139.289 1709.23 139.289 Q1705.67 139.289 1703.51 141.303 Q1701.38 143.317 1701.06 146.974 L1716.25 146.951 Z" fill="#000000" fill-rule="nonzero" fill-opacity="1" /><path clip-path="url(#clip180)" d="M1755.69 126.21 L1755.69 129.752 L1751.62 129.752 Q1749.32 129.752 1748.42 130.678 Q1747.54 131.604 1747.54 134.011 L1747.54 136.303 L1754.56 136.303 L1754.56 139.613 L1747.54 139.613 L1747.54 162.229 L1743.26 162.229 L1743.26 139.613 L1739.19 139.613 L1739.19 136.303 L1743.26 136.303 L1743.26 134.497 Q1743.26 130.169 1745.27 128.201 Q1747.29 126.21 1751.66 126.21 L1755.69 126.21 Z" fill="#000000" fill-rule="nonzero" fill-opacity="1" /><path clip-path="url(#clip180)" d="M1769.3 139.289 Q1765.87 139.289 1763.88 141.974 Q1761.89 144.636 1761.89 149.289 Q1761.89 153.942 1763.86 156.627 Q1765.85 159.289 1769.3 159.289 Q1772.7 159.289 1774.69 156.604 Q1776.69 153.918 1776.69 149.289 Q1776.69 144.682 1774.69 141.997 Q1772.7 139.289 1769.3 139.289 M1769.3 135.678 Q1774.86 135.678 1778.03 139.289 Q1781.2 142.9 1781.2 149.289 Q1781.2 155.655 1778.03 159.289 Q1774.86 162.9 1769.3 162.9 Q1763.72 162.9 1760.55 159.289 Q1757.4 155.655 1757.4 149.289 Q1757.4 142.9 1760.55 139.289 Q1763.72 135.678 1769.3 135.678 Z" fill="#000000" fill-rule="nonzero" fill-opacity="1" /><path clip-path="url(#clip180)" d="M1803.28 140.284 Q1802.56 139.868 1801.71 139.682 Q1800.87 139.474 1799.86 139.474 Q1796.25 139.474 1794.3 141.835 Q1792.38 144.173 1792.38 148.571 L1792.38 162.229 L1788.1 162.229 L1788.1 136.303 L1792.38 136.303 L1792.38 140.331 Q1793.72 137.969 1795.87 136.835 Q1798.03 135.678 1801.11 135.678 Q1801.55 135.678 1802.08 135.747 Q1802.61 135.794 1803.26 135.909 L1803.28 140.284 Z" fill="#000000" fill-rule="nonzero" fill-opacity="1" /><path clip-path="url(#clip180)" d="M1839.39 146.025 Q1840.9 146.534 1842.31 148.201 Q1843.74 149.868 1845.18 152.784 L1849.93 162.229 L1844.9 162.229 L1840.48 153.363 Q1838.77 149.891 1837.15 148.756 Q1835.55 147.622 1832.77 147.622 L1827.68 147.622 L1827.68 162.229 L1823 162.229 L1823 127.669 L1833.56 127.669 Q1839.49 127.669 1842.4 130.145 Q1845.32 132.622 1845.32 137.622 Q1845.32 140.886 1843.79 143.039 Q1842.29 145.192 1839.39 146.025 M1827.68 131.511 L1827.68 143.78 L1833.56 143.78 Q1836.94 143.78 1838.65 142.229 Q1840.39 140.655 1840.39 137.622 Q1840.39 134.59 1838.65 133.062 Q1836.94 131.511 1833.56 131.511 L1827.68 131.511 Z" fill="#000000" fill-rule="nonzero" fill-opacity="1" /><path clip-path="url(#clip180)" d="M1857.17 158.293 L1864.81 158.293 L1864.81 131.928 L1856.5 133.595 L1856.5 129.335 L1864.76 127.669 L1869.44 127.669 L1869.44 158.293 L1877.08 158.293 L1877.08 162.229 L1857.17 162.229 L1857.17 158.293 Z" fill="#000000" fill-rule="nonzero" fill-opacity="1" /><path clip-path="url(#clip180)" d="M1886.48 140.701 L1916.15 140.701 L1916.15 144.59 L1886.48 144.59 L1886.48 140.701 M1886.48 150.145 L1916.15 150.145 L1916.15 154.081 L1886.48 154.081 L1886.48 150.145 Z" fill="#000000" fill-rule="nonzero" fill-opacity="1" /><path clip-path="url(#clip180)" d="M1930.27 158.293 L1946.59 158.293 L1946.59 162.229 L1924.65 162.229 L1924.65 158.293 Q1927.31 155.539 1931.89 150.909 Q1936.5 146.256 1937.68 144.914 Q1939.92 142.391 1940.8 140.655 Q1941.71 138.895 1941.71 137.206 Q1941.71 134.451 1939.76 132.715 Q1937.84 130.979 1934.74 130.979 Q1932.54 130.979 1930.09 131.743 Q1927.66 132.507 1924.88 134.057 L1924.88 129.335 Q1927.7 128.201 1930.16 127.622 Q1932.61 127.044 1934.65 127.044 Q1940.02 127.044 1943.21 129.729 Q1946.41 132.414 1946.41 136.905 Q1946.41 139.034 1945.6 140.956 Q1944.81 142.854 1942.7 145.446 Q1942.12 146.118 1939.02 149.335 Q1935.92 152.53 1930.27 158.293 Z" fill="#000000" fill-rule="nonzero" fill-opacity="1" /><path clip-path="url(#clip180)" d="M1966.41 130.747 Q1962.8 130.747 1960.97 134.312 Q1959.16 137.854 1959.16 144.983 Q1959.16 152.09 1960.97 155.655 Q1962.8 159.196 1966.41 159.196 Q1970.04 159.196 1971.85 155.655 Q1973.67 152.09 1973.67 144.983 Q1973.67 137.854 1971.85 134.312 Q1970.04 130.747 1966.41 130.747 M1966.41 127.044 Q1972.22 127.044 1975.27 131.65 Q1978.35 136.233 1978.35 144.983 Q1978.35 153.71 1975.27 158.317 Q1972.22 162.9 1966.41 162.9 Q1960.6 162.9 1957.52 158.317 Q1954.46 153.71 1954.46 144.983 Q1954.46 136.233 1957.52 131.65 Q1960.6 127.044 1966.41 127.044 Z" fill="#000000" fill-rule="nonzero" fill-opacity="1" /><path clip-path="url(#clip180)" d="M2017.56 137.067 L2017.56 141.094 Q2015.76 140.169 2013.81 139.706 Q2011.87 139.243 2009.79 139.243 Q2006.61 139.243 2005.02 140.215 Q2003.44 141.187 2003.44 143.131 Q2003.44 144.613 2004.58 145.469 Q2005.71 146.303 2009.14 147.067 L2010.6 147.391 Q2015.13 148.363 2017.03 150.145 Q2018.95 151.905 2018.95 155.076 Q2018.95 158.687 2016.08 160.793 Q2013.23 162.9 2008.23 162.9 Q2006.15 162.9 2003.88 162.483 Q2001.64 162.09 1999.14 161.28 L1999.14 156.881 Q2001.5 158.108 2003.79 158.733 Q2006.08 159.335 2008.33 159.335 Q2011.34 159.335 2012.96 158.317 Q2014.58 157.275 2014.58 155.4 Q2014.58 153.664 2013.4 152.738 Q2012.24 151.812 2008.28 150.956 L2006.8 150.608 Q2002.84 149.775 2001.08 148.062 Q1999.32 146.326 1999.32 143.317 Q1999.32 139.659 2001.92 137.669 Q2004.51 135.678 2009.28 135.678 Q2011.64 135.678 2013.72 136.025 Q2015.8 136.372 2017.56 137.067 Z" fill="#000000" fill-rule="nonzero" fill-opacity="1" /><path clip-path="url(#clip180)" d="M2043.4 127.669 L2055.97 140.562 L2051.31 140.562 L2041.13 131.419 L2030.94 140.562 L2026.29 140.562 L2038.86 127.669 L2043.4 127.669 Z" fill="#000000" fill-rule="nonzero" fill-opacity="1" /><path clip-path="url(#clip180)" d="M2063.3 147.344 L2075.78 147.344 L2075.78 151.141 L2063.3 151.141 L2063.3 147.344 Z" fill="#000000" fill-rule="nonzero" fill-opacity="1" /><path clip-path="url(#clip180)" d="M2083.98 158.293 L2091.61 158.293 L2091.61 131.928 L2083.3 133.595 L2083.3 129.335 L2091.57 127.669 L2096.24 127.669 L2096.24 158.293 L2103.88 158.293 L2103.88 162.229 L2083.98 162.229 L2083.98 158.293 Z" fill="#000000" fill-rule="nonzero" fill-opacity="1" /><circle clip-path="url(#clip180)" cx="1527.07" cy="196.789" r="20.48" fill="#ff0000" fill-rule="evenodd" fill-opacity="1" stroke="none"/>
<path clip-path="url(#clip180)" d="M1622.2 179.509 L1628.49 179.509 L1643.82 208.421 L1643.82 179.509 L1648.35 179.509 L1648.35 214.069 L1642.06 214.069 L1626.73 185.157 L1626.73 214.069 L1622.2 214.069 L1622.2 179.509 Z" fill="#000000" fill-rule="nonzero" fill-opacity="1" /><path clip-path="url(#clip180)" d="M1667.52 191.129 Q1664.09 191.129 1662.1 193.814 Q1660.11 196.476 1660.11 201.129 Q1660.11 205.782 1662.08 208.467 Q1664.07 211.129 1667.52 211.129 Q1670.92 211.129 1672.91 208.444 Q1674.9 205.758 1674.9 201.129 Q1674.9 196.522 1672.91 193.837 Q1670.92 191.129 1667.52 191.129 M1667.52 187.518 Q1673.07 187.518 1676.25 191.129 Q1679.42 194.74 1679.42 201.129 Q1679.42 207.495 1676.25 211.129 Q1673.07 214.74 1667.52 214.74 Q1661.94 214.74 1658.77 211.129 Q1655.62 207.495 1655.62 201.129 Q1655.62 194.74 1658.77 191.129 Q1661.94 187.518 1667.52 187.518 Z" fill="#000000" fill-rule="nonzero" fill-opacity="1" /><path clip-path="url(#clip180)" d="M1686.48 188.143 L1690.74 188.143 L1690.74 214.069 L1686.48 214.069 L1686.48 188.143 M1686.48 178.05 L1690.74 178.05 L1690.74 183.444 L1686.48 183.444 L1686.48 178.05 Z" fill="#000000" fill-rule="nonzero" fill-opacity="1" /><path clip-path="url(#clip180)" d="M1716.18 188.907 L1716.18 192.934 Q1714.37 192.009 1712.43 191.546 Q1710.48 191.083 1708.4 191.083 Q1705.23 191.083 1703.63 192.055 Q1702.06 193.027 1702.06 194.971 Q1702.06 196.453 1703.19 197.309 Q1704.32 198.143 1707.75 198.907 L1709.21 199.231 Q1713.75 200.203 1715.64 201.985 Q1717.57 203.745 1717.57 206.916 Q1717.57 210.527 1714.69 212.633 Q1711.85 214.74 1706.85 214.74 Q1704.76 214.74 1702.5 214.323 Q1700.25 213.93 1697.75 213.12 L1697.75 208.721 Q1700.11 209.948 1702.4 210.573 Q1704.69 211.175 1706.94 211.175 Q1709.95 211.175 1711.57 210.157 Q1713.19 209.115 1713.19 207.24 Q1713.19 205.504 1712.01 204.578 Q1710.85 203.652 1706.89 202.796 L1705.41 202.448 Q1701.45 201.615 1699.69 199.902 Q1697.94 198.166 1697.94 195.157 Q1697.94 191.499 1700.53 189.509 Q1703.12 187.518 1707.89 187.518 Q1710.25 187.518 1712.33 187.865 Q1714.42 188.212 1716.18 188.907 Z" fill="#000000" fill-rule="nonzero" fill-opacity="1" /><path clip-path="url(#clip180)" d="M1735.13 216.476 Q1733.33 221.106 1731.62 222.518 Q1729.9 223.93 1727.03 223.93 L1723.63 223.93 L1723.63 220.365 L1726.13 220.365 Q1727.89 220.365 1728.86 219.532 Q1729.83 218.698 1731.01 215.596 L1731.78 213.652 L1721.29 188.143 L1725.81 188.143 L1733.91 208.421 L1742.01 188.143 L1746.52 188.143 L1735.13 216.476 Z" fill="#000000" fill-rule="nonzero" fill-opacity="1" /><polyline clip-path="url(#clip180)" style="stroke:#c271d2; stroke-linecap:round; stroke-linejoin:round; stroke-width:8; stroke-opacity:1; fill:none" points="1455.73,248.629 1598.41,248.629 "/>
<path clip-path="url(#clip180)" d="M1622.2 231.349 L1626.87 231.349 L1626.87 261.973 L1643.7 261.973 L1643.7 265.909 L1622.2 265.909 L1622.2 231.349 Z" fill="#000000" fill-rule="nonzero" fill-opacity="1" /><path clip-path="url(#clip180)" d="M1648.42 239.983 L1652.68 239.983 L1652.68 265.909 L1648.42 265.909 L1648.42 239.983 M1648.42 229.89 L1652.68 229.89 L1652.68 235.284 L1648.42 235.284 L1648.42 229.89 Z" fill="#000000" fill-rule="nonzero" fill-opacity="1" /><path clip-path="url(#clip180)" d="M1683.14 250.261 L1683.14 265.909 L1678.88 265.909 L1678.88 250.399 Q1678.88 246.719 1677.45 244.89 Q1676.01 243.062 1673.14 243.062 Q1669.69 243.062 1667.7 245.261 Q1665.71 247.46 1665.71 251.256 L1665.71 265.909 L1661.43 265.909 L1661.43 239.983 L1665.71 239.983 L1665.71 244.011 Q1667.24 241.673 1669.3 240.515 Q1671.38 239.358 1674.09 239.358 Q1678.56 239.358 1680.85 242.136 Q1683.14 244.89 1683.14 250.261 Z" fill="#000000" fill-rule="nonzero" fill-opacity="1" /><path clip-path="url(#clip180)" d="M1713.82 251.881 L1713.82 253.964 L1694.23 253.964 Q1694.51 258.362 1696.87 260.677 Q1699.25 262.969 1703.49 262.969 Q1705.94 262.969 1708.24 262.367 Q1710.55 261.765 1712.82 260.561 L1712.82 264.589 Q1710.53 265.561 1708.12 266.071 Q1705.71 266.58 1703.24 266.58 Q1697.03 266.58 1693.4 262.969 Q1689.79 259.358 1689.79 253.2 Q1689.79 246.835 1693.21 243.108 Q1696.66 239.358 1702.5 239.358 Q1707.73 239.358 1710.76 242.737 Q1713.82 246.094 1713.82 251.881 M1709.56 250.631 Q1709.51 247.136 1707.59 245.052 Q1705.69 242.969 1702.54 242.969 Q1698.98 242.969 1696.82 244.983 Q1694.69 246.997 1694.37 250.654 L1709.56 250.631 Z" fill="#000000" fill-rule="nonzero" fill-opacity="1" /><path clip-path="url(#clip180)" d="M1732.59 252.876 Q1727.43 252.876 1725.44 254.057 Q1723.44 255.237 1723.44 258.085 Q1723.44 260.353 1724.93 261.696 Q1726.43 263.015 1729 263.015 Q1732.54 263.015 1734.67 260.515 Q1736.82 257.992 1736.82 253.825 L1736.82 252.876 L1732.59 252.876 M1741.08 251.117 L1741.08 265.909 L1736.82 265.909 L1736.82 261.973 Q1735.37 264.335 1733.19 265.469 Q1731.01 266.58 1727.87 266.58 Q1723.88 266.58 1721.52 264.358 Q1719.19 262.112 1719.19 258.362 Q1719.19 253.987 1722.1 251.765 Q1725.04 249.543 1730.85 249.543 L1736.82 249.543 L1736.82 249.126 Q1736.82 246.187 1734.88 244.589 Q1732.96 242.969 1729.46 242.969 Q1727.24 242.969 1725.13 243.501 Q1723.03 244.034 1721.08 245.099 L1721.08 241.163 Q1723.42 240.261 1725.62 239.821 Q1727.82 239.358 1729.9 239.358 Q1735.53 239.358 1738.31 242.274 Q1741.08 245.191 1741.08 251.117 Z" fill="#000000" fill-rule="nonzero" fill-opacity="1" /><path clip-path="url(#clip180)" d="M1764.88 243.964 Q1764.16 243.548 1763.31 243.362 Q1762.47 243.154 1761.45 243.154 Q1757.84 243.154 1755.9 245.515 Q1753.98 247.853 1753.98 252.251 L1753.98 265.909 L1749.69 265.909 L1749.69 239.983 L1753.98 239.983 L1753.98 244.011 Q1755.32 241.649 1757.47 240.515 Q1759.63 239.358 1762.7 239.358 Q1763.14 239.358 1763.68 239.427 Q1764.21 239.474 1764.86 239.589 L1764.88 243.964 Z" fill="#000000" fill-rule="nonzero" fill-opacity="1" /><path clip-path="url(#clip180)" d="M1784.6 231.349 L1804.46 231.349 L1804.46 235.284 L1789.28 235.284 L1789.28 245.469 L1802.98 245.469 L1802.98 249.404 L1789.28 249.404 L1789.28 265.909 L1784.6 265.909 L1784.6 231.349 Z" fill="#000000" fill-rule="nonzero" fill-opacity="1" /><path clip-path="url(#clip180)" d="M1808.24 239.983 L1812.5 239.983 L1812.5 265.909 L1808.24 265.909 L1808.24 239.983 M1808.24 229.89 L1812.5 229.89 L1812.5 235.284 L1808.24 235.284 L1808.24 229.89 Z" fill="#000000" fill-rule="nonzero" fill-opacity="1" /><path clip-path="url(#clip180)" d="M1825.62 232.622 L1825.62 239.983 L1834.39 239.983 L1834.39 243.293 L1825.62 243.293 L1825.62 257.367 Q1825.62 260.538 1826.48 261.441 Q1827.36 262.344 1830.02 262.344 L1834.39 262.344 L1834.39 265.909 L1830.02 265.909 Q1825.09 265.909 1823.21 264.08 Q1821.34 262.228 1821.34 257.367 L1821.34 243.293 L1818.21 243.293 L1818.21 239.983 L1821.34 239.983 L1821.34 232.622 L1825.62 232.622 Z" fill="#000000" fill-rule="nonzero" fill-opacity="1" /><path clip-path="url(#clip180)" d="M1841.08 260.029 L1845.97 260.029 L1845.97 265.909 L1841.08 265.909 L1841.08 260.029 M1841.08 241.395 L1845.97 241.395 L1845.97 247.274 L1841.08 247.274 L1841.08 241.395 Z" fill="#000000" fill-rule="nonzero" fill-opacity="1" /><path clip-path="url(#clip180)" d="M1887.61 249.705 Q1889.12 250.214 1890.53 251.881 Q1891.96 253.548 1893.4 256.464 L1898.14 265.909 L1893.12 265.909 L1888.7 257.043 Q1886.99 253.571 1885.37 252.436 Q1883.77 251.302 1880.99 251.302 L1875.9 251.302 L1875.9 265.909 L1871.22 265.909 L1871.22 231.349 L1881.78 231.349 Q1887.7 231.349 1890.62 233.825 Q1893.54 236.302 1893.54 241.302 Q1893.54 244.566 1892.01 246.719 Q1890.5 248.872 1887.61 249.705 M1875.9 235.191 L1875.9 247.46 L1881.78 247.46 Q1885.16 247.46 1886.87 245.909 Q1888.61 244.335 1888.61 241.302 Q1888.61 238.27 1886.87 236.742 Q1885.16 235.191 1881.78 235.191 L1875.9 235.191 Z" fill="#000000" fill-rule="nonzero" fill-opacity="1" /><path clip-path="url(#clip180)" d="M1905.39 261.973 L1913.03 261.973 L1913.03 235.608 L1904.72 237.275 L1904.72 233.015 L1912.98 231.349 L1917.66 231.349 L1917.66 261.973 L1925.3 261.973 L1925.3 265.909 L1905.39 265.909 L1905.39 261.973 Z" fill="#000000" fill-rule="nonzero" fill-opacity="1" /><path clip-path="url(#clip180)" d="M1949.76 244.381 L1979.44 244.381 L1979.44 248.27 L1949.76 248.27 L1949.76 244.381 M1949.76 253.825 L1979.44 253.825 L1979.44 257.761 L1949.76 257.761 L1949.76 253.825 Z" fill="#000000" fill-rule="nonzero" fill-opacity="1" /><path clip-path="url(#clip180)" d="M2008.63 261.973 L2024.95 261.973 L2024.95 265.909 L2003 265.909 L2003 261.973 Q2005.67 259.219 2010.25 254.589 Q2014.86 249.936 2016.04 248.594 Q2018.28 246.071 2019.16 244.335 Q2020.06 242.575 2020.06 240.886 Q2020.06 238.131 2018.12 236.395 Q2016.2 234.659 2013.1 234.659 Q2010.9 234.659 2008.44 235.423 Q2006.01 236.187 2003.23 237.737 L2003.23 233.015 Q2006.06 231.881 2008.51 231.302 Q2010.97 230.724 2013 230.724 Q2018.37 230.724 2021.57 233.409 Q2024.76 236.094 2024.76 240.585 Q2024.76 242.714 2023.95 244.636 Q2023.17 246.534 2021.06 249.126 Q2020.48 249.798 2017.38 253.015 Q2014.28 256.21 2008.63 261.973 Z" fill="#000000" fill-rule="nonzero" fill-opacity="1" /><path clip-path="url(#clip180)" d="M2038.79 261.973 L2055.11 261.973 L2055.11 265.909 L2033.17 265.909 L2033.17 261.973 Q2035.83 259.219 2040.41 254.589 Q2045.02 249.936 2046.2 248.594 Q2048.44 246.071 2049.32 244.335 Q2050.23 242.575 2050.23 240.886 Q2050.23 238.131 2048.28 236.395 Q2046.36 234.659 2043.26 234.659 Q2041.06 234.659 2038.6 235.423 Q2036.17 236.187 2033.4 237.737 L2033.4 233.015 Q2036.22 231.881 2038.67 231.302 Q2041.13 230.724 2043.17 230.724 Q2048.54 230.724 2051.73 233.409 Q2054.92 236.094 2054.92 240.585 Q2054.92 242.714 2054.11 244.636 Q2053.33 246.534 2051.22 249.126 Q2050.64 249.798 2047.54 253.015 Q2044.44 256.21 2038.79 261.973 Z" fill="#000000" fill-rule="nonzero" fill-opacity="1" /><path clip-path="url(#clip180)" d="M2064.92 260.029 L2069.81 260.029 L2069.81 265.909 L2064.92 265.909 L2064.92 260.029 Z" fill="#000000" fill-rule="nonzero" fill-opacity="1" /><path clip-path="url(#clip180)" d="M2094.16 247.274 Q2097.52 247.992 2099.39 250.261 Q2101.29 252.529 2101.29 255.862 Q2101.29 260.978 2097.77 263.779 Q2094.25 266.58 2087.77 266.58 Q2085.6 266.58 2083.28 266.14 Q2080.99 265.723 2078.54 264.867 L2078.54 260.353 Q2080.48 261.487 2082.79 262.066 Q2085.11 262.645 2087.63 262.645 Q2092.03 262.645 2094.32 260.909 Q2096.64 259.173 2096.64 255.862 Q2096.64 252.807 2094.48 251.094 Q2092.35 249.358 2088.54 249.358 L2084.51 249.358 L2084.51 245.515 L2088.72 245.515 Q2092.17 245.515 2094 244.149 Q2095.83 242.761 2095.83 240.168 Q2095.83 237.506 2093.93 236.094 Q2092.05 234.659 2088.54 234.659 Q2086.61 234.659 2084.41 235.075 Q2082.22 235.492 2079.58 236.372 L2079.58 232.205 Q2082.24 231.464 2084.55 231.094 Q2086.89 230.724 2088.95 230.724 Q2094.28 230.724 2097.38 233.154 Q2100.48 235.562 2100.48 239.682 Q2100.48 242.552 2098.84 244.543 Q2097.19 246.511 2094.16 247.274 Z" fill="#000000" fill-rule="nonzero" fill-opacity="1" /><path clip-path="url(#clip180)" d="M2120.73 246.765 Q2117.59 246.765 2115.73 248.918 Q2113.91 251.071 2113.91 254.821 Q2113.91 258.548 2115.73 260.723 Q2117.59 262.876 2120.73 262.876 Q2123.88 262.876 2125.71 260.723 Q2127.56 258.548 2127.56 254.821 Q2127.56 251.071 2125.71 248.918 Q2123.88 246.765 2120.73 246.765 M2130.02 232.113 L2130.02 236.372 Q2128.26 235.538 2126.45 235.099 Q2124.67 234.659 2122.91 234.659 Q2118.28 234.659 2115.83 237.784 Q2113.4 240.909 2113.05 247.228 Q2114.41 245.214 2116.47 244.149 Q2118.54 243.062 2121.01 243.062 Q2126.22 243.062 2129.23 246.233 Q2132.26 249.381 2132.26 254.821 Q2132.26 260.145 2129.11 263.362 Q2125.97 266.58 2120.73 266.58 Q2114.74 266.58 2111.57 261.997 Q2108.4 257.39 2108.4 248.663 Q2108.4 240.469 2112.29 235.608 Q2116.17 230.724 2122.72 230.724 Q2124.48 230.724 2126.27 231.071 Q2128.07 231.418 2130.02 232.113 Z" fill="#000000" fill-rule="nonzero" fill-opacity="1" /><path clip-path="url(#clip180)" d="M2171.31 240.747 L2171.31 244.774 Q2169.51 243.849 2167.56 243.386 Q2165.62 242.923 2163.53 242.923 Q2160.36 242.923 2158.77 243.895 Q2157.19 244.867 2157.19 246.811 Q2157.19 248.293 2158.33 249.149 Q2159.46 249.983 2162.89 250.747 L2164.35 251.071 Q2168.88 252.043 2170.78 253.825 Q2172.7 255.585 2172.7 258.756 Q2172.7 262.367 2169.83 264.473 Q2166.98 266.58 2161.98 266.58 Q2159.9 266.58 2157.63 266.163 Q2155.39 265.77 2152.89 264.96 L2152.89 260.561 Q2155.25 261.788 2157.54 262.413 Q2159.83 263.015 2162.08 263.015 Q2165.09 263.015 2166.71 261.997 Q2168.33 260.955 2168.33 259.08 Q2168.33 257.344 2167.15 256.418 Q2165.99 255.492 2162.03 254.636 L2160.55 254.288 Q2156.59 253.455 2154.83 251.742 Q2153.07 250.006 2153.07 246.997 Q2153.07 243.339 2155.66 241.349 Q2158.26 239.358 2163.03 239.358 Q2165.39 239.358 2167.47 239.705 Q2169.55 240.052 2171.31 240.747 Z" fill="#000000" fill-rule="nonzero" fill-opacity="1" /><path clip-path="url(#clip180)" d="M2197.15 231.349 L2209.72 244.242 L2205.06 244.242 L2194.88 235.099 L2184.69 244.242 L2180.04 244.242 L2192.61 231.349 L2197.15 231.349 Z" fill="#000000" fill-rule="nonzero" fill-opacity="1" /><path clip-path="url(#clip180)" d="M2217.05 251.024 L2229.53 251.024 L2229.53 254.821 L2217.05 254.821 L2217.05 251.024 Z" fill="#000000" fill-rule="nonzero" fill-opacity="1" /><path clip-path="url(#clip180)" d="M2237.72 261.973 L2245.36 261.973 L2245.36 235.608 L2237.05 237.275 L2237.05 233.015 L2245.32 231.349 L2249.99 231.349 L2249.99 261.973 L2257.63 261.973 L2257.63 265.909 L2237.72 265.909 L2237.72 261.973 Z" fill="#000000" fill-rule="nonzero" fill-opacity="1" /></svg>
