<?xml version="1.0" encoding="utf-8"?>
<svg xmlns="http://www.w3.org/2000/svg" xmlns:xlink="http://www.w3.org/1999/xlink" width="600" height="400" viewBox="0 0 2400 1600">
<defs>
  <clipPath id="clip060">
    <rect x="0" y="0" width="2400" height="1600"/>
  </clipPath>
</defs>
<path clip-path="url(#clip060)" d="M0 1600 L2400 1600 L2400 0 L0 0  Z" fill="#ffffff" fill-rule="evenodd" fill-opacity="1"/>
<defs>
  <clipPath id="clip061">
    <rect x="169" y="47" width="2185" height="1377"/>
  </clipPath>
</defs>
<path clip-path="url(#clip060)" d="M169.121 1423.18 L2352.76 1423.18 L2352.76 47.2441 L169.121 47.2441  Z" fill="#ffffff" fill-rule="evenodd" fill-opacity="1"/>
<polyline clip-path="url(#clip061)" style="stroke:#000000; stroke-linecap:round; stroke-linejoin:round; stroke-width:2; stroke-opacity:0.1; fill:none" points="230.922,1423.18 230.922,47.2441 "/>
<polyline clip-path="url(#clip061)" style="stroke:#000000; stroke-linecap:round; stroke-linejoin:round; stroke-width:2; stroke-opacity:0.1; fill:none" points="282.423,1423.18 282.423,47.2441 "/>
<polyline clip-path="url(#clip061)" style="stroke:#000000; stroke-linecap:round; stroke-linejoin:round; stroke-width:2; stroke-opacity:0.1; fill:none" points="539.927,1423.18 539.927,47.2441 "/>
<polyline clip-path="url(#clip061)" style="stroke:#000000; stroke-linecap:round; stroke-linejoin:round; stroke-width:2; stroke-opacity:0.1; fill:none" points="797.431,1423.18 797.431,47.2441 "/>
<polyline clip-path="url(#clip061)" style="stroke:#000000; stroke-linecap:round; stroke-linejoin:round; stroke-width:2; stroke-opacity:0.1; fill:none" points="1054.94,1423.18 1054.94,47.2441 "/>
<polyline clip-path="url(#clip061)" style="stroke:#000000; stroke-linecap:round; stroke-linejoin:round; stroke-width:2; stroke-opacity:0.1; fill:none" points="1312.44,1423.18 1312.44,47.2441 "/>
<polyline clip-path="url(#clip061)" style="stroke:#000000; stroke-linecap:round; stroke-linejoin:round; stroke-width:2; stroke-opacity:0.1; fill:none" points="1569.94,1423.18 1569.94,47.2441 "/>
<polyline clip-path="url(#clip061)" style="stroke:#000000; stroke-linecap:round; stroke-linejoin:round; stroke-width:2; stroke-opacity:0.1; fill:none" points="1827.45,1423.18 1827.45,47.2441 "/>
<polyline clip-path="url(#clip061)" style="stroke:#000000; stroke-linecap:round; stroke-linejoin:round; stroke-width:2; stroke-opacity:0.1; fill:none" points="2084.95,1423.18 2084.95,47.2441 "/>
<polyline clip-path="url(#clip061)" style="stroke:#000000; stroke-linecap:round; stroke-linejoin:round; stroke-width:2; stroke-opacity:0.1; fill:none" points="2290.95,1423.18 2290.95,47.2441 "/>
<polyline clip-path="url(#clip061)" style="stroke:#000000; stroke-linecap:round; stroke-linejoin:round; stroke-width:2; stroke-opacity:0.1; fill:none" points="169.121,1325.24 2352.76,1325.24 "/>
<polyline clip-path="url(#clip061)" style="stroke:#000000; stroke-linecap:round; stroke-linejoin:round; stroke-width:2; stroke-opacity:0.1; fill:none" points="169.121,1030.22 2352.76,1030.22 "/>
<polyline clip-path="url(#clip061)" style="stroke:#000000; stroke-linecap:round; stroke-linejoin:round; stroke-width:2; stroke-opacity:0.1; fill:none" points="169.121,735.212 2352.76,735.212 "/>
<polyline clip-path="url(#clip061)" style="stroke:#000000; stroke-linecap:round; stroke-linejoin:round; stroke-width:2; stroke-opacity:0.1; fill:none" points="169.121,440.2 2352.76,440.2 "/>
<polyline clip-path="url(#clip061)" style="stroke:#000000; stroke-linecap:round; stroke-linejoin:round; stroke-width:2; stroke-opacity:0.1; fill:none" points="169.121,145.188 2352.76,145.188 "/>
<polyline clip-path="url(#clip060)" style="stroke:#000000; stroke-linecap:round; stroke-linejoin:round; stroke-width:4; stroke-opacity:1; fill:none" points="169.121,1423.18 2352.76,1423.18 "/>
<polyline clip-path="url(#clip060)" style="stroke:#000000; stroke-linecap:round; stroke-linejoin:round; stroke-width:4; stroke-opacity:1; fill:none" points="230.922,1423.18 230.922,1404.28 "/>
<polyline clip-path="url(#clip060)" style="stroke:#000000; stroke-linecap:round; stroke-linejoin:round; stroke-width:4; stroke-opacity:1; fill:none" points="282.423,1423.18 282.423,1404.28 "/>
<polyline clip-path="url(#clip060)" style="stroke:#000000; stroke-linecap:round; stroke-linejoin:round; stroke-width:4; stroke-opacity:1; fill:none" points="539.927,1423.18 539.927,1404.28 "/>
<polyline clip-path="url(#clip060)" style="stroke:#000000; stroke-linecap:round; stroke-linejoin:round; stroke-width:4; stroke-opacity:1; fill:none" points="797.431,1423.18 797.431,1404.28 "/>
<polyline clip-path="url(#clip060)" style="stroke:#000000; stroke-linecap:round; stroke-linejoin:round; stroke-width:4; stroke-opacity:1; fill:none" points="1054.94,1423.18 1054.94,1404.28 "/>
<polyline clip-path="url(#clip060)" style="stroke:#000000; stroke-linecap:round; stroke-linejoin:round; stroke-width:4; stroke-opacity:1; fill:none" points="1312.44,1423.18 1312.44,1404.28 "/>
<polyline clip-path="url(#clip060)" style="stroke:#000000; stroke-linecap:round; stroke-linejoin:round; stroke-width:4; stroke-opacity:1; fill:none" points="1569.94,1423.18 1569.94,1404.28 "/>
<polyline clip-path="url(#clip060)" style="stroke:#000000; stroke-linecap:round; stroke-linejoin:round; stroke-width:4; stroke-opacity:1; fill:none" points="1827.45,1423.18 1827.45,1404.28 "/>
<polyline clip-path="url(#clip060)" style="stroke:#000000; stroke-linecap:round; stroke-linejoin:round; stroke-width:4; stroke-opacity:1; fill:none" points="2084.95,1423.18 2084.95,1404.28 "/>
<polyline clip-path="url(#clip060)" style="stroke:#000000; stroke-linecap:round; stroke-linejoin:round; stroke-width:4; stroke-opacity:1; fill:none" points="2290.95,1423.18 2290.95,1404.28 "/>
<path clip-path="url(#clip060)" d="M230.922 1454.1 Q227.311 1454.1 225.483 1457.66 Q223.677 1461.2 223.677 1468.33 Q223.677 1475.44 225.483 1479.01 Q227.311 1482.55 230.922 1482.55 Q234.557 1482.55 236.362 1479.01 Q238.191 1475.44 238.191 1468.33 Q238.191 1461.2 236.362 1457.66 Q234.557 1454.1 230.922 1454.1 M230.922 1450.39 Q236.732 1450.39 239.788 1455 Q242.867 1459.58 242.867 1468.33 Q242.867 1477.06 239.788 1481.67 Q236.732 1486.25 230.922 1486.25 Q225.112 1486.25 222.033 1481.67 Q218.978 1477.06 218.978 1468.33 Q218.978 1459.58 222.033 1455 Q225.112 1450.39 230.922 1450.39 Z" fill="#000000" fill-rule="nonzero" fill-opacity="1" /><path clip-path="url(#clip060)" d="M272.701 1451.02 L291.057 1451.02 L291.057 1454.96 L276.983 1454.96 L276.983 1463.43 Q278.002 1463.08 279.02 1462.92 Q280.039 1462.73 281.057 1462.73 Q286.844 1462.73 290.224 1465.9 Q293.604 1469.08 293.604 1474.49 Q293.604 1480.07 290.131 1483.17 Q286.659 1486.25 280.34 1486.25 Q278.164 1486.25 275.895 1485.88 Q273.65 1485.51 271.243 1484.77 L271.243 1480.07 Q273.326 1481.2 275.548 1481.76 Q277.77 1482.32 280.247 1482.32 Q284.252 1482.32 286.59 1480.21 Q288.928 1478.1 288.928 1474.49 Q288.928 1470.88 286.59 1468.77 Q284.252 1466.67 280.247 1466.67 Q278.372 1466.67 276.497 1467.08 Q274.645 1467.5 272.701 1468.38 L272.701 1451.02 Z" fill="#000000" fill-rule="nonzero" fill-opacity="1" /><path clip-path="url(#clip060)" d="M528.77 1466.95 Q532.126 1467.66 534.001 1469.93 Q535.899 1472.2 535.899 1475.53 Q535.899 1480.65 532.381 1483.45 Q528.862 1486.25 522.381 1486.25 Q520.205 1486.25 517.89 1485.81 Q515.599 1485.39 513.145 1484.54 L513.145 1480.02 Q515.089 1481.16 517.404 1481.74 Q519.719 1482.32 522.242 1482.32 Q526.64 1482.32 528.932 1480.58 Q531.247 1478.84 531.247 1475.53 Q531.247 1472.48 529.094 1470.77 Q526.964 1469.03 523.145 1469.03 L519.117 1469.03 L519.117 1465.19 L523.33 1465.19 Q526.779 1465.19 528.608 1463.82 Q530.436 1462.43 530.436 1459.84 Q530.436 1457.18 528.538 1455.77 Q526.663 1454.33 523.145 1454.33 Q521.224 1454.33 519.025 1454.75 Q516.825 1455.16 514.187 1456.04 L514.187 1451.88 Q516.849 1451.14 519.163 1450.77 Q521.501 1450.39 523.562 1450.39 Q528.886 1450.39 531.987 1452.83 Q535.089 1455.23 535.089 1459.35 Q535.089 1462.22 533.446 1464.21 Q531.802 1466.18 528.77 1466.95 Z" fill="#000000" fill-rule="nonzero" fill-opacity="1" /><path clip-path="url(#clip060)" d="M554.765 1454.1 Q551.154 1454.1 549.325 1457.66 Q547.52 1461.2 547.52 1468.33 Q547.52 1475.44 549.325 1479.01 Q551.154 1482.55 554.765 1482.55 Q558.399 1482.55 560.205 1479.01 Q562.034 1475.44 562.034 1468.33 Q562.034 1461.2 560.205 1457.66 Q558.399 1454.1 554.765 1454.1 M554.765 1450.39 Q560.575 1450.39 563.631 1455 Q566.709 1459.58 566.709 1468.33 Q566.709 1477.06 563.631 1481.67 Q560.575 1486.25 554.765 1486.25 Q548.955 1486.25 545.876 1481.67 Q542.821 1477.06 542.821 1468.33 Q542.821 1459.58 545.876 1455 Q548.955 1450.39 554.765 1450.39 Z" fill="#000000" fill-rule="nonzero" fill-opacity="1" /><path clip-path="url(#clip060)" d="M772.628 1451.02 L790.985 1451.02 L790.985 1454.96 L776.911 1454.96 L776.911 1463.43 Q777.929 1463.08 778.948 1462.92 Q779.966 1462.73 780.985 1462.73 Q786.772 1462.73 790.151 1465.9 Q793.531 1469.08 793.531 1474.49 Q793.531 1480.07 790.059 1483.17 Q786.586 1486.25 780.267 1486.25 Q778.091 1486.25 775.823 1485.88 Q773.577 1485.51 771.17 1484.77 L771.17 1480.07 Q773.253 1481.2 775.475 1481.76 Q777.698 1482.32 780.174 1482.32 Q784.179 1482.32 786.517 1480.21 Q788.855 1478.1 788.855 1474.49 Q788.855 1470.88 786.517 1468.77 Q784.179 1466.67 780.174 1466.67 Q778.299 1466.67 776.424 1467.08 Q774.573 1467.5 772.628 1468.38 L772.628 1451.02 Z" fill="#000000" fill-rule="nonzero" fill-opacity="1" /><path clip-path="url(#clip060)" d="M802.79 1451.02 L821.146 1451.02 L821.146 1454.96 L807.072 1454.96 L807.072 1463.43 Q808.091 1463.08 809.109 1462.92 Q810.128 1462.73 811.146 1462.73 Q816.933 1462.73 820.313 1465.9 Q823.693 1469.08 823.693 1474.49 Q823.693 1480.07 820.22 1483.17 Q816.748 1486.25 810.429 1486.25 Q808.253 1486.25 805.984 1485.88 Q803.739 1485.51 801.332 1484.77 L801.332 1480.07 Q803.415 1481.2 805.637 1481.76 Q807.859 1482.32 810.336 1482.32 Q814.341 1482.32 816.679 1480.21 Q819.017 1478.1 819.017 1474.49 Q819.017 1470.88 816.679 1468.77 Q814.341 1466.67 810.336 1466.67 Q808.461 1466.67 806.586 1467.08 Q804.734 1467.5 802.79 1468.38 L802.79 1451.02 Z" fill="#000000" fill-rule="nonzero" fill-opacity="1" /><path clip-path="url(#clip060)" d="M1039.81 1469.17 Q1036.47 1469.17 1034.55 1470.95 Q1032.66 1472.73 1032.66 1475.86 Q1032.66 1478.98 1034.55 1480.77 Q1036.47 1482.55 1039.81 1482.55 Q1043.14 1482.55 1045.06 1480.77 Q1046.98 1478.96 1046.98 1475.86 Q1046.98 1472.73 1045.06 1470.95 Q1043.16 1469.17 1039.81 1469.17 M1035.13 1467.18 Q1032.12 1466.44 1030.43 1464.38 Q1028.77 1462.32 1028.77 1459.35 Q1028.77 1455.21 1031.71 1452.8 Q1034.67 1450.39 1039.81 1450.39 Q1044.97 1450.39 1047.91 1452.8 Q1050.85 1455.21 1050.85 1459.35 Q1050.85 1462.32 1049.16 1464.38 Q1047.49 1466.44 1044.51 1467.18 Q1047.89 1467.96 1049.76 1470.26 Q1051.66 1472.55 1051.66 1475.86 Q1051.66 1480.88 1048.58 1483.57 Q1045.53 1486.25 1039.81 1486.25 Q1034.09 1486.25 1031.01 1483.57 Q1027.96 1480.88 1027.96 1475.86 Q1027.96 1472.55 1029.85 1470.26 Q1031.75 1467.96 1035.13 1467.18 M1033.42 1459.79 Q1033.42 1462.48 1035.09 1463.98 Q1036.78 1465.49 1039.81 1465.49 Q1042.82 1465.49 1044.51 1463.98 Q1046.22 1462.48 1046.22 1459.79 Q1046.22 1457.11 1044.51 1455.6 Q1042.82 1454.1 1039.81 1454.1 Q1036.78 1454.1 1035.09 1455.6 Q1033.42 1457.11 1033.42 1459.79 Z" fill="#000000" fill-rule="nonzero" fill-opacity="1" /><path clip-path="url(#clip060)" d="M1069.97 1454.1 Q1066.36 1454.1 1064.53 1457.66 Q1062.72 1461.2 1062.72 1468.33 Q1062.72 1475.44 1064.53 1479.01 Q1066.36 1482.55 1069.97 1482.55 Q1073.6 1482.55 1075.41 1479.01 Q1077.24 1475.44 1077.24 1468.33 Q1077.24 1461.2 1075.41 1457.66 Q1073.6 1454.1 1069.97 1454.1 M1069.97 1450.39 Q1075.78 1450.39 1078.84 1455 Q1081.91 1459.58 1081.91 1468.33 Q1081.91 1477.06 1078.84 1481.67 Q1075.78 1486.25 1069.97 1486.25 Q1064.16 1486.25 1061.08 1481.67 Q1058.03 1477.06 1058.03 1468.33 Q1058.03 1459.58 1061.08 1455 Q1064.16 1450.39 1069.97 1450.39 Z" fill="#000000" fill-rule="nonzero" fill-opacity="1" /><path clip-path="url(#clip060)" d="M1272.54 1481.64 L1280.18 1481.64 L1280.18 1455.28 L1271.87 1456.95 L1271.87 1452.69 L1280.14 1451.02 L1284.81 1451.02 L1284.81 1481.64 L1292.45 1481.64 L1292.45 1485.58 L1272.54 1485.58 L1272.54 1481.64 Z" fill="#000000" fill-rule="nonzero" fill-opacity="1" /><path clip-path="url(#clip060)" d="M1311.9 1454.1 Q1308.28 1454.1 1306.46 1457.66 Q1304.65 1461.2 1304.65 1468.33 Q1304.65 1475.44 1306.46 1479.01 Q1308.28 1482.55 1311.9 1482.55 Q1315.53 1482.55 1317.34 1479.01 Q1319.16 1475.44 1319.16 1468.33 Q1319.16 1461.2 1317.34 1457.66 Q1315.53 1454.1 1311.9 1454.1 M1311.9 1450.39 Q1317.71 1450.39 1320.76 1455 Q1323.84 1459.58 1323.84 1468.33 Q1323.84 1477.06 1320.76 1481.67 Q1317.71 1486.25 1311.9 1486.25 Q1306.09 1486.25 1303.01 1481.67 Q1299.95 1477.06 1299.95 1468.33 Q1299.95 1459.58 1303.01 1455 Q1306.09 1450.39 1311.9 1450.39 Z" fill="#000000" fill-rule="nonzero" fill-opacity="1" /><path clip-path="url(#clip060)" d="M1332.1 1451.02 L1350.46 1451.02 L1350.46 1454.96 L1336.39 1454.96 L1336.39 1463.43 Q1337.4 1463.08 1338.42 1462.92 Q1339.44 1462.73 1340.46 1462.73 Q1346.25 1462.73 1349.63 1465.9 Q1353.01 1469.08 1353.01 1474.49 Q1353.01 1480.07 1349.53 1483.17 Q1346.06 1486.25 1339.74 1486.25 Q1337.57 1486.25 1335.3 1485.88 Q1333.05 1485.51 1330.65 1484.77 L1330.65 1480.07 Q1332.73 1481.2 1334.95 1481.76 Q1337.17 1482.32 1339.65 1482.32 Q1343.65 1482.32 1345.99 1480.21 Q1348.33 1478.1 1348.33 1474.49 Q1348.33 1470.88 1345.99 1468.77 Q1343.65 1466.67 1339.65 1466.67 Q1337.77 1466.67 1335.9 1467.08 Q1334.05 1467.5 1332.1 1468.38 L1332.1 1451.02 Z" fill="#000000" fill-rule="nonzero" fill-opacity="1" /><path clip-path="url(#clip060)" d="M1529.55 1481.64 L1537.19 1481.64 L1537.19 1455.28 L1528.88 1456.95 L1528.88 1452.69 L1537.14 1451.02 L1541.82 1451.02 L1541.82 1481.64 L1549.46 1481.64 L1549.46 1485.58 L1529.55 1485.58 L1529.55 1481.64 Z" fill="#000000" fill-rule="nonzero" fill-opacity="1" /><path clip-path="url(#clip060)" d="M1573.07 1466.95 Q1576.42 1467.66 1578.3 1469.93 Q1580.2 1472.2 1580.2 1475.53 Q1580.2 1480.65 1576.68 1483.45 Q1573.16 1486.25 1566.68 1486.25 Q1564.5 1486.25 1562.19 1485.81 Q1559.9 1485.39 1557.44 1484.54 L1557.44 1480.02 Q1559.39 1481.16 1561.7 1481.74 Q1564.02 1482.32 1566.54 1482.32 Q1570.94 1482.32 1573.23 1480.58 Q1575.55 1478.84 1575.55 1475.53 Q1575.55 1472.48 1573.39 1470.77 Q1571.26 1469.03 1567.44 1469.03 L1563.42 1469.03 L1563.42 1465.19 L1567.63 1465.19 Q1571.08 1465.19 1572.91 1463.82 Q1574.74 1462.43 1574.74 1459.84 Q1574.74 1457.18 1572.84 1455.77 Q1570.96 1454.33 1567.44 1454.33 Q1565.52 1454.33 1563.32 1454.75 Q1561.12 1455.16 1558.49 1456.04 L1558.49 1451.88 Q1561.15 1451.14 1563.46 1450.77 Q1565.8 1450.39 1567.86 1450.39 Q1573.18 1450.39 1576.29 1452.83 Q1579.39 1455.23 1579.39 1459.35 Q1579.39 1462.22 1577.74 1464.21 Q1576.1 1466.18 1573.07 1466.95 Z" fill="#000000" fill-rule="nonzero" fill-opacity="1" /><path clip-path="url(#clip060)" d="M1599.06 1454.1 Q1595.45 1454.1 1593.62 1457.66 Q1591.82 1461.2 1591.82 1468.33 Q1591.82 1475.44 1593.62 1479.01 Q1595.45 1482.55 1599.06 1482.55 Q1602.7 1482.55 1604.5 1479.01 Q1606.33 1475.44 1606.33 1468.33 Q1606.33 1461.2 1604.5 1457.66 Q1602.7 1454.1 1599.06 1454.1 M1599.06 1450.39 Q1604.87 1450.39 1607.93 1455 Q1611.01 1459.58 1611.01 1468.33 Q1611.01 1477.06 1607.93 1481.67 Q1604.87 1486.25 1599.06 1486.25 Q1593.25 1486.25 1590.17 1481.67 Q1587.12 1477.06 1587.12 1468.33 Q1587.12 1459.58 1590.17 1455 Q1593.25 1450.39 1599.06 1450.39 Z" fill="#000000" fill-rule="nonzero" fill-opacity="1" /><path clip-path="url(#clip060)" d="M1787.55 1481.64 L1795.19 1481.64 L1795.19 1455.28 L1786.88 1456.95 L1786.88 1452.69 L1795.14 1451.02 L1799.82 1451.02 L1799.82 1481.64 L1807.46 1481.64 L1807.46 1485.58 L1787.55 1485.58 L1787.55 1481.64 Z" fill="#000000" fill-rule="nonzero" fill-opacity="1" /><path clip-path="url(#clip060)" d="M1816.95 1451.02 L1835.31 1451.02 L1835.31 1454.96 L1821.23 1454.96 L1821.23 1463.43 Q1822.25 1463.08 1823.27 1462.92 Q1824.29 1462.73 1825.31 1462.73 Q1831.09 1462.73 1834.47 1465.9 Q1837.85 1469.08 1837.85 1474.49 Q1837.85 1480.07 1834.38 1483.17 Q1830.91 1486.25 1824.59 1486.25 Q1822.41 1486.25 1820.14 1485.88 Q1817.9 1485.51 1815.49 1484.77 L1815.49 1480.07 Q1817.57 1481.2 1819.8 1481.76 Q1822.02 1482.32 1824.5 1482.32 Q1828.5 1482.32 1830.84 1480.21 Q1833.18 1478.1 1833.18 1474.49 Q1833.18 1470.88 1830.84 1468.77 Q1828.5 1466.67 1824.5 1466.67 Q1822.62 1466.67 1820.75 1467.08 Q1818.89 1467.5 1816.95 1468.38 L1816.95 1451.02 Z" fill="#000000" fill-rule="nonzero" fill-opacity="1" /><path clip-path="url(#clip060)" d="M1847.11 1451.02 L1865.47 1451.02 L1865.47 1454.96 L1851.39 1454.96 L1851.39 1463.43 Q1852.41 1463.08 1853.43 1462.92 Q1854.45 1462.73 1855.47 1462.73 Q1861.26 1462.73 1864.63 1465.9 Q1868.01 1469.08 1868.01 1474.49 Q1868.01 1480.07 1864.54 1483.17 Q1861.07 1486.25 1854.75 1486.25 Q1852.57 1486.25 1850.31 1485.88 Q1848.06 1485.51 1845.65 1484.77 L1845.65 1480.07 Q1847.74 1481.2 1849.96 1481.76 Q1852.18 1482.32 1854.66 1482.32 Q1858.66 1482.32 1861 1480.21 Q1863.34 1478.1 1863.34 1474.49 Q1863.34 1470.88 1861 1468.77 Q1858.66 1466.67 1854.66 1466.67 Q1852.78 1466.67 1850.91 1467.08 Q1849.06 1467.5 1847.11 1468.38 L1847.11 1451.02 Z" fill="#000000" fill-rule="nonzero" fill-opacity="1" /><path clip-path="url(#clip060)" d="M2044.56 1481.64 L2052.2 1481.64 L2052.2 1455.28 L2043.89 1456.95 L2043.89 1452.69 L2052.15 1451.02 L2056.83 1451.02 L2056.83 1481.64 L2064.47 1481.64 L2064.47 1485.58 L2044.56 1485.58 L2044.56 1481.64 Z" fill="#000000" fill-rule="nonzero" fill-opacity="1" /><path clip-path="url(#clip060)" d="M2083.91 1469.17 Q2080.58 1469.17 2078.66 1470.95 Q2076.76 1472.73 2076.76 1475.86 Q2076.76 1478.98 2078.66 1480.77 Q2080.58 1482.55 2083.91 1482.55 Q2087.24 1482.55 2089.16 1480.77 Q2091.09 1478.96 2091.09 1475.86 Q2091.09 1472.73 2089.16 1470.95 Q2087.27 1469.17 2083.91 1469.17 M2079.23 1467.18 Q2076.22 1466.44 2074.54 1464.38 Q2072.87 1462.32 2072.87 1459.35 Q2072.87 1455.21 2075.81 1452.8 Q2078.77 1450.39 2083.91 1450.39 Q2089.07 1450.39 2092.01 1452.8 Q2094.95 1455.21 2094.95 1459.35 Q2094.95 1462.32 2093.26 1464.38 Q2091.6 1466.44 2088.61 1467.18 Q2091.99 1467.96 2093.86 1470.26 Q2095.76 1472.55 2095.76 1475.86 Q2095.76 1480.88 2092.68 1483.57 Q2089.63 1486.25 2083.91 1486.25 Q2078.19 1486.25 2075.11 1483.57 Q2072.06 1480.88 2072.06 1475.86 Q2072.06 1472.55 2073.96 1470.26 Q2075.85 1467.96 2079.23 1467.18 M2077.52 1459.79 Q2077.52 1462.48 2079.19 1463.98 Q2080.88 1465.49 2083.91 1465.49 Q2086.92 1465.49 2088.61 1463.98 Q2090.32 1462.48 2090.32 1459.79 Q2090.32 1457.11 2088.61 1455.6 Q2086.92 1454.1 2083.91 1454.1 Q2080.88 1454.1 2079.19 1455.6 Q2077.52 1457.11 2077.52 1459.79 Z" fill="#000000" fill-rule="nonzero" fill-opacity="1" /><path clip-path="url(#clip060)" d="M2114.07 1454.1 Q2110.46 1454.1 2108.63 1457.66 Q2106.83 1461.2 2106.83 1468.33 Q2106.83 1475.44 2108.63 1479.01 Q2110.46 1482.55 2114.07 1482.55 Q2117.71 1482.55 2119.51 1479.01 Q2121.34 1475.44 2121.34 1468.33 Q2121.34 1461.2 2119.51 1457.66 Q2117.71 1454.1 2114.07 1454.1 M2114.07 1450.39 Q2119.88 1450.39 2122.94 1455 Q2126.02 1459.58 2126.02 1468.33 Q2126.02 1477.06 2122.94 1481.67 Q2119.88 1486.25 2114.07 1486.25 Q2108.26 1486.25 2105.18 1481.67 Q2102.13 1477.06 2102.13 1468.33 Q2102.13 1459.58 2105.18 1455 Q2108.26 1450.39 2114.07 1450.39 Z" fill="#000000" fill-rule="nonzero" fill-opacity="1" /><path clip-path="url(#clip060)" d="M2254.65 1481.64 L2270.97 1481.64 L2270.97 1485.58 L2249.02 1485.58 L2249.02 1481.64 Q2251.68 1478.89 2256.27 1474.26 Q2260.87 1469.61 2262.05 1468.27 Q2264.3 1465.74 2265.18 1464.01 Q2266.08 1462.25 2266.08 1460.56 Q2266.08 1457.8 2264.14 1456.07 Q2262.22 1454.33 2259.11 1454.33 Q2256.92 1454.33 2254.46 1455.09 Q2252.03 1455.86 2249.25 1457.41 L2249.25 1452.69 Q2252.08 1451.55 2254.53 1450.97 Q2256.99 1450.39 2259.02 1450.39 Q2264.39 1450.39 2267.59 1453.08 Q2270.78 1455.77 2270.78 1460.26 Q2270.78 1462.39 2269.97 1464.31 Q2269.18 1466.2 2267.08 1468.8 Q2266.5 1469.47 2263.4 1472.69 Q2260.3 1475.88 2254.65 1481.64 Z" fill="#000000" fill-rule="nonzero" fill-opacity="1" /><path clip-path="url(#clip060)" d="M2290.78 1454.1 Q2287.17 1454.1 2285.34 1457.66 Q2283.54 1461.2 2283.54 1468.33 Q2283.54 1475.44 2285.34 1479.01 Q2287.17 1482.55 2290.78 1482.55 Q2294.42 1482.55 2296.22 1479.01 Q2298.05 1475.44 2298.05 1468.33 Q2298.05 1461.2 2296.22 1457.66 Q2294.42 1454.1 2290.78 1454.1 M2290.78 1450.39 Q2296.59 1450.39 2299.65 1455 Q2302.73 1459.58 2302.73 1468.33 Q2302.73 1477.06 2299.65 1481.67 Q2296.59 1486.25 2290.78 1486.25 Q2284.97 1486.25 2281.89 1481.67 Q2278.84 1477.06 2278.84 1468.33 Q2278.84 1459.58 2281.89 1455 Q2284.97 1450.39 2290.78 1450.39 Z" fill="#000000" fill-rule="nonzero" fill-opacity="1" /><path clip-path="url(#clip060)" d="M2320.94 1454.1 Q2317.33 1454.1 2315.5 1457.66 Q2313.7 1461.2 2313.7 1468.33 Q2313.7 1475.44 2315.5 1479.01 Q2317.33 1482.55 2320.94 1482.55 Q2324.58 1482.55 2326.38 1479.01 Q2328.21 1475.44 2328.21 1468.33 Q2328.21 1461.2 2326.38 1457.66 Q2324.58 1454.1 2320.94 1454.1 M2320.94 1450.39 Q2326.75 1450.39 2329.81 1455 Q2332.89 1459.58 2332.89 1468.33 Q2332.89 1477.06 2329.81 1481.67 Q2326.75 1486.25 2320.94 1486.25 Q2315.13 1486.25 2312.05 1481.67 Q2309 1477.06 2309 1468.33 Q2309 1459.58 2312.05 1455 Q2315.13 1450.39 2320.94 1450.39 Z" fill="#000000" fill-rule="nonzero" fill-opacity="1" /><path clip-path="url(#clip060)" d="M1177.5 1522.27 L1177.5 1532.4 L1189.56 1532.4 L1189.56 1536.95 L1177.5 1536.95 L1177.5 1556.3 Q1177.5 1560.66 1178.68 1561.9 Q1179.89 1563.14 1183.55 1563.14 L1189.56 1563.14 L1189.56 1568.04 L1183.55 1568.04 Q1176.77 1568.04 1174.19 1565.53 Q1171.61 1562.98 1171.61 1556.3 L1171.61 1536.95 L1167.31 1536.95 L1167.31 1532.4 L1171.61 1532.4 L1171.61 1522.27 L1177.5 1522.27 Z" fill="#000000" fill-rule="nonzero" fill-opacity="1" /><path clip-path="url(#clip060)" d="M1232.05 1518.58 Q1227.79 1525.9 1225.72 1533.06 Q1223.65 1540.23 1223.65 1547.58 Q1223.65 1554.93 1225.72 1562.16 Q1227.82 1569.35 1232.05 1576.64 L1226.96 1576.64 Q1222.19 1569.16 1219.8 1561.93 Q1217.44 1554.71 1217.44 1547.58 Q1217.44 1540.48 1219.8 1533.29 Q1222.16 1526.09 1226.96 1518.58 L1232.05 1518.58 Z" fill="#000000" fill-rule="nonzero" fill-opacity="1" /><path clip-path="url(#clip060)" d="M1271.17 1539.24 Q1273.37 1535.29 1276.42 1533.41 Q1279.48 1531.54 1283.62 1531.54 Q1289.19 1531.54 1292.21 1535.45 Q1295.23 1539.33 1295.23 1546.53 L1295.23 1568.04 L1289.35 1568.04 L1289.35 1546.72 Q1289.35 1541.59 1287.53 1539.11 Q1285.72 1536.63 1281.99 1536.63 Q1277.44 1536.63 1274.8 1539.65 Q1272.16 1542.68 1272.16 1547.9 L1272.16 1568.04 L1266.27 1568.04 L1266.27 1546.72 Q1266.27 1541.56 1264.46 1539.11 Q1262.64 1536.63 1258.85 1536.63 Q1254.37 1536.63 1251.72 1539.68 Q1249.08 1542.71 1249.08 1547.9 L1249.08 1568.04 L1243.19 1568.04 L1243.19 1532.4 L1249.08 1532.4 L1249.08 1537.93 Q1251.09 1534.66 1253.89 1533.1 Q1256.69 1531.54 1260.54 1531.54 Q1264.42 1531.54 1267.13 1533.51 Q1269.87 1535.48 1271.17 1539.24 Z" fill="#000000" fill-rule="nonzero" fill-opacity="1" /><path clip-path="url(#clip060)" d="M1329.64 1533.45 L1329.64 1538.98 Q1327.16 1537.71 1324.48 1537.07 Q1321.81 1536.44 1318.95 1536.44 Q1314.59 1536.44 1312.39 1537.77 Q1310.23 1539.11 1310.23 1541.79 Q1310.23 1543.82 1311.78 1545 Q1313.34 1546.15 1318.05 1547.2 L1320.06 1547.64 Q1326.3 1548.98 1328.91 1551.43 Q1331.55 1553.85 1331.55 1558.21 Q1331.55 1563.17 1327.6 1566.07 Q1323.69 1568.97 1316.81 1568.97 Q1313.95 1568.97 1310.83 1568.39 Q1307.74 1567.85 1304.3 1566.74 L1304.3 1560.69 Q1307.55 1562.38 1310.7 1563.24 Q1313.85 1564.07 1316.94 1564.07 Q1321.08 1564.07 1323.31 1562.66 Q1325.53 1561.23 1325.53 1558.65 Q1325.53 1556.27 1323.91 1554.99 Q1322.32 1553.72 1316.88 1552.54 L1314.84 1552.07 Q1309.4 1550.92 1306.98 1548.56 Q1304.56 1546.18 1304.56 1542.04 Q1304.56 1537.01 1308.12 1534.27 Q1311.69 1531.54 1318.25 1531.54 Q1321.49 1531.54 1324.36 1532.01 Q1327.22 1532.49 1329.64 1533.45 Z" fill="#000000" fill-rule="nonzero" fill-opacity="1" /><path clip-path="url(#clip060)" d="M1339.95 1518.58 L1345.05 1518.58 Q1349.82 1526.09 1352.18 1533.29 Q1354.56 1540.48 1354.56 1547.58 Q1354.56 1554.71 1352.18 1561.93 Q1349.82 1569.16 1345.05 1576.64 L1339.95 1576.64 Q1344.19 1569.35 1346.25 1562.16 Q1348.36 1554.93 1348.36 1547.58 Q1348.36 1540.23 1346.25 1533.06 Q1344.19 1525.9 1339.95 1518.58 Z" fill="#000000" fill-rule="nonzero" fill-opacity="1" /><polyline clip-path="url(#clip060)" style="stroke:#000000; stroke-linecap:round; stroke-linejoin:round; stroke-width:4; stroke-opacity:1; fill:none" points="169.121,1423.18 169.121,47.2441 "/>
<polyline clip-path="url(#clip060)" style="stroke:#000000; stroke-linecap:round; stroke-linejoin:round; stroke-width:4; stroke-opacity:1; fill:none" points="169.121,1325.24 188.019,1325.24 "/>
<polyline clip-path="url(#clip060)" style="stroke:#000000; stroke-linecap:round; stroke-linejoin:round; stroke-width:4; stroke-opacity:1; fill:none" points="169.121,1030.22 188.019,1030.22 "/>
<polyline clip-path="url(#clip060)" style="stroke:#000000; stroke-linecap:round; stroke-linejoin:round; stroke-width:4; stroke-opacity:1; fill:none" points="169.121,735.212 188.019,735.212 "/>
<polyline clip-path="url(#clip060)" style="stroke:#000000; stroke-linecap:round; stroke-linejoin:round; stroke-width:4; stroke-opacity:1; fill:none" points="169.121,440.2 188.019,440.2 "/>
<polyline clip-path="url(#clip060)" style="stroke:#000000; stroke-linecap:round; stroke-linejoin:round; stroke-width:4; stroke-opacity:1; fill:none" points="169.121,145.188 188.019,145.188 "/>
<path clip-path="url(#clip060)" d="M121.177 1311.03 Q117.566 1311.03 115.737 1314.6 Q113.932 1318.14 113.932 1325.27 Q113.932 1332.38 115.737 1335.94 Q117.566 1339.48 121.177 1339.48 Q124.811 1339.48 126.617 1335.94 Q128.445 1332.38 128.445 1325.27 Q128.445 1318.14 126.617 1314.6 Q124.811 1311.03 121.177 1311.03 M121.177 1307.33 Q126.987 1307.33 130.043 1311.94 Q133.121 1316.52 133.121 1325.27 Q133.121 1334 130.043 1338.6 Q126.987 1343.19 121.177 1343.19 Q115.367 1343.19 112.288 1338.6 Q109.233 1334 109.233 1325.27 Q109.233 1316.52 112.288 1311.94 Q115.367 1307.33 121.177 1307.33 Z" fill="#000000" fill-rule="nonzero" fill-opacity="1" /><path clip-path="url(#clip060)" d="M86.0382 1043.57 L102.358 1043.57 L102.358 1047.5 L80.4133 1047.5 L80.4133 1043.57 Q83.0753 1040.81 87.6586 1036.18 Q92.2651 1031.53 93.4456 1030.19 Q95.691 1027.67 96.5706 1025.93 Q97.4734 1024.17 97.4734 1022.48 Q97.4734 1019.73 95.5289 1017.99 Q93.6076 1016.25 90.5058 1016.25 Q88.3067 1016.25 85.8531 1017.02 Q83.4225 1017.78 80.6447 1019.33 L80.6447 1014.61 Q83.4688 1013.48 85.9225 1012.9 Q88.3762 1012.32 90.4132 1012.32 Q95.7836 1012.32 98.978 1015 Q102.172 1017.69 102.172 1022.18 Q102.172 1024.31 101.362 1026.23 Q100.575 1028.13 98.4687 1030.72 Q97.89 1031.39 94.7882 1034.61 Q91.6864 1037.8 86.0382 1043.57 Z" fill="#000000" fill-rule="nonzero" fill-opacity="1" /><path clip-path="url(#clip060)" d="M112.219 1012.94 L130.575 1012.94 L130.575 1016.88 L116.501 1016.88 L116.501 1025.35 Q117.52 1025 118.538 1024.84 Q119.557 1024.66 120.575 1024.66 Q126.362 1024.66 129.742 1027.83 Q133.121 1031 133.121 1036.42 Q133.121 1041.99 129.649 1045.1 Q126.177 1048.18 119.857 1048.18 Q117.682 1048.18 115.413 1047.8 Q113.168 1047.43 110.76 1046.69 L110.76 1041.99 Q112.844 1043.13 115.066 1043.68 Q117.288 1044.24 119.765 1044.24 Q123.77 1044.24 126.107 1042.13 Q128.445 1040.03 128.445 1036.42 Q128.445 1032.8 126.107 1030.7 Q123.77 1028.59 119.765 1028.59 Q117.89 1028.59 116.015 1029.01 Q114.163 1029.43 112.219 1030.3 L112.219 1012.94 Z" fill="#000000" fill-rule="nonzero" fill-opacity="1" /><path clip-path="url(#clip060)" d="M81.0614 717.932 L99.4178 717.932 L99.4178 721.867 L85.3438 721.867 L85.3438 730.339 Q86.3623 729.992 87.3808 729.83 Q88.3993 729.645 89.4178 729.645 Q95.2049 729.645 98.5845 732.816 Q101.964 735.987 101.964 741.404 Q101.964 746.983 98.4919 750.085 Q95.0197 753.163 88.7003 753.163 Q86.5243 753.163 84.2558 752.793 Q82.0105 752.423 79.6031 751.682 L79.6031 746.983 Q81.6864 748.117 83.9086 748.673 Q86.1308 749.228 88.6077 749.228 Q92.6123 749.228 94.9502 747.122 Q97.2882 745.015 97.2882 741.404 Q97.2882 737.793 94.9502 735.687 Q92.6123 733.58 88.6077 733.58 Q86.7327 733.58 84.8577 733.997 Q83.0058 734.413 81.0614 735.293 L81.0614 717.932 Z" fill="#000000" fill-rule="nonzero" fill-opacity="1" /><path clip-path="url(#clip060)" d="M121.177 721.011 Q117.566 721.011 115.737 724.575 Q113.932 728.117 113.932 735.247 Q113.932 742.353 115.737 745.918 Q117.566 749.46 121.177 749.46 Q124.811 749.46 126.617 745.918 Q128.445 742.353 128.445 735.247 Q128.445 728.117 126.617 724.575 Q124.811 721.011 121.177 721.011 M121.177 717.307 Q126.987 717.307 130.043 721.913 Q133.121 726.497 133.121 735.247 Q133.121 743.973 130.043 748.58 Q126.987 753.163 121.177 753.163 Q115.367 753.163 112.288 748.58 Q109.233 743.973 109.233 735.247 Q109.233 726.497 112.288 721.913 Q115.367 717.307 121.177 717.307 Z" fill="#000000" fill-rule="nonzero" fill-opacity="1" /><path clip-path="url(#clip060)" d="M80.8299 422.92 L103.052 422.92 L103.052 424.911 L90.5058 457.48 L85.6216 457.48 L97.4271 426.855 L80.8299 426.855 L80.8299 422.92 Z" fill="#000000" fill-rule="nonzero" fill-opacity="1" /><path clip-path="url(#clip060)" d="M112.219 422.92 L130.575 422.92 L130.575 426.855 L116.501 426.855 L116.501 435.327 Q117.52 434.98 118.538 434.818 Q119.557 434.633 120.575 434.633 Q126.362 434.633 129.742 437.804 Q133.121 440.975 133.121 446.392 Q133.121 451.971 129.649 455.073 Q126.177 458.151 119.857 458.151 Q117.682 458.151 115.413 457.781 Q113.168 457.411 110.76 456.67 L110.76 451.971 Q112.844 453.105 115.066 453.661 Q117.288 454.216 119.765 454.216 Q123.77 454.216 126.107 452.11 Q128.445 450.003 128.445 446.392 Q128.445 442.781 126.107 440.675 Q123.77 438.568 119.765 438.568 Q117.89 438.568 116.015 438.985 Q114.163 439.401 112.219 440.281 L112.219 422.92 Z" fill="#000000" fill-rule="nonzero" fill-opacity="1" /><path clip-path="url(#clip060)" d="M51.6634 158.533 L59.3023 158.533 L59.3023 132.167 L50.9921 133.834 L50.9921 129.575 L59.256 127.908 L63.9319 127.908 L63.9319 158.533 L71.5707 158.533 L71.5707 162.468 L51.6634 162.468 L51.6634 158.533 Z" fill="#000000" fill-rule="nonzero" fill-opacity="1" /><path clip-path="url(#clip060)" d="M91.0151 130.987 Q87.404 130.987 85.5753 134.552 Q83.7697 138.093 83.7697 145.223 Q83.7697 152.329 85.5753 155.894 Q87.404 159.436 91.0151 159.436 Q94.6493 159.436 96.4548 155.894 Q98.2835 152.329 98.2835 145.223 Q98.2835 138.093 96.4548 134.552 Q94.6493 130.987 91.0151 130.987 M91.0151 127.283 Q96.8252 127.283 99.8808 131.89 Q102.959 136.473 102.959 145.223 Q102.959 153.95 99.8808 158.556 Q96.8252 163.139 91.0151 163.139 Q85.2049 163.139 82.1262 158.556 Q79.0707 153.95 79.0707 145.223 Q79.0707 136.473 82.1262 131.89 Q85.2049 127.283 91.0151 127.283 Z" fill="#000000" fill-rule="nonzero" fill-opacity="1" /><path clip-path="url(#clip060)" d="M121.177 130.987 Q117.566 130.987 115.737 134.552 Q113.932 138.093 113.932 145.223 Q113.932 152.329 115.737 155.894 Q117.566 159.436 121.177 159.436 Q124.811 159.436 126.617 155.894 Q128.445 152.329 128.445 145.223 Q128.445 138.093 126.617 134.552 Q124.811 130.987 121.177 130.987 M121.177 127.283 Q126.987 127.283 130.043 131.89 Q133.121 136.473 133.121 145.223 Q133.121 153.95 130.043 158.556 Q126.987 163.139 121.177 163.139 Q115.367 163.139 112.288 158.556 Q109.233 153.95 109.233 145.223 Q109.233 136.473 112.288 131.89 Q115.367 127.283 121.177 127.283 Z" fill="#000000" fill-rule="nonzero" fill-opacity="1" /><polyline clip-path="url(#clip061)" style="stroke:#000000; stroke-linecap:round; stroke-linejoin:round; stroke-width:8; stroke-opacity:1; fill:none" points="230.922,145.188 241.222,168.555 251.523,191.458 261.823,213.909 272.123,235.914 282.423,257.484 292.723,278.627 303.023,299.352 313.324,319.665 323.624,339.577 333.924,359.094 344.224,378.225 354.524,396.977 364.824,415.358 375.125,433.375 385.425,451.035 395.725,468.345 406.025,485.313 416.325,501.944 426.625,518.247 436.926,534.226 447.226,549.889 457.526,565.242 467.826,580.291 478.126,595.042 488.426,609.501 498.727,623.673 509.027,637.565 519.327,651.182 529.627,664.529 539.927,677.612 550.227,690.436 560.528,703.006 570.828,715.327 581.128,727.404 591.428,739.241 601.728,750.845 612.028,762.219 622.328,773.367 632.629,784.295 642.929,795.006 653.229,805.505 663.529,815.797 673.829,825.884 684.129,835.772 694.43,845.464 704.73,854.964 715.03,864.276 725.33,873.404 735.63,882.351 745.93,891.121 756.231,899.717 766.531,908.142 776.831,916.401 787.131,924.497 797.431,932.432 807.731,940.21 818.032,947.834 828.332,955.307 838.632,962.632 848.932,969.812 859.232,976.85 869.532,983.749 879.833,990.511 890.133,997.139 900.433,1003.64 910.733,1010 921.033,1016.25 931.333,1022.36 941.634,1028.36 951.934,1034.24 962.234,1040 972.534,1045.65 982.834,1051.19 993.134,1056.61 1003.43,1061.93 1013.73,1067.15 1024.03,1072.26 1034.34,1077.27 1044.64,1082.18 1054.94,1086.99 1065.24,1091.71 1075.54,1096.33 1085.84,1100.86 1096.14,1105.31 1106.44,1109.66 1116.74,1113.93 1127.04,1118.11 1137.34,1122.21 1147.64,1126.23 1157.94,1130.18 1168.24,1134.04 1178.54,1137.82 1188.84,1141.53 1199.14,1145.17 1209.44,1148.74 1219.74,1152.23 1230.04,1155.66 1240.34,1159.02 1250.64,1162.31 1260.94,1165.53 1271.24,1168.7 1281.54,1171.8 1291.84,1174.83 1302.14,1177.81 1312.44,1180.73 1322.74,1183.59 1333.04,1186.4 1343.34,1189.15 1353.64,1191.84 1363.94,1194.48 1374.24,1197.07 1384.54,1199.61 1394.84,1202.1 1405.14,1204.54 1415.44,1206.93 1425.74,1209.27 1436.04,1211.56 1446.34,1213.82 1456.64,1216.02 1466.94,1218.18 1477.24,1220.3 1487.54,1222.38 1497.84,1224.42 1508.14,1226.41 1518.44,1228.37 1528.74,1230.29 1539.04,1232.17 1549.34,1234.01 1559.64,1235.82 1569.94,1237.59 1580.24,1239.33 1590.54,1241.03 1600.84,1242.69 1611.14,1244.33 1621.44,1245.93 1631.74,1247.5 1642.04,1249.04 1652.34,1250.55 1662.64,1252.03 1672.95,1253.48 1683.25,1254.9 1693.55,1256.29 1703.85,1257.66 1714.15,1258.99 1724.45,1260.31 1734.75,1261.59 1745.05,1262.85 1755.35,1264.09 1765.65,1265.3 1775.95,1266.48 1786.25,1267.65 1796.55,1268.79 1806.85,1269.91 1817.15,1271 1827.45,1272.08 1837.75,1273.13 1848.05,1274.16 1858.35,1275.17 1868.65,1276.16 1878.95,1277.13 1889.25,1278.09 1899.55,1279.02 1909.85,1279.94 1920.15,1280.83 1930.45,1281.71 1940.75,1282.57 1951.05,1283.42 1961.35,1284.25 1971.65,1285.06 1981.95,1285.85 1992.25,1286.63 2002.55,1287.4 2012.85,1288.15 2023.15,1288.88 2033.45,1289.6 2043.75,1290.31 2054.05,1291 2064.35,1291.68 2074.65,1292.34 2084.95,1292.99 2095.25,1293.63 2105.55,1294.26 2115.85,1294.87 2126.15,1295.47 2136.45,1296.06 2146.75,1296.64 2157.05,1297.2 2167.35,1297.76 2177.65,1298.3 2187.95,1298.84 2198.25,1299.36 2208.55,1299.87 2218.85,1300.37 2229.15,1300.87 2239.45,1301.35 2249.75,1301.82 2260.05,1302.29 2270.35,1302.74 2280.65,1303.19 2290.95,1303.62 "/>
<circle clip-path="url(#clip061)" cx="282.423" cy="257.484" r="14.4" fill="#e26f46" fill-rule="evenodd" fill-opacity="1" stroke="none"/>
<circle clip-path="url(#clip061)" cx="539.927" cy="677.612" r="14.4" fill="#e26f46" fill-rule="evenodd" fill-opacity="1" stroke="none"/>
<circle clip-path="url(#clip061)" cx="797.431" cy="932.432" r="14.4" fill="#e26f46" fill-rule="evenodd" fill-opacity="1" stroke="none"/>
<circle clip-path="url(#clip061)" cx="1054.94" cy="1086.99" r="14.4" fill="#e26f46" fill-rule="evenodd" fill-opacity="1" stroke="none"/>
<circle clip-path="url(#clip061)" cx="1312.44" cy="1180.73" r="14.4" fill="#e26f46" fill-rule="evenodd" fill-opacity="1" stroke="none"/>
<circle clip-path="url(#clip061)" cx="1569.94" cy="1237.59" r="14.4" fill="#e26f46" fill-rule="evenodd" fill-opacity="1" stroke="none"/>
<circle clip-path="url(#clip061)" cx="1827.45" cy="1272.08" r="14.4" fill="#e26f46" fill-rule="evenodd" fill-opacity="1" stroke="none"/>
<circle clip-path="url(#clip061)" cx="2084.95" cy="1292.99" r="14.4" fill="#e26f46" fill-rule="evenodd" fill-opacity="1" stroke="none"/>
<path clip-path="url(#clip061)" d="M266.423 227.209 L266.423 259.209 L298.423 259.209 L298.423 227.209 L266.423 227.209 Z" fill="#3da44d" fill-rule="evenodd" fill-opacity="1" stroke="none"/>
<path clip-path="url(#clip061)" d="M523.927 676.847 L523.927 708.847 L555.927 708.847 L555.927 676.847 L523.927 676.847 Z" fill="#3da44d" fill-rule="evenodd" fill-opacity="1" stroke="none"/>
<path clip-path="url(#clip061)" d="M781.431 923.903 L781.431 955.903 L813.431 955.903 L813.431 923.903 L781.431 923.903 Z" fill="#3da44d" fill-rule="evenodd" fill-opacity="1" stroke="none"/>
<path clip-path="url(#clip061)" d="M1038.94 1049.26 L1038.94 1081.26 L1070.94 1081.26 L1070.94 1049.26 L1038.94 1049.26 Z" fill="#3da44d" fill-rule="evenodd" fill-opacity="1" stroke="none"/>
<path clip-path="url(#clip061)" d="M1296.44 1172.39 L1296.44 1204.39 L1328.44 1204.39 L1328.44 1172.39 L1296.44 1172.39 Z" fill="#3da44d" fill-rule="evenodd" fill-opacity="1" stroke="none"/>
<path clip-path="url(#clip061)" d="M1553.94 1186.44 L1553.94 1218.44 L1585.94 1218.44 L1585.94 1186.44 L1553.94 1186.44 Z" fill="#3da44d" fill-rule="evenodd" fill-opacity="1" stroke="none"/>
<path clip-path="url(#clip061)" d="M1811.45 1259 L1811.45 1291 L1843.45 1291 L1843.45 1259 L1811.45 1259 Z" fill="#3da44d" fill-rule="evenodd" fill-opacity="1" stroke="none"/>
<path clip-path="url(#clip061)" d="M2068.95 1316.65 L2068.95 1348.65 L2100.95 1348.65 L2100.95 1316.65 L2068.95 1316.65 Z" fill="#3da44d" fill-rule="evenodd" fill-opacity="1" stroke="none"/>
<circle clip-path="url(#clip061)" cx="282.423" cy="1325.24" r="14.4" fill="#c271d2" fill-rule="evenodd" fill-opacity="1" stroke="none"/>
<circle clip-path="url(#clip061)" cx="539.927" cy="1292.87" r="14.4" fill="#c271d2" fill-rule="evenodd" fill-opacity="1" stroke="none"/>
<circle clip-path="url(#clip061)" cx="797.431" cy="1315.84" r="14.4" fill="#c271d2" fill-rule="evenodd" fill-opacity="1" stroke="none"/>
<circle clip-path="url(#clip061)" cx="1054.94" cy="1314.93" r="14.4" fill="#c271d2" fill-rule="evenodd" fill-opacity="1" stroke="none"/>
<circle clip-path="url(#clip061)" cx="1312.44" cy="1308.46" r="14.4" fill="#c271d2" fill-rule="evenodd" fill-opacity="1" stroke="none"/>
<circle clip-path="url(#clip061)" cx="1569.94" cy="1305.54" r="14.4" fill="#c271d2" fill-rule="evenodd" fill-opacity="1" stroke="none"/>
<circle clip-path="url(#clip061)" cx="1827.45" cy="1304.21" r="14.4" fill="#c271d2" fill-rule="evenodd" fill-opacity="1" stroke="none"/>
<circle clip-path="url(#clip061)" cx="2084.95" cy="1328.07" r="14.4" fill="#c271d2" fill-rule="evenodd" fill-opacity="1" stroke="none"/>
<path clip-path="url(#clip060)" d="M1285.64 300.469 L2279.97 300.469 L2279.97 93.1086 L1285.64 93.1086  Z" fill="#ffffff" fill-rule="evenodd" fill-opacity="1"/>
<polyline clip-path="url(#clip060)" style="stroke:#000000; stroke-linecap:round; stroke-linejoin:round; stroke-width:4; stroke-opacity:1; fill:none" points="1285.64,300.469 2279.97,300.469 2279.97,93.1086 1285.64,93.1086 1285.64,300.469 "/>
<circle clip-path="url(#clip060)" cx="1382.69" cy="144.949" r="20.48" fill="#e26f46" fill-rule="evenodd" fill-opacity="1" stroke="none"/>
<path clip-path="url(#clip060)" d="M1479.74 127.669 L1486.03 127.669 L1501.36 156.581 L1501.36 127.669 L1505.89 127.669 L1505.89 162.229 L1499.6 162.229 L1484.27 133.317 L1484.27 162.229 L1479.74 162.229 L1479.74 127.669 Z" fill="#000000" fill-rule="nonzero" fill-opacity="1" /><path clip-path="url(#clip060)" d="M1525.06 139.289 Q1521.64 139.289 1519.64 141.974 Q1517.65 144.636 1517.65 149.289 Q1517.65 153.942 1519.62 156.627 Q1521.61 159.289 1525.06 159.289 Q1528.46 159.289 1530.45 156.604 Q1532.45 153.918 1532.45 149.289 Q1532.45 144.682 1530.45 141.997 Q1528.46 139.289 1525.06 139.289 M1525.06 135.678 Q1530.62 135.678 1533.79 139.289 Q1536.96 142.9 1536.96 149.289 Q1536.96 155.655 1533.79 159.289 Q1530.62 162.9 1525.06 162.9 Q1519.48 162.9 1516.31 159.289 Q1513.16 155.655 1513.16 149.289 Q1513.16 142.9 1516.31 139.289 Q1519.48 135.678 1525.06 135.678 Z" fill="#000000" fill-rule="nonzero" fill-opacity="1" /><path clip-path="url(#clip060)" d="M1544.02 136.303 L1548.28 136.303 L1548.28 162.229 L1544.02 162.229 L1544.02 136.303 M1544.02 126.21 L1548.28 126.21 L1548.28 131.604 L1544.02 131.604 L1544.02 126.21 Z" fill="#000000" fill-rule="nonzero" fill-opacity="1" /><path clip-path="url(#clip060)" d="M1573.72 137.067 L1573.72 141.094 Q1571.91 140.169 1569.97 139.706 Q1568.02 139.243 1565.94 139.243 Q1562.77 139.243 1561.17 140.215 Q1559.6 141.187 1559.6 143.131 Q1559.6 144.613 1560.73 145.469 Q1561.87 146.303 1565.29 147.067 L1566.75 147.391 Q1571.29 148.363 1573.19 150.145 Q1575.11 151.905 1575.11 155.076 Q1575.11 158.687 1572.24 160.793 Q1569.39 162.9 1564.39 162.9 Q1562.31 162.9 1560.04 162.483 Q1557.79 162.09 1555.29 161.28 L1555.29 156.881 Q1557.65 158.108 1559.95 158.733 Q1562.24 159.335 1564.48 159.335 Q1567.49 159.335 1569.11 158.317 Q1570.73 157.275 1570.73 155.4 Q1570.73 153.664 1569.55 152.738 Q1568.39 151.812 1564.44 150.956 L1562.95 150.608 Q1559 149.775 1557.24 148.062 Q1555.48 146.326 1555.48 143.317 Q1555.48 139.659 1558.07 137.669 Q1560.66 135.678 1565.43 135.678 Q1567.79 135.678 1569.88 136.025 Q1571.96 136.372 1573.72 137.067 Z" fill="#000000" fill-rule="nonzero" fill-opacity="1" /><path clip-path="url(#clip060)" d="M1604.07 148.201 L1604.07 150.284 L1584.48 150.284 Q1584.76 154.682 1587.12 156.997 Q1589.51 159.289 1593.74 159.289 Q1596.2 159.289 1598.49 158.687 Q1600.8 158.085 1603.07 156.881 L1603.07 160.909 Q1600.78 161.881 1598.37 162.391 Q1595.96 162.9 1593.49 162.9 Q1587.28 162.9 1583.65 159.289 Q1580.04 155.678 1580.04 149.52 Q1580.04 143.155 1583.46 139.428 Q1586.91 135.678 1592.75 135.678 Q1597.98 135.678 1601.01 139.057 Q1604.07 142.414 1604.07 148.201 M1599.81 146.951 Q1599.76 143.456 1597.84 141.372 Q1595.94 139.289 1592.79 139.289 Q1589.23 139.289 1587.07 141.303 Q1584.95 143.317 1584.62 146.974 L1599.81 146.951 Z" fill="#000000" fill-rule="nonzero" fill-opacity="1" /><path clip-path="url(#clip060)" d="M1611.06 126.21 L1615.32 126.21 L1615.32 162.229 L1611.06 162.229 L1611.06 126.21 Z" fill="#000000" fill-rule="nonzero" fill-opacity="1" /><path clip-path="url(#clip060)" d="M1646.4 148.201 L1646.4 150.284 L1626.82 150.284 Q1627.1 154.682 1629.46 156.997 Q1631.84 159.289 1636.08 159.289 Q1638.53 159.289 1640.82 158.687 Q1643.14 158.085 1645.41 156.881 L1645.41 160.909 Q1643.12 161.881 1640.71 162.391 Q1638.3 162.9 1635.82 162.9 Q1629.62 162.9 1625.99 159.289 Q1622.38 155.678 1622.38 149.52 Q1622.38 143.155 1625.8 139.428 Q1629.25 135.678 1635.08 135.678 Q1640.32 135.678 1643.35 139.057 Q1646.4 142.414 1646.4 148.201 M1642.14 146.951 Q1642.1 143.456 1640.18 141.372 Q1638.28 139.289 1635.13 139.289 Q1631.57 139.289 1629.41 141.303 Q1627.28 143.317 1626.96 146.974 L1642.14 146.951 Z" fill="#000000" fill-rule="nonzero" fill-opacity="1" /><path clip-path="url(#clip060)" d="M1669.92 137.067 L1669.92 141.094 Q1668.12 140.169 1666.17 139.706 Q1664.23 139.243 1662.14 139.243 Q1658.97 139.243 1657.38 140.215 Q1655.8 141.187 1655.8 143.131 Q1655.8 144.613 1656.94 145.469 Q1658.07 146.303 1661.5 147.067 L1662.95 147.391 Q1667.49 148.363 1669.39 150.145 Q1671.31 151.905 1671.31 155.076 Q1671.31 158.687 1668.44 160.793 Q1665.59 162.9 1660.59 162.9 Q1658.51 162.9 1656.24 162.483 Q1654 162.09 1651.5 161.28 L1651.5 156.881 Q1653.86 158.108 1656.15 158.733 Q1658.44 159.335 1660.69 159.335 Q1663.69 159.335 1665.32 158.317 Q1666.94 157.275 1666.94 155.4 Q1666.94 153.664 1665.75 152.738 Q1664.6 151.812 1660.64 150.956 L1659.16 150.608 Q1655.2 149.775 1653.44 148.062 Q1651.68 146.326 1651.68 143.317 Q1651.68 139.659 1654.27 137.669 Q1656.87 135.678 1661.63 135.678 Q1664 135.678 1666.08 136.025 Q1668.16 136.372 1669.92 137.067 Z" fill="#000000" fill-rule="nonzero" fill-opacity="1" /><path clip-path="url(#clip060)" d="M1694.62 137.067 L1694.62 141.094 Q1692.81 140.169 1690.87 139.706 Q1688.93 139.243 1686.84 139.243 Q1683.67 139.243 1682.07 140.215 Q1680.5 141.187 1680.5 143.131 Q1680.5 144.613 1681.63 145.469 Q1682.77 146.303 1686.19 147.067 L1687.65 147.391 Q1692.19 148.363 1694.09 150.145 Q1696.01 151.905 1696.01 155.076 Q1696.01 158.687 1693.14 160.793 Q1690.29 162.9 1685.29 162.9 Q1683.21 162.9 1680.94 162.483 Q1678.69 162.09 1676.19 161.28 L1676.19 156.881 Q1678.56 158.108 1680.85 158.733 Q1683.14 159.335 1685.38 159.335 Q1688.39 159.335 1690.01 158.317 Q1691.63 157.275 1691.63 155.4 Q1691.63 153.664 1690.45 152.738 Q1689.3 151.812 1685.34 150.956 L1683.86 150.608 Q1679.9 149.775 1678.14 148.062 Q1676.38 146.326 1676.38 143.317 Q1676.38 139.659 1678.97 137.669 Q1681.57 135.678 1686.33 135.678 Q1688.69 135.678 1690.78 136.025 Q1692.86 136.372 1694.62 137.067 Z" fill="#000000" fill-rule="nonzero" fill-opacity="1" /><path clip-path="url(#clip060)" d="M1734.92 140.238 L1734.92 126.21 L1739.18 126.21 L1739.18 162.229 L1734.92 162.229 L1734.92 158.34 Q1733.58 160.655 1731.52 161.789 Q1729.48 162.9 1726.61 162.9 Q1721.91 162.9 1718.95 159.15 Q1716.01 155.4 1716.01 149.289 Q1716.01 143.178 1718.95 139.428 Q1721.91 135.678 1726.61 135.678 Q1729.48 135.678 1731.52 136.812 Q1733.58 137.923 1734.92 140.238 M1720.41 149.289 Q1720.41 153.988 1722.33 156.673 Q1724.27 159.335 1727.65 159.335 Q1731.03 159.335 1732.98 156.673 Q1734.92 153.988 1734.92 149.289 Q1734.92 144.59 1732.98 141.928 Q1731.03 139.243 1727.65 139.243 Q1724.27 139.243 1722.33 141.928 Q1720.41 144.59 1720.41 149.289 Z" fill="#000000" fill-rule="nonzero" fill-opacity="1" /><path clip-path="url(#clip060)" d="M1759.74 149.196 Q1754.57 149.196 1752.58 150.377 Q1750.59 151.557 1750.59 154.405 Q1750.59 156.673 1752.07 158.016 Q1753.58 159.335 1756.15 159.335 Q1759.69 159.335 1761.82 156.835 Q1763.97 154.312 1763.97 150.145 L1763.97 149.196 L1759.74 149.196 M1768.23 147.437 L1768.23 162.229 L1763.97 162.229 L1763.97 158.293 Q1762.51 160.655 1760.34 161.789 Q1758.16 162.9 1755.01 162.9 Q1751.03 162.9 1748.67 160.678 Q1746.33 158.432 1746.33 154.682 Q1746.33 150.307 1749.25 148.085 Q1752.19 145.863 1758 145.863 L1763.97 145.863 L1763.97 145.446 Q1763.97 142.507 1762.03 140.909 Q1760.11 139.289 1756.61 139.289 Q1754.39 139.289 1752.28 139.821 Q1750.18 140.354 1748.23 141.419 L1748.23 137.483 Q1750.57 136.581 1752.77 136.141 Q1754.97 135.678 1757.05 135.678 Q1762.68 135.678 1765.45 138.594 Q1768.23 141.511 1768.23 147.437 Z" fill="#000000" fill-rule="nonzero" fill-opacity="1" /><path clip-path="url(#clip060)" d="M1781.22 128.942 L1781.22 136.303 L1789.99 136.303 L1789.99 139.613 L1781.22 139.613 L1781.22 153.687 Q1781.22 156.858 1782.07 157.761 Q1782.95 158.664 1785.62 158.664 L1789.99 158.664 L1789.99 162.229 L1785.62 162.229 Q1780.68 162.229 1778.81 160.4 Q1776.93 158.548 1776.93 153.687 L1776.93 139.613 L1773.81 139.613 L1773.81 136.303 L1776.93 136.303 L1776.93 128.942 L1781.22 128.942 Z" fill="#000000" fill-rule="nonzero" fill-opacity="1" /><path clip-path="url(#clip060)" d="M1807.37 149.196 Q1802.21 149.196 1800.22 150.377 Q1798.23 151.557 1798.23 154.405 Q1798.23 156.673 1799.71 158.016 Q1801.22 159.335 1803.79 159.335 Q1807.33 159.335 1809.46 156.835 Q1811.61 154.312 1811.61 150.145 L1811.61 149.196 L1807.37 149.196 M1815.87 147.437 L1815.87 162.229 L1811.61 162.229 L1811.61 158.293 Q1810.15 160.655 1807.98 161.789 Q1805.8 162.9 1802.65 162.9 Q1798.67 162.9 1796.31 160.678 Q1793.97 158.432 1793.97 154.682 Q1793.97 150.307 1796.89 148.085 Q1799.83 145.863 1805.64 145.863 L1811.61 145.863 L1811.61 145.446 Q1811.61 142.507 1809.67 140.909 Q1807.74 139.289 1804.25 139.289 Q1802.03 139.289 1799.92 139.821 Q1797.81 140.354 1795.87 141.419 L1795.87 137.483 Q1798.21 136.581 1800.41 136.141 Q1802.61 135.678 1804.69 135.678 Q1810.31 135.678 1813.09 138.594 Q1815.87 141.511 1815.87 147.437 Z" fill="#000000" fill-rule="nonzero" fill-opacity="1" /><path clip-path="url(#clip060)" d="M1825.73 156.349 L1830.62 156.349 L1830.62 160.33 L1826.82 167.738 L1823.83 167.738 L1825.73 160.33 L1825.73 156.349 Z" fill="#000000" fill-rule="nonzero" fill-opacity="1" /><path clip-path="url(#clip060)" d="M1854.97 127.669 L1861.93 127.669 L1870.75 151.187 L1879.62 127.669 L1886.59 127.669 L1886.59 162.229 L1882.03 162.229 L1882.03 131.882 L1873.11 155.585 L1868.42 155.585 L1859.5 131.882 L1859.5 162.229 L1854.97 162.229 L1854.97 127.669 Z" fill="#000000" fill-rule="nonzero" fill-opacity="1" /><path clip-path="url(#clip060)" d="M1896.24 140.701 L1925.92 140.701 L1925.92 144.59 L1896.24 144.59 L1896.24 140.701 M1896.24 150.145 L1925.92 150.145 L1925.92 154.081 L1896.24 154.081 L1896.24 150.145 Z" fill="#000000" fill-rule="nonzero" fill-opacity="1" /><path clip-path="url(#clip060)" d="M1946.01 145.817 Q1942.67 145.817 1940.75 147.599 Q1938.86 149.381 1938.86 152.506 Q1938.86 155.631 1940.75 157.414 Q1942.67 159.196 1946.01 159.196 Q1949.34 159.196 1951.26 157.414 Q1953.18 155.608 1953.18 152.506 Q1953.18 149.381 1951.26 147.599 Q1949.36 145.817 1946.01 145.817 M1941.33 143.826 Q1938.32 143.085 1936.63 141.025 Q1934.97 138.965 1934.97 136.002 Q1934.97 131.858 1937.91 129.451 Q1940.87 127.044 1946.01 127.044 Q1951.17 127.044 1954.11 129.451 Q1957.05 131.858 1957.05 136.002 Q1957.05 138.965 1955.36 141.025 Q1953.69 143.085 1950.71 143.826 Q1954.09 144.613 1955.96 146.905 Q1957.86 149.196 1957.86 152.506 Q1957.86 157.53 1954.78 160.215 Q1951.73 162.9 1946.01 162.9 Q1940.29 162.9 1937.21 160.215 Q1934.16 157.53 1934.16 152.506 Q1934.16 149.196 1936.05 146.905 Q1937.95 144.613 1941.33 143.826 M1939.62 136.442 Q1939.62 139.127 1941.29 140.632 Q1942.98 142.136 1946.01 142.136 Q1949.02 142.136 1950.71 140.632 Q1952.42 139.127 1952.42 136.442 Q1952.42 133.757 1950.71 132.252 Q1949.02 130.747 1946.01 130.747 Q1942.98 130.747 1941.29 132.252 Q1939.62 133.757 1939.62 136.442 Z" fill="#000000" fill-rule="nonzero" fill-opacity="1" /><path clip-path="url(#clip060)" d="M1997.17 137.067 L1997.17 141.094 Q1995.36 140.169 1993.42 139.706 Q1991.47 139.243 1989.39 139.243 Q1986.22 139.243 1984.62 140.215 Q1983.04 141.187 1983.04 143.131 Q1983.04 144.613 1984.18 145.469 Q1985.31 146.303 1988.74 147.067 L1990.2 147.391 Q1994.73 148.363 1996.63 150.145 Q1998.55 151.905 1998.55 155.076 Q1998.55 158.687 1995.68 160.793 Q1992.84 162.9 1987.84 162.9 Q1985.75 162.9 1983.48 162.483 Q1981.24 162.09 1978.74 161.28 L1978.74 156.881 Q1981.1 158.108 1983.39 158.733 Q1985.68 159.335 1987.93 159.335 Q1990.94 159.335 1992.56 158.317 Q1994.18 157.275 1994.18 155.4 Q1994.18 153.664 1993 152.738 Q1991.84 151.812 1987.88 150.956 L1986.4 150.608 Q1982.44 149.775 1980.68 148.062 Q1978.92 146.326 1978.92 143.317 Q1978.92 139.659 1981.52 137.669 Q1984.11 135.678 1988.88 135.678 Q1991.24 135.678 1993.32 136.025 Q1995.41 136.372 1997.17 137.067 Z" fill="#000000" fill-rule="nonzero" fill-opacity="1" /><path clip-path="url(#clip060)" d="M2017.12 149.196 Q2011.96 149.196 2009.97 150.377 Q2007.98 151.557 2007.98 154.405 Q2007.98 156.673 2009.46 158.016 Q2010.96 159.335 2013.53 159.335 Q2017.07 159.335 2019.2 156.835 Q2021.35 154.312 2021.35 150.145 L2021.35 149.196 L2017.12 149.196 M2025.61 147.437 L2025.61 162.229 L2021.35 162.229 L2021.35 158.293 Q2019.9 160.655 2017.72 161.789 Q2015.54 162.9 2012.4 162.9 Q2008.42 162.9 2006.05 160.678 Q2003.72 158.432 2003.72 154.682 Q2003.72 150.307 2006.63 148.085 Q2009.57 145.863 2015.38 145.863 L2021.35 145.863 L2021.35 145.446 Q2021.35 142.507 2019.41 140.909 Q2017.49 139.289 2013.99 139.289 Q2011.77 139.289 2009.67 139.821 Q2007.56 140.354 2005.61 141.419 L2005.61 137.483 Q2007.95 136.581 2010.15 136.141 Q2012.35 135.678 2014.43 135.678 Q2020.06 135.678 2022.84 138.594 Q2025.61 141.511 2025.61 147.437 Z" fill="#000000" fill-rule="nonzero" fill-opacity="1" /><path clip-path="url(#clip060)" d="M2054.57 141.28 Q2056.17 138.409 2058.39 137.044 Q2060.61 135.678 2063.62 135.678 Q2067.67 135.678 2069.87 138.525 Q2072.07 141.349 2072.07 146.581 L2072.07 162.229 L2067.79 162.229 L2067.79 146.719 Q2067.79 142.993 2066.47 141.187 Q2065.15 139.382 2062.44 139.382 Q2059.13 139.382 2057.21 141.581 Q2055.29 143.78 2055.29 147.576 L2055.29 162.229 L2051.01 162.229 L2051.01 146.719 Q2051.01 142.969 2049.69 141.187 Q2048.37 139.382 2045.61 139.382 Q2042.35 139.382 2040.43 141.604 Q2038.51 143.803 2038.51 147.576 L2038.51 162.229 L2034.23 162.229 L2034.23 136.303 L2038.51 136.303 L2038.51 140.331 Q2039.97 137.946 2042 136.812 Q2044.04 135.678 2046.84 135.678 Q2049.66 135.678 2051.63 137.113 Q2053.62 138.548 2054.57 141.28 Z" fill="#000000" fill-rule="nonzero" fill-opacity="1" /><path clip-path="url(#clip060)" d="M2084.69 158.34 L2084.69 172.09 L2080.41 172.09 L2080.41 136.303 L2084.69 136.303 L2084.69 140.238 Q2086.03 137.923 2088.07 136.812 Q2090.13 135.678 2092.97 135.678 Q2097.7 135.678 2100.64 139.428 Q2103.6 143.178 2103.6 149.289 Q2103.6 155.4 2100.64 159.15 Q2097.7 162.9 2092.97 162.9 Q2090.13 162.9 2088.07 161.789 Q2086.03 160.655 2084.69 158.34 M2099.18 149.289 Q2099.18 144.59 2097.23 141.928 Q2095.31 139.243 2091.93 139.243 Q2088.55 139.243 2086.61 141.928 Q2084.69 144.59 2084.69 149.289 Q2084.69 153.988 2086.61 156.673 Q2088.55 159.335 2091.93 159.335 Q2095.31 159.335 2097.23 156.673 Q2099.18 153.988 2099.18 149.289 Z" fill="#000000" fill-rule="nonzero" fill-opacity="1" /><path clip-path="url(#clip060)" d="M2110.66 126.21 L2114.92 126.21 L2114.92 162.229 L2110.66 162.229 L2110.66 126.21 Z" fill="#000000" fill-rule="nonzero" fill-opacity="1" /><path clip-path="url(#clip060)" d="M2146.01 148.201 L2146.01 150.284 L2126.42 150.284 Q2126.7 154.682 2129.06 156.997 Q2131.45 159.289 2135.68 159.289 Q2138.14 159.289 2140.43 158.687 Q2142.74 158.085 2145.01 156.881 L2145.01 160.909 Q2142.72 161.881 2140.31 162.391 Q2137.91 162.9 2135.43 162.9 Q2129.22 162.9 2125.59 159.289 Q2121.98 155.678 2121.98 149.52 Q2121.98 143.155 2125.41 139.428 Q2128.85 135.678 2134.69 135.678 Q2139.92 135.678 2142.95 139.057 Q2146.01 142.414 2146.01 148.201 M2141.75 146.951 Q2141.7 143.456 2139.78 141.372 Q2137.88 139.289 2134.73 139.289 Q2131.17 139.289 2129.02 141.303 Q2126.89 143.317 2126.56 146.974 L2141.75 146.951 Z" fill="#000000" fill-rule="nonzero" fill-opacity="1" /><path clip-path="url(#clip060)" d="M2169.53 137.067 L2169.53 141.094 Q2167.72 140.169 2165.78 139.706 Q2163.83 139.243 2161.75 139.243 Q2158.58 139.243 2156.98 140.215 Q2155.41 141.187 2155.41 143.131 Q2155.41 144.613 2156.54 145.469 Q2157.67 146.303 2161.1 147.067 L2162.56 147.391 Q2167.09 148.363 2168.99 150.145 Q2170.91 151.905 2170.91 155.076 Q2170.91 158.687 2168.04 160.793 Q2165.2 162.9 2160.2 162.9 Q2158.11 162.9 2155.84 162.483 Q2153.6 162.09 2151.1 161.28 L2151.1 156.881 Q2153.46 158.108 2155.75 158.733 Q2158.04 159.335 2160.29 159.335 Q2163.3 159.335 2164.92 158.317 Q2166.54 157.275 2166.54 155.4 Q2166.54 153.664 2165.36 152.738 Q2164.2 151.812 2160.24 150.956 L2158.76 150.608 Q2154.8 149.775 2153.04 148.062 Q2151.28 146.326 2151.28 143.317 Q2151.28 139.659 2153.88 137.669 Q2156.47 135.678 2161.24 135.678 Q2163.6 135.678 2165.68 136.025 Q2167.77 136.372 2169.53 137.067 Z" fill="#000000" fill-rule="nonzero" fill-opacity="1" /><path clip-path="url(#clip060)" d="M1359.93 174.033 L1359.93 219.544 L1405.44 219.544 L1405.44 174.033 L1359.93 174.033 Z" fill="#3da44d" fill-rule="evenodd" fill-opacity="1" stroke="none"/>
<path clip-path="url(#clip060)" d="M1484.41 183.351 L1484.41 196.337 L1490.29 196.337 Q1493.56 196.337 1495.34 194.647 Q1497.12 192.958 1497.12 189.833 Q1497.12 186.731 1495.34 185.041 Q1493.56 183.351 1490.29 183.351 L1484.41 183.351 M1479.74 179.509 L1490.29 179.509 Q1496.1 179.509 1499.07 182.147 Q1502.05 184.763 1502.05 189.833 Q1502.05 194.948 1499.07 197.564 Q1496.1 200.18 1490.29 200.18 L1484.41 200.18 L1484.41 214.069 L1479.74 214.069 L1479.74 179.509 Z" fill="#000000" fill-rule="nonzero" fill-opacity="1" /><path clip-path="url(#clip060)" d="M1529.69 198.421 L1529.69 214.069 L1525.43 214.069 L1525.43 198.559 Q1525.43 194.879 1524 193.05 Q1522.56 191.222 1519.69 191.222 Q1516.24 191.222 1514.25 193.421 Q1512.26 195.62 1512.26 199.416 L1512.26 214.069 L1507.98 214.069 L1507.98 178.05 L1512.26 178.05 L1512.26 192.171 Q1513.79 189.833 1515.85 188.675 Q1517.93 187.518 1520.64 187.518 Q1525.11 187.518 1527.4 190.296 Q1529.69 193.05 1529.69 198.421 Z" fill="#000000" fill-rule="nonzero" fill-opacity="1" /><path clip-path="url(#clip060)" d="M1549.97 201.036 Q1544.81 201.036 1542.82 202.217 Q1540.83 203.397 1540.83 206.245 Q1540.83 208.513 1542.31 209.856 Q1543.81 211.175 1546.38 211.175 Q1549.92 211.175 1552.05 208.675 Q1554.2 206.152 1554.2 201.985 L1554.2 201.036 L1549.97 201.036 M1558.46 199.277 L1558.46 214.069 L1554.2 214.069 L1554.2 210.133 Q1552.75 212.495 1550.57 213.629 Q1548.39 214.74 1545.25 214.74 Q1541.26 214.74 1538.9 212.518 Q1536.57 210.272 1536.57 206.522 Q1536.57 202.147 1539.48 199.925 Q1542.42 197.703 1548.23 197.703 L1554.2 197.703 L1554.2 197.286 Q1554.2 194.347 1552.26 192.749 Q1550.34 191.129 1546.84 191.129 Q1544.62 191.129 1542.51 191.661 Q1540.41 192.194 1538.46 193.259 L1538.46 189.323 Q1540.8 188.421 1543 187.981 Q1545.2 187.518 1547.28 187.518 Q1552.91 187.518 1555.69 190.434 Q1558.46 193.351 1558.46 199.277 Z" fill="#000000" fill-rule="nonzero" fill-opacity="1" /><path clip-path="url(#clip060)" d="M1583.76 188.907 L1583.76 192.934 Q1581.96 192.009 1580.01 191.546 Q1578.07 191.083 1575.99 191.083 Q1572.82 191.083 1571.22 192.055 Q1569.64 193.027 1569.64 194.971 Q1569.64 196.453 1570.78 197.309 Q1571.91 198.143 1575.34 198.907 L1576.8 199.231 Q1581.33 200.203 1583.23 201.985 Q1585.15 203.745 1585.15 206.916 Q1585.15 210.527 1582.28 212.633 Q1579.44 214.74 1574.44 214.74 Q1572.35 214.74 1570.08 214.323 Q1567.84 213.93 1565.34 213.12 L1565.34 208.721 Q1567.7 209.948 1569.99 210.573 Q1572.28 211.175 1574.53 211.175 Q1577.54 211.175 1579.16 210.157 Q1580.78 209.115 1580.78 207.24 Q1580.78 205.504 1579.6 204.578 Q1578.44 203.652 1574.48 202.796 L1573 202.448 Q1569.04 201.615 1567.28 199.902 Q1565.52 198.166 1565.52 195.157 Q1565.52 191.499 1568.12 189.509 Q1570.71 187.518 1575.48 187.518 Q1577.84 187.518 1579.92 187.865 Q1582.01 188.212 1583.76 188.907 Z" fill="#000000" fill-rule="nonzero" fill-opacity="1" /><path clip-path="url(#clip060)" d="M1614.11 200.041 L1614.11 202.124 L1594.53 202.124 Q1594.81 206.522 1597.17 208.837 Q1599.55 211.129 1603.79 211.129 Q1606.24 211.129 1608.53 210.527 Q1610.85 209.925 1613.12 208.721 L1613.12 212.749 Q1610.82 213.721 1608.42 214.231 Q1606.01 214.74 1603.53 214.74 Q1597.33 214.74 1593.7 211.129 Q1590.08 207.518 1590.08 201.36 Q1590.08 194.995 1593.51 191.268 Q1596.96 187.518 1602.79 187.518 Q1608.02 187.518 1611.06 190.897 Q1614.11 194.254 1614.11 200.041 M1609.85 198.791 Q1609.81 195.296 1607.88 193.212 Q1605.99 191.129 1602.84 191.129 Q1599.27 191.129 1597.12 193.143 Q1594.99 195.157 1594.67 198.814 L1609.85 198.791 Z" fill="#000000" fill-rule="nonzero" fill-opacity="1" /><path clip-path="url(#clip060)" d="M1654.83 189.138 L1654.83 193.12 Q1653.02 192.124 1651.19 191.638 Q1649.39 191.129 1647.54 191.129 Q1643.39 191.129 1641.1 193.768 Q1638.81 196.384 1638.81 201.129 Q1638.81 205.874 1641.1 208.513 Q1643.39 211.129 1647.54 211.129 Q1649.39 211.129 1651.19 210.643 Q1653.02 210.133 1654.83 209.138 L1654.83 213.073 Q1653.05 213.907 1651.13 214.323 Q1649.23 214.74 1647.07 214.74 Q1641.22 214.74 1637.77 211.059 Q1634.32 207.379 1634.32 201.129 Q1634.32 194.786 1637.79 191.152 Q1641.29 187.518 1647.35 187.518 Q1649.32 187.518 1651.19 187.935 Q1653.07 188.328 1654.83 189.138 Z" fill="#000000" fill-rule="nonzero" fill-opacity="1" /><path clip-path="url(#clip060)" d="M1672.28 191.129 Q1668.86 191.129 1666.87 193.814 Q1664.88 196.476 1664.88 201.129 Q1664.88 205.782 1666.84 208.467 Q1668.83 211.129 1672.28 211.129 Q1675.69 211.129 1677.68 208.444 Q1679.67 205.758 1679.67 201.129 Q1679.67 196.522 1677.68 193.837 Q1675.69 191.129 1672.28 191.129 M1672.28 187.518 Q1677.84 187.518 1681.01 191.129 Q1684.18 194.74 1684.18 201.129 Q1684.18 207.495 1681.01 211.129 Q1677.84 214.74 1672.28 214.74 Q1666.7 214.74 1663.53 211.129 Q1660.38 207.495 1660.38 201.129 Q1660.38 194.74 1663.53 191.129 Q1666.7 187.518 1672.28 187.518 Z" fill="#000000" fill-rule="nonzero" fill-opacity="1" /><path clip-path="url(#clip060)" d="M1706.26 192.124 Q1705.55 191.708 1704.69 191.522 Q1703.86 191.314 1702.84 191.314 Q1699.23 191.314 1697.28 193.675 Q1695.36 196.013 1695.36 200.411 L1695.36 214.069 L1691.08 214.069 L1691.08 188.143 L1695.36 188.143 L1695.36 192.171 Q1696.7 189.809 1698.86 188.675 Q1701.01 187.518 1704.09 187.518 Q1704.53 187.518 1705.06 187.587 Q1705.59 187.634 1706.24 187.749 L1706.26 192.124 Z" fill="#000000" fill-rule="nonzero" fill-opacity="1" /><path clip-path="url(#clip060)" d="M1724.92 192.124 Q1724.2 191.708 1723.35 191.522 Q1722.51 191.314 1721.5 191.314 Q1717.88 191.314 1715.94 193.675 Q1714.02 196.013 1714.02 200.411 L1714.02 214.069 L1709.74 214.069 L1709.74 188.143 L1714.02 188.143 L1714.02 192.171 Q1715.36 189.809 1717.51 188.675 Q1719.67 187.518 1722.75 187.518 Q1723.19 187.518 1723.72 187.587 Q1724.25 187.634 1724.9 187.749 L1724.92 192.124 Z" fill="#000000" fill-rule="nonzero" fill-opacity="1" /><path clip-path="url(#clip060)" d="M1750.52 200.041 L1750.52 202.124 L1730.94 202.124 Q1731.22 206.522 1733.58 208.837 Q1735.96 211.129 1740.2 211.129 Q1742.65 211.129 1744.94 210.527 Q1747.26 209.925 1749.53 208.721 L1749.53 212.749 Q1747.24 213.721 1744.83 214.231 Q1742.42 214.74 1739.94 214.74 Q1733.74 214.74 1730.11 211.129 Q1726.5 207.518 1726.5 201.36 Q1726.5 194.995 1729.92 191.268 Q1733.37 187.518 1739.2 187.518 Q1744.44 187.518 1747.47 190.897 Q1750.52 194.254 1750.52 200.041 M1746.26 198.791 Q1746.22 195.296 1744.3 193.212 Q1742.4 191.129 1739.25 191.129 Q1735.69 191.129 1733.53 193.143 Q1731.4 195.157 1731.08 198.814 L1746.26 198.791 Z" fill="#000000" fill-rule="nonzero" fill-opacity="1" /><path clip-path="url(#clip060)" d="M1776.17 189.138 L1776.17 193.12 Q1774.37 192.124 1772.54 191.638 Q1770.73 191.129 1768.88 191.129 Q1764.74 191.129 1762.44 193.768 Q1760.15 196.384 1760.15 201.129 Q1760.15 205.874 1762.44 208.513 Q1764.74 211.129 1768.88 211.129 Q1770.73 211.129 1772.54 210.643 Q1774.37 210.133 1776.17 209.138 L1776.17 213.073 Q1774.39 213.907 1772.47 214.323 Q1770.57 214.74 1768.42 214.74 Q1762.56 214.74 1759.11 211.059 Q1755.66 207.379 1755.66 201.129 Q1755.66 194.786 1759.13 191.152 Q1762.63 187.518 1768.69 187.518 Q1770.66 187.518 1772.54 187.935 Q1774.41 188.328 1776.17 189.138 Z" fill="#000000" fill-rule="nonzero" fill-opacity="1" /><path clip-path="url(#clip060)" d="M1787.79 180.782 L1787.79 188.143 L1796.56 188.143 L1796.56 191.453 L1787.79 191.453 L1787.79 205.527 Q1787.79 208.698 1788.65 209.601 Q1789.53 210.504 1792.19 210.504 L1796.56 210.504 L1796.56 214.069 L1792.19 214.069 Q1787.26 214.069 1785.38 212.24 Q1783.51 210.388 1783.51 205.527 L1783.51 191.453 L1780.38 191.453 L1780.38 188.143 L1783.51 188.143 L1783.51 180.782 L1787.79 180.782 Z" fill="#000000" fill-rule="nonzero" fill-opacity="1" /><path clip-path="url(#clip060)" d="M1824.34 200.041 L1824.34 202.124 L1804.76 202.124 Q1805.04 206.522 1807.4 208.837 Q1809.78 211.129 1814.02 211.129 Q1816.47 211.129 1818.76 210.527 Q1821.08 209.925 1823.35 208.721 L1823.35 212.749 Q1821.06 213.721 1818.65 214.231 Q1816.24 214.74 1813.76 214.74 Q1807.56 214.74 1803.93 211.129 Q1800.31 207.518 1800.31 201.36 Q1800.31 194.995 1803.74 191.268 Q1807.19 187.518 1813.02 187.518 Q1818.25 187.518 1821.29 190.897 Q1824.34 194.254 1824.34 200.041 M1820.08 198.791 Q1820.04 195.296 1818.12 193.212 Q1816.22 191.129 1813.07 191.129 Q1809.5 191.129 1807.35 193.143 Q1805.22 195.157 1804.9 198.814 L1820.08 198.791 Z" fill="#000000" fill-rule="nonzero" fill-opacity="1" /><path clip-path="url(#clip060)" d="M1848.39 192.078 L1848.39 178.05 L1852.65 178.05 L1852.65 214.069 L1848.39 214.069 L1848.39 210.18 Q1847.05 212.495 1844.99 213.629 Q1842.95 214.74 1840.08 214.74 Q1835.38 214.74 1832.42 210.99 Q1829.48 207.24 1829.48 201.129 Q1829.48 195.018 1832.42 191.268 Q1835.38 187.518 1840.08 187.518 Q1842.95 187.518 1844.99 188.652 Q1847.05 189.763 1848.39 192.078 M1833.88 201.129 Q1833.88 205.828 1835.8 208.513 Q1837.74 211.175 1841.12 211.175 Q1844.5 211.175 1846.45 208.513 Q1848.39 205.828 1848.39 201.129 Q1848.39 196.43 1846.45 193.768 Q1844.5 191.083 1841.12 191.083 Q1837.74 191.083 1835.8 193.768 Q1833.88 196.43 1833.88 201.129 Z" fill="#000000" fill-rule="nonzero" fill-opacity="1" /><path clip-path="url(#clip060)" d="M1893.55 192.078 L1893.55 178.05 L1897.81 178.05 L1897.81 214.069 L1893.55 214.069 L1893.55 210.18 Q1892.21 212.495 1890.15 213.629 Q1888.11 214.74 1885.24 214.74 Q1880.55 214.74 1877.58 210.99 Q1874.64 207.24 1874.64 201.129 Q1874.64 195.018 1877.58 191.268 Q1880.55 187.518 1885.24 187.518 Q1888.11 187.518 1890.15 188.652 Q1892.21 189.763 1893.55 192.078 M1879.04 201.129 Q1879.04 205.828 1880.96 208.513 Q1882.91 211.175 1886.29 211.175 Q1889.67 211.175 1891.61 208.513 Q1893.55 205.828 1893.55 201.129 Q1893.55 196.43 1891.61 193.768 Q1889.67 191.083 1886.29 191.083 Q1882.91 191.083 1880.96 193.768 Q1879.04 196.43 1879.04 201.129 Z" fill="#000000" fill-rule="nonzero" fill-opacity="1" /><path clip-path="url(#clip060)" d="M1918.37 201.036 Q1913.21 201.036 1911.22 202.217 Q1909.23 203.397 1909.23 206.245 Q1909.23 208.513 1910.71 209.856 Q1912.21 211.175 1914.78 211.175 Q1918.32 211.175 1920.45 208.675 Q1922.61 206.152 1922.61 201.985 L1922.61 201.036 L1918.37 201.036 M1926.86 199.277 L1926.86 214.069 L1922.61 214.069 L1922.61 210.133 Q1921.15 212.495 1918.97 213.629 Q1916.8 214.74 1913.65 214.74 Q1909.67 214.74 1907.3 212.518 Q1904.97 210.272 1904.97 206.522 Q1904.97 202.147 1907.88 199.925 Q1910.82 197.703 1916.63 197.703 L1922.61 197.703 L1922.61 197.286 Q1922.61 194.347 1920.66 192.749 Q1918.74 191.129 1915.24 191.129 Q1913.02 191.129 1910.92 191.661 Q1908.81 192.194 1906.86 193.259 L1906.86 189.323 Q1909.2 188.421 1911.4 187.981 Q1913.6 187.518 1915.68 187.518 Q1921.31 187.518 1924.09 190.434 Q1926.86 193.351 1926.86 199.277 Z" fill="#000000" fill-rule="nonzero" fill-opacity="1" /><path clip-path="url(#clip060)" d="M1939.85 180.782 L1939.85 188.143 L1948.62 188.143 L1948.62 191.453 L1939.85 191.453 L1939.85 205.527 Q1939.85 208.698 1940.71 209.601 Q1941.59 210.504 1944.25 210.504 L1948.62 210.504 L1948.62 214.069 L1944.25 214.069 Q1939.32 214.069 1937.44 212.24 Q1935.57 210.388 1935.57 205.527 L1935.57 191.453 L1932.44 191.453 L1932.44 188.143 L1935.57 188.143 L1935.57 180.782 L1939.85 180.782 Z" fill="#000000" fill-rule="nonzero" fill-opacity="1" /><path clip-path="url(#clip060)" d="M1966.01 201.036 Q1960.85 201.036 1958.86 202.217 Q1956.86 203.397 1956.86 206.245 Q1956.86 208.513 1958.35 209.856 Q1959.85 211.175 1962.42 211.175 Q1965.96 211.175 1968.09 208.675 Q1970.24 206.152 1970.24 201.985 L1970.24 201.036 L1966.01 201.036 M1974.5 199.277 L1974.5 214.069 L1970.24 214.069 L1970.24 210.133 Q1968.79 212.495 1966.61 213.629 Q1964.43 214.74 1961.29 214.74 Q1957.3 214.74 1954.94 212.518 Q1952.61 210.272 1952.61 206.522 Q1952.61 202.147 1955.52 199.925 Q1958.46 197.703 1964.27 197.703 L1970.24 197.703 L1970.24 197.286 Q1970.24 194.347 1968.3 192.749 Q1966.38 191.129 1962.88 191.129 Q1960.66 191.129 1958.55 191.661 Q1956.45 192.194 1954.5 193.259 L1954.5 189.323 Q1956.84 188.421 1959.04 187.981 Q1961.24 187.518 1963.32 187.518 Q1968.95 187.518 1971.73 190.434 Q1974.5 193.351 1974.5 199.277 Z" fill="#000000" fill-rule="nonzero" fill-opacity="1" /><path clip-path="url(#clip060)" d="M1996.19 199.184 L2008.67 199.184 L2008.67 202.981 L1996.19 202.981 L1996.19 199.184 Z" fill="#000000" fill-rule="nonzero" fill-opacity="1" /><path clip-path="url(#clip060)" d="M2045.54 192.124 Q2044.83 191.708 2043.97 191.522 Q2043.14 191.314 2042.12 191.314 Q2038.51 191.314 2036.56 193.675 Q2034.64 196.013 2034.64 200.411 L2034.64 214.069 L2030.36 214.069 L2030.36 188.143 L2034.64 188.143 L2034.64 192.171 Q2035.98 189.809 2038.14 188.675 Q2040.29 187.518 2043.37 187.518 Q2043.81 187.518 2044.34 187.587 Q2044.87 187.634 2045.52 187.749 L2045.54 192.124 Z" fill="#000000" fill-rule="nonzero" fill-opacity="1" /><path clip-path="url(#clip060)" d="M2071.15 200.041 L2071.15 202.124 L2051.56 202.124 Q2051.84 206.522 2054.2 208.837 Q2056.59 211.129 2060.82 211.129 Q2063.28 211.129 2065.57 210.527 Q2067.88 209.925 2070.15 208.721 L2070.15 212.749 Q2067.86 213.721 2065.45 214.231 Q2063.04 214.74 2060.57 214.74 Q2054.36 214.74 2050.73 211.129 Q2047.12 207.518 2047.12 201.36 Q2047.12 194.995 2050.54 191.268 Q2053.99 187.518 2059.83 187.518 Q2065.06 187.518 2068.09 190.897 Q2071.15 194.254 2071.15 200.041 M2066.89 198.791 Q2066.84 195.296 2064.92 193.212 Q2063.02 191.129 2059.87 191.129 Q2056.31 191.129 2054.16 193.143 Q2052.03 195.157 2051.7 198.814 L2066.89 198.791 Z" fill="#000000" fill-rule="nonzero" fill-opacity="1" /><path clip-path="url(#clip060)" d="M2089.92 201.036 Q2084.76 201.036 2082.77 202.217 Q2080.78 203.397 2080.78 206.245 Q2080.78 208.513 2082.26 209.856 Q2083.76 211.175 2086.33 211.175 Q2089.87 211.175 2092 208.675 Q2094.16 206.152 2094.16 201.985 L2094.16 201.036 L2089.92 201.036 M2098.41 199.277 L2098.41 214.069 L2094.16 214.069 L2094.16 210.133 Q2092.7 212.495 2090.52 213.629 Q2088.35 214.74 2085.2 214.74 Q2081.22 214.74 2078.85 212.518 Q2076.52 210.272 2076.52 206.522 Q2076.52 202.147 2079.43 199.925 Q2082.37 197.703 2088.18 197.703 L2094.16 197.703 L2094.16 197.286 Q2094.16 194.347 2092.21 192.749 Q2090.29 191.129 2086.79 191.129 Q2084.57 191.129 2082.47 191.661 Q2080.36 192.194 2078.41 193.259 L2078.41 189.323 Q2080.75 188.421 2082.95 187.981 Q2085.15 187.518 2087.23 187.518 Q2092.86 187.518 2095.64 190.434 Q2098.41 193.351 2098.41 199.277 Z" fill="#000000" fill-rule="nonzero" fill-opacity="1" /><path clip-path="url(#clip060)" d="M2107.19 178.05 L2111.45 178.05 L2111.45 214.069 L2107.19 214.069 L2107.19 178.05 Z" fill="#000000" fill-rule="nonzero" fill-opacity="1" /><path clip-path="url(#clip060)" d="M2139.55 210.18 L2139.55 223.93 L2135.27 223.93 L2135.27 188.143 L2139.55 188.143 L2139.55 192.078 Q2140.89 189.763 2142.93 188.652 Q2144.99 187.518 2147.84 187.518 Q2152.56 187.518 2155.5 191.268 Q2158.46 195.018 2158.46 201.129 Q2158.46 207.24 2155.5 210.99 Q2152.56 214.74 2147.84 214.74 Q2144.99 214.74 2142.93 213.629 Q2140.89 212.495 2139.55 210.18 M2154.04 201.129 Q2154.04 196.43 2152.09 193.768 Q2150.17 191.083 2146.79 191.083 Q2143.41 191.083 2141.47 193.768 Q2139.55 196.43 2139.55 201.129 Q2139.55 205.828 2141.47 208.513 Q2143.41 211.175 2146.79 211.175 Q2150.17 211.175 2152.09 208.513 Q2154.04 205.828 2154.04 201.129 Z" fill="#000000" fill-rule="nonzero" fill-opacity="1" /><path clip-path="url(#clip060)" d="M2177.3 201.036 Q2172.14 201.036 2170.15 202.217 Q2168.16 203.397 2168.16 206.245 Q2168.16 208.513 2169.64 209.856 Q2171.15 211.175 2173.72 211.175 Q2177.26 211.175 2179.39 208.675 Q2181.54 206.152 2181.54 201.985 L2181.54 201.036 L2177.3 201.036 M2185.8 199.277 L2185.8 214.069 L2181.54 214.069 L2181.54 210.133 Q2180.08 212.495 2177.9 213.629 Q2175.73 214.74 2172.58 214.74 Q2168.6 214.74 2166.24 212.518 Q2163.9 210.272 2163.9 206.522 Q2163.9 202.147 2166.82 199.925 Q2169.76 197.703 2175.57 197.703 L2181.54 197.703 L2181.54 197.286 Q2181.54 194.347 2179.59 192.749 Q2177.67 191.129 2174.18 191.129 Q2171.96 191.129 2169.85 191.661 Q2167.74 192.194 2165.8 193.259 L2165.8 189.323 Q2168.14 188.421 2170.34 187.981 Q2172.53 187.518 2174.62 187.518 Q2180.24 187.518 2183.02 190.434 Q2185.8 193.351 2185.8 199.277 Z" fill="#000000" fill-rule="nonzero" fill-opacity="1" /><path clip-path="url(#clip060)" d="M2209.59 192.124 Q2208.88 191.708 2208.02 191.522 Q2207.19 191.314 2206.17 191.314 Q2202.56 191.314 2200.61 193.675 Q2198.69 196.013 2198.69 200.411 L2198.69 214.069 L2194.41 214.069 L2194.41 188.143 L2198.69 188.143 L2198.69 192.171 Q2200.03 189.809 2202.19 188.675 Q2204.34 187.518 2207.42 187.518 Q2207.86 187.518 2208.39 187.587 Q2208.92 187.634 2209.57 187.749 L2209.59 192.124 Z" fill="#000000" fill-rule="nonzero" fill-opacity="1" /><path clip-path="url(#clip060)" d="M2218.28 180.782 L2218.28 188.143 L2227.05 188.143 L2227.05 191.453 L2218.28 191.453 L2218.28 205.527 Q2218.28 208.698 2219.13 209.601 Q2220.01 210.504 2222.67 210.504 L2227.05 210.504 L2227.05 214.069 L2222.67 214.069 Q2217.74 214.069 2215.87 212.24 Q2213.99 210.388 2213.99 205.527 L2213.99 191.453 L2210.87 191.453 L2210.87 188.143 L2213.99 188.143 L2213.99 180.782 L2218.28 180.782 Z" fill="#000000" fill-rule="nonzero" fill-opacity="1" /><circle clip-path="url(#clip060)" cx="1382.69" cy="248.629" r="20.48" fill="#c271d2" fill-rule="evenodd" fill-opacity="1" stroke="none"/>
<path clip-path="url(#clip060)" d="M1484.41 235.191 L1484.41 248.177 L1490.29 248.177 Q1493.56 248.177 1495.34 246.487 Q1497.12 244.798 1497.12 241.673 Q1497.12 238.571 1495.34 236.881 Q1493.56 235.191 1490.29 235.191 L1484.41 235.191 M1479.74 231.349 L1490.29 231.349 Q1496.1 231.349 1499.07 233.987 Q1502.05 236.603 1502.05 241.673 Q1502.05 246.788 1499.07 249.404 Q1496.1 252.02 1490.29 252.02 L1484.41 252.02 L1484.41 265.909 L1479.74 265.909 L1479.74 231.349 Z" fill="#000000" fill-rule="nonzero" fill-opacity="1" /><path clip-path="url(#clip060)" d="M1529.69 250.261 L1529.69 265.909 L1525.43 265.909 L1525.43 250.399 Q1525.43 246.719 1524 244.89 Q1522.56 243.062 1519.69 243.062 Q1516.24 243.062 1514.25 245.261 Q1512.26 247.46 1512.26 251.256 L1512.26 265.909 L1507.98 265.909 L1507.98 229.89 L1512.26 229.89 L1512.26 244.011 Q1513.79 241.673 1515.85 240.515 Q1517.93 239.358 1520.64 239.358 Q1525.11 239.358 1527.4 242.136 Q1529.69 244.89 1529.69 250.261 Z" fill="#000000" fill-rule="nonzero" fill-opacity="1" /><path clip-path="url(#clip060)" d="M1549.97 252.876 Q1544.81 252.876 1542.82 254.057 Q1540.83 255.237 1540.83 258.085 Q1540.83 260.353 1542.31 261.696 Q1543.81 263.015 1546.38 263.015 Q1549.92 263.015 1552.05 260.515 Q1554.2 257.992 1554.2 253.825 L1554.2 252.876 L1549.97 252.876 M1558.46 251.117 L1558.46 265.909 L1554.2 265.909 L1554.2 261.973 Q1552.75 264.335 1550.57 265.469 Q1548.39 266.58 1545.25 266.58 Q1541.26 266.58 1538.9 264.358 Q1536.57 262.112 1536.57 258.362 Q1536.57 253.987 1539.48 251.765 Q1542.42 249.543 1548.23 249.543 L1554.2 249.543 L1554.2 249.126 Q1554.2 246.187 1552.26 244.589 Q1550.34 242.969 1546.84 242.969 Q1544.62 242.969 1542.51 243.501 Q1540.41 244.034 1538.46 245.099 L1538.46 241.163 Q1540.8 240.261 1543 239.821 Q1545.2 239.358 1547.28 239.358 Q1552.91 239.358 1555.69 242.274 Q1558.46 245.191 1558.46 251.117 Z" fill="#000000" fill-rule="nonzero" fill-opacity="1" /><path clip-path="url(#clip060)" d="M1583.76 240.747 L1583.76 244.774 Q1581.96 243.849 1580.01 243.386 Q1578.07 242.923 1575.99 242.923 Q1572.82 242.923 1571.22 243.895 Q1569.64 244.867 1569.64 246.811 Q1569.64 248.293 1570.78 249.149 Q1571.91 249.983 1575.34 250.747 L1576.8 251.071 Q1581.33 252.043 1583.23 253.825 Q1585.15 255.585 1585.15 258.756 Q1585.15 262.367 1582.28 264.473 Q1579.44 266.58 1574.44 266.58 Q1572.35 266.58 1570.08 266.163 Q1567.84 265.77 1565.34 264.96 L1565.34 260.561 Q1567.7 261.788 1569.99 262.413 Q1572.28 263.015 1574.53 263.015 Q1577.54 263.015 1579.16 261.997 Q1580.78 260.955 1580.78 259.08 Q1580.78 257.344 1579.6 256.418 Q1578.44 255.492 1574.48 254.636 L1573 254.288 Q1569.04 253.455 1567.28 251.742 Q1565.52 250.006 1565.52 246.997 Q1565.52 243.339 1568.12 241.349 Q1570.71 239.358 1575.48 239.358 Q1577.84 239.358 1579.92 239.705 Q1582.01 240.052 1583.76 240.747 Z" fill="#000000" fill-rule="nonzero" fill-opacity="1" /><path clip-path="url(#clip060)" d="M1614.11 251.881 L1614.11 253.964 L1594.53 253.964 Q1594.81 258.362 1597.17 260.677 Q1599.55 262.969 1603.79 262.969 Q1606.24 262.969 1608.53 262.367 Q1610.85 261.765 1613.12 260.561 L1613.12 264.589 Q1610.82 265.561 1608.42 266.071 Q1606.01 266.58 1603.53 266.58 Q1597.33 266.58 1593.7 262.969 Q1590.08 259.358 1590.08 253.2 Q1590.08 246.835 1593.51 243.108 Q1596.96 239.358 1602.79 239.358 Q1608.02 239.358 1611.06 242.737 Q1614.11 246.094 1614.11 251.881 M1609.85 250.631 Q1609.81 247.136 1607.88 245.052 Q1605.99 242.969 1602.84 242.969 Q1599.27 242.969 1597.12 244.983 Q1594.99 246.997 1594.67 250.654 L1609.85 250.631 Z" fill="#000000" fill-rule="nonzero" fill-opacity="1" /><path clip-path="url(#clip060)" d="M1654.83 240.978 L1654.83 244.96 Q1653.02 243.964 1651.19 243.478 Q1649.39 242.969 1647.54 242.969 Q1643.39 242.969 1641.1 245.608 Q1638.81 248.224 1638.81 252.969 Q1638.81 257.714 1641.1 260.353 Q1643.39 262.969 1647.54 262.969 Q1649.39 262.969 1651.19 262.483 Q1653.02 261.973 1654.83 260.978 L1654.83 264.913 Q1653.05 265.747 1651.13 266.163 Q1649.23 266.58 1647.07 266.58 Q1641.22 266.58 1637.77 262.899 Q1634.32 259.219 1634.32 252.969 Q1634.32 246.626 1637.79 242.992 Q1641.29 239.358 1647.35 239.358 Q1649.32 239.358 1651.19 239.775 Q1653.07 240.168 1654.83 240.978 Z" fill="#000000" fill-rule="nonzero" fill-opacity="1" /><path clip-path="url(#clip060)" d="M1672.28 242.969 Q1668.86 242.969 1666.87 245.654 Q1664.88 248.316 1664.88 252.969 Q1664.88 257.622 1666.84 260.307 Q1668.83 262.969 1672.28 262.969 Q1675.69 262.969 1677.68 260.284 Q1679.67 257.598 1679.67 252.969 Q1679.67 248.362 1677.68 245.677 Q1675.69 242.969 1672.28 242.969 M1672.28 239.358 Q1677.84 239.358 1681.01 242.969 Q1684.18 246.58 1684.18 252.969 Q1684.18 259.335 1681.01 262.969 Q1677.84 266.58 1672.28 266.58 Q1666.7 266.58 1663.53 262.969 Q1660.38 259.335 1660.38 252.969 Q1660.38 246.58 1663.53 242.969 Q1666.7 239.358 1672.28 239.358 Z" fill="#000000" fill-rule="nonzero" fill-opacity="1" /><path clip-path="url(#clip060)" d="M1706.26 243.964 Q1705.55 243.548 1704.69 243.362 Q1703.86 243.154 1702.84 243.154 Q1699.23 243.154 1697.28 245.515 Q1695.36 247.853 1695.36 252.251 L1695.36 265.909 L1691.08 265.909 L1691.08 239.983 L1695.36 239.983 L1695.36 244.011 Q1696.7 241.649 1698.86 240.515 Q1701.01 239.358 1704.09 239.358 Q1704.53 239.358 1705.06 239.427 Q1705.59 239.474 1706.24 239.589 L1706.26 243.964 Z" fill="#000000" fill-rule="nonzero" fill-opacity="1" /><path clip-path="url(#clip060)" d="M1724.92 243.964 Q1724.2 243.548 1723.35 243.362 Q1722.51 243.154 1721.5 243.154 Q1717.88 243.154 1715.94 245.515 Q1714.02 247.853 1714.02 252.251 L1714.02 265.909 L1709.74 265.909 L1709.74 239.983 L1714.02 239.983 L1714.02 244.011 Q1715.36 241.649 1717.51 240.515 Q1719.67 239.358 1722.75 239.358 Q1723.19 239.358 1723.72 239.427 Q1724.25 239.474 1724.9 239.589 L1724.92 243.964 Z" fill="#000000" fill-rule="nonzero" fill-opacity="1" /><path clip-path="url(#clip060)" d="M1750.52 251.881 L1750.52 253.964 L1730.94 253.964 Q1731.22 258.362 1733.58 260.677 Q1735.96 262.969 1740.2 262.969 Q1742.65 262.969 1744.94 262.367 Q1747.26 261.765 1749.53 260.561 L1749.53 264.589 Q1747.24 265.561 1744.83 266.071 Q1742.42 266.58 1739.94 266.58 Q1733.74 266.58 1730.11 262.969 Q1726.5 259.358 1726.5 253.2 Q1726.5 246.835 1729.92 243.108 Q1733.37 239.358 1739.2 239.358 Q1744.44 239.358 1747.47 242.737 Q1750.52 246.094 1750.52 251.881 M1746.26 250.631 Q1746.22 247.136 1744.3 245.052 Q1742.4 242.969 1739.25 242.969 Q1735.69 242.969 1733.53 244.983 Q1731.4 246.997 1731.08 250.654 L1746.26 250.631 Z" fill="#000000" fill-rule="nonzero" fill-opacity="1" /><path clip-path="url(#clip060)" d="M1776.17 240.978 L1776.17 244.96 Q1774.37 243.964 1772.54 243.478 Q1770.73 242.969 1768.88 242.969 Q1764.74 242.969 1762.44 245.608 Q1760.15 248.224 1760.15 252.969 Q1760.15 257.714 1762.44 260.353 Q1764.74 262.969 1768.88 262.969 Q1770.73 262.969 1772.54 262.483 Q1774.37 261.973 1776.17 260.978 L1776.17 264.913 Q1774.39 265.747 1772.47 266.163 Q1770.57 266.58 1768.42 266.58 Q1762.56 266.58 1759.11 262.899 Q1755.66 259.219 1755.66 252.969 Q1755.66 246.626 1759.13 242.992 Q1762.63 239.358 1768.69 239.358 Q1770.66 239.358 1772.54 239.775 Q1774.41 240.168 1776.17 240.978 Z" fill="#000000" fill-rule="nonzero" fill-opacity="1" /><path clip-path="url(#clip060)" d="M1787.79 232.622 L1787.79 239.983 L1796.56 239.983 L1796.56 243.293 L1787.79 243.293 L1787.79 257.367 Q1787.79 260.538 1788.65 261.441 Q1789.53 262.344 1792.19 262.344 L1796.56 262.344 L1796.56 265.909 L1792.19 265.909 Q1787.26 265.909 1785.38 264.08 Q1783.51 262.228 1783.51 257.367 L1783.51 243.293 L1780.38 243.293 L1780.38 239.983 L1783.51 239.983 L1783.51 232.622 L1787.79 232.622 Z" fill="#000000" fill-rule="nonzero" fill-opacity="1" /><path clip-path="url(#clip060)" d="M1824.34 251.881 L1824.34 253.964 L1804.76 253.964 Q1805.04 258.362 1807.4 260.677 Q1809.78 262.969 1814.02 262.969 Q1816.47 262.969 1818.76 262.367 Q1821.08 261.765 1823.35 260.561 L1823.35 264.589 Q1821.06 265.561 1818.65 266.071 Q1816.24 266.58 1813.76 266.58 Q1807.56 266.58 1803.93 262.969 Q1800.31 259.358 1800.31 253.2 Q1800.31 246.835 1803.74 243.108 Q1807.19 239.358 1813.02 239.358 Q1818.25 239.358 1821.29 242.737 Q1824.34 246.094 1824.34 251.881 M1820.08 250.631 Q1820.04 247.136 1818.12 245.052 Q1816.22 242.969 1813.07 242.969 Q1809.5 242.969 1807.35 244.983 Q1805.22 246.997 1804.9 250.654 L1820.08 250.631 Z" fill="#000000" fill-rule="nonzero" fill-opacity="1" /><path clip-path="url(#clip060)" d="M1848.39 243.918 L1848.39 229.89 L1852.65 229.89 L1852.65 265.909 L1848.39 265.909 L1848.39 262.02 Q1847.05 264.335 1844.99 265.469 Q1842.95 266.58 1840.08 266.58 Q1835.38 266.58 1832.42 262.83 Q1829.48 259.08 1829.48 252.969 Q1829.48 246.858 1832.42 243.108 Q1835.38 239.358 1840.08 239.358 Q1842.95 239.358 1844.99 240.492 Q1847.05 241.603 1848.39 243.918 M1833.88 252.969 Q1833.88 257.668 1835.8 260.353 Q1837.74 263.015 1841.12 263.015 Q1844.5 263.015 1846.45 260.353 Q1848.39 257.668 1848.39 252.969 Q1848.39 248.27 1846.45 245.608 Q1844.5 242.923 1841.12 242.923 Q1837.74 242.923 1835.8 245.608 Q1833.88 248.27 1833.88 252.969 Z" fill="#000000" fill-rule="nonzero" fill-opacity="1" /><path clip-path="url(#clip060)" d="M1893.55 243.918 L1893.55 229.89 L1897.81 229.89 L1897.81 265.909 L1893.55 265.909 L1893.55 262.02 Q1892.21 264.335 1890.15 265.469 Q1888.11 266.58 1885.24 266.58 Q1880.55 266.58 1877.58 262.83 Q1874.64 259.08 1874.64 252.969 Q1874.64 246.858 1877.58 243.108 Q1880.55 239.358 1885.24 239.358 Q1888.11 239.358 1890.15 240.492 Q1892.21 241.603 1893.55 243.918 M1879.04 252.969 Q1879.04 257.668 1880.96 260.353 Q1882.91 263.015 1886.29 263.015 Q1889.67 263.015 1891.61 260.353 Q1893.55 257.668 1893.55 252.969 Q1893.55 248.27 1891.61 245.608 Q1889.67 242.923 1886.29 242.923 Q1882.91 242.923 1880.96 245.608 Q1879.04 248.27 1879.04 252.969 Z" fill="#000000" fill-rule="nonzero" fill-opacity="1" /><path clip-path="url(#clip060)" d="M1918.37 252.876 Q1913.21 252.876 1911.22 254.057 Q1909.23 255.237 1909.23 258.085 Q1909.23 260.353 1910.71 261.696 Q1912.21 263.015 1914.78 263.015 Q1918.32 263.015 1920.45 260.515 Q1922.61 257.992 1922.61 253.825 L1922.61 252.876 L1918.37 252.876 M1926.86 251.117 L1926.86 265.909 L1922.61 265.909 L1922.61 261.973 Q1921.15 264.335 1918.97 265.469 Q1916.8 266.58 1913.65 266.58 Q1909.67 266.58 1907.3 264.358 Q1904.97 262.112 1904.97 258.362 Q1904.97 253.987 1907.88 251.765 Q1910.82 249.543 1916.63 249.543 L1922.61 249.543 L1922.61 249.126 Q1922.61 246.187 1920.66 244.589 Q1918.74 242.969 1915.24 242.969 Q1913.02 242.969 1910.92 243.501 Q1908.81 244.034 1906.86 245.099 L1906.86 241.163 Q1909.2 240.261 1911.4 239.821 Q1913.6 239.358 1915.68 239.358 Q1921.31 239.358 1924.09 242.274 Q1926.86 245.191 1926.86 251.117 Z" fill="#000000" fill-rule="nonzero" fill-opacity="1" /><path clip-path="url(#clip060)" d="M1939.85 232.622 L1939.85 239.983 L1948.62 239.983 L1948.62 243.293 L1939.85 243.293 L1939.85 257.367 Q1939.85 260.538 1940.71 261.441 Q1941.59 262.344 1944.25 262.344 L1948.62 262.344 L1948.62 265.909 L1944.25 265.909 Q1939.32 265.909 1937.44 264.08 Q1935.57 262.228 1935.57 257.367 L1935.57 243.293 L1932.44 243.293 L1932.44 239.983 L1935.57 239.983 L1935.57 232.622 L1939.85 232.622 Z" fill="#000000" fill-rule="nonzero" fill-opacity="1" /><path clip-path="url(#clip060)" d="M1966.01 252.876 Q1960.85 252.876 1958.86 254.057 Q1956.86 255.237 1956.86 258.085 Q1956.86 260.353 1958.35 261.696 Q1959.85 263.015 1962.42 263.015 Q1965.96 263.015 1968.09 260.515 Q1970.24 257.992 1970.24 253.825 L1970.24 252.876 L1966.01 252.876 M1974.5 251.117 L1974.5 265.909 L1970.24 265.909 L1970.24 261.973 Q1968.79 264.335 1966.61 265.469 Q1964.43 266.58 1961.29 266.58 Q1957.3 266.58 1954.94 264.358 Q1952.61 262.112 1952.61 258.362 Q1952.61 253.987 1955.52 251.765 Q1958.46 249.543 1964.27 249.543 L1970.24 249.543 L1970.24 249.126 Q1970.24 246.187 1968.3 244.589 Q1966.38 242.969 1962.88 242.969 Q1960.66 242.969 1958.55 243.501 Q1956.45 244.034 1954.5 245.099 L1954.5 241.163 Q1956.84 240.261 1959.04 239.821 Q1961.24 239.358 1963.32 239.358 Q1968.95 239.358 1971.73 242.274 Q1974.5 245.191 1974.5 251.117 Z" fill="#000000" fill-rule="nonzero" fill-opacity="1" /><path clip-path="url(#clip060)" d="M1996.19 251.024 L2008.67 251.024 L2008.67 254.821 L1996.19 254.821 L1996.19 251.024 Z" fill="#000000" fill-rule="nonzero" fill-opacity="1" /><path clip-path="url(#clip060)" d="M2030.52 239.983 L2034.78 239.983 L2034.78 265.909 L2030.52 265.909 L2030.52 239.983 M2030.52 229.89 L2034.78 229.89 L2034.78 235.284 L2030.52 235.284 L2030.52 229.89 Z" fill="#000000" fill-rule="nonzero" fill-opacity="1" /><path clip-path="url(#clip060)" d="M2063.88 244.96 Q2065.48 242.089 2067.7 240.724 Q2069.92 239.358 2072.93 239.358 Q2076.98 239.358 2079.18 242.205 Q2081.38 245.029 2081.38 250.261 L2081.38 265.909 L2077.1 265.909 L2077.1 250.399 Q2077.1 246.673 2075.78 244.867 Q2074.46 243.062 2071.75 243.062 Q2068.44 243.062 2066.52 245.261 Q2064.6 247.46 2064.6 251.256 L2064.6 265.909 L2060.31 265.909 L2060.31 250.399 Q2060.31 246.649 2058.99 244.867 Q2057.67 243.062 2054.92 243.062 Q2051.66 243.062 2049.73 245.284 Q2047.81 247.483 2047.81 251.256 L2047.81 265.909 L2043.53 265.909 L2043.53 239.983 L2047.81 239.983 L2047.81 244.011 Q2049.27 241.626 2051.31 240.492 Q2053.35 239.358 2056.15 239.358 Q2058.97 239.358 2060.94 240.793 Q2062.93 242.228 2063.88 244.96 Z" fill="#000000" fill-rule="nonzero" fill-opacity="1" /><path clip-path="url(#clip060)" d="M2101.66 252.876 Q2096.49 252.876 2094.5 254.057 Q2092.51 255.237 2092.51 258.085 Q2092.51 260.353 2093.99 261.696 Q2095.5 263.015 2098.07 263.015 Q2101.61 263.015 2103.74 260.515 Q2105.89 257.992 2105.89 253.825 L2105.89 252.876 L2101.66 252.876 M2110.15 251.117 L2110.15 265.909 L2105.89 265.909 L2105.89 261.973 Q2104.43 264.335 2102.26 265.469 Q2100.08 266.58 2096.93 266.58 Q2092.95 266.58 2090.59 264.358 Q2088.25 262.112 2088.25 258.362 Q2088.25 253.987 2091.17 251.765 Q2094.11 249.543 2099.92 249.543 L2105.89 249.543 L2105.89 249.126 Q2105.89 246.187 2103.95 244.589 Q2102.03 242.969 2098.53 242.969 Q2096.31 242.969 2094.2 243.501 Q2092.1 244.034 2090.15 245.099 L2090.15 241.163 Q2092.49 240.261 2094.69 239.821 Q2096.89 239.358 2098.97 239.358 Q2104.6 239.358 2107.37 242.274 Q2110.15 245.191 2110.15 251.117 Z" fill="#000000" fill-rule="nonzero" fill-opacity="1" /><path clip-path="url(#clip060)" d="M2135.98 252.645 Q2135.98 248.015 2134.06 245.469 Q2132.16 242.923 2128.72 242.923 Q2125.29 242.923 2123.37 245.469 Q2121.47 248.015 2121.47 252.645 Q2121.47 257.251 2123.37 259.798 Q2125.29 262.344 2128.72 262.344 Q2132.16 262.344 2134.06 259.798 Q2135.98 257.251 2135.98 252.645 M2140.24 262.691 Q2140.24 269.311 2137.3 272.529 Q2134.36 275.77 2128.3 275.77 Q2126.05 275.77 2124.06 275.422 Q2122.07 275.098 2120.2 274.404 L2120.2 270.26 Q2122.07 271.279 2123.9 271.765 Q2125.73 272.251 2127.63 272.251 Q2131.82 272.251 2133.9 270.052 Q2135.98 267.876 2135.98 263.455 L2135.98 261.348 Q2134.66 263.64 2132.6 264.774 Q2130.54 265.909 2127.67 265.909 Q2122.91 265.909 2119.99 262.274 Q2117.07 258.64 2117.07 252.645 Q2117.07 246.626 2119.99 242.992 Q2122.91 239.358 2127.67 239.358 Q2130.54 239.358 2132.6 240.492 Q2134.66 241.626 2135.98 243.918 L2135.98 239.983 L2140.24 239.983 L2140.24 262.691 Z" fill="#000000" fill-rule="nonzero" fill-opacity="1" /><path clip-path="url(#clip060)" d="M2168.21 262.02 L2168.21 275.77 L2163.92 275.77 L2163.92 239.983 L2168.21 239.983 L2168.21 243.918 Q2169.55 241.603 2171.59 240.492 Q2173.65 239.358 2176.49 239.358 Q2181.22 239.358 2184.15 243.108 Q2187.12 246.858 2187.12 252.969 Q2187.12 259.08 2184.15 262.83 Q2181.22 266.58 2176.49 266.58 Q2173.65 266.58 2171.59 265.469 Q2169.55 264.335 2168.21 262.02 M2182.7 252.969 Q2182.7 248.27 2180.75 245.608 Q2178.83 242.923 2175.45 242.923 Q2172.07 242.923 2170.13 245.608 Q2168.21 248.27 2168.21 252.969 Q2168.21 257.668 2170.13 260.353 Q2172.07 263.015 2175.45 263.015 Q2178.83 263.015 2180.75 260.353 Q2182.7 257.668 2182.7 252.969 Z" fill="#000000" fill-rule="nonzero" fill-opacity="1" /><path clip-path="url(#clip060)" d="M2205.96 252.876 Q2200.8 252.876 2198.81 254.057 Q2196.82 255.237 2196.82 258.085 Q2196.82 260.353 2198.3 261.696 Q2199.8 263.015 2202.37 263.015 Q2205.91 263.015 2208.04 260.515 Q2210.2 257.992 2210.2 253.825 L2210.2 252.876 L2205.96 252.876 M2214.46 251.117 L2214.46 265.909 L2210.2 265.909 L2210.2 261.973 Q2208.74 264.335 2206.56 265.469 Q2204.39 266.58 2201.24 266.58 Q2197.26 266.58 2194.9 264.358 Q2192.56 262.112 2192.56 258.362 Q2192.56 253.987 2195.47 251.765 Q2198.41 249.543 2204.22 249.543 L2210.2 249.543 L2210.2 249.126 Q2210.2 246.187 2208.25 244.589 Q2206.33 242.969 2202.84 242.969 Q2200.61 242.969 2198.51 243.501 Q2196.4 244.034 2194.46 245.099 L2194.46 241.163 Q2196.79 240.261 2198.99 239.821 Q2201.19 239.358 2203.28 239.358 Q2208.9 239.358 2211.68 242.274 Q2214.46 245.191 2214.46 251.117 Z" fill="#000000" fill-rule="nonzero" fill-opacity="1" /><path clip-path="url(#clip060)" d="M2238.25 243.964 Q2237.53 243.548 2236.68 243.362 Q2235.84 243.154 2234.83 243.154 Q2231.21 243.154 2229.27 245.515 Q2227.35 247.853 2227.35 252.251 L2227.35 265.909 L2223.07 265.909 L2223.07 239.983 L2227.35 239.983 L2227.35 244.011 Q2228.69 241.649 2230.84 240.515 Q2233 239.358 2236.08 239.358 Q2236.52 239.358 2237.05 239.427 Q2237.58 239.474 2238.23 239.589 L2238.25 243.964 Z" fill="#000000" fill-rule="nonzero" fill-opacity="1" /><path clip-path="url(#clip060)" d="M2246.93 232.622 L2246.93 239.983 L2255.71 239.983 L2255.71 243.293 L2246.93 243.293 L2246.93 257.367 Q2246.93 260.538 2247.79 261.441 Q2248.67 262.344 2251.33 262.344 L2255.71 262.344 L2255.71 265.909 L2251.33 265.909 Q2246.4 265.909 2244.52 264.08 Q2242.65 262.228 2242.65 257.367 L2242.65 243.293 L2239.53 243.293 L2239.53 239.983 L2242.65 239.983 L2242.65 232.622 L2246.93 232.622 Z" fill="#000000" fill-rule="nonzero" fill-opacity="1" /></svg>
