<?xml version="1.0" encoding="utf-8"?>
<svg xmlns="http://www.w3.org/2000/svg" xmlns:xlink="http://www.w3.org/1999/xlink" width="600" height="400" viewBox="0 0 2400 1600">
<defs>
  <clipPath id="clip300">
    <rect x="0" y="0" width="2400" height="1600"/>
  </clipPath>
</defs>
<path clip-path="url(#clip300)" d="M0 1600 L2400 1600 L2400 0 L0 0  Z" fill="#ffffff" fill-rule="evenodd" fill-opacity="1"/>
<defs>
  <clipPath id="clip301">
    <rect x="1371" y="123" width="982" height="1301"/>
  </clipPath>
</defs>
<path clip-path="url(#clip300)" d="M186.274 1423.18 L1167.59 1423.18 L1167.59 123.472 L186.274 123.472  Z" fill="#ffffff" fill-rule="evenodd" fill-opacity="1"/>
<defs>
  <clipPath id="clip302">
    <rect x="186" y="123" width="982" height="1301"/>
  </clipPath>
</defs>
<polyline clip-path="url(#clip302)" style="stroke:#000000; stroke-linecap:round; stroke-linejoin:round; stroke-width:2; stroke-opacity:0.1; fill:none" points="187.597,1423.18 187.597,123.472 "/>
<polyline clip-path="url(#clip302)" style="stroke:#000000; stroke-linecap:round; stroke-linejoin:round; stroke-width:2; stroke-opacity:0.1; fill:none" points="452.103,1423.18 452.103,123.472 "/>
<polyline clip-path="url(#clip302)" style="stroke:#000000; stroke-linecap:round; stroke-linejoin:round; stroke-width:2; stroke-opacity:0.1; fill:none" points="716.61,1423.18 716.61,123.472 "/>
<polyline clip-path="url(#clip302)" style="stroke:#000000; stroke-linecap:round; stroke-linejoin:round; stroke-width:2; stroke-opacity:0.1; fill:none" points="981.117,1423.18 981.117,123.472 "/>
<polyline clip-path="url(#clip302)" style="stroke:#000000; stroke-linecap:round; stroke-linejoin:round; stroke-width:2; stroke-opacity:0.1; fill:none" points="186.274,1387.31 1167.59,1387.31 "/>
<polyline clip-path="url(#clip302)" style="stroke:#000000; stroke-linecap:round; stroke-linejoin:round; stroke-width:2; stroke-opacity:0.1; fill:none" points="186.274,1080.55 1167.59,1080.55 "/>
<polyline clip-path="url(#clip302)" style="stroke:#000000; stroke-linecap:round; stroke-linejoin:round; stroke-width:2; stroke-opacity:0.1; fill:none" points="186.274,773.784 1167.59,773.784 "/>
<polyline clip-path="url(#clip302)" style="stroke:#000000; stroke-linecap:round; stroke-linejoin:round; stroke-width:2; stroke-opacity:0.1; fill:none" points="186.274,467.02 1167.59,467.02 "/>
<polyline clip-path="url(#clip302)" style="stroke:#000000; stroke-linecap:round; stroke-linejoin:round; stroke-width:2; stroke-opacity:0.1; fill:none" points="186.274,160.256 1167.59,160.256 "/>
<polyline clip-path="url(#clip300)" style="stroke:#000000; stroke-linecap:round; stroke-linejoin:round; stroke-width:4; stroke-opacity:1; fill:none" points="186.274,1423.18 1167.59,1423.18 "/>
<polyline clip-path="url(#clip300)" style="stroke:#000000; stroke-linecap:round; stroke-linejoin:round; stroke-width:4; stroke-opacity:1; fill:none" points="187.597,1423.18 187.597,1404.28 "/>
<polyline clip-path="url(#clip300)" style="stroke:#000000; stroke-linecap:round; stroke-linejoin:round; stroke-width:4; stroke-opacity:1; fill:none" points="452.103,1423.18 452.103,1404.28 "/>
<polyline clip-path="url(#clip300)" style="stroke:#000000; stroke-linecap:round; stroke-linejoin:round; stroke-width:4; stroke-opacity:1; fill:none" points="716.61,1423.18 716.61,1404.28 "/>
<polyline clip-path="url(#clip300)" style="stroke:#000000; stroke-linecap:round; stroke-linejoin:round; stroke-width:4; stroke-opacity:1; fill:none" points="981.117,1423.18 981.117,1404.28 "/>
<path clip-path="url(#clip300)" d="M187.597 1454.1 Q183.985 1454.1 182.157 1457.66 Q180.351 1461.2 180.351 1468.33 Q180.351 1475.44 182.157 1479.01 Q183.985 1482.55 187.597 1482.55 Q191.231 1482.55 193.036 1479.01 Q194.865 1475.44 194.865 1468.33 Q194.865 1461.2 193.036 1457.66 Q191.231 1454.1 187.597 1454.1 M187.597 1450.39 Q193.407 1450.39 196.462 1455 Q199.541 1459.58 199.541 1468.33 Q199.541 1477.06 196.462 1481.67 Q193.407 1486.25 187.597 1486.25 Q181.786 1486.25 178.708 1481.67 Q175.652 1477.06 175.652 1468.33 Q175.652 1459.58 178.708 1455 Q181.786 1450.39 187.597 1450.39 Z" fill="#000000" fill-rule="nonzero" fill-opacity="1" /><path clip-path="url(#clip300)" d="M426.802 1451.02 L445.159 1451.02 L445.159 1454.96 L431.085 1454.96 L431.085 1463.43 Q432.103 1463.08 433.122 1462.92 Q434.14 1462.73 435.159 1462.73 Q440.946 1462.73 444.325 1465.9 Q447.705 1469.08 447.705 1474.49 Q447.705 1480.07 444.233 1483.17 Q440.761 1486.25 434.441 1486.25 Q432.265 1486.25 429.997 1485.88 Q427.751 1485.51 425.344 1484.77 L425.344 1480.07 Q427.427 1481.2 429.65 1481.76 Q431.872 1482.32 434.349 1482.32 Q438.353 1482.32 440.691 1480.21 Q443.029 1478.1 443.029 1474.49 Q443.029 1470.88 440.691 1468.77 Q438.353 1466.67 434.349 1466.67 Q432.474 1466.67 430.599 1467.08 Q428.747 1467.5 426.802 1468.38 L426.802 1451.02 Z" fill="#000000" fill-rule="nonzero" fill-opacity="1" /><path clip-path="url(#clip300)" d="M466.918 1454.1 Q463.307 1454.1 461.478 1457.66 Q459.673 1461.2 459.673 1468.33 Q459.673 1475.44 461.478 1479.01 Q463.307 1482.55 466.918 1482.55 Q470.552 1482.55 472.358 1479.01 Q474.186 1475.44 474.186 1468.33 Q474.186 1461.2 472.358 1457.66 Q470.552 1454.1 466.918 1454.1 M466.918 1450.39 Q472.728 1450.39 475.784 1455 Q478.862 1459.58 478.862 1468.33 Q478.862 1477.06 475.784 1481.67 Q472.728 1486.25 466.918 1486.25 Q461.108 1486.25 458.029 1481.67 Q454.974 1477.06 454.974 1468.33 Q454.974 1459.58 458.029 1455 Q461.108 1450.39 466.918 1450.39 Z" fill="#000000" fill-rule="nonzero" fill-opacity="1" /><path clip-path="url(#clip300)" d="M676.217 1481.64 L683.855 1481.64 L683.855 1455.28 L675.545 1456.95 L675.545 1452.69 L683.809 1451.02 L688.485 1451.02 L688.485 1481.64 L696.124 1481.64 L696.124 1485.58 L676.217 1485.58 L676.217 1481.64 Z" fill="#000000" fill-rule="nonzero" fill-opacity="1" /><path clip-path="url(#clip300)" d="M715.568 1454.1 Q711.957 1454.1 710.128 1457.66 Q708.323 1461.2 708.323 1468.33 Q708.323 1475.44 710.128 1479.01 Q711.957 1482.55 715.568 1482.55 Q719.202 1482.55 721.008 1479.01 Q722.837 1475.44 722.837 1468.33 Q722.837 1461.2 721.008 1457.66 Q719.202 1454.1 715.568 1454.1 M715.568 1450.39 Q721.378 1450.39 724.434 1455 Q727.513 1459.58 727.513 1468.33 Q727.513 1477.06 724.434 1481.67 Q721.378 1486.25 715.568 1486.25 Q709.758 1486.25 706.679 1481.67 Q703.624 1477.06 703.624 1468.33 Q703.624 1459.58 706.679 1455 Q709.758 1450.39 715.568 1450.39 Z" fill="#000000" fill-rule="nonzero" fill-opacity="1" /><path clip-path="url(#clip300)" d="M745.73 1454.1 Q742.119 1454.1 740.29 1457.66 Q738.485 1461.2 738.485 1468.33 Q738.485 1475.44 740.29 1479.01 Q742.119 1482.55 745.73 1482.55 Q749.364 1482.55 751.17 1479.01 Q752.999 1475.44 752.999 1468.33 Q752.999 1461.2 751.17 1457.66 Q749.364 1454.1 745.73 1454.1 M745.73 1450.39 Q751.54 1450.39 754.596 1455 Q757.674 1459.58 757.674 1468.33 Q757.674 1477.06 754.596 1481.67 Q751.54 1486.25 745.73 1486.25 Q739.92 1486.25 736.841 1481.67 Q733.786 1477.06 733.786 1468.33 Q733.786 1459.58 736.841 1455 Q739.92 1450.39 745.73 1450.39 Z" fill="#000000" fill-rule="nonzero" fill-opacity="1" /><path clip-path="url(#clip300)" d="M940.723 1481.64 L948.362 1481.64 L948.362 1455.28 L940.052 1456.95 L940.052 1452.69 L948.316 1451.02 L952.992 1451.02 L952.992 1481.64 L960.631 1481.64 L960.631 1485.58 L940.723 1485.58 L940.723 1481.64 Z" fill="#000000" fill-rule="nonzero" fill-opacity="1" /><path clip-path="url(#clip300)" d="M970.121 1451.02 L988.478 1451.02 L988.478 1454.96 L974.404 1454.96 L974.404 1463.43 Q975.422 1463.08 976.441 1462.92 Q977.459 1462.73 978.478 1462.73 Q984.265 1462.73 987.644 1465.9 Q991.024 1469.08 991.024 1474.49 Q991.024 1480.07 987.552 1483.17 Q984.08 1486.25 977.76 1486.25 Q975.584 1486.25 973.316 1485.88 Q971.07 1485.51 968.663 1484.77 L968.663 1480.07 Q970.746 1481.2 972.968 1481.76 Q975.191 1482.32 977.668 1482.32 Q981.672 1482.32 984.01 1480.21 Q986.348 1478.1 986.348 1474.49 Q986.348 1470.88 984.01 1468.77 Q981.672 1466.67 977.668 1466.67 Q975.793 1466.67 973.918 1467.08 Q972.066 1467.5 970.121 1468.38 L970.121 1451.02 Z" fill="#000000" fill-rule="nonzero" fill-opacity="1" /><path clip-path="url(#clip300)" d="M1010.24 1454.1 Q1006.63 1454.1 1004.8 1457.66 Q1002.99 1461.2 1002.99 1468.33 Q1002.99 1475.44 1004.8 1479.01 Q1006.63 1482.55 1010.24 1482.55 Q1013.87 1482.55 1015.68 1479.01 Q1017.51 1475.44 1017.51 1468.33 Q1017.51 1461.2 1015.68 1457.66 Q1013.87 1454.1 1010.24 1454.1 M1010.24 1450.39 Q1016.05 1450.39 1019.1 1455 Q1022.18 1459.58 1022.18 1468.33 Q1022.18 1477.06 1019.1 1481.67 Q1016.05 1486.25 1010.24 1486.25 Q1004.43 1486.25 1001.35 1481.67 Q998.292 1477.06 998.292 1468.33 Q998.292 1459.58 1001.35 1455 Q1004.43 1450.39 1010.24 1450.39 Z" fill="#000000" fill-rule="nonzero" fill-opacity="1" /><path clip-path="url(#clip300)" d="M660.733 1539.24 Q662.929 1535.29 665.985 1533.41 Q669.04 1531.54 673.178 1531.54 Q678.748 1531.54 681.772 1535.45 Q684.796 1539.33 684.796 1546.53 L684.796 1568.04 L678.907 1568.04 L678.907 1546.72 Q678.907 1541.59 677.093 1539.11 Q675.279 1536.63 671.555 1536.63 Q667.003 1536.63 664.362 1539.65 Q661.72 1542.68 661.72 1547.9 L661.72 1568.04 L655.832 1568.04 L655.832 1546.72 Q655.832 1541.56 654.017 1539.11 Q652.203 1536.63 648.416 1536.63 Q643.928 1536.63 641.286 1539.68 Q638.644 1542.71 638.644 1547.9 L638.644 1568.04 L632.756 1568.04 L632.756 1532.4 L638.644 1532.4 L638.644 1537.93 Q640.649 1534.66 643.45 1533.1 Q646.251 1531.54 650.102 1531.54 Q653.986 1531.54 656.691 1533.51 Q659.428 1535.48 660.733 1539.24 Z" fill="#000000" fill-rule="nonzero" fill-opacity="1" /><path clip-path="url(#clip300)" d="M719.202 1533.45 L719.202 1538.98 Q716.72 1537.71 714.046 1537.07 Q711.372 1536.44 708.508 1536.44 Q704.147 1536.44 701.951 1537.77 Q699.787 1539.11 699.787 1541.79 Q699.787 1543.82 701.346 1545 Q702.906 1546.15 707.617 1547.2 L709.622 1547.64 Q715.86 1548.98 718.47 1551.43 Q721.112 1553.85 721.112 1558.21 Q721.112 1563.17 717.165 1566.07 Q713.25 1568.97 706.375 1568.97 Q703.511 1568.97 700.392 1568.39 Q697.304 1567.85 693.867 1566.74 L693.867 1560.69 Q697.113 1562.38 700.264 1563.24 Q703.415 1564.07 706.503 1564.07 Q710.64 1564.07 712.868 1562.66 Q715.096 1561.23 715.096 1558.65 Q715.096 1556.27 713.473 1554.99 Q711.882 1553.72 706.439 1552.54 L704.402 1552.07 Q698.959 1550.92 696.54 1548.56 Q694.121 1546.18 694.121 1542.04 Q694.121 1537.01 697.686 1534.27 Q701.251 1531.54 707.808 1531.54 Q711.054 1531.54 713.919 1532.01 Q716.783 1532.49 719.202 1533.45 Z" fill="#000000" fill-rule="nonzero" fill-opacity="1" /><polyline clip-path="url(#clip300)" style="stroke:#000000; stroke-linecap:round; stroke-linejoin:round; stroke-width:4; stroke-opacity:1; fill:none" points="186.274,1423.18 186.274,123.472 "/>
<polyline clip-path="url(#clip300)" style="stroke:#000000; stroke-linecap:round; stroke-linejoin:round; stroke-width:4; stroke-opacity:1; fill:none" points="186.274,1387.31 205.172,1387.31 "/>
<polyline clip-path="url(#clip300)" style="stroke:#000000; stroke-linecap:round; stroke-linejoin:round; stroke-width:4; stroke-opacity:1; fill:none" points="186.274,1080.55 205.172,1080.55 "/>
<polyline clip-path="url(#clip300)" style="stroke:#000000; stroke-linecap:round; stroke-linejoin:round; stroke-width:4; stroke-opacity:1; fill:none" points="186.274,773.784 205.172,773.784 "/>
<polyline clip-path="url(#clip300)" style="stroke:#000000; stroke-linecap:round; stroke-linejoin:round; stroke-width:4; stroke-opacity:1; fill:none" points="186.274,467.02 205.172,467.02 "/>
<polyline clip-path="url(#clip300)" style="stroke:#000000; stroke-linecap:round; stroke-linejoin:round; stroke-width:4; stroke-opacity:1; fill:none" points="186.274,160.256 205.172,160.256 "/>
<path clip-path="url(#clip300)" d="M62.9365 1373.11 Q59.3254 1373.11 57.4967 1376.68 Q55.6912 1380.22 55.6912 1387.35 Q55.6912 1394.45 57.4967 1398.02 Q59.3254 1401.56 62.9365 1401.56 Q66.5707 1401.56 68.3763 1398.02 Q70.205 1394.45 70.205 1387.35 Q70.205 1380.22 68.3763 1376.68 Q66.5707 1373.11 62.9365 1373.11 M62.9365 1369.41 Q68.7467 1369.41 71.8022 1374.01 Q74.8809 1378.6 74.8809 1387.35 Q74.8809 1396.07 71.8022 1400.68 Q68.7467 1405.26 62.9365 1405.26 Q57.1264 1405.26 54.0477 1400.68 Q50.9921 1396.07 50.9921 1387.35 Q50.9921 1378.6 54.0477 1374.01 Q57.1264 1369.41 62.9365 1369.41 Z" fill="#000000" fill-rule="nonzero" fill-opacity="1" /><path clip-path="url(#clip300)" d="M83.0984 1398.71 L87.9827 1398.71 L87.9827 1404.59 L83.0984 1404.59 L83.0984 1398.71 Z" fill="#000000" fill-rule="nonzero" fill-opacity="1" /><path clip-path="url(#clip300)" d="M108.168 1373.11 Q104.557 1373.11 102.728 1376.68 Q100.922 1380.22 100.922 1387.35 Q100.922 1394.45 102.728 1398.02 Q104.557 1401.56 108.168 1401.56 Q111.802 1401.56 113.608 1398.02 Q115.436 1394.45 115.436 1387.35 Q115.436 1380.22 113.608 1376.68 Q111.802 1373.11 108.168 1373.11 M108.168 1369.41 Q113.978 1369.41 117.033 1374.01 Q120.112 1378.6 120.112 1387.35 Q120.112 1396.07 117.033 1400.68 Q113.978 1405.26 108.168 1405.26 Q102.358 1405.26 99.2789 1400.68 Q96.2234 1396.07 96.2234 1387.35 Q96.2234 1378.6 99.2789 1374.01 Q102.358 1369.41 108.168 1369.41 Z" fill="#000000" fill-rule="nonzero" fill-opacity="1" /><path clip-path="url(#clip300)" d="M138.33 1373.11 Q134.719 1373.11 132.89 1376.68 Q131.084 1380.22 131.084 1387.35 Q131.084 1394.45 132.89 1398.02 Q134.719 1401.56 138.33 1401.56 Q141.964 1401.56 143.769 1398.02 Q145.598 1394.45 145.598 1387.35 Q145.598 1380.22 143.769 1376.68 Q141.964 1373.11 138.33 1373.11 M138.33 1369.41 Q144.14 1369.41 147.195 1374.01 Q150.274 1378.6 150.274 1387.35 Q150.274 1396.07 147.195 1400.68 Q144.14 1405.26 138.33 1405.26 Q132.519 1405.26 129.441 1400.68 Q126.385 1396.07 126.385 1387.35 Q126.385 1378.6 129.441 1374.01 Q132.519 1369.41 138.33 1369.41 Z" fill="#000000" fill-rule="nonzero" fill-opacity="1" /><path clip-path="url(#clip300)" d="M63.9319 1066.35 Q60.3208 1066.35 58.4921 1069.91 Q56.6865 1073.45 56.6865 1080.58 Q56.6865 1087.69 58.4921 1091.25 Q60.3208 1094.8 63.9319 1094.8 Q67.5661 1094.8 69.3717 1091.25 Q71.2004 1087.69 71.2004 1080.58 Q71.2004 1073.45 69.3717 1069.91 Q67.5661 1066.35 63.9319 1066.35 M63.9319 1062.64 Q69.742 1062.64 72.7976 1067.25 Q75.8763 1071.83 75.8763 1080.58 Q75.8763 1089.31 72.7976 1093.92 Q69.742 1098.5 63.9319 1098.5 Q58.1217 1098.5 55.043 1093.92 Q51.9875 1089.31 51.9875 1080.58 Q51.9875 1071.83 55.043 1067.25 Q58.1217 1062.64 63.9319 1062.64 Z" fill="#000000" fill-rule="nonzero" fill-opacity="1" /><path clip-path="url(#clip300)" d="M84.0938 1091.95 L88.978 1091.95 L88.978 1097.83 L84.0938 1097.83 L84.0938 1091.95 Z" fill="#000000" fill-rule="nonzero" fill-opacity="1" /><path clip-path="url(#clip300)" d="M103.191 1093.89 L119.51 1093.89 L119.51 1097.83 L97.566 1097.83 L97.566 1093.89 Q100.228 1091.14 104.811 1086.51 Q109.418 1081.86 110.598 1080.51 Q112.844 1077.99 113.723 1076.25 Q114.626 1074.49 114.626 1072.8 Q114.626 1070.05 112.682 1068.31 Q110.76 1066.58 107.658 1066.58 Q105.459 1066.58 103.006 1067.34 Q100.575 1068.11 97.7974 1069.66 L97.7974 1064.93 Q100.621 1063.8 103.075 1063.22 Q105.529 1062.64 107.566 1062.64 Q112.936 1062.64 116.131 1065.33 Q119.325 1068.01 119.325 1072.5 Q119.325 1074.63 118.515 1076.55 Q117.728 1078.45 115.621 1081.05 Q115.043 1081.72 111.941 1084.93 Q108.839 1088.13 103.191 1093.89 Z" fill="#000000" fill-rule="nonzero" fill-opacity="1" /><path clip-path="url(#clip300)" d="M129.371 1063.27 L147.728 1063.27 L147.728 1067.2 L133.654 1067.2 L133.654 1075.68 Q134.672 1075.33 135.691 1075.17 Q136.709 1074.98 137.728 1074.98 Q143.515 1074.98 146.894 1078.15 Q150.274 1081.32 150.274 1086.74 Q150.274 1092.32 146.802 1095.42 Q143.33 1098.5 137.01 1098.5 Q134.834 1098.5 132.566 1098.13 Q130.32 1097.76 127.913 1097.02 L127.913 1092.32 Q129.996 1093.45 132.219 1094.01 Q134.441 1094.56 136.918 1094.56 Q140.922 1094.56 143.26 1092.46 Q145.598 1090.35 145.598 1086.74 Q145.598 1083.13 143.26 1081.02 Q140.922 1078.92 136.918 1078.92 Q135.043 1078.92 133.168 1079.33 Q131.316 1079.75 129.371 1080.63 L129.371 1063.27 Z" fill="#000000" fill-rule="nonzero" fill-opacity="1" /><path clip-path="url(#clip300)" d="M62.9365 759.583 Q59.3254 759.583 57.4967 763.148 Q55.6912 766.689 55.6912 773.819 Q55.6912 780.925 57.4967 784.49 Q59.3254 788.032 62.9365 788.032 Q66.5707 788.032 68.3763 784.49 Q70.205 780.925 70.205 773.819 Q70.205 766.689 68.3763 763.148 Q66.5707 759.583 62.9365 759.583 M62.9365 755.879 Q68.7467 755.879 71.8022 760.485 Q74.8809 765.069 74.8809 773.819 Q74.8809 782.546 71.8022 787.152 Q68.7467 791.735 62.9365 791.735 Q57.1264 791.735 54.0477 787.152 Q50.9921 782.546 50.9921 773.819 Q50.9921 765.069 54.0477 760.485 Q57.1264 755.879 62.9365 755.879 Z" fill="#000000" fill-rule="nonzero" fill-opacity="1" /><path clip-path="url(#clip300)" d="M83.0984 785.184 L87.9827 785.184 L87.9827 791.064 L83.0984 791.064 L83.0984 785.184 Z" fill="#000000" fill-rule="nonzero" fill-opacity="1" /><path clip-path="url(#clip300)" d="M98.2141 756.504 L116.57 756.504 L116.57 760.439 L102.496 760.439 L102.496 768.911 Q103.515 768.564 104.534 768.402 Q105.552 768.217 106.571 768.217 Q112.358 768.217 115.737 771.388 Q119.117 774.559 119.117 779.976 Q119.117 785.555 115.645 788.657 Q112.172 791.735 105.853 791.735 Q103.677 791.735 101.409 791.365 Q99.1632 790.995 96.7558 790.254 L96.7558 785.555 Q98.8391 786.689 101.061 787.245 Q103.284 787.8 105.76 787.8 Q109.765 787.8 112.103 785.694 Q114.441 783.587 114.441 779.976 Q114.441 776.365 112.103 774.259 Q109.765 772.152 105.76 772.152 Q103.885 772.152 102.01 772.569 Q100.159 772.985 98.2141 773.865 L98.2141 756.504 Z" fill="#000000" fill-rule="nonzero" fill-opacity="1" /><path clip-path="url(#clip300)" d="M138.33 759.583 Q134.719 759.583 132.89 763.148 Q131.084 766.689 131.084 773.819 Q131.084 780.925 132.89 784.49 Q134.719 788.032 138.33 788.032 Q141.964 788.032 143.769 784.49 Q145.598 780.925 145.598 773.819 Q145.598 766.689 143.769 763.148 Q141.964 759.583 138.33 759.583 M138.33 755.879 Q144.14 755.879 147.195 760.485 Q150.274 765.069 150.274 773.819 Q150.274 782.546 147.195 787.152 Q144.14 791.735 138.33 791.735 Q132.519 791.735 129.441 787.152 Q126.385 782.546 126.385 773.819 Q126.385 765.069 129.441 760.485 Q132.519 755.879 138.33 755.879 Z" fill="#000000" fill-rule="nonzero" fill-opacity="1" /><path clip-path="url(#clip300)" d="M63.9319 452.819 Q60.3208 452.819 58.4921 456.384 Q56.6865 459.925 56.6865 467.055 Q56.6865 474.161 58.4921 477.726 Q60.3208 481.268 63.9319 481.268 Q67.5661 481.268 69.3717 477.726 Q71.2004 474.161 71.2004 467.055 Q71.2004 459.925 69.3717 456.384 Q67.5661 452.819 63.9319 452.819 M63.9319 449.115 Q69.742 449.115 72.7976 453.722 Q75.8763 458.305 75.8763 467.055 Q75.8763 475.782 72.7976 480.388 Q69.742 484.971 63.9319 484.971 Q58.1217 484.971 55.043 480.388 Q51.9875 475.782 51.9875 467.055 Q51.9875 458.305 55.043 453.722 Q58.1217 449.115 63.9319 449.115 Z" fill="#000000" fill-rule="nonzero" fill-opacity="1" /><path clip-path="url(#clip300)" d="M84.0938 478.421 L88.978 478.421 L88.978 484.3 L84.0938 484.3 L84.0938 478.421 Z" fill="#000000" fill-rule="nonzero" fill-opacity="1" /><path clip-path="url(#clip300)" d="M97.9826 449.74 L120.205 449.74 L120.205 451.731 L107.658 484.3 L102.774 484.3 L114.58 453.675 L97.9826 453.675 L97.9826 449.74 Z" fill="#000000" fill-rule="nonzero" fill-opacity="1" /><path clip-path="url(#clip300)" d="M129.371 449.74 L147.728 449.74 L147.728 453.675 L133.654 453.675 L133.654 462.148 Q134.672 461.8 135.691 461.638 Q136.709 461.453 137.728 461.453 Q143.515 461.453 146.894 464.624 Q150.274 467.796 150.274 473.212 Q150.274 478.791 146.802 481.893 Q143.33 484.971 137.01 484.971 Q134.834 484.971 132.566 484.601 Q130.32 484.231 127.913 483.49 L127.913 478.791 Q129.996 479.925 132.219 480.481 Q134.441 481.036 136.918 481.036 Q140.922 481.036 143.26 478.93 Q145.598 476.823 145.598 473.212 Q145.598 469.601 143.26 467.495 Q140.922 465.388 136.918 465.388 Q135.043 465.388 133.168 465.805 Q131.316 466.222 129.371 467.101 L129.371 449.74 Z" fill="#000000" fill-rule="nonzero" fill-opacity="1" /><path clip-path="url(#clip300)" d="M53.7467 173.601 L61.3856 173.601 L61.3856 147.236 L53.0754 148.902 L53.0754 144.643 L61.3393 142.976 L66.0152 142.976 L66.0152 173.601 L73.654 173.601 L73.654 177.536 L53.7467 177.536 L53.7467 173.601 Z" fill="#000000" fill-rule="nonzero" fill-opacity="1" /><path clip-path="url(#clip300)" d="M83.0984 171.657 L87.9827 171.657 L87.9827 177.536 L83.0984 177.536 L83.0984 171.657 Z" fill="#000000" fill-rule="nonzero" fill-opacity="1" /><path clip-path="url(#clip300)" d="M108.168 146.055 Q104.557 146.055 102.728 149.62 Q100.922 153.161 100.922 160.291 Q100.922 167.397 102.728 170.962 Q104.557 174.504 108.168 174.504 Q111.802 174.504 113.608 170.962 Q115.436 167.397 115.436 160.291 Q115.436 153.161 113.608 149.62 Q111.802 146.055 108.168 146.055 M108.168 142.351 Q113.978 142.351 117.033 146.958 Q120.112 151.541 120.112 160.291 Q120.112 169.018 117.033 173.624 Q113.978 178.208 108.168 178.208 Q102.358 178.208 99.2789 173.624 Q96.2234 169.018 96.2234 160.291 Q96.2234 151.541 99.2789 146.958 Q102.358 142.351 108.168 142.351 Z" fill="#000000" fill-rule="nonzero" fill-opacity="1" /><path clip-path="url(#clip300)" d="M138.33 146.055 Q134.719 146.055 132.89 149.62 Q131.084 153.161 131.084 160.291 Q131.084 167.397 132.89 170.962 Q134.719 174.504 138.33 174.504 Q141.964 174.504 143.769 170.962 Q145.598 167.397 145.598 160.291 Q145.598 153.161 143.769 149.62 Q141.964 146.055 138.33 146.055 M138.33 142.351 Q144.14 142.351 147.195 146.958 Q150.274 151.541 150.274 160.291 Q150.274 169.018 147.195 173.624 Q144.14 178.208 138.33 178.208 Q132.519 178.208 129.441 173.624 Q126.385 169.018 126.385 160.291 Q126.385 151.541 129.441 146.958 Q132.519 142.351 138.33 142.351 Z" fill="#000000" fill-rule="nonzero" fill-opacity="1" /><path clip-path="url(#clip300)" d="M477.67 18.8205 L477.67 65.8515 L487.554 65.8515 Q500.071 65.8515 505.864 60.1802 Q511.698 54.509 511.698 42.2752 Q511.698 30.1225 505.864 24.4918 Q500.071 18.8205 487.554 18.8205 L477.67 18.8205 M469.487 12.096 L486.298 12.096 Q503.879 12.096 512.103 19.4281 Q520.326 26.7198 520.326 42.2752 Q520.326 57.9117 512.062 65.2439 Q503.798 72.576 486.298 72.576 L469.487 72.576 L469.487 12.096 Z" fill="#000000" fill-rule="nonzero" fill-opacity="1" /><path clip-path="url(#clip300)" d="M533.046 27.2059 L540.499 27.2059 L540.499 72.576 L533.046 72.576 L533.046 27.2059 M533.046 9.54393 L540.499 9.54393 L540.499 18.9825 L533.046 18.9825 L533.046 9.54393 Z" fill="#000000" fill-rule="nonzero" fill-opacity="1" /><path clip-path="url(#clip300)" d="M588.746 28.9478 L588.746 35.9153 Q585.586 34.1734 582.386 33.3227 Q579.226 32.4315 575.985 32.4315 Q568.734 32.4315 564.724 37.0496 Q560.713 41.6271 560.713 49.9314 Q560.713 58.2358 564.724 62.8538 Q568.734 67.4314 575.985 67.4314 Q579.226 67.4314 582.386 66.5807 Q585.586 65.6895 588.746 63.9476 L588.746 70.8341 Q585.627 72.2924 582.264 73.0216 Q578.943 73.7508 575.175 73.7508 Q564.926 73.7508 558.891 67.3098 Q552.855 60.8689 552.855 49.9314 Q552.855 38.832 558.931 32.472 Q565.048 26.1121 575.661 26.1121 Q579.105 26.1121 582.386 26.8413 Q585.667 27.5299 588.746 28.9478 Z" fill="#000000" fill-rule="nonzero" fill-opacity="1" /><path clip-path="url(#clip300)" d="M609.081 14.324 L609.081 27.2059 L624.434 27.2059 L624.434 32.9987 L609.081 32.9987 L609.081 57.6282 Q609.081 63.1779 610.58 64.7578 Q612.119 66.3376 616.778 66.3376 L624.434 66.3376 L624.434 72.576 L616.778 72.576 Q608.15 72.576 604.868 69.3758 Q601.587 66.1351 601.587 57.6282 L601.587 32.9987 L596.118 32.9987 L596.118 27.2059 L601.587 27.2059 L601.587 14.324 L609.081 14.324 Z" fill="#000000" fill-rule="nonzero" fill-opacity="1" /><path clip-path="url(#clip300)" d="M634.237 27.2059 L641.691 27.2059 L641.691 72.576 L634.237 72.576 L634.237 27.2059 M634.237 9.54393 L641.691 9.54393 L641.691 18.9825 L634.237 18.9825 L634.237 9.54393 Z" fill="#000000" fill-rule="nonzero" fill-opacity="1" /><path clip-path="url(#clip300)" d="M674.868 32.4315 Q668.873 32.4315 665.389 37.1306 Q661.905 41.7891 661.905 49.9314 Q661.905 58.0738 665.348 62.7728 Q668.832 67.4314 674.868 67.4314 Q680.823 67.4314 684.307 62.7323 Q687.79 58.0333 687.79 49.9314 Q687.79 41.8701 684.307 37.1711 Q680.823 32.4315 674.868 32.4315 M674.868 26.1121 Q684.59 26.1121 690.14 32.4315 Q695.69 38.7509 695.69 49.9314 Q695.69 61.0714 690.14 67.4314 Q684.59 73.7508 674.868 73.7508 Q665.105 73.7508 659.556 67.4314 Q654.046 61.0714 654.046 49.9314 Q654.046 38.7509 659.556 32.4315 Q665.105 26.1121 674.868 26.1121 Z" fill="#000000" fill-rule="nonzero" fill-opacity="1" /><path clip-path="url(#clip300)" d="M745.759 45.1919 L745.759 72.576 L738.305 72.576 L738.305 45.4349 Q738.305 38.994 735.794 35.7938 Q733.282 32.5936 728.259 32.5936 Q722.223 32.5936 718.739 36.4419 Q715.255 40.2903 715.255 46.9338 L715.255 72.576 L707.761 72.576 L707.761 27.2059 L715.255 27.2059 L715.255 34.2544 Q717.929 30.163 721.534 28.1376 Q725.18 26.1121 729.92 26.1121 Q737.738 26.1121 741.748 30.9732 Q745.759 35.7938 745.759 45.1919 Z" fill="#000000" fill-rule="nonzero" fill-opacity="1" /><path clip-path="url(#clip300)" d="M781.245 49.7694 Q772.211 49.7694 768.727 51.8354 Q765.244 53.9013 765.244 58.8839 Q765.244 62.8538 767.836 65.2034 Q770.469 67.5124 774.966 67.5124 Q781.164 67.5124 784.89 63.1374 Q788.658 58.7219 788.658 51.4303 L788.658 49.7694 L781.245 49.7694 M796.111 46.6907 L796.111 72.576 L788.658 72.576 L788.658 65.6895 Q786.106 69.8214 782.298 71.8063 Q778.49 73.7508 772.981 73.7508 Q766.013 73.7508 761.881 69.8619 Q757.79 65.9325 757.79 59.3701 Q757.79 51.7138 762.894 47.825 Q768.039 43.9361 778.207 43.9361 L788.658 43.9361 L788.658 43.2069 Q788.658 38.0623 785.255 35.2672 Q781.893 32.4315 775.776 32.4315 Q771.887 32.4315 768.201 33.3632 Q764.514 34.295 761.112 36.1584 L761.112 29.2718 Q765.203 27.692 769.051 26.9223 Q772.9 26.1121 776.546 26.1121 Q786.389 26.1121 791.25 31.2163 Q796.111 36.3204 796.111 46.6907 Z" fill="#000000" fill-rule="nonzero" fill-opacity="1" /><path clip-path="url(#clip300)" d="M837.755 34.1734 Q836.499 33.4443 835 33.1202 Q833.542 32.7556 831.759 32.7556 Q825.44 32.7556 822.037 36.8875 Q818.675 40.9789 818.675 48.6757 L818.675 72.576 L811.181 72.576 L811.181 27.2059 L818.675 27.2059 L818.675 34.2544 Q821.025 30.1225 824.792 28.1376 Q828.559 26.1121 833.947 26.1121 Q834.717 26.1121 835.648 26.2337 Q836.58 26.3147 837.714 26.5172 L837.755 34.1734 Z" fill="#000000" fill-rule="nonzero" fill-opacity="1" /><path clip-path="url(#clip300)" d="M864.45 76.7889 Q861.291 84.8907 858.293 87.3618 Q855.295 89.8329 850.272 89.8329 L844.317 89.8329 L844.317 83.5945 L848.692 83.5945 Q851.771 83.5945 853.472 82.1361 Q855.174 80.6778 857.24 75.2496 L858.576 71.8468 L840.226 27.2059 L848.125 27.2059 L862.303 62.6918 L876.481 27.2059 L884.381 27.2059 L864.45 76.7889 Z" fill="#000000" fill-rule="nonzero" fill-opacity="1" /><polyline clip-path="url(#clip302)" style="stroke:#009af9; stroke-linecap:round; stroke-linejoin:round; stroke-width:8; stroke-opacity:1; fill:none" points="214.047,160.256 346.301,160.256 478.554,160.256 610.807,160.256 743.061,160.256 875.314,160.256 1007.57,160.256 1139.82,160.256 "/>
<polyline clip-path="url(#clip302)" style="stroke:#e26f46; stroke-linecap:round; stroke-linejoin:round; stroke-width:8; stroke-opacity:1; fill:none" points="214.047,166.376 346.301,196.521 478.554,225.922 610.807,254.597 743.061,282.564 875.314,309.84 1007.57,336.443 1139.82,362.389 "/>
<polyline clip-path="url(#clip302)" style="stroke:#3da44d; stroke-linecap:round; stroke-linejoin:round; stroke-width:8; stroke-opacity:1; fill:none" points="214.047,172.466 346.301,231.714 478.554,288.074 610.807,341.684 743.061,392.68 875.314,441.189 1007.57,487.332 1139.82,531.224 "/>
<polyline clip-path="url(#clip302)" style="stroke:#c271d2; stroke-linecap:round; stroke-linejoin:round; stroke-width:8; stroke-opacity:1; fill:none" points="214.047,178.525 346.301,265.868 478.554,346.899 610.807,422.076 743.061,491.82 875.314,556.525 1007.57,616.555 1139.82,672.247 "/>
<polyline clip-path="url(#clip302)" style="stroke:#ac8d18; stroke-linecap:round; stroke-linejoin:round; stroke-width:8; stroke-opacity:1; fill:none" points="214.047,184.554 346.301,299.011 478.554,402.577 610.807,496.287 743.061,581.079 875.314,657.802 1007.57,727.224 1139.82,790.04 "/>
<polyline clip-path="url(#clip302)" style="stroke:#00a9ad; stroke-linecap:round; stroke-linejoin:round; stroke-width:8; stroke-opacity:1; fill:none" points="214.047,190.552 346.301,331.175 478.554,455.275 610.807,564.792 743.061,661.441 875.314,746.733 1007.57,822.003 1139.82,888.428 "/>
<polyline clip-path="url(#clip302)" style="stroke:#ed5d92; stroke-linecap:round; stroke-linejoin:round; stroke-width:8; stroke-opacity:1; fill:none" points="214.047,196.521 346.301,362.389 478.554,505.152 610.807,628.03 743.061,733.792 875.314,824.822 1007.57,903.172 1139.82,970.609 "/>
<polyline clip-path="url(#clip302)" style="stroke:#c68125; stroke-linecap:round; stroke-linejoin:round; stroke-width:8; stroke-opacity:1; fill:none" points="214.047,202.46 346.301,392.68 478.554,552.361 610.807,686.407 743.061,798.932 875.314,893.392 1007.57,972.688 1139.82,1039.25 "/>
<polyline clip-path="url(#clip302)" style="stroke:#00a98d; stroke-linecap:round; stroke-linejoin:round; stroke-width:8; stroke-opacity:1; fill:none" points="214.047,208.37 346.301,422.076 478.554,597.043 610.807,740.295 743.061,857.579 875.314,953.603 1007.57,1032.22 1139.82,1096.59 "/>
<polyline clip-path="url(#clip302)" style="stroke:#8e971d; stroke-linecap:round; stroke-linejoin:round; stroke-width:8; stroke-opacity:1; fill:none" points="214.047,214.25 346.301,450.603 478.554,639.334 610.807,790.04 743.061,910.38 875.314,1006.47 1007.57,1083.21 1139.82,1144.48 "/>
<polyline clip-path="url(#clip302)" style="stroke:#00a8cb; stroke-linecap:round; stroke-linejoin:round; stroke-width:8; stroke-opacity:1; fill:none" points="214.047,220.101 346.301,478.287 478.554,679.362 610.807,835.96 743.061,957.919 875.314,1052.9 1007.57,1126.87 1139.82,1184.48 "/>
<polyline clip-path="url(#clip302)" style="stroke:#9b7fe8; stroke-linecap:round; stroke-linejoin:round; stroke-width:8; stroke-opacity:1; fill:none" points="214.047,225.922 346.301,505.152 478.554,717.248 610.807,878.35 743.061,1000.72 875.314,1093.67 1007.57,1164.27 1139.82,1217.89 "/>
<polyline clip-path="url(#clip302)" style="stroke:#608cf6; stroke-linecap:round; stroke-linejoin:round; stroke-width:8; stroke-opacity:1; fill:none" points="214.047,231.714 346.301,531.224 478.554,753.107 610.807,917.481 743.061,1039.25 875.314,1129.46 1007.57,1196.29 1139.82,1245.8 "/>
<polyline clip-path="url(#clip302)" style="stroke:#f05f73; stroke-linecap:round; stroke-linejoin:round; stroke-width:8; stroke-opacity:1; fill:none" points="214.047,237.478 346.301,556.525 478.554,787.046 610.807,953.603 743.061,1073.95 875.314,1160.9 1007.57,1223.72 1139.82,1269.11 "/>
<polyline clip-path="url(#clip302)" style="stroke:#dd64b5; stroke-linecap:round; stroke-linejoin:round; stroke-width:8; stroke-opacity:1; fill:none" points="214.047,243.213 346.301,581.079 478.554,819.169 610.807,986.948 743.061,1105.18 875.314,1188.5 1007.57,1247.21 1139.82,1288.58 "/>
<polyline clip-path="url(#clip302)" style="stroke:#6b9e32; stroke-linecap:round; stroke-linejoin:round; stroke-width:8; stroke-opacity:1; fill:none" points="214.047,248.919 346.301,604.907 478.554,849.573 610.807,1017.73 743.061,1133.3 875.314,1212.73 1007.57,1267.33 1139.82,1304.85 "/>
<polyline clip-path="url(#clip302)" style="stroke:#009af9; stroke-linecap:round; stroke-linejoin:round; stroke-width:8; stroke-opacity:1; fill:none" points="214.047,254.597 346.301,628.03 478.554,878.35 610.807,1046.14 743.061,1158.62 875.314,1234.02 1007.57,1284.55 1139.82,1318.43 "/>
<polyline clip-path="url(#clip302)" style="stroke:#e26f46; stroke-linecap:round; stroke-linejoin:round; stroke-width:8; stroke-opacity:1; fill:none" points="214.047,260.246 346.301,650.47 478.554,905.587 610.807,1072.37 743.061,1181.42 875.314,1252.7 1007.57,1299.31 1139.82,1329.78 "/>
<polyline clip-path="url(#clip302)" style="stroke:#3da44d; stroke-linecap:round; stroke-linejoin:round; stroke-width:8; stroke-opacity:1; fill:none" points="214.047,265.868 346.301,672.247 478.554,931.367 610.807,1096.59 743.061,1201.94 875.314,1269.11 1007.57,1311.94 1139.82,1339.26 "/>
<polyline clip-path="url(#clip302)" style="stroke:#c271d2; stroke-linecap:round; stroke-linejoin:round; stroke-width:8; stroke-opacity:1; fill:none" points="214.047,271.461 346.301,693.381 478.554,955.766 610.807,1118.94 743.061,1220.42 875.314,1283.52 1007.57,1322.77 1139.82,1347.17 "/>
<polyline clip-path="url(#clip302)" style="stroke:#ac8d18; stroke-linecap:round; stroke-linejoin:round; stroke-width:8; stroke-opacity:1; fill:none" points="214.047,277.026 346.301,713.889 478.554,978.86 610.807,1139.57 743.061,1237.05 875.314,1296.17 1007.57,1332.03 1139.82,1353.78 "/>
<polyline clip-path="url(#clip302)" style="stroke:#00a9ad; stroke-linecap:round; stroke-linejoin:round; stroke-width:8; stroke-opacity:1; fill:none" points="214.047,282.564 346.301,733.792 478.554,1000.72 610.807,1158.62 743.061,1252.03 875.314,1307.28 1007.57,1339.97 1139.82,1359.31 "/>
<polyline clip-path="url(#clip302)" style="stroke:#ed5d92; stroke-linecap:round; stroke-linejoin:round; stroke-width:8; stroke-opacity:1; fill:none" points="214.047,288.074 346.301,753.107 478.554,1021.41 610.807,1176.2 743.061,1265.51 875.314,1317.04 1007.57,1346.77 1139.82,1363.92 "/>
<polyline clip-path="url(#clip302)" style="stroke:#c68125; stroke-linecap:round; stroke-linejoin:round; stroke-width:8; stroke-opacity:1; fill:none" points="214.047,293.556 346.301,771.85 478.554,1040.99 610.807,1192.43 743.061,1277.65 875.314,1325.61 1007.57,1352.59 1139.82,1367.77 "/>
<polyline clip-path="url(#clip302)" style="stroke:#00a98d; stroke-linecap:round; stroke-linejoin:round; stroke-width:8; stroke-opacity:1; fill:none" points="214.047,299.011 346.301,790.04 478.554,1059.52 610.807,1207.42 743.061,1288.58 875.314,1333.13 1007.57,1357.58 1139.82,1370.99 "/>
<polyline clip-path="url(#clip302)" style="stroke:#8e971d; stroke-linecap:round; stroke-linejoin:round; stroke-width:8; stroke-opacity:1; fill:none" points="214.047,304.439 346.301,807.692 478.554,1077.06 610.807,1221.25 743.061,1298.42 875.314,1339.73 1007.57,1361.85 1139.82,1373.68 "/>
<polyline clip-path="url(#clip302)" style="stroke:#00a8cb; stroke-linecap:round; stroke-linejoin:round; stroke-width:8; stroke-opacity:1; fill:none" points="214.047,309.84 346.301,824.822 478.554,1093.67 610.807,1234.02 743.061,1307.28 875.314,1345.53 1007.57,1365.5 1139.82,1375.93 "/>
<polyline clip-path="url(#clip302)" style="stroke:#9b7fe8; stroke-linecap:round; stroke-linejoin:round; stroke-width:8; stroke-opacity:1; fill:none" points="214.047,315.214 346.301,841.446 478.554,1109.38 610.807,1245.8 743.061,1315.26 875.314,1350.63 1007.57,1368.63 1139.82,1377.8 "/>
<polyline clip-path="url(#clip302)" style="stroke:#608cf6; stroke-linecap:round; stroke-linejoin:round; stroke-width:8; stroke-opacity:1; fill:none" points="214.047,320.561 346.301,857.579 478.554,1124.25 610.807,1256.68 743.061,1322.44 875.314,1355.1 1007.57,1371.32 1139.82,1379.37 "/>
<polyline clip-path="url(#clip302)" style="stroke:#f05f73; stroke-linecap:round; stroke-linejoin:round; stroke-width:8; stroke-opacity:1; fill:none" points="214.047,325.881 346.301,873.235 478.554,1138.33 610.807,1266.72 743.061,1328.91 875.314,1359.03 1007.57,1373.61 1139.82,1380.68 "/>
<polyline clip-path="url(#clip302)" style="stroke:#dd64b5; stroke-linecap:round; stroke-linejoin:round; stroke-width:8; stroke-opacity:1; fill:none" points="214.047,331.175 346.301,888.428 478.554,1151.66 610.807,1276 743.061,1334.73 875.314,1362.47 1007.57,1375.58 1139.82,1381.77 "/>
<polyline clip-path="url(#clip302)" style="stroke:#6b9e32; stroke-linecap:round; stroke-linejoin:round; stroke-width:8; stroke-opacity:1; fill:none" points="214.047,336.443 346.301,903.172 478.554,1164.27 610.807,1284.55 743.061,1339.97 875.314,1365.5 1007.57,1377.26 1139.82,1382.68 "/>
<polyline clip-path="url(#clip302)" style="stroke:#009af9; stroke-linecap:round; stroke-linejoin:round; stroke-width:8; stroke-opacity:1; fill:none" points="214.047,341.684 346.301,917.481 478.554,1176.2 610.807,1292.45 743.061,1344.69 875.314,1368.16 1007.57,1378.71 1139.82,1383.45 "/>
<polyline clip-path="url(#clip302)" style="stroke:#e26f46; stroke-linecap:round; stroke-linejoin:round; stroke-width:8; stroke-opacity:1; fill:none" points="214.047,346.899 346.301,931.367 478.554,1187.5 610.807,1299.75 743.061,1348.94 875.314,1370.5 1007.57,1379.94 1139.82,1384.08 "/>
<polyline clip-path="url(#clip302)" style="stroke:#3da44d; stroke-linecap:round; stroke-linejoin:round; stroke-width:8; stroke-opacity:1; fill:none" points="214.047,352.088 346.301,944.842 478.554,1198.19 610.807,1306.48 743.061,1352.76 875.314,1372.55 1007.57,1381 1139.82,1384.61 "/>
<polyline clip-path="url(#clip302)" style="stroke:#c271d2; stroke-linecap:round; stroke-linejoin:round; stroke-width:8; stroke-opacity:1; fill:none" points="214.047,357.251 346.301,957.919 478.554,1208.31 610.807,1312.69 743.061,1356.21 875.314,1374.35 1007.57,1381.91 1139.82,1385.06 "/>
<polyline clip-path="url(#clip302)" style="stroke:#ac8d18; stroke-linecap:round; stroke-linejoin:round; stroke-width:8; stroke-opacity:1; fill:none" points="214.047,362.389 346.301,970.609 478.554,1217.89 610.807,1318.43 743.061,1359.31 875.314,1375.93 1007.57,1382.68 1139.82,1385.43 "/>
<polyline clip-path="url(#clip302)" style="stroke:#00a9ad; stroke-linecap:round; stroke-linejoin:round; stroke-width:8; stroke-opacity:1; fill:none" points="214.047,367.501 346.301,982.925 478.554,1226.96 610.807,1323.73 743.061,1362.1 875.314,1377.31 1007.57,1383.35 1139.82,1385.74 "/>
<polyline clip-path="url(#clip302)" style="stroke:#ed5d92; stroke-linecap:round; stroke-linejoin:round; stroke-width:8; stroke-opacity:1; fill:none" points="214.047,372.587 346.301,994.876 478.554,1235.54 610.807,1328.62 743.061,1364.61 875.314,1378.53 1007.57,1383.92 1139.82,1386 "/>
<polyline clip-path="url(#clip302)" style="stroke:#c68125; stroke-linecap:round; stroke-linejoin:round; stroke-width:8; stroke-opacity:1; fill:none" points="214.047,377.648 346.301,1006.47 478.554,1243.66 610.807,1333.13 743.061,1366.87 875.314,1379.6 1007.57,1384.4 1139.82,1386.21 "/>
<polyline clip-path="url(#clip302)" style="stroke:#00a98d; stroke-linecap:round; stroke-linejoin:round; stroke-width:8; stroke-opacity:1; fill:none" points="214.047,382.684 346.301,1017.73 478.554,1251.35 610.807,1337.29 743.061,1368.91 875.314,1380.54 1007.57,1384.82 1139.82,1386.4 "/>
<path clip-path="url(#clip300)" d="M1371.44 1423.18 L2352.76 1423.18 L2352.76 123.472 L1371.44 123.472  Z" fill="#ffffff" fill-rule="evenodd" fill-opacity="1"/>
<polyline clip-path="url(#clip301)" style="stroke:#000000; stroke-linecap:round; stroke-linejoin:round; stroke-width:2; stroke-opacity:0.1; fill:none" points="1372.76,1423.18 1372.76,123.472 "/>
<polyline clip-path="url(#clip301)" style="stroke:#000000; stroke-linecap:round; stroke-linejoin:round; stroke-width:2; stroke-opacity:0.1; fill:none" points="1637.27,1423.18 1637.27,123.472 "/>
<polyline clip-path="url(#clip301)" style="stroke:#000000; stroke-linecap:round; stroke-linejoin:round; stroke-width:2; stroke-opacity:0.1; fill:none" points="1901.77,1423.18 1901.77,123.472 "/>
<polyline clip-path="url(#clip301)" style="stroke:#000000; stroke-linecap:round; stroke-linejoin:round; stroke-width:2; stroke-opacity:0.1; fill:none" points="2166.28,1423.18 2166.28,123.472 "/>
<polyline clip-path="url(#clip301)" style="stroke:#000000; stroke-linecap:round; stroke-linejoin:round; stroke-width:2; stroke-opacity:0.1; fill:none" points="1371.44,1387.51 2352.76,1387.51 "/>
<polyline clip-path="url(#clip301)" style="stroke:#000000; stroke-linecap:round; stroke-linejoin:round; stroke-width:2; stroke-opacity:0.1; fill:none" points="1371.44,1123.55 2352.76,1123.55 "/>
<polyline clip-path="url(#clip301)" style="stroke:#000000; stroke-linecap:round; stroke-linejoin:round; stroke-width:2; stroke-opacity:0.1; fill:none" points="1371.44,859.59 2352.76,859.59 "/>
<polyline clip-path="url(#clip301)" style="stroke:#000000; stroke-linecap:round; stroke-linejoin:round; stroke-width:2; stroke-opacity:0.1; fill:none" points="1371.44,595.627 2352.76,595.627 "/>
<polyline clip-path="url(#clip301)" style="stroke:#000000; stroke-linecap:round; stroke-linejoin:round; stroke-width:2; stroke-opacity:0.1; fill:none" points="1371.44,331.665 2352.76,331.665 "/>
<polyline clip-path="url(#clip300)" style="stroke:#000000; stroke-linecap:round; stroke-linejoin:round; stroke-width:4; stroke-opacity:1; fill:none" points="1371.44,1423.18 2352.76,1423.18 "/>
<polyline clip-path="url(#clip300)" style="stroke:#000000; stroke-linecap:round; stroke-linejoin:round; stroke-width:4; stroke-opacity:1; fill:none" points="1372.76,1423.18 1372.76,1404.28 "/>
<polyline clip-path="url(#clip300)" style="stroke:#000000; stroke-linecap:round; stroke-linejoin:round; stroke-width:4; stroke-opacity:1; fill:none" points="1637.27,1423.18 1637.27,1404.28 "/>
<polyline clip-path="url(#clip300)" style="stroke:#000000; stroke-linecap:round; stroke-linejoin:round; stroke-width:4; stroke-opacity:1; fill:none" points="1901.77,1423.18 1901.77,1404.28 "/>
<polyline clip-path="url(#clip300)" style="stroke:#000000; stroke-linecap:round; stroke-linejoin:round; stroke-width:4; stroke-opacity:1; fill:none" points="2166.28,1423.18 2166.28,1404.28 "/>
<path clip-path="url(#clip300)" d="M1372.76 1454.1 Q1369.15 1454.1 1367.32 1457.66 Q1365.51 1461.2 1365.51 1468.33 Q1365.51 1475.44 1367.32 1479.01 Q1369.15 1482.55 1372.76 1482.55 Q1376.39 1482.55 1378.2 1479.01 Q1380.03 1475.44 1380.03 1468.33 Q1380.03 1461.2 1378.2 1457.66 Q1376.39 1454.1 1372.76 1454.1 M1372.76 1450.39 Q1378.57 1450.39 1381.62 1455 Q1384.7 1459.58 1384.7 1468.33 Q1384.7 1477.06 1381.62 1481.67 Q1378.57 1486.25 1372.76 1486.25 Q1366.95 1486.25 1363.87 1481.67 Q1360.81 1477.06 1360.81 1468.33 Q1360.81 1459.58 1363.87 1455 Q1366.95 1450.39 1372.76 1450.39 Z" fill="#000000" fill-rule="nonzero" fill-opacity="1" /><path clip-path="url(#clip300)" d="M1611.96 1451.02 L1630.32 1451.02 L1630.32 1454.96 L1616.25 1454.96 L1616.25 1463.43 Q1617.27 1463.08 1618.28 1462.92 Q1619.3 1462.73 1620.32 1462.73 Q1626.11 1462.73 1629.49 1465.9 Q1632.87 1469.08 1632.87 1474.49 Q1632.87 1480.07 1629.4 1483.17 Q1625.92 1486.25 1619.6 1486.25 Q1617.43 1486.25 1615.16 1485.88 Q1612.91 1485.51 1610.51 1484.77 L1610.51 1480.07 Q1612.59 1481.2 1614.81 1481.76 Q1617.03 1482.32 1619.51 1482.32 Q1623.52 1482.32 1625.85 1480.21 Q1628.19 1478.1 1628.19 1474.49 Q1628.19 1470.88 1625.85 1468.77 Q1623.52 1466.67 1619.51 1466.67 Q1617.64 1466.67 1615.76 1467.08 Q1613.91 1467.5 1611.96 1468.38 L1611.96 1451.02 Z" fill="#000000" fill-rule="nonzero" fill-opacity="1" /><path clip-path="url(#clip300)" d="M1652.08 1454.1 Q1648.47 1454.1 1646.64 1457.66 Q1644.83 1461.2 1644.83 1468.33 Q1644.83 1475.44 1646.64 1479.01 Q1648.47 1482.55 1652.08 1482.55 Q1655.71 1482.55 1657.52 1479.01 Q1659.35 1475.44 1659.35 1468.33 Q1659.35 1461.2 1657.52 1457.66 Q1655.71 1454.1 1652.08 1454.1 M1652.08 1450.39 Q1657.89 1450.39 1660.95 1455 Q1664.02 1459.58 1664.02 1468.33 Q1664.02 1477.06 1660.95 1481.67 Q1657.89 1486.25 1652.08 1486.25 Q1646.27 1486.25 1643.19 1481.67 Q1640.14 1477.06 1640.14 1468.33 Q1640.14 1459.58 1643.19 1455 Q1646.27 1450.39 1652.08 1450.39 Z" fill="#000000" fill-rule="nonzero" fill-opacity="1" /><path clip-path="url(#clip300)" d="M1861.38 1481.64 L1869.02 1481.64 L1869.02 1455.28 L1860.71 1456.95 L1860.71 1452.69 L1868.97 1451.02 L1873.65 1451.02 L1873.65 1481.64 L1881.29 1481.64 L1881.29 1485.58 L1861.38 1485.58 L1861.38 1481.64 Z" fill="#000000" fill-rule="nonzero" fill-opacity="1" /><path clip-path="url(#clip300)" d="M1900.73 1454.1 Q1897.12 1454.1 1895.29 1457.66 Q1893.49 1461.2 1893.49 1468.33 Q1893.49 1475.44 1895.29 1479.01 Q1897.12 1482.55 1900.73 1482.55 Q1904.36 1482.55 1906.17 1479.01 Q1908 1475.44 1908 1468.33 Q1908 1461.2 1906.17 1457.66 Q1904.36 1454.1 1900.73 1454.1 M1900.73 1450.39 Q1906.54 1450.39 1909.6 1455 Q1912.67 1459.58 1912.67 1468.33 Q1912.67 1477.06 1909.6 1481.67 Q1906.54 1486.25 1900.73 1486.25 Q1894.92 1486.25 1891.84 1481.67 Q1888.79 1477.06 1888.79 1468.33 Q1888.79 1459.58 1891.84 1455 Q1894.92 1450.39 1900.73 1450.39 Z" fill="#000000" fill-rule="nonzero" fill-opacity="1" /><path clip-path="url(#clip300)" d="M1930.89 1454.1 Q1927.28 1454.1 1925.45 1457.66 Q1923.65 1461.2 1923.65 1468.33 Q1923.65 1475.44 1925.45 1479.01 Q1927.28 1482.55 1930.89 1482.55 Q1934.53 1482.55 1936.33 1479.01 Q1938.16 1475.44 1938.16 1468.33 Q1938.16 1461.2 1936.33 1457.66 Q1934.53 1454.1 1930.89 1454.1 M1930.89 1450.39 Q1936.7 1450.39 1939.76 1455 Q1942.84 1459.58 1942.84 1468.33 Q1942.84 1477.06 1939.76 1481.67 Q1936.7 1486.25 1930.89 1486.25 Q1925.08 1486.25 1922 1481.67 Q1918.95 1477.06 1918.95 1468.33 Q1918.95 1459.58 1922 1455 Q1925.08 1450.39 1930.89 1450.39 Z" fill="#000000" fill-rule="nonzero" fill-opacity="1" /><path clip-path="url(#clip300)" d="M2125.89 1481.64 L2133.52 1481.64 L2133.52 1455.28 L2125.21 1456.95 L2125.21 1452.69 L2133.48 1451.02 L2138.15 1451.02 L2138.15 1481.64 L2145.79 1481.64 L2145.79 1485.58 L2125.89 1485.58 L2125.89 1481.64 Z" fill="#000000" fill-rule="nonzero" fill-opacity="1" /><path clip-path="url(#clip300)" d="M2155.28 1451.02 L2173.64 1451.02 L2173.64 1454.96 L2159.57 1454.96 L2159.57 1463.43 Q2160.58 1463.08 2161.6 1462.92 Q2162.62 1462.73 2163.64 1462.73 Q2169.43 1462.73 2172.81 1465.9 Q2176.19 1469.08 2176.19 1474.49 Q2176.19 1480.07 2172.71 1483.17 Q2169.24 1486.25 2162.92 1486.25 Q2160.75 1486.25 2158.48 1485.88 Q2156.23 1485.51 2153.83 1484.77 L2153.83 1480.07 Q2155.91 1481.2 2158.13 1481.76 Q2160.35 1482.32 2162.83 1482.32 Q2166.83 1482.32 2169.17 1480.21 Q2171.51 1478.1 2171.51 1474.49 Q2171.51 1470.88 2169.17 1468.77 Q2166.83 1466.67 2162.83 1466.67 Q2160.95 1466.67 2159.08 1467.08 Q2157.23 1467.5 2155.28 1468.38 L2155.28 1451.02 Z" fill="#000000" fill-rule="nonzero" fill-opacity="1" /><path clip-path="url(#clip300)" d="M2195.4 1454.1 Q2191.79 1454.1 2189.96 1457.66 Q2188.15 1461.2 2188.15 1468.33 Q2188.15 1475.44 2189.96 1479.01 Q2191.79 1482.55 2195.4 1482.55 Q2199.03 1482.55 2200.84 1479.01 Q2202.67 1475.44 2202.67 1468.33 Q2202.67 1461.2 2200.84 1457.66 Q2199.03 1454.1 2195.4 1454.1 M2195.4 1450.39 Q2201.21 1450.39 2204.26 1455 Q2207.34 1459.58 2207.34 1468.33 Q2207.34 1477.06 2204.26 1481.67 Q2201.21 1486.25 2195.4 1486.25 Q2189.59 1486.25 2186.51 1481.67 Q2183.45 1477.06 2183.45 1468.33 Q2183.45 1459.58 2186.51 1455 Q2189.59 1450.39 2195.4 1450.39 Z" fill="#000000" fill-rule="nonzero" fill-opacity="1" /><path clip-path="url(#clip300)" d="M1845.9 1539.24 Q1848.09 1535.29 1851.15 1533.41 Q1854.2 1531.54 1858.34 1531.54 Q1863.91 1531.54 1866.93 1535.45 Q1869.96 1539.33 1869.96 1546.53 L1869.96 1568.04 L1864.07 1568.04 L1864.07 1546.72 Q1864.07 1541.59 1862.26 1539.11 Q1860.44 1536.63 1856.72 1536.63 Q1852.17 1536.63 1849.52 1539.65 Q1846.88 1542.68 1846.88 1547.9 L1846.88 1568.04 L1840.99 1568.04 L1840.99 1546.72 Q1840.99 1541.56 1839.18 1539.11 Q1837.37 1536.63 1833.58 1536.63 Q1829.09 1536.63 1826.45 1539.68 Q1823.81 1542.71 1823.81 1547.9 L1823.81 1568.04 L1817.92 1568.04 L1817.92 1532.4 L1823.81 1532.4 L1823.81 1537.93 Q1825.81 1534.66 1828.61 1533.1 Q1831.41 1531.54 1835.26 1531.54 Q1839.15 1531.54 1841.85 1533.51 Q1844.59 1535.48 1845.9 1539.24 Z" fill="#000000" fill-rule="nonzero" fill-opacity="1" /><path clip-path="url(#clip300)" d="M1904.36 1533.45 L1904.36 1538.98 Q1901.88 1537.71 1899.21 1537.07 Q1896.53 1536.44 1893.67 1536.44 Q1889.31 1536.44 1887.11 1537.77 Q1884.95 1539.11 1884.95 1541.79 Q1884.95 1543.82 1886.51 1545 Q1888.07 1546.15 1892.78 1547.2 L1894.78 1547.64 Q1901.02 1548.98 1903.63 1551.43 Q1906.27 1553.85 1906.27 1558.21 Q1906.27 1563.17 1902.33 1566.07 Q1898.41 1568.97 1891.54 1568.97 Q1888.67 1568.97 1885.55 1568.39 Q1882.47 1567.85 1879.03 1566.74 L1879.03 1560.69 Q1882.28 1562.38 1885.43 1563.24 Q1888.58 1564.07 1891.66 1564.07 Q1895.8 1564.07 1898.03 1562.66 Q1900.26 1561.23 1900.26 1558.65 Q1900.26 1556.27 1898.64 1554.99 Q1897.04 1553.72 1891.6 1552.54 L1889.56 1552.07 Q1884.12 1550.92 1881.7 1548.56 Q1879.28 1546.18 1879.28 1542.04 Q1879.28 1537.01 1882.85 1534.27 Q1886.41 1531.54 1892.97 1531.54 Q1896.22 1531.54 1899.08 1532.01 Q1901.95 1532.49 1904.36 1533.45 Z" fill="#000000" fill-rule="nonzero" fill-opacity="1" /><polyline clip-path="url(#clip300)" style="stroke:#000000; stroke-linecap:round; stroke-linejoin:round; stroke-width:4; stroke-opacity:1; fill:none" points="1371.44,1423.18 1371.44,123.472 "/>
<polyline clip-path="url(#clip300)" style="stroke:#000000; stroke-linecap:round; stroke-linejoin:round; stroke-width:4; stroke-opacity:1; fill:none" points="1371.44,1387.51 1390.33,1387.51 "/>
<polyline clip-path="url(#clip300)" style="stroke:#000000; stroke-linecap:round; stroke-linejoin:round; stroke-width:4; stroke-opacity:1; fill:none" points="1371.44,1123.55 1390.33,1123.55 "/>
<polyline clip-path="url(#clip300)" style="stroke:#000000; stroke-linecap:round; stroke-linejoin:round; stroke-width:4; stroke-opacity:1; fill:none" points="1371.44,859.59 1390.33,859.59 "/>
<polyline clip-path="url(#clip300)" style="stroke:#000000; stroke-linecap:round; stroke-linejoin:round; stroke-width:4; stroke-opacity:1; fill:none" points="1371.44,595.627 1390.33,595.627 "/>
<polyline clip-path="url(#clip300)" style="stroke:#000000; stroke-linecap:round; stroke-linejoin:round; stroke-width:4; stroke-opacity:1; fill:none" points="1371.44,331.665 1390.33,331.665 "/>
<path clip-path="url(#clip300)" d="M1278.26 1373.31 Q1274.65 1373.31 1272.82 1376.88 Q1271.02 1380.42 1271.02 1387.55 Q1271.02 1394.66 1272.82 1398.22 Q1274.65 1401.76 1278.26 1401.76 Q1281.89 1401.76 1283.7 1398.22 Q1285.53 1394.66 1285.53 1387.55 Q1285.53 1380.42 1283.7 1376.88 Q1281.89 1373.31 1278.26 1373.31 M1278.26 1369.61 Q1284.07 1369.61 1287.13 1374.22 Q1290.2 1378.8 1290.2 1387.55 Q1290.2 1396.28 1287.13 1400.88 Q1284.07 1405.47 1278.26 1405.47 Q1272.45 1405.47 1269.37 1400.88 Q1266.32 1396.28 1266.32 1387.55 Q1266.32 1378.8 1269.37 1374.22 Q1272.45 1369.61 1278.26 1369.61 Z" fill="#000000" fill-rule="nonzero" fill-opacity="1" /><path clip-path="url(#clip300)" d="M1298.42 1398.92 L1303.31 1398.92 L1303.31 1404.79 L1298.42 1404.79 L1298.42 1398.92 Z" fill="#000000" fill-rule="nonzero" fill-opacity="1" /><path clip-path="url(#clip300)" d="M1323.49 1373.31 Q1319.88 1373.31 1318.05 1376.88 Q1316.25 1380.42 1316.25 1387.55 Q1316.25 1394.66 1318.05 1398.22 Q1319.88 1401.76 1323.49 1401.76 Q1327.13 1401.76 1328.93 1398.22 Q1330.76 1394.66 1330.76 1387.55 Q1330.76 1380.42 1328.93 1376.88 Q1327.13 1373.31 1323.49 1373.31 M1323.49 1369.61 Q1329.3 1369.61 1332.36 1374.22 Q1335.44 1378.8 1335.44 1387.55 Q1335.44 1396.28 1332.36 1400.88 Q1329.3 1405.47 1323.49 1405.47 Q1317.68 1405.47 1314.6 1400.88 Q1311.55 1396.28 1311.55 1387.55 Q1311.55 1378.8 1314.6 1374.22 Q1317.68 1369.61 1323.49 1369.61 Z" fill="#000000" fill-rule="nonzero" fill-opacity="1" /><path clip-path="url(#clip300)" d="M1279.86 1109.35 Q1276.25 1109.35 1274.42 1112.92 Q1272.61 1116.46 1272.61 1123.59 Q1272.61 1130.69 1274.42 1134.26 Q1276.25 1137.8 1279.86 1137.8 Q1283.49 1137.8 1285.3 1134.26 Q1287.13 1130.69 1287.13 1123.59 Q1287.13 1116.46 1285.3 1112.92 Q1283.49 1109.35 1279.86 1109.35 M1279.86 1105.65 Q1285.67 1105.65 1288.72 1110.25 Q1291.8 1114.84 1291.8 1123.59 Q1291.8 1132.31 1288.72 1136.92 Q1285.67 1141.5 1279.86 1141.5 Q1274.05 1141.5 1270.97 1136.92 Q1267.91 1132.31 1267.91 1123.59 Q1267.91 1114.84 1270.97 1110.25 Q1274.05 1105.65 1279.86 1105.65 Z" fill="#000000" fill-rule="nonzero" fill-opacity="1" /><path clip-path="url(#clip300)" d="M1300.02 1134.95 L1304.9 1134.95 L1304.9 1140.83 L1300.02 1140.83 L1300.02 1134.95 Z" fill="#000000" fill-rule="nonzero" fill-opacity="1" /><path clip-path="url(#clip300)" d="M1319.12 1136.9 L1335.44 1136.9 L1335.44 1140.83 L1313.49 1140.83 L1313.49 1136.9 Q1316.15 1134.14 1320.74 1129.51 Q1325.34 1124.86 1326.52 1123.52 Q1328.77 1120.99 1329.65 1119.26 Q1330.55 1117.5 1330.55 1115.81 Q1330.55 1113.05 1328.61 1111.32 Q1326.69 1109.58 1323.58 1109.58 Q1321.39 1109.58 1318.93 1110.35 Q1316.5 1111.11 1313.72 1112.66 L1313.72 1107.94 Q1316.55 1106.8 1319 1106.23 Q1321.45 1105.65 1323.49 1105.65 Q1328.86 1105.65 1332.06 1108.33 Q1335.25 1111.02 1335.25 1115.51 Q1335.25 1117.64 1334.44 1119.56 Q1333.65 1121.46 1331.55 1124.05 Q1330.97 1124.72 1327.87 1127.94 Q1324.76 1131.13 1319.12 1136.9 Z" fill="#000000" fill-rule="nonzero" fill-opacity="1" /><path clip-path="url(#clip300)" d="M1277.77 845.389 Q1274.16 845.389 1272.33 848.953 Q1270.53 852.495 1270.53 859.625 Q1270.53 866.731 1272.33 870.296 Q1274.16 873.837 1277.77 873.837 Q1281.41 873.837 1283.21 870.296 Q1285.04 866.731 1285.04 859.625 Q1285.04 852.495 1283.21 848.953 Q1281.41 845.389 1277.77 845.389 M1277.77 841.685 Q1283.58 841.685 1286.64 846.291 Q1289.72 850.875 1289.72 859.625 Q1289.72 868.351 1286.64 872.958 Q1283.58 877.541 1277.77 877.541 Q1271.96 877.541 1268.89 872.958 Q1265.83 868.351 1265.83 859.625 Q1265.83 850.875 1268.89 846.291 Q1271.96 841.685 1277.77 841.685 Z" fill="#000000" fill-rule="nonzero" fill-opacity="1" /><path clip-path="url(#clip300)" d="M1297.94 870.99 L1302.82 870.99 L1302.82 876.87 L1297.94 876.87 L1297.94 870.99 Z" fill="#000000" fill-rule="nonzero" fill-opacity="1" /><path clip-path="url(#clip300)" d="M1325.85 846.384 L1314.05 864.833 L1325.85 864.833 L1325.85 846.384 M1324.63 842.31 L1330.51 842.31 L1330.51 864.833 L1335.44 864.833 L1335.44 868.722 L1330.51 868.722 L1330.51 876.87 L1325.85 876.87 L1325.85 868.722 L1310.25 868.722 L1310.25 864.208 L1324.63 842.31 Z" fill="#000000" fill-rule="nonzero" fill-opacity="1" /><path clip-path="url(#clip300)" d="M1278.1 581.426 Q1274.49 581.426 1272.66 584.991 Q1270.85 588.533 1270.85 595.662 Q1270.85 602.769 1272.66 606.333 Q1274.49 609.875 1278.1 609.875 Q1281.73 609.875 1283.54 606.333 Q1285.37 602.769 1285.37 595.662 Q1285.37 588.533 1283.54 584.991 Q1281.73 581.426 1278.1 581.426 M1278.1 577.722 Q1283.91 577.722 1286.96 582.329 Q1290.04 586.912 1290.04 595.662 Q1290.04 604.389 1286.96 608.995 Q1283.91 613.579 1278.1 613.579 Q1272.29 613.579 1269.21 608.995 Q1266.15 604.389 1266.15 595.662 Q1266.15 586.912 1269.21 582.329 Q1272.29 577.722 1278.1 577.722 Z" fill="#000000" fill-rule="nonzero" fill-opacity="1" /><path clip-path="url(#clip300)" d="M1298.26 607.028 L1303.14 607.028 L1303.14 612.907 L1298.26 612.907 L1298.26 607.028 Z" fill="#000000" fill-rule="nonzero" fill-opacity="1" /><path clip-path="url(#clip300)" d="M1323.91 593.764 Q1320.76 593.764 1318.91 595.917 Q1317.08 598.07 1317.08 601.82 Q1317.08 605.546 1318.91 607.722 Q1320.76 609.875 1323.91 609.875 Q1327.06 609.875 1328.89 607.722 Q1330.74 605.546 1330.74 601.82 Q1330.74 598.07 1328.89 595.917 Q1327.06 593.764 1323.91 593.764 M1333.19 579.111 L1333.19 583.371 Q1331.43 582.537 1329.63 582.097 Q1327.84 581.658 1326.08 581.658 Q1321.45 581.658 1319 584.783 Q1316.57 587.908 1316.22 594.227 Q1317.59 592.213 1319.65 591.148 Q1321.71 590.06 1324.19 590.06 Q1329.39 590.06 1332.4 593.232 Q1335.44 596.38 1335.44 601.82 Q1335.44 607.144 1332.29 610.361 Q1329.14 613.579 1323.91 613.579 Q1317.91 613.579 1314.74 608.995 Q1311.57 604.389 1311.57 595.662 Q1311.57 587.468 1315.46 582.607 Q1319.35 577.722 1325.9 577.722 Q1327.66 577.722 1329.44 578.07 Q1331.25 578.417 1333.19 579.111 Z" fill="#000000" fill-rule="nonzero" fill-opacity="1" /><path clip-path="url(#clip300)" d="M1278.35 317.464 Q1274.74 317.464 1272.91 321.028 Q1271.11 324.57 1271.11 331.7 Q1271.11 338.806 1272.91 342.371 Q1274.74 345.913 1278.35 345.913 Q1281.99 345.913 1283.79 342.371 Q1285.62 338.806 1285.62 331.7 Q1285.62 324.57 1283.79 321.028 Q1281.99 317.464 1278.35 317.464 M1278.35 313.76 Q1284.16 313.76 1287.22 318.366 Q1290.3 322.95 1290.3 331.7 Q1290.3 340.427 1287.22 345.033 Q1284.16 349.616 1278.35 349.616 Q1272.54 349.616 1269.46 345.033 Q1266.41 340.427 1266.41 331.7 Q1266.41 322.95 1269.46 318.366 Q1272.54 313.76 1278.35 313.76 Z" fill="#000000" fill-rule="nonzero" fill-opacity="1" /><path clip-path="url(#clip300)" d="M1298.52 343.065 L1303.4 343.065 L1303.4 348.945 L1298.52 348.945 L1298.52 343.065 Z" fill="#000000" fill-rule="nonzero" fill-opacity="1" /><path clip-path="url(#clip300)" d="M1323.58 332.533 Q1320.25 332.533 1318.33 334.315 Q1316.43 336.098 1316.43 339.223 Q1316.43 342.348 1318.33 344.13 Q1320.25 345.913 1323.58 345.913 Q1326.92 345.913 1328.84 344.13 Q1330.76 342.325 1330.76 339.223 Q1330.76 336.098 1328.84 334.315 Q1326.94 332.533 1323.58 332.533 M1318.91 330.542 Q1315.9 329.802 1314.21 327.741 Q1312.54 325.681 1312.54 322.718 Q1312.54 318.575 1315.48 316.167 Q1318.45 313.76 1323.58 313.76 Q1328.75 313.76 1331.69 316.167 Q1334.63 318.575 1334.63 322.718 Q1334.63 325.681 1332.94 327.741 Q1331.27 329.802 1328.28 330.542 Q1331.66 331.329 1333.54 333.621 Q1335.44 335.913 1335.44 339.223 Q1335.44 344.246 1332.36 346.931 Q1329.3 349.616 1323.58 349.616 Q1317.87 349.616 1314.79 346.931 Q1311.73 344.246 1311.73 339.223 Q1311.73 335.913 1313.63 333.621 Q1315.53 331.329 1318.91 330.542 M1317.2 323.158 Q1317.2 325.843 1318.86 327.348 Q1320.55 328.853 1323.58 328.853 Q1326.59 328.853 1328.28 327.348 Q1330 325.843 1330 323.158 Q1330 320.473 1328.28 318.968 Q1326.59 317.464 1323.58 317.464 Q1320.55 317.464 1318.86 318.968 Q1317.2 320.473 1317.2 323.158 Z" fill="#000000" fill-rule="nonzero" fill-opacity="1" /><path clip-path="url(#clip300)" d="M1406.23 12.096 L1417.25 12.096 L1444.06 62.6918 L1444.06 12.096 L1452 12.096 L1452 72.576 L1440.98 72.576 L1414.17 21.9802 L1414.17 72.576 L1406.23 72.576 L1406.23 12.096 Z" fill="#000000" fill-rule="nonzero" fill-opacity="1" /><path clip-path="url(#clip300)" d="M1485.54 32.4315 Q1479.55 32.4315 1476.07 37.1306 Q1472.58 41.7891 1472.58 49.9314 Q1472.58 58.0738 1476.02 62.7728 Q1479.51 67.4314 1485.54 67.4314 Q1491.5 67.4314 1494.98 62.7323 Q1498.47 58.0333 1498.47 49.9314 Q1498.47 41.8701 1494.98 37.1711 Q1491.5 32.4315 1485.54 32.4315 M1485.54 26.1121 Q1495.27 26.1121 1500.82 32.4315 Q1506.37 38.7509 1506.37 49.9314 Q1506.37 61.0714 1500.82 67.4314 Q1495.27 73.7508 1485.54 73.7508 Q1475.78 73.7508 1470.23 67.4314 Q1464.72 61.0714 1464.72 49.9314 Q1464.72 38.7509 1470.23 32.4315 Q1475.78 26.1121 1485.54 26.1121 Z" fill="#000000" fill-rule="nonzero" fill-opacity="1" /><path clip-path="url(#clip300)" d="M1545.01 34.1734 Q1543.76 33.4443 1542.26 33.1202 Q1540.8 32.7556 1539.02 32.7556 Q1532.7 32.7556 1529.29 36.8875 Q1525.93 40.9789 1525.93 48.6757 L1525.93 72.576 L1518.44 72.576 L1518.44 27.2059 L1525.93 27.2059 L1525.93 34.2544 Q1528.28 30.1225 1532.05 28.1376 Q1535.82 26.1121 1541.2 26.1121 Q1541.97 26.1121 1542.91 26.2337 Q1543.84 26.3147 1544.97 26.5172 L1545.01 34.1734 Z" fill="#000000" fill-rule="nonzero" fill-opacity="1" /><path clip-path="url(#clip300)" d="M1586.7 35.9153 Q1589.49 30.8922 1593.38 28.5022 Q1597.27 26.1121 1602.53 26.1121 Q1609.62 26.1121 1613.47 31.0947 Q1617.32 36.0368 1617.32 45.1919 L1617.32 72.576 L1609.83 72.576 L1609.83 45.4349 Q1609.83 38.913 1607.52 35.7533 Q1605.21 32.5936 1600.47 32.5936 Q1594.68 32.5936 1591.31 36.4419 Q1587.95 40.2903 1587.95 46.9338 L1587.95 72.576 L1580.46 72.576 L1580.46 45.4349 Q1580.46 38.8725 1578.15 35.7533 Q1575.84 32.5936 1571.02 32.5936 Q1565.31 32.5936 1561.94 36.4824 Q1558.58 40.3308 1558.58 46.9338 L1558.58 72.576 L1551.09 72.576 L1551.09 27.2059 L1558.58 27.2059 L1558.58 34.2544 Q1561.13 30.082 1564.7 28.0971 Q1568.26 26.1121 1573.17 26.1121 Q1578.11 26.1121 1581.55 28.6237 Q1585.03 31.1352 1586.7 35.9153 Z" fill="#000000" fill-rule="nonzero" fill-opacity="1" /><path clip-path="url(#clip300)" d="M1652.81 49.7694 Q1643.77 49.7694 1640.29 51.8354 Q1636.8 53.9013 1636.8 58.8839 Q1636.8 62.8538 1639.4 65.2034 Q1642.03 67.5124 1646.53 67.5124 Q1652.73 67.5124 1656.45 63.1374 Q1660.22 58.7219 1660.22 51.4303 L1660.22 49.7694 L1652.81 49.7694 M1667.67 46.6907 L1667.67 72.576 L1660.22 72.576 L1660.22 65.6895 Q1657.67 69.8214 1653.86 71.8063 Q1650.05 73.7508 1644.54 73.7508 Q1637.57 73.7508 1633.44 69.8619 Q1629.35 65.9325 1629.35 59.3701 Q1629.35 51.7138 1634.46 47.825 Q1639.6 43.9361 1649.77 43.9361 L1660.22 43.9361 L1660.22 43.2069 Q1660.22 38.0623 1656.82 35.2672 Q1653.45 32.4315 1647.34 32.4315 Q1643.45 32.4315 1639.76 33.3632 Q1636.08 34.295 1632.67 36.1584 L1632.67 29.2718 Q1636.76 27.692 1640.61 26.9223 Q1644.46 26.1121 1648.11 26.1121 Q1657.95 26.1121 1662.81 31.2163 Q1667.67 36.3204 1667.67 46.6907 Z" fill="#000000" fill-rule="nonzero" fill-opacity="1" /><path clip-path="url(#clip300)" d="M1683.03 9.54393 L1690.48 9.54393 L1690.48 72.576 L1683.03 72.576 L1683.03 9.54393 Z" fill="#000000" fill-rule="nonzero" fill-opacity="1" /><path clip-path="url(#clip300)" d="M1706.08 27.2059 L1713.53 27.2059 L1713.53 72.576 L1706.08 72.576 L1706.08 27.2059 M1706.08 9.54393 L1713.53 9.54393 L1713.53 18.9825 L1706.08 18.9825 L1706.08 9.54393 Z" fill="#000000" fill-rule="nonzero" fill-opacity="1" /><path clip-path="url(#clip300)" d="M1725.88 27.2059 L1761.29 27.2059 L1761.29 34.0114 L1733.26 66.6212 L1761.29 66.6212 L1761.29 72.576 L1724.87 72.576 L1724.87 65.7705 L1752.9 33.1607 L1725.88 33.1607 L1725.88 27.2059 Z" fill="#000000" fill-rule="nonzero" fill-opacity="1" /><path clip-path="url(#clip300)" d="M1811.48 48.0275 L1811.48 51.6733 L1777.21 51.6733 Q1777.7 59.3701 1781.83 63.421 Q1786 67.4314 1793.41 67.4314 Q1797.71 67.4314 1801.72 66.3781 Q1805.77 65.3249 1809.74 63.2184 L1809.74 70.267 Q1805.73 71.9684 1801.51 72.8596 Q1797.3 73.7508 1792.97 73.7508 Q1782.11 73.7508 1775.75 67.4314 Q1769.43 61.1119 1769.43 50.3365 Q1769.43 39.1965 1775.43 32.6746 Q1781.46 26.1121 1791.67 26.1121 Q1800.83 26.1121 1806.13 32.0264 Q1811.48 37.9003 1811.48 48.0275 M1804.03 45.84 Q1803.95 39.7232 1800.58 36.0774 Q1797.26 32.4315 1791.75 32.4315 Q1785.51 32.4315 1781.75 35.9558 Q1778.02 39.4801 1777.45 45.8805 L1804.03 45.84 Z" fill="#000000" fill-rule="nonzero" fill-opacity="1" /><path clip-path="url(#clip300)" d="M1853.57 34.0924 L1853.57 9.54393 L1861.02 9.54393 L1861.02 72.576 L1853.57 72.576 L1853.57 65.7705 Q1851.22 69.8214 1847.61 71.8063 Q1844.05 73.7508 1839.03 73.7508 Q1830.8 73.7508 1825.62 67.1883 Q1820.47 60.6258 1820.47 49.9314 Q1820.47 39.2371 1825.62 32.6746 Q1830.8 26.1121 1839.03 26.1121 Q1844.05 26.1121 1847.61 28.0971 Q1851.22 30.0415 1853.57 34.0924 M1828.17 49.9314 Q1828.17 58.1548 1831.53 62.8538 Q1834.93 67.5124 1840.85 67.5124 Q1846.76 67.5124 1850.17 62.8538 Q1853.57 58.1548 1853.57 49.9314 Q1853.57 41.7081 1850.17 37.0496 Q1846.76 32.3505 1840.85 32.3505 Q1834.93 32.3505 1831.53 37.0496 Q1828.17 41.7081 1828.17 49.9314 Z" fill="#000000" fill-rule="nonzero" fill-opacity="1" /><path clip-path="url(#clip300)" d="M1911.25 18.8205 L1911.25 65.8515 L1921.14 65.8515 Q1933.66 65.8515 1939.45 60.1802 Q1945.28 54.509 1945.28 42.2752 Q1945.28 30.1225 1939.45 24.4918 Q1933.66 18.8205 1921.14 18.8205 L1911.25 18.8205 M1903.07 12.096 L1919.88 12.096 Q1937.46 12.096 1945.69 19.4281 Q1953.91 26.7198 1953.91 42.2752 Q1953.91 57.9117 1945.65 65.2439 Q1937.38 72.576 1919.88 72.576 L1903.07 72.576 L1903.07 12.096 Z" fill="#000000" fill-rule="nonzero" fill-opacity="1" /><path clip-path="url(#clip300)" d="M1966.63 27.2059 L1974.08 27.2059 L1974.08 72.576 L1966.63 72.576 L1966.63 27.2059 M1966.63 9.54393 L1974.08 9.54393 L1974.08 18.9825 L1966.63 18.9825 L1966.63 9.54393 Z" fill="#000000" fill-rule="nonzero" fill-opacity="1" /><path clip-path="url(#clip300)" d="M2022.33 28.9478 L2022.33 35.9153 Q2019.17 34.1734 2015.97 33.3227 Q2012.81 32.4315 2009.57 32.4315 Q2002.32 32.4315 1998.31 37.0496 Q1994.3 41.6271 1994.3 49.9314 Q1994.3 58.2358 1998.31 62.8538 Q2002.32 67.4314 2009.57 67.4314 Q2012.81 67.4314 2015.97 66.5807 Q2019.17 65.6895 2022.33 63.9476 L2022.33 70.8341 Q2019.21 72.2924 2015.85 73.0216 Q2012.53 73.7508 2008.76 73.7508 Q1998.51 73.7508 1992.47 67.3098 Q1986.44 60.8689 1986.44 49.9314 Q1986.44 38.832 1992.51 32.472 Q1998.63 26.1121 2009.25 26.1121 Q2012.69 26.1121 2015.97 26.8413 Q2019.25 27.5299 2022.33 28.9478 Z" fill="#000000" fill-rule="nonzero" fill-opacity="1" /><path clip-path="url(#clip300)" d="M2042.67 14.324 L2042.67 27.2059 L2058.02 27.2059 L2058.02 32.9987 L2042.67 32.9987 L2042.67 57.6282 Q2042.67 63.1779 2044.16 64.7578 Q2045.7 66.3376 2050.36 66.3376 L2058.02 66.3376 L2058.02 72.576 L2050.36 72.576 Q2041.73 72.576 2038.45 69.3758 Q2035.17 66.1351 2035.17 57.6282 L2035.17 32.9987 L2029.7 32.9987 L2029.7 27.2059 L2035.17 27.2059 L2035.17 14.324 L2042.67 14.324 Z" fill="#000000" fill-rule="nonzero" fill-opacity="1" /><path clip-path="url(#clip300)" d="M2067.82 27.2059 L2075.27 27.2059 L2075.27 72.576 L2067.82 72.576 L2067.82 27.2059 M2067.82 9.54393 L2075.27 9.54393 L2075.27 18.9825 L2067.82 18.9825 L2067.82 9.54393 Z" fill="#000000" fill-rule="nonzero" fill-opacity="1" /><path clip-path="url(#clip300)" d="M2108.45 32.4315 Q2102.46 32.4315 2098.97 37.1306 Q2095.49 41.7891 2095.49 49.9314 Q2095.49 58.0738 2098.93 62.7728 Q2102.42 67.4314 2108.45 67.4314 Q2114.41 67.4314 2117.89 62.7323 Q2121.37 58.0333 2121.37 49.9314 Q2121.37 41.8701 2117.89 37.1711 Q2114.41 32.4315 2108.45 32.4315 M2108.45 26.1121 Q2118.17 26.1121 2123.72 32.4315 Q2129.27 38.7509 2129.27 49.9314 Q2129.27 61.0714 2123.72 67.4314 Q2118.17 73.7508 2108.45 73.7508 Q2098.69 73.7508 2093.14 67.4314 Q2087.63 61.0714 2087.63 49.9314 Q2087.63 38.7509 2093.14 32.4315 Q2098.69 26.1121 2108.45 26.1121 Z" fill="#000000" fill-rule="nonzero" fill-opacity="1" /><path clip-path="url(#clip300)" d="M2179.34 45.1919 L2179.34 72.576 L2171.89 72.576 L2171.89 45.4349 Q2171.89 38.994 2169.38 35.7938 Q2166.87 32.5936 2161.84 32.5936 Q2155.81 32.5936 2152.32 36.4419 Q2148.84 40.2903 2148.84 46.9338 L2148.84 72.576 L2141.35 72.576 L2141.35 27.2059 L2148.84 27.2059 L2148.84 34.2544 Q2151.51 30.163 2155.12 28.1376 Q2158.76 26.1121 2163.5 26.1121 Q2171.32 26.1121 2175.33 30.9732 Q2179.34 35.7938 2179.34 45.1919 Z" fill="#000000" fill-rule="nonzero" fill-opacity="1" /><path clip-path="url(#clip300)" d="M2214.83 49.7694 Q2205.79 49.7694 2202.31 51.8354 Q2198.83 53.9013 2198.83 58.8839 Q2198.83 62.8538 2201.42 65.2034 Q2204.05 67.5124 2208.55 67.5124 Q2214.75 67.5124 2218.47 63.1374 Q2222.24 58.7219 2222.24 51.4303 L2222.24 49.7694 L2214.83 49.7694 M2229.7 46.6907 L2229.7 72.576 L2222.24 72.576 L2222.24 65.6895 Q2219.69 69.8214 2215.88 71.8063 Q2212.07 73.7508 2206.56 73.7508 Q2199.6 73.7508 2195.47 69.8619 Q2191.37 65.9325 2191.37 59.3701 Q2191.37 51.7138 2196.48 47.825 Q2201.62 43.9361 2211.79 43.9361 L2222.24 43.9361 L2222.24 43.2069 Q2222.24 38.0623 2218.84 35.2672 Q2215.48 32.4315 2209.36 32.4315 Q2205.47 32.4315 2201.78 33.3632 Q2198.1 34.295 2194.7 36.1584 L2194.7 29.2718 Q2198.79 27.692 2202.64 26.9223 Q2206.48 26.1121 2210.13 26.1121 Q2219.97 26.1121 2224.83 31.2163 Q2229.7 36.3204 2229.7 46.6907 Z" fill="#000000" fill-rule="nonzero" fill-opacity="1" /><path clip-path="url(#clip300)" d="M2271.34 34.1734 Q2270.08 33.4443 2268.58 33.1202 Q2267.13 32.7556 2265.34 32.7556 Q2259.02 32.7556 2255.62 36.8875 Q2252.26 40.9789 2252.26 48.6757 L2252.26 72.576 L2244.76 72.576 L2244.76 27.2059 L2252.26 27.2059 L2252.26 34.2544 Q2254.61 30.1225 2258.38 28.1376 Q2262.14 26.1121 2267.53 26.1121 Q2268.3 26.1121 2269.23 26.2337 Q2270.16 26.3147 2271.3 26.5172 L2271.34 34.1734 Z" fill="#000000" fill-rule="nonzero" fill-opacity="1" /><path clip-path="url(#clip300)" d="M2298.03 76.7889 Q2294.87 84.8907 2291.88 87.3618 Q2288.88 89.8329 2283.86 89.8329 L2277.9 89.8329 L2277.9 83.5945 L2282.28 83.5945 Q2285.35 83.5945 2287.06 82.1361 Q2288.76 80.6778 2290.82 75.2496 L2292.16 71.8468 L2273.81 27.2059 L2281.71 27.2059 L2295.89 62.6918 L2310.07 27.2059 L2317.96 27.2059 L2298.03 76.7889 Z" fill="#000000" fill-rule="nonzero" fill-opacity="1" /><polyline clip-path="url(#clip301)" style="stroke:#009af9; stroke-linecap:round; stroke-linejoin:round; stroke-width:8; stroke-opacity:1; fill:none" points="1399.21,920.891 1531.46,920.891 1663.72,920.891 1795.97,920.891 1928.22,920.891 2060.48,920.891 2192.73,920.891 2324.98,920.891 "/>
<polyline clip-path="url(#clip301)" style="stroke:#e26f46; stroke-linecap:round; stroke-linejoin:round; stroke-width:8; stroke-opacity:1; fill:none" points="1399.21,879.888 1531.46,892.421 1663.72,904.645 1795.97,916.567 1928.22,928.195 2060.48,939.535 2192.73,950.596 2324.98,961.384 "/>
<polyline clip-path="url(#clip301)" style="stroke:#3da44d; stroke-linecap:round; stroke-linejoin:round; stroke-width:8; stroke-opacity:1; fill:none" points="1399.21,838.86 1531.46,865.618 1663.72,891.071 1795.97,915.283 1928.22,938.314 2060.48,960.222 2192.73,981.061 2324.98,1000.88 "/>
<polyline clip-path="url(#clip301)" style="stroke:#c271d2; stroke-linecap:round; stroke-linejoin:round; stroke-width:8; stroke-opacity:1; fill:none" points="1399.21,798.268 1531.46,840.845 1663.72,880.346 1795.97,916.992 1928.22,950.99 2060.48,982.532 2192.73,1011.79 2324.98,1038.94 "/>
<polyline clip-path="url(#clip301)" style="stroke:#ac8d18; stroke-linecap:round; stroke-linejoin:round; stroke-width:8; stroke-opacity:1; fill:none" points="1399.21,758.524 1531.46,818.38 1663.72,872.54 1795.97,921.547 1928.22,965.889 2060.48,1006.01 2192.73,1042.32 2324.98,1075.17 "/>
<polyline clip-path="url(#clip301)" style="stroke:#00a9ad; stroke-linecap:round; stroke-linejoin:round; stroke-width:8; stroke-opacity:1; fill:none" points="1399.21,719.971 1531.46,798.409 1663.72,867.631 1795.97,928.719 1928.22,982.629 2060.48,1030.2 2192.73,1072.19 2324.98,1109.24 "/>
<polyline clip-path="url(#clip301)" style="stroke:#ed5d92; stroke-linecap:round; stroke-linejoin:round; stroke-width:8; stroke-opacity:1; fill:none" points="1399.21,682.878 1531.46,781.029 1663.72,865.507 1795.97,938.219 1928.22,1000.8 2060.48,1054.67 2192.73,1101.03 2324.98,1140.94 "/>
<polyline clip-path="url(#clip301)" style="stroke:#c68125; stroke-linecap:round; stroke-linejoin:round; stroke-width:8; stroke-opacity:1; fill:none" points="1399.21,647.439 1531.46,766.253 1663.72,865.993 1795.97,949.719 1928.22,1020 2060.48,1079.01 2192.73,1128.53 2324.98,1170.11 "/>
<polyline clip-path="url(#clip301)" style="stroke:#00a98d; stroke-linecap:round; stroke-linejoin:round; stroke-width:8; stroke-opacity:1; fill:none" points="1399.21,613.774 1531.46,754.03 1663.72,868.861 1795.97,962.877 1928.22,1039.85 2060.48,1102.87 2192.73,1154.47 2324.98,1196.71 "/>
<polyline clip-path="url(#clip301)" style="stroke:#8e971d; stroke-linecap:round; stroke-linejoin:round; stroke-width:8; stroke-opacity:1; fill:none" points="1399.21,581.941 1531.46,744.251 1663.72,873.858 1795.97,977.352 1928.22,1059.99 2060.48,1125.98 2192.73,1178.68 2324.98,1220.75 "/>
<polyline clip-path="url(#clip301)" style="stroke:#00a8cb; stroke-linecap:round; stroke-linejoin:round; stroke-width:8; stroke-opacity:1; fill:none" points="1399.21,551.947 1531.46,736.774 1663.72,880.717 1795.97,992.821 1928.22,1080.13 2060.48,1148.12 2192.73,1201.07 2324.98,1242.31 "/>
<polyline clip-path="url(#clip301)" style="stroke:#9b7fe8; stroke-linecap:round; stroke-linejoin:round; stroke-width:8; stroke-opacity:1; fill:none" points="1399.21,523.76 1531.46,731.431 1663.72,889.171 1795.97,1008.99 1928.22,1100 2060.48,1169.12 2192.73,1221.63 2324.98,1261.51 "/>
<polyline clip-path="url(#clip301)" style="stroke:#608cf6; stroke-linecap:round; stroke-linejoin:round; stroke-width:8; stroke-opacity:1; fill:none" points="1399.21,497.319 1531.46,728.041 1663.72,898.965 1795.97,1025.59 1928.22,1119.39 2060.48,1188.89 2192.73,1240.37 2324.98,1278.5 "/>
<polyline clip-path="url(#clip301)" style="stroke:#f05f73; stroke-linecap:round; stroke-linejoin:round; stroke-width:8; stroke-opacity:1; fill:none" points="1399.21,472.545 1531.46,726.424 1663.72,909.859 1795.97,1042.4 1928.22,1138.16 2060.48,1207.35 2192.73,1257.34 2324.98,1293.46 "/>
<polyline clip-path="url(#clip301)" style="stroke:#dd64b5; stroke-linecap:round; stroke-linejoin:round; stroke-width:8; stroke-opacity:1; fill:none" points="1399.21,449.349 1531.46,726.401 1663.72,921.635 1795.97,1059.22 1928.22,1156.17 2060.48,1224.49 2192.73,1272.63 2324.98,1306.56 "/>
<polyline clip-path="url(#clip301)" style="stroke:#6b9e32; stroke-linecap:round; stroke-linejoin:round; stroke-width:8; stroke-opacity:1; fill:none" points="1399.21,427.634 1531.46,727.799 1663.72,934.099 1795.97,1075.89 1928.22,1173.34 2060.48,1240.31 2192.73,1286.34 2324.98,1317.98 "/>
<polyline clip-path="url(#clip301)" style="stroke:#009af9; stroke-linecap:round; stroke-linejoin:round; stroke-width:8; stroke-opacity:1; fill:none" points="1399.21,407.304 1531.46,730.46 1663.72,947.078 1795.97,1092.28 1928.22,1189.61 2060.48,1254.86 2192.73,1298.59 2324.98,1327.91 "/>
<polyline clip-path="url(#clip301)" style="stroke:#e26f46; stroke-linecap:round; stroke-linejoin:round; stroke-width:8; stroke-opacity:1; fill:none" points="1399.21,388.265 1531.46,734.235 1663.72,960.42 1795.97,1108.29 1928.22,1204.97 2060.48,1268.17 2192.73,1309.49 2324.98,1336.51 "/>
<polyline clip-path="url(#clip301)" style="stroke:#3da44d; stroke-linecap:round; stroke-linejoin:round; stroke-width:8; stroke-opacity:1; fill:none" points="1399.21,370.425 1531.46,738.99 1663.72,973.997 1795.97,1123.84 1928.22,1219.39 2060.48,1280.31 2192.73,1319.16 2324.98,1343.93 "/>
<polyline clip-path="url(#clip301)" style="stroke:#c271d2; stroke-linecap:round; stroke-linejoin:round; stroke-width:8; stroke-opacity:1; fill:none" points="1399.21,353.7 1531.46,744.601 1663.72,987.696 1795.97,1138.87 1928.22,1232.89 2060.48,1291.36 2192.73,1327.71 2324.98,1350.33 "/>
<polyline clip-path="url(#clip301)" style="stroke:#ac8d18; stroke-linecap:round; stroke-linejoin:round; stroke-width:8; stroke-opacity:1; fill:none" points="1399.21,338.009 1531.46,750.957 1663.72,1001.42 1795.97,1153.34 1928.22,1245.48 2060.48,1301.37 2192.73,1335.26 2324.98,1355.82 "/>
<polyline clip-path="url(#clip301)" style="stroke:#00a9ad; stroke-linecap:round; stroke-linejoin:round; stroke-width:8; stroke-opacity:1; fill:none" points="1399.21,323.278 1531.46,757.96 1663.72,1015.1 1795.97,1167.21 1928.22,1257.19 2060.48,1310.42 2192.73,1341.91 2324.98,1360.54 "/>
<polyline clip-path="url(#clip301)" style="stroke:#ed5d92; stroke-linecap:round; stroke-linejoin:round; stroke-width:8; stroke-opacity:1; fill:none" points="1399.21,309.438 1531.46,765.518 1663.72,1028.65 1795.97,1180.47 1928.22,1268.06 2060.48,1318.6 2192.73,1347.75 2324.98,1364.57 "/>
<polyline clip-path="url(#clip301)" style="stroke:#c68125; stroke-linecap:round; stroke-linejoin:round; stroke-width:8; stroke-opacity:1; fill:none" points="1399.21,296.426 1531.46,773.554 1663.72,1042.04 1795.97,1193.11 1928.22,1278.12 2060.48,1325.96 2192.73,1352.88 2324.98,1368.02 "/>
<polyline clip-path="url(#clip301)" style="stroke:#00a98d; stroke-linecap:round; stroke-linejoin:round; stroke-width:8; stroke-opacity:1; fill:none" points="1399.21,284.186 1531.46,781.995 1663.72,1055.2 1795.97,1205.14 1928.22,1287.42 2060.48,1332.58 2192.73,1357.37 2324.98,1370.97 "/>
<polyline clip-path="url(#clip301)" style="stroke:#8e971d; stroke-linecap:round; stroke-linejoin:round; stroke-width:8; stroke-opacity:1; fill:none" points="1399.21,272.662 1531.46,790.777 1663.72,1068.1 1795.97,1216.55 1928.22,1296 2060.48,1338.53 2192.73,1361.3 2324.98,1373.48 "/>
<polyline clip-path="url(#clip301)" style="stroke:#00a8cb; stroke-linecap:round; stroke-linejoin:round; stroke-width:8; stroke-opacity:1; fill:none" points="1399.21,261.807 1531.46,799.844 1663.72,1080.72 1795.97,1227.36 1928.22,1303.9 2060.48,1343.87 2192.73,1364.73 2324.98,1375.62 "/>
<polyline clip-path="url(#clip301)" style="stroke:#9b7fe8; stroke-linecap:round; stroke-linejoin:round; stroke-width:8; stroke-opacity:1; fill:none" points="1399.21,251.575 1531.46,809.144 1663.72,1093.03 1795.97,1237.58 1928.22,1311.17 2060.48,1348.65 2192.73,1367.72 2324.98,1377.44 "/>
<polyline clip-path="url(#clip301)" style="stroke:#608cf6; stroke-linecap:round; stroke-linejoin:round; stroke-width:8; stroke-opacity:1; fill:none" points="1399.21,241.926 1531.46,818.632 1663.72,1105.02 1795.97,1247.23 1928.22,1317.85 2060.48,1352.92 2192.73,1370.34 2324.98,1378.98 "/>
<polyline clip-path="url(#clip301)" style="stroke:#f05f73; stroke-linecap:round; stroke-linejoin:round; stroke-width:8; stroke-opacity:1; fill:none" points="1399.21,232.821 1531.46,828.268 1663.72,1116.66 1795.97,1256.33 1928.22,1323.98 2060.48,1356.74 2192.73,1372.61 2324.98,1380.3 "/>
<polyline clip-path="url(#clip301)" style="stroke:#dd64b5; stroke-linecap:round; stroke-linejoin:round; stroke-width:8; stroke-opacity:1; fill:none" points="1399.21,224.226 1531.46,838.016 1663.72,1127.95 1795.97,1264.91 1928.22,1329.6 2060.48,1360.16 2192.73,1374.59 2324.98,1381.41 "/>
<polyline clip-path="url(#clip301)" style="stroke:#6b9e32; stroke-linecap:round; stroke-linejoin:round; stroke-width:8; stroke-opacity:1; fill:none" points="1399.21,216.108 1531.46,847.843 1663.72,1138.89 1795.97,1272.97 1928.22,1334.74 2060.48,1363.2 2192.73,1376.31 2324.98,1382.35 "/>
<polyline clip-path="url(#clip301)" style="stroke:#009af9; stroke-linecap:round; stroke-linejoin:round; stroke-width:8; stroke-opacity:1; fill:none" points="1399.21,208.437 1531.46,857.721 1663.72,1149.46 1795.97,1280.55 1928.22,1339.45 2060.48,1365.92 2192.73,1377.81 2324.98,1383.15 "/>
<polyline clip-path="url(#clip301)" style="stroke:#e26f46; stroke-linecap:round; stroke-linejoin:round; stroke-width:8; stroke-opacity:1; fill:none" points="1399.21,201.187 1531.46,867.624 1663.72,1159.68 1795.97,1287.67 1928.22,1343.76 2060.48,1368.34 2192.73,1379.11 2324.98,1383.83 "/>
<polyline clip-path="url(#clip301)" style="stroke:#3da44d; stroke-linecap:round; stroke-linejoin:round; stroke-width:8; stroke-opacity:1; fill:none" points="1399.21,194.33 1531.46,877.53 1663.72,1169.54 1795.97,1294.35 1928.22,1347.69 2060.48,1370.49 2192.73,1380.24 2324.98,1384.41 "/>
<polyline clip-path="url(#clip301)" style="stroke:#c271d2; stroke-linecap:round; stroke-linejoin:round; stroke-width:8; stroke-opacity:1; fill:none" points="1399.21,187.845 1531.46,887.418 1663.72,1179.04 1795.97,1300.61 1928.22,1351.29 2060.48,1372.41 2192.73,1381.22 2324.98,1384.89 "/>
<polyline clip-path="url(#clip301)" style="stroke:#ac8d18; stroke-linecap:round; stroke-linejoin:round; stroke-width:8; stroke-opacity:1; fill:none" points="1399.21,181.708 1531.46,897.27 1663.72,1188.2 1795.97,1306.48 1928.22,1354.57 2060.48,1374.12 2192.73,1382.07 2324.98,1385.3 "/>
<polyline clip-path="url(#clip301)" style="stroke:#00a9ad; stroke-linecap:round; stroke-linejoin:round; stroke-width:8; stroke-opacity:1; fill:none" points="1399.21,175.899 1531.46,907.071 1663.72,1197 1795.97,1311.97 1928.22,1357.56 2060.48,1375.64 2192.73,1382.8 2324.98,1385.65 "/>
<polyline clip-path="url(#clip301)" style="stroke:#ed5d92; stroke-linecap:round; stroke-linejoin:round; stroke-width:8; stroke-opacity:1; fill:none" points="1399.21,170.399 1531.46,916.806 1663.72,1205.47 1795.97,1317.11 1928.22,1360.29 2060.48,1376.98 2192.73,1383.44 2324.98,1385.94 "/>
<polyline clip-path="url(#clip301)" style="stroke:#c68125; stroke-linecap:round; stroke-linejoin:round; stroke-width:8; stroke-opacity:1; fill:none" points="1399.21,165.19 1531.46,926.463 1663.72,1213.61 1795.97,1321.92 1928.22,1362.77 2060.48,1378.18 2192.73,1383.99 2324.98,1386.19 "/>
<polyline clip-path="url(#clip301)" style="stroke:#00a98d; stroke-linecap:round; stroke-linejoin:round; stroke-width:8; stroke-opacity:1; fill:none" points="1399.21,160.256 1531.46,936.032 1663.72,1221.42 1795.97,1326.41 1928.22,1365.04 2060.48,1379.25 2192.73,1384.47 2324.98,1386.4 "/>
</svg>
