<?xml version="1.0" encoding="utf-8"?>
<svg xmlns="http://www.w3.org/2000/svg" xmlns:xlink="http://www.w3.org/1999/xlink" width="600" height="400" viewBox="0 0 2400 1600">
<defs>
  <clipPath id="clip310">
    <rect x="0" y="0" width="2400" height="1600"/>
  </clipPath>
</defs>
<path clip-path="url(#clip310)" d="M0 1600 L2400 1600 L2400 0 L0 0  Z" fill="#ffffff" fill-rule="evenodd" fill-opacity="1"/>
<defs>
  <clipPath id="clip311">
    <rect x="367" y="47" width="1986" height="1377"/>
  </clipPath>
</defs>
<path clip-path="url(#clip310)" d="M367.409 1423.18 L2352.76 1423.18 L2352.76 47.2441 L367.409 47.2441  Z" fill="#ffffff" fill-rule="evenodd" fill-opacity="1"/>
<polyline clip-path="url(#clip311)" style="stroke:#000000; stroke-linecap:round; stroke-linejoin:round; stroke-width:2; stroke-opacity:0.1; fill:none" points="423.598,1423.18 423.598,47.2441 "/>
<polyline clip-path="url(#clip311)" style="stroke:#000000; stroke-linecap:round; stroke-linejoin:round; stroke-width:2; stroke-opacity:0.1; fill:none" points="891.84,1423.18 891.84,47.2441 "/>
<polyline clip-path="url(#clip311)" style="stroke:#000000; stroke-linecap:round; stroke-linejoin:round; stroke-width:2; stroke-opacity:0.1; fill:none" points="1360.08,1423.18 1360.08,47.2441 "/>
<polyline clip-path="url(#clip311)" style="stroke:#000000; stroke-linecap:round; stroke-linejoin:round; stroke-width:2; stroke-opacity:0.1; fill:none" points="1828.32,1423.18 1828.32,47.2441 "/>
<polyline clip-path="url(#clip311)" style="stroke:#000000; stroke-linecap:round; stroke-linejoin:round; stroke-width:2; stroke-opacity:0.1; fill:none" points="2296.57,1423.18 2296.57,47.2441 "/>
<polyline clip-path="url(#clip311)" style="stroke:#000000; stroke-linecap:round; stroke-linejoin:round; stroke-width:2; stroke-opacity:0.1; fill:none" points="367.409,1384.24 2352.76,1384.24 "/>
<polyline clip-path="url(#clip311)" style="stroke:#000000; stroke-linecap:round; stroke-linejoin:round; stroke-width:2; stroke-opacity:0.1; fill:none" points="367.409,1060.45 2352.76,1060.45 "/>
<polyline clip-path="url(#clip311)" style="stroke:#000000; stroke-linecap:round; stroke-linejoin:round; stroke-width:2; stroke-opacity:0.1; fill:none" points="367.409,736.671 2352.76,736.671 "/>
<polyline clip-path="url(#clip311)" style="stroke:#000000; stroke-linecap:round; stroke-linejoin:round; stroke-width:2; stroke-opacity:0.1; fill:none" points="367.409,412.888 2352.76,412.888 "/>
<polyline clip-path="url(#clip311)" style="stroke:#000000; stroke-linecap:round; stroke-linejoin:round; stroke-width:2; stroke-opacity:0.1; fill:none" points="367.409,89.1039 2352.76,89.1039 "/>
<polyline clip-path="url(#clip310)" style="stroke:#000000; stroke-linecap:round; stroke-linejoin:round; stroke-width:4; stroke-opacity:1; fill:none" points="367.409,1423.18 2352.76,1423.18 "/>
<polyline clip-path="url(#clip310)" style="stroke:#000000; stroke-linecap:round; stroke-linejoin:round; stroke-width:4; stroke-opacity:1; fill:none" points="423.598,1423.18 423.598,1404.28 "/>
<polyline clip-path="url(#clip310)" style="stroke:#000000; stroke-linecap:round; stroke-linejoin:round; stroke-width:4; stroke-opacity:1; fill:none" points="891.84,1423.18 891.84,1404.28 "/>
<polyline clip-path="url(#clip310)" style="stroke:#000000; stroke-linecap:round; stroke-linejoin:round; stroke-width:4; stroke-opacity:1; fill:none" points="1360.08,1423.18 1360.08,1404.28 "/>
<polyline clip-path="url(#clip310)" style="stroke:#000000; stroke-linecap:round; stroke-linejoin:round; stroke-width:4; stroke-opacity:1; fill:none" points="1828.32,1423.18 1828.32,1404.28 "/>
<polyline clip-path="url(#clip310)" style="stroke:#000000; stroke-linecap:round; stroke-linejoin:round; stroke-width:4; stroke-opacity:1; fill:none" points="2296.57,1423.18 2296.57,1404.28 "/>
<path clip-path="url(#clip310)" d="M423.598 1454.1 Q419.987 1454.1 418.158 1457.66 Q416.353 1461.2 416.353 1468.33 Q416.353 1475.44 418.158 1479.01 Q419.987 1482.55 423.598 1482.55 Q427.232 1482.55 429.038 1479.01 Q430.866 1475.44 430.866 1468.33 Q430.866 1461.2 429.038 1457.66 Q427.232 1454.1 423.598 1454.1 M423.598 1450.39 Q429.408 1450.39 432.464 1455 Q435.542 1459.58 435.542 1468.33 Q435.542 1477.06 432.464 1481.67 Q429.408 1486.25 423.598 1486.25 Q417.788 1486.25 414.709 1481.67 Q411.654 1477.06 411.654 1468.33 Q411.654 1459.58 414.709 1455 Q417.788 1450.39 423.598 1450.39 Z" fill="#000000" fill-rule="nonzero" fill-opacity="1" /><path clip-path="url(#clip310)" d="M882.118 1451.02 L900.474 1451.02 L900.474 1454.96 L886.4 1454.96 L886.4 1463.43 Q887.419 1463.08 888.437 1462.92 Q889.456 1462.73 890.474 1462.73 Q896.261 1462.73 899.641 1465.9 Q903.021 1469.08 903.021 1474.49 Q903.021 1480.07 899.548 1483.17 Q896.076 1486.25 889.757 1486.25 Q887.581 1486.25 885.312 1485.88 Q883.067 1485.51 880.66 1484.77 L880.66 1480.07 Q882.743 1481.2 884.965 1481.76 Q887.187 1482.32 889.664 1482.32 Q893.669 1482.32 896.007 1480.21 Q898.345 1478.1 898.345 1474.49 Q898.345 1470.88 896.007 1468.77 Q893.669 1466.67 889.664 1466.67 Q887.789 1466.67 885.914 1467.08 Q884.062 1467.5 882.118 1468.38 L882.118 1451.02 Z" fill="#000000" fill-rule="nonzero" fill-opacity="1" /><path clip-path="url(#clip310)" d="M1334.77 1481.64 L1342.41 1481.64 L1342.41 1455.28 L1334.1 1456.95 L1334.1 1452.69 L1342.36 1451.02 L1347.04 1451.02 L1347.04 1481.64 L1354.68 1481.64 L1354.68 1485.58 L1334.77 1485.58 L1334.77 1481.64 Z" fill="#000000" fill-rule="nonzero" fill-opacity="1" /><path clip-path="url(#clip310)" d="M1374.12 1454.1 Q1370.51 1454.1 1368.68 1457.66 Q1366.88 1461.2 1366.88 1468.33 Q1366.88 1475.44 1368.68 1479.01 Q1370.51 1482.55 1374.12 1482.55 Q1377.76 1482.55 1379.56 1479.01 Q1381.39 1475.44 1381.39 1468.33 Q1381.39 1461.2 1379.56 1457.66 Q1377.76 1454.1 1374.12 1454.1 M1374.12 1450.39 Q1379.93 1450.39 1382.99 1455 Q1386.07 1459.58 1386.07 1468.33 Q1386.07 1477.06 1382.99 1481.67 Q1379.93 1486.25 1374.12 1486.25 Q1368.31 1486.25 1365.23 1481.67 Q1362.18 1477.06 1362.18 1468.33 Q1362.18 1459.58 1365.23 1455 Q1368.31 1450.39 1374.12 1450.39 Z" fill="#000000" fill-rule="nonzero" fill-opacity="1" /><path clip-path="url(#clip310)" d="M1803.51 1481.64 L1811.15 1481.64 L1811.15 1455.28 L1802.84 1456.95 L1802.84 1452.69 L1811.1 1451.02 L1815.78 1451.02 L1815.78 1481.64 L1823.42 1481.64 L1823.42 1485.58 L1803.51 1485.58 L1803.51 1481.64 Z" fill="#000000" fill-rule="nonzero" fill-opacity="1" /><path clip-path="url(#clip310)" d="M1832.91 1451.02 L1851.26 1451.02 L1851.26 1454.96 L1837.19 1454.96 L1837.19 1463.43 Q1838.21 1463.08 1839.23 1462.92 Q1840.25 1462.73 1841.26 1462.73 Q1847.05 1462.73 1850.43 1465.9 Q1853.81 1469.08 1853.81 1474.49 Q1853.81 1480.07 1850.34 1483.17 Q1846.87 1486.25 1840.55 1486.25 Q1838.37 1486.25 1836.1 1485.88 Q1833.86 1485.51 1831.45 1484.77 L1831.45 1480.07 Q1833.53 1481.2 1835.76 1481.76 Q1837.98 1482.32 1840.45 1482.32 Q1844.46 1482.32 1846.8 1480.21 Q1849.13 1478.1 1849.13 1474.49 Q1849.13 1470.88 1846.8 1468.77 Q1844.46 1466.67 1840.45 1466.67 Q1838.58 1466.67 1836.7 1467.08 Q1834.85 1467.5 1832.91 1468.38 L1832.91 1451.02 Z" fill="#000000" fill-rule="nonzero" fill-opacity="1" /><path clip-path="url(#clip310)" d="M2275.34 1481.64 L2291.66 1481.64 L2291.66 1485.58 L2269.72 1485.58 L2269.72 1481.64 Q2272.38 1478.89 2276.96 1474.26 Q2281.57 1469.61 2282.75 1468.27 Q2284.99 1465.74 2285.87 1464.01 Q2286.78 1462.25 2286.78 1460.56 Q2286.78 1457.8 2284.83 1456.07 Q2282.91 1454.33 2279.81 1454.33 Q2277.61 1454.33 2275.15 1455.09 Q2272.72 1455.86 2269.95 1457.41 L2269.95 1452.69 Q2272.77 1451.55 2275.22 1450.97 Q2277.68 1450.39 2279.72 1450.39 Q2285.09 1450.39 2288.28 1453.08 Q2291.47 1455.77 2291.47 1460.26 Q2291.47 1462.39 2290.66 1464.31 Q2289.88 1466.2 2287.77 1468.8 Q2287.19 1469.47 2284.09 1472.69 Q2280.99 1475.88 2275.34 1481.64 Z" fill="#000000" fill-rule="nonzero" fill-opacity="1" /><path clip-path="url(#clip310)" d="M2311.47 1454.1 Q2307.86 1454.1 2306.03 1457.66 Q2304.23 1461.2 2304.23 1468.33 Q2304.23 1475.44 2306.03 1479.01 Q2307.86 1482.55 2311.47 1482.55 Q2315.11 1482.55 2316.91 1479.01 Q2318.74 1475.44 2318.74 1468.33 Q2318.74 1461.2 2316.91 1457.66 Q2315.11 1454.1 2311.47 1454.1 M2311.47 1450.39 Q2317.28 1450.39 2320.34 1455 Q2323.42 1459.58 2323.42 1468.33 Q2323.42 1477.06 2320.34 1481.67 Q2317.28 1486.25 2311.47 1486.25 Q2305.66 1486.25 2302.59 1481.67 Q2299.53 1477.06 2299.53 1468.33 Q2299.53 1459.58 2302.59 1455 Q2305.66 1450.39 2311.47 1450.39 Z" fill="#000000" fill-rule="nonzero" fill-opacity="1" /><path clip-path="url(#clip310)" d="M1196.32 1532.4 L1202.18 1532.4 L1202.18 1568.04 L1196.32 1568.04 L1196.32 1532.4 M1196.32 1518.52 L1202.18 1518.52 L1202.18 1525.93 L1196.32 1525.93 L1196.32 1518.52 Z" fill="#000000" fill-rule="nonzero" fill-opacity="1" /><path clip-path="url(#clip310)" d="M1220.23 1522.27 L1220.23 1532.4 L1232.29 1532.4 L1232.29 1536.95 L1220.23 1536.95 L1220.23 1556.3 Q1220.23 1560.66 1221.41 1561.9 Q1222.61 1563.14 1226.28 1563.14 L1232.29 1563.14 L1232.29 1568.04 L1226.28 1568.04 Q1219.5 1568.04 1216.92 1565.53 Q1214.34 1562.98 1214.34 1556.3 L1214.34 1536.95 L1210.04 1536.95 L1210.04 1532.4 L1214.34 1532.4 L1214.34 1522.27 L1220.23 1522.27 Z" fill="#000000" fill-rule="nonzero" fill-opacity="1" /><path clip-path="url(#clip310)" d="M1270.49 1548.76 L1270.49 1551.62 L1243.56 1551.62 Q1243.94 1557.67 1247.19 1560.85 Q1250.46 1564 1256.29 1564 Q1259.66 1564 1262.81 1563.17 Q1266 1562.35 1269.12 1560.69 L1269.12 1566.23 Q1265.97 1567.57 1262.66 1568.27 Q1259.35 1568.97 1255.94 1568.97 Q1247.41 1568.97 1242.41 1564 Q1237.45 1559.04 1237.45 1550.57 Q1237.45 1541.82 1242.16 1536.69 Q1246.9 1531.54 1254.92 1531.54 Q1262.11 1531.54 1266.28 1536.18 Q1270.49 1540.8 1270.49 1548.76 M1264.63 1547.04 Q1264.56 1542.23 1261.92 1539.37 Q1259.31 1536.5 1254.98 1536.5 Q1250.08 1536.5 1247.12 1539.27 Q1244.19 1542.04 1243.75 1547.07 L1264.63 1547.04 Z" fill="#000000" fill-rule="nonzero" fill-opacity="1" /><path clip-path="url(#clip310)" d="M1300.75 1537.87 Q1299.77 1537.3 1298.59 1537.04 Q1297.44 1536.76 1296.04 1536.76 Q1291.08 1536.76 1288.4 1540 Q1285.76 1543.22 1285.76 1549.27 L1285.76 1568.04 L1279.87 1568.04 L1279.87 1532.4 L1285.76 1532.4 L1285.76 1537.93 Q1287.61 1534.69 1290.57 1533.13 Q1293.53 1531.54 1297.76 1531.54 Q1298.37 1531.54 1299.1 1531.63 Q1299.83 1531.7 1300.72 1531.85 L1300.75 1537.87 Z" fill="#000000" fill-rule="nonzero" fill-opacity="1" /><path clip-path="url(#clip310)" d="M1323.1 1550.12 Q1316 1550.12 1313.26 1551.75 Q1310.53 1553.37 1310.53 1557.29 Q1310.53 1560.4 1312.56 1562.25 Q1314.63 1564.07 1318.16 1564.07 Q1323.03 1564.07 1325.96 1560.63 Q1328.92 1557.16 1328.92 1551.43 L1328.92 1550.12 L1323.1 1550.12 M1334.78 1547.71 L1334.78 1568.04 L1328.92 1568.04 L1328.92 1562.63 Q1326.92 1565.88 1323.93 1567.44 Q1320.93 1568.97 1316.6 1568.97 Q1311.13 1568.97 1307.88 1565.91 Q1304.67 1562.82 1304.67 1557.67 Q1304.67 1551.65 1308.68 1548.6 Q1312.72 1545.54 1320.71 1545.54 L1328.92 1545.54 L1328.92 1544.97 Q1328.92 1540.93 1326.25 1538.73 Q1323.61 1536.5 1318.8 1536.5 Q1315.75 1536.5 1312.85 1537.23 Q1309.95 1537.97 1307.28 1539.43 L1307.28 1534.02 Q1310.49 1532.78 1313.52 1532.17 Q1316.54 1531.54 1319.41 1531.54 Q1327.14 1531.54 1330.96 1535.55 Q1334.78 1539.56 1334.78 1547.71 Z" fill="#000000" fill-rule="nonzero" fill-opacity="1" /><path clip-path="url(#clip310)" d="M1352.63 1522.27 L1352.63 1532.4 L1364.7 1532.4 L1364.7 1536.95 L1352.63 1536.95 L1352.63 1556.3 Q1352.63 1560.66 1353.81 1561.9 Q1355.02 1563.14 1358.68 1563.14 L1364.7 1563.14 L1364.7 1568.04 L1358.68 1568.04 Q1351.9 1568.04 1349.32 1565.53 Q1346.75 1562.98 1346.75 1556.3 L1346.75 1536.95 L1342.45 1536.95 L1342.45 1532.4 L1346.75 1532.4 L1346.75 1522.27 L1352.63 1522.27 Z" fill="#000000" fill-rule="nonzero" fill-opacity="1" /><path clip-path="url(#clip310)" d="M1372.4 1532.4 L1378.26 1532.4 L1378.26 1568.04 L1372.4 1568.04 L1372.4 1532.4 M1372.4 1518.52 L1378.26 1518.52 L1378.26 1525.93 L1372.4 1525.93 L1372.4 1518.52 Z" fill="#000000" fill-rule="nonzero" fill-opacity="1" /><path clip-path="url(#clip310)" d="M1404.32 1536.5 Q1399.61 1536.5 1396.88 1540.19 Q1394.14 1543.85 1394.14 1550.25 Q1394.14 1556.65 1396.84 1560.34 Q1399.58 1564 1404.32 1564 Q1409 1564 1411.74 1560.31 Q1414.48 1556.62 1414.48 1550.25 Q1414.48 1543.92 1411.74 1540.23 Q1409 1536.5 1404.32 1536.5 M1404.32 1531.54 Q1411.96 1531.54 1416.32 1536.5 Q1420.68 1541.47 1420.68 1550.25 Q1420.68 1559 1416.32 1564 Q1411.96 1568.97 1404.32 1568.97 Q1396.65 1568.97 1392.29 1564 Q1387.96 1559 1387.96 1550.25 Q1387.96 1541.47 1392.29 1536.5 Q1396.65 1531.54 1404.32 1531.54 Z" fill="#000000" fill-rule="nonzero" fill-opacity="1" /><path clip-path="url(#clip310)" d="M1460.02 1546.53 L1460.02 1568.04 L1454.17 1568.04 L1454.17 1546.72 Q1454.17 1541.66 1452.19 1539.14 Q1450.22 1536.63 1446.27 1536.63 Q1441.53 1536.63 1438.79 1539.65 Q1436.06 1542.68 1436.06 1547.9 L1436.06 1568.04 L1430.17 1568.04 L1430.17 1532.4 L1436.06 1532.4 L1436.06 1537.93 Q1438.16 1534.72 1440.99 1533.13 Q1443.86 1531.54 1447.58 1531.54 Q1453.72 1531.54 1456.87 1535.36 Q1460.02 1539.14 1460.02 1546.53 Z" fill="#000000" fill-rule="nonzero" fill-opacity="1" /><path clip-path="url(#clip310)" d="M1492.2 1518.52 L1498.09 1518.52 L1498.09 1547.77 L1515.56 1532.4 L1523.04 1532.4 L1504.14 1549.07 L1523.84 1568.04 L1516.2 1568.04 L1498.09 1550.63 L1498.09 1568.04 L1492.2 1568.04 L1492.2 1518.52 Z" fill="#000000" fill-rule="nonzero" fill-opacity="1" /><polyline clip-path="url(#clip310)" style="stroke:#000000; stroke-linecap:round; stroke-linejoin:round; stroke-width:4; stroke-opacity:1; fill:none" points="367.409,1423.18 367.409,47.2441 "/>
<polyline clip-path="url(#clip310)" style="stroke:#000000; stroke-linecap:round; stroke-linejoin:round; stroke-width:4; stroke-opacity:1; fill:none" points="367.409,1384.24 386.307,1384.24 "/>
<polyline clip-path="url(#clip310)" style="stroke:#000000; stroke-linecap:round; stroke-linejoin:round; stroke-width:4; stroke-opacity:1; fill:none" points="367.409,1060.45 386.307,1060.45 "/>
<polyline clip-path="url(#clip310)" style="stroke:#000000; stroke-linecap:round; stroke-linejoin:round; stroke-width:4; stroke-opacity:1; fill:none" points="367.409,736.671 386.307,736.671 "/>
<polyline clip-path="url(#clip310)" style="stroke:#000000; stroke-linecap:round; stroke-linejoin:round; stroke-width:4; stroke-opacity:1; fill:none" points="367.409,412.888 386.307,412.888 "/>
<polyline clip-path="url(#clip310)" style="stroke:#000000; stroke-linecap:round; stroke-linejoin:round; stroke-width:4; stroke-opacity:1; fill:none" points="367.409,89.1039 386.307,89.1039 "/>
<path clip-path="url(#clip310)" d="M319.464 1370.04 Q315.853 1370.04 314.025 1373.6 Q312.219 1377.14 312.219 1384.27 Q312.219 1391.38 314.025 1394.94 Q315.853 1398.49 319.464 1398.49 Q323.099 1398.49 324.904 1394.94 Q326.733 1391.38 326.733 1384.27 Q326.733 1377.14 324.904 1373.6 Q323.099 1370.04 319.464 1370.04 M319.464 1366.33 Q325.275 1366.33 328.33 1370.94 Q331.409 1375.52 331.409 1384.27 Q331.409 1393 328.33 1397.61 Q325.275 1402.19 319.464 1402.19 Q313.654 1402.19 310.576 1397.61 Q307.52 1393 307.52 1384.27 Q307.52 1375.52 310.576 1370.94 Q313.654 1366.33 319.464 1366.33 Z" fill="#000000" fill-rule="nonzero" fill-opacity="1" /><path clip-path="url(#clip310)" d="M119.885 1080.25 L136.204 1080.25 L136.204 1084.18 L114.26 1084.18 L114.26 1080.25 Q116.922 1077.49 121.505 1072.86 Q126.112 1068.21 127.292 1066.87 Q129.538 1064.34 130.417 1062.61 Q131.32 1060.85 131.32 1059.16 Q131.32 1056.4 129.376 1054.67 Q127.455 1052.93 124.353 1052.93 Q122.154 1052.93 119.7 1053.7 Q117.269 1054.46 114.492 1056.01 L114.492 1051.29 Q117.316 1050.15 119.769 1049.58 Q122.223 1049 124.26 1049 Q129.63 1049 132.825 1051.68 Q136.019 1054.37 136.019 1058.86 Q136.019 1060.99 135.209 1062.91 Q134.422 1064.81 132.316 1067.4 Q131.737 1068.07 128.635 1071.29 Q125.533 1074.48 119.885 1080.25 Z" fill="#000000" fill-rule="nonzero" fill-opacity="1" /><path clip-path="url(#clip310)" d="M146.019 1078.3 L150.903 1078.3 L150.903 1084.18 L146.019 1084.18 L146.019 1078.3 Z" fill="#000000" fill-rule="nonzero" fill-opacity="1" /><path clip-path="url(#clip310)" d="M161.135 1049.62 L179.491 1049.62 L179.491 1053.56 L165.417 1053.56 L165.417 1062.03 Q166.436 1061.68 167.454 1061.52 Q168.473 1061.34 169.491 1061.34 Q175.278 1061.34 178.658 1064.51 Q182.038 1067.68 182.038 1073.09 Q182.038 1078.67 178.565 1081.77 Q175.093 1084.85 168.774 1084.85 Q166.598 1084.85 164.329 1084.48 Q162.084 1084.11 159.677 1083.37 L159.677 1078.67 Q161.76 1079.81 163.982 1080.36 Q166.204 1080.92 168.681 1080.92 Q172.686 1080.92 175.024 1078.81 Q177.362 1076.71 177.362 1073.09 Q177.362 1069.48 175.024 1067.38 Q172.686 1065.27 168.681 1065.27 Q166.806 1065.27 164.931 1065.69 Q163.079 1066.1 161.135 1066.98 L161.135 1049.62 Z" fill="#000000" fill-rule="nonzero" fill-opacity="1" /><path clip-path="url(#clip310)" d="M201.25 1052.7 Q197.639 1052.7 195.811 1056.27 Q194.005 1059.81 194.005 1066.94 Q194.005 1074.04 195.811 1077.61 Q197.639 1081.15 201.25 1081.15 Q204.885 1081.15 206.69 1077.61 Q208.519 1074.04 208.519 1066.94 Q208.519 1059.81 206.69 1056.27 Q204.885 1052.7 201.25 1052.7 M201.25 1049 Q207.061 1049 210.116 1053.6 Q213.195 1058.19 213.195 1066.94 Q213.195 1075.66 210.116 1080.27 Q207.061 1084.85 201.25 1084.85 Q195.44 1084.85 192.362 1080.27 Q189.306 1075.66 189.306 1066.94 Q189.306 1058.19 192.362 1053.6 Q195.44 1049 201.25 1049 Z" fill="#000000" fill-rule="nonzero" fill-opacity="1" /><path clip-path="url(#clip310)" d="M249.584 1058.72 L239.005 1069.34 L249.584 1079.92 L246.829 1082.72 L236.204 1072.1 L225.579 1082.72 L222.848 1079.92 L233.403 1069.34 L222.848 1058.72 L225.579 1055.92 L236.204 1066.54 L246.829 1055.92 L249.584 1058.72 Z" fill="#000000" fill-rule="nonzero" fill-opacity="1" /><path clip-path="url(#clip310)" d="M261.945 1080.25 L269.583 1080.25 L269.583 1053.88 L261.273 1055.55 L261.273 1051.29 L269.537 1049.62 L274.213 1049.62 L274.213 1080.25 L281.852 1080.25 L281.852 1084.18 L261.945 1084.18 L261.945 1080.25 Z" fill="#000000" fill-rule="nonzero" fill-opacity="1" /><path clip-path="url(#clip310)" d="M301.296 1052.7 Q297.685 1052.7 295.856 1056.27 Q294.051 1059.81 294.051 1066.94 Q294.051 1074.04 295.856 1077.61 Q297.685 1081.15 301.296 1081.15 Q304.93 1081.15 306.736 1077.61 Q308.565 1074.04 308.565 1066.94 Q308.565 1059.81 306.736 1056.27 Q304.93 1052.7 301.296 1052.7 M301.296 1049 Q307.106 1049 310.162 1053.6 Q313.241 1058.19 313.241 1066.94 Q313.241 1075.66 310.162 1080.27 Q307.106 1084.85 301.296 1084.85 Q295.486 1084.85 292.407 1080.27 Q289.352 1075.66 289.352 1066.94 Q289.352 1058.19 292.407 1053.6 Q295.486 1049 301.296 1049 Z" fill="#000000" fill-rule="nonzero" fill-opacity="1" /><path clip-path="url(#clip310)" d="M314.425 1028.69 L329.34 1028.69 L329.34 1031.89 L317.905 1031.89 L317.905 1038.77 Q318.732 1038.49 319.56 1038.36 Q320.388 1038.21 321.215 1038.21 Q325.917 1038.21 328.663 1040.79 Q331.409 1043.36 331.409 1047.76 Q331.409 1052.3 328.588 1054.82 Q325.767 1057.32 320.632 1057.32 Q318.864 1057.32 317.021 1057.02 Q315.197 1056.72 313.241 1056.11 L313.241 1052.3 Q314.933 1053.22 316.739 1053.67 Q318.544 1054.12 320.557 1054.12 Q323.811 1054.12 325.71 1052.41 Q327.61 1050.7 327.61 1047.76 Q327.61 1044.83 325.71 1043.12 Q323.811 1041.41 320.557 1041.41 Q319.033 1041.41 317.51 1041.74 Q316.005 1042.08 314.425 1042.8 L314.425 1028.69 Z" fill="#000000" fill-rule="nonzero" fill-opacity="1" /><path clip-path="url(#clip310)" d="M115.904 725.839 L134.26 725.839 L134.26 729.774 L120.186 729.774 L120.186 738.246 Q121.205 737.899 122.223 737.737 Q123.242 737.552 124.26 737.552 Q130.047 737.552 133.427 740.723 Q136.806 743.894 136.806 749.311 Q136.806 754.889 133.334 757.991 Q129.862 761.07 123.543 761.07 Q121.367 761.07 119.098 760.7 Q116.853 760.329 114.445 759.589 L114.445 754.889 Q116.529 756.024 118.751 756.579 Q120.973 757.135 123.45 757.135 Q127.455 757.135 129.792 755.028 Q132.13 752.922 132.13 749.311 Q132.13 745.7 129.792 743.593 Q127.455 741.487 123.45 741.487 Q121.575 741.487 119.7 741.903 Q117.848 742.32 115.904 743.2 L115.904 725.839 Z" fill="#000000" fill-rule="nonzero" fill-opacity="1" /><path clip-path="url(#clip310)" d="M146.019 754.519 L150.903 754.519 L150.903 760.399 L146.019 760.399 L146.019 754.519 Z" fill="#000000" fill-rule="nonzero" fill-opacity="1" /><path clip-path="url(#clip310)" d="M171.089 728.917 Q167.477 728.917 165.649 732.482 Q163.843 736.024 163.843 743.153 Q163.843 750.26 165.649 753.825 Q167.477 757.366 171.089 757.366 Q174.723 757.366 176.528 753.825 Q178.357 750.26 178.357 743.153 Q178.357 736.024 176.528 732.482 Q174.723 728.917 171.089 728.917 M171.089 725.214 Q176.899 725.214 179.954 729.82 Q183.033 734.403 183.033 743.153 Q183.033 751.88 179.954 756.487 Q176.899 761.07 171.089 761.07 Q165.278 761.07 162.2 756.487 Q159.144 751.88 159.144 743.153 Q159.144 734.403 162.2 729.82 Q165.278 725.214 171.089 725.214 Z" fill="#000000" fill-rule="nonzero" fill-opacity="1" /><path clip-path="url(#clip310)" d="M201.25 728.917 Q197.639 728.917 195.811 732.482 Q194.005 736.024 194.005 743.153 Q194.005 750.26 195.811 753.825 Q197.639 757.366 201.25 757.366 Q204.885 757.366 206.69 753.825 Q208.519 750.26 208.519 743.153 Q208.519 736.024 206.69 732.482 Q204.885 728.917 201.25 728.917 M201.25 725.214 Q207.061 725.214 210.116 729.82 Q213.195 734.403 213.195 743.153 Q213.195 751.88 210.116 756.487 Q207.061 761.07 201.25 761.07 Q195.44 761.07 192.362 756.487 Q189.306 751.88 189.306 743.153 Q189.306 734.403 192.362 729.82 Q195.44 725.214 201.25 725.214 Z" fill="#000000" fill-rule="nonzero" fill-opacity="1" /><path clip-path="url(#clip310)" d="M249.584 734.936 L239.005 745.561 L249.584 756.139 L246.829 758.94 L236.204 748.315 L225.579 758.94 L222.848 756.139 L233.403 745.561 L222.848 734.936 L225.579 732.135 L236.204 742.76 L246.829 732.135 L249.584 734.936 Z" fill="#000000" fill-rule="nonzero" fill-opacity="1" /><path clip-path="url(#clip310)" d="M261.945 756.464 L269.583 756.464 L269.583 730.098 L261.273 731.765 L261.273 727.505 L269.537 725.839 L274.213 725.839 L274.213 756.464 L281.852 756.464 L281.852 760.399 L261.945 760.399 L261.945 756.464 Z" fill="#000000" fill-rule="nonzero" fill-opacity="1" /><path clip-path="url(#clip310)" d="M301.296 728.917 Q297.685 728.917 295.856 732.482 Q294.051 736.024 294.051 743.153 Q294.051 750.26 295.856 753.825 Q297.685 757.366 301.296 757.366 Q304.93 757.366 306.736 753.825 Q308.565 750.26 308.565 743.153 Q308.565 736.024 306.736 732.482 Q304.93 728.917 301.296 728.917 M301.296 725.214 Q307.106 725.214 310.162 729.82 Q313.241 734.403 313.241 743.153 Q313.241 751.88 310.162 756.487 Q307.106 761.07 301.296 761.07 Q295.486 761.07 292.407 756.487 Q289.352 751.88 289.352 743.153 Q289.352 734.403 292.407 729.82 Q295.486 725.214 301.296 725.214 Z" fill="#000000" fill-rule="nonzero" fill-opacity="1" /><path clip-path="url(#clip310)" d="M314.425 704.908 L329.34 704.908 L329.34 708.106 L317.905 708.106 L317.905 714.989 Q318.732 714.707 319.56 714.575 Q320.388 714.425 321.215 714.425 Q325.917 714.425 328.663 717.002 Q331.409 719.578 331.409 723.979 Q331.409 728.512 328.588 731.032 Q325.767 733.534 320.632 733.534 Q318.864 733.534 317.021 733.233 Q315.197 732.932 313.241 732.33 L313.241 728.512 Q314.933 729.434 316.739 729.885 Q318.544 730.336 320.557 730.336 Q323.811 730.336 325.71 728.625 Q327.61 726.913 327.61 723.979 Q327.61 721.045 325.71 719.334 Q323.811 717.622 320.557 717.622 Q319.033 717.622 317.51 717.961 Q316.005 718.299 314.425 719.014 L314.425 704.908 Z" fill="#000000" fill-rule="nonzero" fill-opacity="1" /><path clip-path="url(#clip310)" d="M114.677 402.055 L136.899 402.055 L136.899 404.046 L124.353 436.615 L119.468 436.615 L131.274 405.99 L114.677 405.99 L114.677 402.055 Z" fill="#000000" fill-rule="nonzero" fill-opacity="1" /><path clip-path="url(#clip310)" d="M146.019 430.736 L150.903 430.736 L150.903 436.615 L146.019 436.615 L146.019 430.736 Z" fill="#000000" fill-rule="nonzero" fill-opacity="1" /><path clip-path="url(#clip310)" d="M161.135 402.055 L179.491 402.055 L179.491 405.99 L165.417 405.99 L165.417 414.462 Q166.436 414.115 167.454 413.953 Q168.473 413.768 169.491 413.768 Q175.278 413.768 178.658 416.939 Q182.038 420.111 182.038 425.527 Q182.038 431.106 178.565 434.208 Q175.093 437.286 168.774 437.286 Q166.598 437.286 164.329 436.916 Q162.084 436.546 159.677 435.805 L159.677 431.106 Q161.76 432.24 163.982 432.796 Q166.204 433.351 168.681 433.351 Q172.686 433.351 175.024 431.245 Q177.362 429.138 177.362 425.527 Q177.362 421.916 175.024 419.81 Q172.686 417.703 168.681 417.703 Q166.806 417.703 164.931 418.12 Q163.079 418.537 161.135 419.416 L161.135 402.055 Z" fill="#000000" fill-rule="nonzero" fill-opacity="1" /><path clip-path="url(#clip310)" d="M201.25 405.134 Q197.639 405.134 195.811 408.699 Q194.005 412.24 194.005 419.37 Q194.005 426.476 195.811 430.041 Q197.639 433.583 201.25 433.583 Q204.885 433.583 206.69 430.041 Q208.519 426.476 208.519 419.37 Q208.519 412.24 206.69 408.699 Q204.885 405.134 201.25 405.134 M201.25 401.43 Q207.061 401.43 210.116 406.037 Q213.195 410.62 213.195 419.37 Q213.195 428.097 210.116 432.703 Q207.061 437.286 201.25 437.286 Q195.44 437.286 192.362 432.703 Q189.306 428.097 189.306 419.37 Q189.306 410.62 192.362 406.037 Q195.44 401.43 201.25 401.43 Z" fill="#000000" fill-rule="nonzero" fill-opacity="1" /><path clip-path="url(#clip310)" d="M249.584 411.152 L239.005 421.777 L249.584 432.356 L246.829 435.157 L236.204 424.532 L225.579 435.157 L222.848 432.356 L233.403 421.777 L222.848 411.152 L225.579 408.351 L236.204 418.976 L246.829 408.351 L249.584 411.152 Z" fill="#000000" fill-rule="nonzero" fill-opacity="1" /><path clip-path="url(#clip310)" d="M261.945 432.68 L269.583 432.68 L269.583 406.314 L261.273 407.981 L261.273 403.722 L269.537 402.055 L274.213 402.055 L274.213 432.68 L281.852 432.68 L281.852 436.615 L261.945 436.615 L261.945 432.68 Z" fill="#000000" fill-rule="nonzero" fill-opacity="1" /><path clip-path="url(#clip310)" d="M301.296 405.134 Q297.685 405.134 295.856 408.699 Q294.051 412.24 294.051 419.37 Q294.051 426.476 295.856 430.041 Q297.685 433.583 301.296 433.583 Q304.93 433.583 306.736 430.041 Q308.565 426.476 308.565 419.37 Q308.565 412.24 306.736 408.699 Q304.93 405.134 301.296 405.134 M301.296 401.43 Q307.106 401.43 310.162 406.037 Q313.241 410.62 313.241 419.37 Q313.241 428.097 310.162 432.703 Q307.106 437.286 301.296 437.286 Q295.486 437.286 292.407 432.703 Q289.352 428.097 289.352 419.37 Q289.352 410.62 292.407 406.037 Q295.486 401.43 301.296 401.43 Z" fill="#000000" fill-rule="nonzero" fill-opacity="1" /><path clip-path="url(#clip310)" d="M314.425 381.125 L329.34 381.125 L329.34 384.322 L317.905 384.322 L317.905 391.206 Q318.732 390.924 319.56 390.792 Q320.388 390.641 321.215 390.641 Q325.917 390.641 328.663 393.218 Q331.409 395.795 331.409 400.196 Q331.409 404.728 328.588 407.249 Q325.767 409.75 320.632 409.75 Q318.864 409.75 317.021 409.449 Q315.197 409.148 313.241 408.546 L313.241 404.728 Q314.933 405.65 316.739 406.101 Q318.544 406.553 320.557 406.553 Q323.811 406.553 325.71 404.841 Q327.61 403.13 327.61 400.196 Q327.61 397.262 325.71 395.55 Q323.811 393.839 320.557 393.839 Q319.033 393.839 317.51 394.177 Q316.005 394.516 314.425 395.231 L314.425 381.125 Z" fill="#000000" fill-rule="nonzero" fill-opacity="1" /><path clip-path="url(#clip310)" d="M115.445 108.896 L123.084 108.896 L123.084 82.5308 L114.774 84.1974 L114.774 79.9382 L123.038 78.2715 L127.713 78.2715 L127.713 108.896 L135.352 108.896 L135.352 112.832 L115.445 112.832 L115.445 108.896 Z" fill="#000000" fill-rule="nonzero" fill-opacity="1" /><path clip-path="url(#clip310)" d="M144.797 106.952 L149.681 106.952 L149.681 112.832 L144.797 112.832 L144.797 106.952 Z" fill="#000000" fill-rule="nonzero" fill-opacity="1" /><path clip-path="url(#clip310)" d="M169.866 81.3502 Q166.255 81.3502 164.426 84.915 Q162.621 88.4567 162.621 95.5863 Q162.621 102.693 164.426 106.257 Q166.255 109.799 169.866 109.799 Q173.5 109.799 175.306 106.257 Q177.135 102.693 177.135 95.5863 Q177.135 88.4567 175.306 84.915 Q173.5 81.3502 169.866 81.3502 M169.866 77.6465 Q175.676 77.6465 178.732 82.253 Q181.81 86.8363 181.81 95.5863 Q181.81 104.313 178.732 108.92 Q175.676 113.503 169.866 113.503 Q164.056 113.503 160.977 108.92 Q157.922 104.313 157.922 95.5863 Q157.922 86.8363 160.977 82.253 Q164.056 77.6465 169.866 77.6465 Z" fill="#000000" fill-rule="nonzero" fill-opacity="1" /><path clip-path="url(#clip310)" d="M200.028 81.3502 Q196.417 81.3502 194.588 84.915 Q192.783 88.4567 192.783 95.5863 Q192.783 102.693 194.588 106.257 Q196.417 109.799 200.028 109.799 Q203.662 109.799 205.468 106.257 Q207.296 102.693 207.296 95.5863 Q207.296 88.4567 205.468 84.915 Q203.662 81.3502 200.028 81.3502 M200.028 77.6465 Q205.838 77.6465 208.894 82.253 Q211.972 86.8363 211.972 95.5863 Q211.972 104.313 208.894 108.92 Q205.838 113.503 200.028 113.503 Q194.218 113.503 191.139 108.92 Q188.084 104.313 188.084 95.5863 Q188.084 86.8363 191.139 82.253 Q194.218 77.6465 200.028 77.6465 Z" fill="#000000" fill-rule="nonzero" fill-opacity="1" /><path clip-path="url(#clip310)" d="M248.361 87.3687 L237.782 97.9937 L248.361 108.572 L245.606 111.373 L234.981 100.748 L224.357 111.373 L221.625 108.572 L232.181 97.9937 L221.625 87.3687 L224.357 84.5678 L234.981 95.1927 L245.606 84.5678 L248.361 87.3687 Z" fill="#000000" fill-rule="nonzero" fill-opacity="1" /><path clip-path="url(#clip310)" d="M260.722 108.896 L268.361 108.896 L268.361 82.5308 L260.051 84.1974 L260.051 79.9382 L268.315 78.2715 L272.99 78.2715 L272.99 108.896 L280.629 108.896 L280.629 112.832 L260.722 112.832 L260.722 108.896 Z" fill="#000000" fill-rule="nonzero" fill-opacity="1" /><path clip-path="url(#clip310)" d="M300.074 81.3502 Q296.463 81.3502 294.634 84.915 Q292.828 88.4567 292.828 95.5863 Q292.828 102.693 294.634 106.257 Q296.463 109.799 300.074 109.799 Q303.708 109.799 305.513 106.257 Q307.342 102.693 307.342 95.5863 Q307.342 88.4567 305.513 84.915 Q303.708 81.3502 300.074 81.3502 M300.074 77.6465 Q305.884 77.6465 308.939 82.253 Q312.018 86.8363 312.018 95.5863 Q312.018 104.313 308.939 108.92 Q305.884 113.503 300.074 113.503 Q294.264 113.503 291.185 108.92 Q288.129 104.313 288.129 95.5863 Q288.129 86.8363 291.185 82.253 Q294.264 77.6465 300.074 77.6465 Z" fill="#000000" fill-rule="nonzero" fill-opacity="1" /><path clip-path="url(#clip310)" d="M322.043 69.8671 Q319.485 69.8671 317.98 71.6162 Q316.494 73.3654 316.494 76.4122 Q316.494 79.4403 317.98 81.2082 Q319.485 82.9573 322.043 82.9573 Q324.6 82.9573 326.086 81.2082 Q327.591 79.4403 327.591 76.4122 Q327.591 73.3654 326.086 71.6162 Q324.6 69.8671 322.043 69.8671 M329.585 57.9618 L329.585 61.4224 Q328.155 60.7453 326.688 60.388 Q325.24 60.0306 323.811 60.0306 Q320.049 60.0306 318.055 62.5697 Q316.081 65.1087 315.798 70.2433 Q316.908 68.607 318.582 67.7418 Q320.256 66.8579 322.268 66.8579 Q326.5 66.8579 328.945 69.4345 Q331.409 71.9924 331.409 76.4122 Q331.409 80.738 328.851 83.3523 Q326.293 85.9666 322.043 85.9666 Q317.171 85.9666 314.595 82.2426 Q312.018 78.4999 312.018 71.4093 Q312.018 64.7514 315.178 60.8018 Q318.337 56.8333 323.66 56.8333 Q325.089 56.8333 326.538 57.1154 Q328.005 57.3976 329.585 57.9618 Z" fill="#000000" fill-rule="nonzero" fill-opacity="1" /><path clip-path="url(#clip310)" d="M41.7242 918.115 Q42.4244 916.046 44.7161 914.104 Q47.0077 912.131 51.0181 910.158 L64.0042 903.633 L64.0042 910.539 L51.8138 916.619 Q47.0395 918.974 45.48 921.202 Q43.9204 923.398 43.9204 927.218 L43.9204 934.22 L64.0042 934.22 L64.0042 940.649 L16.4842 940.649 L16.4842 926.135 Q16.4842 917.987 19.8898 913.977 Q23.2955 909.967 30.1704 909.967 Q34.6582 909.967 37.6183 912.067 Q40.5784 914.136 41.7242 918.115 M21.7677 934.22 L38.6368 934.22 L38.6368 926.135 Q38.6368 921.488 36.5043 919.133 Q34.34 916.746 30.1704 916.746 Q26.0009 916.746 23.9002 919.133 Q21.7677 921.488 21.7677 926.135 L21.7677 934.22 Z" fill="#000000" fill-rule="nonzero" fill-opacity="1" /><path clip-path="url(#clip310)" d="M44.7161 868.048 L47.5806 868.048 L47.5806 894.975 Q53.6281 894.593 56.8109 891.347 Q59.9619 888.068 59.9619 882.244 Q59.9619 878.87 59.1344 875.719 Q58.3069 872.536 56.6518 869.417 L62.1899 869.417 Q63.5267 872.568 64.227 875.878 Q64.9272 879.188 64.9272 882.594 Q64.9272 891.124 59.9619 896.121 Q54.9967 901.086 46.5303 901.086 Q37.7774 901.086 32.6531 896.376 Q27.4968 891.633 27.4968 883.613 Q27.4968 876.419 32.1438 872.25 Q36.7589 868.048 44.7161 868.048 M42.9973 873.905 Q38.1912 873.968 35.3266 876.61 Q32.4621 879.22 32.4621 883.549 Q32.4621 888.45 35.2312 891.41 Q38.0002 894.339 43.0292 894.784 L42.9973 873.905 Z" fill="#000000" fill-rule="nonzero" fill-opacity="1" /><path clip-path="url(#clip310)" d="M14.479 858.436 L14.479 852.58 L64.0042 852.58 L64.0042 858.436 L14.479 858.436 Z" fill="#000000" fill-rule="nonzero" fill-opacity="1" /><path clip-path="url(#clip310)" d="M46.0847 824.125 Q46.0847 831.223 47.7079 833.96 Q49.3312 836.697 53.2461 836.697 Q56.3653 836.697 58.2114 834.66 Q60.0256 832.591 60.0256 829.058 Q60.0256 824.189 56.5881 821.26 Q53.1188 818.3 47.3897 818.3 L46.0847 818.3 L46.0847 824.125 M43.6657 812.444 L64.0042 812.444 L64.0042 818.3 L58.5933 818.3 Q61.8398 820.306 63.3994 823.297 Q64.9272 826.289 64.9272 830.618 Q64.9272 836.093 61.8716 839.339 Q58.7843 842.554 53.6281 842.554 Q47.6125 842.554 44.5569 838.543 Q41.5014 834.501 41.5014 826.512 L41.5014 818.3 L40.9285 818.3 Q36.8862 818.3 34.6901 820.974 Q32.4621 823.616 32.4621 828.422 Q32.4621 831.477 33.1941 834.374 Q33.9262 837.27 35.3903 839.944 L29.9795 839.944 Q28.7381 836.729 28.1334 833.705 Q27.4968 830.682 27.4968 827.817 Q27.4968 820.083 31.5072 816.263 Q35.5176 812.444 43.6657 812.444 Z" fill="#000000" fill-rule="nonzero" fill-opacity="1" /><path clip-path="url(#clip310)" d="M18.2347 794.588 L28.3562 794.588 L28.3562 782.525 L32.9077 782.525 L32.9077 794.588 L52.2594 794.588 Q56.6199 794.588 57.8613 793.41 Q59.1026 792.201 59.1026 788.541 L59.1026 782.525 L64.0042 782.525 L64.0042 788.541 Q64.0042 795.32 61.4897 797.898 Q58.9434 800.476 52.2594 800.476 L32.9077 800.476 L32.9077 804.773 L28.3562 804.773 L28.3562 800.476 L18.2347 800.476 L18.2347 794.588 Z" fill="#000000" fill-rule="nonzero" fill-opacity="1" /><path clip-path="url(#clip310)" d="M28.3562 774.823 L28.3562 768.966 L64.0042 768.966 L64.0042 774.823 L28.3562 774.823 M14.479 774.823 L14.479 768.966 L21.895 768.966 L21.895 774.823 L14.479 774.823 Z" fill="#000000" fill-rule="nonzero" fill-opacity="1" /><path clip-path="url(#clip310)" d="M28.3562 760.914 L28.3562 754.707 L58.275 743.567 L28.3562 732.427 L28.3562 726.22 L64.0042 739.588 L64.0042 747.546 L28.3562 760.914 Z" fill="#000000" fill-rule="nonzero" fill-opacity="1" /><path clip-path="url(#clip310)" d="M44.7161 687.644 L47.5806 687.644 L47.5806 714.571 Q53.6281 714.189 56.8109 710.943 Q59.9619 707.664 59.9619 701.84 Q59.9619 698.466 59.1344 695.315 Q58.3069 692.132 56.6518 689.013 L62.1899 689.013 Q63.5267 692.164 64.227 695.474 Q64.9272 698.784 64.9272 702.19 Q64.9272 710.72 59.9619 715.717 Q54.9967 720.682 46.5303 720.682 Q37.7774 720.682 32.6531 715.972 Q27.4968 711.229 27.4968 703.208 Q27.4968 696.015 32.1438 691.846 Q36.7589 687.644 44.7161 687.644 M42.9973 693.501 Q38.1912 693.564 35.3266 696.206 Q32.4621 698.816 32.4621 703.145 Q32.4621 708.046 35.2312 711.006 Q38.0002 713.935 43.0292 714.38 L42.9973 693.501 Z" fill="#000000" fill-rule="nonzero" fill-opacity="1" /><path clip-path="url(#clip310)" d="M29.7248 631.658 L35.1993 631.658 Q33.8307 634.14 33.1623 636.655 Q32.4621 639.138 32.4621 641.684 Q32.4621 647.381 36.0905 650.532 Q39.6872 653.683 46.212 653.683 Q52.7369 653.683 56.3653 650.532 Q59.9619 647.381 59.9619 641.684 Q59.9619 639.138 59.2935 636.655 Q58.5933 634.14 57.2247 631.658 L62.6355 631.658 Q63.7814 634.109 64.3543 636.75 Q64.9272 639.36 64.9272 642.32 Q64.9272 650.373 59.8664 655.115 Q54.8057 659.858 46.212 659.858 Q37.491 659.858 32.4939 655.084 Q27.4968 650.278 27.4968 641.938 Q27.4968 639.233 28.0697 636.655 Q28.6108 634.077 29.7248 631.658 Z" fill="#000000" fill-rule="nonzero" fill-opacity="1" /><path clip-path="url(#clip310)" d="M32.4621 607.659 Q32.4621 612.37 36.1542 615.107 Q39.8145 617.844 46.212 617.844 Q52.6095 617.844 56.3017 615.139 Q59.9619 612.402 59.9619 607.659 Q59.9619 602.98 56.2698 600.243 Q52.5777 597.506 46.212 597.506 Q39.8781 597.506 36.186 600.243 Q32.4621 602.98 32.4621 607.659 M27.4968 607.659 Q27.4968 600.02 32.4621 595.66 Q37.4273 591.299 46.212 591.299 Q54.9649 591.299 59.9619 595.66 Q64.9272 600.02 64.9272 607.659 Q64.9272 615.33 59.9619 619.69 Q54.9649 624.019 46.212 624.019 Q37.4273 624.019 32.4621 619.69 Q27.4968 615.33 27.4968 607.659 Z" fill="#000000" fill-rule="nonzero" fill-opacity="1" /><path clip-path="url(#clip310)" d="M29.4065 558.866 L34.9447 558.866 Q33.6716 561.349 33.035 564.022 Q32.3984 566.696 32.3984 569.56 Q32.3984 573.921 33.7352 576.117 Q35.072 578.281 37.7456 578.281 Q39.7826 578.281 40.9603 576.722 Q42.1061 575.162 43.1565 570.452 L43.6021 568.446 Q44.9389 562.208 47.3897 559.598 Q49.8086 556.956 54.1691 556.956 Q59.1344 556.956 62.0308 560.903 Q64.9272 564.818 64.9272 571.693 Q64.9272 574.557 64.3543 577.677 Q63.8132 580.764 62.6992 584.201 L56.6518 584.201 Q58.3387 580.955 59.198 577.804 Q60.0256 574.653 60.0256 571.566 Q60.0256 567.428 58.6251 565.2 Q57.1929 562.972 54.6147 562.972 Q52.2276 562.972 50.9545 564.595 Q49.6813 566.187 48.5037 571.629 L48.0262 573.666 Q46.8804 579.109 44.5251 581.528 Q42.138 583.947 38.0002 583.947 Q32.9713 583.947 30.2341 580.382 Q27.4968 576.817 27.4968 570.261 Q27.4968 567.014 27.9743 564.15 Q28.4517 561.285 29.4065 558.866 Z" fill="#000000" fill-rule="nonzero" fill-opacity="1" /><path clip-path="url(#clip310)" d="M18.2347 541.838 L28.3562 541.838 L28.3562 529.775 L32.9077 529.775 L32.9077 541.838 L52.2594 541.838 Q56.6199 541.838 57.8613 540.66 Q59.1026 539.451 59.1026 535.79 L59.1026 529.775 L64.0042 529.775 L64.0042 535.79 Q64.0042 542.57 61.4897 545.148 Q58.9434 547.726 52.2594 547.726 L32.9077 547.726 L32.9077 552.023 L28.3562 552.023 L28.3562 547.726 L18.2347 547.726 L18.2347 541.838 Z" fill="#000000" fill-rule="nonzero" fill-opacity="1" /><circle clip-path="url(#clip311)" cx="423.598" cy="86.1857" r="14.4" fill="#009af9" fill-rule="evenodd" fill-opacity="1" stroke="none"/>
<circle clip-path="url(#clip311)" cx="517.246" cy="666.438" r="14.4" fill="#009af9" fill-rule="evenodd" fill-opacity="1" stroke="none"/>
<circle clip-path="url(#clip311)" cx="610.895" cy="885.135" r="14.4" fill="#009af9" fill-rule="evenodd" fill-opacity="1" stroke="none"/>
<circle clip-path="url(#clip311)" cx="704.543" cy="1019.46" r="14.4" fill="#009af9" fill-rule="evenodd" fill-opacity="1" stroke="none"/>
<circle clip-path="url(#clip311)" cx="798.192" cy="1111.5" r="14.4" fill="#009af9" fill-rule="evenodd" fill-opacity="1" stroke="none"/>
<circle clip-path="url(#clip311)" cx="891.84" cy="1177.43" r="14.4" fill="#009af9" fill-rule="evenodd" fill-opacity="1" stroke="none"/>
<circle clip-path="url(#clip311)" cx="985.489" cy="1225.73" r="14.4" fill="#009af9" fill-rule="evenodd" fill-opacity="1" stroke="none"/>
<circle clip-path="url(#clip311)" cx="1079.14" cy="1261.18" r="14.4" fill="#009af9" fill-rule="evenodd" fill-opacity="1" stroke="none"/>
<circle clip-path="url(#clip311)" cx="1172.79" cy="1287.43" r="14.4" fill="#009af9" fill-rule="evenodd" fill-opacity="1" stroke="none"/>
<circle clip-path="url(#clip311)" cx="1266.43" cy="1307.4" r="14.4" fill="#009af9" fill-rule="evenodd" fill-opacity="1" stroke="none"/>
<circle clip-path="url(#clip311)" cx="1360.08" cy="1322.89" r="14.4" fill="#009af9" fill-rule="evenodd" fill-opacity="1" stroke="none"/>
<circle clip-path="url(#clip311)" cx="1453.73" cy="1334.89" r="14.4" fill="#009af9" fill-rule="evenodd" fill-opacity="1" stroke="none"/>
<circle clip-path="url(#clip311)" cx="1547.38" cy="1344.22" r="14.4" fill="#009af9" fill-rule="evenodd" fill-opacity="1" stroke="none"/>
<circle clip-path="url(#clip311)" cx="1641.03" cy="1351.59" r="14.4" fill="#009af9" fill-rule="evenodd" fill-opacity="1" stroke="none"/>
<circle clip-path="url(#clip311)" cx="1734.68" cy="1357.48" r="14.4" fill="#009af9" fill-rule="evenodd" fill-opacity="1" stroke="none"/>
<circle clip-path="url(#clip311)" cx="1828.32" cy="1362.17" r="14.4" fill="#009af9" fill-rule="evenodd" fill-opacity="1" stroke="none"/>
<circle clip-path="url(#clip311)" cx="1921.97" cy="1365.95" r="14.4" fill="#009af9" fill-rule="evenodd" fill-opacity="1" stroke="none"/>
<circle clip-path="url(#clip311)" cx="2015.62" cy="1369.01" r="14.4" fill="#009af9" fill-rule="evenodd" fill-opacity="1" stroke="none"/>
<circle clip-path="url(#clip311)" cx="2109.27" cy="1371.52" r="14.4" fill="#009af9" fill-rule="evenodd" fill-opacity="1" stroke="none"/>
<circle clip-path="url(#clip311)" cx="2202.92" cy="1373.58" r="14.4" fill="#009af9" fill-rule="evenodd" fill-opacity="1" stroke="none"/>
<circle clip-path="url(#clip311)" cx="2296.57" cy="1375.28" r="14.4" fill="#009af9" fill-rule="evenodd" fill-opacity="1" stroke="none"/>
<path clip-path="url(#clip311)" d="M407.598 70.1857 L407.598 102.186 L439.598 102.186 L439.598 70.1857 L407.598 70.1857 Z" fill="#e26f46" fill-rule="evenodd" fill-opacity="1" stroke="none"/>
<path clip-path="url(#clip311)" d="M501.246 650.438 L501.246 682.438 L533.246 682.438 L533.246 650.438 L501.246 650.438 Z" fill="#e26f46" fill-rule="evenodd" fill-opacity="1" stroke="none"/>
<path clip-path="url(#clip311)" d="M594.895 869.135 L594.895 901.135 L626.895 901.135 L626.895 869.135 L594.895 869.135 Z" fill="#e26f46" fill-rule="evenodd" fill-opacity="1" stroke="none"/>
<path clip-path="url(#clip311)" d="M688.543 1034.56 L688.543 1066.56 L720.543 1066.56 L720.543 1034.56 L688.543 1034.56 Z" fill="#e26f46" fill-rule="evenodd" fill-opacity="1" stroke="none"/>
<path clip-path="url(#clip311)" d="M782.192 1155.84 L782.192 1187.84 L814.192 1187.84 L814.192 1155.84 L782.192 1155.84 Z" fill="#e26f46" fill-rule="evenodd" fill-opacity="1" stroke="none"/>
<path clip-path="url(#clip311)" d="M875.84 1239.45 L875.84 1271.45 L907.84 1271.45 L907.84 1239.45 L875.84 1239.45 Z" fill="#e26f46" fill-rule="evenodd" fill-opacity="1" stroke="none"/>
<path clip-path="url(#clip311)" d="M969.489 1292.38 L969.489 1324.38 L1001.49 1324.38 L1001.49 1292.38 L969.489 1292.38 Z" fill="#e26f46" fill-rule="evenodd" fill-opacity="1" stroke="none"/>
<path clip-path="url(#clip311)" d="M1063.14 1325.15 L1063.14 1357.15 L1095.14 1357.15 L1095.14 1325.15 L1063.14 1325.15 Z" fill="#e26f46" fill-rule="evenodd" fill-opacity="1" stroke="none"/>
<path clip-path="url(#clip311)" d="M1156.79 1344.33 L1156.79 1376.33 L1188.79 1376.33 L1188.79 1344.33 L1156.79 1344.33 Z" fill="#e26f46" fill-rule="evenodd" fill-opacity="1" stroke="none"/>
<path clip-path="url(#clip311)" d="M1250.43 1355.24 L1250.43 1387.24 L1282.43 1387.24 L1282.43 1355.24 L1250.43 1355.24 Z" fill="#e26f46" fill-rule="evenodd" fill-opacity="1" stroke="none"/>
<path clip-path="url(#clip311)" d="M1344.08 1361.21 L1344.08 1393.21 L1376.08 1393.21 L1376.08 1361.21 L1344.08 1361.21 Z" fill="#e26f46" fill-rule="evenodd" fill-opacity="1" stroke="none"/>
<path clip-path="url(#clip311)" d="M1437.73 1364.43 L1437.73 1396.43 L1469.73 1396.43 L1469.73 1364.43 L1437.73 1364.43 Z" fill="#e26f46" fill-rule="evenodd" fill-opacity="1" stroke="none"/>
<path clip-path="url(#clip311)" d="M1531.38 1366.09 L1531.38 1398.09 L1563.38 1398.09 L1563.38 1366.09 L1531.38 1366.09 Z" fill="#e26f46" fill-rule="evenodd" fill-opacity="1" stroke="none"/>
<path clip-path="url(#clip311)" d="M1625.03 1366.59 L1625.03 1398.59 L1657.03 1398.59 L1657.03 1366.59 L1625.03 1366.59 Z" fill="#e26f46" fill-rule="evenodd" fill-opacity="1" stroke="none"/>
<path clip-path="url(#clip311)" d="M1718.68 1367.02 L1718.68 1399.02 L1750.68 1399.02 L1750.68 1367.02 L1718.68 1367.02 Z" fill="#e26f46" fill-rule="evenodd" fill-opacity="1" stroke="none"/>
<path clip-path="url(#clip311)" d="M1812.32 1367.38 L1812.32 1399.38 L1844.32 1399.38 L1844.32 1367.38 L1812.32 1367.38 Z" fill="#e26f46" fill-rule="evenodd" fill-opacity="1" stroke="none"/>
<path clip-path="url(#clip311)" d="M1905.97 1367.67 L1905.97 1399.67 L1937.97 1399.67 L1937.97 1367.67 L1905.97 1367.67 Z" fill="#e26f46" fill-rule="evenodd" fill-opacity="1" stroke="none"/>
<path clip-path="url(#clip311)" d="M1999.62 1367.9 L1999.62 1399.9 L2031.62 1399.9 L2031.62 1367.9 L1999.62 1367.9 Z" fill="#e26f46" fill-rule="evenodd" fill-opacity="1" stroke="none"/>
<path clip-path="url(#clip311)" d="M2093.27 1368.06 L2093.27 1400.06 L2125.27 1400.06 L2125.27 1368.06 L2093.27 1368.06 Z" fill="#e26f46" fill-rule="evenodd" fill-opacity="1" stroke="none"/>
<path clip-path="url(#clip311)" d="M2186.92 1368.17 L2186.92 1400.17 L2218.92 1400.17 L2218.92 1368.17 L2186.92 1368.17 Z" fill="#e26f46" fill-rule="evenodd" fill-opacity="1" stroke="none"/>
<path clip-path="url(#clip311)" d="M2280.57 1368.21 L2280.57 1400.21 L2312.57 1400.21 L2312.57 1368.21 L2280.57 1368.21 Z" fill="#e26f46" fill-rule="evenodd" fill-opacity="1" stroke="none"/>
<path clip-path="url(#clip311)" d="M423.598 70.1857 L407.598 102.186 L439.598 102.186 L423.598 70.1857 Z" fill="#3da44d" fill-rule="evenodd" fill-opacity="1" stroke="none"/>
<path clip-path="url(#clip311)" d="M517.246 578.728 L501.246 610.728 L533.246 610.728 L517.246 578.728 Z" fill="#3da44d" fill-rule="evenodd" fill-opacity="1" stroke="none"/>
<path clip-path="url(#clip311)" d="M610.895 932.506 L594.895 964.506 L626.895 964.506 L610.895 932.506 Z" fill="#3da44d" fill-rule="evenodd" fill-opacity="1" stroke="none"/>
<path clip-path="url(#clip311)" d="M704.543 1138.23 L688.543 1170.23 L720.543 1170.23 L704.543 1138.23 Z" fill="#3da44d" fill-rule="evenodd" fill-opacity="1" stroke="none"/>
<path clip-path="url(#clip311)" d="M798.192 1256.83 L782.192 1288.83 L814.192 1288.83 L798.192 1256.83 Z" fill="#3da44d" fill-rule="evenodd" fill-opacity="1" stroke="none"/>
<path clip-path="url(#clip311)" d="M891.84 1317.78 L875.84 1349.78 L907.84 1349.78 L891.84 1317.78 Z" fill="#3da44d" fill-rule="evenodd" fill-opacity="1" stroke="none"/>
<path clip-path="url(#clip311)" d="M985.489 1346.56 L969.489 1378.56 L1001.49 1378.56 L985.489 1346.56 Z" fill="#3da44d" fill-rule="evenodd" fill-opacity="1" stroke="none"/>
<path clip-path="url(#clip311)" d="M1079.14 1359.14 L1063.14 1391.14 L1095.14 1391.14 L1079.14 1359.14 Z" fill="#3da44d" fill-rule="evenodd" fill-opacity="1" stroke="none"/>
<path clip-path="url(#clip311)" d="M1172.79 1364.27 L1156.79 1396.27 L1188.79 1396.27 L1172.79 1364.27 Z" fill="#3da44d" fill-rule="evenodd" fill-opacity="1" stroke="none"/>
<path clip-path="url(#clip311)" d="M1266.43 1366.51 L1250.43 1398.51 L1282.43 1398.51 L1266.43 1366.51 Z" fill="#3da44d" fill-rule="evenodd" fill-opacity="1" stroke="none"/>
<path clip-path="url(#clip311)" d="M1360.08 1367.19 L1344.08 1399.19 L1376.08 1399.19 L1360.08 1367.19 Z" fill="#3da44d" fill-rule="evenodd" fill-opacity="1" stroke="none"/>
<path clip-path="url(#clip311)" d="M1453.73 1367.58 L1437.73 1399.58 L1469.73 1399.58 L1453.73 1367.58 Z" fill="#3da44d" fill-rule="evenodd" fill-opacity="1" stroke="none"/>
<path clip-path="url(#clip311)" d="M1547.38 1367.9 L1531.38 1399.9 L1563.38 1399.9 L1547.38 1367.9 Z" fill="#3da44d" fill-rule="evenodd" fill-opacity="1" stroke="none"/>
<path clip-path="url(#clip311)" d="M1641.03 1368.11 L1625.03 1400.11 L1657.03 1400.11 L1641.03 1368.11 Z" fill="#3da44d" fill-rule="evenodd" fill-opacity="1" stroke="none"/>
<path clip-path="url(#clip311)" d="M1734.68 1368.22 L1718.68 1400.22 L1750.68 1400.22 L1734.68 1368.22 Z" fill="#3da44d" fill-rule="evenodd" fill-opacity="1" stroke="none"/>
<path clip-path="url(#clip311)" d="M1828.32 1368.24 L1812.32 1400.24 L1844.32 1400.24 L1828.32 1368.24 Z" fill="#3da44d" fill-rule="evenodd" fill-opacity="1" stroke="none"/>
<path clip-path="url(#clip311)" d="M1921.97 1368.19 L1905.97 1400.19 L1937.97 1400.19 L1921.97 1368.19 Z" fill="#3da44d" fill-rule="evenodd" fill-opacity="1" stroke="none"/>
<path clip-path="url(#clip311)" d="M2015.62 1368.09 L1999.62 1400.09 L2031.62 1400.09 L2015.62 1368.09 Z" fill="#3da44d" fill-rule="evenodd" fill-opacity="1" stroke="none"/>
<path clip-path="url(#clip311)" d="M2109.27 1367.92 L2093.27 1399.92 L2125.27 1399.92 L2109.27 1367.92 Z" fill="#3da44d" fill-rule="evenodd" fill-opacity="1" stroke="none"/>
<path clip-path="url(#clip311)" d="M2202.92 1367.73 L2186.92 1399.73 L2218.92 1399.73 L2202.92 1367.73 Z" fill="#3da44d" fill-rule="evenodd" fill-opacity="1" stroke="none"/>
<path clip-path="url(#clip311)" d="M2296.57 1367.52 L2280.57 1399.52 L2312.57 1399.52 L2296.57 1367.52 Z" fill="#3da44d" fill-rule="evenodd" fill-opacity="1" stroke="none"/>
<path clip-path="url(#clip310)" d="M1831.33 300.469 L2286.58 300.469 L2286.58 93.1086 L1831.33 93.1086  Z" fill="#ffffff" fill-rule="evenodd" fill-opacity="1"/>
<polyline clip-path="url(#clip310)" style="stroke:#000000; stroke-linecap:round; stroke-linejoin:round; stroke-width:4; stroke-opacity:1; fill:none" points="1831.33,300.469 2286.58,300.469 2286.58,93.1086 1831.33,93.1086 1831.33,300.469 "/>
<circle clip-path="url(#clip310)" cx="1919.57" cy="144.949" r="20.48" fill="#009af9" fill-rule="evenodd" fill-opacity="1" stroke="none"/>
<path clip-path="url(#clip310)" d="M2035.68 130.331 L2035.68 135.261 Q2033.32 133.062 2030.63 131.974 Q2027.97 130.886 2024.96 130.886 Q2019.03 130.886 2015.89 134.52 Q2012.74 138.132 2012.74 144.983 Q2012.74 151.812 2015.89 155.446 Q2019.03 159.057 2024.96 159.057 Q2027.97 159.057 2030.63 157.969 Q2033.32 156.881 2035.68 154.682 L2035.68 159.567 Q2033.22 161.233 2030.47 162.067 Q2027.74 162.9 2024.68 162.9 Q2016.83 162.9 2012.32 158.108 Q2007.81 153.293 2007.81 144.983 Q2007.81 136.65 2012.32 131.858 Q2016.83 127.044 2024.68 127.044 Q2027.78 127.044 2030.51 127.877 Q2033.27 128.687 2035.68 130.331 Z" fill="#000000" fill-rule="nonzero" fill-opacity="1" /><path clip-path="url(#clip310)" d="M2052.76 139.289 Q2049.33 139.289 2047.34 141.974 Q2045.35 144.636 2045.35 149.289 Q2045.35 153.942 2047.32 156.627 Q2049.31 159.289 2052.76 159.289 Q2056.16 159.289 2058.15 156.604 Q2060.14 153.918 2060.14 149.289 Q2060.14 144.682 2058.15 141.997 Q2056.16 139.289 2052.76 139.289 M2052.76 135.678 Q2058.32 135.678 2061.49 139.289 Q2064.66 142.9 2064.66 149.289 Q2064.66 155.655 2061.49 159.289 Q2058.32 162.9 2052.76 162.9 Q2047.18 162.9 2044.01 159.289 Q2040.86 155.655 2040.86 149.289 Q2040.86 142.9 2044.01 139.289 Q2047.18 135.678 2052.76 135.678 Z" fill="#000000" fill-rule="nonzero" fill-opacity="1" /><path clip-path="url(#clip310)" d="M2088.25 137.067 L2088.25 141.094 Q2086.44 140.169 2084.5 139.706 Q2082.55 139.243 2080.47 139.243 Q2077.3 139.243 2075.7 140.215 Q2074.13 141.187 2074.13 143.131 Q2074.13 144.613 2075.26 145.469 Q2076.39 146.303 2079.82 147.067 L2081.28 147.391 Q2085.82 148.363 2087.71 150.145 Q2089.63 151.905 2089.63 155.076 Q2089.63 158.687 2086.76 160.793 Q2083.92 162.9 2078.92 162.9 Q2076.83 162.9 2074.57 162.483 Q2072.32 162.09 2069.82 161.28 L2069.82 156.881 Q2072.18 158.108 2074.47 158.733 Q2076.76 159.335 2079.01 159.335 Q2082.02 159.335 2083.64 158.317 Q2085.26 157.275 2085.26 155.4 Q2085.26 153.664 2084.08 152.738 Q2082.92 151.812 2078.96 150.956 L2077.48 150.608 Q2073.52 149.775 2071.76 148.062 Q2070.01 146.326 2070.01 143.317 Q2070.01 139.659 2072.6 137.669 Q2075.19 135.678 2079.96 135.678 Q2082.32 135.678 2084.4 136.025 Q2086.49 136.372 2088.25 137.067 Z" fill="#000000" fill-rule="nonzero" fill-opacity="1" /><path clip-path="url(#clip310)" d="M2100.63 128.942 L2100.63 136.303 L2109.4 136.303 L2109.4 139.613 L2100.63 139.613 L2100.63 153.687 Q2100.63 156.858 2101.49 157.761 Q2102.37 158.664 2105.03 158.664 L2109.4 158.664 L2109.4 162.229 L2105.03 162.229 Q2100.1 162.229 2098.22 160.4 Q2096.35 158.548 2096.35 153.687 L2096.35 139.613 L2093.22 139.613 L2093.22 136.303 L2096.35 136.303 L2096.35 128.942 L2100.63 128.942 Z" fill="#000000" fill-rule="nonzero" fill-opacity="1" /><path clip-path="url(#clip310)" d="M2130.26 127.669 L2134.94 127.669 L2134.94 162.229 L2130.26 162.229 L2130.26 127.669 Z" fill="#000000" fill-rule="nonzero" fill-opacity="1" /><path clip-path="url(#clip310)" d="M2164.96 128.803 L2164.96 133.363 Q2162.3 132.09 2159.94 131.465 Q2157.57 130.84 2155.38 130.84 Q2151.56 130.84 2149.47 132.321 Q2147.41 133.803 2147.41 136.534 Q2147.41 138.826 2148.78 140.007 Q2150.17 141.164 2154.01 141.882 L2156.83 142.46 Q2162.07 143.456 2164.54 145.979 Q2167.04 148.479 2167.04 152.692 Q2167.04 157.715 2163.66 160.307 Q2160.31 162.9 2153.8 162.9 Q2151.35 162.9 2148.57 162.344 Q2145.82 161.789 2142.85 160.701 L2142.85 155.886 Q2145.7 157.483 2148.43 158.293 Q2151.16 159.104 2153.8 159.104 Q2157.81 159.104 2159.98 157.53 Q2162.16 155.956 2162.16 153.039 Q2162.16 150.493 2160.58 149.057 Q2159.03 147.622 2155.47 146.905 L2152.62 146.349 Q2147.39 145.307 2145.05 143.085 Q2142.71 140.863 2142.71 136.905 Q2142.71 132.321 2145.93 129.682 Q2149.17 127.044 2154.84 127.044 Q2157.27 127.044 2159.8 127.483 Q2162.32 127.923 2164.96 128.803 Z" fill="#000000" fill-rule="nonzero" fill-opacity="1" /><path clip-path="url(#clip310)" d="M2169.54 127.669 L2198.78 127.669 L2198.78 131.604 L2186.51 131.604 L2186.51 162.229 L2181.81 162.229 L2181.81 131.604 L2169.54 131.604 L2169.54 127.669 Z" fill="#000000" fill-rule="nonzero" fill-opacity="1" /><path clip-path="url(#clip310)" d="M2211.16 132.275 L2204.82 149.474 L2217.53 149.474 L2211.16 132.275 M2208.52 127.669 L2213.82 127.669 L2227 162.229 L2222.13 162.229 L2218.99 153.363 L2203.41 153.363 L2200.26 162.229 L2195.33 162.229 L2208.52 127.669 Z" fill="#000000" fill-rule="nonzero" fill-opacity="1" /><path clip-path="url(#clip310)" d="M1896.81 174.033 L1896.81 219.544 L1942.32 219.544 L1942.32 174.033 L1896.81 174.033 Z" fill="#e26f46" fill-rule="evenodd" fill-opacity="1" stroke="none"/>
<path clip-path="url(#clip310)" d="M2035.68 182.171 L2035.68 187.101 Q2033.32 184.902 2030.63 183.814 Q2027.97 182.726 2024.96 182.726 Q2019.03 182.726 2015.89 186.36 Q2012.74 189.972 2012.74 196.823 Q2012.74 203.652 2015.89 207.286 Q2019.03 210.897 2024.96 210.897 Q2027.97 210.897 2030.63 209.809 Q2033.32 208.721 2035.68 206.522 L2035.68 211.407 Q2033.22 213.073 2030.47 213.907 Q2027.74 214.74 2024.68 214.74 Q2016.83 214.74 2012.32 209.948 Q2007.81 205.133 2007.81 196.823 Q2007.81 188.49 2012.32 183.698 Q2016.83 178.884 2024.68 178.884 Q2027.78 178.884 2030.51 179.717 Q2033.27 180.527 2035.68 182.171 Z" fill="#000000" fill-rule="nonzero" fill-opacity="1" /><path clip-path="url(#clip310)" d="M2052.76 191.129 Q2049.33 191.129 2047.34 193.814 Q2045.35 196.476 2045.35 201.129 Q2045.35 205.782 2047.32 208.467 Q2049.31 211.129 2052.76 211.129 Q2056.16 211.129 2058.15 208.444 Q2060.14 205.758 2060.14 201.129 Q2060.14 196.522 2058.15 193.837 Q2056.16 191.129 2052.76 191.129 M2052.76 187.518 Q2058.32 187.518 2061.49 191.129 Q2064.66 194.74 2064.66 201.129 Q2064.66 207.495 2061.49 211.129 Q2058.32 214.74 2052.76 214.74 Q2047.18 214.74 2044.01 211.129 Q2040.86 207.495 2040.86 201.129 Q2040.86 194.74 2044.01 191.129 Q2047.18 187.518 2052.76 187.518 Z" fill="#000000" fill-rule="nonzero" fill-opacity="1" /><path clip-path="url(#clip310)" d="M2088.25 188.907 L2088.25 192.934 Q2086.44 192.009 2084.5 191.546 Q2082.55 191.083 2080.47 191.083 Q2077.3 191.083 2075.7 192.055 Q2074.13 193.027 2074.13 194.971 Q2074.13 196.453 2075.26 197.309 Q2076.39 198.143 2079.82 198.907 L2081.28 199.231 Q2085.82 200.203 2087.71 201.985 Q2089.63 203.745 2089.63 206.916 Q2089.63 210.527 2086.76 212.633 Q2083.92 214.74 2078.92 214.74 Q2076.83 214.74 2074.57 214.323 Q2072.32 213.93 2069.82 213.12 L2069.82 208.721 Q2072.18 209.948 2074.47 210.573 Q2076.76 211.175 2079.01 211.175 Q2082.02 211.175 2083.64 210.157 Q2085.26 209.115 2085.26 207.24 Q2085.26 205.504 2084.08 204.578 Q2082.92 203.652 2078.96 202.796 L2077.48 202.448 Q2073.52 201.615 2071.76 199.902 Q2070.01 198.166 2070.01 195.157 Q2070.01 191.499 2072.6 189.509 Q2075.19 187.518 2079.96 187.518 Q2082.32 187.518 2084.4 187.865 Q2086.49 188.212 2088.25 188.907 Z" fill="#000000" fill-rule="nonzero" fill-opacity="1" /><path clip-path="url(#clip310)" d="M2100.63 180.782 L2100.63 188.143 L2109.4 188.143 L2109.4 191.453 L2100.63 191.453 L2100.63 205.527 Q2100.63 208.698 2101.49 209.601 Q2102.37 210.504 2105.03 210.504 L2109.4 210.504 L2109.4 214.069 L2105.03 214.069 Q2100.1 214.069 2098.22 212.24 Q2096.35 210.388 2096.35 205.527 L2096.35 191.453 L2093.22 191.453 L2093.22 188.143 L2096.35 188.143 L2096.35 180.782 L2100.63 180.782 Z" fill="#000000" fill-rule="nonzero" fill-opacity="1" /><path clip-path="url(#clip310)" d="M2130.26 179.509 L2150.12 179.509 L2150.12 183.444 L2134.94 183.444 L2134.94 193.629 L2148.64 193.629 L2148.64 197.564 L2134.94 197.564 L2134.94 214.069 L2130.26 214.069 L2130.26 179.509 Z" fill="#000000" fill-rule="nonzero" fill-opacity="1" /><path clip-path="url(#clip310)" d="M2157.53 179.509 L2162.2 179.509 L2162.2 214.069 L2157.53 214.069 L2157.53 179.509 Z" fill="#000000" fill-rule="nonzero" fill-opacity="1" /><path clip-path="url(#clip310)" d="M2192.23 180.643 L2192.23 185.203 Q2189.56 183.93 2187.2 183.305 Q2184.84 182.68 2182.64 182.68 Q2178.82 182.68 2176.74 184.161 Q2174.68 185.643 2174.68 188.374 Q2174.68 190.666 2176.05 191.847 Q2177.44 193.004 2181.28 193.722 L2184.1 194.3 Q2189.33 195.296 2191.81 197.819 Q2194.31 200.319 2194.31 204.532 Q2194.31 209.555 2190.93 212.147 Q2187.57 214.74 2181.07 214.74 Q2178.62 214.74 2175.84 214.184 Q2173.08 213.629 2170.12 212.541 L2170.12 207.726 Q2172.97 209.323 2175.7 210.133 Q2178.43 210.944 2181.07 210.944 Q2185.07 210.944 2187.25 209.37 Q2189.43 207.796 2189.43 204.879 Q2189.43 202.333 2187.85 200.897 Q2186.3 199.462 2182.74 198.745 L2179.89 198.189 Q2174.66 197.147 2172.32 194.925 Q2169.98 192.703 2169.98 188.745 Q2169.98 184.161 2173.2 181.522 Q2176.44 178.884 2182.11 178.884 Q2184.54 178.884 2187.06 179.323 Q2189.59 179.763 2192.23 180.643 Z" fill="#000000" fill-rule="nonzero" fill-opacity="1" /><path clip-path="url(#clip310)" d="M2196.81 179.509 L2226.05 179.509 L2226.05 183.444 L2213.78 183.444 L2213.78 214.069 L2209.08 214.069 L2209.08 183.444 L2196.81 183.444 L2196.81 179.509 Z" fill="#000000" fill-rule="nonzero" fill-opacity="1" /><path clip-path="url(#clip310)" d="M2238.43 184.115 L2232.09 201.314 L2244.8 201.314 L2238.43 184.115 M2235.79 179.509 L2241.09 179.509 L2254.26 214.069 L2249.4 214.069 L2246.25 205.203 L2230.68 205.203 L2227.53 214.069 L2222.6 214.069 L2235.79 179.509 Z" fill="#000000" fill-rule="nonzero" fill-opacity="1" /><path clip-path="url(#clip310)" d="M1919.57 225.873 L1896.81 271.384 L1942.32 271.384 L1919.57 225.873 Z" fill="#3da44d" fill-rule="evenodd" fill-opacity="1" stroke="none"/>
<path clip-path="url(#clip310)" d="M2035.68 234.011 L2035.68 238.941 Q2033.32 236.742 2030.63 235.654 Q2027.97 234.566 2024.96 234.566 Q2019.03 234.566 2015.89 238.2 Q2012.74 241.812 2012.74 248.663 Q2012.74 255.492 2015.89 259.126 Q2019.03 262.737 2024.96 262.737 Q2027.97 262.737 2030.63 261.649 Q2033.32 260.561 2035.68 258.362 L2035.68 263.247 Q2033.22 264.913 2030.47 265.747 Q2027.74 266.58 2024.68 266.58 Q2016.83 266.58 2012.32 261.788 Q2007.81 256.973 2007.81 248.663 Q2007.81 240.33 2012.32 235.538 Q2016.83 230.724 2024.68 230.724 Q2027.78 230.724 2030.51 231.557 Q2033.27 232.367 2035.68 234.011 Z" fill="#000000" fill-rule="nonzero" fill-opacity="1" /><path clip-path="url(#clip310)" d="M2052.76 242.969 Q2049.33 242.969 2047.34 245.654 Q2045.35 248.316 2045.35 252.969 Q2045.35 257.622 2047.32 260.307 Q2049.31 262.969 2052.76 262.969 Q2056.16 262.969 2058.15 260.284 Q2060.14 257.598 2060.14 252.969 Q2060.14 248.362 2058.15 245.677 Q2056.16 242.969 2052.76 242.969 M2052.76 239.358 Q2058.32 239.358 2061.49 242.969 Q2064.66 246.58 2064.66 252.969 Q2064.66 259.335 2061.49 262.969 Q2058.32 266.58 2052.76 266.58 Q2047.18 266.58 2044.01 262.969 Q2040.86 259.335 2040.86 252.969 Q2040.86 246.58 2044.01 242.969 Q2047.18 239.358 2052.76 239.358 Z" fill="#000000" fill-rule="nonzero" fill-opacity="1" /><path clip-path="url(#clip310)" d="M2088.25 240.747 L2088.25 244.774 Q2086.44 243.849 2084.5 243.386 Q2082.55 242.923 2080.47 242.923 Q2077.3 242.923 2075.7 243.895 Q2074.13 244.867 2074.13 246.811 Q2074.13 248.293 2075.26 249.149 Q2076.39 249.983 2079.82 250.747 L2081.28 251.071 Q2085.82 252.043 2087.71 253.825 Q2089.63 255.585 2089.63 258.756 Q2089.63 262.367 2086.76 264.473 Q2083.92 266.58 2078.92 266.58 Q2076.83 266.58 2074.57 266.163 Q2072.32 265.77 2069.82 264.96 L2069.82 260.561 Q2072.18 261.788 2074.47 262.413 Q2076.76 263.015 2079.01 263.015 Q2082.02 263.015 2083.64 261.997 Q2085.26 260.955 2085.26 259.08 Q2085.26 257.344 2084.08 256.418 Q2082.92 255.492 2078.96 254.636 L2077.48 254.288 Q2073.52 253.455 2071.76 251.742 Q2070.01 250.006 2070.01 246.997 Q2070.01 243.339 2072.6 241.349 Q2075.19 239.358 2079.96 239.358 Q2082.32 239.358 2084.4 239.705 Q2086.49 240.052 2088.25 240.747 Z" fill="#000000" fill-rule="nonzero" fill-opacity="1" /><path clip-path="url(#clip310)" d="M2100.63 232.622 L2100.63 239.983 L2109.4 239.983 L2109.4 243.293 L2100.63 243.293 L2100.63 257.367 Q2100.63 260.538 2101.49 261.441 Q2102.37 262.344 2105.03 262.344 L2109.4 262.344 L2109.4 265.909 L2105.03 265.909 Q2100.1 265.909 2098.22 264.08 Q2096.35 262.228 2096.35 257.367 L2096.35 243.293 L2093.22 243.293 L2093.22 239.983 L2096.35 239.983 L2096.35 232.622 L2100.63 232.622 Z" fill="#000000" fill-rule="nonzero" fill-opacity="1" /><path clip-path="url(#clip310)" d="M2134.94 235.191 L2134.94 248.177 L2140.82 248.177 Q2144.08 248.177 2145.86 246.487 Q2147.64 244.798 2147.64 241.673 Q2147.64 238.571 2145.86 236.881 Q2144.08 235.191 2140.82 235.191 L2134.94 235.191 M2130.26 231.349 L2140.82 231.349 Q2146.63 231.349 2149.59 233.987 Q2152.57 236.603 2152.57 241.673 Q2152.57 246.788 2149.59 249.404 Q2146.63 252.02 2140.82 252.02 L2134.94 252.02 L2134.94 265.909 L2130.26 265.909 L2130.26 231.349 Z" fill="#000000" fill-rule="nonzero" fill-opacity="1" /><path clip-path="url(#clip310)" d="M2172.88 234.52 Q2167.78 234.52 2164.77 238.316 Q2161.79 242.112 2161.79 248.663 Q2161.79 255.191 2164.77 258.987 Q2167.78 262.784 2172.88 262.784 Q2177.97 262.784 2180.93 258.987 Q2183.92 255.191 2183.92 248.663 Q2183.92 242.112 2180.93 238.316 Q2177.97 234.52 2172.88 234.52 M2172.88 230.724 Q2180.14 230.724 2184.5 235.608 Q2188.85 240.469 2188.85 248.663 Q2188.85 256.835 2184.5 261.719 Q2180.14 266.58 2172.88 266.58 Q2165.58 266.58 2161.21 261.719 Q2156.86 256.858 2156.86 248.663 Q2156.86 240.469 2161.21 235.608 Q2165.58 230.724 2172.88 230.724 Z" fill="#000000" fill-rule="nonzero" fill-opacity="1" /><path clip-path="url(#clip310)" d="M2219.73 260.978 L2219.73 251.696 L2212.09 251.696 L2212.09 247.853 L2224.36 247.853 L2224.36 262.691 Q2221.65 264.612 2218.38 265.608 Q2215.12 266.58 2211.42 266.58 Q2203.31 266.58 2198.73 261.858 Q2194.17 257.112 2194.17 248.663 Q2194.17 240.191 2198.73 235.469 Q2203.31 230.724 2211.42 230.724 Q2214.8 230.724 2217.83 231.557 Q2220.88 232.39 2223.45 234.011 L2223.45 238.987 Q2220.86 236.788 2217.94 235.677 Q2215.03 234.566 2211.81 234.566 Q2205.47 234.566 2202.27 238.108 Q2199.1 241.649 2199.1 248.663 Q2199.1 255.654 2202.27 259.196 Q2205.47 262.737 2211.81 262.737 Q2214.29 262.737 2216.23 262.321 Q2218.18 261.881 2219.73 260.978 Z" fill="#000000" fill-rule="nonzero" fill-opacity="1" /><path clip-path="url(#clip310)" d="M2232.9 231.349 L2239.87 231.349 L2248.69 254.867 L2257.55 231.349 L2264.52 231.349 L2264.52 265.909 L2259.96 265.909 L2259.96 235.562 L2251.05 259.265 L2246.35 259.265 L2237.44 235.562 L2237.44 265.909 L2232.9 265.909 L2232.9 231.349 Z" fill="#000000" fill-rule="nonzero" fill-opacity="1" /></svg>
