<?xml version="1.0" encoding="utf-8"?>
<svg xmlns="http://www.w3.org/2000/svg" xmlns:xlink="http://www.w3.org/1999/xlink" width="600" height="400" viewBox="0 0 2400 1600">
<defs>
  <clipPath id="clip340">
    <rect x="0" y="0" width="2400" height="1600"/>
  </clipPath>
</defs>
<path clip-path="url(#clip340)" d="M0 1600 L2400 1600 L2400 0 L0 0  Z" fill="#ffffff" fill-rule="evenodd" fill-opacity="1"/>
<defs>
  <clipPath id="clip341">
    <rect x="249" y="47" width="2105" height="1377"/>
  </clipPath>
</defs>
<path clip-path="url(#clip340)" d="M249.056 1423.18 L2352.76 1423.18 L2352.76 47.2441 L249.056 47.2441  Z" fill="#ffffff" fill-rule="evenodd" fill-opacity="1"/>
<polyline clip-path="url(#clip341)" style="stroke:#000000; stroke-linecap:round; stroke-linejoin:round; stroke-width:2; stroke-opacity:0.1; fill:none" points="308.595,1423.18 308.595,47.2441 "/>
<polyline clip-path="url(#clip341)" style="stroke:#000000; stroke-linecap:round; stroke-linejoin:round; stroke-width:2; stroke-opacity:0.1; fill:none" points="804.75,1423.18 804.75,47.2441 "/>
<polyline clip-path="url(#clip341)" style="stroke:#000000; stroke-linecap:round; stroke-linejoin:round; stroke-width:2; stroke-opacity:0.1; fill:none" points="1300.91,1423.18 1300.91,47.2441 "/>
<polyline clip-path="url(#clip341)" style="stroke:#000000; stroke-linecap:round; stroke-linejoin:round; stroke-width:2; stroke-opacity:0.1; fill:none" points="1797.06,1423.18 1797.06,47.2441 "/>
<polyline clip-path="url(#clip341)" style="stroke:#000000; stroke-linecap:round; stroke-linejoin:round; stroke-width:2; stroke-opacity:0.1; fill:none" points="2293.22,1423.18 2293.22,47.2441 "/>
<polyline clip-path="url(#clip341)" style="stroke:#000000; stroke-linecap:round; stroke-linejoin:round; stroke-width:2; stroke-opacity:0.1; fill:none" points="249.056,1330.15 2352.76,1330.15 "/>
<polyline clip-path="url(#clip341)" style="stroke:#000000; stroke-linecap:round; stroke-linejoin:round; stroke-width:2; stroke-opacity:0.1; fill:none" points="249.056,1059.73 2352.76,1059.73 "/>
<polyline clip-path="url(#clip341)" style="stroke:#000000; stroke-linecap:round; stroke-linejoin:round; stroke-width:2; stroke-opacity:0.1; fill:none" points="249.056,789.297 2352.76,789.297 "/>
<polyline clip-path="url(#clip341)" style="stroke:#000000; stroke-linecap:round; stroke-linejoin:round; stroke-width:2; stroke-opacity:0.1; fill:none" points="249.056,518.87 2352.76,518.87 "/>
<polyline clip-path="url(#clip341)" style="stroke:#000000; stroke-linecap:round; stroke-linejoin:round; stroke-width:2; stroke-opacity:0.1; fill:none" points="249.056,248.442 2352.76,248.442 "/>
<polyline clip-path="url(#clip340)" style="stroke:#000000; stroke-linecap:round; stroke-linejoin:round; stroke-width:4; stroke-opacity:1; fill:none" points="249.056,1423.18 2352.76,1423.18 "/>
<polyline clip-path="url(#clip340)" style="stroke:#000000; stroke-linecap:round; stroke-linejoin:round; stroke-width:4; stroke-opacity:1; fill:none" points="308.595,1423.18 308.595,1404.28 "/>
<polyline clip-path="url(#clip340)" style="stroke:#000000; stroke-linecap:round; stroke-linejoin:round; stroke-width:4; stroke-opacity:1; fill:none" points="804.75,1423.18 804.75,1404.28 "/>
<polyline clip-path="url(#clip340)" style="stroke:#000000; stroke-linecap:round; stroke-linejoin:round; stroke-width:4; stroke-opacity:1; fill:none" points="1300.91,1423.18 1300.91,1404.28 "/>
<polyline clip-path="url(#clip340)" style="stroke:#000000; stroke-linecap:round; stroke-linejoin:round; stroke-width:4; stroke-opacity:1; fill:none" points="1797.06,1423.18 1797.06,1404.28 "/>
<polyline clip-path="url(#clip340)" style="stroke:#000000; stroke-linecap:round; stroke-linejoin:round; stroke-width:4; stroke-opacity:1; fill:none" points="2293.22,1423.18 2293.22,1404.28 "/>
<path clip-path="url(#clip340)" d="M308.595 1454.1 Q304.984 1454.1 303.155 1457.66 Q301.349 1461.2 301.349 1468.33 Q301.349 1475.44 303.155 1479.01 Q304.984 1482.55 308.595 1482.55 Q312.229 1482.55 314.034 1479.01 Q315.863 1475.44 315.863 1468.33 Q315.863 1461.2 314.034 1457.66 Q312.229 1454.1 308.595 1454.1 M308.595 1450.39 Q314.405 1450.39 317.46 1455 Q320.539 1459.58 320.539 1468.33 Q320.539 1477.06 317.46 1481.67 Q314.405 1486.25 308.595 1486.25 Q302.784 1486.25 299.706 1481.67 Q296.65 1477.06 296.65 1468.33 Q296.65 1459.58 299.706 1455 Q302.784 1450.39 308.595 1450.39 Z" fill="#000000" fill-rule="nonzero" fill-opacity="1" /><path clip-path="url(#clip340)" d="M795.028 1451.02 L813.384 1451.02 L813.384 1454.96 L799.31 1454.96 L799.31 1463.43 Q800.329 1463.08 801.347 1462.92 Q802.366 1462.73 803.385 1462.73 Q809.172 1462.73 812.551 1465.9 Q815.931 1469.08 815.931 1474.49 Q815.931 1480.07 812.459 1483.17 Q808.986 1486.25 802.667 1486.25 Q800.491 1486.25 798.223 1485.88 Q795.977 1485.51 793.57 1484.77 L793.57 1480.07 Q795.653 1481.2 797.875 1481.76 Q800.098 1482.32 802.574 1482.32 Q806.579 1482.32 808.917 1480.21 Q811.255 1478.1 811.255 1474.49 Q811.255 1470.88 808.917 1468.77 Q806.579 1466.67 802.574 1466.67 Q800.699 1466.67 798.824 1467.08 Q796.973 1467.5 795.028 1468.38 L795.028 1451.02 Z" fill="#000000" fill-rule="nonzero" fill-opacity="1" /><path clip-path="url(#clip340)" d="M1275.59 1481.64 L1283.23 1481.64 L1283.23 1455.28 L1274.92 1456.95 L1274.92 1452.69 L1283.19 1451.02 L1287.86 1451.02 L1287.86 1481.64 L1295.5 1481.64 L1295.5 1485.58 L1275.59 1485.58 L1275.59 1481.64 Z" fill="#000000" fill-rule="nonzero" fill-opacity="1" /><path clip-path="url(#clip340)" d="M1314.95 1454.1 Q1311.33 1454.1 1309.51 1457.66 Q1307.7 1461.2 1307.7 1468.33 Q1307.7 1475.44 1309.51 1479.01 Q1311.33 1482.55 1314.95 1482.55 Q1318.58 1482.55 1320.38 1479.01 Q1322.21 1475.44 1322.21 1468.33 Q1322.21 1461.2 1320.38 1457.66 Q1318.58 1454.1 1314.95 1454.1 M1314.95 1450.39 Q1320.76 1450.39 1323.81 1455 Q1326.89 1459.58 1326.89 1468.33 Q1326.89 1477.06 1323.81 1481.67 Q1320.76 1486.25 1314.95 1486.25 Q1309.14 1486.25 1306.06 1481.67 Q1303 1477.06 1303 1468.33 Q1303 1459.58 1306.06 1455 Q1309.14 1450.39 1314.95 1450.39 Z" fill="#000000" fill-rule="nonzero" fill-opacity="1" /><path clip-path="url(#clip340)" d="M1772.25 1481.64 L1779.89 1481.64 L1779.89 1455.28 L1771.58 1456.95 L1771.58 1452.69 L1779.84 1451.02 L1784.52 1451.02 L1784.52 1481.64 L1792.15 1481.64 L1792.15 1485.58 L1772.25 1485.58 L1772.25 1481.64 Z" fill="#000000" fill-rule="nonzero" fill-opacity="1" /><path clip-path="url(#clip340)" d="M1801.64 1451.02 L1820 1451.02 L1820 1454.96 L1805.93 1454.96 L1805.93 1463.43 Q1806.95 1463.08 1807.96 1462.92 Q1808.98 1462.73 1810 1462.73 Q1815.79 1462.73 1819.17 1465.9 Q1822.55 1469.08 1822.55 1474.49 Q1822.55 1480.07 1819.08 1483.17 Q1815.6 1486.25 1809.28 1486.25 Q1807.11 1486.25 1804.84 1485.88 Q1802.59 1485.51 1800.19 1484.77 L1800.19 1480.07 Q1802.27 1481.2 1804.49 1481.76 Q1806.71 1482.32 1809.19 1482.32 Q1813.2 1482.32 1815.53 1480.21 Q1817.87 1478.1 1817.87 1474.49 Q1817.87 1470.88 1815.53 1468.77 Q1813.2 1466.67 1809.19 1466.67 Q1807.32 1466.67 1805.44 1467.08 Q1803.59 1467.5 1801.64 1468.38 L1801.64 1451.02 Z" fill="#000000" fill-rule="nonzero" fill-opacity="1" /><path clip-path="url(#clip340)" d="M2271.99 1481.64 L2288.31 1481.64 L2288.31 1485.58 L2266.37 1485.58 L2266.37 1481.64 Q2269.03 1478.89 2273.61 1474.26 Q2278.22 1469.61 2279.4 1468.27 Q2281.64 1465.74 2282.52 1464.01 Q2283.43 1462.25 2283.43 1460.56 Q2283.43 1457.8 2281.48 1456.07 Q2279.56 1454.33 2276.46 1454.33 Q2274.26 1454.33 2271.81 1455.09 Q2269.37 1455.86 2266.6 1457.41 L2266.6 1452.69 Q2269.42 1451.55 2271.87 1450.97 Q2274.33 1450.39 2276.37 1450.39 Q2281.74 1450.39 2284.93 1453.08 Q2288.12 1455.77 2288.12 1460.26 Q2288.12 1462.39 2287.31 1464.31 Q2286.53 1466.2 2284.42 1468.8 Q2283.84 1469.47 2280.74 1472.69 Q2277.64 1475.88 2271.99 1481.64 Z" fill="#000000" fill-rule="nonzero" fill-opacity="1" /><path clip-path="url(#clip340)" d="M2308.12 1454.1 Q2304.51 1454.1 2302.68 1457.66 Q2300.88 1461.2 2300.88 1468.33 Q2300.88 1475.44 2302.68 1479.01 Q2304.51 1482.55 2308.12 1482.55 Q2311.76 1482.55 2313.56 1479.01 Q2315.39 1475.44 2315.39 1468.33 Q2315.39 1461.2 2313.56 1457.66 Q2311.76 1454.1 2308.12 1454.1 M2308.12 1450.39 Q2313.93 1450.39 2316.99 1455 Q2320.07 1459.58 2320.07 1468.33 Q2320.07 1477.06 2316.99 1481.67 Q2313.93 1486.25 2308.12 1486.25 Q2302.31 1486.25 2299.24 1481.67 Q2296.18 1477.06 2296.18 1468.33 Q2296.18 1459.58 2299.24 1455 Q2302.31 1450.39 2308.12 1450.39 Z" fill="#000000" fill-rule="nonzero" fill-opacity="1" /><path clip-path="url(#clip340)" d="M1137.15 1532.4 L1143 1532.4 L1143 1568.04 L1137.15 1568.04 L1137.15 1532.4 M1137.15 1518.52 L1143 1518.52 L1143 1525.93 L1137.15 1525.93 L1137.15 1518.52 Z" fill="#000000" fill-rule="nonzero" fill-opacity="1" /><path clip-path="url(#clip340)" d="M1161.05 1522.27 L1161.05 1532.4 L1173.11 1532.4 L1173.11 1536.95 L1161.05 1536.95 L1161.05 1556.3 Q1161.05 1560.66 1162.23 1561.9 Q1163.44 1563.14 1167.1 1563.14 L1173.11 1563.14 L1173.11 1568.04 L1167.1 1568.04 Q1160.32 1568.04 1157.74 1565.53 Q1155.16 1562.98 1155.16 1556.3 L1155.16 1536.95 L1150.87 1536.95 L1150.87 1532.4 L1155.16 1532.4 L1155.16 1522.27 L1161.05 1522.27 Z" fill="#000000" fill-rule="nonzero" fill-opacity="1" /><path clip-path="url(#clip340)" d="M1211.31 1548.76 L1211.31 1551.62 L1184.38 1551.62 Q1184.76 1557.67 1188.01 1560.85 Q1191.29 1564 1197.11 1564 Q1200.49 1564 1203.64 1563.17 Q1206.82 1562.35 1209.94 1560.69 L1209.94 1566.23 Q1206.79 1567.57 1203.48 1568.27 Q1200.17 1568.97 1196.76 1568.97 Q1188.23 1568.97 1183.24 1564 Q1178.27 1559.04 1178.27 1550.57 Q1178.27 1541.82 1182.98 1536.69 Q1187.72 1531.54 1195.74 1531.54 Q1202.94 1531.54 1207.11 1536.18 Q1211.31 1540.8 1211.31 1548.76 M1205.45 1547.04 Q1205.39 1542.23 1202.75 1539.37 Q1200.14 1536.5 1195.81 1536.5 Q1190.91 1536.5 1187.95 1539.27 Q1185.02 1542.04 1184.57 1547.07 L1205.45 1547.04 Z" fill="#000000" fill-rule="nonzero" fill-opacity="1" /><path clip-path="url(#clip340)" d="M1241.58 1537.87 Q1240.59 1537.3 1239.41 1537.04 Q1238.27 1536.76 1236.87 1536.76 Q1231.9 1536.76 1229.23 1540 Q1226.59 1543.22 1226.59 1549.27 L1226.59 1568.04 L1220.7 1568.04 L1220.7 1532.4 L1226.59 1532.4 L1226.59 1537.93 Q1228.43 1534.69 1231.39 1533.13 Q1234.35 1531.54 1238.59 1531.54 Q1239.19 1531.54 1239.92 1531.63 Q1240.65 1531.7 1241.55 1531.85 L1241.58 1537.87 Z" fill="#000000" fill-rule="nonzero" fill-opacity="1" /><path clip-path="url(#clip340)" d="M1263.92 1550.12 Q1256.82 1550.12 1254.09 1551.75 Q1251.35 1553.37 1251.35 1557.29 Q1251.35 1560.4 1253.39 1562.25 Q1255.45 1564.07 1258.99 1564.07 Q1263.86 1564.07 1266.79 1560.63 Q1269.75 1557.16 1269.75 1551.43 L1269.75 1550.12 L1263.92 1550.12 M1275.6 1547.71 L1275.6 1568.04 L1269.75 1568.04 L1269.75 1562.63 Q1267.74 1565.88 1264.75 1567.44 Q1261.76 1568.97 1257.43 1568.97 Q1251.95 1568.97 1248.71 1565.91 Q1245.49 1562.82 1245.49 1557.67 Q1245.49 1551.65 1249.5 1548.6 Q1253.55 1545.54 1261.53 1545.54 L1269.75 1545.54 L1269.75 1544.97 Q1269.75 1540.93 1267.07 1538.73 Q1264.43 1536.5 1259.62 1536.5 Q1256.57 1536.5 1253.67 1537.23 Q1250.78 1537.97 1248.1 1539.43 L1248.1 1534.02 Q1251.32 1532.78 1254.34 1532.17 Q1257.36 1531.54 1260.23 1531.54 Q1267.96 1531.54 1271.78 1535.55 Q1275.6 1539.56 1275.6 1547.71 Z" fill="#000000" fill-rule="nonzero" fill-opacity="1" /><path clip-path="url(#clip340)" d="M1293.46 1522.27 L1293.46 1532.4 L1305.52 1532.4 L1305.52 1536.95 L1293.46 1536.95 L1293.46 1556.3 Q1293.46 1560.66 1294.64 1561.9 Q1295.85 1563.14 1299.51 1563.14 L1305.52 1563.14 L1305.52 1568.04 L1299.51 1568.04 Q1292.73 1568.04 1290.15 1565.53 Q1287.57 1562.98 1287.57 1556.3 L1287.57 1536.95 L1283.27 1536.95 L1283.27 1532.4 L1287.57 1532.4 L1287.57 1522.27 L1293.46 1522.27 Z" fill="#000000" fill-rule="nonzero" fill-opacity="1" /><path clip-path="url(#clip340)" d="M1313.22 1532.4 L1319.08 1532.4 L1319.08 1568.04 L1313.22 1568.04 L1313.22 1532.4 M1313.22 1518.52 L1319.08 1518.52 L1319.08 1525.93 L1313.22 1525.93 L1313.22 1518.52 Z" fill="#000000" fill-rule="nonzero" fill-opacity="1" /><path clip-path="url(#clip340)" d="M1345.15 1536.5 Q1340.44 1536.5 1337.7 1540.19 Q1334.96 1543.85 1334.96 1550.25 Q1334.96 1556.65 1337.67 1560.34 Q1340.41 1564 1345.15 1564 Q1349.83 1564 1352.56 1560.31 Q1355.3 1556.62 1355.3 1550.25 Q1355.3 1543.92 1352.56 1540.23 Q1349.83 1536.5 1345.15 1536.5 M1345.15 1531.54 Q1352.79 1531.54 1357.15 1536.5 Q1361.51 1541.47 1361.51 1550.25 Q1361.51 1559 1357.15 1564 Q1352.79 1568.97 1345.15 1568.97 Q1337.48 1568.97 1333.12 1564 Q1328.79 1559 1328.79 1550.25 Q1328.79 1541.47 1333.12 1536.5 Q1337.48 1531.54 1345.15 1531.54 Z" fill="#000000" fill-rule="nonzero" fill-opacity="1" /><path clip-path="url(#clip340)" d="M1400.85 1546.53 L1400.85 1568.04 L1394.99 1568.04 L1394.99 1546.72 Q1394.99 1541.66 1393.02 1539.14 Q1391.04 1536.63 1387.1 1536.63 Q1382.36 1536.63 1379.62 1539.65 Q1376.88 1542.68 1376.88 1547.9 L1376.88 1568.04 L1370.99 1568.04 L1370.99 1532.4 L1376.88 1532.4 L1376.88 1537.93 Q1378.98 1534.72 1381.81 1533.13 Q1384.68 1531.54 1388.4 1531.54 Q1394.55 1531.54 1397.7 1535.36 Q1400.85 1539.14 1400.85 1546.53 Z" fill="#000000" fill-rule="nonzero" fill-opacity="1" /><path clip-path="url(#clip340)" d="M1433.03 1518.52 L1438.91 1518.52 L1438.91 1547.77 L1456.39 1532.4 L1463.87 1532.4 L1444.96 1549.07 L1464.66 1568.04 L1457.02 1568.04 L1438.91 1550.63 L1438.91 1568.04 L1433.03 1568.04 L1433.03 1518.52 Z" fill="#000000" fill-rule="nonzero" fill-opacity="1" /><polyline clip-path="url(#clip340)" style="stroke:#000000; stroke-linecap:round; stroke-linejoin:round; stroke-width:4; stroke-opacity:1; fill:none" points="249.056,1423.18 249.056,47.2441 "/>
<polyline clip-path="url(#clip340)" style="stroke:#000000; stroke-linecap:round; stroke-linejoin:round; stroke-width:4; stroke-opacity:1; fill:none" points="249.056,1330.15 267.954,1330.15 "/>
<polyline clip-path="url(#clip340)" style="stroke:#000000; stroke-linecap:round; stroke-linejoin:round; stroke-width:4; stroke-opacity:1; fill:none" points="249.056,1059.73 267.954,1059.73 "/>
<polyline clip-path="url(#clip340)" style="stroke:#000000; stroke-linecap:round; stroke-linejoin:round; stroke-width:4; stroke-opacity:1; fill:none" points="249.056,789.297 267.954,789.297 "/>
<polyline clip-path="url(#clip340)" style="stroke:#000000; stroke-linecap:round; stroke-linejoin:round; stroke-width:4; stroke-opacity:1; fill:none" points="249.056,518.87 267.954,518.87 "/>
<polyline clip-path="url(#clip340)" style="stroke:#000000; stroke-linecap:round; stroke-linejoin:round; stroke-width:4; stroke-opacity:1; fill:none" points="249.056,248.442 267.954,248.442 "/>
<path clip-path="url(#clip340)" d="M120.742 1343.5 L137.061 1343.5 L137.061 1347.43 L115.117 1347.43 L115.117 1343.5 Q117.779 1340.74 122.362 1336.11 Q126.968 1331.46 128.149 1330.12 Q130.394 1327.59 131.274 1325.86 Q132.177 1324.1 132.177 1322.41 Q132.177 1319.66 130.232 1317.92 Q128.311 1316.18 125.209 1316.18 Q123.01 1316.18 120.556 1316.95 Q118.126 1317.71 115.348 1319.26 L115.348 1314.54 Q118.172 1313.41 120.626 1312.83 Q123.08 1312.25 125.117 1312.25 Q130.487 1312.25 133.681 1314.93 Q136.876 1317.62 136.876 1322.11 Q136.876 1324.24 136.066 1326.16 Q135.279 1328.06 133.172 1330.65 Q132.593 1331.32 129.492 1334.54 Q126.39 1337.73 120.742 1343.5 Z" fill="#000000" fill-rule="nonzero" fill-opacity="1" /><path clip-path="url(#clip340)" d="M146.876 1341.55 L151.76 1341.55 L151.76 1347.43 L146.876 1347.43 L146.876 1341.55 Z" fill="#000000" fill-rule="nonzero" fill-opacity="1" /><path clip-path="url(#clip340)" d="M160.765 1312.87 L182.987 1312.87 L182.987 1314.86 L170.44 1347.43 L165.556 1347.43 L177.362 1316.81 L160.765 1316.81 L160.765 1312.87 Z" fill="#000000" fill-rule="nonzero" fill-opacity="1" /><path clip-path="url(#clip340)" d="M192.153 1312.87 L210.51 1312.87 L210.51 1316.81 L196.436 1316.81 L196.436 1325.28 Q197.454 1324.93 198.473 1324.77 Q199.491 1324.59 200.51 1324.59 Q206.297 1324.59 209.676 1327.76 Q213.056 1330.93 213.056 1336.34 Q213.056 1341.92 209.584 1345.03 Q206.112 1348.1 199.792 1348.1 Q197.616 1348.1 195.348 1347.73 Q193.102 1347.36 190.695 1346.62 L190.695 1341.92 Q192.778 1343.06 195 1343.61 Q197.223 1344.17 199.7 1344.17 Q203.704 1344.17 206.042 1342.06 Q208.38 1339.96 208.38 1336.34 Q208.38 1332.73 206.042 1330.63 Q203.704 1328.52 199.7 1328.52 Q197.825 1328.52 195.95 1328.94 Q194.098 1329.35 192.153 1330.23 L192.153 1312.87 Z" fill="#000000" fill-rule="nonzero" fill-opacity="1" /><path clip-path="url(#clip340)" d="M129.885 1058.37 Q133.242 1059.09 135.117 1061.36 Q137.015 1063.63 137.015 1066.96 Q137.015 1072.07 133.496 1074.88 Q129.978 1077.68 123.496 1077.68 Q121.32 1077.68 119.006 1077.24 Q116.714 1076.82 114.26 1075.96 L114.26 1071.45 Q116.205 1072.58 118.519 1073.16 Q120.834 1073.74 123.357 1073.74 Q127.755 1073.74 130.047 1072.01 Q132.362 1070.27 132.362 1066.96 Q132.362 1063.9 130.209 1062.19 Q128.08 1060.45 124.26 1060.45 L120.232 1060.45 L120.232 1056.61 L124.445 1056.61 Q127.894 1056.61 129.723 1055.25 Q131.552 1053.86 131.552 1051.26 Q131.552 1048.6 129.654 1047.19 Q127.779 1045.76 124.26 1045.76 Q122.339 1045.76 120.14 1046.17 Q117.941 1046.59 115.302 1047.47 L115.302 1043.3 Q117.964 1042.56 120.279 1042.19 Q122.617 1041.82 124.677 1041.82 Q130.001 1041.82 133.103 1044.25 Q136.204 1046.66 136.204 1050.78 Q136.204 1053.65 134.561 1055.64 Q132.917 1057.61 129.885 1058.37 Z" fill="#000000" fill-rule="nonzero" fill-opacity="1" /><path clip-path="url(#clip340)" d="M145.88 1071.13 L150.765 1071.13 L150.765 1077.01 L145.88 1077.01 L145.88 1071.13 Z" fill="#000000" fill-rule="nonzero" fill-opacity="1" /><path clip-path="url(#clip340)" d="M170.95 1045.52 Q167.339 1045.52 165.51 1049.09 Q163.704 1052.63 163.704 1059.76 Q163.704 1066.87 165.51 1070.43 Q167.339 1073.97 170.95 1073.97 Q174.584 1073.97 176.389 1070.43 Q178.218 1066.87 178.218 1059.76 Q178.218 1052.63 176.389 1049.09 Q174.584 1045.52 170.95 1045.52 M170.95 1041.82 Q176.76 1041.82 179.815 1046.43 Q182.894 1051.01 182.894 1059.76 Q182.894 1068.49 179.815 1073.09 Q176.76 1077.68 170.95 1077.68 Q165.14 1077.68 162.061 1073.09 Q159.005 1068.49 159.005 1059.76 Q159.005 1051.01 162.061 1046.43 Q165.14 1041.82 170.95 1041.82 Z" fill="#000000" fill-rule="nonzero" fill-opacity="1" /><path clip-path="url(#clip340)" d="M201.112 1045.52 Q197.5 1045.52 195.672 1049.09 Q193.866 1052.63 193.866 1059.76 Q193.866 1066.87 195.672 1070.43 Q197.5 1073.97 201.112 1073.97 Q204.746 1073.97 206.551 1070.43 Q208.38 1066.87 208.38 1059.76 Q208.38 1052.63 206.551 1049.09 Q204.746 1045.52 201.112 1045.52 M201.112 1041.82 Q206.922 1041.82 209.977 1046.43 Q213.056 1051.01 213.056 1059.76 Q213.056 1068.49 209.977 1073.09 Q206.922 1077.68 201.112 1077.68 Q195.301 1077.68 192.223 1073.09 Q189.167 1068.49 189.167 1059.76 Q189.167 1051.01 192.223 1046.43 Q195.301 1041.82 201.112 1041.82 Z" fill="#000000" fill-rule="nonzero" fill-opacity="1" /><path clip-path="url(#clip340)" d="M130.88 787.943 Q134.237 788.661 136.112 790.929 Q138.01 793.198 138.01 796.531 Q138.01 801.647 134.492 804.448 Q130.973 807.249 124.492 807.249 Q122.316 807.249 120.001 806.809 Q117.709 806.392 115.256 805.536 L115.256 801.022 Q117.2 802.156 119.515 802.735 Q121.83 803.314 124.353 803.314 Q128.751 803.314 131.042 801.578 Q133.357 799.841 133.357 796.531 Q133.357 793.476 131.205 791.763 Q129.075 790.027 125.255 790.027 L121.228 790.027 L121.228 786.184 L125.441 786.184 Q128.89 786.184 130.718 784.818 Q132.547 783.429 132.547 780.837 Q132.547 778.175 130.649 776.763 Q128.774 775.328 125.255 775.328 Q123.334 775.328 121.135 775.744 Q118.936 776.161 116.297 777.041 L116.297 772.874 Q118.959 772.133 121.274 771.763 Q123.612 771.392 125.672 771.392 Q130.996 771.392 134.098 773.823 Q137.2 776.23 137.2 780.351 Q137.2 783.221 135.556 785.212 Q133.913 787.179 130.88 787.943 Z" fill="#000000" fill-rule="nonzero" fill-opacity="1" /><path clip-path="url(#clip340)" d="M146.876 800.698 L151.76 800.698 L151.76 806.577 L146.876 806.577 L146.876 800.698 Z" fill="#000000" fill-rule="nonzero" fill-opacity="1" /><path clip-path="url(#clip340)" d="M165.973 802.642 L182.292 802.642 L182.292 806.577 L160.348 806.577 L160.348 802.642 Q163.01 799.888 167.593 795.258 Q172.2 790.605 173.38 789.263 Q175.626 786.74 176.505 785.004 Q177.408 783.244 177.408 781.554 Q177.408 778.8 175.464 777.064 Q173.542 775.328 170.44 775.328 Q168.241 775.328 165.788 776.092 Q163.357 776.855 160.579 778.406 L160.579 773.684 Q163.403 772.55 165.857 771.971 Q168.311 771.392 170.348 771.392 Q175.718 771.392 178.913 774.078 Q182.107 776.763 182.107 781.254 Q182.107 783.383 181.297 785.304 Q180.51 787.203 178.403 789.795 Q177.825 790.466 174.723 793.684 Q171.621 796.878 165.973 802.642 Z" fill="#000000" fill-rule="nonzero" fill-opacity="1" /><path clip-path="url(#clip340)" d="M192.153 772.017 L210.51 772.017 L210.51 775.953 L196.436 775.953 L196.436 784.425 Q197.454 784.078 198.473 783.916 Q199.491 783.73 200.51 783.73 Q206.297 783.73 209.676 786.902 Q213.056 790.073 213.056 795.49 Q213.056 801.068 209.584 804.17 Q206.112 807.249 199.792 807.249 Q197.616 807.249 195.348 806.878 Q193.102 806.508 190.695 805.767 L190.695 801.068 Q192.778 802.203 195 802.758 Q197.223 803.314 199.7 803.314 Q203.704 803.314 206.042 801.207 Q208.38 799.101 208.38 795.49 Q208.38 791.878 206.042 789.772 Q203.704 787.666 199.7 787.666 Q197.825 787.666 195.95 788.082 Q194.098 788.499 192.153 789.379 L192.153 772.017 Z" fill="#000000" fill-rule="nonzero" fill-opacity="1" /><path clip-path="url(#clip340)" d="M129.885 517.516 Q133.242 518.233 135.117 520.502 Q137.015 522.77 137.015 526.104 Q137.015 531.219 133.496 534.02 Q129.978 536.821 123.496 536.821 Q121.32 536.821 119.006 536.381 Q116.714 535.965 114.26 535.108 L114.26 530.594 Q116.205 531.729 118.519 532.307 Q120.834 532.886 123.357 532.886 Q127.755 532.886 130.047 531.15 Q132.362 529.414 132.362 526.104 Q132.362 523.048 130.209 521.335 Q128.08 519.599 124.26 519.599 L120.232 519.599 L120.232 515.756 L124.445 515.756 Q127.894 515.756 129.723 514.391 Q131.552 513.002 131.552 510.409 Q131.552 507.747 129.654 506.335 Q127.779 504.9 124.26 504.9 Q122.339 504.9 120.14 505.317 Q117.941 505.733 115.302 506.613 L115.302 502.446 Q117.964 501.706 120.279 501.335 Q122.617 500.965 124.677 500.965 Q130.001 500.965 133.103 503.395 Q136.204 505.803 136.204 509.923 Q136.204 512.794 134.561 514.784 Q132.917 516.752 129.885 517.516 Z" fill="#000000" fill-rule="nonzero" fill-opacity="1" /><path clip-path="url(#clip340)" d="M145.88 530.27 L150.765 530.27 L150.765 536.15 L145.88 536.15 L145.88 530.27 Z" fill="#000000" fill-rule="nonzero" fill-opacity="1" /><path clip-path="url(#clip340)" d="M160.996 501.59 L179.352 501.59 L179.352 505.525 L165.278 505.525 L165.278 513.997 Q166.297 513.65 167.315 513.488 Q168.334 513.303 169.352 513.303 Q175.139 513.303 178.519 516.474 Q181.899 519.645 181.899 525.062 Q181.899 530.641 178.426 533.742 Q174.954 536.821 168.635 536.821 Q166.459 536.821 164.19 536.451 Q161.945 536.08 159.538 535.34 L159.538 530.641 Q161.621 531.775 163.843 532.33 Q166.065 532.886 168.542 532.886 Q172.547 532.886 174.885 530.78 Q177.223 528.673 177.223 525.062 Q177.223 521.451 174.885 519.344 Q172.547 517.238 168.542 517.238 Q166.667 517.238 164.792 517.655 Q162.94 518.071 160.996 518.951 L160.996 501.59 Z" fill="#000000" fill-rule="nonzero" fill-opacity="1" /><path clip-path="url(#clip340)" d="M201.112 504.669 Q197.5 504.669 195.672 508.233 Q193.866 511.775 193.866 518.905 Q193.866 526.011 195.672 529.576 Q197.5 533.117 201.112 533.117 Q204.746 533.117 206.551 529.576 Q208.38 526.011 208.38 518.905 Q208.38 511.775 206.551 508.233 Q204.746 504.669 201.112 504.669 M201.112 500.965 Q206.922 500.965 209.977 505.571 Q213.056 510.155 213.056 518.905 Q213.056 527.631 209.977 532.238 Q206.922 536.821 201.112 536.821 Q195.301 536.821 192.223 532.238 Q189.167 527.631 189.167 518.905 Q189.167 510.155 192.223 505.571 Q195.301 500.965 201.112 500.965 Z" fill="#000000" fill-rule="nonzero" fill-opacity="1" /><path clip-path="url(#clip340)" d="M130.88 247.088 Q134.237 247.806 136.112 250.074 Q138.01 252.343 138.01 255.676 Q138.01 260.792 134.492 263.593 Q130.973 266.394 124.492 266.394 Q122.316 266.394 120.001 265.954 Q117.709 265.537 115.256 264.681 L115.256 260.167 Q117.2 261.301 119.515 261.88 Q121.83 262.458 124.353 262.458 Q128.751 262.458 131.042 260.722 Q133.357 258.986 133.357 255.676 Q133.357 252.62 131.205 250.908 Q129.075 249.171 125.255 249.171 L121.228 249.171 L121.228 245.329 L125.441 245.329 Q128.89 245.329 130.718 243.963 Q132.547 242.574 132.547 239.982 Q132.547 237.32 130.649 235.908 Q128.774 234.472 125.255 234.472 Q123.334 234.472 121.135 234.889 Q118.936 235.306 116.297 236.185 L116.297 232.019 Q118.959 231.278 121.274 230.908 Q123.612 230.537 125.672 230.537 Q130.996 230.537 134.098 232.968 Q137.2 235.375 137.2 239.496 Q137.2 242.366 135.556 244.357 Q133.913 246.324 130.88 247.088 Z" fill="#000000" fill-rule="nonzero" fill-opacity="1" /><path clip-path="url(#clip340)" d="M146.876 259.843 L151.76 259.843 L151.76 265.722 L146.876 265.722 L146.876 259.843 Z" fill="#000000" fill-rule="nonzero" fill-opacity="1" /><path clip-path="url(#clip340)" d="M160.765 231.162 L182.987 231.162 L182.987 233.153 L170.44 265.722 L165.556 265.722 L177.362 235.097 L160.765 235.097 L160.765 231.162 Z" fill="#000000" fill-rule="nonzero" fill-opacity="1" /><path clip-path="url(#clip340)" d="M192.153 231.162 L210.51 231.162 L210.51 235.097 L196.436 235.097 L196.436 243.57 Q197.454 243.222 198.473 243.06 Q199.491 242.875 200.51 242.875 Q206.297 242.875 209.676 246.046 Q213.056 249.218 213.056 254.634 Q213.056 260.213 209.584 263.315 Q206.112 266.394 199.792 266.394 Q197.616 266.394 195.348 266.023 Q193.102 265.653 190.695 264.912 L190.695 260.213 Q192.778 261.347 195 261.903 Q197.223 262.458 199.7 262.458 Q203.704 262.458 206.042 260.352 Q208.38 258.245 208.38 254.634 Q208.38 251.023 206.042 248.917 Q203.704 246.81 199.7 246.81 Q197.825 246.81 195.95 247.227 Q194.098 247.644 192.153 248.523 L192.153 231.162 Z" fill="#000000" fill-rule="nonzero" fill-opacity="1" /><path clip-path="url(#clip340)" d="M16.4842 887.973 L16.4842 879.316 L56.238 858.245 L16.4842 858.245 L16.4842 852.007 L64.0042 852.007 L64.0042 860.664 L24.2503 881.735 L64.0042 881.735 L64.0042 887.973 L16.4842 887.973 Z" fill="#000000" fill-rule="nonzero" fill-opacity="1" /><path clip-path="url(#clip340)" d="M41.7242 816.677 Q42.4244 814.608 44.7161 812.667 Q47.0077 810.693 51.0181 808.72 L64.0042 802.195 L64.0042 809.102 L51.8138 815.181 Q47.0395 817.536 45.48 819.764 Q43.9204 821.961 43.9204 825.78 L43.9204 832.782 L64.0042 832.782 L64.0042 839.212 L16.4842 839.212 L16.4842 824.698 Q16.4842 816.55 19.8898 812.539 Q23.2955 808.529 30.1704 808.529 Q34.6582 808.529 37.6183 810.63 Q40.5784 812.699 41.7242 816.677 M21.7677 832.782 L38.6368 832.782 L38.6368 824.698 Q38.6368 820.051 36.5043 817.696 Q34.34 815.308 30.1704 815.308 Q26.0009 815.308 23.9002 817.696 Q21.7677 820.051 21.7677 824.698 L21.7677 832.782 Z" fill="#000000" fill-rule="nonzero" fill-opacity="1" /><path clip-path="url(#clip340)" d="M16.4842 793.92 L16.4842 784.339 L48.8219 772.213 L16.4842 760.022 L16.4842 750.442 L64.0042 750.442 L64.0042 756.712 L22.277 756.712 L54.8694 768.966 L54.8694 775.427 L22.277 787.681 L64.0042 787.681 L64.0042 793.92 L16.4842 793.92 Z" fill="#000000" fill-rule="nonzero" fill-opacity="1" /><path clip-path="url(#clip340)" d="M18.0438 709.192 L24.314 709.192 Q22.5634 712.852 21.704 716.099 Q20.8447 719.345 20.8447 722.369 Q20.8447 727.621 22.8817 730.485 Q24.9187 733.318 28.6745 733.318 Q31.8255 733.318 33.4488 731.44 Q35.0402 729.531 36.0269 724.247 L36.8226 720.364 Q38.1912 713.171 41.6605 709.765 Q45.098 706.328 50.8908 706.328 Q57.7976 706.328 61.3624 710.975 Q64.9272 715.59 64.9272 724.533 Q64.9272 727.907 64.1633 731.727 Q63.3994 735.514 61.9035 739.588 L55.2831 739.588 Q57.4793 735.673 58.5933 731.918 Q59.7073 728.162 59.7073 724.533 Q59.7073 719.027 57.543 716.035 Q55.3786 713.043 51.3682 713.043 Q47.8671 713.043 45.8937 715.208 Q43.9204 717.34 42.9337 722.242 L42.1698 726.157 Q40.7375 733.35 37.682 736.565 Q34.6264 739.779 29.1837 739.779 Q22.8817 739.779 19.2532 735.355 Q15.6248 730.899 15.6248 723.101 Q15.6248 719.759 16.2295 716.29 Q16.8343 712.821 18.0438 709.192 Z" fill="#000000" fill-rule="nonzero" fill-opacity="1" /><path clip-path="url(#clip340)" d="M16.4842 696.302 L16.4842 666.255 L21.895 666.255 L21.895 689.872 L35.9632 689.872 L35.9632 667.242 L41.3741 667.242 L41.3741 689.872 L58.5933 689.872 L58.5933 665.683 L64.0042 665.683 L64.0042 696.302 L16.4842 696.302 Z" fill="#000000" fill-rule="nonzero" fill-opacity="1" /><path clip-path="url(#clip340)" d="M43.0928 593.4 Q43.0928 596.169 45.4481 597.76 Q47.8034 599.32 52.0048 599.32 Q56.1425 599.32 58.5296 597.76 Q60.885 596.169 60.885 593.4 Q60.885 590.695 58.5296 589.135 Q56.1425 587.543 52.0048 587.543 Q47.8353 587.543 45.48 589.135 Q43.0928 590.695 43.0928 593.4 M39.0506 593.4 Q39.0506 588.371 42.5517 585.411 Q46.0529 582.451 52.0048 582.451 Q57.9567 582.451 61.4579 585.443 Q64.9272 588.403 64.9272 593.4 Q64.9272 598.493 61.4579 601.453 Q57.9567 604.413 52.0048 604.413 Q46.021 604.413 42.5517 601.453 Q39.0506 598.461 39.0506 593.4 M19.667 626.247 Q19.667 628.984 22.0542 630.576 Q24.4095 632.135 28.5472 632.135 Q32.7485 632.135 35.1038 630.576 Q37.4592 629.016 37.4592 626.247 Q37.4592 623.478 35.1038 621.918 Q32.7485 620.327 28.5472 620.327 Q24.4413 620.327 22.0542 621.918 Q19.667 623.51 19.667 626.247 M15.6248 597.506 L15.6248 592.413 L64.9272 622.141 L64.9272 627.234 L15.6248 597.506 M15.6248 626.247 Q15.6248 621.218 19.1259 618.226 Q22.5952 615.234 28.5472 615.234 Q34.5628 615.234 38.0321 618.226 Q41.5014 621.186 41.5014 626.247 Q41.5014 631.308 38.0321 634.268 Q34.5309 637.196 28.5472 637.196 Q22.6271 637.196 19.1259 634.236 Q15.6248 631.276 15.6248 626.247 Z" fill="#000000" fill-rule="nonzero" fill-opacity="1" /><circle clip-path="url(#clip341)" cx="308.595" cy="86.1857" r="14.4" fill="#009af9" fill-rule="evenodd" fill-opacity="1" stroke="none"/>
<circle clip-path="url(#clip341)" cx="407.826" cy="518.87" r="14.4" fill="#009af9" fill-rule="evenodd" fill-opacity="1" stroke="none"/>
<circle clip-path="url(#clip341)" cx="507.057" cy="843.383" r="14.4" fill="#009af9" fill-rule="evenodd" fill-opacity="1" stroke="none"/>
<circle clip-path="url(#clip341)" cx="606.288" cy="951.554" r="14.4" fill="#009af9" fill-rule="evenodd" fill-opacity="1" stroke="none"/>
<circle clip-path="url(#clip341)" cx="705.519" cy="1167.9" r="14.4" fill="#009af9" fill-rule="evenodd" fill-opacity="1" stroke="none"/>
<circle clip-path="url(#clip341)" cx="804.75" cy="1167.9" r="14.4" fill="#009af9" fill-rule="evenodd" fill-opacity="1" stroke="none"/>
<circle clip-path="url(#clip341)" cx="903.981" cy="1276.07" r="14.4" fill="#009af9" fill-rule="evenodd" fill-opacity="1" stroke="none"/>
<circle clip-path="url(#clip341)" cx="1003.21" cy="1276.07" r="14.4" fill="#009af9" fill-rule="evenodd" fill-opacity="1" stroke="none"/>
<circle clip-path="url(#clip341)" cx="1102.44" cy="1384.24" r="14.4" fill="#009af9" fill-rule="evenodd" fill-opacity="1" stroke="none"/>
<circle clip-path="url(#clip341)" cx="1201.67" cy="1384.24" r="14.4" fill="#009af9" fill-rule="evenodd" fill-opacity="1" stroke="none"/>
<circle clip-path="url(#clip341)" cx="1300.91" cy="1384.24" r="14.4" fill="#009af9" fill-rule="evenodd" fill-opacity="1" stroke="none"/>
<circle clip-path="url(#clip341)" cx="1400.14" cy="1384.24" r="14.4" fill="#009af9" fill-rule="evenodd" fill-opacity="1" stroke="none"/>
<circle clip-path="url(#clip341)" cx="1499.37" cy="1384.24" r="14.4" fill="#009af9" fill-rule="evenodd" fill-opacity="1" stroke="none"/>
<circle clip-path="url(#clip341)" cx="1598.6" cy="1384.24" r="14.4" fill="#009af9" fill-rule="evenodd" fill-opacity="1" stroke="none"/>
<circle clip-path="url(#clip341)" cx="1697.83" cy="1384.24" r="14.4" fill="#009af9" fill-rule="evenodd" fill-opacity="1" stroke="none"/>
<circle clip-path="url(#clip341)" cx="1797.06" cy="1384.24" r="14.4" fill="#009af9" fill-rule="evenodd" fill-opacity="1" stroke="none"/>
<circle clip-path="url(#clip341)" cx="1896.29" cy="1384.24" r="14.4" fill="#009af9" fill-rule="evenodd" fill-opacity="1" stroke="none"/>
<circle clip-path="url(#clip341)" cx="1995.52" cy="1384.24" r="14.4" fill="#009af9" fill-rule="evenodd" fill-opacity="1" stroke="none"/>
<circle clip-path="url(#clip341)" cx="2094.75" cy="1384.24" r="14.4" fill="#009af9" fill-rule="evenodd" fill-opacity="1" stroke="none"/>
<circle clip-path="url(#clip341)" cx="2193.99" cy="1384.24" r="14.4" fill="#009af9" fill-rule="evenodd" fill-opacity="1" stroke="none"/>
<circle clip-path="url(#clip341)" cx="2293.22" cy="1384.24" r="14.4" fill="#009af9" fill-rule="evenodd" fill-opacity="1" stroke="none"/>
<path clip-path="url(#clip341)" d="M292.595 70.1857 L292.595 102.186 L324.595 102.186 L324.595 70.1857 L292.595 70.1857 Z" fill="#e26f46" fill-rule="evenodd" fill-opacity="1" stroke="none"/>
<path clip-path="url(#clip341)" d="M391.826 502.87 L391.826 534.87 L423.826 534.87 L423.826 502.87 L391.826 502.87 Z" fill="#e26f46" fill-rule="evenodd" fill-opacity="1" stroke="none"/>
<path clip-path="url(#clip341)" d="M491.057 827.383 L491.057 859.383 L523.057 859.383 L523.057 827.383 L491.057 827.383 Z" fill="#e26f46" fill-rule="evenodd" fill-opacity="1" stroke="none"/>
<path clip-path="url(#clip341)" d="M590.288 1043.73 L590.288 1075.73 L622.288 1075.73 L622.288 1043.73 L590.288 1043.73 Z" fill="#e26f46" fill-rule="evenodd" fill-opacity="1" stroke="none"/>
<path clip-path="url(#clip341)" d="M689.519 1151.9 L689.519 1183.9 L721.519 1183.9 L721.519 1151.9 L689.519 1151.9 Z" fill="#e26f46" fill-rule="evenodd" fill-opacity="1" stroke="none"/>
<path clip-path="url(#clip341)" d="M788.75 1260.07 L788.75 1292.07 L820.75 1292.07 L820.75 1260.07 L788.75 1260.07 Z" fill="#e26f46" fill-rule="evenodd" fill-opacity="1" stroke="none"/>
<path clip-path="url(#clip341)" d="M887.981 1368.24 L887.981 1400.24 L919.981 1400.24 L919.981 1368.24 L887.981 1368.24 Z" fill="#e26f46" fill-rule="evenodd" fill-opacity="1" stroke="none"/>
<path clip-path="url(#clip341)" d="M987.213 1368.24 L987.213 1400.24 L1019.21 1400.24 L1019.21 1368.24 L987.213 1368.24 Z" fill="#e26f46" fill-rule="evenodd" fill-opacity="1" stroke="none"/>
<path clip-path="url(#clip341)" d="M1086.44 1368.24 L1086.44 1400.24 L1118.44 1400.24 L1118.44 1368.24 L1086.44 1368.24 Z" fill="#e26f46" fill-rule="evenodd" fill-opacity="1" stroke="none"/>
<path clip-path="url(#clip341)" d="M1185.67 1368.24 L1185.67 1400.24 L1217.67 1400.24 L1217.67 1368.24 L1185.67 1368.24 Z" fill="#e26f46" fill-rule="evenodd" fill-opacity="1" stroke="none"/>
<path clip-path="url(#clip341)" d="M1284.91 1368.24 L1284.91 1400.24 L1316.91 1400.24 L1316.91 1368.24 L1284.91 1368.24 Z" fill="#e26f46" fill-rule="evenodd" fill-opacity="1" stroke="none"/>
<path clip-path="url(#clip341)" d="M1384.14 1368.24 L1384.14 1400.24 L1416.14 1400.24 L1416.14 1368.24 L1384.14 1368.24 Z" fill="#e26f46" fill-rule="evenodd" fill-opacity="1" stroke="none"/>
<path clip-path="url(#clip341)" d="M1483.37 1368.24 L1483.37 1400.24 L1515.37 1400.24 L1515.37 1368.24 L1483.37 1368.24 Z" fill="#e26f46" fill-rule="evenodd" fill-opacity="1" stroke="none"/>
<path clip-path="url(#clip341)" d="M1582.6 1368.24 L1582.6 1400.24 L1614.6 1400.24 L1614.6 1368.24 L1582.6 1368.24 Z" fill="#e26f46" fill-rule="evenodd" fill-opacity="1" stroke="none"/>
<path clip-path="url(#clip341)" d="M1681.83 1368.24 L1681.83 1400.24 L1713.83 1400.24 L1713.83 1368.24 L1681.83 1368.24 Z" fill="#e26f46" fill-rule="evenodd" fill-opacity="1" stroke="none"/>
<path clip-path="url(#clip341)" d="M1781.06 1368.24 L1781.06 1400.24 L1813.06 1400.24 L1813.06 1368.24 L1781.06 1368.24 Z" fill="#e26f46" fill-rule="evenodd" fill-opacity="1" stroke="none"/>
<path clip-path="url(#clip341)" d="M1880.29 1368.24 L1880.29 1400.24 L1912.29 1400.24 L1912.29 1368.24 L1880.29 1368.24 Z" fill="#e26f46" fill-rule="evenodd" fill-opacity="1" stroke="none"/>
<path clip-path="url(#clip341)" d="M1979.52 1368.24 L1979.52 1400.24 L2011.52 1400.24 L2011.52 1368.24 L1979.52 1368.24 Z" fill="#e26f46" fill-rule="evenodd" fill-opacity="1" stroke="none"/>
<path clip-path="url(#clip341)" d="M2078.75 1368.24 L2078.75 1400.24 L2110.75 1400.24 L2110.75 1368.24 L2078.75 1368.24 Z" fill="#e26f46" fill-rule="evenodd" fill-opacity="1" stroke="none"/>
<path clip-path="url(#clip341)" d="M2177.99 1368.24 L2177.99 1400.24 L2209.99 1400.24 L2209.99 1368.24 L2177.99 1368.24 Z" fill="#e26f46" fill-rule="evenodd" fill-opacity="1" stroke="none"/>
<path clip-path="url(#clip341)" d="M2277.22 1368.24 L2277.22 1400.24 L2309.22 1400.24 L2309.22 1368.24 L2277.22 1368.24 Z" fill="#e26f46" fill-rule="evenodd" fill-opacity="1" stroke="none"/>
<path clip-path="url(#clip341)" d="M308.595 70.1857 L292.595 102.186 L324.595 102.186 L308.595 70.1857 Z" fill="#3da44d" fill-rule="evenodd" fill-opacity="1" stroke="none"/>
<path clip-path="url(#clip341)" d="M407.826 502.87 L391.826 534.87 L423.826 534.87 L407.826 502.87 Z" fill="#3da44d" fill-rule="evenodd" fill-opacity="1" stroke="none"/>
<path clip-path="url(#clip341)" d="M507.057 935.554 L491.057 967.554 L523.057 967.554 L507.057 935.554 Z" fill="#3da44d" fill-rule="evenodd" fill-opacity="1" stroke="none"/>
<path clip-path="url(#clip341)" d="M606.288 1151.9 L590.288 1183.9 L622.288 1183.9 L606.288 1151.9 Z" fill="#3da44d" fill-rule="evenodd" fill-opacity="1" stroke="none"/>
<path clip-path="url(#clip341)" d="M705.519 1368.24 L689.519 1400.24 L721.519 1400.24 L705.519 1368.24 Z" fill="#3da44d" fill-rule="evenodd" fill-opacity="1" stroke="none"/>
<path clip-path="url(#clip341)" d="M804.75 1368.24 L788.75 1400.24 L820.75 1400.24 L804.75 1368.24 Z" fill="#3da44d" fill-rule="evenodd" fill-opacity="1" stroke="none"/>
<path clip-path="url(#clip341)" d="M903.981 1368.24 L887.981 1400.24 L919.981 1400.24 L903.981 1368.24 Z" fill="#3da44d" fill-rule="evenodd" fill-opacity="1" stroke="none"/>
<path clip-path="url(#clip341)" d="M1003.21 1368.24 L987.213 1400.24 L1019.21 1400.24 L1003.21 1368.24 Z" fill="#3da44d" fill-rule="evenodd" fill-opacity="1" stroke="none"/>
<path clip-path="url(#clip341)" d="M1102.44 1368.24 L1086.44 1400.24 L1118.44 1400.24 L1102.44 1368.24 Z" fill="#3da44d" fill-rule="evenodd" fill-opacity="1" stroke="none"/>
<path clip-path="url(#clip341)" d="M1201.67 1260.07 L1185.67 1292.07 L1217.67 1292.07 L1201.67 1260.07 Z" fill="#3da44d" fill-rule="evenodd" fill-opacity="1" stroke="none"/>
<path clip-path="url(#clip341)" d="M1300.91 1260.07 L1284.91 1292.07 L1316.91 1292.07 L1300.91 1260.07 Z" fill="#3da44d" fill-rule="evenodd" fill-opacity="1" stroke="none"/>
<path clip-path="url(#clip341)" d="M1400.14 1260.07 L1384.14 1292.07 L1416.14 1292.07 L1400.14 1260.07 Z" fill="#3da44d" fill-rule="evenodd" fill-opacity="1" stroke="none"/>
<path clip-path="url(#clip341)" d="M1499.37 1368.24 L1483.37 1400.24 L1515.37 1400.24 L1499.37 1368.24 Z" fill="#3da44d" fill-rule="evenodd" fill-opacity="1" stroke="none"/>
<path clip-path="url(#clip341)" d="M1598.6 1368.24 L1582.6 1400.24 L1614.6 1400.24 L1598.6 1368.24 Z" fill="#3da44d" fill-rule="evenodd" fill-opacity="1" stroke="none"/>
<path clip-path="url(#clip341)" d="M1697.83 1368.24 L1681.83 1400.24 L1713.83 1400.24 L1697.83 1368.24 Z" fill="#3da44d" fill-rule="evenodd" fill-opacity="1" stroke="none"/>
<path clip-path="url(#clip341)" d="M1797.06 1368.24 L1781.06 1400.24 L1813.06 1400.24 L1797.06 1368.24 Z" fill="#3da44d" fill-rule="evenodd" fill-opacity="1" stroke="none"/>
<path clip-path="url(#clip341)" d="M1896.29 1260.07 L1880.29 1292.07 L1912.29 1292.07 L1896.29 1260.07 Z" fill="#3da44d" fill-rule="evenodd" fill-opacity="1" stroke="none"/>
<path clip-path="url(#clip341)" d="M1995.52 1260.07 L1979.52 1292.07 L2011.52 1292.07 L1995.52 1260.07 Z" fill="#3da44d" fill-rule="evenodd" fill-opacity="1" stroke="none"/>
<path clip-path="url(#clip341)" d="M2094.75 1260.07 L2078.75 1292.07 L2110.75 1292.07 L2094.75 1260.07 Z" fill="#3da44d" fill-rule="evenodd" fill-opacity="1" stroke="none"/>
<path clip-path="url(#clip341)" d="M2193.99 1260.07 L2177.99 1292.07 L2209.99 1292.07 L2193.99 1260.07 Z" fill="#3da44d" fill-rule="evenodd" fill-opacity="1" stroke="none"/>
<path clip-path="url(#clip341)" d="M2293.22 1260.07 L2277.22 1292.07 L2309.22 1292.07 L2293.22 1260.07 Z" fill="#3da44d" fill-rule="evenodd" fill-opacity="1" stroke="none"/>
<path clip-path="url(#clip340)" d="M1753.58 300.469 L2282.63 300.469 L2282.63 93.1086 L1753.58 93.1086  Z" fill="#ffffff" fill-rule="evenodd" fill-opacity="1"/>
<polyline clip-path="url(#clip340)" style="stroke:#000000; stroke-linecap:round; stroke-linejoin:round; stroke-width:4; stroke-opacity:1; fill:none" points="1753.58,300.469 2282.63,300.469 2282.63,93.1086 1753.58,93.1086 1753.58,300.469 "/>
<circle clip-path="url(#clip340)" cx="1847.08" cy="144.949" r="20.48" fill="#009af9" fill-rule="evenodd" fill-opacity="1" stroke="none"/>
<path clip-path="url(#clip340)" d="M1940.58 127.669 L1946.88 127.669 L1962.2 156.581 L1962.2 127.669 L1966.74 127.669 L1966.74 162.229 L1960.44 162.229 L1945.12 133.317 L1945.12 162.229 L1940.58 162.229 L1940.58 127.669 Z" fill="#000000" fill-rule="nonzero" fill-opacity="1" /><path clip-path="url(#clip340)" d="M1992.43 146.025 Q1993.94 146.534 1995.35 148.201 Q1996.78 149.868 1998.22 152.784 L2002.96 162.229 L1997.94 162.229 L1993.52 153.363 Q1991.81 149.891 1990.19 148.756 Q1988.59 147.622 1985.81 147.622 L1980.72 147.622 L1980.72 162.229 L1976.04 162.229 L1976.04 127.669 L1986.6 127.669 Q1992.52 127.669 1995.44 130.145 Q1998.36 132.622 1998.36 137.622 Q1998.36 140.886 1996.83 143.039 Q1995.32 145.192 1992.43 146.025 M1980.72 131.511 L1980.72 143.78 L1986.6 143.78 Q1989.98 143.78 1991.69 142.229 Q1993.43 140.655 1993.43 137.622 Q1993.43 134.59 1991.69 133.062 Q1989.98 131.511 1986.6 131.511 L1980.72 131.511 Z" fill="#000000" fill-rule="nonzero" fill-opacity="1" /><path clip-path="url(#clip340)" d="M2008.98 127.669 L2015.95 127.669 L2024.77 151.187 L2033.63 127.669 L2040.6 127.669 L2040.6 162.229 L2036.04 162.229 L2036.04 131.882 L2027.13 155.585 L2022.43 155.585 L2013.52 131.882 L2013.52 162.229 L2008.98 162.229 L2008.98 127.669 Z" fill="#000000" fill-rule="nonzero" fill-opacity="1" /><path clip-path="url(#clip340)" d="M2070.6 128.803 L2070.6 133.363 Q2067.94 132.09 2065.58 131.465 Q2063.22 130.84 2061.02 130.84 Q2057.2 130.84 2055.12 132.321 Q2053.06 133.803 2053.06 136.534 Q2053.06 138.826 2054.42 140.007 Q2055.81 141.164 2059.65 141.882 L2062.48 142.46 Q2067.71 143.456 2070.19 145.979 Q2072.69 148.479 2072.69 152.692 Q2072.69 157.715 2069.31 160.307 Q2065.95 162.9 2059.44 162.9 Q2056.99 162.9 2054.21 162.344 Q2051.46 161.789 2048.5 160.701 L2048.5 155.886 Q2051.34 157.483 2054.07 158.293 Q2056.81 159.104 2059.44 159.104 Q2063.45 159.104 2065.62 157.53 Q2067.8 155.956 2067.8 153.039 Q2067.8 150.493 2066.23 149.057 Q2064.68 147.622 2061.11 146.905 L2058.26 146.349 Q2053.03 145.307 2050.69 143.085 Q2048.36 140.863 2048.36 136.905 Q2048.36 132.321 2051.57 129.682 Q2054.81 127.044 2060.49 127.044 Q2062.92 127.044 2065.44 127.483 Q2067.96 127.923 2070.6 128.803 Z" fill="#000000" fill-rule="nonzero" fill-opacity="1" /><path clip-path="url(#clip340)" d="M2079.98 127.669 L2101.83 127.669 L2101.83 131.604 L2084.65 131.604 L2084.65 141.835 L2101.11 141.835 L2101.11 145.77 L2084.65 145.77 L2084.65 158.293 L2102.25 158.293 L2102.25 162.229 L2079.98 162.229 L2079.98 127.669 Z" fill="#000000" fill-rule="nonzero" fill-opacity="1" /><path clip-path="url(#clip340)" d="M2125 127.669 L2129.68 127.669 L2129.68 162.229 L2125 162.229 L2125 127.669 Z" fill="#000000" fill-rule="nonzero" fill-opacity="1" /><path clip-path="url(#clip340)" d="M2159.7 128.803 L2159.7 133.363 Q2157.04 132.09 2154.68 131.465 Q2152.31 130.84 2150.12 130.84 Q2146.3 130.84 2144.21 132.321 Q2142.15 133.803 2142.15 136.534 Q2142.15 138.826 2143.52 140.007 Q2144.91 141.164 2148.75 141.882 L2151.57 142.46 Q2156.8 143.456 2159.28 145.979 Q2161.78 148.479 2161.78 152.692 Q2161.78 157.715 2158.4 160.307 Q2155.05 162.9 2148.54 162.9 Q2146.09 162.9 2143.31 162.344 Q2140.56 161.789 2137.59 160.701 L2137.59 155.886 Q2140.44 157.483 2143.17 158.293 Q2145.9 159.104 2148.54 159.104 Q2152.55 159.104 2154.72 157.53 Q2156.9 155.956 2156.9 153.039 Q2156.9 150.493 2155.32 149.057 Q2153.77 147.622 2150.21 146.905 L2147.36 146.349 Q2142.13 145.307 2139.79 143.085 Q2137.45 140.863 2137.45 136.905 Q2137.45 132.321 2140.67 129.682 Q2143.91 127.044 2149.58 127.044 Q2152.01 127.044 2154.54 127.483 Q2157.06 127.923 2159.7 128.803 Z" fill="#000000" fill-rule="nonzero" fill-opacity="1" /><path clip-path="url(#clip340)" d="M2164.28 127.669 L2193.52 127.669 L2193.52 131.604 L2181.25 131.604 L2181.25 162.229 L2176.55 162.229 L2176.55 131.604 L2164.28 131.604 L2164.28 127.669 Z" fill="#000000" fill-rule="nonzero" fill-opacity="1" /><path clip-path="url(#clip340)" d="M2205.9 132.275 L2199.56 149.474 L2212.27 149.474 L2205.9 132.275 M2203.26 127.669 L2208.56 127.669 L2221.74 162.229 L2216.87 162.229 L2213.73 153.363 L2198.15 153.363 L2195 162.229 L2190.07 162.229 L2203.26 127.669 Z" fill="#000000" fill-rule="nonzero" fill-opacity="1" /><path clip-path="url(#clip340)" d="M1824.33 174.033 L1824.33 219.544 L1869.84 219.544 L1869.84 174.033 L1824.33 174.033 Z" fill="#e26f46" fill-rule="evenodd" fill-opacity="1" stroke="none"/>
<path clip-path="url(#clip340)" d="M1940.58 179.509 L1946.88 179.509 L1962.2 208.421 L1962.2 179.509 L1966.74 179.509 L1966.74 214.069 L1960.44 214.069 L1945.12 185.157 L1945.12 214.069 L1940.58 214.069 L1940.58 179.509 Z" fill="#000000" fill-rule="nonzero" fill-opacity="1" /><path clip-path="url(#clip340)" d="M1992.43 197.865 Q1993.94 198.374 1995.35 200.041 Q1996.78 201.708 1998.22 204.624 L2002.96 214.069 L1997.94 214.069 L1993.52 205.203 Q1991.81 201.731 1990.19 200.596 Q1988.59 199.462 1985.81 199.462 L1980.72 199.462 L1980.72 214.069 L1976.04 214.069 L1976.04 179.509 L1986.6 179.509 Q1992.52 179.509 1995.44 181.985 Q1998.36 184.462 1998.36 189.462 Q1998.36 192.726 1996.83 194.879 Q1995.32 197.032 1992.43 197.865 M1980.72 183.351 L1980.72 195.62 L1986.6 195.62 Q1989.98 195.62 1991.69 194.069 Q1993.43 192.495 1993.43 189.462 Q1993.43 186.43 1991.69 184.902 Q1989.98 183.351 1986.6 183.351 L1980.72 183.351 Z" fill="#000000" fill-rule="nonzero" fill-opacity="1" /><path clip-path="url(#clip340)" d="M2008.98 179.509 L2015.95 179.509 L2024.77 203.027 L2033.63 179.509 L2040.6 179.509 L2040.6 214.069 L2036.04 214.069 L2036.04 183.722 L2027.13 207.425 L2022.43 207.425 L2013.52 183.722 L2013.52 214.069 L2008.98 214.069 L2008.98 179.509 Z" fill="#000000" fill-rule="nonzero" fill-opacity="1" /><path clip-path="url(#clip340)" d="M2070.6 180.643 L2070.6 185.203 Q2067.94 183.93 2065.58 183.305 Q2063.22 182.68 2061.02 182.68 Q2057.2 182.68 2055.12 184.161 Q2053.06 185.643 2053.06 188.374 Q2053.06 190.666 2054.42 191.847 Q2055.81 193.004 2059.65 193.722 L2062.48 194.3 Q2067.71 195.296 2070.19 197.819 Q2072.69 200.319 2072.69 204.532 Q2072.69 209.555 2069.31 212.147 Q2065.95 214.74 2059.44 214.74 Q2056.99 214.74 2054.21 214.184 Q2051.46 213.629 2048.5 212.541 L2048.5 207.726 Q2051.34 209.323 2054.07 210.133 Q2056.81 210.944 2059.44 210.944 Q2063.45 210.944 2065.62 209.37 Q2067.8 207.796 2067.8 204.879 Q2067.8 202.333 2066.23 200.897 Q2064.68 199.462 2061.11 198.745 L2058.26 198.189 Q2053.03 197.147 2050.69 194.925 Q2048.36 192.703 2048.36 188.745 Q2048.36 184.161 2051.57 181.522 Q2054.81 178.884 2060.49 178.884 Q2062.92 178.884 2065.44 179.323 Q2067.96 179.763 2070.6 180.643 Z" fill="#000000" fill-rule="nonzero" fill-opacity="1" /><path clip-path="url(#clip340)" d="M2079.98 179.509 L2101.83 179.509 L2101.83 183.444 L2084.65 183.444 L2084.65 193.675 L2101.11 193.675 L2101.11 197.61 L2084.65 197.61 L2084.65 210.133 L2102.25 210.133 L2102.25 214.069 L2079.98 214.069 L2079.98 179.509 Z" fill="#000000" fill-rule="nonzero" fill-opacity="1" /><path clip-path="url(#clip340)" d="M2125 179.509 L2144.86 179.509 L2144.86 183.444 L2129.68 183.444 L2129.68 193.629 L2143.38 193.629 L2143.38 197.564 L2129.68 197.564 L2129.68 214.069 L2125 214.069 L2125 179.509 Z" fill="#000000" fill-rule="nonzero" fill-opacity="1" /><path clip-path="url(#clip340)" d="M2152.27 179.509 L2156.94 179.509 L2156.94 214.069 L2152.27 214.069 L2152.27 179.509 Z" fill="#000000" fill-rule="nonzero" fill-opacity="1" /><path clip-path="url(#clip340)" d="M2186.97 180.643 L2186.97 185.203 Q2184.3 183.93 2181.94 183.305 Q2179.58 182.68 2177.38 182.68 Q2173.56 182.68 2171.48 184.161 Q2169.42 185.643 2169.42 188.374 Q2169.42 190.666 2170.79 191.847 Q2172.18 193.004 2176.02 193.722 L2178.84 194.3 Q2184.07 195.296 2186.55 197.819 Q2189.05 200.319 2189.05 204.532 Q2189.05 209.555 2185.67 212.147 Q2182.31 214.74 2175.81 214.74 Q2173.36 214.74 2170.58 214.184 Q2167.82 213.629 2164.86 212.541 L2164.86 207.726 Q2167.71 209.323 2170.44 210.133 Q2173.17 210.944 2175.81 210.944 Q2179.81 210.944 2181.99 209.37 Q2184.17 207.796 2184.17 204.879 Q2184.17 202.333 2182.59 200.897 Q2181.04 199.462 2177.48 198.745 L2174.63 198.189 Q2169.4 197.147 2167.06 194.925 Q2164.72 192.703 2164.72 188.745 Q2164.72 184.161 2167.94 181.522 Q2171.18 178.884 2176.85 178.884 Q2179.28 178.884 2181.8 179.323 Q2184.33 179.763 2186.97 180.643 Z" fill="#000000" fill-rule="nonzero" fill-opacity="1" /><path clip-path="url(#clip340)" d="M2191.55 179.509 L2220.79 179.509 L2220.79 183.444 L2208.52 183.444 L2208.52 214.069 L2203.82 214.069 L2203.82 183.444 L2191.55 183.444 L2191.55 179.509 Z" fill="#000000" fill-rule="nonzero" fill-opacity="1" /><path clip-path="url(#clip340)" d="M2233.17 184.115 L2226.83 201.314 L2239.54 201.314 L2233.17 184.115 M2230.53 179.509 L2235.83 179.509 L2249 214.069 L2244.14 214.069 L2240.99 205.203 L2225.42 205.203 L2222.27 214.069 L2217.34 214.069 L2230.53 179.509 Z" fill="#000000" fill-rule="nonzero" fill-opacity="1" /><path clip-path="url(#clip340)" d="M1847.08 225.873 L1824.33 271.384 L1869.84 271.384 L1847.08 225.873 Z" fill="#3da44d" fill-rule="evenodd" fill-opacity="1" stroke="none"/>
<path clip-path="url(#clip340)" d="M1940.58 231.349 L1946.88 231.349 L1962.2 260.261 L1962.2 231.349 L1966.74 231.349 L1966.74 265.909 L1960.44 265.909 L1945.12 236.997 L1945.12 265.909 L1940.58 265.909 L1940.58 231.349 Z" fill="#000000" fill-rule="nonzero" fill-opacity="1" /><path clip-path="url(#clip340)" d="M1992.43 249.705 Q1993.94 250.214 1995.35 251.881 Q1996.78 253.548 1998.22 256.464 L2002.96 265.909 L1997.94 265.909 L1993.52 257.043 Q1991.81 253.571 1990.19 252.436 Q1988.59 251.302 1985.81 251.302 L1980.72 251.302 L1980.72 265.909 L1976.04 265.909 L1976.04 231.349 L1986.6 231.349 Q1992.52 231.349 1995.44 233.825 Q1998.36 236.302 1998.36 241.302 Q1998.36 244.566 1996.83 246.719 Q1995.32 248.872 1992.43 249.705 M1980.72 235.191 L1980.72 247.46 L1986.6 247.46 Q1989.98 247.46 1991.69 245.909 Q1993.43 244.335 1993.43 241.302 Q1993.43 238.27 1991.69 236.742 Q1989.98 235.191 1986.6 235.191 L1980.72 235.191 Z" fill="#000000" fill-rule="nonzero" fill-opacity="1" /><path clip-path="url(#clip340)" d="M2008.98 231.349 L2015.95 231.349 L2024.77 254.867 L2033.63 231.349 L2040.6 231.349 L2040.6 265.909 L2036.04 265.909 L2036.04 235.562 L2027.13 259.265 L2022.43 259.265 L2013.52 235.562 L2013.52 265.909 L2008.98 265.909 L2008.98 231.349 Z" fill="#000000" fill-rule="nonzero" fill-opacity="1" /><path clip-path="url(#clip340)" d="M2070.6 232.483 L2070.6 237.043 Q2067.94 235.77 2065.58 235.145 Q2063.22 234.52 2061.02 234.52 Q2057.2 234.52 2055.12 236.001 Q2053.06 237.483 2053.06 240.214 Q2053.06 242.506 2054.42 243.687 Q2055.81 244.844 2059.65 245.562 L2062.48 246.14 Q2067.71 247.136 2070.19 249.659 Q2072.69 252.159 2072.69 256.372 Q2072.69 261.395 2069.31 263.987 Q2065.95 266.58 2059.44 266.58 Q2056.99 266.58 2054.21 266.024 Q2051.46 265.469 2048.5 264.381 L2048.5 259.566 Q2051.34 261.163 2054.07 261.973 Q2056.81 262.784 2059.44 262.784 Q2063.45 262.784 2065.62 261.21 Q2067.8 259.636 2067.8 256.719 Q2067.8 254.173 2066.23 252.737 Q2064.68 251.302 2061.11 250.585 L2058.26 250.029 Q2053.03 248.987 2050.69 246.765 Q2048.36 244.543 2048.36 240.585 Q2048.36 236.001 2051.57 233.362 Q2054.81 230.724 2060.49 230.724 Q2062.92 230.724 2065.44 231.163 Q2067.96 231.603 2070.6 232.483 Z" fill="#000000" fill-rule="nonzero" fill-opacity="1" /><path clip-path="url(#clip340)" d="M2079.98 231.349 L2101.83 231.349 L2101.83 235.284 L2084.65 235.284 L2084.65 245.515 L2101.11 245.515 L2101.11 249.45 L2084.65 249.45 L2084.65 261.973 L2102.25 261.973 L2102.25 265.909 L2079.98 265.909 L2079.98 231.349 Z" fill="#000000" fill-rule="nonzero" fill-opacity="1" /><path clip-path="url(#clip340)" d="M2129.68 235.191 L2129.68 248.177 L2135.56 248.177 Q2138.82 248.177 2140.6 246.487 Q2142.38 244.798 2142.38 241.673 Q2142.38 238.571 2140.6 236.881 Q2138.82 235.191 2135.56 235.191 L2129.68 235.191 M2125 231.349 L2135.56 231.349 Q2141.37 231.349 2144.33 233.987 Q2147.31 236.603 2147.31 241.673 Q2147.31 246.788 2144.33 249.404 Q2141.37 252.02 2135.56 252.02 L2129.68 252.02 L2129.68 265.909 L2125 265.909 L2125 231.349 Z" fill="#000000" fill-rule="nonzero" fill-opacity="1" /><path clip-path="url(#clip340)" d="M2167.62 234.52 Q2162.52 234.52 2159.51 238.316 Q2156.53 242.112 2156.53 248.663 Q2156.53 255.191 2159.51 258.987 Q2162.52 262.784 2167.62 262.784 Q2172.71 262.784 2175.67 258.987 Q2178.66 255.191 2178.66 248.663 Q2178.66 242.112 2175.67 238.316 Q2172.71 234.52 2167.62 234.52 M2167.62 230.724 Q2174.88 230.724 2179.24 235.608 Q2183.59 240.469 2183.59 248.663 Q2183.59 256.835 2179.24 261.719 Q2174.88 266.58 2167.62 266.58 Q2160.32 266.58 2155.95 261.719 Q2151.6 256.858 2151.6 248.663 Q2151.6 240.469 2155.95 235.608 Q2160.32 230.724 2167.62 230.724 Z" fill="#000000" fill-rule="nonzero" fill-opacity="1" /><path clip-path="url(#clip340)" d="M2214.47 260.978 L2214.47 251.696 L2206.83 251.696 L2206.83 247.853 L2219.1 247.853 L2219.1 262.691 Q2216.39 264.612 2213.12 265.608 Q2209.86 266.58 2206.16 266.58 Q2198.05 266.58 2193.47 261.858 Q2188.91 257.112 2188.91 248.663 Q2188.91 240.191 2193.47 235.469 Q2198.05 230.724 2206.16 230.724 Q2209.54 230.724 2212.57 231.557 Q2215.62 232.39 2218.19 234.011 L2218.19 238.987 Q2215.6 236.788 2212.68 235.677 Q2209.77 234.566 2206.55 234.566 Q2200.21 234.566 2197.01 238.108 Q2193.84 241.649 2193.84 248.663 Q2193.84 255.654 2197.01 259.196 Q2200.21 262.737 2206.55 262.737 Q2209.03 262.737 2210.97 262.321 Q2212.92 261.881 2214.47 260.978 Z" fill="#000000" fill-rule="nonzero" fill-opacity="1" /><path clip-path="url(#clip340)" d="M2227.64 231.349 L2234.61 231.349 L2243.42 254.867 L2252.29 231.349 L2259.26 231.349 L2259.26 265.909 L2254.7 265.909 L2254.7 235.562 L2245.79 259.265 L2241.09 259.265 L2232.17 235.562 L2232.17 265.909 L2227.64 265.909 L2227.64 231.349 Z" fill="#000000" fill-rule="nonzero" fill-opacity="1" /></svg>
