<?xml version="1.0" encoding="utf-8"?>
<svg xmlns="http://www.w3.org/2000/svg" xmlns:xlink="http://www.w3.org/1999/xlink" width="600" height="400" viewBox="0 0 2400 1600">
<defs>
  <clipPath id="clip610">
    <rect x="0" y="0" width="2400" height="1600"/>
  </clipPath>
</defs>
<path clip-path="url(#clip610)" d="M0 1600 L2400 1600 L2400 0 L0 0  Z" fill="#ffffff" fill-rule="evenodd" fill-opacity="1"/>
<defs>
  <clipPath id="clip611">
    <rect x="262" y="47" width="2091" height="1377"/>
  </clipPath>
</defs>
<path clip-path="url(#clip610)" d="M262.551 1423.18 L2352.76 1423.18 L2352.76 47.2441 L262.551 47.2441  Z" fill="#ffffff" fill-rule="evenodd" fill-opacity="1"/>
<polyline clip-path="url(#clip611)" style="stroke:#000000; stroke-linecap:round; stroke-linejoin:round; stroke-width:2; stroke-opacity:0.1; fill:none" points="321.708,1423.18 321.708,47.2441 "/>
<polyline clip-path="url(#clip611)" style="stroke:#000000; stroke-linecap:round; stroke-linejoin:round; stroke-width:2; stroke-opacity:0.1; fill:none" points="814.681,1423.18 814.681,47.2441 "/>
<polyline clip-path="url(#clip611)" style="stroke:#000000; stroke-linecap:round; stroke-linejoin:round; stroke-width:2; stroke-opacity:0.1; fill:none" points="1307.65,1423.18 1307.65,47.2441 "/>
<polyline clip-path="url(#clip611)" style="stroke:#000000; stroke-linecap:round; stroke-linejoin:round; stroke-width:2; stroke-opacity:0.1; fill:none" points="1800.63,1423.18 1800.63,47.2441 "/>
<polyline clip-path="url(#clip611)" style="stroke:#000000; stroke-linecap:round; stroke-linejoin:round; stroke-width:2; stroke-opacity:0.1; fill:none" points="2293.6,1423.18 2293.6,47.2441 "/>
<polyline clip-path="url(#clip611)" style="stroke:#000000; stroke-linecap:round; stroke-linejoin:round; stroke-width:2; stroke-opacity:0.1; fill:none" points="262.551,1316.88 2352.76,1316.88 "/>
<polyline clip-path="url(#clip611)" style="stroke:#000000; stroke-linecap:round; stroke-linejoin:round; stroke-width:2; stroke-opacity:0.1; fill:none" points="262.551,1038.67 2352.76,1038.67 "/>
<polyline clip-path="url(#clip611)" style="stroke:#000000; stroke-linecap:round; stroke-linejoin:round; stroke-width:2; stroke-opacity:0.1; fill:none" points="262.551,760.464 2352.76,760.464 "/>
<polyline clip-path="url(#clip611)" style="stroke:#000000; stroke-linecap:round; stroke-linejoin:round; stroke-width:2; stroke-opacity:0.1; fill:none" points="262.551,482.254 2352.76,482.254 "/>
<polyline clip-path="url(#clip611)" style="stroke:#000000; stroke-linecap:round; stroke-linejoin:round; stroke-width:2; stroke-opacity:0.1; fill:none" points="262.551,204.045 2352.76,204.045 "/>
<polyline clip-path="url(#clip610)" style="stroke:#000000; stroke-linecap:round; stroke-linejoin:round; stroke-width:4; stroke-opacity:1; fill:none" points="262.551,1423.18 2352.76,1423.18 "/>
<polyline clip-path="url(#clip610)" style="stroke:#000000; stroke-linecap:round; stroke-linejoin:round; stroke-width:4; stroke-opacity:1; fill:none" points="321.708,1423.18 321.708,1404.28 "/>
<polyline clip-path="url(#clip610)" style="stroke:#000000; stroke-linecap:round; stroke-linejoin:round; stroke-width:4; stroke-opacity:1; fill:none" points="814.681,1423.18 814.681,1404.28 "/>
<polyline clip-path="url(#clip610)" style="stroke:#000000; stroke-linecap:round; stroke-linejoin:round; stroke-width:4; stroke-opacity:1; fill:none" points="1307.65,1423.18 1307.65,1404.28 "/>
<polyline clip-path="url(#clip610)" style="stroke:#000000; stroke-linecap:round; stroke-linejoin:round; stroke-width:4; stroke-opacity:1; fill:none" points="1800.63,1423.18 1800.63,1404.28 "/>
<polyline clip-path="url(#clip610)" style="stroke:#000000; stroke-linecap:round; stroke-linejoin:round; stroke-width:4; stroke-opacity:1; fill:none" points="2293.6,1423.18 2293.6,1404.28 "/>
<path clip-path="url(#clip610)" d="M299.092 1454.1 Q295.481 1454.1 293.653 1457.66 Q291.847 1461.2 291.847 1468.33 Q291.847 1475.44 293.653 1479.01 Q295.481 1482.55 299.092 1482.55 Q302.727 1482.55 304.532 1479.01 Q306.361 1475.44 306.361 1468.33 Q306.361 1461.2 304.532 1457.66 Q302.727 1454.1 299.092 1454.1 M299.092 1450.39 Q304.902 1450.39 307.958 1455 Q311.037 1459.58 311.037 1468.33 Q311.037 1477.06 307.958 1481.67 Q304.902 1486.25 299.092 1486.25 Q293.282 1486.25 290.203 1481.67 Q287.148 1477.06 287.148 1468.33 Q287.148 1459.58 290.203 1455 Q293.282 1450.39 299.092 1450.39 Z" fill="#000000" fill-rule="nonzero" fill-opacity="1" /><path clip-path="url(#clip610)" d="M319.254 1479.7 L324.139 1479.7 L324.139 1485.58 L319.254 1485.58 L319.254 1479.7 Z" fill="#000000" fill-rule="nonzero" fill-opacity="1" /><path clip-path="url(#clip610)" d="M344.324 1454.1 Q340.712 1454.1 338.884 1457.66 Q337.078 1461.2 337.078 1468.33 Q337.078 1475.44 338.884 1479.01 Q340.712 1482.55 344.324 1482.55 Q347.958 1482.55 349.763 1479.01 Q351.592 1475.44 351.592 1468.33 Q351.592 1461.2 349.763 1457.66 Q347.958 1454.1 344.324 1454.1 M344.324 1450.39 Q350.134 1450.39 353.189 1455 Q356.268 1459.58 356.268 1468.33 Q356.268 1477.06 353.189 1481.67 Q350.134 1486.25 344.324 1486.25 Q338.513 1486.25 335.435 1481.67 Q332.379 1477.06 332.379 1468.33 Q332.379 1459.58 335.435 1455 Q338.513 1450.39 344.324 1450.39 Z" fill="#000000" fill-rule="nonzero" fill-opacity="1" /><path clip-path="url(#clip610)" d="M786.417 1481.64 L802.736 1481.64 L802.736 1485.58 L780.792 1485.58 L780.792 1481.64 Q783.454 1478.89 788.037 1474.26 Q792.644 1469.61 793.824 1468.27 Q796.07 1465.74 796.949 1464.01 Q797.852 1462.25 797.852 1460.56 Q797.852 1457.8 795.908 1456.07 Q793.986 1454.33 790.885 1454.33 Q788.686 1454.33 786.232 1455.09 Q783.801 1455.86 781.024 1457.41 L781.024 1452.69 Q783.848 1451.55 786.301 1450.97 Q788.755 1450.39 790.792 1450.39 Q796.162 1450.39 799.357 1453.08 Q802.551 1455.77 802.551 1460.26 Q802.551 1462.39 801.741 1464.31 Q800.954 1466.2 798.848 1468.8 Q798.269 1469.47 795.167 1472.69 Q792.065 1475.88 786.417 1481.64 Z" fill="#000000" fill-rule="nonzero" fill-opacity="1" /><path clip-path="url(#clip610)" d="M812.551 1479.7 L817.435 1479.7 L817.435 1485.58 L812.551 1485.58 L812.551 1479.7 Z" fill="#000000" fill-rule="nonzero" fill-opacity="1" /><path clip-path="url(#clip610)" d="M827.667 1451.02 L846.023 1451.02 L846.023 1454.96 L831.949 1454.96 L831.949 1463.43 Q832.968 1463.08 833.986 1462.92 Q835.005 1462.73 836.023 1462.73 Q841.81 1462.73 845.19 1465.9 Q848.569 1469.08 848.569 1474.49 Q848.569 1480.07 845.097 1483.17 Q841.625 1486.25 835.306 1486.25 Q833.13 1486.25 830.861 1485.88 Q828.616 1485.51 826.208 1484.77 L826.208 1480.07 Q828.292 1481.2 830.514 1481.76 Q832.736 1482.32 835.213 1482.32 Q839.218 1482.32 841.556 1480.21 Q843.894 1478.1 843.894 1474.49 Q843.894 1470.88 841.556 1468.77 Q839.218 1466.67 835.213 1466.67 Q833.338 1466.67 831.463 1467.08 Q829.611 1467.5 827.667 1468.38 L827.667 1451.02 Z" fill="#000000" fill-rule="nonzero" fill-opacity="1" /><path clip-path="url(#clip610)" d="M1274.82 1451.02 L1293.17 1451.02 L1293.17 1454.96 L1279.1 1454.96 L1279.1 1463.43 Q1280.12 1463.08 1281.14 1462.92 Q1282.16 1462.73 1283.17 1462.73 Q1288.96 1462.73 1292.34 1465.9 Q1295.72 1469.08 1295.72 1474.49 Q1295.72 1480.07 1292.25 1483.17 Q1288.78 1486.25 1282.46 1486.25 Q1280.28 1486.25 1278.01 1485.88 Q1275.77 1485.51 1273.36 1484.77 L1273.36 1480.07 Q1275.44 1481.2 1277.67 1481.76 Q1279.89 1482.32 1282.36 1482.32 Q1286.37 1482.32 1288.71 1480.21 Q1291.04 1478.1 1291.04 1474.49 Q1291.04 1470.88 1288.71 1468.77 Q1286.37 1466.67 1282.36 1466.67 Q1280.49 1466.67 1278.61 1467.08 Q1276.76 1467.5 1274.82 1468.38 L1274.82 1451.02 Z" fill="#000000" fill-rule="nonzero" fill-opacity="1" /><path clip-path="url(#clip610)" d="M1304.93 1479.7 L1309.82 1479.7 L1309.82 1485.58 L1304.93 1485.58 L1304.93 1479.7 Z" fill="#000000" fill-rule="nonzero" fill-opacity="1" /><path clip-path="url(#clip610)" d="M1330 1454.1 Q1326.39 1454.1 1324.56 1457.66 Q1322.76 1461.2 1322.76 1468.33 Q1322.76 1475.44 1324.56 1479.01 Q1326.39 1482.55 1330 1482.55 Q1333.64 1482.55 1335.44 1479.01 Q1337.27 1475.44 1337.27 1468.33 Q1337.27 1461.2 1335.44 1457.66 Q1333.64 1454.1 1330 1454.1 M1330 1450.39 Q1335.81 1450.39 1338.87 1455 Q1341.95 1459.58 1341.95 1468.33 Q1341.95 1477.06 1338.87 1481.67 Q1335.81 1486.25 1330 1486.25 Q1324.19 1486.25 1321.11 1481.67 Q1318.06 1477.06 1318.06 1468.33 Q1318.06 1459.58 1321.11 1455 Q1324.19 1450.39 1330 1450.39 Z" fill="#000000" fill-rule="nonzero" fill-opacity="1" /><path clip-path="url(#clip610)" d="M1766.95 1451.02 L1789.17 1451.02 L1789.17 1453.01 L1776.62 1485.58 L1771.74 1485.58 L1783.54 1454.96 L1766.95 1454.96 L1766.95 1451.02 Z" fill="#000000" fill-rule="nonzero" fill-opacity="1" /><path clip-path="url(#clip610)" d="M1798.29 1479.7 L1803.17 1479.7 L1803.17 1485.58 L1798.29 1485.58 L1798.29 1479.7 Z" fill="#000000" fill-rule="nonzero" fill-opacity="1" /><path clip-path="url(#clip610)" d="M1813.4 1451.02 L1831.76 1451.02 L1831.76 1454.96 L1817.69 1454.96 L1817.69 1463.43 Q1818.7 1463.08 1819.72 1462.92 Q1820.74 1462.73 1821.76 1462.73 Q1827.55 1462.73 1830.93 1465.9 Q1834.31 1469.08 1834.31 1474.49 Q1834.31 1480.07 1830.83 1483.17 Q1827.36 1486.25 1821.04 1486.25 Q1818.87 1486.25 1816.6 1485.88 Q1814.35 1485.51 1811.95 1484.77 L1811.95 1480.07 Q1814.03 1481.2 1816.25 1481.76 Q1818.47 1482.32 1820.95 1482.32 Q1824.95 1482.32 1827.29 1480.21 Q1829.63 1478.1 1829.63 1474.49 Q1829.63 1470.88 1827.29 1468.77 Q1824.95 1466.67 1820.95 1466.67 Q1819.08 1466.67 1817.2 1467.08 Q1815.35 1467.5 1813.4 1468.38 L1813.4 1451.02 Z" fill="#000000" fill-rule="nonzero" fill-opacity="1" /><path clip-path="url(#clip610)" d="M2245.67 1481.64 L2253.31 1481.64 L2253.31 1455.28 L2245 1456.95 L2245 1452.69 L2253.26 1451.02 L2257.94 1451.02 L2257.94 1481.64 L2265.58 1481.64 L2265.58 1485.58 L2245.67 1485.58 L2245.67 1481.64 Z" fill="#000000" fill-rule="nonzero" fill-opacity="1" /><path clip-path="url(#clip610)" d="M2285.02 1454.1 Q2281.41 1454.1 2279.58 1457.66 Q2277.78 1461.2 2277.78 1468.33 Q2277.78 1475.44 2279.58 1479.01 Q2281.41 1482.55 2285.02 1482.55 Q2288.66 1482.55 2290.46 1479.01 Q2292.29 1475.44 2292.29 1468.33 Q2292.29 1461.2 2290.46 1457.66 Q2288.66 1454.1 2285.02 1454.1 M2285.02 1450.39 Q2290.83 1450.39 2293.89 1455 Q2296.97 1459.58 2296.97 1468.33 Q2296.97 1477.06 2293.89 1481.67 Q2290.83 1486.25 2285.02 1486.25 Q2279.21 1486.25 2276.13 1481.67 Q2273.08 1477.06 2273.08 1468.33 Q2273.08 1459.58 2276.13 1455 Q2279.21 1450.39 2285.02 1450.39 Z" fill="#000000" fill-rule="nonzero" fill-opacity="1" /><path clip-path="url(#clip610)" d="M2305.18 1479.7 L2310.07 1479.7 L2310.07 1485.58 L2305.18 1485.58 L2305.18 1479.7 Z" fill="#000000" fill-rule="nonzero" fill-opacity="1" /><path clip-path="url(#clip610)" d="M2330.25 1454.1 Q2326.64 1454.1 2324.81 1457.66 Q2323.01 1461.2 2323.01 1468.33 Q2323.01 1475.44 2324.81 1479.01 Q2326.64 1482.55 2330.25 1482.55 Q2333.89 1482.55 2335.69 1479.01 Q2337.52 1475.44 2337.52 1468.33 Q2337.52 1461.2 2335.69 1457.66 Q2333.89 1454.1 2330.25 1454.1 M2330.25 1450.39 Q2336.06 1450.39 2339.12 1455 Q2342.2 1459.58 2342.2 1468.33 Q2342.2 1477.06 2339.12 1481.67 Q2336.06 1486.25 2330.25 1486.25 Q2324.44 1486.25 2321.37 1481.67 Q2318.31 1477.06 2318.31 1468.33 Q2318.31 1459.58 2321.37 1455 Q2324.44 1450.39 2330.25 1450.39 Z" fill="#000000" fill-rule="nonzero" fill-opacity="1" /><path clip-path="url(#clip610)" d="M1175.8 1532.4 L1181.66 1532.4 L1181.66 1568.04 L1175.8 1568.04 L1175.8 1532.4 M1175.8 1518.52 L1181.66 1518.52 L1181.66 1525.93 L1175.8 1525.93 L1175.8 1518.52 Z" fill="#000000" fill-rule="nonzero" fill-opacity="1" /><path clip-path="url(#clip610)" d="M1199.71 1522.27 L1199.71 1532.4 L1211.77 1532.4 L1211.77 1536.95 L1199.71 1536.95 L1199.71 1556.3 Q1199.71 1560.66 1200.88 1561.9 Q1202.09 1563.14 1205.75 1563.14 L1211.77 1563.14 L1211.77 1568.04 L1205.75 1568.04 Q1198.98 1568.04 1196.4 1565.53 Q1193.82 1562.98 1193.82 1556.3 L1193.82 1536.95 L1189.52 1536.95 L1189.52 1532.4 L1193.82 1532.4 L1193.82 1522.27 L1199.71 1522.27 Z" fill="#000000" fill-rule="nonzero" fill-opacity="1" /><path clip-path="url(#clip610)" d="M1249.96 1548.76 L1249.96 1551.62 L1223.04 1551.62 Q1223.42 1557.67 1226.67 1560.85 Q1229.94 1564 1235.77 1564 Q1239.14 1564 1242.29 1563.17 Q1245.48 1562.35 1248.6 1560.69 L1248.6 1566.23 Q1245.44 1567.57 1242.13 1568.27 Q1238.82 1568.97 1235.42 1568.97 Q1226.89 1568.97 1221.89 1564 Q1216.93 1559.04 1216.93 1550.57 Q1216.93 1541.82 1221.64 1536.69 Q1226.38 1531.54 1234.4 1531.54 Q1241.59 1531.54 1245.76 1536.18 Q1249.96 1540.8 1249.96 1548.76 M1244.11 1547.04 Q1244.04 1542.23 1241.4 1539.37 Q1238.79 1536.5 1234.46 1536.5 Q1229.56 1536.5 1226.6 1539.27 Q1223.67 1542.04 1223.23 1547.07 L1244.11 1547.04 Z" fill="#000000" fill-rule="nonzero" fill-opacity="1" /><path clip-path="url(#clip610)" d="M1280.23 1537.87 Q1279.25 1537.3 1278.07 1537.04 Q1276.92 1536.76 1275.52 1536.76 Q1270.56 1536.76 1267.88 1540 Q1265.24 1543.22 1265.24 1549.27 L1265.24 1568.04 L1259.35 1568.04 L1259.35 1532.4 L1265.24 1532.4 L1265.24 1537.93 Q1267.09 1534.69 1270.05 1533.13 Q1273.01 1531.54 1277.24 1531.54 Q1277.85 1531.54 1278.58 1531.63 Q1279.31 1531.7 1280.2 1531.85 L1280.23 1537.87 Z" fill="#000000" fill-rule="nonzero" fill-opacity="1" /><path clip-path="url(#clip610)" d="M1302.58 1550.12 Q1295.48 1550.12 1292.74 1551.75 Q1290 1553.37 1290 1557.29 Q1290 1560.4 1292.04 1562.25 Q1294.11 1564.07 1297.64 1564.07 Q1302.51 1564.07 1305.44 1560.63 Q1308.4 1557.16 1308.4 1551.43 L1308.4 1550.12 L1302.58 1550.12 M1314.26 1547.71 L1314.26 1568.04 L1308.4 1568.04 L1308.4 1562.63 Q1306.4 1565.88 1303.4 1567.44 Q1300.41 1568.97 1296.08 1568.97 Q1290.61 1568.97 1287.36 1565.91 Q1284.15 1562.82 1284.15 1557.67 Q1284.15 1551.65 1288.16 1548.6 Q1292.2 1545.54 1300.19 1545.54 L1308.4 1545.54 L1308.4 1544.97 Q1308.4 1540.93 1305.73 1538.73 Q1303.09 1536.5 1298.28 1536.5 Q1295.22 1536.5 1292.33 1537.23 Q1289.43 1537.97 1286.76 1539.43 L1286.76 1534.02 Q1289.97 1532.78 1293 1532.17 Q1296.02 1531.54 1298.88 1531.54 Q1306.62 1531.54 1310.44 1535.55 Q1314.26 1539.56 1314.26 1547.71 Z" fill="#000000" fill-rule="nonzero" fill-opacity="1" /><path clip-path="url(#clip610)" d="M1332.11 1522.27 L1332.11 1532.4 L1344.18 1532.4 L1344.18 1536.95 L1332.11 1536.95 L1332.11 1556.3 Q1332.11 1560.66 1333.29 1561.9 Q1334.5 1563.14 1338.16 1563.14 L1344.18 1563.14 L1344.18 1568.04 L1338.16 1568.04 Q1331.38 1568.04 1328.8 1565.53 Q1326.23 1562.98 1326.23 1556.3 L1326.23 1536.95 L1321.93 1536.95 L1321.93 1532.4 L1326.23 1532.4 L1326.23 1522.27 L1332.11 1522.27 Z" fill="#000000" fill-rule="nonzero" fill-opacity="1" /><path clip-path="url(#clip610)" d="M1351.88 1532.4 L1357.74 1532.4 L1357.74 1568.04 L1351.88 1568.04 L1351.88 1532.4 M1351.88 1518.52 L1357.74 1518.52 L1357.74 1525.93 L1351.88 1525.93 L1351.88 1518.52 Z" fill="#000000" fill-rule="nonzero" fill-opacity="1" /><path clip-path="url(#clip610)" d="M1383.8 1536.5 Q1379.09 1536.5 1376.36 1540.19 Q1373.62 1543.85 1373.62 1550.25 Q1373.62 1556.65 1376.32 1560.34 Q1379.06 1564 1383.8 1564 Q1388.48 1564 1391.22 1560.31 Q1393.96 1556.62 1393.96 1550.25 Q1393.96 1543.92 1391.22 1540.23 Q1388.48 1536.5 1383.8 1536.5 M1383.8 1531.54 Q1391.44 1531.54 1395.8 1536.5 Q1400.16 1541.47 1400.16 1550.25 Q1400.16 1559 1395.8 1564 Q1391.44 1568.97 1383.8 1568.97 Q1376.13 1568.97 1371.77 1564 Q1367.44 1559 1367.44 1550.25 Q1367.44 1541.47 1371.77 1536.5 Q1376.13 1531.54 1383.8 1531.54 Z" fill="#000000" fill-rule="nonzero" fill-opacity="1" /><path clip-path="url(#clip610)" d="M1439.5 1546.53 L1439.5 1568.04 L1433.65 1568.04 L1433.65 1546.72 Q1433.65 1541.66 1431.67 1539.14 Q1429.7 1536.63 1425.75 1536.63 Q1421.01 1536.63 1418.27 1539.65 Q1415.54 1542.68 1415.54 1547.9 L1415.54 1568.04 L1409.65 1568.04 L1409.65 1532.4 L1415.54 1532.4 L1415.54 1537.93 Q1417.64 1534.72 1420.47 1533.13 Q1423.33 1531.54 1427.06 1531.54 Q1433.2 1531.54 1436.35 1535.36 Q1439.5 1539.14 1439.5 1546.53 Z" fill="#000000" fill-rule="nonzero" fill-opacity="1" /><polyline clip-path="url(#clip610)" style="stroke:#000000; stroke-linecap:round; stroke-linejoin:round; stroke-width:4; stroke-opacity:1; fill:none" points="262.551,1423.18 262.551,47.2441 "/>
<polyline clip-path="url(#clip610)" style="stroke:#000000; stroke-linecap:round; stroke-linejoin:round; stroke-width:4; stroke-opacity:1; fill:none" points="262.551,1316.88 281.449,1316.88 "/>
<polyline clip-path="url(#clip610)" style="stroke:#000000; stroke-linecap:round; stroke-linejoin:round; stroke-width:4; stroke-opacity:1; fill:none" points="262.551,1038.67 281.449,1038.67 "/>
<polyline clip-path="url(#clip610)" style="stroke:#000000; stroke-linecap:round; stroke-linejoin:round; stroke-width:4; stroke-opacity:1; fill:none" points="262.551,760.464 281.449,760.464 "/>
<polyline clip-path="url(#clip610)" style="stroke:#000000; stroke-linecap:round; stroke-linejoin:round; stroke-width:4; stroke-opacity:1; fill:none" points="262.551,482.254 281.449,482.254 "/>
<polyline clip-path="url(#clip610)" style="stroke:#000000; stroke-linecap:round; stroke-linejoin:round; stroke-width:4; stroke-opacity:1; fill:none" points="262.551,204.045 281.449,204.045 "/>
<path clip-path="url(#clip610)" d="M144.329 1299.6 L162.686 1299.6 L162.686 1303.54 L148.612 1303.54 L148.612 1312.01 Q149.63 1311.66 150.649 1311.5 Q151.667 1311.31 152.686 1311.31 Q158.473 1311.31 161.852 1314.49 Q165.232 1317.66 165.232 1323.07 Q165.232 1328.65 161.76 1331.75 Q158.288 1334.83 151.968 1334.83 Q149.792 1334.83 147.524 1334.46 Q145.279 1334.09 142.871 1333.35 L142.871 1328.65 Q144.954 1329.79 147.177 1330.34 Q149.399 1330.9 151.876 1330.9 Q155.88 1330.9 158.218 1328.79 Q160.556 1326.69 160.556 1323.07 Q160.556 1319.46 158.218 1317.36 Q155.88 1315.25 151.876 1315.25 Q150.001 1315.25 148.126 1315.67 Q146.274 1316.08 144.329 1316.96 L144.329 1299.6 Z" fill="#000000" fill-rule="nonzero" fill-opacity="1" /><path clip-path="url(#clip610)" d="M184.445 1302.68 Q180.834 1302.68 179.005 1306.25 Q177.2 1309.79 177.2 1316.92 Q177.2 1324.02 179.005 1327.59 Q180.834 1331.13 184.445 1331.13 Q188.079 1331.13 189.885 1327.59 Q191.713 1324.02 191.713 1316.92 Q191.713 1309.79 189.885 1306.25 Q188.079 1302.68 184.445 1302.68 M184.445 1298.98 Q190.255 1298.98 193.311 1303.58 Q196.389 1308.17 196.389 1316.92 Q196.389 1325.64 193.311 1330.25 Q190.255 1334.83 184.445 1334.83 Q178.635 1334.83 175.556 1330.25 Q172.501 1325.64 172.501 1316.92 Q172.501 1308.17 175.556 1303.58 Q178.635 1298.98 184.445 1298.98 Z" fill="#000000" fill-rule="nonzero" fill-opacity="1" /><path clip-path="url(#clip610)" d="M214.607 1302.68 Q210.996 1302.68 209.167 1306.25 Q207.362 1309.79 207.362 1316.92 Q207.362 1324.02 209.167 1327.59 Q210.996 1331.13 214.607 1331.13 Q218.241 1331.13 220.047 1327.59 Q221.875 1324.02 221.875 1316.92 Q221.875 1309.79 220.047 1306.25 Q218.241 1302.68 214.607 1302.68 M214.607 1298.98 Q220.417 1298.98 223.473 1303.58 Q226.551 1308.17 226.551 1316.92 Q226.551 1325.64 223.473 1330.25 Q220.417 1334.83 214.607 1334.83 Q208.797 1334.83 205.718 1330.25 Q202.662 1325.64 202.662 1316.92 Q202.662 1308.17 205.718 1303.58 Q208.797 1298.98 214.607 1298.98 Z" fill="#000000" fill-rule="nonzero" fill-opacity="1" /><path clip-path="url(#clip610)" d="M143.103 1021.39 L165.325 1021.39 L165.325 1023.38 L152.778 1055.95 L147.894 1055.95 L159.7 1025.33 L143.103 1025.33 L143.103 1021.39 Z" fill="#000000" fill-rule="nonzero" fill-opacity="1" /><path clip-path="url(#clip610)" d="M174.491 1021.39 L192.848 1021.39 L192.848 1025.33 L178.774 1025.33 L178.774 1033.8 Q179.792 1033.45 180.811 1033.29 Q181.829 1033.11 182.848 1033.11 Q188.635 1033.11 192.014 1036.28 Q195.394 1039.45 195.394 1044.86 Q195.394 1050.44 191.922 1053.55 Q188.45 1056.62 182.13 1056.62 Q179.954 1056.62 177.686 1056.25 Q175.44 1055.88 173.033 1055.14 L173.033 1050.44 Q175.116 1051.58 177.339 1052.13 Q179.561 1052.69 182.038 1052.69 Q186.042 1052.69 188.38 1050.58 Q190.718 1048.48 190.718 1044.86 Q190.718 1041.25 188.38 1039.15 Q186.042 1037.04 182.038 1037.04 Q180.163 1037.04 178.288 1037.46 Q176.436 1037.87 174.491 1038.75 L174.491 1021.39 Z" fill="#000000" fill-rule="nonzero" fill-opacity="1" /><path clip-path="url(#clip610)" d="M214.607 1024.47 Q210.996 1024.47 209.167 1028.04 Q207.362 1031.58 207.362 1038.71 Q207.362 1045.81 209.167 1049.38 Q210.996 1052.92 214.607 1052.92 Q218.241 1052.92 220.047 1049.38 Q221.875 1045.81 221.875 1038.71 Q221.875 1031.58 220.047 1028.04 Q218.241 1024.47 214.607 1024.47 M214.607 1020.77 Q220.417 1020.77 223.473 1025.37 Q226.551 1029.96 226.551 1038.71 Q226.551 1047.43 223.473 1052.04 Q220.417 1056.62 214.607 1056.62 Q208.797 1056.62 205.718 1052.04 Q202.662 1047.43 202.662 1038.71 Q202.662 1029.96 205.718 1025.37 Q208.797 1020.77 214.607 1020.77 Z" fill="#000000" fill-rule="nonzero" fill-opacity="1" /><path clip-path="url(#clip610)" d="M114.931 773.808 L122.57 773.808 L122.57 747.443 L114.26 749.109 L114.26 744.85 L122.524 743.184 L127.2 743.184 L127.2 773.808 L134.839 773.808 L134.839 777.744 L114.931 777.744 L114.931 773.808 Z" fill="#000000" fill-rule="nonzero" fill-opacity="1" /><path clip-path="url(#clip610)" d="M154.283 746.262 Q150.672 746.262 148.843 749.827 Q147.038 753.369 147.038 760.498 Q147.038 767.605 148.843 771.17 Q150.672 774.711 154.283 774.711 Q157.917 774.711 159.723 771.17 Q161.552 767.605 161.552 760.498 Q161.552 753.369 159.723 749.827 Q157.917 746.262 154.283 746.262 M154.283 742.559 Q160.093 742.559 163.149 747.165 Q166.227 751.748 166.227 760.498 Q166.227 769.225 163.149 773.832 Q160.093 778.415 154.283 778.415 Q148.473 778.415 145.394 773.832 Q142.339 769.225 142.339 760.498 Q142.339 751.748 145.394 747.165 Q148.473 742.559 154.283 742.559 Z" fill="#000000" fill-rule="nonzero" fill-opacity="1" /><path clip-path="url(#clip610)" d="M184.445 746.262 Q180.834 746.262 179.005 749.827 Q177.2 753.369 177.2 760.498 Q177.2 767.605 179.005 771.17 Q180.834 774.711 184.445 774.711 Q188.079 774.711 189.885 771.17 Q191.713 767.605 191.713 760.498 Q191.713 753.369 189.885 749.827 Q188.079 746.262 184.445 746.262 M184.445 742.559 Q190.255 742.559 193.311 747.165 Q196.389 751.748 196.389 760.498 Q196.389 769.225 193.311 773.832 Q190.255 778.415 184.445 778.415 Q178.635 778.415 175.556 773.832 Q172.501 769.225 172.501 760.498 Q172.501 751.748 175.556 747.165 Q178.635 742.559 184.445 742.559 Z" fill="#000000" fill-rule="nonzero" fill-opacity="1" /><path clip-path="url(#clip610)" d="M214.607 746.262 Q210.996 746.262 209.167 749.827 Q207.362 753.369 207.362 760.498 Q207.362 767.605 209.167 771.17 Q210.996 774.711 214.607 774.711 Q218.241 774.711 220.047 771.17 Q221.875 767.605 221.875 760.498 Q221.875 753.369 220.047 749.827 Q218.241 746.262 214.607 746.262 M214.607 742.559 Q220.417 742.559 223.473 747.165 Q226.551 751.748 226.551 760.498 Q226.551 769.225 223.473 773.832 Q220.417 778.415 214.607 778.415 Q208.797 778.415 205.718 773.832 Q202.662 769.225 202.662 760.498 Q202.662 751.748 205.718 747.165 Q208.797 742.559 214.607 742.559 Z" fill="#000000" fill-rule="nonzero" fill-opacity="1" /><path clip-path="url(#clip610)" d="M114.931 495.599 L122.57 495.599 L122.57 469.234 L114.26 470.9 L114.26 466.641 L122.524 464.974 L127.2 464.974 L127.2 495.599 L134.839 495.599 L134.839 499.534 L114.931 499.534 L114.931 495.599 Z" fill="#000000" fill-rule="nonzero" fill-opacity="1" /><path clip-path="url(#clip610)" d="M148.311 495.599 L164.63 495.599 L164.63 499.534 L142.686 499.534 L142.686 495.599 Q145.348 492.845 149.931 488.215 Q154.538 483.562 155.718 482.22 Q157.964 479.697 158.843 477.96 Q159.746 476.201 159.746 474.511 Q159.746 471.757 157.802 470.021 Q155.88 468.285 152.778 468.285 Q150.579 468.285 148.126 469.048 Q145.695 469.812 142.917 471.363 L142.917 466.641 Q145.741 465.507 148.195 464.928 Q150.649 464.349 152.686 464.349 Q158.056 464.349 161.251 467.035 Q164.445 469.72 164.445 474.211 Q164.445 476.34 163.635 478.261 Q162.848 480.16 160.741 482.752 Q160.163 483.423 157.061 486.641 Q153.959 489.835 148.311 495.599 Z" fill="#000000" fill-rule="nonzero" fill-opacity="1" /><path clip-path="url(#clip610)" d="M174.491 464.974 L192.848 464.974 L192.848 468.91 L178.774 468.91 L178.774 477.382 Q179.792 477.035 180.811 476.873 Q181.829 476.687 182.848 476.687 Q188.635 476.687 192.014 479.859 Q195.394 483.03 195.394 488.447 Q195.394 494.025 191.922 497.127 Q188.45 500.206 182.13 500.206 Q179.954 500.206 177.686 499.835 Q175.44 499.465 173.033 498.724 L173.033 494.025 Q175.116 495.159 177.339 495.715 Q179.561 496.271 182.038 496.271 Q186.042 496.271 188.38 494.164 Q190.718 492.058 190.718 488.447 Q190.718 484.835 188.38 482.729 Q186.042 480.623 182.038 480.623 Q180.163 480.623 178.288 481.039 Q176.436 481.456 174.491 482.335 L174.491 464.974 Z" fill="#000000" fill-rule="nonzero" fill-opacity="1" /><path clip-path="url(#clip610)" d="M214.607 468.053 Q210.996 468.053 209.167 471.618 Q207.362 475.16 207.362 482.289 Q207.362 489.396 209.167 492.96 Q210.996 496.502 214.607 496.502 Q218.241 496.502 220.047 492.96 Q221.875 489.396 221.875 482.289 Q221.875 475.16 220.047 471.618 Q218.241 468.053 214.607 468.053 M214.607 464.349 Q220.417 464.349 223.473 468.956 Q226.551 473.539 226.551 482.289 Q226.551 491.016 223.473 495.622 Q220.417 500.206 214.607 500.206 Q208.797 500.206 205.718 495.622 Q202.662 491.016 202.662 482.289 Q202.662 473.539 205.718 468.956 Q208.797 464.349 214.607 464.349 Z" fill="#000000" fill-rule="nonzero" fill-opacity="1" /><path clip-path="url(#clip610)" d="M114.931 217.39 L122.57 217.39 L122.57 191.025 L114.26 192.691 L114.26 188.432 L122.524 186.765 L127.2 186.765 L127.2 217.39 L134.839 217.39 L134.839 221.325 L114.931 221.325 L114.931 217.39 Z" fill="#000000" fill-rule="nonzero" fill-opacity="1" /><path clip-path="url(#clip610)" d="M144.329 186.765 L162.686 186.765 L162.686 190.7 L148.612 190.7 L148.612 199.173 Q149.63 198.825 150.649 198.663 Q151.667 198.478 152.686 198.478 Q158.473 198.478 161.852 201.649 Q165.232 204.821 165.232 210.237 Q165.232 215.816 161.76 218.918 Q158.288 221.997 151.968 221.997 Q149.792 221.997 147.524 221.626 Q145.279 221.256 142.871 220.515 L142.871 215.816 Q144.954 216.95 147.177 217.506 Q149.399 218.061 151.876 218.061 Q155.88 218.061 158.218 215.955 Q160.556 213.848 160.556 210.237 Q160.556 206.626 158.218 204.52 Q155.88 202.413 151.876 202.413 Q150.001 202.413 148.126 202.83 Q146.274 203.247 144.329 204.126 L144.329 186.765 Z" fill="#000000" fill-rule="nonzero" fill-opacity="1" /><path clip-path="url(#clip610)" d="M184.445 189.844 Q180.834 189.844 179.005 193.409 Q177.2 196.95 177.2 204.08 Q177.2 211.186 179.005 214.751 Q180.834 218.293 184.445 218.293 Q188.079 218.293 189.885 214.751 Q191.713 211.186 191.713 204.08 Q191.713 196.95 189.885 193.409 Q188.079 189.844 184.445 189.844 M184.445 186.14 Q190.255 186.14 193.311 190.747 Q196.389 195.33 196.389 204.08 Q196.389 212.807 193.311 217.413 Q190.255 221.997 184.445 221.997 Q178.635 221.997 175.556 217.413 Q172.501 212.807 172.501 204.08 Q172.501 195.33 175.556 190.747 Q178.635 186.14 184.445 186.14 Z" fill="#000000" fill-rule="nonzero" fill-opacity="1" /><path clip-path="url(#clip610)" d="M214.607 189.844 Q210.996 189.844 209.167 193.409 Q207.362 196.95 207.362 204.08 Q207.362 211.186 209.167 214.751 Q210.996 218.293 214.607 218.293 Q218.241 218.293 220.047 214.751 Q221.875 211.186 221.875 204.08 Q221.875 196.95 220.047 193.409 Q218.241 189.844 214.607 189.844 M214.607 186.14 Q220.417 186.14 223.473 190.747 Q226.551 195.33 226.551 204.08 Q226.551 212.807 223.473 217.413 Q220.417 221.997 214.607 221.997 Q208.797 221.997 205.718 217.413 Q202.662 212.807 202.662 204.08 Q202.662 195.33 205.718 190.747 Q208.797 186.14 214.607 186.14 Z" fill="#000000" fill-rule="nonzero" fill-opacity="1" /><path clip-path="url(#clip610)" d="M29.7248 772.053 L35.1993 772.053 Q33.8307 774.536 33.1623 777.051 Q32.4621 779.533 32.4621 782.079 Q32.4621 787.777 36.0905 790.928 Q39.6872 794.079 46.212 794.079 Q52.7369 794.079 56.3653 790.928 Q59.9619 787.777 59.9619 782.079 Q59.9619 779.533 59.2935 777.051 Q58.5933 774.536 57.2247 772.053 L62.6355 772.053 Q63.7814 774.504 64.3543 777.146 Q64.9272 779.756 64.9272 782.716 Q64.9272 790.769 59.8664 795.511 Q54.8057 800.254 46.212 800.254 Q37.491 800.254 32.4939 795.479 Q27.4968 790.673 27.4968 782.334 Q27.4968 779.629 28.0697 777.051 Q28.6108 774.472 29.7248 772.053 Z" fill="#000000" fill-rule="nonzero" fill-opacity="1" /><path clip-path="url(#clip610)" d="M32.4621 748.055 Q32.4621 752.765 36.1542 755.503 Q39.8145 758.24 46.212 758.24 Q52.6095 758.24 56.3017 755.534 Q59.9619 752.797 59.9619 748.055 Q59.9619 743.376 56.2698 740.639 Q52.5777 737.901 46.212 737.901 Q39.8781 737.901 36.186 740.639 Q32.4621 743.376 32.4621 748.055 M27.4968 748.055 Q27.4968 740.416 32.4621 736.055 Q37.4273 731.695 46.212 731.695 Q54.9649 731.695 59.9619 736.055 Q64.9272 740.416 64.9272 748.055 Q64.9272 755.725 59.9619 760.086 Q54.9649 764.415 46.212 764.415 Q37.4273 764.415 32.4621 760.086 Q27.4968 755.725 27.4968 748.055 Z" fill="#000000" fill-rule="nonzero" fill-opacity="1" /><path clip-path="url(#clip610)" d="M29.4065 699.262 L34.9447 699.262 Q33.6716 701.744 33.035 704.418 Q32.3984 707.091 32.3984 709.956 Q32.3984 714.317 33.7352 716.513 Q35.072 718.677 37.7456 718.677 Q39.7826 718.677 40.9603 717.117 Q42.1061 715.558 43.1565 710.847 L43.6021 708.842 Q44.9389 702.604 47.3897 699.994 Q49.8086 697.352 54.1691 697.352 Q59.1344 697.352 62.0308 701.299 Q64.9272 705.214 64.9272 712.089 Q64.9272 714.953 64.3543 718.072 Q63.8132 721.16 62.6992 724.597 L56.6518 724.597 Q58.3387 721.351 59.198 718.2 Q60.0256 715.049 60.0256 711.961 Q60.0256 707.824 58.6251 705.596 Q57.1929 703.368 54.6147 703.368 Q52.2276 703.368 50.9545 704.991 Q49.6813 706.582 48.5037 712.025 L48.0262 714.062 Q46.8804 719.505 44.5251 721.924 Q42.138 724.343 38.0002 724.343 Q32.9713 724.343 30.2341 720.778 Q27.4968 717.213 27.4968 710.656 Q27.4968 707.41 27.9743 704.545 Q28.4517 701.681 29.4065 699.262 Z" fill="#000000" fill-rule="nonzero" fill-opacity="1" /><path clip-path="url(#clip610)" d="M18.2347 682.233 L28.3562 682.233 L28.3562 670.17 L32.9077 670.17 L32.9077 682.233 L52.2594 682.233 Q56.6199 682.233 57.8613 681.056 Q59.1026 679.846 59.1026 676.186 L59.1026 670.17 L64.0042 670.17 L64.0042 676.186 Q64.0042 682.965 61.4897 685.544 Q58.9434 688.122 52.2594 688.122 L32.9077 688.122 L32.9077 692.419 L28.3562 692.419 L28.3562 688.122 L18.2347 688.122 L18.2347 682.233 Z" fill="#000000" fill-rule="nonzero" fill-opacity="1" /><polyline clip-path="url(#clip611)" style="stroke:#009af9; stroke-linecap:round; stroke-linejoin:round; stroke-width:4; stroke-opacity:1; fill:none" points="321.708,86.1857 518.897,741.707 716.086,942.173 913.275,1031.44 1110.46,1083.66 1307.65,1120.2 1504.84,1148.6 1702.03,1172.03 1899.22,1192.05 2096.41,1209.51 2293.6,1224.93 "/>
<circle clip-path="url(#clip611)" cx="321.708" cy="86.1857" r="14.4" fill="#009af9" fill-rule="evenodd" fill-opacity="1" stroke="none"/>
<circle clip-path="url(#clip611)" cx="518.897" cy="741.707" r="14.4" fill="#009af9" fill-rule="evenodd" fill-opacity="1" stroke="none"/>
<circle clip-path="url(#clip611)" cx="716.086" cy="942.173" r="14.4" fill="#009af9" fill-rule="evenodd" fill-opacity="1" stroke="none"/>
<circle clip-path="url(#clip611)" cx="913.275" cy="1031.44" r="14.4" fill="#009af9" fill-rule="evenodd" fill-opacity="1" stroke="none"/>
<circle clip-path="url(#clip611)" cx="1110.46" cy="1083.66" r="14.4" fill="#009af9" fill-rule="evenodd" fill-opacity="1" stroke="none"/>
<circle clip-path="url(#clip611)" cx="1307.65" cy="1120.2" r="14.4" fill="#009af9" fill-rule="evenodd" fill-opacity="1" stroke="none"/>
<circle clip-path="url(#clip611)" cx="1504.84" cy="1148.6" r="14.4" fill="#009af9" fill-rule="evenodd" fill-opacity="1" stroke="none"/>
<circle clip-path="url(#clip611)" cx="1702.03" cy="1172.03" r="14.4" fill="#009af9" fill-rule="evenodd" fill-opacity="1" stroke="none"/>
<circle clip-path="url(#clip611)" cx="1899.22" cy="1192.05" r="14.4" fill="#009af9" fill-rule="evenodd" fill-opacity="1" stroke="none"/>
<circle clip-path="url(#clip611)" cx="2096.41" cy="1209.51" r="14.4" fill="#009af9" fill-rule="evenodd" fill-opacity="1" stroke="none"/>
<circle clip-path="url(#clip611)" cx="2293.6" cy="1224.93" r="14.4" fill="#009af9" fill-rule="evenodd" fill-opacity="1" stroke="none"/>
<polyline clip-path="url(#clip611)" style="stroke:#e26f46; stroke-linecap:round; stroke-linejoin:round; stroke-width:4; stroke-opacity:1; fill:none" points="321.708,86.1857 518.897,741.707 716.086,981.582 913.275,1083.75 1110.46,1144.37 1307.65,1190.62 1504.84,1228.56 1702.03,1259.8 1899.22,1286.32 2096.41,1309.36 2293.6,1328.34 "/>
<path clip-path="url(#clip611)" d="M305.708 70.1857 L305.708 102.186 L337.708 102.186 L337.708 70.1857 L305.708 70.1857 Z" fill="#e26f46" fill-rule="evenodd" fill-opacity="1" stroke="none"/>
<path clip-path="url(#clip611)" d="M502.897 725.707 L502.897 757.707 L534.897 757.707 L534.897 725.707 L502.897 725.707 Z" fill="#e26f46" fill-rule="evenodd" fill-opacity="1" stroke="none"/>
<path clip-path="url(#clip611)" d="M700.086 965.582 L700.086 997.582 L732.086 997.582 L732.086 965.582 L700.086 965.582 Z" fill="#e26f46" fill-rule="evenodd" fill-opacity="1" stroke="none"/>
<path clip-path="url(#clip611)" d="M897.275 1067.75 L897.275 1099.75 L929.275 1099.75 L929.275 1067.75 L897.275 1067.75 Z" fill="#e26f46" fill-rule="evenodd" fill-opacity="1" stroke="none"/>
<path clip-path="url(#clip611)" d="M1094.46 1128.37 L1094.46 1160.37 L1126.46 1160.37 L1126.46 1128.37 L1094.46 1128.37 Z" fill="#e26f46" fill-rule="evenodd" fill-opacity="1" stroke="none"/>
<path clip-path="url(#clip611)" d="M1291.65 1174.62 L1291.65 1206.62 L1323.65 1206.62 L1323.65 1174.62 L1291.65 1174.62 Z" fill="#e26f46" fill-rule="evenodd" fill-opacity="1" stroke="none"/>
<path clip-path="url(#clip611)" d="M1488.84 1212.56 L1488.84 1244.56 L1520.84 1244.56 L1520.84 1212.56 L1488.84 1212.56 Z" fill="#e26f46" fill-rule="evenodd" fill-opacity="1" stroke="none"/>
<path clip-path="url(#clip611)" d="M1686.03 1243.8 L1686.03 1275.8 L1718.03 1275.8 L1718.03 1243.8 L1686.03 1243.8 Z" fill="#e26f46" fill-rule="evenodd" fill-opacity="1" stroke="none"/>
<path clip-path="url(#clip611)" d="M1883.22 1270.32 L1883.22 1302.32 L1915.22 1302.32 L1915.22 1270.32 L1883.22 1270.32 Z" fill="#e26f46" fill-rule="evenodd" fill-opacity="1" stroke="none"/>
<path clip-path="url(#clip611)" d="M2080.41 1293.36 L2080.41 1325.36 L2112.41 1325.36 L2112.41 1293.36 L2080.41 1293.36 Z" fill="#e26f46" fill-rule="evenodd" fill-opacity="1" stroke="none"/>
<path clip-path="url(#clip611)" d="M2277.6 1312.34 L2277.6 1344.34 L2309.6 1344.34 L2309.6 1312.34 L2277.6 1312.34 Z" fill="#e26f46" fill-rule="evenodd" fill-opacity="1" stroke="none"/>
<polyline clip-path="url(#clip611)" style="stroke:#3da44d; stroke-linecap:round; stroke-linejoin:round; stroke-width:4; stroke-opacity:1; fill:none" points="321.708,86.1857 518.897,927.958 716.086,1085.71 913.275,1166.16 1110.46,1226.8 1307.65,1273.38 1504.84,1309.16 1702.03,1336.93 1899.22,1358.25 2096.41,1374.43 2293.6,1384.24 "/>
<path clip-path="url(#clip611)" d="M321.708 70.1857 L317.948 81.0017 L306.492 81.2417 L315.628 88.1697 L312.3 99.1297 L321.708 92.5857 L331.116 99.1297 L327.788 88.1697 L336.924 81.2417 L325.468 81.0017 L321.708 70.1857 Z" fill="#3da44d" fill-rule="evenodd" fill-opacity="1" stroke="none"/>
<path clip-path="url(#clip611)" d="M518.897 911.958 L515.137 922.774 L503.681 923.014 L512.817 929.942 L509.489 940.902 L518.897 934.358 L528.305 940.902 L524.977 929.942 L534.113 923.014 L522.657 922.774 L518.897 911.958 Z" fill="#3da44d" fill-rule="evenodd" fill-opacity="1" stroke="none"/>
<path clip-path="url(#clip611)" d="M716.086 1069.71 L712.326 1080.53 L700.87 1080.77 L710.006 1087.7 L706.678 1098.66 L716.086 1092.11 L725.494 1098.66 L722.166 1087.7 L731.302 1080.77 L719.846 1080.53 L716.086 1069.71 Z" fill="#3da44d" fill-rule="evenodd" fill-opacity="1" stroke="none"/>
<path clip-path="url(#clip611)" d="M913.275 1150.16 L909.515 1160.98 L898.059 1161.22 L907.195 1168.15 L903.867 1179.11 L913.275 1172.56 L922.683 1179.11 L919.355 1168.15 L928.491 1161.22 L917.035 1160.98 L913.275 1150.16 Z" fill="#3da44d" fill-rule="evenodd" fill-opacity="1" stroke="none"/>
<path clip-path="url(#clip611)" d="M1110.46 1210.8 L1106.7 1221.62 L1095.25 1221.86 L1104.38 1228.78 L1101.06 1239.74 L1110.46 1233.2 L1119.87 1239.74 L1116.54 1228.78 L1125.68 1221.86 L1114.22 1221.62 L1110.46 1210.8 Z" fill="#3da44d" fill-rule="evenodd" fill-opacity="1" stroke="none"/>
<path clip-path="url(#clip611)" d="M1307.65 1257.38 L1303.89 1268.2 L1292.44 1268.44 L1301.57 1275.37 L1298.25 1286.33 L1307.65 1279.78 L1317.06 1286.33 L1313.73 1275.37 L1322.87 1268.44 L1311.41 1268.2 L1307.65 1257.38 Z" fill="#3da44d" fill-rule="evenodd" fill-opacity="1" stroke="none"/>
<path clip-path="url(#clip611)" d="M1504.84 1293.16 L1501.08 1303.98 L1489.63 1304.22 L1498.76 1311.14 L1495.43 1322.1 L1504.84 1315.56 L1514.25 1322.1 L1510.92 1311.14 L1520.06 1304.22 L1508.6 1303.98 L1504.84 1293.16 Z" fill="#3da44d" fill-rule="evenodd" fill-opacity="1" stroke="none"/>
<path clip-path="url(#clip611)" d="M1702.03 1320.93 L1698.27 1331.75 L1686.82 1331.99 L1695.95 1338.92 L1692.62 1349.88 L1702.03 1343.33 L1711.44 1349.88 L1708.11 1338.92 L1717.25 1331.99 L1705.79 1331.75 L1702.03 1320.93 Z" fill="#3da44d" fill-rule="evenodd" fill-opacity="1" stroke="none"/>
<path clip-path="url(#clip611)" d="M1899.22 1342.25 L1895.46 1353.07 L1884 1353.31 L1893.14 1360.23 L1889.81 1371.19 L1899.22 1364.65 L1908.63 1371.19 L1905.3 1360.23 L1914.44 1353.31 L1902.98 1353.07 L1899.22 1342.25 Z" fill="#3da44d" fill-rule="evenodd" fill-opacity="1" stroke="none"/>
<path clip-path="url(#clip611)" d="M2096.41 1358.43 L2092.65 1369.25 L2081.19 1369.49 L2090.33 1376.42 L2087 1387.38 L2096.41 1380.83 L2105.82 1387.38 L2102.49 1376.42 L2111.63 1369.49 L2100.17 1369.25 L2096.41 1358.43 Z" fill="#3da44d" fill-rule="evenodd" fill-opacity="1" stroke="none"/>
<path clip-path="url(#clip611)" d="M2293.6 1368.24 L2289.84 1379.05 L2278.38 1379.29 L2287.52 1386.22 L2284.19 1397.18 L2293.6 1390.64 L2303.01 1397.18 L2299.68 1386.22 L2308.82 1379.29 L2297.36 1379.05 L2293.6 1368.24 Z" fill="#3da44d" fill-rule="evenodd" fill-opacity="1" stroke="none"/>
<path clip-path="url(#clip610)" d="M1768.18 300.469 L2283.08 300.469 L2283.08 93.1086 L1768.18 93.1086  Z" fill="#ffffff" fill-rule="evenodd" fill-opacity="1"/>
<polyline clip-path="url(#clip610)" style="stroke:#000000; stroke-linecap:round; stroke-linejoin:round; stroke-width:4; stroke-opacity:1; fill:none" points="1768.18,300.469 2283.08,300.469 2283.08,93.1086 1768.18,93.1086 1768.18,300.469 "/>
<polyline clip-path="url(#clip610)" style="stroke:#009af9; stroke-linecap:round; stroke-linejoin:round; stroke-width:4; stroke-opacity:1; fill:none" points="1791.41,144.949 1930.76,144.949 "/>
<circle clip-path="url(#clip610)" cx="1861.08" cy="144.949" r="19.3537" fill="#009af9" fill-rule="evenodd" fill-opacity="1" stroke="none"/>
<path clip-path="url(#clip610)" d="M1958.66 131.511 L1958.66 144.497 L1964.54 144.497 Q1967.8 144.497 1969.58 142.807 Q1971.36 141.118 1971.36 137.993 Q1971.36 134.891 1969.58 133.201 Q1967.8 131.511 1964.54 131.511 L1958.66 131.511 M1953.98 127.669 L1964.54 127.669 Q1970.35 127.669 1973.31 130.307 Q1976.29 132.923 1976.29 137.993 Q1976.29 143.108 1973.31 145.724 Q1970.35 148.34 1964.54 148.34 L1958.66 148.34 L1958.66 162.229 L1953.98 162.229 L1953.98 127.669 Z" fill="#000000" fill-rule="nonzero" fill-opacity="1" /><path clip-path="url(#clip610)" d="M2006.13 157.298 L2006.13 148.016 L1998.49 148.016 L1998.49 144.173 L2010.76 144.173 L2010.76 159.011 Q2008.05 160.932 2004.79 161.928 Q2001.53 162.9 1997.82 162.9 Q1989.72 162.9 1985.14 158.178 Q1980.58 153.432 1980.58 144.983 Q1980.58 136.511 1985.14 131.789 Q1989.72 127.044 1997.82 127.044 Q2001.2 127.044 2004.23 127.877 Q2007.29 128.71 2009.86 130.331 L2009.86 135.307 Q2007.27 133.108 2004.35 131.997 Q2001.43 130.886 1998.22 130.886 Q1991.87 130.886 1988.68 134.428 Q1985.51 137.969 1985.51 144.983 Q1985.51 151.974 1988.68 155.516 Q1991.87 159.057 1998.22 159.057 Q2000.69 159.057 2002.64 158.641 Q2004.58 158.201 2006.13 157.298 Z" fill="#000000" fill-rule="nonzero" fill-opacity="1" /><path clip-path="url(#clip610)" d="M2019.3 127.669 L2026.27 127.669 L2035.09 151.187 L2043.96 127.669 L2050.92 127.669 L2050.92 162.229 L2046.36 162.229 L2046.36 131.882 L2037.45 155.585 L2032.75 155.585 L2023.84 131.882 L2023.84 162.229 L2019.3 162.229 L2019.3 127.669 Z" fill="#000000" fill-rule="nonzero" fill-opacity="1" /><path clip-path="url(#clip610)" d="M2085.32 126.257 Q2082.22 131.581 2080.72 136.789 Q2079.21 141.997 2079.21 147.344 Q2079.21 152.692 2080.72 157.946 Q2082.24 163.178 2085.32 168.479 L2081.62 168.479 Q2078.15 163.039 2076.41 157.784 Q2074.7 152.53 2074.7 147.344 Q2074.7 142.182 2076.41 136.951 Q2078.12 131.72 2081.62 126.257 L2085.32 126.257 Z" fill="#000000" fill-rule="nonzero" fill-opacity="1" /><path clip-path="url(#clip610)" d="M2093.77 127.669 L2098.45 127.669 L2098.45 162.229 L2093.77 162.229 L2093.77 127.669 Z" fill="#000000" fill-rule="nonzero" fill-opacity="1" /><path clip-path="url(#clip610)" d="M2128.47 128.803 L2128.47 133.363 Q2125.81 132.09 2123.45 131.465 Q2121.09 130.84 2118.89 130.84 Q2115.07 130.84 2112.98 132.321 Q2110.92 133.803 2110.92 136.534 Q2110.92 138.826 2112.29 140.007 Q2113.68 141.164 2117.52 141.882 L2120.34 142.46 Q2125.58 143.456 2128.05 145.979 Q2130.55 148.479 2130.55 152.692 Q2130.55 157.715 2127.17 160.307 Q2123.82 162.9 2117.31 162.9 Q2114.86 162.9 2112.08 162.344 Q2109.33 161.789 2106.36 160.701 L2106.36 155.886 Q2109.21 157.483 2111.94 158.293 Q2114.67 159.104 2117.31 159.104 Q2121.32 159.104 2123.49 157.53 Q2125.67 155.956 2125.67 153.039 Q2125.67 150.493 2124.09 149.057 Q2122.54 147.622 2118.98 146.905 L2116.13 146.349 Q2110.9 145.307 2108.56 143.085 Q2106.22 140.863 2106.22 136.905 Q2106.22 132.321 2109.44 129.682 Q2112.68 127.044 2118.35 127.044 Q2120.78 127.044 2123.31 127.483 Q2125.83 127.923 2128.47 128.803 Z" fill="#000000" fill-rule="nonzero" fill-opacity="1" /><path clip-path="url(#clip610)" d="M2133.05 127.669 L2162.29 127.669 L2162.29 131.604 L2150.02 131.604 L2150.02 162.229 L2145.32 162.229 L2145.32 131.604 L2133.05 131.604 L2133.05 127.669 Z" fill="#000000" fill-rule="nonzero" fill-opacity="1" /><path clip-path="url(#clip610)" d="M2174.67 132.275 L2168.33 149.474 L2181.04 149.474 L2174.67 132.275 M2172.03 127.669 L2177.34 127.669 L2190.51 162.229 L2185.65 162.229 L2182.5 153.363 L2166.92 153.363 L2163.77 162.229 L2158.84 162.229 L2172.03 127.669 Z" fill="#000000" fill-rule="nonzero" fill-opacity="1" /><path clip-path="url(#clip610)" d="M2194.7 126.257 L2198.4 126.257 Q2201.87 131.72 2203.59 136.951 Q2205.32 142.182 2205.32 147.344 Q2205.32 152.53 2203.59 157.784 Q2201.87 163.039 2198.4 168.479 L2194.7 168.479 Q2197.77 163.178 2199.28 157.946 Q2200.81 152.692 2200.81 147.344 Q2200.81 141.997 2199.28 136.789 Q2197.77 131.581 2194.7 126.257 Z" fill="#000000" fill-rule="nonzero" fill-opacity="1" /><polyline clip-path="url(#clip610)" style="stroke:#e26f46; stroke-linecap:round; stroke-linejoin:round; stroke-width:4; stroke-opacity:1; fill:none" points="1791.41,196.789 1930.76,196.789 "/>
<path clip-path="url(#clip610)" d="M1839.58 175.284 L1839.58 218.293 L1882.59 218.293 L1882.59 175.284 L1839.58 175.284 Z" fill="#e26f46" fill-rule="evenodd" fill-opacity="1" stroke="none"/>
<path clip-path="url(#clip610)" d="M1953.98 179.509 L1973.84 179.509 L1973.84 183.444 L1958.66 183.444 L1958.66 193.629 L1972.36 193.629 L1972.36 197.564 L1958.66 197.564 L1958.66 214.069 L1953.98 214.069 L1953.98 179.509 Z" fill="#000000" fill-rule="nonzero" fill-opacity="1" /><path clip-path="url(#clip610)" d="M1985.92 183.351 L1985.92 196.337 L1991.8 196.337 Q1995.07 196.337 1996.85 194.647 Q1998.63 192.958 1998.63 189.833 Q1998.63 186.731 1996.85 185.041 Q1995.07 183.351 1991.8 183.351 L1985.92 183.351 M1981.25 179.509 L1991.8 179.509 Q1997.61 179.509 2000.58 182.147 Q2003.56 184.763 2003.56 189.833 Q2003.56 194.948 2000.58 197.564 Q1997.61 200.18 1991.8 200.18 L1985.92 200.18 L1985.92 214.069 L1981.25 214.069 L1981.25 179.509 Z" fill="#000000" fill-rule="nonzero" fill-opacity="1" /><path clip-path="url(#clip610)" d="M2033.4 209.138 L2033.4 199.856 L2025.76 199.856 L2025.76 196.013 L2038.03 196.013 L2038.03 210.851 Q2035.32 212.772 2032.06 213.768 Q2028.79 214.74 2025.09 214.74 Q2016.99 214.74 2012.41 210.018 Q2007.85 205.272 2007.85 196.823 Q2007.85 188.351 2012.41 183.629 Q2016.99 178.884 2025.09 178.884 Q2028.47 178.884 2031.5 179.717 Q2034.56 180.55 2037.13 182.171 L2037.13 187.147 Q2034.54 184.948 2031.62 183.837 Q2028.7 182.726 2025.48 182.726 Q2019.14 182.726 2015.95 186.268 Q2012.78 189.809 2012.78 196.823 Q2012.78 203.814 2015.95 207.356 Q2019.14 210.897 2025.48 210.897 Q2027.96 210.897 2029.91 210.481 Q2031.85 210.041 2033.4 209.138 Z" fill="#000000" fill-rule="nonzero" fill-opacity="1" /><path clip-path="url(#clip610)" d="M2046.57 179.509 L2053.54 179.509 L2062.36 203.027 L2071.22 179.509 L2078.19 179.509 L2078.19 214.069 L2073.63 214.069 L2073.63 183.722 L2064.72 207.425 L2060.02 207.425 L2051.11 183.722 L2051.11 214.069 L2046.57 214.069 L2046.57 179.509 Z" fill="#000000" fill-rule="nonzero" fill-opacity="1" /><path clip-path="url(#clip610)" d="M2112.59 178.097 Q2109.49 183.421 2107.98 188.629 Q2106.48 193.837 2106.48 199.184 Q2106.48 204.532 2107.98 209.786 Q2109.51 215.018 2112.59 220.319 L2108.89 220.319 Q2105.41 214.879 2103.68 209.624 Q2101.97 204.37 2101.97 199.184 Q2101.97 194.022 2103.68 188.791 Q2105.39 183.56 2108.89 178.097 L2112.59 178.097 Z" fill="#000000" fill-rule="nonzero" fill-opacity="1" /><path clip-path="url(#clip610)" d="M2121.04 179.509 L2140.9 179.509 L2140.9 183.444 L2125.72 183.444 L2125.72 193.629 L2139.42 193.629 L2139.42 197.564 L2125.72 197.564 L2125.72 214.069 L2121.04 214.069 L2121.04 179.509 Z" fill="#000000" fill-rule="nonzero" fill-opacity="1" /><path clip-path="url(#clip610)" d="M2148.31 179.509 L2152.98 179.509 L2152.98 214.069 L2148.31 214.069 L2148.31 179.509 Z" fill="#000000" fill-rule="nonzero" fill-opacity="1" /><path clip-path="url(#clip610)" d="M2183.01 180.643 L2183.01 185.203 Q2180.34 183.93 2177.98 183.305 Q2175.62 182.68 2173.42 182.68 Q2169.6 182.68 2167.52 184.161 Q2165.46 185.643 2165.46 188.374 Q2165.46 190.666 2166.83 191.847 Q2168.21 193.004 2172.06 193.722 L2174.88 194.3 Q2180.11 195.296 2182.59 197.819 Q2185.09 200.319 2185.09 204.532 Q2185.09 209.555 2181.71 212.147 Q2178.35 214.74 2171.85 214.74 Q2169.4 214.74 2166.62 214.184 Q2163.86 213.629 2160.9 212.541 L2160.9 207.726 Q2163.75 209.323 2166.48 210.133 Q2169.21 210.944 2171.85 210.944 Q2175.85 210.944 2178.03 209.37 Q2180.21 207.796 2180.21 204.879 Q2180.21 202.333 2178.63 200.897 Q2177.08 199.462 2173.52 198.745 L2170.67 198.189 Q2165.44 197.147 2163.1 194.925 Q2160.76 192.703 2160.76 188.745 Q2160.76 184.161 2163.98 181.522 Q2167.22 178.884 2172.89 178.884 Q2175.32 178.884 2177.84 179.323 Q2180.37 179.763 2183.01 180.643 Z" fill="#000000" fill-rule="nonzero" fill-opacity="1" /><path clip-path="url(#clip610)" d="M2187.59 179.509 L2216.83 179.509 L2216.83 183.444 L2204.56 183.444 L2204.56 214.069 L2199.86 214.069 L2199.86 183.444 L2187.59 183.444 L2187.59 179.509 Z" fill="#000000" fill-rule="nonzero" fill-opacity="1" /><path clip-path="url(#clip610)" d="M2229.21 184.115 L2222.87 201.314 L2235.58 201.314 L2229.21 184.115 M2226.57 179.509 L2231.87 179.509 L2245.04 214.069 L2240.18 214.069 L2237.03 205.203 L2221.46 205.203 L2218.31 214.069 L2213.38 214.069 L2226.57 179.509 Z" fill="#000000" fill-rule="nonzero" fill-opacity="1" /><path clip-path="url(#clip610)" d="M2249.23 178.097 L2252.94 178.097 Q2256.41 183.56 2258.12 188.791 Q2259.86 194.022 2259.86 199.184 Q2259.86 204.37 2258.12 209.624 Q2256.41 214.879 2252.94 220.319 L2249.23 220.319 Q2252.31 215.018 2253.82 209.786 Q2255.34 204.532 2255.34 199.184 Q2255.34 193.837 2253.82 188.629 Q2252.31 183.421 2249.23 178.097 Z" fill="#000000" fill-rule="nonzero" fill-opacity="1" /><polyline clip-path="url(#clip610)" style="stroke:#3da44d; stroke-linecap:round; stroke-linejoin:round; stroke-width:4; stroke-opacity:1; fill:none" points="1791.41,248.629 1930.76,248.629 "/>
<path clip-path="url(#clip610)" d="M1861.08 227.124 L1856.03 241.661 L1840.63 241.984 L1852.91 251.295 L1848.44 266.025 L1861.08 257.23 L1873.73 266.025 L1869.25 251.295 L1881.53 241.984 L1866.14 241.661 L1861.08 227.124 Z" fill="#3da44d" fill-rule="evenodd" fill-opacity="1" stroke="none"/>
<path clip-path="url(#clip610)" d="M1958.66 235.191 L1958.66 248.177 L1964.54 248.177 Q1967.8 248.177 1969.58 246.487 Q1971.36 244.798 1971.36 241.673 Q1971.36 238.571 1969.58 236.881 Q1967.8 235.191 1964.54 235.191 L1958.66 235.191 M1953.98 231.349 L1964.54 231.349 Q1970.35 231.349 1973.31 233.987 Q1976.29 236.603 1976.29 241.673 Q1976.29 246.788 1973.31 249.404 Q1970.35 252.02 1964.54 252.02 L1958.66 252.02 L1958.66 265.909 L1953.98 265.909 L1953.98 231.349 Z" fill="#000000" fill-rule="nonzero" fill-opacity="1" /><path clip-path="url(#clip610)" d="M1996.6 234.52 Q1991.5 234.52 1988.49 238.316 Q1985.51 242.112 1985.51 248.663 Q1985.51 255.191 1988.49 258.987 Q1991.5 262.784 1996.6 262.784 Q2001.69 262.784 2004.65 258.987 Q2007.64 255.191 2007.64 248.663 Q2007.64 242.112 2004.65 238.316 Q2001.69 234.52 1996.6 234.52 M1996.6 230.724 Q2003.86 230.724 2008.22 235.608 Q2012.57 240.469 2012.57 248.663 Q2012.57 256.835 2008.22 261.719 Q2003.86 266.58 1996.6 266.58 Q1989.3 266.58 1984.93 261.719 Q1980.58 256.858 1980.58 248.663 Q1980.58 240.469 1984.93 235.608 Q1989.3 230.724 1996.6 230.724 Z" fill="#000000" fill-rule="nonzero" fill-opacity="1" /><path clip-path="url(#clip610)" d="M2043.45 260.978 L2043.45 251.696 L2035.81 251.696 L2035.81 247.853 L2048.08 247.853 L2048.08 262.691 Q2045.37 264.612 2042.1 265.608 Q2038.84 266.58 2035.14 266.58 Q2027.04 266.58 2022.45 261.858 Q2017.89 257.112 2017.89 248.663 Q2017.89 240.191 2022.45 235.469 Q2027.04 230.724 2035.14 230.724 Q2038.52 230.724 2041.55 231.557 Q2044.6 232.39 2047.17 234.011 L2047.17 238.987 Q2044.58 236.788 2041.66 235.677 Q2038.75 234.566 2035.53 234.566 Q2029.19 234.566 2025.99 238.108 Q2022.82 241.649 2022.82 248.663 Q2022.82 255.654 2025.99 259.196 Q2029.19 262.737 2035.53 262.737 Q2038.01 262.737 2039.95 262.321 Q2041.9 261.881 2043.45 260.978 Z" fill="#000000" fill-rule="nonzero" fill-opacity="1" /><path clip-path="url(#clip610)" d="M2056.62 231.349 L2063.59 231.349 L2072.41 254.867 L2081.27 231.349 L2088.24 231.349 L2088.24 265.909 L2083.68 265.909 L2083.68 235.562 L2074.77 259.265 L2070.07 259.265 L2061.16 235.562 L2061.16 265.909 L2056.62 265.909 L2056.62 231.349 Z" fill="#000000" fill-rule="nonzero" fill-opacity="1" /></svg>
