<?xml version="1.0" encoding="utf-8"?>
<svg xmlns="http://www.w3.org/2000/svg" xmlns:xlink="http://www.w3.org/1999/xlink" width="600" height="400" viewBox="0 0 2400 1600">
<defs>
  <clipPath id="clip640">
    <rect x="0" y="0" width="2400" height="1600"/>
  </clipPath>
</defs>
<path clip-path="url(#clip640)" d="M0 1600 L2400 1600 L2400 0 L0 0  Z" fill="#ffffff" fill-rule="evenodd" fill-opacity="1"/>
<defs>
  <clipPath id="clip641">
    <rect x="219" y="47" width="2134" height="1377"/>
  </clipPath>
</defs>
<path clip-path="url(#clip640)" d="M219.866 1423.18 L2352.76 1423.18 L2352.76 47.2441 L219.866 47.2441  Z" fill="#ffffff" fill-rule="evenodd" fill-opacity="1"/>
<polyline clip-path="url(#clip641)" style="stroke:#000000; stroke-linecap:round; stroke-linejoin:round; stroke-width:2; stroke-opacity:0.1; fill:none" points="280.231,1423.18 280.231,47.2441 "/>
<polyline clip-path="url(#clip641)" style="stroke:#000000; stroke-linecap:round; stroke-linejoin:round; stroke-width:2; stroke-opacity:0.1; fill:none" points="783.271,1423.18 783.271,47.2441 "/>
<polyline clip-path="url(#clip641)" style="stroke:#000000; stroke-linecap:round; stroke-linejoin:round; stroke-width:2; stroke-opacity:0.1; fill:none" points="1286.31,1423.18 1286.31,47.2441 "/>
<polyline clip-path="url(#clip641)" style="stroke:#000000; stroke-linecap:round; stroke-linejoin:round; stroke-width:2; stroke-opacity:0.1; fill:none" points="1789.35,1423.18 1789.35,47.2441 "/>
<polyline clip-path="url(#clip641)" style="stroke:#000000; stroke-linecap:round; stroke-linejoin:round; stroke-width:2; stroke-opacity:0.1; fill:none" points="2292.39,1423.18 2292.39,47.2441 "/>
<polyline clip-path="url(#clip641)" style="stroke:#000000; stroke-linecap:round; stroke-linejoin:round; stroke-width:2; stroke-opacity:0.1; fill:none" points="219.866,1301.15 2352.76,1301.15 "/>
<polyline clip-path="url(#clip641)" style="stroke:#000000; stroke-linecap:round; stroke-linejoin:round; stroke-width:2; stroke-opacity:0.1; fill:none" points="219.866,981.89 2352.76,981.89 "/>
<polyline clip-path="url(#clip641)" style="stroke:#000000; stroke-linecap:round; stroke-linejoin:round; stroke-width:2; stroke-opacity:0.1; fill:none" points="219.866,662.634 2352.76,662.634 "/>
<polyline clip-path="url(#clip641)" style="stroke:#000000; stroke-linecap:round; stroke-linejoin:round; stroke-width:2; stroke-opacity:0.1; fill:none" points="219.866,343.378 2352.76,343.378 "/>
<polyline clip-path="url(#clip640)" style="stroke:#000000; stroke-linecap:round; stroke-linejoin:round; stroke-width:4; stroke-opacity:1; fill:none" points="219.866,1423.18 2352.76,1423.18 "/>
<polyline clip-path="url(#clip640)" style="stroke:#000000; stroke-linecap:round; stroke-linejoin:round; stroke-width:4; stroke-opacity:1; fill:none" points="280.231,1423.18 280.231,1404.28 "/>
<polyline clip-path="url(#clip640)" style="stroke:#000000; stroke-linecap:round; stroke-linejoin:round; stroke-width:4; stroke-opacity:1; fill:none" points="783.271,1423.18 783.271,1404.28 "/>
<polyline clip-path="url(#clip640)" style="stroke:#000000; stroke-linecap:round; stroke-linejoin:round; stroke-width:4; stroke-opacity:1; fill:none" points="1286.31,1423.18 1286.31,1404.28 "/>
<polyline clip-path="url(#clip640)" style="stroke:#000000; stroke-linecap:round; stroke-linejoin:round; stroke-width:4; stroke-opacity:1; fill:none" points="1789.35,1423.18 1789.35,1404.28 "/>
<polyline clip-path="url(#clip640)" style="stroke:#000000; stroke-linecap:round; stroke-linejoin:round; stroke-width:4; stroke-opacity:1; fill:none" points="2292.39,1423.18 2292.39,1404.28 "/>
<path clip-path="url(#clip640)" d="M257.615 1454.1 Q254.004 1454.1 252.176 1457.66 Q250.37 1461.2 250.37 1468.33 Q250.37 1475.44 252.176 1479.01 Q254.004 1482.55 257.615 1482.55 Q261.25 1482.55 263.055 1479.01 Q264.884 1475.44 264.884 1468.33 Q264.884 1461.2 263.055 1457.66 Q261.25 1454.1 257.615 1454.1 M257.615 1450.39 Q263.426 1450.39 266.481 1455 Q269.56 1459.58 269.56 1468.33 Q269.56 1477.06 266.481 1481.67 Q263.426 1486.25 257.615 1486.25 Q251.805 1486.25 248.727 1481.67 Q245.671 1477.06 245.671 1468.33 Q245.671 1459.58 248.727 1455 Q251.805 1450.39 257.615 1450.39 Z" fill="#000000" fill-rule="nonzero" fill-opacity="1" /><path clip-path="url(#clip640)" d="M277.777 1479.7 L282.662 1479.7 L282.662 1485.58 L277.777 1485.58 L277.777 1479.7 Z" fill="#000000" fill-rule="nonzero" fill-opacity="1" /><path clip-path="url(#clip640)" d="M302.847 1454.1 Q299.236 1454.1 297.407 1457.66 Q295.601 1461.2 295.601 1468.33 Q295.601 1475.44 297.407 1479.01 Q299.236 1482.55 302.847 1482.55 Q306.481 1482.55 308.286 1479.01 Q310.115 1475.44 310.115 1468.33 Q310.115 1461.2 308.286 1457.66 Q306.481 1454.1 302.847 1454.1 M302.847 1450.39 Q308.657 1450.39 311.712 1455 Q314.791 1459.58 314.791 1468.33 Q314.791 1477.06 311.712 1481.67 Q308.657 1486.25 302.847 1486.25 Q297.037 1486.25 293.958 1481.67 Q290.902 1477.06 290.902 1468.33 Q290.902 1459.58 293.958 1455 Q297.037 1450.39 302.847 1450.39 Z" fill="#000000" fill-rule="nonzero" fill-opacity="1" /><path clip-path="url(#clip640)" d="M755.007 1481.64 L771.327 1481.64 L771.327 1485.58 L749.382 1485.58 L749.382 1481.64 Q752.044 1478.89 756.628 1474.26 Q761.234 1469.61 762.415 1468.27 Q764.66 1465.74 765.54 1464.01 Q766.442 1462.25 766.442 1460.56 Q766.442 1457.8 764.498 1456.07 Q762.577 1454.33 759.475 1454.33 Q757.276 1454.33 754.822 1455.09 Q752.392 1455.86 749.614 1457.41 L749.614 1452.69 Q752.438 1451.55 754.892 1450.97 Q757.345 1450.39 759.382 1450.39 Q764.753 1450.39 767.947 1453.08 Q771.142 1455.77 771.142 1460.26 Q771.142 1462.39 770.331 1464.31 Q769.544 1466.2 767.438 1468.8 Q766.859 1469.47 763.757 1472.69 Q760.655 1475.88 755.007 1481.64 Z" fill="#000000" fill-rule="nonzero" fill-opacity="1" /><path clip-path="url(#clip640)" d="M781.141 1479.7 L786.026 1479.7 L786.026 1485.58 L781.141 1485.58 L781.141 1479.7 Z" fill="#000000" fill-rule="nonzero" fill-opacity="1" /><path clip-path="url(#clip640)" d="M796.257 1451.02 L814.614 1451.02 L814.614 1454.96 L800.54 1454.96 L800.54 1463.43 Q801.558 1463.08 802.577 1462.92 Q803.595 1462.73 804.614 1462.73 Q810.401 1462.73 813.78 1465.9 Q817.16 1469.08 817.16 1474.49 Q817.16 1480.07 813.688 1483.17 Q810.215 1486.25 803.896 1486.25 Q801.72 1486.25 799.452 1485.88 Q797.206 1485.51 794.799 1484.77 L794.799 1480.07 Q796.882 1481.2 799.104 1481.76 Q801.327 1482.32 803.803 1482.32 Q807.808 1482.32 810.146 1480.21 Q812.484 1478.1 812.484 1474.49 Q812.484 1470.88 810.146 1468.77 Q807.808 1466.67 803.803 1466.67 Q801.928 1466.67 800.053 1467.08 Q798.202 1467.5 796.257 1468.38 L796.257 1451.02 Z" fill="#000000" fill-rule="nonzero" fill-opacity="1" /><path clip-path="url(#clip640)" d="M1253.48 1451.02 L1271.83 1451.02 L1271.83 1454.96 L1257.76 1454.96 L1257.76 1463.43 Q1258.78 1463.08 1259.8 1462.92 Q1260.81 1462.73 1261.83 1462.73 Q1267.62 1462.73 1271 1465.9 Q1274.38 1469.08 1274.38 1474.49 Q1274.38 1480.07 1270.91 1483.17 Q1267.43 1486.25 1261.11 1486.25 Q1258.94 1486.25 1256.67 1485.88 Q1254.42 1485.51 1252.02 1484.77 L1252.02 1480.07 Q1254.1 1481.2 1256.32 1481.76 Q1258.55 1482.32 1261.02 1482.32 Q1265.03 1482.32 1267.36 1480.21 Q1269.7 1478.1 1269.7 1474.49 Q1269.7 1470.88 1267.36 1468.77 Q1265.03 1466.67 1261.02 1466.67 Q1259.15 1466.67 1257.27 1467.08 Q1255.42 1467.5 1253.48 1468.38 L1253.48 1451.02 Z" fill="#000000" fill-rule="nonzero" fill-opacity="1" /><path clip-path="url(#clip640)" d="M1283.59 1479.7 L1288.48 1479.7 L1288.48 1485.58 L1283.59 1485.58 L1283.59 1479.7 Z" fill="#000000" fill-rule="nonzero" fill-opacity="1" /><path clip-path="url(#clip640)" d="M1308.66 1454.1 Q1305.05 1454.1 1303.22 1457.66 Q1301.42 1461.2 1301.42 1468.33 Q1301.42 1475.44 1303.22 1479.01 Q1305.05 1482.55 1308.66 1482.55 Q1312.29 1482.55 1314.1 1479.01 Q1315.93 1475.44 1315.93 1468.33 Q1315.93 1461.2 1314.1 1457.66 Q1312.29 1454.1 1308.66 1454.1 M1308.66 1450.39 Q1314.47 1450.39 1317.53 1455 Q1320.6 1459.58 1320.6 1468.33 Q1320.6 1477.06 1317.53 1481.67 Q1314.47 1486.25 1308.66 1486.25 Q1302.85 1486.25 1299.77 1481.67 Q1296.72 1477.06 1296.72 1468.33 Q1296.72 1459.58 1299.77 1455 Q1302.85 1450.39 1308.66 1450.39 Z" fill="#000000" fill-rule="nonzero" fill-opacity="1" /><path clip-path="url(#clip640)" d="M1755.67 1451.02 L1777.89 1451.02 L1777.89 1453.01 L1765.35 1485.58 L1760.46 1485.58 L1772.27 1454.96 L1755.67 1454.96 L1755.67 1451.02 Z" fill="#000000" fill-rule="nonzero" fill-opacity="1" /><path clip-path="url(#clip640)" d="M1787.01 1479.7 L1791.9 1479.7 L1791.9 1485.58 L1787.01 1485.58 L1787.01 1479.7 Z" fill="#000000" fill-rule="nonzero" fill-opacity="1" /><path clip-path="url(#clip640)" d="M1802.13 1451.02 L1820.49 1451.02 L1820.49 1454.96 L1806.41 1454.96 L1806.41 1463.43 Q1807.43 1463.08 1808.45 1462.92 Q1809.47 1462.73 1810.49 1462.73 Q1816.27 1462.73 1819.65 1465.9 Q1823.03 1469.08 1823.03 1474.49 Q1823.03 1480.07 1819.56 1483.17 Q1816.09 1486.25 1809.77 1486.25 Q1807.59 1486.25 1805.32 1485.88 Q1803.08 1485.51 1800.67 1484.77 L1800.67 1480.07 Q1802.75 1481.2 1804.98 1481.76 Q1807.2 1482.32 1809.68 1482.32 Q1813.68 1482.32 1816.02 1480.21 Q1818.36 1478.1 1818.36 1474.49 Q1818.36 1470.88 1816.02 1468.77 Q1813.68 1466.67 1809.68 1466.67 Q1807.8 1466.67 1805.93 1467.08 Q1804.07 1467.5 1802.13 1468.38 L1802.13 1451.02 Z" fill="#000000" fill-rule="nonzero" fill-opacity="1" /><path clip-path="url(#clip640)" d="M2244.46 1481.64 L2252.1 1481.64 L2252.1 1455.28 L2243.79 1456.95 L2243.79 1452.69 L2252.06 1451.02 L2256.73 1451.02 L2256.73 1481.64 L2264.37 1481.64 L2264.37 1485.58 L2244.46 1485.58 L2244.46 1481.64 Z" fill="#000000" fill-rule="nonzero" fill-opacity="1" /><path clip-path="url(#clip640)" d="M2283.81 1454.1 Q2280.2 1454.1 2278.37 1457.66 Q2276.57 1461.2 2276.57 1468.33 Q2276.57 1475.44 2278.37 1479.01 Q2280.2 1482.55 2283.81 1482.55 Q2287.45 1482.55 2289.25 1479.01 Q2291.08 1475.44 2291.08 1468.33 Q2291.08 1461.2 2289.25 1457.66 Q2287.45 1454.1 2283.81 1454.1 M2283.81 1450.39 Q2289.62 1450.39 2292.68 1455 Q2295.76 1459.58 2295.76 1468.33 Q2295.76 1477.06 2292.68 1481.67 Q2289.62 1486.25 2283.81 1486.25 Q2278 1486.25 2274.93 1481.67 Q2271.87 1477.06 2271.87 1468.33 Q2271.87 1459.58 2274.93 1455 Q2278 1450.39 2283.81 1450.39 Z" fill="#000000" fill-rule="nonzero" fill-opacity="1" /><path clip-path="url(#clip640)" d="M2303.98 1479.7 L2308.86 1479.7 L2308.86 1485.58 L2303.98 1485.58 L2303.98 1479.7 Z" fill="#000000" fill-rule="nonzero" fill-opacity="1" /><path clip-path="url(#clip640)" d="M2329.05 1454.1 Q2325.43 1454.1 2323.61 1457.66 Q2321.8 1461.2 2321.8 1468.33 Q2321.8 1475.44 2323.61 1479.01 Q2325.43 1482.55 2329.05 1482.55 Q2332.68 1482.55 2334.49 1479.01 Q2336.31 1475.44 2336.31 1468.33 Q2336.31 1461.2 2334.49 1457.66 Q2332.68 1454.1 2329.05 1454.1 M2329.05 1450.39 Q2334.86 1450.39 2337.91 1455 Q2340.99 1459.58 2340.99 1468.33 Q2340.99 1477.06 2337.91 1481.67 Q2334.86 1486.25 2329.05 1486.25 Q2323.24 1486.25 2320.16 1481.67 Q2317.1 1477.06 2317.1 1468.33 Q2317.1 1459.58 2320.16 1455 Q2323.24 1450.39 2329.05 1450.39 Z" fill="#000000" fill-rule="nonzero" fill-opacity="1" /><path clip-path="url(#clip640)" d="M1154.46 1532.4 L1160.32 1532.4 L1160.32 1568.04 L1154.46 1568.04 L1154.46 1532.4 M1154.46 1518.52 L1160.32 1518.52 L1160.32 1525.93 L1154.46 1525.93 L1154.46 1518.52 Z" fill="#000000" fill-rule="nonzero" fill-opacity="1" /><path clip-path="url(#clip640)" d="M1178.36 1522.27 L1178.36 1532.4 L1190.43 1532.4 L1190.43 1536.95 L1178.36 1536.95 L1178.36 1556.3 Q1178.36 1560.66 1179.54 1561.9 Q1180.75 1563.14 1184.41 1563.14 L1190.43 1563.14 L1190.43 1568.04 L1184.41 1568.04 Q1177.63 1568.04 1175.05 1565.53 Q1172.48 1562.98 1172.48 1556.3 L1172.48 1536.95 L1168.18 1536.95 L1168.18 1532.4 L1172.48 1532.4 L1172.48 1522.27 L1178.36 1522.27 Z" fill="#000000" fill-rule="nonzero" fill-opacity="1" /><path clip-path="url(#clip640)" d="M1228.62 1548.76 L1228.62 1551.62 L1201.69 1551.62 Q1202.08 1557.67 1205.32 1560.85 Q1208.6 1564 1214.43 1564 Q1217.8 1564 1220.95 1563.17 Q1224.13 1562.35 1227.25 1560.69 L1227.25 1566.23 Q1224.1 1567.57 1220.79 1568.27 Q1217.48 1568.97 1214.08 1568.97 Q1205.55 1568.97 1200.55 1564 Q1195.58 1559.04 1195.58 1550.57 Q1195.58 1541.82 1200.29 1536.69 Q1205.04 1531.54 1213.06 1531.54 Q1220.25 1531.54 1224.42 1536.18 Q1228.62 1540.8 1228.62 1548.76 M1222.77 1547.04 Q1222.7 1542.23 1220.06 1539.37 Q1217.45 1536.5 1213.12 1536.5 Q1208.22 1536.5 1205.26 1539.27 Q1202.33 1542.04 1201.89 1547.07 L1222.77 1547.04 Z" fill="#000000" fill-rule="nonzero" fill-opacity="1" /><path clip-path="url(#clip640)" d="M1258.89 1537.87 Q1257.9 1537.3 1256.73 1537.04 Q1255.58 1536.76 1254.18 1536.76 Q1249.21 1536.76 1246.54 1540 Q1243.9 1543.22 1243.9 1549.27 L1243.9 1568.04 L1238.01 1568.04 L1238.01 1532.4 L1243.9 1532.4 L1243.9 1537.93 Q1245.75 1534.69 1248.71 1533.13 Q1251.67 1531.54 1255.9 1531.54 Q1256.5 1531.54 1257.24 1531.63 Q1257.97 1531.7 1258.86 1531.85 L1258.89 1537.87 Z" fill="#000000" fill-rule="nonzero" fill-opacity="1" /><path clip-path="url(#clip640)" d="M1281.23 1550.12 Q1274.14 1550.12 1271.4 1551.75 Q1268.66 1553.37 1268.66 1557.29 Q1268.66 1560.4 1270.7 1562.25 Q1272.77 1564.07 1276.3 1564.07 Q1281.17 1564.07 1284.1 1560.63 Q1287.06 1557.16 1287.06 1551.43 L1287.06 1550.12 L1281.23 1550.12 M1292.92 1547.71 L1292.92 1568.04 L1287.06 1568.04 L1287.06 1562.63 Q1285.05 1565.88 1282.06 1567.44 Q1279.07 1568.97 1274.74 1568.97 Q1269.27 1568.97 1266.02 1565.91 Q1262.81 1562.82 1262.81 1557.67 Q1262.81 1551.65 1266.82 1548.6 Q1270.86 1545.54 1278.85 1545.54 L1287.06 1545.54 L1287.06 1544.97 Q1287.06 1540.93 1284.39 1538.73 Q1281.74 1536.5 1276.94 1536.5 Q1273.88 1536.5 1270.99 1537.23 Q1268.09 1537.97 1265.42 1539.43 L1265.42 1534.02 Q1268.63 1532.78 1271.65 1532.17 Q1274.68 1531.54 1277.54 1531.54 Q1285.28 1531.54 1289.1 1535.55 Q1292.92 1539.56 1292.92 1547.71 Z" fill="#000000" fill-rule="nonzero" fill-opacity="1" /><path clip-path="url(#clip640)" d="M1310.77 1522.27 L1310.77 1532.4 L1322.83 1532.4 L1322.83 1536.95 L1310.77 1536.95 L1310.77 1556.3 Q1310.77 1560.66 1311.95 1561.9 Q1313.16 1563.14 1316.82 1563.14 L1322.83 1563.14 L1322.83 1568.04 L1316.82 1568.04 Q1310.04 1568.04 1307.46 1565.53 Q1304.88 1562.98 1304.88 1556.3 L1304.88 1536.95 L1300.59 1536.95 L1300.59 1532.4 L1304.88 1532.4 L1304.88 1522.27 L1310.77 1522.27 Z" fill="#000000" fill-rule="nonzero" fill-opacity="1" /><path clip-path="url(#clip640)" d="M1330.54 1532.4 L1336.39 1532.4 L1336.39 1568.04 L1330.54 1568.04 L1330.54 1532.4 M1330.54 1518.52 L1336.39 1518.52 L1336.39 1525.93 L1330.54 1525.93 L1330.54 1518.52 Z" fill="#000000" fill-rule="nonzero" fill-opacity="1" /><path clip-path="url(#clip640)" d="M1362.46 1536.5 Q1357.75 1536.5 1355.01 1540.19 Q1352.28 1543.85 1352.28 1550.25 Q1352.28 1556.65 1354.98 1560.34 Q1357.72 1564 1362.46 1564 Q1367.14 1564 1369.88 1560.31 Q1372.61 1556.62 1372.61 1550.25 Q1372.61 1543.92 1369.88 1540.23 Q1367.14 1536.5 1362.46 1536.5 M1362.46 1531.54 Q1370.1 1531.54 1374.46 1536.5 Q1378.82 1541.47 1378.82 1550.25 Q1378.82 1559 1374.46 1564 Q1370.1 1568.97 1362.46 1568.97 Q1354.79 1568.97 1350.43 1564 Q1346.1 1559 1346.1 1550.25 Q1346.1 1541.47 1350.43 1536.5 Q1354.79 1531.54 1362.46 1531.54 Z" fill="#000000" fill-rule="nonzero" fill-opacity="1" /><path clip-path="url(#clip640)" d="M1418.16 1546.53 L1418.16 1568.04 L1412.3 1568.04 L1412.3 1546.72 Q1412.3 1541.66 1410.33 1539.14 Q1408.36 1536.63 1404.41 1536.63 Q1399.67 1536.63 1396.93 1539.65 Q1394.19 1542.68 1394.19 1547.9 L1394.19 1568.04 L1388.31 1568.04 L1388.31 1532.4 L1394.19 1532.4 L1394.19 1537.93 Q1396.29 1534.72 1399.13 1533.13 Q1401.99 1531.54 1405.72 1531.54 Q1411.86 1531.54 1415.01 1535.36 Q1418.16 1539.14 1418.16 1546.53 Z" fill="#000000" fill-rule="nonzero" fill-opacity="1" /><polyline clip-path="url(#clip640)" style="stroke:#000000; stroke-linecap:round; stroke-linejoin:round; stroke-width:4; stroke-opacity:1; fill:none" points="219.866,1423.18 219.866,47.2441 "/>
<polyline clip-path="url(#clip640)" style="stroke:#000000; stroke-linecap:round; stroke-linejoin:round; stroke-width:4; stroke-opacity:1; fill:none" points="219.866,1301.15 238.764,1301.15 "/>
<polyline clip-path="url(#clip640)" style="stroke:#000000; stroke-linecap:round; stroke-linejoin:round; stroke-width:4; stroke-opacity:1; fill:none" points="219.866,981.89 238.764,981.89 "/>
<polyline clip-path="url(#clip640)" style="stroke:#000000; stroke-linecap:round; stroke-linejoin:round; stroke-width:4; stroke-opacity:1; fill:none" points="219.866,662.634 238.764,662.634 "/>
<polyline clip-path="url(#clip640)" style="stroke:#000000; stroke-linecap:round; stroke-linejoin:round; stroke-width:4; stroke-opacity:1; fill:none" points="219.866,343.378 238.764,343.378 "/>
<path clip-path="url(#clip640)" d="M128.288 1286.94 Q124.677 1286.94 122.848 1290.51 Q121.043 1294.05 121.043 1301.18 Q121.043 1308.29 122.848 1311.85 Q124.677 1315.39 128.288 1315.39 Q131.922 1315.39 133.728 1311.85 Q135.556 1308.29 135.556 1301.18 Q135.556 1294.05 133.728 1290.51 Q131.922 1286.94 128.288 1286.94 M128.288 1283.24 Q134.098 1283.24 137.154 1287.85 Q140.232 1292.43 140.232 1301.18 Q140.232 1309.91 137.154 1314.51 Q134.098 1319.1 128.288 1319.1 Q122.478 1319.1 119.399 1314.51 Q116.343 1309.91 116.343 1301.18 Q116.343 1292.43 119.399 1287.85 Q122.478 1283.24 128.288 1283.24 Z" fill="#000000" fill-rule="nonzero" fill-opacity="1" /><path clip-path="url(#clip640)" d="M148.45 1312.55 L153.334 1312.55 L153.334 1318.43 L148.45 1318.43 L148.45 1312.55 Z" fill="#000000" fill-rule="nonzero" fill-opacity="1" /><path clip-path="url(#clip640)" d="M167.547 1314.49 L183.866 1314.49 L183.866 1318.43 L161.922 1318.43 L161.922 1314.49 Q164.584 1311.74 169.167 1307.11 Q173.774 1302.45 174.954 1301.11 Q177.2 1298.59 178.079 1296.85 Q178.982 1295.09 178.982 1293.4 Q178.982 1290.65 177.038 1288.91 Q175.116 1287.18 172.014 1287.18 Q169.815 1287.18 167.362 1287.94 Q164.931 1288.7 162.153 1290.25 L162.153 1285.53 Q164.977 1284.4 167.431 1283.82 Q169.885 1283.24 171.922 1283.24 Q177.292 1283.24 180.487 1285.93 Q183.681 1288.61 183.681 1293.1 Q183.681 1295.23 182.871 1297.15 Q182.084 1299.05 179.977 1301.64 Q179.399 1302.31 176.297 1305.53 Q173.195 1308.73 167.547 1314.49 Z" fill="#000000" fill-rule="nonzero" fill-opacity="1" /><path clip-path="url(#clip640)" d="M127.339 967.689 Q123.728 967.689 121.899 971.253 Q120.093 974.795 120.093 981.925 Q120.093 989.031 121.899 992.596 Q123.728 996.137 127.339 996.137 Q130.973 996.137 132.779 992.596 Q134.607 989.031 134.607 981.925 Q134.607 974.795 132.779 971.253 Q130.973 967.689 127.339 967.689 M127.339 963.985 Q133.149 963.985 136.204 968.591 Q139.283 973.175 139.283 981.925 Q139.283 990.651 136.204 995.258 Q133.149 999.841 127.339 999.841 Q121.529 999.841 118.45 995.258 Q115.394 990.651 115.394 981.925 Q115.394 973.175 118.45 968.591 Q121.529 963.985 127.339 963.985 Z" fill="#000000" fill-rule="nonzero" fill-opacity="1" /><path clip-path="url(#clip640)" d="M147.501 993.29 L152.385 993.29 L152.385 999.17 L147.501 999.17 L147.501 993.29 Z" fill="#000000" fill-rule="nonzero" fill-opacity="1" /><path clip-path="url(#clip640)" d="M176.737 980.536 Q180.093 981.253 181.968 983.522 Q183.866 985.79 183.866 989.124 Q183.866 994.239 180.348 997.04 Q176.829 999.841 170.348 999.841 Q168.172 999.841 165.857 999.401 Q163.565 998.985 161.112 998.128 L161.112 993.614 Q163.056 994.749 165.371 995.327 Q167.686 995.906 170.209 995.906 Q174.607 995.906 176.899 994.17 Q179.214 992.434 179.214 989.124 Q179.214 986.068 177.061 984.355 Q174.931 982.619 171.112 982.619 L167.084 982.619 L167.084 978.776 L171.297 978.776 Q174.746 978.776 176.575 977.411 Q178.403 976.022 178.403 973.429 Q178.403 970.767 176.505 969.355 Q174.63 967.92 171.112 967.92 Q169.19 967.92 166.991 968.337 Q164.792 968.753 162.153 969.633 L162.153 965.466 Q164.815 964.726 167.13 964.355 Q169.468 963.985 171.528 963.985 Q176.852 963.985 179.954 966.415 Q183.056 968.823 183.056 972.943 Q183.056 975.814 181.413 977.804 Q179.769 979.772 176.737 980.536 Z" fill="#000000" fill-rule="nonzero" fill-opacity="1" /><path clip-path="url(#clip640)" d="M126.205 648.433 Q122.593 648.433 120.765 651.997 Q118.959 655.539 118.959 662.669 Q118.959 669.775 120.765 673.34 Q122.593 676.882 126.205 676.882 Q129.839 676.882 131.644 673.34 Q133.473 669.775 133.473 662.669 Q133.473 655.539 131.644 651.997 Q129.839 648.433 126.205 648.433 M126.205 644.729 Q132.015 644.729 135.07 649.335 Q138.149 653.919 138.149 662.669 Q138.149 671.396 135.07 676.002 Q132.015 680.585 126.205 680.585 Q120.394 680.585 117.316 676.002 Q114.26 671.396 114.26 662.669 Q114.26 653.919 117.316 649.335 Q120.394 644.729 126.205 644.729 Z" fill="#000000" fill-rule="nonzero" fill-opacity="1" /><path clip-path="url(#clip640)" d="M146.366 674.034 L151.251 674.034 L151.251 679.914 L146.366 679.914 L146.366 674.034 Z" fill="#000000" fill-rule="nonzero" fill-opacity="1" /><path clip-path="url(#clip640)" d="M174.283 649.428 L162.477 667.877 L174.283 667.877 L174.283 649.428 M173.056 645.354 L178.936 645.354 L178.936 667.877 L183.866 667.877 L183.866 671.766 L178.936 671.766 L178.936 679.914 L174.283 679.914 L174.283 671.766 L158.681 671.766 L158.681 667.252 L173.056 645.354 Z" fill="#000000" fill-rule="nonzero" fill-opacity="1" /><path clip-path="url(#clip640)" d="M127.686 329.177 Q124.075 329.177 122.246 332.742 Q120.441 336.283 120.441 343.413 Q120.441 350.519 122.246 354.084 Q124.075 357.626 127.686 357.626 Q131.32 357.626 133.126 354.084 Q134.954 350.519 134.954 343.413 Q134.954 336.283 133.126 332.742 Q131.32 329.177 127.686 329.177 M127.686 325.473 Q133.496 325.473 136.552 330.08 Q139.63 334.663 139.63 343.413 Q139.63 352.14 136.552 356.746 Q133.496 361.329 127.686 361.329 Q121.876 361.329 118.797 356.746 Q115.742 352.14 115.742 343.413 Q115.742 334.663 118.797 330.08 Q121.876 325.473 127.686 325.473 Z" fill="#000000" fill-rule="nonzero" fill-opacity="1" /><path clip-path="url(#clip640)" d="M147.848 354.779 L152.732 354.779 L152.732 360.658 L147.848 360.658 L147.848 354.779 Z" fill="#000000" fill-rule="nonzero" fill-opacity="1" /><path clip-path="url(#clip640)" d="M162.964 326.098 L181.32 326.098 L181.32 330.033 L167.246 330.033 L167.246 338.505 Q168.264 338.158 169.283 337.996 Q170.302 337.811 171.32 337.811 Q177.107 337.811 180.487 340.982 Q183.866 344.154 183.866 349.57 Q183.866 355.149 180.394 358.251 Q176.922 361.329 170.602 361.329 Q168.427 361.329 166.158 360.959 Q163.913 360.589 161.505 359.848 L161.505 355.149 Q163.589 356.283 165.811 356.839 Q168.033 357.394 170.51 357.394 Q174.514 357.394 176.852 355.288 Q179.19 353.181 179.19 349.57 Q179.19 345.959 176.852 343.853 Q174.514 341.746 170.51 341.746 Q168.635 341.746 166.76 342.163 Q164.908 342.58 162.964 343.459 L162.964 326.098 Z" fill="#000000" fill-rule="nonzero" fill-opacity="1" /><path clip-path="url(#clip640)" d="M16.4842 1095.02 L16.4842 1086.36 L56.238 1065.29 L16.4842 1065.29 L16.4842 1059.05 L64.0042 1059.05 L64.0042 1067.71 L24.2503 1088.78 L64.0042 1088.78 L64.0042 1095.02 L16.4842 1095.02 Z" fill="#000000" fill-rule="nonzero" fill-opacity="1" /><path clip-path="url(#clip640)" d="M41.7242 1023.72 Q42.4244 1021.65 44.7161 1019.71 Q47.0077 1017.74 51.0181 1015.76 L64.0042 1009.24 L64.0042 1016.15 L51.8138 1022.23 Q47.0395 1024.58 45.48 1026.81 Q43.9204 1029.01 43.9204 1032.82 L43.9204 1039.83 L64.0042 1039.83 L64.0042 1046.26 L16.4842 1046.26 L16.4842 1031.74 Q16.4842 1023.59 19.8898 1019.58 Q23.2955 1015.57 30.1704 1015.57 Q34.6582 1015.57 37.6183 1017.67 Q40.5784 1019.74 41.7242 1023.72 M21.7677 1039.83 L38.6368 1039.83 L38.6368 1031.74 Q38.6368 1027.1 36.5043 1024.74 Q34.34 1022.35 30.1704 1022.35 Q26.0009 1022.35 23.9002 1024.74 Q21.7677 1027.1 21.7677 1031.74 L21.7677 1039.83 Z" fill="#000000" fill-rule="nonzero" fill-opacity="1" /><path clip-path="url(#clip640)" d="M16.4842 1000.96 L16.4842 991.384 L48.8219 979.257 L16.4842 967.067 L16.4842 957.487 L64.0042 957.487 L64.0042 963.757 L22.277 963.757 L54.8694 976.011 L54.8694 982.472 L22.277 994.726 L64.0042 994.726 L64.0042 1000.96 L16.4842 1000.96 Z" fill="#000000" fill-rule="nonzero" fill-opacity="1" /><path clip-path="url(#clip640)" d="M18.0438 916.237 L24.314 916.237 Q22.5634 919.897 21.704 923.144 Q20.8447 926.39 20.8447 929.414 Q20.8447 934.665 22.8817 937.53 Q24.9187 940.363 28.6745 940.363 Q31.8255 940.363 33.4488 938.485 Q35.0402 936.575 36.0269 931.292 L36.8226 927.409 Q38.1912 920.215 41.6605 916.81 Q45.098 913.372 50.8908 913.372 Q57.7976 913.372 61.3624 918.019 Q64.9272 922.634 64.9272 931.578 Q64.9272 934.952 64.1633 938.771 Q63.3994 942.559 61.9035 946.633 L55.2831 946.633 Q57.4793 942.718 58.5933 938.962 Q59.7073 935.207 59.7073 931.578 Q59.7073 926.072 57.543 923.08 Q55.3786 920.088 51.3682 920.088 Q47.8671 920.088 45.8937 922.252 Q43.9204 924.385 42.9337 929.286 L42.1698 933.201 Q40.7375 940.395 37.682 943.609 Q34.6264 946.824 29.1837 946.824 Q22.8817 946.824 19.2532 942.4 Q15.6248 937.944 15.6248 930.146 Q15.6248 926.804 16.2295 923.335 Q16.8343 919.865 18.0438 916.237 Z" fill="#000000" fill-rule="nonzero" fill-opacity="1" /><path clip-path="url(#clip640)" d="M21.7677 896.917 L58.7206 896.917 L58.7206 889.151 Q58.7206 879.316 54.2646 874.764 Q49.8086 870.181 40.1964 870.181 Q30.6479 870.181 26.2237 874.764 Q21.7677 879.316 21.7677 889.151 L21.7677 896.917 M16.4842 903.346 L16.4842 890.137 Q16.4842 876.324 22.2451 869.863 Q27.9743 863.401 40.1964 863.401 Q52.4822 863.401 58.2432 869.894 Q64.0042 876.387 64.0042 890.137 L64.0042 903.346 L16.4842 903.346 Z" fill="#000000" fill-rule="nonzero" fill-opacity="1" /><path clip-path="url(#clip640)" d="M28.3562 836.888 L28.3562 830.682 L58.275 819.542 L28.3562 808.402 L28.3562 802.195 L64.0042 815.563 L64.0042 823.52 L28.3562 836.888 Z" fill="#000000" fill-rule="nonzero" fill-opacity="1" /><path clip-path="url(#clip640)" d="M29.4065 771.385 L34.9447 771.385 Q33.6716 773.868 33.035 776.541 Q32.3984 779.215 32.3984 782.079 Q32.3984 786.44 33.7352 788.636 Q35.072 790.801 37.7456 790.801 Q39.7826 790.801 40.9603 789.241 Q42.1061 787.681 43.1565 782.971 L43.6021 780.965 Q44.9389 774.727 47.3897 772.117 Q49.8086 769.475 54.1691 769.475 Q59.1344 769.475 62.0308 773.422 Q64.9272 777.337 64.9272 784.212 Q64.9272 787.077 64.3543 790.196 Q63.8132 793.283 62.6992 796.721 L56.6518 796.721 Q58.3387 793.474 59.198 790.323 Q60.0256 787.172 60.0256 784.085 Q60.0256 779.947 58.6251 777.719 Q57.1929 775.491 54.6147 775.491 Q52.2276 775.491 50.9545 777.114 Q49.6813 778.706 48.5037 784.148 L48.0262 786.185 Q46.8804 791.628 44.5251 794.047 Q42.138 796.466 38.0002 796.466 Q32.9713 796.466 30.2341 792.901 Q27.4968 789.336 27.4968 782.78 Q27.4968 779.533 27.9743 776.669 Q28.4517 773.804 29.4065 771.385 Z" fill="#000000" fill-rule="nonzero" fill-opacity="1" /><path clip-path="url(#clip640)" d="M16.4842 739.175 L16.4842 729.594 L48.8219 717.468 L16.4842 705.277 L16.4842 695.697 L64.0042 695.697 L64.0042 701.967 L22.277 701.967 L54.8694 714.221 L54.8694 720.682 L22.277 732.936 L64.0042 732.936 L64.0042 739.175 L16.4842 739.175 Z" fill="#000000" fill-rule="nonzero" fill-opacity="1" /><path clip-path="url(#clip640)" d="M46.0847 666.988 Q46.0847 674.085 47.7079 676.823 Q49.3312 679.56 53.2461 679.56 Q56.3653 679.56 58.2114 677.523 Q60.0256 675.454 60.0256 671.921 Q60.0256 667.051 56.5881 664.123 Q53.1188 661.163 47.3897 661.163 L46.0847 661.163 L46.0847 666.988 M43.6657 655.306 L64.0042 655.306 L64.0042 661.163 L58.5933 661.163 Q61.8398 663.168 63.3994 666.16 Q64.9272 669.152 64.9272 673.481 Q64.9272 678.955 61.8716 682.202 Q58.7843 685.416 53.6281 685.416 Q47.6125 685.416 44.5569 681.406 Q41.5014 677.364 41.5014 669.375 L41.5014 661.163 L40.9285 661.163 Q36.8862 661.163 34.6901 663.836 Q32.4621 666.478 32.4621 671.284 Q32.4621 674.34 33.1941 677.236 Q33.9262 680.133 35.3903 682.806 L29.9795 682.806 Q28.7381 679.592 28.1334 676.568 Q27.4968 673.544 27.4968 670.68 Q27.4968 662.945 31.5072 659.126 Q35.5176 655.306 43.6657 655.306 Z" fill="#000000" fill-rule="nonzero" fill-opacity="1" /><path clip-path="url(#clip640)" d="M18.2347 637.451 L28.3562 637.451 L28.3562 625.388 L32.9077 625.388 L32.9077 637.451 L52.2594 637.451 Q56.6199 637.451 57.8613 636.273 Q59.1026 635.063 59.1026 631.403 L59.1026 625.388 L64.0042 625.388 L64.0042 631.403 Q64.0042 638.183 61.4897 640.761 Q58.9434 643.339 52.2594 643.339 L32.9077 643.339 L32.9077 647.636 L28.3562 647.636 L28.3562 643.339 L18.2347 643.339 L18.2347 637.451 Z" fill="#000000" fill-rule="nonzero" fill-opacity="1" /><path clip-path="url(#clip640)" d="M14.479 617.685 L14.479 611.829 L64.0042 611.829 L64.0042 617.685 L14.479 617.685 Z" fill="#000000" fill-rule="nonzero" fill-opacity="1" /><path clip-path="url(#clip640)" d="M46.0847 583.374 Q46.0847 590.472 47.7079 593.209 Q49.3312 595.946 53.2461 595.946 Q56.3653 595.946 58.2114 593.909 Q60.0256 591.84 60.0256 588.307 Q60.0256 583.438 56.5881 580.509 Q53.1188 577.549 47.3897 577.549 L46.0847 577.549 L46.0847 583.374 M43.6657 571.693 L64.0042 571.693 L64.0042 577.549 L58.5933 577.549 Q61.8398 579.555 63.3994 582.546 Q64.9272 585.538 64.9272 589.867 Q64.9272 595.341 61.8716 598.588 Q58.7843 601.803 53.6281 601.803 Q47.6125 601.803 44.5569 597.792 Q41.5014 593.75 41.5014 585.761 L41.5014 577.549 L40.9285 577.549 Q36.8862 577.549 34.6901 580.223 Q32.4621 582.865 32.4621 587.671 Q32.4621 590.726 33.1941 593.623 Q33.9262 596.519 35.3903 599.193 L29.9795 599.193 Q28.7381 595.978 28.1334 592.954 Q27.4968 589.931 27.4968 587.066 Q27.4968 579.332 31.5072 575.512 Q35.5176 571.693 43.6657 571.693 Z" fill="#000000" fill-rule="nonzero" fill-opacity="1" /><path clip-path="url(#clip640)" d="M46.212 534.04 Q39.7508 534.04 36.0905 536.713 Q32.3984 539.355 32.3984 544.002 Q32.3984 548.649 36.0905 551.323 Q39.7508 553.964 46.212 553.964 Q52.6732 553.964 56.3653 551.323 Q60.0256 548.649 60.0256 544.002 Q60.0256 539.355 56.3653 536.713 Q52.6732 534.04 46.212 534.04 M33.7671 553.964 Q30.5842 552.118 29.0564 549.317 Q27.4968 546.485 27.4968 542.57 Q27.4968 536.077 32.6531 532.035 Q37.8093 527.96 46.212 527.96 Q54.6147 527.96 59.771 532.035 Q64.9272 536.077 64.9272 542.57 Q64.9272 546.485 63.3994 549.317 Q61.8398 552.118 58.657 553.964 L64.0042 553.964 L64.0042 559.853 L14.479 559.853 L14.479 553.964 L33.7671 553.964 Z" fill="#000000" fill-rule="nonzero" fill-opacity="1" /><path clip-path="url(#clip640)" d="M16.4842 499.569 L16.4842 492.663 L34.149 480.854 L16.4842 468.982 L16.4842 462.075 L39.3052 477.353 L64.0042 461.057 L64.0042 467.964 L43.793 481.332 L64.0042 494.795 L64.0042 501.734 L38.6368 484.769 L16.4842 499.569 Z" fill="#000000" fill-rule="nonzero" fill-opacity="1" /><path clip-path="url(#clip640)" d="M28.3562 452.877 L28.3562 447.021 L64.0042 447.021 L64.0042 452.877 L28.3562 452.877 M14.479 452.877 L14.479 447.021 L21.895 447.021 L21.895 452.877 L14.479 452.877 Z" fill="#000000" fill-rule="nonzero" fill-opacity="1" /><path clip-path="url(#clip640)" d="M42.4881 405.134 L64.0042 405.134 L64.0042 410.991 L42.679 410.991 Q37.6183 410.991 35.1038 412.964 Q32.5894 414.937 32.5894 418.884 Q32.5894 423.627 35.6131 426.364 Q38.6368 429.101 43.8567 429.101 L64.0042 429.101 L64.0042 434.989 L28.3562 434.989 L28.3562 429.101 L33.8944 429.101 Q30.6797 427 29.0883 424.168 Q27.4968 421.303 27.4968 417.579 Q27.4968 411.436 31.3163 408.285 Q35.1038 405.134 42.4881 405.134 Z" fill="#000000" fill-rule="nonzero" fill-opacity="1" /><path clip-path="url(#clip640)" d="M14.479 375.406 L19.3487 375.406 L19.3487 381.008 Q19.3487 384.159 20.6219 385.4 Q21.895 386.61 25.2052 386.61 L28.3562 386.61 L28.3562 376.966 L32.9077 376.966 L32.9077 386.61 L64.0042 386.61 L64.0042 392.498 L32.9077 392.498 L32.9077 398.1 L28.3562 398.1 L28.3562 392.498 L25.8736 392.498 Q19.9216 392.498 17.2162 389.729 Q14.479 386.96 14.479 380.944 L14.479 375.406 Z" fill="#000000" fill-rule="nonzero" fill-opacity="1" /><polyline clip-path="url(#clip641)" style="stroke:#009af9; stroke-linecap:round; stroke-linejoin:round; stroke-width:4; stroke-opacity:1; fill:none" points="280.231,86.1857 481.447,320.82 682.663,439.546 883.879,518.221 1085.1,579.122 1286.31,630.429 1487.53,675.724 1688.74,716.82 1889.96,754.741 2091.18,790.121 2292.39,823.386 "/>
<circle clip-path="url(#clip641)" cx="280.231" cy="86.1857" r="14.4" fill="#009af9" fill-rule="evenodd" fill-opacity="1" stroke="none"/>
<circle clip-path="url(#clip641)" cx="481.447" cy="320.82" r="14.4" fill="#009af9" fill-rule="evenodd" fill-opacity="1" stroke="none"/>
<circle clip-path="url(#clip641)" cx="682.663" cy="439.546" r="14.4" fill="#009af9" fill-rule="evenodd" fill-opacity="1" stroke="none"/>
<circle clip-path="url(#clip641)" cx="883.879" cy="518.221" r="14.4" fill="#009af9" fill-rule="evenodd" fill-opacity="1" stroke="none"/>
<circle clip-path="url(#clip641)" cx="1085.1" cy="579.122" r="14.4" fill="#009af9" fill-rule="evenodd" fill-opacity="1" stroke="none"/>
<circle clip-path="url(#clip641)" cx="1286.31" cy="630.429" r="14.4" fill="#009af9" fill-rule="evenodd" fill-opacity="1" stroke="none"/>
<circle clip-path="url(#clip641)" cx="1487.53" cy="675.724" r="14.4" fill="#009af9" fill-rule="evenodd" fill-opacity="1" stroke="none"/>
<circle clip-path="url(#clip641)" cx="1688.74" cy="716.82" r="14.4" fill="#009af9" fill-rule="evenodd" fill-opacity="1" stroke="none"/>
<circle clip-path="url(#clip641)" cx="1889.96" cy="754.741" r="14.4" fill="#009af9" fill-rule="evenodd" fill-opacity="1" stroke="none"/>
<circle clip-path="url(#clip641)" cx="2091.18" cy="790.121" r="14.4" fill="#009af9" fill-rule="evenodd" fill-opacity="1" stroke="none"/>
<circle clip-path="url(#clip641)" cx="2292.39" cy="823.386" r="14.4" fill="#009af9" fill-rule="evenodd" fill-opacity="1" stroke="none"/>
<polyline clip-path="url(#clip641)" style="stroke:#e26f46; stroke-linecap:round; stroke-linejoin:round; stroke-width:4; stroke-opacity:1; fill:none" points="280.231,86.1857 481.447,320.82 682.663,468.579 883.879,576.736 1085.1,669.154 1286.31,754.995 1487.53,837.221 1688.74,916.672 1889.96,993.482 2091.18,1067.43 2292.39,1137.89 "/>
<path clip-path="url(#clip641)" d="M264.231 70.1857 L264.231 102.186 L296.231 102.186 L296.231 70.1857 L264.231 70.1857 Z" fill="#e26f46" fill-rule="evenodd" fill-opacity="1" stroke="none"/>
<path clip-path="url(#clip641)" d="M465.447 304.82 L465.447 336.82 L497.447 336.82 L497.447 304.82 L465.447 304.82 Z" fill="#e26f46" fill-rule="evenodd" fill-opacity="1" stroke="none"/>
<path clip-path="url(#clip641)" d="M666.663 452.579 L666.663 484.579 L698.663 484.579 L698.663 452.579 L666.663 452.579 Z" fill="#e26f46" fill-rule="evenodd" fill-opacity="1" stroke="none"/>
<path clip-path="url(#clip641)" d="M867.879 560.736 L867.879 592.736 L899.879 592.736 L899.879 560.736 L867.879 560.736 Z" fill="#e26f46" fill-rule="evenodd" fill-opacity="1" stroke="none"/>
<path clip-path="url(#clip641)" d="M1069.1 653.154 L1069.1 685.154 L1101.1 685.154 L1101.1 653.154 L1069.1 653.154 Z" fill="#e26f46" fill-rule="evenodd" fill-opacity="1" stroke="none"/>
<path clip-path="url(#clip641)" d="M1270.31 738.995 L1270.31 770.995 L1302.31 770.995 L1302.31 738.995 L1270.31 738.995 Z" fill="#e26f46" fill-rule="evenodd" fill-opacity="1" stroke="none"/>
<path clip-path="url(#clip641)" d="M1471.53 821.221 L1471.53 853.221 L1503.53 853.221 L1503.53 821.221 L1471.53 821.221 Z" fill="#e26f46" fill-rule="evenodd" fill-opacity="1" stroke="none"/>
<path clip-path="url(#clip641)" d="M1672.74 900.672 L1672.74 932.672 L1704.74 932.672 L1704.74 900.672 L1672.74 900.672 Z" fill="#e26f46" fill-rule="evenodd" fill-opacity="1" stroke="none"/>
<path clip-path="url(#clip641)" d="M1873.96 977.482 L1873.96 1009.48 L1905.96 1009.48 L1905.96 977.482 L1873.96 977.482 Z" fill="#e26f46" fill-rule="evenodd" fill-opacity="1" stroke="none"/>
<path clip-path="url(#clip641)" d="M2075.18 1051.43 L2075.18 1083.43 L2107.18 1083.43 L2107.18 1051.43 L2075.18 1051.43 Z" fill="#e26f46" fill-rule="evenodd" fill-opacity="1" stroke="none"/>
<path clip-path="url(#clip641)" d="M2276.39 1121.89 L2276.39 1153.89 L2308.39 1153.89 L2308.39 1121.89 L2276.39 1121.89 Z" fill="#e26f46" fill-rule="evenodd" fill-opacity="1" stroke="none"/>
<polyline clip-path="url(#clip641)" style="stroke:#3da44d; stroke-linecap:round; stroke-linejoin:round; stroke-width:4; stroke-opacity:1; fill:none" points="280.231,86.1857 481.447,422.648 682.663,585.389 883.879,714.504 1085.1,833.343 1286.31,946.728 1487.53,1054.83 1688.74,1156.05 1889.96,1248.23 2091.18,1329.61 2292.39,1384.24 "/>
<path clip-path="url(#clip641)" d="M280.231 70.1857 L276.471 81.0017 L265.015 81.2417 L274.151 88.1697 L270.823 99.1297 L280.231 92.5857 L289.639 99.1297 L286.311 88.1697 L295.447 81.2417 L283.991 81.0017 L280.231 70.1857 Z" fill="#3da44d" fill-rule="evenodd" fill-opacity="1" stroke="none"/>
<path clip-path="url(#clip641)" d="M481.447 406.648 L477.687 417.464 L466.231 417.704 L475.367 424.632 L472.039 435.592 L481.447 429.048 L490.855 435.592 L487.527 424.632 L496.663 417.704 L485.207 417.464 L481.447 406.648 Z" fill="#3da44d" fill-rule="evenodd" fill-opacity="1" stroke="none"/>
<path clip-path="url(#clip641)" d="M682.663 569.389 L678.903 580.205 L667.447 580.445 L676.583 587.373 L673.255 598.333 L682.663 591.789 L692.071 598.333 L688.743 587.373 L697.879 580.445 L686.423 580.205 L682.663 569.389 Z" fill="#3da44d" fill-rule="evenodd" fill-opacity="1" stroke="none"/>
<path clip-path="url(#clip641)" d="M883.879 698.504 L880.119 709.32 L868.663 709.56 L877.799 716.488 L874.471 727.448 L883.879 720.904 L893.287 727.448 L889.959 716.488 L899.095 709.56 L887.639 709.32 L883.879 698.504 Z" fill="#3da44d" fill-rule="evenodd" fill-opacity="1" stroke="none"/>
<path clip-path="url(#clip641)" d="M1085.1 817.343 L1081.34 828.159 L1069.88 828.399 L1079.02 835.327 L1075.69 846.287 L1085.1 839.743 L1094.5 846.287 L1091.18 835.327 L1100.31 828.399 L1088.86 828.159 L1085.1 817.343 Z" fill="#3da44d" fill-rule="evenodd" fill-opacity="1" stroke="none"/>
<path clip-path="url(#clip641)" d="M1286.31 930.728 L1282.55 941.544 L1271.1 941.784 L1280.23 948.712 L1276.9 959.672 L1286.31 953.128 L1295.72 959.672 L1292.39 948.712 L1301.53 941.784 L1290.07 941.544 L1286.31 930.728 Z" fill="#3da44d" fill-rule="evenodd" fill-opacity="1" stroke="none"/>
<path clip-path="url(#clip641)" d="M1487.53 1038.83 L1483.77 1049.64 L1472.31 1049.88 L1481.45 1056.81 L1478.12 1067.77 L1487.53 1061.23 L1496.94 1067.77 L1493.61 1056.81 L1502.74 1049.88 L1491.29 1049.64 L1487.53 1038.83 Z" fill="#3da44d" fill-rule="evenodd" fill-opacity="1" stroke="none"/>
<path clip-path="url(#clip641)" d="M1688.74 1140.05 L1684.98 1150.86 L1673.53 1151.1 L1682.66 1158.03 L1679.34 1168.99 L1688.74 1162.45 L1698.15 1168.99 L1694.82 1158.03 L1703.96 1151.1 L1692.5 1150.86 L1688.74 1140.05 Z" fill="#3da44d" fill-rule="evenodd" fill-opacity="1" stroke="none"/>
<path clip-path="url(#clip641)" d="M1889.96 1232.23 L1886.2 1243.04 L1874.74 1243.28 L1883.88 1250.21 L1880.55 1261.17 L1889.96 1254.63 L1899.37 1261.17 L1896.04 1250.21 L1905.18 1243.28 L1893.72 1243.04 L1889.96 1232.23 Z" fill="#3da44d" fill-rule="evenodd" fill-opacity="1" stroke="none"/>
<path clip-path="url(#clip641)" d="M2091.18 1313.61 L2087.42 1324.42 L2075.96 1324.66 L2085.1 1331.59 L2081.77 1342.55 L2091.18 1336.01 L2100.58 1342.55 L2097.26 1331.59 L2106.39 1324.66 L2094.94 1324.42 L2091.18 1313.61 Z" fill="#3da44d" fill-rule="evenodd" fill-opacity="1" stroke="none"/>
<path clip-path="url(#clip641)" d="M2292.39 1368.24 L2288.63 1379.05 L2277.18 1379.29 L2286.31 1386.22 L2282.98 1397.18 L2292.39 1390.64 L2301.8 1397.18 L2298.47 1386.22 L2307.61 1379.29 L2296.15 1379.05 L2292.39 1368.24 Z" fill="#3da44d" fill-rule="evenodd" fill-opacity="1" stroke="none"/>
<path clip-path="url(#clip640)" d="M1762.49 300.469 L2281.66 300.469 L2281.66 93.1086 L1762.49 93.1086  Z" fill="#ffffff" fill-rule="evenodd" fill-opacity="1"/>
<polyline clip-path="url(#clip640)" style="stroke:#000000; stroke-linecap:round; stroke-linejoin:round; stroke-width:4; stroke-opacity:1; fill:none" points="1762.49,300.469 2281.66,300.469 2281.66,93.1086 1762.49,93.1086 1762.49,300.469 "/>
<polyline clip-path="url(#clip640)" style="stroke:#009af9; stroke-linecap:round; stroke-linejoin:round; stroke-width:4; stroke-opacity:1; fill:none" points="1786.19,144.949 1928.38,144.949 "/>
<circle clip-path="url(#clip640)" cx="1857.29" cy="144.949" r="19.749" fill="#009af9" fill-rule="evenodd" fill-opacity="1" stroke="none"/>
<path clip-path="url(#clip640)" d="M1956.76 131.511 L1956.76 144.497 L1962.64 144.497 Q1965.9 144.497 1967.68 142.807 Q1969.47 141.118 1969.47 137.993 Q1969.47 134.891 1967.68 133.201 Q1965.9 131.511 1962.64 131.511 L1956.76 131.511 M1952.08 127.669 L1962.64 127.669 Q1968.45 127.669 1971.41 130.307 Q1974.4 132.923 1974.4 137.993 Q1974.4 143.108 1971.41 145.724 Q1968.45 148.34 1962.64 148.34 L1956.76 148.34 L1956.76 162.229 L1952.08 162.229 L1952.08 127.669 Z" fill="#000000" fill-rule="nonzero" fill-opacity="1" /><path clip-path="url(#clip640)" d="M2004.24 157.298 L2004.24 148.016 L1996.6 148.016 L1996.6 144.173 L2008.86 144.173 L2008.86 159.011 Q2006.16 160.932 2002.89 161.928 Q1999.63 162.9 1995.93 162.9 Q1987.82 162.9 1983.24 158.178 Q1978.68 153.432 1978.68 144.983 Q1978.68 136.511 1983.24 131.789 Q1987.82 127.044 1995.93 127.044 Q1999.3 127.044 2002.34 127.877 Q2005.39 128.71 2007.96 130.331 L2007.96 135.307 Q2005.37 133.108 2002.45 131.997 Q1999.54 130.886 1996.32 130.886 Q1989.98 130.886 1986.78 134.428 Q1983.61 137.969 1983.61 144.983 Q1983.61 151.974 1986.78 155.516 Q1989.98 159.057 1996.32 159.057 Q1998.8 159.057 2000.74 158.641 Q2002.68 158.201 2004.24 157.298 Z" fill="#000000" fill-rule="nonzero" fill-opacity="1" /><path clip-path="url(#clip640)" d="M2017.41 127.669 L2024.37 127.669 L2033.19 151.187 L2042.06 127.669 L2049.03 127.669 L2049.03 162.229 L2044.47 162.229 L2044.47 131.882 L2035.55 155.585 L2030.86 155.585 L2021.94 131.882 L2021.94 162.229 L2017.41 162.229 L2017.41 127.669 Z" fill="#000000" fill-rule="nonzero" fill-opacity="1" /><path clip-path="url(#clip640)" d="M2083.42 126.257 Q2080.32 131.581 2078.82 136.789 Q2077.31 141.997 2077.31 147.344 Q2077.31 152.692 2078.82 157.946 Q2080.35 163.178 2083.42 168.479 L2079.72 168.479 Q2076.25 163.039 2074.51 157.784 Q2072.8 152.53 2072.8 147.344 Q2072.8 142.182 2074.51 136.951 Q2076.23 131.72 2079.72 126.257 L2083.42 126.257 Z" fill="#000000" fill-rule="nonzero" fill-opacity="1" /><path clip-path="url(#clip640)" d="M2091.87 127.669 L2096.55 127.669 L2096.55 162.229 L2091.87 162.229 L2091.87 127.669 Z" fill="#000000" fill-rule="nonzero" fill-opacity="1" /><path clip-path="url(#clip640)" d="M2126.57 128.803 L2126.57 133.363 Q2123.91 132.09 2121.55 131.465 Q2119.19 130.84 2116.99 130.84 Q2113.17 130.84 2111.09 132.321 Q2109.03 133.803 2109.03 136.534 Q2109.03 138.826 2110.39 140.007 Q2111.78 141.164 2115.62 141.882 L2118.45 142.46 Q2123.68 143.456 2126.16 145.979 Q2128.66 148.479 2128.66 152.692 Q2128.66 157.715 2125.28 160.307 Q2121.92 162.9 2115.42 162.9 Q2112.96 162.9 2110.18 162.344 Q2107.43 161.789 2104.47 160.701 L2104.47 155.886 Q2107.31 157.483 2110.04 158.293 Q2112.78 159.104 2115.42 159.104 Q2119.42 159.104 2121.6 157.53 Q2123.77 155.956 2123.77 153.039 Q2123.77 150.493 2122.2 149.057 Q2120.65 147.622 2117.08 146.905 L2114.23 146.349 Q2109 145.307 2106.67 143.085 Q2104.33 140.863 2104.33 136.905 Q2104.33 132.321 2107.54 129.682 Q2110.79 127.044 2116.46 127.044 Q2118.89 127.044 2121.41 127.483 Q2123.93 127.923 2126.57 128.803 Z" fill="#000000" fill-rule="nonzero" fill-opacity="1" /><path clip-path="url(#clip640)" d="M2131.16 127.669 L2160.39 127.669 L2160.39 131.604 L2148.12 131.604 L2148.12 162.229 L2143.42 162.229 L2143.42 131.604 L2131.16 131.604 L2131.16 127.669 Z" fill="#000000" fill-rule="nonzero" fill-opacity="1" /><path clip-path="url(#clip640)" d="M2172.78 132.275 L2166.43 149.474 L2179.14 149.474 L2172.78 132.275 M2170.14 127.669 L2175.44 127.669 L2188.61 162.229 L2183.75 162.229 L2180.6 153.363 L2165.02 153.363 L2161.87 162.229 L2156.94 162.229 L2170.14 127.669 Z" fill="#000000" fill-rule="nonzero" fill-opacity="1" /><path clip-path="url(#clip640)" d="M2192.8 126.257 L2196.5 126.257 Q2199.98 131.72 2201.69 136.951 Q2203.42 142.182 2203.42 147.344 Q2203.42 152.53 2201.69 157.784 Q2199.98 163.039 2196.5 168.479 L2192.8 168.479 Q2195.88 163.178 2197.38 157.946 Q2198.91 152.692 2198.91 147.344 Q2198.91 141.997 2197.38 136.789 Q2195.88 131.581 2192.8 126.257 Z" fill="#000000" fill-rule="nonzero" fill-opacity="1" /><polyline clip-path="url(#clip640)" style="stroke:#e26f46; stroke-linecap:round; stroke-linejoin:round; stroke-width:4; stroke-opacity:1; fill:none" points="1786.19,196.789 1928.38,196.789 "/>
<path clip-path="url(#clip640)" d="M1835.34 174.845 L1835.34 218.732 L1879.23 218.732 L1879.23 174.845 L1835.34 174.845 Z" fill="#e26f46" fill-rule="evenodd" fill-opacity="1" stroke="none"/>
<path clip-path="url(#clip640)" d="M1952.08 179.509 L1971.94 179.509 L1971.94 183.444 L1956.76 183.444 L1956.76 193.629 L1970.46 193.629 L1970.46 197.564 L1956.76 197.564 L1956.76 214.069 L1952.08 214.069 L1952.08 179.509 Z" fill="#000000" fill-rule="nonzero" fill-opacity="1" /><path clip-path="url(#clip640)" d="M1984.03 183.351 L1984.03 196.337 L1989.91 196.337 Q1993.17 196.337 1994.95 194.647 Q1996.74 192.958 1996.74 189.833 Q1996.74 186.731 1994.95 185.041 Q1993.17 183.351 1989.91 183.351 L1984.03 183.351 M1979.35 179.509 L1989.91 179.509 Q1995.72 179.509 1998.68 182.147 Q2001.67 184.763 2001.67 189.833 Q2001.67 194.948 1998.68 197.564 Q1995.72 200.18 1989.91 200.18 L1984.03 200.18 L1984.03 214.069 L1979.35 214.069 L1979.35 179.509 Z" fill="#000000" fill-rule="nonzero" fill-opacity="1" /><path clip-path="url(#clip640)" d="M2031.5 209.138 L2031.5 199.856 L2023.86 199.856 L2023.86 196.013 L2036.13 196.013 L2036.13 210.851 Q2033.42 212.772 2030.16 213.768 Q2026.9 214.74 2023.19 214.74 Q2015.09 214.74 2010.51 210.018 Q2005.95 205.272 2005.95 196.823 Q2005.95 188.351 2010.51 183.629 Q2015.09 178.884 2023.19 178.884 Q2026.57 178.884 2029.61 179.717 Q2032.66 180.55 2035.23 182.171 L2035.23 187.147 Q2032.64 184.948 2029.72 183.837 Q2026.8 182.726 2023.59 182.726 Q2017.24 182.726 2014.05 186.268 Q2010.88 189.809 2010.88 196.823 Q2010.88 203.814 2014.05 207.356 Q2017.24 210.897 2023.59 210.897 Q2026.06 210.897 2028.01 210.481 Q2029.95 210.041 2031.5 209.138 Z" fill="#000000" fill-rule="nonzero" fill-opacity="1" /><path clip-path="url(#clip640)" d="M2044.67 179.509 L2051.64 179.509 L2060.46 203.027 L2069.33 179.509 L2076.3 179.509 L2076.3 214.069 L2071.73 214.069 L2071.73 183.722 L2062.82 207.425 L2058.12 207.425 L2049.21 183.722 L2049.21 214.069 L2044.67 214.069 L2044.67 179.509 Z" fill="#000000" fill-rule="nonzero" fill-opacity="1" /><path clip-path="url(#clip640)" d="M2110.69 178.097 Q2107.59 183.421 2106.09 188.629 Q2104.58 193.837 2104.58 199.184 Q2104.58 204.532 2106.09 209.786 Q2107.61 215.018 2110.69 220.319 L2106.99 220.319 Q2103.52 214.879 2101.78 209.624 Q2100.07 204.37 2100.07 199.184 Q2100.07 194.022 2101.78 188.791 Q2103.49 183.56 2106.99 178.097 L2110.69 178.097 Z" fill="#000000" fill-rule="nonzero" fill-opacity="1" /><path clip-path="url(#clip640)" d="M2119.14 179.509 L2139 179.509 L2139 183.444 L2123.82 183.444 L2123.82 193.629 L2137.52 193.629 L2137.52 197.564 L2123.82 197.564 L2123.82 214.069 L2119.14 214.069 L2119.14 179.509 Z" fill="#000000" fill-rule="nonzero" fill-opacity="1" /><path clip-path="url(#clip640)" d="M2146.41 179.509 L2151.09 179.509 L2151.09 214.069 L2146.41 214.069 L2146.41 179.509 Z" fill="#000000" fill-rule="nonzero" fill-opacity="1" /><path clip-path="url(#clip640)" d="M2181.11 180.643 L2181.11 185.203 Q2178.45 183.93 2176.09 183.305 Q2173.73 182.68 2171.53 182.68 Q2167.71 182.68 2165.62 184.161 Q2163.56 185.643 2163.56 188.374 Q2163.56 190.666 2164.93 191.847 Q2166.32 193.004 2170.16 193.722 L2172.98 194.3 Q2178.22 195.296 2180.69 197.819 Q2183.19 200.319 2183.19 204.532 Q2183.19 209.555 2179.81 212.147 Q2176.46 214.74 2169.95 214.74 Q2167.5 214.74 2164.72 214.184 Q2161.97 213.629 2159 212.541 L2159 207.726 Q2161.85 209.323 2164.58 210.133 Q2167.31 210.944 2169.95 210.944 Q2173.96 210.944 2176.13 209.37 Q2178.31 207.796 2178.31 204.879 Q2178.31 202.333 2176.73 200.897 Q2175.18 199.462 2171.62 198.745 L2168.77 198.189 Q2163.54 197.147 2161.2 194.925 Q2158.86 192.703 2158.86 188.745 Q2158.86 184.161 2162.08 181.522 Q2165.32 178.884 2170.99 178.884 Q2173.42 178.884 2175.95 179.323 Q2178.47 179.763 2181.11 180.643 Z" fill="#000000" fill-rule="nonzero" fill-opacity="1" /><path clip-path="url(#clip640)" d="M2185.69 179.509 L2214.93 179.509 L2214.93 183.444 L2202.66 183.444 L2202.66 214.069 L2197.96 214.069 L2197.96 183.444 L2185.69 183.444 L2185.69 179.509 Z" fill="#000000" fill-rule="nonzero" fill-opacity="1" /><path clip-path="url(#clip640)" d="M2227.31 184.115 L2220.97 201.314 L2233.68 201.314 L2227.31 184.115 M2224.67 179.509 L2229.97 179.509 L2243.15 214.069 L2238.28 214.069 L2235.14 205.203 L2219.56 205.203 L2216.41 214.069 L2211.48 214.069 L2224.67 179.509 Z" fill="#000000" fill-rule="nonzero" fill-opacity="1" /><path clip-path="url(#clip640)" d="M2247.34 178.097 L2251.04 178.097 Q2254.51 183.56 2256.22 188.791 Q2257.96 194.022 2257.96 199.184 Q2257.96 204.37 2256.22 209.624 Q2254.51 214.879 2251.04 220.319 L2247.34 220.319 Q2250.41 215.018 2251.92 209.786 Q2253.45 204.532 2253.45 199.184 Q2253.45 193.837 2251.92 188.629 Q2250.41 183.421 2247.34 178.097 Z" fill="#000000" fill-rule="nonzero" fill-opacity="1" /><polyline clip-path="url(#clip640)" style="stroke:#3da44d; stroke-linecap:round; stroke-linejoin:round; stroke-width:4; stroke-opacity:1; fill:none" points="1786.19,248.629 1928.38,248.629 "/>
<path clip-path="url(#clip640)" d="M1857.29 226.685 L1852.13 241.519 L1836.42 241.848 L1848.95 251.35 L1844.39 266.381 L1857.29 257.406 L1870.19 266.381 L1865.63 251.35 L1878.16 241.848 L1862.44 241.519 L1857.29 226.685 Z" fill="#3da44d" fill-rule="evenodd" fill-opacity="1" stroke="none"/>
<path clip-path="url(#clip640)" d="M1956.76 235.191 L1956.76 248.177 L1962.64 248.177 Q1965.9 248.177 1967.68 246.487 Q1969.47 244.798 1969.47 241.673 Q1969.47 238.571 1967.68 236.881 Q1965.9 235.191 1962.64 235.191 L1956.76 235.191 M1952.08 231.349 L1962.64 231.349 Q1968.45 231.349 1971.41 233.987 Q1974.4 236.603 1974.4 241.673 Q1974.4 246.788 1971.41 249.404 Q1968.45 252.02 1962.64 252.02 L1956.76 252.02 L1956.76 265.909 L1952.08 265.909 L1952.08 231.349 Z" fill="#000000" fill-rule="nonzero" fill-opacity="1" /><path clip-path="url(#clip640)" d="M1994.7 234.52 Q1989.61 234.52 1986.6 238.316 Q1983.61 242.112 1983.61 248.663 Q1983.61 255.191 1986.6 258.987 Q1989.61 262.784 1994.7 262.784 Q1999.79 262.784 2002.75 258.987 Q2005.74 255.191 2005.74 248.663 Q2005.74 242.112 2002.75 238.316 Q1999.79 234.52 1994.7 234.52 M1994.7 230.724 Q2001.97 230.724 2006.32 235.608 Q2010.67 240.469 2010.67 248.663 Q2010.67 256.835 2006.32 261.719 Q2001.97 266.58 1994.7 266.58 Q1987.41 266.58 1983.03 261.719 Q1978.68 256.858 1978.68 248.663 Q1978.68 240.469 1983.03 235.608 Q1987.41 230.724 1994.7 230.724 Z" fill="#000000" fill-rule="nonzero" fill-opacity="1" /><path clip-path="url(#clip640)" d="M2041.55 260.978 L2041.55 251.696 L2033.91 251.696 L2033.91 247.853 L2046.18 247.853 L2046.18 262.691 Q2043.47 264.612 2040.21 265.608 Q2036.94 266.58 2033.24 266.58 Q2025.14 266.58 2020.55 261.858 Q2015.99 257.112 2015.99 248.663 Q2015.99 240.191 2020.55 235.469 Q2025.14 230.724 2033.24 230.724 Q2036.62 230.724 2039.65 231.557 Q2042.71 232.39 2045.28 234.011 L2045.28 238.987 Q2042.68 236.788 2039.77 235.677 Q2036.85 234.566 2033.63 234.566 Q2027.29 234.566 2024.1 238.108 Q2020.93 241.649 2020.93 248.663 Q2020.93 255.654 2024.1 259.196 Q2027.29 262.737 2033.63 262.737 Q2036.11 262.737 2038.05 262.321 Q2040 261.881 2041.55 260.978 Z" fill="#000000" fill-rule="nonzero" fill-opacity="1" /><path clip-path="url(#clip640)" d="M2054.72 231.349 L2061.69 231.349 L2070.51 254.867 L2079.37 231.349 L2086.34 231.349 L2086.34 265.909 L2081.78 265.909 L2081.78 235.562 L2072.87 259.265 L2068.17 259.265 L2059.26 235.562 L2059.26 265.909 L2054.72 265.909 L2054.72 231.349 Z" fill="#000000" fill-rule="nonzero" fill-opacity="1" /></svg>
