<?xml version="1.0" encoding="utf-8"?>
<svg xmlns="http://www.w3.org/2000/svg" xmlns:xlink="http://www.w3.org/1999/xlink" width="600" height="400" viewBox="0 0 2400 1600">
<defs>
  <clipPath id="clip830">
    <rect x="0" y="0" width="2400" height="1600"/>
  </clipPath>
</defs>
<path clip-path="url(#clip830)" d="M0 1600 L2400 1600 L2400 0 L0 0  Z" fill="#ffffff" fill-rule="evenodd" fill-opacity="1"/>
<defs>
  <clipPath id="clip831">
    <rect x="169" y="47" width="2185" height="1377"/>
  </clipPath>
</defs>
<path clip-path="url(#clip830)" d="M169.121 1423.18 L2352.76 1423.18 L2352.76 47.2441 L169.121 47.2441  Z" fill="#ffffff" fill-rule="evenodd" fill-opacity="1"/>
<polyline clip-path="url(#clip831)" style="stroke:#000000; stroke-linecap:round; stroke-linejoin:round; stroke-width:2; stroke-opacity:0.1; fill:none" points="525.213,1423.18 525.213,47.2441 "/>
<polyline clip-path="url(#clip831)" style="stroke:#000000; stroke-linecap:round; stroke-linejoin:round; stroke-width:2; stroke-opacity:0.1; fill:none" points="1113.79,1423.18 1113.79,47.2441 "/>
<polyline clip-path="url(#clip831)" style="stroke:#000000; stroke-linecap:round; stroke-linejoin:round; stroke-width:2; stroke-opacity:0.1; fill:none" points="1702.37,1423.18 1702.37,47.2441 "/>
<polyline clip-path="url(#clip831)" style="stroke:#000000; stroke-linecap:round; stroke-linejoin:round; stroke-width:2; stroke-opacity:0.1; fill:none" points="2290.95,1423.18 2290.95,47.2441 "/>
<polyline clip-path="url(#clip831)" style="stroke:#000000; stroke-linecap:round; stroke-linejoin:round; stroke-width:2; stroke-opacity:0.1; fill:none" points="169.121,1384.24 2352.76,1384.24 "/>
<polyline clip-path="url(#clip831)" style="stroke:#000000; stroke-linecap:round; stroke-linejoin:round; stroke-width:2; stroke-opacity:0.1; fill:none" points="169.121,1059.73 2352.76,1059.73 "/>
<polyline clip-path="url(#clip831)" style="stroke:#000000; stroke-linecap:round; stroke-linejoin:round; stroke-width:2; stroke-opacity:0.1; fill:none" points="169.121,735.212 2352.76,735.212 "/>
<polyline clip-path="url(#clip831)" style="stroke:#000000; stroke-linecap:round; stroke-linejoin:round; stroke-width:2; stroke-opacity:0.1; fill:none" points="169.121,410.699 2352.76,410.699 "/>
<polyline clip-path="url(#clip831)" style="stroke:#000000; stroke-linecap:round; stroke-linejoin:round; stroke-width:2; stroke-opacity:0.1; fill:none" points="169.121,86.1857 2352.76,86.1857 "/>
<polyline clip-path="url(#clip830)" style="stroke:#000000; stroke-linecap:round; stroke-linejoin:round; stroke-width:4; stroke-opacity:1; fill:none" points="169.121,1423.18 2352.76,1423.18 "/>
<polyline clip-path="url(#clip830)" style="stroke:#000000; stroke-linecap:round; stroke-linejoin:round; stroke-width:4; stroke-opacity:1; fill:none" points="525.213,1423.18 525.213,1404.28 "/>
<polyline clip-path="url(#clip830)" style="stroke:#000000; stroke-linecap:round; stroke-linejoin:round; stroke-width:4; stroke-opacity:1; fill:none" points="1113.79,1423.18 1113.79,1404.28 "/>
<polyline clip-path="url(#clip830)" style="stroke:#000000; stroke-linecap:round; stroke-linejoin:round; stroke-width:4; stroke-opacity:1; fill:none" points="1702.37,1423.18 1702.37,1404.28 "/>
<polyline clip-path="url(#clip830)" style="stroke:#000000; stroke-linecap:round; stroke-linejoin:round; stroke-width:4; stroke-opacity:1; fill:none" points="2290.95,1423.18 2290.95,1404.28 "/>
<path clip-path="url(#clip830)" d="M519.865 1481.64 L536.185 1481.64 L536.185 1485.58 L514.241 1485.58 L514.241 1481.64 Q516.903 1478.89 521.486 1474.26 Q526.092 1469.61 527.273 1468.27 Q529.518 1465.74 530.398 1464.01 Q531.301 1462.25 531.301 1460.56 Q531.301 1457.8 529.356 1456.07 Q527.435 1454.33 524.333 1454.33 Q522.134 1454.33 519.68 1455.09 Q517.25 1455.86 514.472 1457.41 L514.472 1452.69 Q517.296 1451.55 519.75 1450.97 Q522.203 1450.39 524.24 1450.39 Q529.611 1450.39 532.805 1453.08 Q536 1455.77 536 1460.26 Q536 1462.39 535.189 1464.31 Q534.402 1466.2 532.296 1468.8 Q531.717 1469.47 528.615 1472.69 Q525.514 1475.88 519.865 1481.64 Z" fill="#000000" fill-rule="nonzero" fill-opacity="1" /><path clip-path="url(#clip830)" d="M1116.8 1455.09 L1105 1473.54 L1116.8 1473.54 L1116.8 1455.09 M1115.58 1451.02 L1121.46 1451.02 L1121.46 1473.54 L1126.39 1473.54 L1126.39 1477.43 L1121.46 1477.43 L1121.46 1485.58 L1116.8 1485.58 L1116.8 1477.43 L1101.2 1477.43 L1101.2 1472.92 L1115.58 1451.02 Z" fill="#000000" fill-rule="nonzero" fill-opacity="1" /><path clip-path="url(#clip830)" d="M1702.78 1466.44 Q1699.63 1466.44 1697.78 1468.59 Q1695.95 1470.74 1695.95 1474.49 Q1695.95 1478.22 1697.78 1480.39 Q1699.63 1482.55 1702.78 1482.55 Q1705.93 1482.55 1707.76 1480.39 Q1709.61 1478.22 1709.61 1474.49 Q1709.61 1470.74 1707.76 1468.59 Q1705.93 1466.44 1702.78 1466.44 M1712.06 1451.78 L1712.06 1456.04 Q1710.3 1455.21 1708.5 1454.77 Q1706.71 1454.33 1704.96 1454.33 Q1700.33 1454.33 1697.87 1457.45 Q1695.44 1460.58 1695.09 1466.9 Q1696.46 1464.89 1698.52 1463.82 Q1700.58 1462.73 1703.06 1462.73 Q1708.27 1462.73 1711.27 1465.9 Q1714.31 1469.05 1714.31 1474.49 Q1714.31 1479.82 1711.16 1483.03 Q1708.01 1486.25 1702.78 1486.25 Q1696.78 1486.25 1693.61 1481.67 Q1690.44 1477.06 1690.44 1468.33 Q1690.44 1460.14 1694.33 1455.28 Q1698.22 1450.39 1704.77 1450.39 Q1706.53 1450.39 1708.31 1450.74 Q1710.12 1451.09 1712.06 1451.78 Z" fill="#000000" fill-rule="nonzero" fill-opacity="1" /><path clip-path="url(#clip830)" d="M2290.95 1469.17 Q2287.62 1469.17 2285.7 1470.95 Q2283.8 1472.73 2283.8 1475.86 Q2283.8 1478.98 2285.7 1480.77 Q2287.62 1482.55 2290.95 1482.55 Q2294.29 1482.55 2296.21 1480.77 Q2298.13 1478.96 2298.13 1475.86 Q2298.13 1472.73 2296.21 1470.95 Q2294.31 1469.17 2290.95 1469.17 M2286.28 1467.18 Q2283.27 1466.44 2281.58 1464.38 Q2279.91 1462.32 2279.91 1459.35 Q2279.91 1455.21 2282.85 1452.8 Q2285.82 1450.39 2290.95 1450.39 Q2296.12 1450.39 2299.06 1452.8 Q2302 1455.21 2302 1459.35 Q2302 1462.32 2300.31 1464.38 Q2298.64 1466.44 2295.65 1467.18 Q2299.03 1467.96 2300.91 1470.26 Q2302.81 1472.55 2302.81 1475.86 Q2302.81 1480.88 2299.73 1483.57 Q2296.67 1486.25 2290.95 1486.25 Q2285.24 1486.25 2282.16 1483.57 Q2279.1 1480.88 2279.1 1475.86 Q2279.1 1472.55 2281 1470.26 Q2282.9 1467.96 2286.28 1467.18 M2284.57 1459.79 Q2284.57 1462.48 2286.23 1463.98 Q2287.92 1465.49 2290.95 1465.49 Q2293.96 1465.49 2295.65 1463.98 Q2297.37 1462.48 2297.37 1459.79 Q2297.37 1457.11 2295.65 1455.6 Q2293.96 1454.1 2290.95 1454.1 Q2287.92 1454.1 2286.23 1455.6 Q2284.57 1457.11 2284.57 1459.79 Z" fill="#000000" fill-rule="nonzero" fill-opacity="1" /><path clip-path="url(#clip830)" d="M1189.47 1518.52 L1189.47 1523.39 L1183.87 1523.39 Q1180.71 1523.39 1179.47 1524.66 Q1178.26 1525.93 1178.26 1529.24 L1178.26 1532.4 L1187.91 1532.4 L1187.91 1536.95 L1178.26 1536.95 L1178.26 1568.04 L1172.38 1568.04 L1172.38 1536.95 L1166.77 1536.95 L1166.77 1532.4 L1172.38 1532.4 L1172.38 1529.91 Q1172.38 1523.96 1175.14 1521.26 Q1177.91 1518.52 1183.93 1518.52 L1189.47 1518.52 Z" fill="#000000" fill-rule="nonzero" fill-opacity="1" /><path clip-path="url(#clip830)" d="M1215.03 1537.87 Q1214.04 1537.3 1212.86 1537.04 Q1211.72 1536.76 1210.32 1536.76 Q1205.35 1536.76 1202.68 1540 Q1200.03 1543.22 1200.03 1549.27 L1200.03 1568.04 L1194.15 1568.04 L1194.15 1532.4 L1200.03 1532.4 L1200.03 1537.93 Q1201.88 1534.69 1204.84 1533.13 Q1207.8 1531.54 1212.03 1531.54 Q1212.64 1531.54 1213.37 1531.63 Q1214.1 1531.7 1214.99 1531.85 L1215.03 1537.87 Z" fill="#000000" fill-rule="nonzero" fill-opacity="1" /><path clip-path="url(#clip830)" d="M1237.37 1550.12 Q1230.27 1550.12 1227.53 1551.75 Q1224.8 1553.37 1224.8 1557.29 Q1224.8 1560.4 1226.83 1562.25 Q1228.9 1564.07 1232.44 1564.07 Q1237.31 1564.07 1240.23 1560.63 Q1243.19 1557.16 1243.19 1551.43 L1243.19 1550.12 L1237.37 1550.12 M1249.05 1547.71 L1249.05 1568.04 L1243.19 1568.04 L1243.19 1562.63 Q1241.19 1565.88 1238.2 1567.44 Q1235.21 1568.97 1230.88 1568.97 Q1225.4 1568.97 1222.16 1565.91 Q1218.94 1562.82 1218.94 1557.67 Q1218.94 1551.65 1222.95 1548.6 Q1226.99 1545.54 1234.98 1545.54 L1243.19 1545.54 L1243.19 1544.97 Q1243.19 1540.93 1240.52 1538.73 Q1237.88 1536.5 1233.07 1536.5 Q1230.02 1536.5 1227.12 1537.23 Q1224.22 1537.97 1221.55 1539.43 L1221.55 1534.02 Q1224.77 1532.78 1227.79 1532.17 Q1230.81 1531.54 1233.68 1531.54 Q1241.41 1531.54 1245.23 1535.55 Q1249.05 1539.56 1249.05 1547.71 Z" fill="#000000" fill-rule="nonzero" fill-opacity="1" /><path clip-path="url(#clip830)" d="M1288.87 1539.24 Q1291.06 1535.29 1294.12 1533.41 Q1297.18 1531.54 1301.31 1531.54 Q1306.88 1531.54 1309.91 1535.45 Q1312.93 1539.33 1312.93 1546.53 L1312.93 1568.04 L1307.04 1568.04 L1307.04 1546.72 Q1307.04 1541.59 1305.23 1539.11 Q1303.41 1536.63 1299.69 1536.63 Q1295.14 1536.63 1292.5 1539.65 Q1289.85 1542.68 1289.85 1547.9 L1289.85 1568.04 L1283.97 1568.04 L1283.97 1546.72 Q1283.97 1541.56 1282.15 1539.11 Q1280.34 1536.63 1276.55 1536.63 Q1272.06 1536.63 1269.42 1539.68 Q1266.78 1542.71 1266.78 1547.9 L1266.78 1568.04 L1260.89 1568.04 L1260.89 1532.4 L1266.78 1532.4 L1266.78 1537.93 Q1268.78 1534.66 1271.59 1533.1 Q1274.39 1531.54 1278.24 1531.54 Q1282.12 1531.54 1284.83 1533.51 Q1287.56 1535.48 1288.87 1539.24 Z" fill="#000000" fill-rule="nonzero" fill-opacity="1" /><path clip-path="url(#clip830)" d="M1355.1 1548.76 L1355.1 1551.62 L1328.18 1551.62 Q1328.56 1557.67 1331.8 1560.85 Q1335.08 1564 1340.91 1564 Q1344.28 1564 1347.43 1563.17 Q1350.62 1562.35 1353.73 1560.69 L1353.73 1566.23 Q1350.58 1567.57 1347.27 1568.27 Q1343.96 1568.97 1340.56 1568.97 Q1332.03 1568.97 1327.03 1564 Q1322.07 1559.04 1322.07 1550.57 Q1322.07 1541.82 1326.78 1536.69 Q1331.52 1531.54 1339.54 1531.54 Q1346.73 1531.54 1350.9 1536.18 Q1355.1 1540.8 1355.1 1548.76 M1349.25 1547.04 Q1349.18 1542.23 1346.54 1539.37 Q1343.93 1536.5 1339.6 1536.5 Q1334.7 1536.5 1331.74 1539.27 Q1328.81 1542.04 1328.37 1547.07 L1349.25 1547.04 Z" fill="#000000" fill-rule="nonzero" fill-opacity="1" /><polyline clip-path="url(#clip830)" style="stroke:#000000; stroke-linecap:round; stroke-linejoin:round; stroke-width:4; stroke-opacity:1; fill:none" points="169.121,1423.18 169.121,47.2441 "/>
<polyline clip-path="url(#clip830)" style="stroke:#000000; stroke-linecap:round; stroke-linejoin:round; stroke-width:4; stroke-opacity:1; fill:none" points="169.121,1384.24 188.019,1384.24 "/>
<polyline clip-path="url(#clip830)" style="stroke:#000000; stroke-linecap:round; stroke-linejoin:round; stroke-width:4; stroke-opacity:1; fill:none" points="169.121,1059.73 188.019,1059.73 "/>
<polyline clip-path="url(#clip830)" style="stroke:#000000; stroke-linecap:round; stroke-linejoin:round; stroke-width:4; stroke-opacity:1; fill:none" points="169.121,735.212 188.019,735.212 "/>
<polyline clip-path="url(#clip830)" style="stroke:#000000; stroke-linecap:round; stroke-linejoin:round; stroke-width:4; stroke-opacity:1; fill:none" points="169.121,410.699 188.019,410.699 "/>
<polyline clip-path="url(#clip830)" style="stroke:#000000; stroke-linecap:round; stroke-linejoin:round; stroke-width:4; stroke-opacity:1; fill:none" points="169.121,86.1857 188.019,86.1857 "/>
<path clip-path="url(#clip830)" d="M85.0429 1397.58 L101.362 1397.58 L101.362 1401.52 L79.4179 1401.52 L79.4179 1397.58 Q82.0799 1394.83 86.6632 1390.2 Q91.2697 1385.55 92.4502 1384.2 Q94.6956 1381.68 95.5752 1379.94 Q96.478 1378.19 96.478 1376.5 Q96.478 1373.74 94.5336 1372 Q92.6123 1370.27 89.5104 1370.27 Q87.3114 1370.27 84.8577 1371.03 Q82.4271 1371.8 79.6494 1373.35 L79.6494 1368.62 Q82.4734 1367.49 84.9271 1366.91 Q87.3808 1366.33 89.4178 1366.33 Q94.7882 1366.33 97.9826 1369.02 Q101.177 1371.7 101.177 1376.19 Q101.177 1378.32 100.367 1380.25 Q99.5798 1382.14 97.4734 1384.74 Q96.8947 1385.41 93.7928 1388.62 Q90.691 1391.82 85.0429 1397.58 Z" fill="#000000" fill-rule="nonzero" fill-opacity="1" /><path clip-path="url(#clip830)" d="M121.177 1370.04 Q117.566 1370.04 115.737 1373.6 Q113.932 1377.14 113.932 1384.27 Q113.932 1391.38 115.737 1394.94 Q117.566 1398.49 121.177 1398.49 Q124.811 1398.49 126.617 1394.94 Q128.445 1391.38 128.445 1384.27 Q128.445 1377.14 126.617 1373.6 Q124.811 1370.04 121.177 1370.04 M121.177 1366.33 Q126.987 1366.33 130.043 1370.94 Q133.121 1375.52 133.121 1384.27 Q133.121 1393 130.043 1397.61 Q126.987 1402.19 121.177 1402.19 Q115.367 1402.19 112.288 1397.61 Q109.233 1393 109.233 1384.27 Q109.233 1375.52 112.288 1370.94 Q115.367 1366.33 121.177 1366.33 Z" fill="#000000" fill-rule="nonzero" fill-opacity="1" /><path clip-path="url(#clip830)" d="M93.8623 1046.52 L82.0568 1064.97 L93.8623 1064.97 L93.8623 1046.52 M92.6354 1042.45 L98.515 1042.45 L98.515 1064.97 L103.446 1064.97 L103.446 1068.86 L98.515 1068.86 L98.515 1077.01 L93.8623 1077.01 L93.8623 1068.86 L78.2605 1068.86 L78.2605 1064.34 L92.6354 1042.45 Z" fill="#000000" fill-rule="nonzero" fill-opacity="1" /><path clip-path="url(#clip830)" d="M121.177 1045.52 Q117.566 1045.52 115.737 1049.09 Q113.932 1052.63 113.932 1059.76 Q113.932 1066.87 115.737 1070.43 Q117.566 1073.97 121.177 1073.97 Q124.811 1073.97 126.617 1070.43 Q128.445 1066.87 128.445 1059.76 Q128.445 1052.63 126.617 1049.09 Q124.811 1045.52 121.177 1045.52 M121.177 1041.82 Q126.987 1041.82 130.043 1046.43 Q133.121 1051.01 133.121 1059.76 Q133.121 1068.49 130.043 1073.09 Q126.987 1077.68 121.177 1077.68 Q115.367 1077.68 112.288 1073.09 Q109.233 1068.49 109.233 1059.76 Q109.233 1051.01 112.288 1046.43 Q115.367 1041.82 121.177 1041.82 Z" fill="#000000" fill-rule="nonzero" fill-opacity="1" /><path clip-path="url(#clip830)" d="M91.5938 733.349 Q88.4456 733.349 86.5938 735.501 Q84.7651 737.654 84.7651 741.404 Q84.7651 745.131 86.5938 747.307 Q88.4456 749.46 91.5938 749.46 Q94.7419 749.46 96.5706 747.307 Q98.4224 745.131 98.4224 741.404 Q98.4224 737.654 96.5706 735.501 Q94.7419 733.349 91.5938 733.349 M100.876 718.696 L100.876 722.955 Q99.1169 722.122 97.3113 721.682 Q95.5289 721.242 93.7697 721.242 Q89.1401 721.242 86.6864 724.367 Q84.2558 727.492 83.9086 733.812 Q85.2743 731.798 87.3345 730.733 Q89.3947 729.645 91.8715 729.645 Q97.0798 729.645 100.089 732.816 Q103.121 735.964 103.121 741.404 Q103.121 746.728 99.9733 749.946 Q96.8252 753.163 91.5938 753.163 Q85.5984 753.163 82.4271 748.58 Q79.2559 743.973 79.2559 735.247 Q79.2559 727.052 83.1447 722.191 Q87.0336 717.307 93.5845 717.307 Q95.3437 717.307 97.1261 717.654 Q98.9317 718.001 100.876 718.696 Z" fill="#000000" fill-rule="nonzero" fill-opacity="1" /><path clip-path="url(#clip830)" d="M121.177 721.011 Q117.566 721.011 115.737 724.575 Q113.932 728.117 113.932 735.247 Q113.932 742.353 115.737 745.918 Q117.566 749.46 121.177 749.46 Q124.811 749.46 126.617 745.918 Q128.445 742.353 128.445 735.247 Q128.445 728.117 126.617 724.575 Q124.811 721.011 121.177 721.011 M121.177 717.307 Q126.987 717.307 130.043 721.913 Q133.121 726.497 133.121 735.247 Q133.121 743.973 130.043 748.58 Q126.987 753.163 121.177 753.163 Q115.367 753.163 112.288 748.58 Q109.233 743.973 109.233 735.247 Q109.233 726.497 112.288 721.913 Q115.367 717.307 121.177 717.307 Z" fill="#000000" fill-rule="nonzero" fill-opacity="1" /><path clip-path="url(#clip830)" d="M91.0151 411.567 Q87.6817 411.567 85.7605 413.349 Q83.8623 415.132 83.8623 418.257 Q83.8623 421.382 85.7605 423.164 Q87.6817 424.946 91.0151 424.946 Q94.3484 424.946 96.2697 423.164 Q98.1909 421.358 98.1909 418.257 Q98.1909 415.132 96.2697 413.349 Q94.3715 411.567 91.0151 411.567 M86.3392 409.576 Q83.3299 408.835 81.6401 406.775 Q79.9735 404.715 79.9735 401.752 Q79.9735 397.609 82.9133 395.201 Q85.8762 392.794 91.0151 392.794 Q96.1771 392.794 99.1169 395.201 Q102.057 397.609 102.057 401.752 Q102.057 404.715 100.367 406.775 Q98.7002 408.835 95.7141 409.576 Q99.0937 410.363 100.969 412.655 Q102.867 414.946 102.867 418.257 Q102.867 423.28 99.7882 425.965 Q96.7326 428.65 91.0151 428.65 Q85.2975 428.65 82.2188 425.965 Q79.1633 423.28 79.1633 418.257 Q79.1633 414.946 81.0614 412.655 Q82.9595 410.363 86.3392 409.576 M84.6262 402.192 Q84.6262 404.877 86.2929 406.382 Q87.9827 407.886 91.0151 407.886 Q94.0243 407.886 95.7141 406.382 Q97.4271 404.877 97.4271 402.192 Q97.4271 399.507 95.7141 398.002 Q94.0243 396.498 91.0151 396.498 Q87.9827 396.498 86.2929 398.002 Q84.6262 399.507 84.6262 402.192 Z" fill="#000000" fill-rule="nonzero" fill-opacity="1" /><path clip-path="url(#clip830)" d="M121.177 396.498 Q117.566 396.498 115.737 400.062 Q113.932 403.604 113.932 410.734 Q113.932 417.84 115.737 421.405 Q117.566 424.946 121.177 424.946 Q124.811 424.946 126.617 421.405 Q128.445 417.84 128.445 410.734 Q128.445 403.604 126.617 400.062 Q124.811 396.498 121.177 396.498 M121.177 392.794 Q126.987 392.794 130.043 397.4 Q133.121 401.984 133.121 410.734 Q133.121 419.46 130.043 424.067 Q126.987 428.65 121.177 428.65 Q115.367 428.65 112.288 424.067 Q109.233 419.46 109.233 410.734 Q109.233 401.984 112.288 397.4 Q115.367 392.794 121.177 392.794 Z" fill="#000000" fill-rule="nonzero" fill-opacity="1" /><path clip-path="url(#clip830)" d="M51.6634 99.5305 L59.3023 99.5305 L59.3023 73.1649 L50.9921 74.8316 L50.9921 70.5723 L59.256 68.9057 L63.9319 68.9057 L63.9319 99.5305 L71.5707 99.5305 L71.5707 103.466 L51.6634 103.466 L51.6634 99.5305 Z" fill="#000000" fill-rule="nonzero" fill-opacity="1" /><path clip-path="url(#clip830)" d="M91.0151 71.9844 Q87.404 71.9844 85.5753 75.5492 Q83.7697 79.0908 83.7697 86.2204 Q83.7697 93.3268 85.5753 96.8916 Q87.404 100.433 91.0151 100.433 Q94.6493 100.433 96.4548 96.8916 Q98.2835 93.3268 98.2835 86.2204 Q98.2835 79.0908 96.4548 75.5492 Q94.6493 71.9844 91.0151 71.9844 M91.0151 68.2807 Q96.8252 68.2807 99.8808 72.8871 Q102.959 77.4704 102.959 86.2204 Q102.959 94.9472 99.8808 99.5537 Q96.8252 104.137 91.0151 104.137 Q85.2049 104.137 82.1262 99.5537 Q79.0707 94.9472 79.0707 86.2204 Q79.0707 77.4704 82.1262 72.8871 Q85.2049 68.2807 91.0151 68.2807 Z" fill="#000000" fill-rule="nonzero" fill-opacity="1" /><path clip-path="url(#clip830)" d="M121.177 71.9844 Q117.566 71.9844 115.737 75.5492 Q113.932 79.0908 113.932 86.2204 Q113.932 93.3268 115.737 96.8916 Q117.566 100.433 121.177 100.433 Q124.811 100.433 126.617 96.8916 Q128.445 93.3268 128.445 86.2204 Q128.445 79.0908 126.617 75.5492 Q124.811 71.9844 121.177 71.9844 M121.177 68.2807 Q126.987 68.2807 130.043 72.8871 Q133.121 77.4704 133.121 86.2204 Q133.121 94.9472 130.043 99.5537 Q126.987 104.137 121.177 104.137 Q115.367 104.137 112.288 99.5537 Q109.233 94.9472 109.233 86.2204 Q109.233 77.4704 112.288 72.8871 Q115.367 68.2807 121.177 68.2807 Z" fill="#000000" fill-rule="nonzero" fill-opacity="1" /><polyline clip-path="url(#clip831)" style="stroke:#009af9; stroke-linecap:round; stroke-linejoin:round; stroke-width:4; stroke-opacity:1; fill:none" points="230.922,1384.24 525.213,1384.24 819.503,1384.24 1113.79,1384.24 1408.08,410.699 1702.37,86.1857 1996.66,410.699 2290.95,1384.24 "/>
<path clip-path="url(#clip831)" d="M230.922 1400.24 L219.61 1395.55 L214.922 1384.24 L219.61 1372.93 L230.922 1368.24 L242.234 1372.93 L246.922 1384.24 L242.234 1395.55 Z" fill="#009af9" fill-rule="evenodd" fill-opacity="1" stroke="none"/>
<path clip-path="url(#clip831)" d="M525.213 1400.24 L513.901 1395.55 L509.213 1384.24 L513.901 1372.93 L525.213 1368.24 L536.525 1372.93 L541.213 1384.24 L536.525 1395.55 Z" fill="#009af9" fill-rule="evenodd" fill-opacity="1" stroke="none"/>
<path clip-path="url(#clip831)" d="M819.503 1400.24 L808.191 1395.55 L803.503 1384.24 L808.191 1372.93 L819.503 1368.24 L830.815 1372.93 L835.503 1384.24 L830.815 1395.55 Z" fill="#009af9" fill-rule="evenodd" fill-opacity="1" stroke="none"/>
<path clip-path="url(#clip831)" d="M1113.79 1400.24 L1102.48 1395.55 L1097.79 1384.24 L1102.48 1372.93 L1113.79 1368.24 L1125.11 1372.93 L1129.79 1384.24 L1125.11 1395.55 Z" fill="#009af9" fill-rule="evenodd" fill-opacity="1" stroke="none"/>
<path clip-path="url(#clip831)" d="M1408.08 426.699 L1396.77 422.011 L1392.08 410.699 L1396.77 399.387 L1408.08 394.699 L1419.4 399.387 L1424.08 410.699 L1419.4 422.011 Z" fill="#009af9" fill-rule="evenodd" fill-opacity="1" stroke="none"/>
<path clip-path="url(#clip831)" d="M1702.37 102.186 L1691.06 97.4977 L1686.37 86.1857 L1691.06 74.8737 L1702.37 70.1857 L1713.69 74.8737 L1718.37 86.1857 L1713.69 97.4977 Z" fill="#009af9" fill-rule="evenodd" fill-opacity="1" stroke="none"/>
<path clip-path="url(#clip831)" d="M1996.66 426.699 L1985.35 422.011 L1980.66 410.699 L1985.35 399.387 L1996.66 394.699 L2007.98 399.387 L2012.66 410.699 L2007.98 422.011 Z" fill="#009af9" fill-rule="evenodd" fill-opacity="1" stroke="none"/>
<path clip-path="url(#clip831)" d="M2290.95 1400.24 L2279.64 1395.55 L2274.95 1384.24 L2279.64 1372.93 L2290.95 1368.24 L2302.27 1372.93 L2306.95 1384.24 L2302.27 1395.55 Z" fill="#009af9" fill-rule="evenodd" fill-opacity="1" stroke="none"/>
<path clip-path="url(#clip830)" d="M1756.05 196.789 L2279.97 196.789 L2279.97 93.1086 L1756.05 93.1086  Z" fill="#ffffff" fill-rule="evenodd" fill-opacity="1"/>
<polyline clip-path="url(#clip830)" style="stroke:#000000; stroke-linecap:round; stroke-linejoin:round; stroke-width:4; stroke-opacity:1; fill:none" points="1756.05,196.789 2279.97,196.789 2279.97,93.1086 1756.05,93.1086 1756.05,196.789 "/>
<polyline clip-path="url(#clip830)" style="stroke:#009af9; stroke-linecap:round; stroke-linejoin:round; stroke-width:4; stroke-opacity:1; fill:none" points="1780.31,144.949 1925.89,144.949 "/>
<path clip-path="url(#clip830)" d="M1853.1 167.414 L1837.22 160.832 L1830.64 144.949 L1837.22 129.066 L1853.1 122.483 L1868.98 129.066 L1875.57 144.949 L1868.98 160.832 Z" fill="#009af9" fill-rule="evenodd" fill-opacity="1" stroke="none"/>
<path clip-path="url(#clip830)" d="M1950.15 136.303 L1954.41 136.303 L1954.41 162.229 L1950.15 162.229 L1950.15 136.303 M1950.15 126.21 L1954.41 126.21 L1954.41 131.604 L1950.15 131.604 L1950.15 126.21 Z" fill="#000000" fill-rule="nonzero" fill-opacity="1" /><path clip-path="url(#clip830)" d="M1984.87 136.303 L1975.5 148.919 L1985.36 162.229 L1980.34 162.229 L1972.79 152.043 L1965.24 162.229 L1960.22 162.229 L1970.29 148.664 L1961.08 136.303 L1966.1 136.303 L1972.98 145.539 L1979.85 136.303 L1984.87 136.303 Z" fill="#000000" fill-rule="nonzero" fill-opacity="1" /><path clip-path="url(#clip830)" d="M1991.93 140.701 L2021.61 140.701 L2021.61 144.59 L1991.93 144.59 L1991.93 140.701 M1991.93 150.145 L2021.61 150.145 L2021.61 154.081 L1991.93 154.081 L1991.93 150.145 Z" fill="#000000" fill-rule="nonzero" fill-opacity="1" /><path clip-path="url(#clip830)" d="M2045.87 143.594 Q2049.23 144.312 2051.1 146.581 Q2053 148.849 2053 152.182 Q2053 157.298 2049.48 160.099 Q2045.96 162.9 2039.48 162.9 Q2037.3 162.9 2034.99 162.46 Q2032.7 162.043 2030.24 161.187 L2030.24 156.673 Q2032.19 157.807 2034.5 158.386 Q2036.82 158.965 2039.34 158.965 Q2043.74 158.965 2046.03 157.229 Q2048.35 155.493 2048.35 152.182 Q2048.35 149.127 2046.19 147.414 Q2044.06 145.678 2040.24 145.678 L2036.22 145.678 L2036.22 141.835 L2040.43 141.835 Q2043.88 141.835 2045.71 140.469 Q2047.54 139.081 2047.54 136.488 Q2047.54 133.826 2045.64 132.414 Q2043.76 130.979 2040.24 130.979 Q2038.32 130.979 2036.12 131.395 Q2033.92 131.812 2031.29 132.692 L2031.29 128.525 Q2033.95 127.784 2036.26 127.414 Q2038.6 127.044 2040.66 127.044 Q2045.98 127.044 2049.09 129.474 Q2052.19 131.882 2052.19 136.002 Q2052.19 138.872 2050.54 140.863 Q2048.9 142.831 2045.87 143.594 Z" fill="#000000" fill-rule="nonzero" fill-opacity="1" /><path clip-path="url(#clip830)" d="M2071.86 130.747 Q2068.25 130.747 2066.42 134.312 Q2064.62 137.854 2064.62 144.983 Q2064.62 152.09 2066.42 155.655 Q2068.25 159.196 2071.86 159.196 Q2075.5 159.196 2077.3 155.655 Q2079.13 152.09 2079.13 144.983 Q2079.13 137.854 2077.3 134.312 Q2075.5 130.747 2071.86 130.747 M2071.86 127.044 Q2077.67 127.044 2080.73 131.65 Q2083.81 136.233 2083.81 144.983 Q2083.81 153.71 2080.73 158.317 Q2077.67 162.9 2071.86 162.9 Q2066.05 162.9 2062.98 158.317 Q2059.92 153.71 2059.92 144.983 Q2059.92 136.233 2062.98 131.65 Q2066.05 127.044 2071.86 127.044 Z" fill="#000000" fill-rule="nonzero" fill-opacity="1" /><path clip-path="url(#clip830)" d="M2092.51 156.349 L2097.4 156.349 L2097.4 160.33 L2093.6 167.738 L2090.61 167.738 L2092.51 160.33 L2092.51 156.349 Z" fill="#000000" fill-rule="nonzero" fill-opacity="1" /><path clip-path="url(#clip830)" d="M2121.56 136.303 L2125.82 136.303 L2125.82 162.229 L2121.56 162.229 L2121.56 136.303 M2121.56 126.21 L2125.82 126.21 L2125.82 131.604 L2121.56 131.604 L2121.56 126.21 Z" fill="#000000" fill-rule="nonzero" fill-opacity="1" /><path clip-path="url(#clip830)" d="M2145.52 164.636 Q2143.72 169.266 2142 170.678 Q2140.29 172.09 2137.42 172.09 L2134.02 172.09 L2134.02 168.525 L2136.52 168.525 Q2138.28 168.525 2139.25 167.692 Q2140.22 166.858 2141.4 163.756 L2142.16 161.812 L2131.68 136.303 L2136.19 136.303 L2144.29 156.581 L2152.4 136.303 L2156.91 136.303 L2145.52 164.636 Z" fill="#000000" fill-rule="nonzero" fill-opacity="1" /><path clip-path="url(#clip830)" d="M2163.34 140.701 L2193.02 140.701 L2193.02 144.59 L2163.34 144.59 L2163.34 140.701 M2163.34 150.145 L2193.02 150.145 L2193.02 154.081 L2163.34 154.081 L2163.34 150.145 Z" fill="#000000" fill-rule="nonzero" fill-opacity="1" /><path clip-path="url(#clip830)" d="M2203.92 158.293 L2211.56 158.293 L2211.56 131.928 L2203.25 133.595 L2203.25 129.335 L2211.52 127.669 L2216.19 127.669 L2216.19 158.293 L2223.83 158.293 L2223.83 162.229 L2203.92 162.229 L2203.92 158.293 Z" fill="#000000" fill-rule="nonzero" fill-opacity="1" /><path clip-path="url(#clip830)" d="M2246.12 131.743 L2234.32 150.192 L2246.12 150.192 L2246.12 131.743 M2244.9 127.669 L2250.77 127.669 L2250.77 150.192 L2255.71 150.192 L2255.71 154.081 L2250.77 154.081 L2250.77 162.229 L2246.12 162.229 L2246.12 154.081 L2230.52 154.081 L2230.52 149.567 L2244.9 127.669 Z" fill="#000000" fill-rule="nonzero" fill-opacity="1" /></svg>
